<svg version="1.1" xmlns="http://www.w3.org/2000/svg" xmlns:xlink="http://www.w3.org/1999/xlink" width="564" height="444"><defs/><g><text fill="#eeeeee" stroke="none" font-family="Arial" font-size="24px" font-style="normal" font-weight="normal" text-decoration="none" x="0" y="0">UNREGISTERED</text><text fill="#eeeeee" stroke="none" font-family="Arial" font-size="24px" font-style="normal" font-weight="normal" text-decoration="none" x="0" y="30">UNREGISTERED</text><text fill="#eeeeee" stroke="none" font-family="Arial" font-size="24px" font-style="normal" font-weight="normal" text-decoration="none" x="0" y="60">UNREGISTERED</text><text fill="#eeeeee" stroke="none" font-family="Arial" font-size="24px" font-style="normal" font-weight="normal" text-decoration="none" x="0" y="90">UNREGISTERED</text><text fill="#eeeeee" stroke="none" font-family="Arial" font-size="24px" font-style="normal" font-weight="normal" text-decoration="none" x="0" y="120">UNREGISTERED</text><text fill="#eeeeee" stroke="none" font-family="Arial" font-size="24px" font-style="normal" font-weight="normal" text-decoration="none" x="0" y="150">UNREGISTERED</text><text fill="#eeeeee" stroke="none" font-family="Arial" font-size="24px" font-style="normal" font-weight="normal" text-decoration="none" x="0" y="180">UNREGISTERED</text><text fill="#eeeeee" stroke="none" font-family="Arial" font-size="24px" font-style="normal" font-weight="normal" text-decoration="none" x="0" y="210">UNREGISTERED</text><text fill="#eeeeee" stroke="none" font-family="Arial" font-size="24px" font-style="normal" font-weight="normal" text-decoration="none" x="0" y="240">UNREGISTERED</text><text fill="#eeeeee" stroke="none" font-family="Arial" font-size="24px" font-style="normal" font-weight="normal" text-decoration="none" x="0" y="270">UNREGISTERED</text><text fill="#eeeeee" stroke="none" font-family="Arial" font-size="24px" font-style="normal" font-weight="normal" text-decoration="none" x="0" y="300">UNREGISTERED</text><text fill="#eeeeee" stroke="none" font-family="Arial" font-size="24px" font-style="normal" font-weight="normal" text-decoration="none" x="0" y="330">UNREGISTERED</text><text fill="#eeeeee" stroke="none" font-family="Arial" font-size="24px" font-style="normal" font-weight="normal" text-decoration="none" x="0" y="360">UNREGISTERED</text><text fill="#eeeeee" stroke="none" font-family="Arial" font-size="24px" font-style="normal" font-weight="normal" text-decoration="none" x="0" y="390">UNREGISTERED</text><text fill="#eeeeee" stroke="none" font-family="Arial" font-size="24px" font-style="normal" font-weight="normal" text-decoration="none" x="0" y="420">UNREGISTERED</text><text fill="#eeeeee" stroke="none" font-family="Arial" font-size="24px" font-style="normal" font-weight="normal" text-decoration="none" x="200" y="0">UNREGISTERED</text><text fill="#eeeeee" stroke="none" font-family="Arial" font-size="24px" font-style="normal" font-weight="normal" text-decoration="none" x="200" y="30">UNREGISTERED</text><text fill="#eeeeee" stroke="none" font-family="Arial" font-size="24px" font-style="normal" font-weight="normal" text-decoration="none" x="200" y="60">UNREGISTERED</text><text fill="#eeeeee" stroke="none" font-family="Arial" font-size="24px" font-style="normal" font-weight="normal" text-decoration="none" x="200" y="90">UNREGISTERED</text><text fill="#eeeeee" stroke="none" font-family="Arial" font-size="24px" font-style="normal" font-weight="normal" text-decoration="none" x="200" y="120">UNREGISTERED</text><text fill="#eeeeee" stroke="none" font-family="Arial" font-size="24px" font-style="normal" font-weight="normal" text-decoration="none" x="200" y="150">UNREGISTERED</text><text fill="#eeeeee" stroke="none" font-family="Arial" font-size="24px" font-style="normal" font-weight="normal" text-decoration="none" x="200" y="180">UNREGISTERED</text><text fill="#eeeeee" stroke="none" font-family="Arial" font-size="24px" font-style="normal" font-weight="normal" text-decoration="none" x="200" y="210">UNREGISTERED</text><text fill="#eeeeee" stroke="none" font-family="Arial" font-size="24px" font-style="normal" font-weight="normal" text-decoration="none" x="200" y="240">UNREGISTERED</text><text fill="#eeeeee" stroke="none" font-family="Arial" font-size="24px" font-style="normal" font-weight="normal" text-decoration="none" x="200" y="270">UNREGISTERED</text><text fill="#eeeeee" stroke="none" font-family="Arial" font-size="24px" font-style="normal" font-weight="normal" text-decoration="none" x="200" y="300">UNREGISTERED</text><text fill="#eeeeee" stroke="none" font-family="Arial" font-size="24px" font-style="normal" font-weight="normal" text-decoration="none" x="200" y="330">UNREGISTERED</text><text fill="#eeeeee" stroke="none" font-family="Arial" font-size="24px" font-style="normal" font-weight="normal" text-decoration="none" x="200" y="360">UNREGISTERED</text><text fill="#eeeeee" stroke="none" font-family="Arial" font-size="24px" font-style="normal" font-weight="normal" text-decoration="none" x="200" y="390">UNREGISTERED</text><text fill="#eeeeee" stroke="none" font-family="Arial" font-size="24px" font-style="normal" font-weight="normal" text-decoration="none" x="200" y="420">UNREGISTERED</text><text fill="#eeeeee" stroke="none" font-family="Arial" font-size="24px" font-style="normal" font-weight="normal" text-decoration="none" x="400" y="0">UNREGISTERED</text><text fill="#eeeeee" stroke="none" font-family="Arial" font-size="24px" font-style="normal" font-weight="normal" text-decoration="none" x="400" y="30">UNREGISTERED</text><text fill="#eeeeee" stroke="none" font-family="Arial" font-size="24px" font-style="normal" font-weight="normal" text-decoration="none" x="400" y="60">UNREGISTERED</text><text fill="#eeeeee" stroke="none" font-family="Arial" font-size="24px" font-style="normal" font-weight="normal" text-decoration="none" x="400" y="90">UNREGISTERED</text><text fill="#eeeeee" stroke="none" font-family="Arial" font-size="24px" font-style="normal" font-weight="normal" text-decoration="none" x="400" y="120">UNREGISTERED</text><text fill="#eeeeee" stroke="none" font-family="Arial" font-size="24px" font-style="normal" font-weight="normal" text-decoration="none" x="400" y="150">UNREGISTERED</text><text fill="#eeeeee" stroke="none" font-family="Arial" font-size="24px" font-style="normal" font-weight="normal" text-decoration="none" x="400" y="180">UNREGISTERED</text><text fill="#eeeeee" stroke="none" font-family="Arial" font-size="24px" font-style="normal" font-weight="normal" text-decoration="none" x="400" y="210">UNREGISTERED</text><text fill="#eeeeee" stroke="none" font-family="Arial" font-size="24px" font-style="normal" font-weight="normal" text-decoration="none" x="400" y="240">UNREGISTERED</text><text fill="#eeeeee" stroke="none" font-family="Arial" font-size="24px" font-style="normal" font-weight="normal" text-decoration="none" x="400" y="270">UNREGISTERED</text><text fill="#eeeeee" stroke="none" font-family="Arial" font-size="24px" font-style="normal" font-weight="normal" text-decoration="none" x="400" y="300">UNREGISTERED</text><text fill="#eeeeee" stroke="none" font-family="Arial" font-size="24px" font-style="normal" font-weight="normal" text-decoration="none" x="400" y="330">UNREGISTERED</text><text fill="#eeeeee" stroke="none" font-family="Arial" font-size="24px" font-style="normal" font-weight="normal" text-decoration="none" x="400" y="360">UNREGISTERED</text><text fill="#eeeeee" stroke="none" font-family="Arial" font-size="24px" font-style="normal" font-weight="normal" text-decoration="none" x="400" y="390">UNREGISTERED</text><text fill="#eeeeee" stroke="none" font-family="Arial" font-size="24px" font-style="normal" font-weight="normal" text-decoration="none" x="400" y="420">UNREGISTERED</text><g transform="translate(-86,-14) scale(1,1)"><rect fill="#C0C0C0" stroke="none" x="255" y="167" width="128" height="68" opacity="0.2"/></g><g transform="translate(-86,-14) scale(1,1)"><rect fill="#ffffff" stroke="none" x="248" y="160" width="128" height="68"/></g><g transform="translate(-86,-14) scale(1,1)"><path fill="none" stroke="#000000" d="M 248 160 L 376 160 L 376 228 L 248 228 L 248 160 Z Z" stroke-miterlimit="10"/></g><g transform="translate(-86,-14) scale(1,1)"><g><path fill="none" stroke="none"/><text fill="#000000" stroke="none" font-family="Arial" font-size="13px" font-style="normal" font-weight="bold" text-decoration="none" x="282.734130859375" y="179.5">Institución</text></g></g><g transform="translate(-86,-14) scale(1,1)"><rect fill="#C0C0C0" stroke="none" x="519" y="47" width="128" height="68" opacity="0.2"/></g><g transform="translate(-86,-14) scale(1,1)"><rect fill="#ffffff" stroke="none" x="512" y="40" width="128" height="68"/></g><g transform="translate(-86,-14) scale(1,1)"><path fill="none" stroke="#000000" d="M 512 40 L 640 40 L 640 108 L 512 108 L 512 40 Z Z" stroke-miterlimit="10"/></g><g transform="translate(-86,-14) scale(1,1)"><g><path fill="none" stroke="none"/><text fill="#000000" stroke="none" font-family="Arial" font-size="13px" font-style="normal" font-weight="bold" text-decoration="none" x="533.359619140625" y="59.5">Representante</text><text fill="#000000" stroke="none" font-family="Arial" font-size="13px" font-style="normal" font-weight="bold" text-decoration="none" x="560.095947265625" y="72.5">Legal</text></g></g><g transform="translate(-86,-14) scale(1,1)"><g><path fill="none" stroke="none"/><text fill="#000000" stroke="none" font-family="Arial" font-size="13px" font-style="normal" font-weight="normal" text-decoration="none" x="520.734130859375" y="87.5">(from Instituciones)</text></g></g><g transform="translate(-86,-14) scale(1,1)"><path fill="none" stroke="#000000" d="M 436 74 L 512 74" stroke-miterlimit="10"/></g><g transform="translate(-86,-14) scale(1,1)"><path fill="none" stroke="#000000" d="M 501.83732514237585 78.20951775601598 L 512 74 L 501.83732514237585 69.79048224398402" stroke-miterlimit="10"/></g><g transform="translate(-86,-14) scale(1,1)"><g><path fill="none" stroke="none"/><text fill="#000000" stroke="none" font-family="Arial" font-size="13px" font-style="normal" font-weight="normal" text-decoration="none" x="447.5" y="65.5">+tiene un</text></g></g><g transform="translate(-86,-14) scale(1,1)"><g><path fill="none" stroke="none"/><text fill="#000000" stroke="none" font-family="Arial" font-size="13px" font-style="normal" font-weight="normal" text-decoration="none" x="485.885009765625" y="92.5">1</text></g></g><g transform="translate(-86,-14) scale(1,1)"><rect fill="#C0C0C0" stroke="none" x="103" y="31" width="128" height="89" opacity="0.2"/></g><g transform="translate(-86,-14) scale(1,1)"><rect fill="#ffffff" stroke="none" x="96" y="24" width="128" height="89"/></g><g transform="translate(-86,-14) scale(1,1)"><path fill="none" stroke="#000000" d="M 96 24 L 224 24 L 224 113 L 96 113 L 96 24 Z Z" stroke-miterlimit="10"/></g><g transform="translate(-86,-14) scale(1,1)"><g><path fill="none" stroke="none"/><text fill="#000000" stroke="none" font-family="Arial" font-size="13px" font-style="normal" font-weight="bold" text-decoration="none" x="108.6982421875" y="43.5">Registro Nacional</text><text fill="#000000" stroke="none" font-family="Arial" font-size="13px" font-style="normal" font-weight="bold" text-decoration="none" x="109.77734375" y="56.5">de Instituciones y</text><text fill="#000000" stroke="none" font-family="Arial" font-size="13px" font-style="normal" font-weight="bold" text-decoration="none" x="130.740478515625" y="69.5">Empresas</text><text fill="#000000" stroke="none" font-family="Arial" font-size="13px" font-style="normal" font-weight="bold" text-decoration="none" x="124.59912109375" y="82.5">Científicas y</text><text fill="#000000" stroke="none" font-family="Arial" font-size="13px" font-style="normal" font-weight="bold" text-decoration="none" x="122.421875" y="95.5">Tecnológicas</text><text fill="#000000" stroke="none" font-family="Arial" font-size="13px" font-style="normal" font-weight="bold" text-decoration="none" x="126.055908203125" y="108.5">(RENIECyT</text></g></g><g transform="translate(-86,-14) scale(1,1)"><rect fill="#C0C0C0" stroke="none" x="111" y="311" width="152" height="63" opacity="0.2"/></g><g transform="translate(-86,-14) scale(1,1)"><rect fill="#ffffff" stroke="none" x="104" y="304" width="152" height="63"/></g><g transform="translate(-86,-14) scale(1,1)"><path fill="none" stroke="#000000" d="M 104 304 L 256 304 L 256 367 L 104 367 L 104 304 Z Z" stroke-miterlimit="10"/></g><g transform="translate(-86,-14) scale(1,1)"><g><path fill="none" stroke="none"/><text fill="#000000" stroke="none" font-family="Arial" font-size="13px" font-style="normal" font-weight="bold" text-decoration="none" x="141.6982421875" y="323.5">Institucion de</text><text fill="#000000" stroke="none" font-family="Arial" font-size="13px" font-style="normal" font-weight="bold" text-decoration="none" x="123.27099609375" y="336.5">Educación Superior</text><text fill="#000000" stroke="none" font-family="Arial" font-size="13px" font-style="normal" font-weight="bold" text-decoration="none" x="156.15185546875" y="349.5">públicas</text></g></g><g transform="translate(-86,-14) scale(1,1)"><rect fill="#C0C0C0" stroke="none" x="367" y="311" width="152" height="63" opacity="0.2"/></g><g transform="translate(-86,-14) scale(1,1)"><rect fill="#ffffff" stroke="none" x="360" y="304" width="152" height="63"/></g><g transform="translate(-86,-14) scale(1,1)"><path fill="none" stroke="#000000" d="M 360 304 L 512 304 L 512 367 L 360 367 L 360 304 Z Z" stroke-miterlimit="10"/></g><g transform="translate(-86,-14) scale(1,1)"><g><path fill="none" stroke="none"/><text fill="#000000" stroke="none" font-family="Arial" font-size="13px" font-style="normal" font-weight="bold" text-decoration="none" x="397.6982421875" y="323.5">Institucion de</text><text fill="#000000" stroke="none" font-family="Arial" font-size="13px" font-style="normal" font-weight="bold" text-decoration="none" x="379.27099609375" y="336.5">Educación Superior</text><text fill="#000000" stroke="none" font-family="Arial" font-size="13px" font-style="normal" font-weight="bold" text-decoration="none" x="402.40185546875" y="349.5">particulares</text></g></g><g transform="translate(-86,-14) scale(1,1)"><rect fill="#C0C0C0" stroke="none" x="111" y="391" width="152" height="64" opacity="0.2"/></g><g transform="translate(-86,-14) scale(1,1)"><rect fill="#ffffff" stroke="none" x="104" y="384" width="152" height="64"/></g><g transform="translate(-86,-14) scale(1,1)"><path fill="none" stroke="#000000" d="M 104 384 L 256 384 L 256 448 L 104 448 L 104 384 Z Z" stroke-miterlimit="10"/></g><g transform="translate(-86,-14) scale(1,1)"><g><path fill="none" stroke="none"/><text fill="#000000" stroke="none" font-family="Arial" font-size="13px" font-style="normal" font-weight="bold" text-decoration="none" x="125.080078125" y="403.5">Centro Públicos de</text><text fill="#000000" stroke="none" font-family="Arial" font-size="13px" font-style="normal" font-weight="bold" text-decoration="none" x="142.06005859375" y="416.5">Investigación</text></g></g><g transform="translate(-86,-14) scale(1,1)"><rect fill="#C0C0C0" stroke="none" x="367" y="391" width="152" height="64" opacity="0.2"/></g><g transform="translate(-86,-14) scale(1,1)"><rect fill="#ffffff" stroke="none" x="360" y="384" width="152" height="64"/></g><g transform="translate(-86,-14) scale(1,1)"><path fill="none" stroke="#000000" d="M 360 384 L 512 384 L 512 448 L 360 448 L 360 384 Z Z" stroke-miterlimit="10"/></g><g transform="translate(-86,-14) scale(1,1)"><g><path fill="none" stroke="none"/><text fill="#000000" stroke="none" font-family="Arial" font-size="13px" font-style="normal" font-weight="bold" text-decoration="none" x="371.32373046875" y="403.5">Instituciones federales</text><text fill="#000000" stroke="none" font-family="Arial" font-size="13px" font-style="normal" font-weight="bold" text-decoration="none" x="374.94189453125" y="416.5">y estatales del sector</text><text fill="#000000" stroke="none" font-family="Arial" font-size="13px" font-style="normal" font-weight="bold" text-decoration="none" x="415.40185546875" y="429.5">público</text></g></g><g transform="translate(-86,-14) scale(1,1)"><path fill="none" stroke="#000000" d="M 256 320 L 264 320 M 264 320 A 8 8 0 0 0 272 312 L 272 228" stroke-miterlimit="10"/></g><g transform="translate(-86,-14) scale(1,1)"><path fill="#FFFFFF" stroke="none" d="M 280.419035512032 248.3253497152483 L 272 228 L 263.580964487968 248.3253497152483"/></g><g transform="translate(-86,-14) scale(1,1)"><path fill="none" stroke="#000000" d="M 280.419035512032 248.3253497152483 L 272 228 L 263.580964487968 248.3253497152483 L 280.419035512032 248.3253497152483" stroke-miterlimit="10"/></g><g transform="translate(-86,-14) scale(1,1)"><path fill="none" stroke="#000000" d="M 360 327 L 352 327 M 352 327 A 8 8 0 0 1 344 319 L 344 228" stroke-miterlimit="10"/></g><g transform="translate(-86,-14) scale(1,1)"><path fill="#FFFFFF" stroke="none" d="M 352.419035512032 248.3253497152483 L 344 228 L 335.580964487968 248.3253497152483"/></g><g transform="translate(-86,-14) scale(1,1)"><path fill="none" stroke="#000000" d="M 352.419035512032 248.3253497152483 L 344 228 L 335.580964487968 248.3253497152483 L 352.419035512032 248.3253497152483" stroke-miterlimit="10"/></g><g transform="translate(-86,-14) scale(1,1)"><path fill="none" stroke="#000000" d="M 256 408 L 289 408 M 289 408 A 8 8 0 0 0 297 400 L 297 228" stroke-miterlimit="10"/></g><g transform="translate(-86,-14) scale(1,1)"><path fill="#FFFFFF" stroke="none" d="M 305.419035512032 248.3253497152483 L 297 228 L 288.580964487968 248.3253497152483"/></g><g transform="translate(-86,-14) scale(1,1)"><path fill="none" stroke="#000000" d="M 305.419035512032 248.3253497152483 L 297 228 L 288.580964487968 248.3253497152483 L 305.419035512032 248.3253497152483" stroke-miterlimit="10"/></g><g transform="translate(-86,-14) scale(1,1)"><path fill="none" stroke="#000000" d="M 360 408 L 330 408 M 330 408 A 8 8 0 0 1 322 400 L 322 228" stroke-miterlimit="10"/></g><g transform="translate(-86,-14) scale(1,1)"><path fill="#FFFFFF" stroke="none" d="M 330.419035512032 248.3253497152483 L 322 228 L 313.580964487968 248.3253497152483"/></g><g transform="translate(-86,-14) scale(1,1)"><path fill="none" stroke="#000000" d="M 330.419035512032 248.3253497152483 L 322 228 L 313.580964487968 248.3253497152483 L 330.419035512032 248.3253497152483" stroke-miterlimit="10"/></g><g transform="translate(-86,-14) scale(1,1)"><path fill="none" stroke="#000000" d="M 224 68 L 304 68 M 304 68 A 8 8 0 0 1 312 76 L 312 160" stroke-miterlimit="10"/></g><g transform="translate(-86,-14) scale(1,1)"><g><path fill="none" stroke="none"/><text fill="#000000" stroke="none" font-family="Arial" font-size="13px" font-style="normal" font-weight="normal" text-decoration="none" x="234.74365234375" y="86.5">0..*</text></g></g><g transform="translate(-86,-14) scale(1,1)"><g><path fill="none" stroke="none"/><text fill="#000000" stroke="none" font-family="Arial" font-size="13px" font-style="normal" font-weight="normal" text-decoration="none" x="320.94140625" y="138.5">+miembro del</text><text fill="#000000" stroke="none" font-family="Arial" font-size="13px" font-style="normal" font-weight="normal" text-decoration="none" x="328.720458984375" y="151.5">RENIECyT</text></g></g><g transform="translate(-86,-14) scale(1,1)"><g><path fill="none" stroke="none"/><text fill="#000000" stroke="none" font-family="Arial" font-size="13px" font-style="normal" font-weight="normal" text-decoration="none" x="288.74365234375" y="144.5">0..*</text></g></g><g transform="translate(-86,-14) scale(1,1)"><rect fill="#C0C0C0" stroke="none" x="351" y="55" width="92.2236328125" height="44" opacity="0.2"/></g><g transform="translate(-86,-14) scale(1,1)"><rect fill="#ffffff" stroke="none" x="344" y="48" width="92.2236328125" height="44"/></g><g transform="translate(-86,-14) scale(1,1)"><path fill="none" stroke="#000000" d="M 344 48 L 436.2236328125 48 L 436.2236328125 92 L 344 92 L 344 48 Z Z" stroke-miterlimit="10"/></g><g transform="translate(-86,-14) scale(1,1)"><g><path fill="none" stroke="none"/><text fill="#000000" stroke="none" font-family="Arial" font-size="13px" font-style="normal" font-weight="bold" text-decoration="none" x="362.648681640625" y="67.5">Convenio</text></g></g><g transform="translate(-86,-14) scale(1,1)"><path fill="none" stroke="#000000" d="M 349 93 L 312 114" stroke-miterlimit="10" stroke-dasharray="3"/></g></g></svg>