<svg version="1.1" xmlns="http://www.w3.org/2000/svg" xmlns:xlink="http://www.w3.org/1999/xlink" width="756" height="848"><defs/><g><text fill="#eeeeee" stroke="none" font-family="Arial" font-size="24px" font-style="normal" font-weight="normal" text-decoration="none" x="0" y="0">UNREGISTERED</text><text fill="#eeeeee" stroke="none" font-family="Arial" font-size="24px" font-style="normal" font-weight="normal" text-decoration="none" x="0" y="30">UNREGISTERED</text><text fill="#eeeeee" stroke="none" font-family="Arial" font-size="24px" font-style="normal" font-weight="normal" text-decoration="none" x="0" y="60">UNREGISTERED</text><text fill="#eeeeee" stroke="none" font-family="Arial" font-size="24px" font-style="normal" font-weight="normal" text-decoration="none" x="0" y="90">UNREGISTERED</text><text fill="#eeeeee" stroke="none" font-family="Arial" font-size="24px" font-style="normal" font-weight="normal" text-decoration="none" x="0" y="120">UNREGISTERED</text><text fill="#eeeeee" stroke="none" font-family="Arial" font-size="24px" font-style="normal" font-weight="normal" text-decoration="none" x="0" y="150">UNREGISTERED</text><text fill="#eeeeee" stroke="none" font-family="Arial" font-size="24px" font-style="normal" font-weight="normal" text-decoration="none" x="0" y="180">UNREGISTERED</text><text fill="#eeeeee" stroke="none" font-family="Arial" font-size="24px" font-style="normal" font-weight="normal" text-decoration="none" x="0" y="210">UNREGISTERED</text><text fill="#eeeeee" stroke="none" font-family="Arial" font-size="24px" font-style="normal" font-weight="normal" text-decoration="none" x="0" y="240">UNREGISTERED</text><text fill="#eeeeee" stroke="none" font-family="Arial" font-size="24px" font-style="normal" font-weight="normal" text-decoration="none" x="0" y="270">UNREGISTERED</text><text fill="#eeeeee" stroke="none" font-family="Arial" font-size="24px" font-style="normal" font-weight="normal" text-decoration="none" x="0" y="300">UNREGISTERED</text><text fill="#eeeeee" stroke="none" font-family="Arial" font-size="24px" font-style="normal" font-weight="normal" text-decoration="none" x="0" y="330">UNREGISTERED</text><text fill="#eeeeee" stroke="none" font-family="Arial" font-size="24px" font-style="normal" font-weight="normal" text-decoration="none" x="0" y="360">UNREGISTERED</text><text fill="#eeeeee" stroke="none" font-family="Arial" font-size="24px" font-style="normal" font-weight="normal" text-decoration="none" x="0" y="390">UNREGISTERED</text><text fill="#eeeeee" stroke="none" font-family="Arial" font-size="24px" font-style="normal" font-weight="normal" text-decoration="none" x="0" y="420">UNREGISTERED</text><text fill="#eeeeee" stroke="none" font-family="Arial" font-size="24px" font-style="normal" font-weight="normal" text-decoration="none" x="0" y="450">UNREGISTERED</text><text fill="#eeeeee" stroke="none" font-family="Arial" font-size="24px" font-style="normal" font-weight="normal" text-decoration="none" x="0" y="480">UNREGISTERED</text><text fill="#eeeeee" stroke="none" font-family="Arial" font-size="24px" font-style="normal" font-weight="normal" text-decoration="none" x="0" y="510">UNREGISTERED</text><text fill="#eeeeee" stroke="none" font-family="Arial" font-size="24px" font-style="normal" font-weight="normal" text-decoration="none" x="0" y="540">UNREGISTERED</text><text fill="#eeeeee" stroke="none" font-family="Arial" font-size="24px" font-style="normal" font-weight="normal" text-decoration="none" x="0" y="570">UNREGISTERED</text><text fill="#eeeeee" stroke="none" font-family="Arial" font-size="24px" font-style="normal" font-weight="normal" text-decoration="none" x="0" y="600">UNREGISTERED</text><text fill="#eeeeee" stroke="none" font-family="Arial" font-size="24px" font-style="normal" font-weight="normal" text-decoration="none" x="0" y="630">UNREGISTERED</text><text fill="#eeeeee" stroke="none" font-family="Arial" font-size="24px" font-style="normal" font-weight="normal" text-decoration="none" x="0" y="660">UNREGISTERED</text><text fill="#eeeeee" stroke="none" font-family="Arial" font-size="24px" font-style="normal" font-weight="normal" text-decoration="none" x="0" y="690">UNREGISTERED</text><text fill="#eeeeee" stroke="none" font-family="Arial" font-size="24px" font-style="normal" font-weight="normal" text-decoration="none" x="0" y="720">UNREGISTERED</text><text fill="#eeeeee" stroke="none" font-family="Arial" font-size="24px" font-style="normal" font-weight="normal" text-decoration="none" x="0" y="750">UNREGISTERED</text><text fill="#eeeeee" stroke="none" font-family="Arial" font-size="24px" font-style="normal" font-weight="normal" text-decoration="none" x="0" y="780">UNREGISTERED</text><text fill="#eeeeee" stroke="none" font-family="Arial" font-size="24px" font-style="normal" font-weight="normal" text-decoration="none" x="0" y="810">UNREGISTERED</text><text fill="#eeeeee" stroke="none" font-family="Arial" font-size="24px" font-style="normal" font-weight="normal" text-decoration="none" x="0" y="840">UNREGISTERED</text><text fill="#eeeeee" stroke="none" font-family="Arial" font-size="24px" font-style="normal" font-weight="normal" text-decoration="none" x="200" y="0">UNREGISTERED</text><text fill="#eeeeee" stroke="none" font-family="Arial" font-size="24px" font-style="normal" font-weight="normal" text-decoration="none" x="200" y="30">UNREGISTERED</text><text fill="#eeeeee" stroke="none" font-family="Arial" font-size="24px" font-style="normal" font-weight="normal" text-decoration="none" x="200" y="60">UNREGISTERED</text><text fill="#eeeeee" stroke="none" font-family="Arial" font-size="24px" font-style="normal" font-weight="normal" text-decoration="none" x="200" y="90">UNREGISTERED</text><text fill="#eeeeee" stroke="none" font-family="Arial" font-size="24px" font-style="normal" font-weight="normal" text-decoration="none" x="200" y="120">UNREGISTERED</text><text fill="#eeeeee" stroke="none" font-family="Arial" font-size="24px" font-style="normal" font-weight="normal" text-decoration="none" x="200" y="150">UNREGISTERED</text><text fill="#eeeeee" stroke="none" font-family="Arial" font-size="24px" font-style="normal" font-weight="normal" text-decoration="none" x="200" y="180">UNREGISTERED</text><text fill="#eeeeee" stroke="none" font-family="Arial" font-size="24px" font-style="normal" font-weight="normal" text-decoration="none" x="200" y="210">UNREGISTERED</text><text fill="#eeeeee" stroke="none" font-family="Arial" font-size="24px" font-style="normal" font-weight="normal" text-decoration="none" x="200" y="240">UNREGISTERED</text><text fill="#eeeeee" stroke="none" font-family="Arial" font-size="24px" font-style="normal" font-weight="normal" text-decoration="none" x="200" y="270">UNREGISTERED</text><text fill="#eeeeee" stroke="none" font-family="Arial" font-size="24px" font-style="normal" font-weight="normal" text-decoration="none" x="200" y="300">UNREGISTERED</text><text fill="#eeeeee" stroke="none" font-family="Arial" font-size="24px" font-style="normal" font-weight="normal" text-decoration="none" x="200" y="330">UNREGISTERED</text><text fill="#eeeeee" stroke="none" font-family="Arial" font-size="24px" font-style="normal" font-weight="normal" text-decoration="none" x="200" y="360">UNREGISTERED</text><text fill="#eeeeee" stroke="none" font-family="Arial" font-size="24px" font-style="normal" font-weight="normal" text-decoration="none" x="200" y="390">UNREGISTERED</text><text fill="#eeeeee" stroke="none" font-family="Arial" font-size="24px" font-style="normal" font-weight="normal" text-decoration="none" x="200" y="420">UNREGISTERED</text><text fill="#eeeeee" stroke="none" font-family="Arial" font-size="24px" font-style="normal" font-weight="normal" text-decoration="none" x="200" y="450">UNREGISTERED</text><text fill="#eeeeee" stroke="none" font-family="Arial" font-size="24px" font-style="normal" font-weight="normal" text-decoration="none" x="200" y="480">UNREGISTERED</text><text fill="#eeeeee" stroke="none" font-family="Arial" font-size="24px" font-style="normal" font-weight="normal" text-decoration="none" x="200" y="510">UNREGISTERED</text><text fill="#eeeeee" stroke="none" font-family="Arial" font-size="24px" font-style="normal" font-weight="normal" text-decoration="none" x="200" y="540">UNREGISTERED</text><text fill="#eeeeee" stroke="none" font-family="Arial" font-size="24px" font-style="normal" font-weight="normal" text-decoration="none" x="200" y="570">UNREGISTERED</text><text fill="#eeeeee" stroke="none" font-family="Arial" font-size="24px" font-style="normal" font-weight="normal" text-decoration="none" x="200" y="600">UNREGISTERED</text><text fill="#eeeeee" stroke="none" font-family="Arial" font-size="24px" font-style="normal" font-weight="normal" text-decoration="none" x="200" y="630">UNREGISTERED</text><text fill="#eeeeee" stroke="none" font-family="Arial" font-size="24px" font-style="normal" font-weight="normal" text-decoration="none" x="200" y="660">UNREGISTERED</text><text fill="#eeeeee" stroke="none" font-family="Arial" font-size="24px" font-style="normal" font-weight="normal" text-decoration="none" x="200" y="690">UNREGISTERED</text><text fill="#eeeeee" stroke="none" font-family="Arial" font-size="24px" font-style="normal" font-weight="normal" text-decoration="none" x="200" y="720">UNREGISTERED</text><text fill="#eeeeee" stroke="none" font-family="Arial" font-size="24px" font-style="normal" font-weight="normal" text-decoration="none" x="200" y="750">UNREGISTERED</text><text fill="#eeeeee" stroke="none" font-family="Arial" font-size="24px" font-style="normal" font-weight="normal" text-decoration="none" x="200" y="780">UNREGISTERED</text><text fill="#eeeeee" stroke="none" font-family="Arial" font-size="24px" font-style="normal" font-weight="normal" text-decoration="none" x="200" y="810">UNREGISTERED</text><text fill="#eeeeee" stroke="none" font-family="Arial" font-size="24px" font-style="normal" font-weight="normal" text-decoration="none" x="200" y="840">UNREGISTERED</text><text fill="#eeeeee" stroke="none" font-family="Arial" font-size="24px" font-style="normal" font-weight="normal" text-decoration="none" x="400" y="0">UNREGISTERED</text><text fill="#eeeeee" stroke="none" font-family="Arial" font-size="24px" font-style="normal" font-weight="normal" text-decoration="none" x="400" y="30">UNREGISTERED</text><text fill="#eeeeee" stroke="none" font-family="Arial" font-size="24px" font-style="normal" font-weight="normal" text-decoration="none" x="400" y="60">UNREGISTERED</text><text fill="#eeeeee" stroke="none" font-family="Arial" font-size="24px" font-style="normal" font-weight="normal" text-decoration="none" x="400" y="90">UNREGISTERED</text><text fill="#eeeeee" stroke="none" font-family="Arial" font-size="24px" font-style="normal" font-weight="normal" text-decoration="none" x="400" y="120">UNREGISTERED</text><text fill="#eeeeee" stroke="none" font-family="Arial" font-size="24px" font-style="normal" font-weight="normal" text-decoration="none" x="400" y="150">UNREGISTERED</text><text fill="#eeeeee" stroke="none" font-family="Arial" font-size="24px" font-style="normal" font-weight="normal" text-decoration="none" x="400" y="180">UNREGISTERED</text><text fill="#eeeeee" stroke="none" font-family="Arial" font-size="24px" font-style="normal" font-weight="normal" text-decoration="none" x="400" y="210">UNREGISTERED</text><text fill="#eeeeee" stroke="none" font-family="Arial" font-size="24px" font-style="normal" font-weight="normal" text-decoration="none" x="400" y="240">UNREGISTERED</text><text fill="#eeeeee" stroke="none" font-family="Arial" font-size="24px" font-style="normal" font-weight="normal" text-decoration="none" x="400" y="270">UNREGISTERED</text><text fill="#eeeeee" stroke="none" font-family="Arial" font-size="24px" font-style="normal" font-weight="normal" text-decoration="none" x="400" y="300">UNREGISTERED</text><text fill="#eeeeee" stroke="none" font-family="Arial" font-size="24px" font-style="normal" font-weight="normal" text-decoration="none" x="400" y="330">UNREGISTERED</text><text fill="#eeeeee" stroke="none" font-family="Arial" font-size="24px" font-style="normal" font-weight="normal" text-decoration="none" x="400" y="360">UNREGISTERED</text><text fill="#eeeeee" stroke="none" font-family="Arial" font-size="24px" font-style="normal" font-weight="normal" text-decoration="none" x="400" y="390">UNREGISTERED</text><text fill="#eeeeee" stroke="none" font-family="Arial" font-size="24px" font-style="normal" font-weight="normal" text-decoration="none" x="400" y="420">UNREGISTERED</text><text fill="#eeeeee" stroke="none" font-family="Arial" font-size="24px" font-style="normal" font-weight="normal" text-decoration="none" x="400" y="450">UNREGISTERED</text><text fill="#eeeeee" stroke="none" font-family="Arial" font-size="24px" font-style="normal" font-weight="normal" text-decoration="none" x="400" y="480">UNREGISTERED</text><text fill="#eeeeee" stroke="none" font-family="Arial" font-size="24px" font-style="normal" font-weight="normal" text-decoration="none" x="400" y="510">UNREGISTERED</text><text fill="#eeeeee" stroke="none" font-family="Arial" font-size="24px" font-style="normal" font-weight="normal" text-decoration="none" x="400" y="540">UNREGISTERED</text><text fill="#eeeeee" stroke="none" font-family="Arial" font-size="24px" font-style="normal" font-weight="normal" text-decoration="none" x="400" y="570">UNREGISTERED</text><text fill="#eeeeee" stroke="none" font-family="Arial" font-size="24px" font-style="normal" font-weight="normal" text-decoration="none" x="400" y="600">UNREGISTERED</text><text fill="#eeeeee" stroke="none" font-family="Arial" font-size="24px" font-style="normal" font-weight="normal" text-decoration="none" x="400" y="630">UNREGISTERED</text><text fill="#eeeeee" stroke="none" font-family="Arial" font-size="24px" font-style="normal" font-weight="normal" text-decoration="none" x="400" y="660">UNREGISTERED</text><text fill="#eeeeee" stroke="none" font-family="Arial" font-size="24px" font-style="normal" font-weight="normal" text-decoration="none" x="400" y="690">UNREGISTERED</text><text fill="#eeeeee" stroke="none" font-family="Arial" font-size="24px" font-style="normal" font-weight="normal" text-decoration="none" x="400" y="720">UNREGISTERED</text><text fill="#eeeeee" stroke="none" font-family="Arial" font-size="24px" font-style="normal" font-weight="normal" text-decoration="none" x="400" y="750">UNREGISTERED</text><text fill="#eeeeee" stroke="none" font-family="Arial" font-size="24px" font-style="normal" font-weight="normal" text-decoration="none" x="400" y="780">UNREGISTERED</text><text fill="#eeeeee" stroke="none" font-family="Arial" font-size="24px" font-style="normal" font-weight="normal" text-decoration="none" x="400" y="810">UNREGISTERED</text><text fill="#eeeeee" stroke="none" font-family="Arial" font-size="24px" font-style="normal" font-weight="normal" text-decoration="none" x="400" y="840">UNREGISTERED</text><text fill="#eeeeee" stroke="none" font-family="Arial" font-size="24px" font-style="normal" font-weight="normal" text-decoration="none" x="600" y="0">UNREGISTERED</text><text fill="#eeeeee" stroke="none" font-family="Arial" font-size="24px" font-style="normal" font-weight="normal" text-decoration="none" x="600" y="30">UNREGISTERED</text><text fill="#eeeeee" stroke="none" font-family="Arial" font-size="24px" font-style="normal" font-weight="normal" text-decoration="none" x="600" y="60">UNREGISTERED</text><text fill="#eeeeee" stroke="none" font-family="Arial" font-size="24px" font-style="normal" font-weight="normal" text-decoration="none" x="600" y="90">UNREGISTERED</text><text fill="#eeeeee" stroke="none" font-family="Arial" font-size="24px" font-style="normal" font-weight="normal" text-decoration="none" x="600" y="120">UNREGISTERED</text><text fill="#eeeeee" stroke="none" font-family="Arial" font-size="24px" font-style="normal" font-weight="normal" text-decoration="none" x="600" y="150">UNREGISTERED</text><text fill="#eeeeee" stroke="none" font-family="Arial" font-size="24px" font-style="normal" font-weight="normal" text-decoration="none" x="600" y="180">UNREGISTERED</text><text fill="#eeeeee" stroke="none" font-family="Arial" font-size="24px" font-style="normal" font-weight="normal" text-decoration="none" x="600" y="210">UNREGISTERED</text><text fill="#eeeeee" stroke="none" font-family="Arial" font-size="24px" font-style="normal" font-weight="normal" text-decoration="none" x="600" y="240">UNREGISTERED</text><text fill="#eeeeee" stroke="none" font-family="Arial" font-size="24px" font-style="normal" font-weight="normal" text-decoration="none" x="600" y="270">UNREGISTERED</text><text fill="#eeeeee" stroke="none" font-family="Arial" font-size="24px" font-style="normal" font-weight="normal" text-decoration="none" x="600" y="300">UNREGISTERED</text><text fill="#eeeeee" stroke="none" font-family="Arial" font-size="24px" font-style="normal" font-weight="normal" text-decoration="none" x="600" y="330">UNREGISTERED</text><text fill="#eeeeee" stroke="none" font-family="Arial" font-size="24px" font-style="normal" font-weight="normal" text-decoration="none" x="600" y="360">UNREGISTERED</text><text fill="#eeeeee" stroke="none" font-family="Arial" font-size="24px" font-style="normal" font-weight="normal" text-decoration="none" x="600" y="390">UNREGISTERED</text><text fill="#eeeeee" stroke="none" font-family="Arial" font-size="24px" font-style="normal" font-weight="normal" text-decoration="none" x="600" y="420">UNREGISTERED</text><text fill="#eeeeee" stroke="none" font-family="Arial" font-size="24px" font-style="normal" font-weight="normal" text-decoration="none" x="600" y="450">UNREGISTERED</text><text fill="#eeeeee" stroke="none" font-family="Arial" font-size="24px" font-style="normal" font-weight="normal" text-decoration="none" x="600" y="480">UNREGISTERED</text><text fill="#eeeeee" stroke="none" font-family="Arial" font-size="24px" font-style="normal" font-weight="normal" text-decoration="none" x="600" y="510">UNREGISTERED</text><text fill="#eeeeee" stroke="none" font-family="Arial" font-size="24px" font-style="normal" font-weight="normal" text-decoration="none" x="600" y="540">UNREGISTERED</text><text fill="#eeeeee" stroke="none" font-family="Arial" font-size="24px" font-style="normal" font-weight="normal" text-decoration="none" x="600" y="570">UNREGISTERED</text><text fill="#eeeeee" stroke="none" font-family="Arial" font-size="24px" font-style="normal" font-weight="normal" text-decoration="none" x="600" y="600">UNREGISTERED</text><text fill="#eeeeee" stroke="none" font-family="Arial" font-size="24px" font-style="normal" font-weight="normal" text-decoration="none" x="600" y="630">UNREGISTERED</text><text fill="#eeeeee" stroke="none" font-family="Arial" font-size="24px" font-style="normal" font-weight="normal" text-decoration="none" x="600" y="660">UNREGISTERED</text><text fill="#eeeeee" stroke="none" font-family="Arial" font-size="24px" font-style="normal" font-weight="normal" text-decoration="none" x="600" y="690">UNREGISTERED</text><text fill="#eeeeee" stroke="none" font-family="Arial" font-size="24px" font-style="normal" font-weight="normal" text-decoration="none" x="600" y="720">UNREGISTERED</text><text fill="#eeeeee" stroke="none" font-family="Arial" font-size="24px" font-style="normal" font-weight="normal" text-decoration="none" x="600" y="750">UNREGISTERED</text><text fill="#eeeeee" stroke="none" font-family="Arial" font-size="24px" font-style="normal" font-weight="normal" text-decoration="none" x="600" y="780">UNREGISTERED</text><text fill="#eeeeee" stroke="none" font-family="Arial" font-size="24px" font-style="normal" font-weight="normal" text-decoration="none" x="600" y="810">UNREGISTERED</text><text fill="#eeeeee" stroke="none" font-family="Arial" font-size="24px" font-style="normal" font-weight="normal" text-decoration="none" x="600" y="840">UNREGISTERED</text><g transform="translate(-46,-30) scale(1,1)"><path fill="#ffffff" stroke="none" d="M 324.0412567471591 299.03999999999996 C 324.0412567471591 293.49506060799996 328.50277941654093 289 334.00634765625 289 C 339.50991589595907 289 343.9714385653409 293.49506060799996 343.9714385653409 299.03999999999996 C 343.9714385653409 304.58493939199997 339.50991589595907 309.08 334.00634765625 309.08 C 328.50277941654093 309.08 324.0412567471591 304.58493939199997 324.0412567471591 299.03999999999996 Z"/></g><g transform="translate(-46,-30) scale(1,1)"><path fill="none" stroke="#000000" d="M 324.0412567471591 299.03999999999996 C 324.0412567471591 293.49506060799996 328.50277941654093 289 334.00634765625 289 C 339.50991589595907 289 343.9714385653409 293.49506060799996 343.9714385653409 299.03999999999996 C 343.9714385653409 304.58493939199997 339.50991589595907 309.08 334.00634765625 309.08 C 328.50277941654093 309.08 324.0412567471591 304.58493939199997 324.0412567471591 299.03999999999996 Z" stroke-miterlimit="10"/></g><g transform="translate(-46,-30) scale(1,1)"><path fill="none" stroke="#000000" d="M 334.00634765625 309.08 L 334.00634765625 328.92" stroke-miterlimit="10"/></g><g transform="translate(-46,-30) scale(1,1)"><path fill="none" stroke="#000000" d="M 323.4550749289773 316.52 L 344.5576203835227 316.52" stroke-miterlimit="10"/></g><g transform="translate(-46,-30) scale(1,1)"><path fill="none" stroke="#000000" d="M 334.00634765625 328.92 L 319.3518022017046 349" stroke-miterlimit="10"/></g><g transform="translate(-46,-30) scale(1,1)"><path fill="none" stroke="#000000" d="M 334.00634765625 328.92 L 348.6608931107954 349" stroke-miterlimit="10"/></g><g transform="translate(-46,-30) scale(1,1)"><g><path fill="none" stroke="none"/><text fill="#000000" stroke="none" font-family="Arial" font-size="13px" font-style="normal" font-weight="bold" text-decoration="none" x="296.063232421875" y="369.5">Responsable</text><text fill="#000000" stroke="none" font-family="Arial" font-size="13px" font-style="normal" font-weight="bold" text-decoration="none" x="293.187744140625" y="382.5">Administrativo</text></g></g><g transform="translate(-46,-30) scale(1,1)"><path fill="#ffffff" stroke="none" d="M 589.8207977627841 299.03999999999996 C 589.8207977627841 293.49506060799996 594.2823204321659 289 599.785888671875 289 C 605.2894569115841 289 609.7509795809659 293.49506060799996 609.7509795809659 299.03999999999996 C 609.7509795809659 304.58493939199997 605.2894569115841 309.08 599.785888671875 309.08 C 594.2823204321659 309.08 589.8207977627841 304.58493939199997 589.8207977627841 299.03999999999996 Z"/></g><g transform="translate(-46,-30) scale(1,1)"><path fill="none" stroke="#000000" d="M 589.8207977627841 299.03999999999996 C 589.8207977627841 293.49506060799996 594.2823204321659 289 599.785888671875 289 C 605.2894569115841 289 609.7509795809659 293.49506060799996 609.7509795809659 299.03999999999996 C 609.7509795809659 304.58493939199997 605.2894569115841 309.08 599.785888671875 309.08 C 594.2823204321659 309.08 589.8207977627841 304.58493939199997 589.8207977627841 299.03999999999996 Z" stroke-miterlimit="10"/></g><g transform="translate(-46,-30) scale(1,1)"><path fill="none" stroke="#000000" d="M 599.785888671875 309.08 L 599.785888671875 328.92" stroke-miterlimit="10"/></g><g transform="translate(-46,-30) scale(1,1)"><path fill="none" stroke="#000000" d="M 589.2346159446023 316.52 L 610.3371613991477 316.52" stroke-miterlimit="10"/></g><g transform="translate(-46,-30) scale(1,1)"><path fill="none" stroke="#000000" d="M 599.785888671875 328.92 L 585.1313432173296 349" stroke-miterlimit="10"/></g><g transform="translate(-46,-30) scale(1,1)"><path fill="none" stroke="#000000" d="M 599.785888671875 328.92 L 614.4404341264204 349" stroke-miterlimit="10"/></g><g transform="translate(-46,-30) scale(1,1)"><g><path fill="none" stroke="none"/><text fill="#000000" stroke="none" font-family="Arial" font-size="13px" font-style="normal" font-weight="bold" text-decoration="none" x="551.369140625" y="369.5">Co-Responsable</text><text fill="#000000" stroke="none" font-family="Arial" font-size="13px" font-style="normal" font-weight="bold" text-decoration="none" x="558.96728515625" y="382.5">Administrativo</text></g></g><g transform="translate(-46,-30) scale(1,1)"><path fill="#ffffff" stroke="none" d="M 730.0349090909091 299.03999999999996 C 730.0349090909091 293.49506060799996 734.4964317602909 289 740 289 C 745.5035682397091 289 749.9650909090909 293.49506060799996 749.9650909090909 299.03999999999996 C 749.9650909090909 304.58493939199997 745.5035682397091 309.08 740 309.08 C 734.4964317602909 309.08 730.0349090909091 304.58493939199997 730.0349090909091 299.03999999999996 Z"/></g><g transform="translate(-46,-30) scale(1,1)"><path fill="none" stroke="#000000" d="M 730.0349090909091 299.03999999999996 C 730.0349090909091 293.49506060799996 734.4964317602909 289 740 289 C 745.5035682397091 289 749.9650909090909 293.49506060799996 749.9650909090909 299.03999999999996 C 749.9650909090909 304.58493939199997 745.5035682397091 309.08 740 309.08 C 734.4964317602909 309.08 730.0349090909091 304.58493939199997 730.0349090909091 299.03999999999996 Z" stroke-miterlimit="10"/></g><g transform="translate(-46,-30) scale(1,1)"><path fill="none" stroke="#000000" d="M 740 309.08 L 740 328.92" stroke-miterlimit="10"/></g><g transform="translate(-46,-30) scale(1,1)"><path fill="none" stroke="#000000" d="M 729.4487272727273 316.52 L 750.5512727272727 316.52" stroke-miterlimit="10"/></g><g transform="translate(-46,-30) scale(1,1)"><path fill="none" stroke="#000000" d="M 740 328.92 L 725.3454545454546 349" stroke-miterlimit="10"/></g><g transform="translate(-46,-30) scale(1,1)"><path fill="none" stroke="#000000" d="M 740 328.92 L 754.6545454545454 349" stroke-miterlimit="10"/></g><g transform="translate(-46,-30) scale(1,1)"><g><path fill="none" stroke="none"/><text fill="#000000" stroke="none" font-family="Arial" font-size="13px" font-style="normal" font-weight="bold" text-decoration="none" x="697.359619140625" y="369.5">Representante</text><text fill="#000000" stroke="none" font-family="Arial" font-size="13px" font-style="normal" font-weight="bold" text-decoration="none" x="724.095947265625" y="382.5">Legal</text></g></g><g transform="translate(-46,-30) scale(1,1)"><path fill="#ffffff" stroke="none" d="M 474.0349090909091 427.03999999999996 C 474.0349090909091 421.49506060799996 478.49643176029093 417 484 417 C 489.50356823970907 417 493.9650909090909 421.49506060799996 493.9650909090909 427.03999999999996 C 493.9650909090909 432.58493939199997 489.50356823970907 437.08 484 437.08 C 478.49643176029093 437.08 474.0349090909091 432.58493939199997 474.0349090909091 427.03999999999996 Z"/></g><g transform="translate(-46,-30) scale(1,1)"><path fill="none" stroke="#000000" d="M 474.0349090909091 427.03999999999996 C 474.0349090909091 421.49506060799996 478.49643176029093 417 484 417 C 489.50356823970907 417 493.9650909090909 421.49506060799996 493.9650909090909 427.03999999999996 C 493.9650909090909 432.58493939199997 489.50356823970907 437.08 484 437.08 C 478.49643176029093 437.08 474.0349090909091 432.58493939199997 474.0349090909091 427.03999999999996 Z" stroke-miterlimit="10"/></g><g transform="translate(-46,-30) scale(1,1)"><path fill="none" stroke="#000000" d="M 484 437.08 L 484 456.92" stroke-miterlimit="10"/></g><g transform="translate(-46,-30) scale(1,1)"><path fill="none" stroke="#000000" d="M 473.4487272727273 444.52 L 494.5512727272727 444.52" stroke-miterlimit="10"/></g><g transform="translate(-46,-30) scale(1,1)"><path fill="none" stroke="#000000" d="M 484 456.92 L 469.3454545454546 477" stroke-miterlimit="10"/></g><g transform="translate(-46,-30) scale(1,1)"><path fill="none" stroke="#000000" d="M 484 456.92 L 498.6545454545454 477" stroke-miterlimit="10"/></g><g transform="translate(-46,-30) scale(1,1)"><g><path fill="none" stroke="none"/><text fill="#000000" stroke="none" font-family="Arial" font-size="13px" font-style="normal" font-weight="bold" text-decoration="none" x="448.589599609375" y="497.5">Investigador</text></g></g><g transform="translate(-46,-30) scale(1,1)"><path fill="#ffffff" stroke="none" d="M 379.17936985085225 785.6800000000001 C 379.17936985085225 780.8861679360001 383.06521217579774 777 387.858642578125 777 C 392.65207298045226 777 396.53791530539775 780.8861679360001 396.53791530539775 785.6800000000001 C 396.53791530539775 790.473832064 392.65207298045226 794.36 387.858642578125 794.36 C 383.06521217579774 794.36 379.17936985085225 790.473832064 379.17936985085225 785.6800000000001 Z"/></g><g transform="translate(-46,-30) scale(1,1)"><path fill="none" stroke="#000000" d="M 379.17936985085225 785.6800000000001 C 379.17936985085225 780.8861679360001 383.06521217579774 777 387.858642578125 777 C 392.65207298045226 777 396.53791530539775 780.8861679360001 396.53791530539775 785.6800000000001 C 396.53791530539775 790.473832064 392.65207298045226 794.36 387.858642578125 794.36 C 383.06521217579774 794.36 379.17936985085225 790.473832064 379.17936985085225 785.6800000000001 Z" stroke-miterlimit="10"/></g><g transform="translate(-46,-30) scale(1,1)"><path fill="none" stroke="#000000" d="M 387.858642578125 794.36 L 387.858642578125 811.64" stroke-miterlimit="10"/></g><g transform="translate(-46,-30) scale(1,1)"><path fill="none" stroke="#000000" d="M 378.66882439630683 800.84 L 397.04846075994317 800.84" stroke-miterlimit="10"/></g><g transform="translate(-46,-30) scale(1,1)"><path fill="none" stroke="#000000" d="M 387.858642578125 811.64 L 375.09500621448865 829" stroke-miterlimit="10"/></g><g transform="translate(-46,-30) scale(1,1)"><path fill="none" stroke="#000000" d="M 387.858642578125 811.64 L 400.62227894176135 829" stroke-miterlimit="10"/></g><g transform="translate(-46,-30) scale(1,1)"><g><path fill="none" stroke="none"/><text fill="#000000" stroke="none" font-family="Arial" font-size="13px" font-style="normal" font-weight="bold" text-decoration="none" x="352.4482421875" y="849.5">Investigador</text><text fill="#000000" stroke="none" font-family="Arial" font-size="13px" font-style="normal" font-weight="bold" text-decoration="none" x="351.721435546875" y="862.5">Consolidado</text></g></g><g transform="translate(-46,-30) scale(1,1)"><path fill="#ffffff" stroke="none" d="M 370.46843235085225 673.6800000000001 C 370.46843235085225 668.8861679360001 374.35427467579774 665 379.147705078125 665 C 383.94113548045226 665 387.82697780539775 668.8861679360001 387.82697780539775 673.6800000000001 C 387.82697780539775 678.473832064 383.94113548045226 682.36 379.147705078125 682.36 C 374.35427467579774 682.36 370.46843235085225 678.473832064 370.46843235085225 673.6800000000001 Z"/></g><g transform="translate(-46,-30) scale(1,1)"><path fill="none" stroke="#000000" d="M 370.46843235085225 673.6800000000001 C 370.46843235085225 668.8861679360001 374.35427467579774 665 379.147705078125 665 C 383.94113548045226 665 387.82697780539775 668.8861679360001 387.82697780539775 673.6800000000001 C 387.82697780539775 678.473832064 383.94113548045226 682.36 379.147705078125 682.36 C 374.35427467579774 682.36 370.46843235085225 678.473832064 370.46843235085225 673.6800000000001 Z" stroke-miterlimit="10"/></g><g transform="translate(-46,-30) scale(1,1)"><path fill="none" stroke="#000000" d="M 379.147705078125 682.36 L 379.147705078125 699.64" stroke-miterlimit="10"/></g><g transform="translate(-46,-30) scale(1,1)"><path fill="none" stroke="#000000" d="M 369.95788689630683 688.84 L 388.33752325994317 688.84" stroke-miterlimit="10"/></g><g transform="translate(-46,-30) scale(1,1)"><path fill="none" stroke="#000000" d="M 379.147705078125 699.64 L 366.38406871448865 717" stroke-miterlimit="10"/></g><g transform="translate(-46,-30) scale(1,1)"><path fill="none" stroke="#000000" d="M 379.147705078125 699.64 L 391.91134144176135 717" stroke-miterlimit="10"/></g><g transform="translate(-46,-30) scale(1,1)"><g><path fill="none" stroke="none"/><text fill="#000000" stroke="none" font-family="Arial" font-size="13px" font-style="normal" font-weight="bold" text-decoration="none" x="343.7373046875" y="737.5">Investigador</text><text fill="#000000" stroke="none" font-family="Arial" font-size="13px" font-style="normal" font-weight="bold" text-decoration="none" x="361.802734375" y="750.5">Joven</text></g></g><g transform="translate(-46,-30) scale(1,1)"><path fill="#ffffff" stroke="none" d="M 556.2775143821023 569.6800000000001 C 556.2775143821023 564.8861679360001 560.1633567070477 561 564.956787109375 561 C 569.7502175117023 561 573.6360598366477 564.8861679360001 573.6360598366477 569.6800000000001 C 573.6360598366477 574.473832064 569.7502175117023 578.36 564.956787109375 578.36 C 560.1633567070477 578.36 556.2775143821023 574.473832064 556.2775143821023 569.6800000000001 Z"/></g><g transform="translate(-46,-30) scale(1,1)"><path fill="none" stroke="#000000" d="M 556.2775143821023 569.6800000000001 C 556.2775143821023 564.8861679360001 560.1633567070477 561 564.956787109375 561 C 569.7502175117023 561 573.6360598366477 564.8861679360001 573.6360598366477 569.6800000000001 C 573.6360598366477 574.473832064 569.7502175117023 578.36 564.956787109375 578.36 C 560.1633567070477 578.36 556.2775143821023 574.473832064 556.2775143821023 569.6800000000001 Z" stroke-miterlimit="10"/></g><g transform="translate(-46,-30) scale(1,1)"><path fill="none" stroke="#000000" d="M 564.956787109375 578.36 L 564.956787109375 595.64" stroke-miterlimit="10"/></g><g transform="translate(-46,-30) scale(1,1)"><path fill="none" stroke="#000000" d="M 555.7669689275568 584.84 L 574.1466052911932 584.84" stroke-miterlimit="10"/></g><g transform="translate(-46,-30) scale(1,1)"><path fill="none" stroke="#000000" d="M 564.956787109375 595.64 L 552.1931507457386 613" stroke-miterlimit="10"/></g><g transform="translate(-46,-30) scale(1,1)"><path fill="none" stroke="#000000" d="M 564.956787109375 595.64 L 577.7204234730114 613" stroke-miterlimit="10"/></g><g transform="translate(-46,-30) scale(1,1)"><g><path fill="none" stroke="none"/><text fill="#000000" stroke="none" font-family="Arial" font-size="13px" font-style="normal" font-weight="bold" text-decoration="none" x="527.013671875" y="633.5">Responsable</text><text fill="#000000" stroke="none" font-family="Arial" font-size="13px" font-style="normal" font-weight="bold" text-decoration="none" x="542.197265625" y="646.5">Técnico</text></g></g><g transform="translate(-46,-30) scale(1,1)"><path fill="#ffffff" stroke="none" d="M 343.58024875710225 577.6800000000001 C 343.58024875710225 572.8861679360001 347.46609108204774 569 352.259521484375 569 C 357.05295188670226 569 360.93879421164775 572.8861679360001 360.93879421164775 577.6800000000001 C 360.93879421164775 582.473832064 357.05295188670226 586.36 352.259521484375 586.36 C 347.46609108204774 586.36 343.58024875710225 582.473832064 343.58024875710225 577.6800000000001 Z"/></g><g transform="translate(-46,-30) scale(1,1)"><path fill="none" stroke="#000000" d="M 343.58024875710225 577.6800000000001 C 343.58024875710225 572.8861679360001 347.46609108204774 569 352.259521484375 569 C 357.05295188670226 569 360.93879421164775 572.8861679360001 360.93879421164775 577.6800000000001 C 360.93879421164775 582.473832064 357.05295188670226 586.36 352.259521484375 586.36 C 347.46609108204774 586.36 343.58024875710225 582.473832064 343.58024875710225 577.6800000000001 Z" stroke-miterlimit="10"/></g><g transform="translate(-46,-30) scale(1,1)"><path fill="none" stroke="#000000" d="M 352.259521484375 586.36 L 352.259521484375 603.64" stroke-miterlimit="10"/></g><g transform="translate(-46,-30) scale(1,1)"><path fill="none" stroke="#000000" d="M 343.06970330255683 592.84 L 361.44933966619317 592.84" stroke-miterlimit="10"/></g><g transform="translate(-46,-30) scale(1,1)"><path fill="none" stroke="#000000" d="M 352.259521484375 603.64 L 339.49588512073865 621" stroke-miterlimit="10"/></g><g transform="translate(-46,-30) scale(1,1)"><path fill="none" stroke="#000000" d="M 352.259521484375 603.64 L 365.02315784801135 621" stroke-miterlimit="10"/></g><g transform="translate(-46,-30) scale(1,1)"><g><path fill="none" stroke="none"/><text fill="#000000" stroke="none" font-family="Arial" font-size="13px" font-style="normal" font-weight="bold" text-decoration="none" x="319.02001953125" y="641.5">Catedrático</text></g></g><g transform="translate(-46,-30) scale(1,1)"><path fill="none" stroke="#000000" d="M 393 615 L 407 615 M 407 615 A 8 8 0 0 0 415 607 L 415 503" stroke-miterlimit="10"/></g><g transform="translate(-46,-30) scale(1,1)"><path fill="#FFFFFF" stroke="none" d="M 423.419035512032 523.3253497152483 L 415 503 L 406.580964487968 523.3253497152483"/></g><g transform="translate(-46,-30) scale(1,1)"><path fill="none" stroke="#000000" d="M 423.419035512032 523.3253497152483 L 415 503 L 406.580964487968 523.3253497152483 L 423.419035512032 523.3253497152483" stroke-miterlimit="10"/></g><g transform="translate(-46,-30) scale(1,1)"><path fill="none" stroke="#000000" d="M 422 696 L 426 696 M 426 696 A 8 8 0 0 0 434 688 L 434 503" stroke-miterlimit="10"/></g><g transform="translate(-46,-30) scale(1,1)"><path fill="#FFFFFF" stroke="none" d="M 442.419035512032 523.3253497152483 L 434 503 L 425.580964487968 523.3253497152483"/></g><g transform="translate(-46,-30) scale(1,1)"><path fill="none" stroke="#000000" d="M 442.419035512032 523.3253497152483 L 434 503 L 425.580964487968 523.3253497152483 L 442.419035512032 523.3253497152483" stroke-miterlimit="10"/></g><g transform="translate(-46,-30) scale(1,1)"><path fill="none" stroke="#000000" d="M 432 822 L 448 822 M 448 822 A 8 8 0 0 0 456 814 L 456 503" stroke-miterlimit="10"/></g><g transform="translate(-46,-30) scale(1,1)"><path fill="#FFFFFF" stroke="none" d="M 464.419035512032 523.3253497152483 L 456 503 L 447.580964487968 523.3253497152483"/></g><g transform="translate(-46,-30) scale(1,1)"><path fill="none" stroke="#000000" d="M 464.419035512032 523.3253497152483 L 456 503 L 447.580964487968 523.3253497152483 L 464.419035512032 523.3253497152483" stroke-miterlimit="10"/></g><g transform="translate(-46,-30) scale(1,1)"><path fill="none" stroke="#000000" d="M 528 560 L 528 503" stroke-miterlimit="10"/></g><g transform="translate(-46,-30) scale(1,1)"><path fill="#FFFFFF" stroke="none" d="M 536.419035512032 523.3253497152483 L 528 503 L 519.580964487968 523.3253497152483"/></g><g transform="translate(-46,-30) scale(1,1)"><path fill="none" stroke="#000000" d="M 536.419035512032 523.3253497152483 L 528 503 L 519.580964487968 523.3253497152483 L 536.419035512032 523.3253497152483" stroke-miterlimit="10"/></g><g transform="translate(-46,-30) scale(1,1)"><path fill="#ffffff" stroke="none" d="M 464.7490909090909 124.4 C 464.7490909090909 118.10395328 469.78629392290907 113 476 113 C 482.21370607709093 113 487.2509090909091 118.10395328 487.2509090909091 124.4 C 487.2509090909091 130.69604672 482.21370607709093 135.8 476 135.8 C 469.78629392290907 135.8 464.7490909090909 130.69604672 464.7490909090909 124.4 Z"/></g><g transform="translate(-46,-30) scale(1,1)"><path fill="none" stroke="#000000" d="M 464.7490909090909 124.4 C 464.7490909090909 118.10395328 469.78629392290907 113 476 113 C 482.21370607709093 113 487.2509090909091 118.10395328 487.2509090909091 124.4 C 487.2509090909091 130.69604672 482.21370607709093 135.8 476 135.8 C 469.78629392290907 135.8 464.7490909090909 130.69604672 464.7490909090909 124.4 Z" stroke-miterlimit="10"/></g><g transform="translate(-46,-30) scale(1,1)"><path fill="none" stroke="#000000" d="M 476 135.8 L 476 158.2" stroke-miterlimit="10"/></g><g transform="translate(-46,-30) scale(1,1)"><path fill="none" stroke="#000000" d="M 464.08727272727276 144.2 L 487.91272727272724 144.2" stroke-miterlimit="10"/></g><g transform="translate(-46,-30) scale(1,1)"><path fill="none" stroke="#000000" d="M 476 158.2 L 459.4545454545455 181" stroke-miterlimit="10"/></g><g transform="translate(-46,-30) scale(1,1)"><path fill="none" stroke="#000000" d="M 476 158.2 L 492.5454545454545 181" stroke-miterlimit="10"/></g><g transform="translate(-46,-30) scale(1,1)"><g><path fill="none" stroke="none"/><text fill="#000000" stroke="none" font-family="Arial" font-size="13px" font-style="normal" font-weight="bold" text-decoration="none" x="426.142333984375" y="201.5">PersonaConCVU</text></g></g><g transform="translate(-46,-30) scale(1,1)"><path fill="none" stroke="#000000" d="M 472 416 L 472 207" stroke-miterlimit="10"/></g><g transform="translate(-46,-30) scale(1,1)"><path fill="#FFFFFF" stroke="none" d="M 480.419035512032 227.3253497152483 L 472 207 L 463.580964487968 227.3253497152483"/></g><g transform="translate(-46,-30) scale(1,1)"><path fill="none" stroke="#000000" d="M 480.419035512032 227.3253497152483 L 472 207 L 463.580964487968 227.3253497152483 L 480.419035512032 227.3253497152483" stroke-miterlimit="10"/></g><g transform="translate(-46,-30) scale(1,1)"><path fill="none" stroke="#000000" d="M 736 288 L 736 215 M 736 215 A 8 8 0 0 0 728 207 L 552 207" stroke-miterlimit="10"/></g><g transform="translate(-46,-30) scale(1,1)"><path fill="#FFFFFF" stroke="none" d="M 572.3253497152483 198.58096448796803 L 552 207 L 572.3253497152483 215.41903551203197"/></g><g transform="translate(-46,-30) scale(1,1)"><path fill="none" stroke="#000000" d="M 572.3253497152483 198.58096448796803 L 552 207 L 572.3253497152483 215.41903551203197 L 572.3253497152483 198.58096448796803" stroke-miterlimit="10"/></g><g transform="translate(-46,-30) scale(1,1)"><path fill="none" stroke="#000000" d="M 388 320 L 416 320 M 416 320 A 8 8 0 0 0 424 312 L 424 207" stroke-miterlimit="10"/></g><g transform="translate(-46,-30) scale(1,1)"><path fill="#FFFFFF" stroke="none" d="M 432.419035512032 227.3253497152483 L 424 207 L 415.580964487968 227.3253497152483"/></g><g transform="translate(-46,-30) scale(1,1)"><path fill="none" stroke="#000000" d="M 432.419035512032 227.3253497152483 L 424 207 L 415.580964487968 227.3253497152483 L 432.419035512032 227.3253497152483" stroke-miterlimit="10"/></g><g transform="translate(-46,-30) scale(1,1)"><path fill="none" stroke="#000000" d="M 544 312 L 520 312 M 520 312 A 8 8 0 0 1 512 304 L 512 207" stroke-miterlimit="10"/></g><g transform="translate(-46,-30) scale(1,1)"><path fill="#FFFFFF" stroke="none" d="M 520.419035512032 227.3253497152483 L 512 207 L 503.580964487968 227.3253497152483"/></g><g transform="translate(-46,-30) scale(1,1)"><path fill="none" stroke="#000000" d="M 520.419035512032 227.3253497152483 L 512 207 L 503.580964487968 227.3253497152483 L 520.419035512032 227.3253497152483" stroke-miterlimit="10"/></g><g transform="translate(-46,-30) scale(1,1)"><path fill="#ffffff" stroke="none" d="M 563.4916257102273 665.6800000000001 C 563.4916257102273 660.8861679360001 567.3774680351727 657 572.1708984375 657 C 576.9643288398273 657 580.8501711647727 660.8861679360001 580.8501711647727 665.6800000000001 C 580.8501711647727 670.473832064 576.9643288398273 674.36 572.1708984375 674.36 C 567.3774680351727 674.36 563.4916257102273 670.473832064 563.4916257102273 665.6800000000001 Z"/></g><g transform="translate(-46,-30) scale(1,1)"><path fill="none" stroke="#000000" d="M 563.4916257102273 665.6800000000001 C 563.4916257102273 660.8861679360001 567.3774680351727 657 572.1708984375 657 C 576.9643288398273 657 580.8501711647727 660.8861679360001 580.8501711647727 665.6800000000001 C 580.8501711647727 670.473832064 576.9643288398273 674.36 572.1708984375 674.36 C 567.3774680351727 674.36 563.4916257102273 670.473832064 563.4916257102273 665.6800000000001 Z" stroke-miterlimit="10"/></g><g transform="translate(-46,-30) scale(1,1)"><path fill="none" stroke="#000000" d="M 572.1708984375 674.36 L 572.1708984375 691.64" stroke-miterlimit="10"/></g><g transform="translate(-46,-30) scale(1,1)"><path fill="none" stroke="#000000" d="M 562.9810802556818 680.84 L 581.3607166193182 680.84" stroke-miterlimit="10"/></g><g transform="translate(-46,-30) scale(1,1)"><path fill="none" stroke="#000000" d="M 572.1708984375 691.64 L 559.4072620738636 709" stroke-miterlimit="10"/></g><g transform="translate(-46,-30) scale(1,1)"><path fill="none" stroke="#000000" d="M 572.1708984375 691.64 L 584.9345348011364 709" stroke-miterlimit="10"/></g><g transform="translate(-46,-30) scale(1,1)"><g><path fill="none" stroke="none"/><text fill="#000000" stroke="none" font-family="Arial" font-size="13px" font-style="normal" font-weight="bold" text-decoration="none" x="527.004150390625" y="729.5">Co-Reponsable</text><text fill="#000000" stroke="none" font-family="Arial" font-size="13px" font-style="normal" font-weight="bold" text-decoration="none" x="549.411376953125" y="742.5">Técnico</text></g></g><g transform="translate(-46,-30) scale(1,1)"><path fill="none" stroke="#000000" d="M 520 702 L 512 702 M 512 702 A 8 8 0 0 1 504 694 L 504 503" stroke-miterlimit="10"/></g><g transform="translate(-46,-30) scale(1,1)"><path fill="#FFFFFF" stroke="none" d="M 512.419035512032 523.3253497152483 L 504 503 L 495.580964487968 523.3253497152483"/></g><g transform="translate(-46,-30) scale(1,1)"><path fill="none" stroke="#000000" d="M 512.419035512032 523.3253497152483 L 504 503 L 495.580964487968 523.3253497152483 L 512.419035512032 523.3253497152483" stroke-miterlimit="10"/></g><g transform="translate(-46,-30) scale(1,1)"><path fill="#ffffff" stroke="none" d="M 157.04753391335228 313.68 C 157.04753391335228 308.886167936 160.93337623829774 305 165.726806640625 305 C 170.52023704295226 305 174.40607936789772 308.886167936 174.40607936789772 313.68 C 174.40607936789772 318.473832064 170.52023704295226 322.36 165.726806640625 322.36 C 160.93337623829774 322.36 157.04753391335228 318.473832064 157.04753391335228 313.68 Z"/></g><g transform="translate(-46,-30) scale(1,1)"><path fill="none" stroke="#000000" d="M 157.04753391335228 313.68 C 157.04753391335228 308.886167936 160.93337623829774 305 165.726806640625 305 C 170.52023704295226 305 174.40607936789772 308.886167936 174.40607936789772 313.68 C 174.40607936789772 318.473832064 170.52023704295226 322.36 165.726806640625 322.36 C 160.93337623829774 322.36 157.04753391335228 318.473832064 157.04753391335228 313.68 Z" stroke-miterlimit="10"/></g><g transform="translate(-46,-30) scale(1,1)"><path fill="none" stroke="#000000" d="M 165.726806640625 322.36 L 165.726806640625 339.64" stroke-miterlimit="10"/></g><g transform="translate(-46,-30) scale(1,1)"><path fill="none" stroke="#000000" d="M 156.53698845880683 328.84 L 174.91662482244317 328.84" stroke-miterlimit="10"/></g><g transform="translate(-46,-30) scale(1,1)"><path fill="none" stroke="#000000" d="M 165.726806640625 339.64 L 152.96317027698865 357" stroke-miterlimit="10"/></g><g transform="translate(-46,-30) scale(1,1)"><path fill="none" stroke="#000000" d="M 165.726806640625 339.64 L 178.49044300426135 357" stroke-miterlimit="10"/></g><g transform="translate(-46,-30) scale(1,1)"><g><path fill="none" stroke="none"/><text fill="#000000" stroke="none" font-family="Arial" font-size="13px" font-style="normal" font-weight="bold" text-decoration="none" x="135.010498046875" y="377.5">Estudiante</text></g></g><g transform="translate(-46,-30) scale(1,1)"><path fill="#ffffff" stroke="none" d="M 81.79753391335227 441.68 C 81.79753391335227 436.886167936 85.68337623829773 433 90.476806640625 433 C 95.27023704295227 433 99.15607936789773 436.886167936 99.15607936789773 441.68 C 99.15607936789773 446.473832064 95.27023704295227 450.36 90.476806640625 450.36 C 85.68337623829773 450.36 81.79753391335227 446.473832064 81.79753391335227 441.68 Z"/></g><g transform="translate(-46,-30) scale(1,1)"><path fill="none" stroke="#000000" d="M 81.79753391335227 441.68 C 81.79753391335227 436.886167936 85.68337623829773 433 90.476806640625 433 C 95.27023704295227 433 99.15607936789773 436.886167936 99.15607936789773 441.68 C 99.15607936789773 446.473832064 95.27023704295227 450.36 90.476806640625 450.36 C 85.68337623829773 450.36 81.79753391335227 446.473832064 81.79753391335227 441.68 Z" stroke-miterlimit="10"/></g><g transform="translate(-46,-30) scale(1,1)"><path fill="none" stroke="#000000" d="M 90.476806640625 450.36 L 90.476806640625 467.64" stroke-miterlimit="10"/></g><g transform="translate(-46,-30) scale(1,1)"><path fill="none" stroke="#000000" d="M 81.28698845880682 456.84 L 99.66662482244318 456.84" stroke-miterlimit="10"/></g><g transform="translate(-46,-30) scale(1,1)"><path fill="none" stroke="#000000" d="M 90.476806640625 467.64 L 77.71317027698863 485" stroke-miterlimit="10"/></g><g transform="translate(-46,-30) scale(1,1)"><path fill="none" stroke="#000000" d="M 90.476806640625 467.64 L 103.24044300426137 485" stroke-miterlimit="10"/></g><g transform="translate(-46,-30) scale(1,1)"><g><path fill="none" stroke="none"/><text fill="#000000" stroke="none" font-family="Arial" font-size="13px" font-style="normal" font-weight="bold" text-decoration="none" x="62.65185546875" y="505.5">Posgrado</text></g></g><g transform="translate(-46,-30) scale(1,1)"><path fill="#ffffff" stroke="none" d="M 244.32072727272728 457.68 C 244.32072727272728 452.886167936 248.2065695976727 449 253 449 C 257.79343040232726 449 261.67927272727275 452.886167936 261.67927272727275 457.68 C 261.67927272727275 462.473832064 257.79343040232726 466.36 253 466.36 C 248.2065695976727 466.36 244.32072727272728 462.473832064 244.32072727272728 457.68 Z"/></g><g transform="translate(-46,-30) scale(1,1)"><path fill="none" stroke="#000000" d="M 244.32072727272728 457.68 C 244.32072727272728 452.886167936 248.2065695976727 449 253 449 C 257.79343040232726 449 261.67927272727275 452.886167936 261.67927272727275 457.68 C 261.67927272727275 462.473832064 257.79343040232726 466.36 253 466.36 C 248.2065695976727 466.36 244.32072727272728 462.473832064 244.32072727272728 457.68 Z" stroke-miterlimit="10"/></g><g transform="translate(-46,-30) scale(1,1)"><path fill="none" stroke="#000000" d="M 253 466.36 L 253 483.64" stroke-miterlimit="10"/></g><g transform="translate(-46,-30) scale(1,1)"><path fill="none" stroke="#000000" d="M 243.81018181818183 472.84 L 262.18981818181817 472.84" stroke-miterlimit="10"/></g><g transform="translate(-46,-30) scale(1,1)"><path fill="none" stroke="#000000" d="M 253 483.64 L 240.23636363636365 501" stroke-miterlimit="10"/></g><g transform="translate(-46,-30) scale(1,1)"><path fill="none" stroke="#000000" d="M 253 483.64 L 265.76363636363635 501" stroke-miterlimit="10"/></g><g transform="translate(-46,-30) scale(1,1)"><g><path fill="none" stroke="none"/><text fill="#000000" stroke="none" font-family="Arial" font-size="13px" font-style="normal" font-weight="bold" text-decoration="none" x="223.010498046875" y="521.5">Doctorado</text></g></g><g transform="translate(-46,-30) scale(1,1)"><path fill="#ffffff" stroke="none" d="M 156.94206516335228 529.6800000000001 C 156.94206516335228 524.8861679360001 160.82790748829774 521 165.621337890625 521 C 170.41476829295226 521 174.30061061789772 524.8861679360001 174.30061061789772 529.6800000000001 C 174.30061061789772 534.473832064 170.41476829295226 538.36 165.621337890625 538.36 C 160.82790748829774 538.36 156.94206516335228 534.473832064 156.94206516335228 529.6800000000001 Z"/></g><g transform="translate(-46,-30) scale(1,1)"><path fill="none" stroke="#000000" d="M 156.94206516335228 529.6800000000001 C 156.94206516335228 524.8861679360001 160.82790748829774 521 165.621337890625 521 C 170.41476829295226 521 174.30061061789772 524.8861679360001 174.30061061789772 529.6800000000001 C 174.30061061789772 534.473832064 170.41476829295226 538.36 165.621337890625 538.36 C 160.82790748829774 538.36 156.94206516335228 534.473832064 156.94206516335228 529.6800000000001 Z" stroke-miterlimit="10"/></g><g transform="translate(-46,-30) scale(1,1)"><path fill="none" stroke="#000000" d="M 165.621337890625 538.36 L 165.621337890625 555.64" stroke-miterlimit="10"/></g><g transform="translate(-46,-30) scale(1,1)"><path fill="none" stroke="#000000" d="M 156.43151970880683 544.84 L 174.81115607244317 544.84" stroke-miterlimit="10"/></g><g transform="translate(-46,-30) scale(1,1)"><path fill="none" stroke="#000000" d="M 165.621337890625 555.64 L 152.85770152698865 573" stroke-miterlimit="10"/></g><g transform="translate(-46,-30) scale(1,1)"><path fill="none" stroke="#000000" d="M 165.621337890625 555.64 L 178.38497425426135 573" stroke-miterlimit="10"/></g><g transform="translate(-46,-30) scale(1,1)"><g><path fill="none" stroke="none"/><text fill="#000000" stroke="none" font-family="Arial" font-size="13px" font-style="normal" font-weight="bold" text-decoration="none" x="120.45458984375" y="593.5">Posdoctorantes</text></g></g><g transform="translate(-46,-30) scale(1,1)"><path fill="none" stroke="#000000" d="M 125 471 L 139 471 M 139 471 A 8 8 0 0 0 147 463 L 147 383" stroke-miterlimit="10"/></g><g transform="translate(-46,-30) scale(1,1)"><path fill="#FFFFFF" stroke="none" d="M 155.41903551203197 403.3253497152483 L 147 383 L 138.58096448796803 403.3253497152483"/></g><g transform="translate(-46,-30) scale(1,1)"><path fill="none" stroke="#000000" d="M 155.41903551203197 403.3253497152483 L 147 383 L 138.58096448796803 403.3253497152483 L 155.41903551203197 403.3253497152483" stroke-miterlimit="10"/></g><g transform="translate(-46,-30) scale(1,1)"><path fill="none" stroke="#000000" d="M 216 487 L 193 487 M 193 487 A 8 8 0 0 1 185 479 L 185 383" stroke-miterlimit="10"/></g><g transform="translate(-46,-30) scale(1,1)"><path fill="#FFFFFF" stroke="none" d="M 193.41903551203197 403.3253497152483 L 185 383 L 176.58096448796803 403.3253497152483"/></g><g transform="translate(-46,-30) scale(1,1)"><path fill="none" stroke="#000000" d="M 193.41903551203197 403.3253497152483 L 185 383 L 176.58096448796803 403.3253497152483 L 193.41903551203197 403.3253497152483" stroke-miterlimit="10"/></g><g transform="translate(-46,-30) scale(1,1)"><path fill="none" stroke="#000000" d="M 165 520 L 165 383" stroke-miterlimit="10"/></g><g transform="translate(-46,-30) scale(1,1)"><path fill="#FFFFFF" stroke="none" d="M 173.41903551203197 403.3253497152483 L 165 383 L 156.58096448796803 403.3253497152483"/></g><g transform="translate(-46,-30) scale(1,1)"><path fill="none" stroke="#000000" d="M 173.41903551203197 403.3253497152483 L 165 383 L 156.58096448796803 403.3253497152483 L 173.41903551203197 403.3253497152483" stroke-miterlimit="10"/></g><g transform="translate(-46,-30) scale(1,1)"><path fill="none" stroke="#000000" d="M 168 304 L 168 215 M 168 215 A 8 8 0 0 1 176 207 L 400 207" stroke-miterlimit="10"/></g><g transform="translate(-46,-30) scale(1,1)"><path fill="#FFFFFF" stroke="none" d="M 379.6746502847517 215.41903551203197 L 400 207 L 379.6746502847517 198.58096448796803"/></g><g transform="translate(-46,-30) scale(1,1)"><path fill="none" stroke="#000000" d="M 379.6746502847517 215.41903551203197 L 400 207 L 379.6746502847517 198.58096448796803 L 379.6746502847517 215.41903551203197" stroke-miterlimit="10"/></g><g transform="translate(-46,-30) scale(1,1)"><path fill="#ffffff" stroke="none" d="M 553.0275143821023 793.6800000000001 C 553.0275143821023 788.8861679360001 556.9133567070477 785 561.706787109375 785 C 566.5002175117023 785 570.3860598366477 788.8861679360001 570.3860598366477 793.6800000000001 C 570.3860598366477 798.473832064 566.5002175117023 802.36 561.706787109375 802.36 C 556.9133567070477 802.36 553.0275143821023 798.473832064 553.0275143821023 793.6800000000001 Z"/></g><g transform="translate(-46,-30) scale(1,1)"><path fill="none" stroke="#000000" d="M 553.0275143821023 793.6800000000001 C 553.0275143821023 788.8861679360001 556.9133567070477 785 561.706787109375 785 C 566.5002175117023 785 570.3860598366477 788.8861679360001 570.3860598366477 793.6800000000001 C 570.3860598366477 798.473832064 566.5002175117023 802.36 561.706787109375 802.36 C 556.9133567070477 802.36 553.0275143821023 798.473832064 553.0275143821023 793.6800000000001 Z" stroke-miterlimit="10"/></g><g transform="translate(-46,-30) scale(1,1)"><path fill="none" stroke="#000000" d="M 561.706787109375 802.36 L 561.706787109375 819.64" stroke-miterlimit="10"/></g><g transform="translate(-46,-30) scale(1,1)"><path fill="none" stroke="#000000" d="M 552.5169689275568 808.84 L 570.8966052911932 808.84" stroke-miterlimit="10"/></g><g transform="translate(-46,-30) scale(1,1)"><path fill="none" stroke="#000000" d="M 561.706787109375 819.64 L 548.9431507457386 837" stroke-miterlimit="10"/></g><g transform="translate(-46,-30) scale(1,1)"><path fill="none" stroke="#000000" d="M 561.706787109375 819.64 L 574.4704234730114 837" stroke-miterlimit="10"/></g><g transform="translate(-46,-30) scale(1,1)"><g><path fill="none" stroke="none"/><text fill="#000000" stroke="none" font-family="Arial" font-size="13px" font-style="normal" font-weight="bold" text-decoration="none" x="527.3818359375" y="857.5">Participante</text></g></g><g transform="translate(-46,-30) scale(1,1)"><path fill="none" stroke="#000000" d="M 520 816 L 488 816 M 488 816 A 8 8 0 0 1 480 808 L 480 503" stroke-miterlimit="10"/></g><g transform="translate(-46,-30) scale(1,1)"><path fill="#FFFFFF" stroke="none" d="M 488.419035512032 523.3253497152483 L 480 503 L 471.580964487968 523.3253497152483"/></g><g transform="translate(-46,-30) scale(1,1)"><path fill="none" stroke="#000000" d="M 488.419035512032 523.3253497152483 L 480 503 L 471.580964487968 523.3253497152483 L 488.419035512032 523.3253497152483" stroke-miterlimit="10"/></g><g transform="translate(-46,-30) scale(1,1)"><path fill="#ffffff" stroke="none" d="M 205.55272727272725 51.55 C 205.55272727272725 45.72339536 210.23013007127273 41 216 41 C 221.76986992872727 41 226.44727272727275 45.72339536 226.44727272727275 51.55 C 226.44727272727275 57.37660464 221.76986992872727 62.1 216 62.1 C 210.23013007127273 62.1 205.55272727272725 57.37660464 205.55272727272725 51.55 Z"/></g><g transform="translate(-46,-30) scale(1,1)"><path fill="none" stroke="#000000" d="M 205.55272727272725 51.55 C 205.55272727272725 45.72339536 210.23013007127273 41 216 41 C 221.76986992872727 41 226.44727272727275 45.72339536 226.44727272727275 51.55 C 226.44727272727275 57.37660464 221.76986992872727 62.1 216 62.1 C 210.23013007127273 62.1 205.55272727272725 57.37660464 205.55272727272725 51.55 Z" stroke-miterlimit="10"/></g><g transform="translate(-46,-30) scale(1,1)"><path fill="none" stroke="#000000" d="M 216 62.1 L 216 82.9" stroke-miterlimit="10"/></g><g transform="translate(-46,-30) scale(1,1)"><path fill="none" stroke="#000000" d="M 204.93818181818182 69.9 L 227.06181818181818 69.9" stroke-miterlimit="10"/></g><g transform="translate(-46,-30) scale(1,1)"><path fill="none" stroke="#000000" d="M 216 82.9 L 200.63636363636363 104" stroke-miterlimit="10"/></g><g transform="translate(-46,-30) scale(1,1)"><path fill="none" stroke="#000000" d="M 216 82.9 L 231.36363636363637 104" stroke-miterlimit="10"/></g><g transform="translate(-46,-30) scale(1,1)"><g><path fill="none" stroke="none"/><text fill="#000000" stroke="none" font-family="Arial" font-size="13px" font-style="normal" font-weight="normal" text-decoration="none" x="185.2900390625" y="122.5">«Sistema»</text></g></g><g transform="translate(-46,-30) scale(1,1)"><g><path fill="none" stroke="none"/><text fill="#000000" stroke="none" font-family="Arial" font-size="13px" font-style="normal" font-weight="bold" text-decoration="none" x="163.977783203125" y="137.5">Usuario Aplicativo</text></g></g><g transform="translate(-46,-30) scale(1,1)"><path fill="none" stroke="#000000" d="M 472 112 L 472 88 M 472 88 A 8 8 0 0 0 464 80 L 280 80" stroke-miterlimit="10"/></g><g transform="translate(-46,-30) scale(1,1)"><path fill="#FFFFFF" stroke="none" d="M 300.3253497152483 71.58096448796803 L 280 80 L 300.3253497152483 88.41903551203197"/></g><g transform="translate(-46,-30) scale(1,1)"><path fill="none" stroke="#000000" d="M 300.3253497152483 71.58096448796803 L 280 80 L 300.3253497152483 88.41903551203197 L 300.3253497152483 71.58096448796803" stroke-miterlimit="10"/></g></g></svg>