<svg version="1.1" xmlns="http://www.w3.org/2000/svg" xmlns:xlink="http://www.w3.org/1999/xlink" width="660.62158203125" height="368"><defs/><g><text fill="#eeeeee" stroke="none" font-family="Arial" font-size="24px" font-style="normal" font-weight="normal" text-decoration="none" x="0" y="0">UNREGISTERED</text><text fill="#eeeeee" stroke="none" font-family="Arial" font-size="24px" font-style="normal" font-weight="normal" text-decoration="none" x="0" y="30">UNREGISTERED</text><text fill="#eeeeee" stroke="none" font-family="Arial" font-size="24px" font-style="normal" font-weight="normal" text-decoration="none" x="0" y="60">UNREGISTERED</text><text fill="#eeeeee" stroke="none" font-family="Arial" font-size="24px" font-style="normal" font-weight="normal" text-decoration="none" x="0" y="90">UNREGISTERED</text><text fill="#eeeeee" stroke="none" font-family="Arial" font-size="24px" font-style="normal" font-weight="normal" text-decoration="none" x="0" y="120">UNREGISTERED</text><text fill="#eeeeee" stroke="none" font-family="Arial" font-size="24px" font-style="normal" font-weight="normal" text-decoration="none" x="0" y="150">UNREGISTERED</text><text fill="#eeeeee" stroke="none" font-family="Arial" font-size="24px" font-style="normal" font-weight="normal" text-decoration="none" x="0" y="180">UNREGISTERED</text><text fill="#eeeeee" stroke="none" font-family="Arial" font-size="24px" font-style="normal" font-weight="normal" text-decoration="none" x="0" y="210">UNREGISTERED</text><text fill="#eeeeee" stroke="none" font-family="Arial" font-size="24px" font-style="normal" font-weight="normal" text-decoration="none" x="0" y="240">UNREGISTERED</text><text fill="#eeeeee" stroke="none" font-family="Arial" font-size="24px" font-style="normal" font-weight="normal" text-decoration="none" x="0" y="270">UNREGISTERED</text><text fill="#eeeeee" stroke="none" font-family="Arial" font-size="24px" font-style="normal" font-weight="normal" text-decoration="none" x="0" y="300">UNREGISTERED</text><text fill="#eeeeee" stroke="none" font-family="Arial" font-size="24px" font-style="normal" font-weight="normal" text-decoration="none" x="0" y="330">UNREGISTERED</text><text fill="#eeeeee" stroke="none" font-family="Arial" font-size="24px" font-style="normal" font-weight="normal" text-decoration="none" x="0" y="360">UNREGISTERED</text><text fill="#eeeeee" stroke="none" font-family="Arial" font-size="24px" font-style="normal" font-weight="normal" text-decoration="none" x="200" y="0">UNREGISTERED</text><text fill="#eeeeee" stroke="none" font-family="Arial" font-size="24px" font-style="normal" font-weight="normal" text-decoration="none" x="200" y="30">UNREGISTERED</text><text fill="#eeeeee" stroke="none" font-family="Arial" font-size="24px" font-style="normal" font-weight="normal" text-decoration="none" x="200" y="60">UNREGISTERED</text><text fill="#eeeeee" stroke="none" font-family="Arial" font-size="24px" font-style="normal" font-weight="normal" text-decoration="none" x="200" y="90">UNREGISTERED</text><text fill="#eeeeee" stroke="none" font-family="Arial" font-size="24px" font-style="normal" font-weight="normal" text-decoration="none" x="200" y="120">UNREGISTERED</text><text fill="#eeeeee" stroke="none" font-family="Arial" font-size="24px" font-style="normal" font-weight="normal" text-decoration="none" x="200" y="150">UNREGISTERED</text><text fill="#eeeeee" stroke="none" font-family="Arial" font-size="24px" font-style="normal" font-weight="normal" text-decoration="none" x="200" y="180">UNREGISTERED</text><text fill="#eeeeee" stroke="none" font-family="Arial" font-size="24px" font-style="normal" font-weight="normal" text-decoration="none" x="200" y="210">UNREGISTERED</text><text fill="#eeeeee" stroke="none" font-family="Arial" font-size="24px" font-style="normal" font-weight="normal" text-decoration="none" x="200" y="240">UNREGISTERED</text><text fill="#eeeeee" stroke="none" font-family="Arial" font-size="24px" font-style="normal" font-weight="normal" text-decoration="none" x="200" y="270">UNREGISTERED</text><text fill="#eeeeee" stroke="none" font-family="Arial" font-size="24px" font-style="normal" font-weight="normal" text-decoration="none" x="200" y="300">UNREGISTERED</text><text fill="#eeeeee" stroke="none" font-family="Arial" font-size="24px" font-style="normal" font-weight="normal" text-decoration="none" x="200" y="330">UNREGISTERED</text><text fill="#eeeeee" stroke="none" font-family="Arial" font-size="24px" font-style="normal" font-weight="normal" text-decoration="none" x="200" y="360">UNREGISTERED</text><text fill="#eeeeee" stroke="none" font-family="Arial" font-size="24px" font-style="normal" font-weight="normal" text-decoration="none" x="400" y="0">UNREGISTERED</text><text fill="#eeeeee" stroke="none" font-family="Arial" font-size="24px" font-style="normal" font-weight="normal" text-decoration="none" x="400" y="30">UNREGISTERED</text><text fill="#eeeeee" stroke="none" font-family="Arial" font-size="24px" font-style="normal" font-weight="normal" text-decoration="none" x="400" y="60">UNREGISTERED</text><text fill="#eeeeee" stroke="none" font-family="Arial" font-size="24px" font-style="normal" font-weight="normal" text-decoration="none" x="400" y="90">UNREGISTERED</text><text fill="#eeeeee" stroke="none" font-family="Arial" font-size="24px" font-style="normal" font-weight="normal" text-decoration="none" x="400" y="120">UNREGISTERED</text><text fill="#eeeeee" stroke="none" font-family="Arial" font-size="24px" font-style="normal" font-weight="normal" text-decoration="none" x="400" y="150">UNREGISTERED</text><text fill="#eeeeee" stroke="none" font-family="Arial" font-size="24px" font-style="normal" font-weight="normal" text-decoration="none" x="400" y="180">UNREGISTERED</text><text fill="#eeeeee" stroke="none" font-family="Arial" font-size="24px" font-style="normal" font-weight="normal" text-decoration="none" x="400" y="210">UNREGISTERED</text><text fill="#eeeeee" stroke="none" font-family="Arial" font-size="24px" font-style="normal" font-weight="normal" text-decoration="none" x="400" y="240">UNREGISTERED</text><text fill="#eeeeee" stroke="none" font-family="Arial" font-size="24px" font-style="normal" font-weight="normal" text-decoration="none" x="400" y="270">UNREGISTERED</text><text fill="#eeeeee" stroke="none" font-family="Arial" font-size="24px" font-style="normal" font-weight="normal" text-decoration="none" x="400" y="300">UNREGISTERED</text><text fill="#eeeeee" stroke="none" font-family="Arial" font-size="24px" font-style="normal" font-weight="normal" text-decoration="none" x="400" y="330">UNREGISTERED</text><text fill="#eeeeee" stroke="none" font-family="Arial" font-size="24px" font-style="normal" font-weight="normal" text-decoration="none" x="400" y="360">UNREGISTERED</text><text fill="#eeeeee" stroke="none" font-family="Arial" font-size="24px" font-style="normal" font-weight="normal" text-decoration="none" x="600" y="0">UNREGISTERED</text><text fill="#eeeeee" stroke="none" font-family="Arial" font-size="24px" font-style="normal" font-weight="normal" text-decoration="none" x="600" y="30">UNREGISTERED</text><text fill="#eeeeee" stroke="none" font-family="Arial" font-size="24px" font-style="normal" font-weight="normal" text-decoration="none" x="600" y="60">UNREGISTERED</text><text fill="#eeeeee" stroke="none" font-family="Arial" font-size="24px" font-style="normal" font-weight="normal" text-decoration="none" x="600" y="90">UNREGISTERED</text><text fill="#eeeeee" stroke="none" font-family="Arial" font-size="24px" font-style="normal" font-weight="normal" text-decoration="none" x="600" y="120">UNREGISTERED</text><text fill="#eeeeee" stroke="none" font-family="Arial" font-size="24px" font-style="normal" font-weight="normal" text-decoration="none" x="600" y="150">UNREGISTERED</text><text fill="#eeeeee" stroke="none" font-family="Arial" font-size="24px" font-style="normal" font-weight="normal" text-decoration="none" x="600" y="180">UNREGISTERED</text><text fill="#eeeeee" stroke="none" font-family="Arial" font-size="24px" font-style="normal" font-weight="normal" text-decoration="none" x="600" y="210">UNREGISTERED</text><text fill="#eeeeee" stroke="none" font-family="Arial" font-size="24px" font-style="normal" font-weight="normal" text-decoration="none" x="600" y="240">UNREGISTERED</text><text fill="#eeeeee" stroke="none" font-family="Arial" font-size="24px" font-style="normal" font-weight="normal" text-decoration="none" x="600" y="270">UNREGISTERED</text><text fill="#eeeeee" stroke="none" font-family="Arial" font-size="24px" font-style="normal" font-weight="normal" text-decoration="none" x="600" y="300">UNREGISTERED</text><text fill="#eeeeee" stroke="none" font-family="Arial" font-size="24px" font-style="normal" font-weight="normal" text-decoration="none" x="600" y="330">UNREGISTERED</text><text fill="#eeeeee" stroke="none" font-family="Arial" font-size="24px" font-style="normal" font-weight="normal" text-decoration="none" x="600" y="360">UNREGISTERED</text><g transform="translate(-382,-30) scale(1,1)"><rect fill="#C0C0C0" stroke="none" x="591" y="47" width="211.693359375" height="236" opacity="0.2"/></g><g transform="translate(-382,-30) scale(1,1)"><rect fill="#ffffff" stroke="none" x="584" y="40" width="211.693359375" height="236"/></g><g transform="translate(-382,-30) scale(1,1)"><path fill="none" stroke="#000000" d="M 584 40 L 795.693359375 40 L 795.693359375 276 L 584 276 L 584 40 Z Z" stroke-miterlimit="10"/></g><g transform="translate(-382,-30) scale(1,1)"><path fill="#ffffff" stroke="none" d="M 774.8359048295455 49.58 C 774.8359048295455 47.602820416 776.5629458628546 46 778.693359375 46 C 780.8237728871454 46 782.5508139204546 47.602820416 782.5508139204546 49.58 C 782.5508139204546 51.557179584 780.8237728871454 53.16 778.693359375 53.16 C 776.5629458628546 53.16 774.8359048295455 51.557179584 774.8359048295455 49.58 Z"/></g><g transform="translate(-382,-30) scale(1,1)"><path fill="none" stroke="#000000" d="M 774.8359048295455 49.58 C 774.8359048295455 47.602820416 776.5629458628546 46 778.693359375 46 C 780.8237728871454 46 782.5508139204546 47.602820416 782.5508139204546 49.58 C 782.5508139204546 51.557179584 780.8237728871454 53.16 778.693359375 53.16 C 776.5629458628546 53.16 774.8359048295455 51.557179584 774.8359048295455 49.58 Z" stroke-miterlimit="10"/></g><g transform="translate(-382,-30) scale(1,1)"><path fill="none" stroke="#000000" d="M 778.693359375 53.16 L 778.693359375 60.84" stroke-miterlimit="10"/></g><g transform="translate(-382,-30) scale(1,1)"><path fill="none" stroke="#000000" d="M 774.6089957386364 56.04 L 782.7777230113637 56.04" stroke-miterlimit="10"/></g><g transform="translate(-382,-30) scale(1,1)"><path fill="none" stroke="#000000" d="M 778.693359375 60.84 L 773.0206321022728 68" stroke-miterlimit="10"/></g><g transform="translate(-382,-30) scale(1,1)"><path fill="none" stroke="#000000" d="M 778.693359375 60.84 L 784.3660866477273 68" stroke-miterlimit="10"/></g><g transform="translate(-382,-30) scale(1,1)"><path fill="none" stroke="#000000" d="M 584 74 L 795.693359375 74" stroke-miterlimit="10"/></g><g transform="translate(-382,-30) scale(1,1)"><g><path fill="none" stroke="none"/><text fill="#000000" stroke="none" font-family="Arial" font-size="13px" font-style="normal" font-weight="bold" text-decoration="none" x="634.495361328125" y="59.5">Persona Física</text></g></g><g transform="translate(-382,-30) scale(1,1)"><g><path fill="none" stroke="none"/><text fill="#000000" stroke="none" font-family="Arial" font-size="13px" font-style="normal" font-weight="normal" text-decoration="none" x="589" y="91.5">+cvu</text></g></g><g transform="translate(-382,-30) scale(1,1)"><g><path fill="none" stroke="none"/><text fill="#000000" stroke="none" font-family="Arial" font-size="13px" font-style="normal" font-weight="normal" text-decoration="none" x="589" y="106.5">+titulo</text></g></g><g transform="translate(-382,-30) scale(1,1)"><g><path fill="none" stroke="none"/><text fill="#000000" stroke="none" font-family="Arial" font-size="13px" font-style="normal" font-weight="normal" text-decoration="none" x="589" y="121.5">+nombre</text></g></g><g transform="translate(-382,-30) scale(1,1)"><g><path fill="none" stroke="none"/><text fill="#000000" stroke="none" font-family="Arial" font-size="13px" font-style="normal" font-weight="normal" text-decoration="none" x="589" y="136.5">+rfc</text></g></g><g transform="translate(-382,-30) scale(1,1)"><g><path fill="none" stroke="none"/><text fill="#000000" stroke="none" font-family="Arial" font-size="13px" font-style="normal" font-weight="normal" text-decoration="none" x="589" y="151.5">+sexo</text></g></g><g transform="translate(-382,-30) scale(1,1)"><g><path fill="none" stroke="none"/><text fill="#000000" stroke="none" font-family="Arial" font-size="13px" font-style="normal" font-weight="normal" text-decoration="none" x="589" y="166.5">+correo</text></g></g><g transform="translate(-382,-30) scale(1,1)"><g><path fill="none" stroke="none"/><text fill="#000000" stroke="none" font-family="Arial" font-size="13px" font-style="normal" font-weight="normal" text-decoration="none" x="589" y="181.5">+gradoAcadémico</text></g></g><g transform="translate(-382,-30) scale(1,1)"><g><path fill="none" stroke="none"/><text fill="#000000" stroke="none" font-family="Arial" font-size="13px" font-style="normal" font-weight="normal" text-decoration="none" x="589" y="196.5">+nivelSNI</text></g></g><g transform="translate(-382,-30) scale(1,1)"><g><path fill="none" stroke="none"/><text fill="#000000" stroke="none" font-family="Arial" font-size="13px" font-style="normal" font-weight="normal" text-decoration="none" x="589" y="211.5">+instituciónes: List&lt;Institución&gt;</text></g></g><g transform="translate(-382,-30) scale(1,1)"><g><path fill="none" stroke="none"/><text fill="#000000" stroke="none" font-family="Arial" font-size="13px" font-style="normal" font-weight="normal" text-decoration="none" x="589" y="226.5">+apellidoPaterno</text></g></g><g transform="translate(-382,-30) scale(1,1)"><g><path fill="none" stroke="none"/><text fill="#000000" stroke="none" font-family="Arial" font-size="13px" font-style="normal" font-weight="normal" text-decoration="none" x="589" y="241.5">+apellidoMaterno</text></g></g><g transform="translate(-382,-30) scale(1,1)"><g><path fill="none" stroke="none"/><text fill="#000000" stroke="none" font-family="Arial" font-size="13px" font-style="normal" font-weight="normal" text-decoration="none" x="589" y="256.5">+curp</text></g></g><g transform="translate(-382,-30) scale(1,1)"><rect fill="#C0C0C0" stroke="none" x="911" y="175" width="128.62158203125" height="96" opacity="0.2"/></g><g transform="translate(-382,-30) scale(1,1)"><rect fill="#ffffff" stroke="none" x="904" y="168" width="128.62158203125" height="96"/></g><g transform="translate(-382,-30) scale(1,1)"><path fill="none" stroke="#000000" d="M 904 168 L 1032.62158203125 168 L 1032.62158203125 264 L 904 264 L 904 168 Z Z" stroke-miterlimit="10"/></g><g transform="translate(-382,-30) scale(1,1)"><path fill="#ffffff" stroke="none" d="M 1011.7641274857955 177.57999999999998 C 1011.7641274857955 175.602820416 1013.4911685191046 174 1015.62158203125 174 C 1017.7519955433954 174 1019.4790365767046 175.602820416 1019.4790365767046 177.57999999999998 C 1019.4790365767046 179.55717958399998 1017.7519955433954 181.16 1015.62158203125 181.16 C 1013.4911685191046 181.16 1011.7641274857955 179.55717958399998 1011.7641274857955 177.57999999999998 Z"/></g><g transform="translate(-382,-30) scale(1,1)"><path fill="none" stroke="#000000" d="M 1011.7641274857955 177.57999999999998 C 1011.7641274857955 175.602820416 1013.4911685191046 174 1015.62158203125 174 C 1017.7519955433954 174 1019.4790365767046 175.602820416 1019.4790365767046 177.57999999999998 C 1019.4790365767046 179.55717958399998 1017.7519955433954 181.16 1015.62158203125 181.16 C 1013.4911685191046 181.16 1011.7641274857955 179.55717958399998 1011.7641274857955 177.57999999999998 Z" stroke-miterlimit="10"/></g><g transform="translate(-382,-30) scale(1,1)"><path fill="none" stroke="#000000" d="M 1015.62158203125 181.16 L 1015.62158203125 188.84" stroke-miterlimit="10"/></g><g transform="translate(-382,-30) scale(1,1)"><path fill="none" stroke="#000000" d="M 1011.5372183948864 184.04 L 1019.7059456676137 184.04" stroke-miterlimit="10"/></g><g transform="translate(-382,-30) scale(1,1)"><path fill="none" stroke="#000000" d="M 1015.62158203125 188.84 L 1009.9488547585228 196" stroke-miterlimit="10"/></g><g transform="translate(-382,-30) scale(1,1)"><path fill="none" stroke="#000000" d="M 1015.62158203125 188.84 L 1021.2943093039773 196" stroke-miterlimit="10"/></g><g transform="translate(-382,-30) scale(1,1)"><path fill="none" stroke="#000000" d="M 904 202 L 1032.62158203125 202" stroke-miterlimit="10"/></g><g transform="translate(-382,-30) scale(1,1)"><g><path fill="none" stroke="none"/><text fill="#000000" stroke="none" font-family="Arial" font-size="13px" font-style="normal" font-weight="bold" text-decoration="none" x="927.044921875" y="187.5">Institución</text></g></g><g transform="translate(-382,-30) scale(1,1)"><g><path fill="none" stroke="none"/><text fill="#000000" stroke="none" font-family="Arial" font-size="13px" font-style="normal" font-weight="normal" text-decoration="none" x="909" y="219.5">+razonSocial</text></g></g><g transform="translate(-382,-30) scale(1,1)"><g><path fill="none" stroke="none"/><text fill="#000000" stroke="none" font-family="Arial" font-size="13px" font-style="normal" font-weight="normal" text-decoration="none" x="909" y="234.5">+claveReniecyt</text></g></g><g transform="translate(-382,-30) scale(1,1)"><g><path fill="none" stroke="none"/><text fill="#000000" stroke="none" font-family="Arial" font-size="13px" font-style="normal" font-weight="normal" text-decoration="none" x="909" y="249.5">+domicilio: String</text></g></g><g transform="translate(-382,-30) scale(1,1)"><rect fill="#C0C0C0" stroke="none" x="399" y="135" width="104" height="44" opacity="0.2"/></g><g transform="translate(-382,-30) scale(1,1)"><rect fill="#ffffff" stroke="none" x="392" y="128" width="104" height="44"/></g><g transform="translate(-382,-30) scale(1,1)"><path fill="none" stroke="#000000" d="M 392 128 L 496 128 L 496 172 L 392 172 L 392 128 Z Z" stroke-miterlimit="10"/></g><g transform="translate(-382,-30) scale(1,1)"><g><path fill="none" stroke="none"/><text fill="#000000" stroke="none" font-family="Arial" font-size="13px" font-style="normal" font-weight="normal" text-decoration="none" x="410.7509765625" y="145.5">«Catálogo»</text></g></g><g transform="translate(-382,-30) scale(1,1)"><g><path fill="none" stroke="none"/><text fill="#000000" stroke="none" font-family="Arial" font-size="13px" font-style="normal" font-weight="bold" text-decoration="none" x="429.1845703125" y="160.5">Sexo</text></g></g><g transform="translate(-382,-30) scale(1,1)"><rect fill="#C0C0C0" stroke="none" x="911" y="87" width="128" height="50" opacity="0.2"/></g><g transform="translate(-382,-30) scale(1,1)"><rect fill="#ffffff" stroke="none" x="904" y="80" width="128" height="50"/></g><g transform="translate(-382,-30) scale(1,1)"><path fill="none" stroke="#000000" d="M 904 80 L 1032 80 L 1032 130 L 904 130 L 904 80 Z Z" stroke-miterlimit="10"/></g><g transform="translate(-382,-30) scale(1,1)"><g><path fill="none" stroke="none"/><text fill="#000000" stroke="none" font-family="Arial" font-size="13px" font-style="normal" font-weight="normal" text-decoration="none" x="934.7509765625" y="97.5">«Catálogo»</text></g></g><g transform="translate(-382,-30) scale(1,1)"><g><path fill="none" stroke="none"/><text fill="#000000" stroke="none" font-family="Arial" font-size="13px" font-style="normal" font-weight="bold" text-decoration="none" x="913.438720703125" y="112.5">Entidad Federativa</text></g></g><g transform="translate(-382,-30) scale(1,1)"><rect fill="#C0C0C0" stroke="none" x="399" y="71" width="104" height="44" opacity="0.2"/></g><g transform="translate(-382,-30) scale(1,1)"><rect fill="#ffffff" stroke="none" x="392" y="64" width="104" height="44"/></g><g transform="translate(-382,-30) scale(1,1)"><path fill="none" stroke="#000000" d="M 392 64 L 496 64 L 496 108 L 392 108 L 392 64 Z Z" stroke-miterlimit="10"/></g><g transform="translate(-382,-30) scale(1,1)"><g><path fill="none" stroke="none"/><text fill="#000000" stroke="none" font-family="Arial" font-size="13px" font-style="normal" font-weight="normal" text-decoration="none" x="410.7509765625" y="81.5">«Catálogo»</text></g></g><g transform="translate(-382,-30) scale(1,1)"><g><path fill="none" stroke="none"/><text fill="#000000" stroke="none" font-family="Arial" font-size="13px" font-style="normal" font-weight="bold" text-decoration="none" x="431.35546875" y="96.5">Pais</text></g></g><g transform="translate(-382,-30) scale(1,1)"><rect fill="#C0C0C0" stroke="none" x="399" y="207" width="104" height="50" opacity="0.2"/></g><g transform="translate(-382,-30) scale(1,1)"><rect fill="#ffffff" stroke="none" x="392" y="200" width="104" height="50"/></g><g transform="translate(-382,-30) scale(1,1)"><path fill="none" stroke="#000000" d="M 392 200 L 496 200 L 496 250 L 392 250 L 392 200 Z Z" stroke-miterlimit="10"/></g><g transform="translate(-382,-30) scale(1,1)"><g><path fill="none" stroke="none"/><text fill="#000000" stroke="none" font-family="Arial" font-size="13px" font-style="normal" font-weight="normal" text-decoration="none" x="410.7509765625" y="217.5">«Catálogo»</text></g></g><g transform="translate(-382,-30) scale(1,1)"><g><path fill="none" stroke="none"/><text fill="#000000" stroke="none" font-family="Arial" font-size="13px" font-style="normal" font-weight="bold" text-decoration="none" x="425.9345703125" y="232.5">Grado</text><text fill="#000000" stroke="none" font-family="Arial" font-size="13px" font-style="normal" font-weight="bold" text-decoration="none" x="411.845947265625" y="245.5">Academico</text></g></g><g transform="translate(-382,-30) scale(1,1)"><rect fill="#C0C0C0" stroke="none" x="655" y="335" width="75.498046875" height="60" opacity="0.2"/></g><g transform="translate(-382,-30) scale(1,1)"><rect fill="#ffffff" stroke="none" x="648" y="328" width="75.498046875" height="60"/></g><g transform="translate(-382,-30) scale(1,1)"><path fill="none" stroke="#000000" d="M 648 328 L 723.498046875 328 L 723.498046875 388 L 648 388 L 648 328 Z Z" stroke-miterlimit="10"/></g><g transform="translate(-382,-30) scale(1,1)"><path fill="none" stroke="#000000" d="M 648 353 L 723.498046875 353" stroke-miterlimit="10"/></g><g transform="translate(-382,-30) scale(1,1)"><g><path fill="none" stroke="none"/><text fill="#000000" stroke="none" font-family="Arial" font-size="13px" font-style="normal" font-weight="bold" text-decoration="none" x="659.384033203125" y="347.5">Domicilio</text></g></g><g transform="translate(-382,-30) scale(1,1)"><g><path fill="none" stroke="none"/><text fill="#000000" stroke="none" font-family="Arial" font-size="13px" font-style="normal" font-weight="normal" text-decoration="none" x="653" y="370.5">+dirección</text></g></g><g transform="translate(-382,-30) scale(1,1)"><rect fill="#C0C0C0" stroke="none" x="767" y="343" width="94.7060546875" height="44" opacity="0.2"/></g><g transform="translate(-382,-30) scale(1,1)"><rect fill="#ffffff" stroke="none" x="760" y="336" width="94.7060546875" height="44"/></g><g transform="translate(-382,-30) scale(1,1)"><path fill="none" stroke="#000000" d="M 760 336 L 854.7060546875 336 L 854.7060546875 380 L 760 380 L 760 336 Z Z" stroke-miterlimit="10"/></g><g transform="translate(-382,-30) scale(1,1)"><g><path fill="none" stroke="none"/><text fill="#000000" stroke="none" font-family="Arial" font-size="13px" font-style="normal" font-weight="normal" text-decoration="none" x="774.10400390625" y="353.5">«Catálogo»</text></g></g><g transform="translate(-382,-30) scale(1,1)"><g><path fill="none" stroke="none"/><text fill="#000000" stroke="none" font-family="Arial" font-size="13px" font-style="normal" font-weight="bold" text-decoration="none" x="768.584716796875" y="368.5">TipoDomicilio</text></g></g><g transform="translate(-382,-30) scale(1,1)"><path fill="none" stroke="#000000" d="M 723 357 L 760 357" stroke-miterlimit="10"/></g><g transform="translate(-382,-30) scale(1,1)"><path fill="none" stroke="#000000" d="M 749.8373251423759 361.209517756016 L 760 357 L 749.8373251423758 352.790482243984" stroke-miterlimit="10"/></g><g transform="translate(-382,-30) scale(1,1)"><path fill="none" stroke="#000000" d="M 796 99 L 904 99" stroke-miterlimit="10"/></g><g transform="translate(-382,-30) scale(1,1)"><path fill="none" stroke="#000000" d="M 893.8373251423759 103.20951775601598 L 904 99 L 893.8373251423758 94.79048224398402" stroke-miterlimit="10"/></g><g transform="translate(-382,-30) scale(1,1)"><g><path fill="none" stroke="none"/><text fill="#000000" stroke="none" font-family="Arial" font-size="13px" font-style="normal" font-weight="normal" text-decoration="none" x="813.5" y="117.5">1</text></g></g><g transform="translate(-382,-30) scale(1,1)"><path fill="none" stroke="#000000" d="M 952 168 L 952 130" stroke-miterlimit="10"/></g><g transform="translate(-382,-30) scale(1,1)"><path fill="none" stroke="#000000" d="M 956.209517756016 140.16267485762415 L 952 130 L 947.790482243984 140.16267485762415" stroke-miterlimit="10"/></g><g transform="translate(-382,-30) scale(1,1)"><g><path fill="none" stroke="none"/><text fill="#000000" stroke="none" font-family="Arial" font-size="13px" font-style="normal" font-weight="normal" text-decoration="none" x="960.5" y="152.5">1</text></g></g><g transform="translate(-382,-30) scale(1,1)"><path fill="none" stroke="#000000" d="M 584 88 L 496 88" stroke-miterlimit="10"/></g><g transform="translate(-382,-30) scale(1,1)"><path fill="none" stroke="#000000" d="M 506.16267485762415 83.79048224398402 L 496 88 L 506.16267485762415 92.20951775601598" stroke-miterlimit="10"/></g><g transform="translate(-382,-30) scale(1,1)"><g><path fill="none" stroke="none"/><text fill="#000000" stroke="none" font-family="Arial" font-size="13px" font-style="normal" font-weight="normal" text-decoration="none" x="515.93359375" y="107.5">+pais de</text><text fill="#000000" stroke="none" font-family="Arial" font-size="13px" font-style="normal" font-weight="normal" text-decoration="none" x="511.061767578125" y="120.5">recidencia</text></g></g><g transform="translate(-382,-30) scale(1,1)"><g><path fill="none" stroke="none"/><text fill="#000000" stroke="none" font-family="Arial" font-size="13px" font-style="normal" font-weight="normal" text-decoration="none" x="513.5" y="81.5">1</text></g></g><g transform="translate(-382,-30) scale(1,1)"><path fill="none" stroke="#000000" d="M 584 225 L 496 225" stroke-miterlimit="10"/></g><g transform="translate(-382,-30) scale(1,1)"><path fill="none" stroke="#000000" d="M 506.16267485762415 220.790482243984 L 496 225 L 506.16267485762415 229.209517756016" stroke-miterlimit="10"/></g><g transform="translate(-382,-30) scale(1,1)"><g><path fill="none" stroke="none"/><text fill="#000000" stroke="none" font-family="Arial" font-size="13px" font-style="normal" font-weight="normal" text-decoration="none" x="513.5" y="218.5">1</text></g></g><g transform="translate(-382,-30) scale(1,1)"><path fill="none" stroke="#000000" d="M 584 152 L 496 152" stroke-miterlimit="10"/></g><g transform="translate(-382,-30) scale(1,1)"><path fill="none" stroke="#000000" d="M 506.16267485762415 147.790482243984 L 496 152 L 506.16267485762415 156.209517756016" stroke-miterlimit="10"/></g><g transform="translate(-382,-30) scale(1,1)"><g><path fill="none" stroke="none"/><text fill="#000000" stroke="none" font-family="Arial" font-size="13px" font-style="normal" font-weight="normal" text-decoration="none" x="513.5" y="145.5">1</text></g></g><g transform="translate(-382,-30) scale(1,1)"><path fill="none" stroke="#000000" d="M 680 276 L 680 328" stroke-miterlimit="10"/></g><g transform="translate(-382,-30) scale(1,1)"><path fill="none" stroke="#000000" d="M 675.790482243984 317.83732514237585 L 680 328 L 684.209517756016 317.83732514237585" stroke-miterlimit="10"/></g><g transform="translate(-382,-30) scale(1,1)"><g><path fill="none" stroke="none"/><text fill="#000000" stroke="none" font-family="Arial" font-size="13px" font-style="normal" font-weight="normal" text-decoration="none" x="657.5" y="312.5">1..*</text></g></g><g transform="translate(-382,-30) scale(1,1)"><path fill="none" stroke="#000000" d="M 904 216 L 796 216" stroke-miterlimit="10"/></g><g transform="translate(-382,-30) scale(1,1)"><path fill="none" stroke="#000000" d="M 806.1626748576241 211.790482243984 L 796 216 L 806.1626748576241 220.209517756016" stroke-miterlimit="10"/></g><g transform="translate(-382,-30) scale(1,1)"><g><path fill="none" stroke="none"/><text fill="#000000" stroke="none" font-family="Arial" font-size="13px" font-style="normal" font-weight="normal" text-decoration="none" x="806.09326171875" y="234.5">+representante</text><text fill="#000000" stroke="none" font-family="Arial" font-size="13px" font-style="normal" font-weight="normal" text-decoration="none" x="834.095947265625" y="247.5">Legal</text></g></g><g transform="translate(-382,-30) scale(1,1)"><g><path fill="none" stroke="none"/><text fill="#000000" stroke="none" font-family="Arial" font-size="13px" font-style="normal" font-weight="normal" text-decoration="none" x="813.5" y="209.5">1</text></g></g></g></svg>