<svg version="1.1" xmlns="http://www.w3.org/2000/svg" xmlns:xlink="http://www.w3.org/1999/xlink" width="436" height="181"><defs/><g><text fill="#eeeeee" stroke="none" font-family="Arial" font-size="24px" font-style="normal" font-weight="normal" text-decoration="none" x="0" y="0">UNREGISTERED</text><text fill="#eeeeee" stroke="none" font-family="Arial" font-size="24px" font-style="normal" font-weight="normal" text-decoration="none" x="0" y="30">UNREGISTERED</text><text fill="#eeeeee" stroke="none" font-family="Arial" font-size="24px" font-style="normal" font-weight="normal" text-decoration="none" x="0" y="60">UNREGISTERED</text><text fill="#eeeeee" stroke="none" font-family="Arial" font-size="24px" font-style="normal" font-weight="normal" text-decoration="none" x="0" y="90">UNREGISTERED</text><text fill="#eeeeee" stroke="none" font-family="Arial" font-size="24px" font-style="normal" font-weight="normal" text-decoration="none" x="0" y="120">UNREGISTERED</text><text fill="#eeeeee" stroke="none" font-family="Arial" font-size="24px" font-style="normal" font-weight="normal" text-decoration="none" x="0" y="150">UNREGISTERED</text><text fill="#eeeeee" stroke="none" font-family="Arial" font-size="24px" font-style="normal" font-weight="normal" text-decoration="none" x="0" y="180">UNREGISTERED</text><text fill="#eeeeee" stroke="none" font-family="Arial" font-size="24px" font-style="normal" font-weight="normal" text-decoration="none" x="200" y="0">UNREGISTERED</text><text fill="#eeeeee" stroke="none" font-family="Arial" font-size="24px" font-style="normal" font-weight="normal" text-decoration="none" x="200" y="30">UNREGISTERED</text><text fill="#eeeeee" stroke="none" font-family="Arial" font-size="24px" font-style="normal" font-weight="normal" text-decoration="none" x="200" y="60">UNREGISTERED</text><text fill="#eeeeee" stroke="none" font-family="Arial" font-size="24px" font-style="normal" font-weight="normal" text-decoration="none" x="200" y="90">UNREGISTERED</text><text fill="#eeeeee" stroke="none" font-family="Arial" font-size="24px" font-style="normal" font-weight="normal" text-decoration="none" x="200" y="120">UNREGISTERED</text><text fill="#eeeeee" stroke="none" font-family="Arial" font-size="24px" font-style="normal" font-weight="normal" text-decoration="none" x="200" y="150">UNREGISTERED</text><text fill="#eeeeee" stroke="none" font-family="Arial" font-size="24px" font-style="normal" font-weight="normal" text-decoration="none" x="200" y="180">UNREGISTERED</text><text fill="#eeeeee" stroke="none" font-family="Arial" font-size="24px" font-style="normal" font-weight="normal" text-decoration="none" x="400" y="0">UNREGISTERED</text><text fill="#eeeeee" stroke="none" font-family="Arial" font-size="24px" font-style="normal" font-weight="normal" text-decoration="none" x="400" y="30">UNREGISTERED</text><text fill="#eeeeee" stroke="none" font-family="Arial" font-size="24px" font-style="normal" font-weight="normal" text-decoration="none" x="400" y="60">UNREGISTERED</text><text fill="#eeeeee" stroke="none" font-family="Arial" font-size="24px" font-style="normal" font-weight="normal" text-decoration="none" x="400" y="90">UNREGISTERED</text><text fill="#eeeeee" stroke="none" font-family="Arial" font-size="24px" font-style="normal" font-weight="normal" text-decoration="none" x="400" y="120">UNREGISTERED</text><text fill="#eeeeee" stroke="none" font-family="Arial" font-size="24px" font-style="normal" font-weight="normal" text-decoration="none" x="400" y="150">UNREGISTERED</text><text fill="#eeeeee" stroke="none" font-family="Arial" font-size="24px" font-style="normal" font-weight="normal" text-decoration="none" x="400" y="180">UNREGISTERED</text><g transform="translate(-574,-326) scale(1,1)"><rect fill="#C0C0C0" stroke="none" x="591" y="343" width="162.5498046875" height="161" opacity="0.2"/></g><g transform="translate(-574,-326) scale(1,1)"><rect fill="#ffffff" stroke="none" x="584" y="336" width="162.5498046875" height="161"/></g><g transform="translate(-574,-326) scale(1,1)"><path fill="none" stroke="#000000" d="M 584 336 L 746.5498046875 336 L 746.5498046875 497 L 584 497 L 584 336 Z Z" stroke-miterlimit="10"/></g><g transform="translate(-574,-326) scale(1,1)"><path fill="#ffffff" stroke="none" d="M 725.6923501420455 345.58000000000004 C 725.6923501420455 343.60282041600004 727.4193911753546 342 729.5498046875 342 C 731.6802181996454 342 733.4072592329546 343.60282041600004 733.4072592329546 345.58000000000004 C 733.4072592329546 347.55717958400004 731.6802181996454 349.16 729.5498046875 349.16 C 727.4193911753546 349.16 725.6923501420455 347.55717958400004 725.6923501420455 345.58000000000004 Z"/></g><g transform="translate(-574,-326) scale(1,1)"><path fill="none" stroke="#000000" d="M 725.6923501420455 345.58000000000004 C 725.6923501420455 343.60282041600004 727.4193911753546 342 729.5498046875 342 C 731.6802181996454 342 733.4072592329546 343.60282041600004 733.4072592329546 345.58000000000004 C 733.4072592329546 347.55717958400004 731.6802181996454 349.16 729.5498046875 349.16 C 727.4193911753546 349.16 725.6923501420455 347.55717958400004 725.6923501420455 345.58000000000004 Z" stroke-miterlimit="10"/></g><g transform="translate(-574,-326) scale(1,1)"><path fill="none" stroke="#000000" d="M 729.5498046875 349.16 L 729.5498046875 356.84" stroke-miterlimit="10"/></g><g transform="translate(-574,-326) scale(1,1)"><path fill="none" stroke="#000000" d="M 725.4654410511364 352.04 L 733.6341683238637 352.04" stroke-miterlimit="10"/></g><g transform="translate(-574,-326) scale(1,1)"><path fill="none" stroke="#000000" d="M 729.5498046875 356.84 L 723.8770774147728 364" stroke-miterlimit="10"/></g><g transform="translate(-574,-326) scale(1,1)"><path fill="none" stroke="#000000" d="M 729.5498046875 356.84 L 735.2225319602273 364" stroke-miterlimit="10"/></g><g transform="translate(-574,-326) scale(1,1)"><path fill="none" stroke="#000000" d="M 584 370 L 746.5498046875 370" stroke-miterlimit="10"/></g><g transform="translate(-574,-326) scale(1,1)"><g><path fill="none" stroke="none"/><text fill="#000000" stroke="none" font-family="Arial" font-size="13px" font-style="normal" font-weight="bold" text-decoration="none" x="609.923583984375" y="355.5">Persona Física</text></g></g><g transform="translate(-574,-326) scale(1,1)"><g><path fill="none" stroke="none"/><text fill="#000000" stroke="none" font-family="Arial" font-size="13px" font-style="normal" font-weight="normal" text-decoration="none" x="589" y="387.5">+Nombre</text></g></g><g transform="translate(-574,-326) scale(1,1)"><g><path fill="none" stroke="none"/><text fill="#000000" stroke="none" font-family="Arial" font-size="13px" font-style="normal" font-weight="normal" text-decoration="none" x="589" y="402.5">+rfc</text></g></g><g transform="translate(-574,-326) scale(1,1)"><g><path fill="none" stroke="none"/><text fill="#000000" stroke="none" font-family="Arial" font-size="13px" font-style="normal" font-weight="normal" text-decoration="none" x="589" y="417.5">+sexo</text></g></g><g transform="translate(-574,-326) scale(1,1)"><g><path fill="none" stroke="none"/><text fill="#000000" stroke="none" font-family="Arial" font-size="13px" font-style="normal" font-weight="normal" text-decoration="none" x="589" y="432.5">+correo</text></g></g><g transform="translate(-574,-326) scale(1,1)"><g><path fill="none" stroke="none"/><text fill="#000000" stroke="none" font-family="Arial" font-size="13px" font-style="normal" font-weight="normal" text-decoration="none" x="589" y="447.5">+gradoAcadémico</text></g></g><g transform="translate(-574,-326) scale(1,1)"><g><path fill="none" stroke="none"/><text fill="#000000" stroke="none" font-family="Arial" font-size="13px" font-style="normal" font-weight="normal" text-decoration="none" x="589" y="462.5">+nivelSNI</text></g></g><g transform="translate(-574,-326) scale(1,1)"><g><path fill="none" stroke="none"/><text fill="#000000" stroke="none" font-family="Arial" font-size="13px" font-style="normal" font-weight="normal" text-decoration="none" x="589" y="477.5">+institución: PersonaMoral</text></g></g><g transform="translate(-574,-326) scale(1,1)"><g><path fill="none" stroke="none"/><text fill="#000000" stroke="none" font-family="Arial" font-size="13px" font-style="normal" font-weight="normal" text-decoration="none" x="589" y="492.5">+domicilio</text></g></g><g transform="translate(-574,-326) scale(1,1)"><rect fill="#C0C0C0" stroke="none" x="879" y="343" width="128" height="136" opacity="0.2"/></g><g transform="translate(-574,-326) scale(1,1)"><rect fill="#ffffff" stroke="none" x="872" y="336" width="128" height="136"/></g><g transform="translate(-574,-326) scale(1,1)"><path fill="none" stroke="#000000" d="M 872 336 L 1000 336 L 1000 472 L 872 472 L 872 336 Z Z" stroke-miterlimit="10"/></g><g transform="translate(-574,-326) scale(1,1)"><path fill="#ffffff" stroke="none" d="M 979.1425454545455 345.58000000000004 C 979.1425454545455 343.60282041600004 980.8695864878546 342 983 342 C 985.1304135121454 342 986.8574545454546 343.60282041600004 986.8574545454546 345.58000000000004 C 986.8574545454546 347.55717958400004 985.1304135121454 349.16 983 349.16 C 980.8695864878546 349.16 979.1425454545455 347.55717958400004 979.1425454545455 345.58000000000004 Z"/></g><g transform="translate(-574,-326) scale(1,1)"><path fill="none" stroke="#000000" d="M 979.1425454545455 345.58000000000004 C 979.1425454545455 343.60282041600004 980.8695864878546 342 983 342 C 985.1304135121454 342 986.8574545454546 343.60282041600004 986.8574545454546 345.58000000000004 C 986.8574545454546 347.55717958400004 985.1304135121454 349.16 983 349.16 C 980.8695864878546 349.16 979.1425454545455 347.55717958400004 979.1425454545455 345.58000000000004 Z" stroke-miterlimit="10"/></g><g transform="translate(-574,-326) scale(1,1)"><path fill="none" stroke="#000000" d="M 983 349.16 L 983 356.84" stroke-miterlimit="10"/></g><g transform="translate(-574,-326) scale(1,1)"><path fill="none" stroke="#000000" d="M 978.9156363636364 352.04 L 987.0843636363637 352.04" stroke-miterlimit="10"/></g><g transform="translate(-574,-326) scale(1,1)"><path fill="none" stroke="#000000" d="M 983 356.84 L 977.3272727272728 364" stroke-miterlimit="10"/></g><g transform="translate(-574,-326) scale(1,1)"><path fill="none" stroke="#000000" d="M 983 356.84 L 988.6727272727273 364" stroke-miterlimit="10"/></g><g transform="translate(-574,-326) scale(1,1)"><path fill="none" stroke="#000000" d="M 872 370 L 1000 370" stroke-miterlimit="10"/></g><g transform="translate(-574,-326) scale(1,1)"><g><path fill="none" stroke="none"/><text fill="#000000" stroke="none" font-family="Arial" font-size="13px" font-style="normal" font-weight="bold" text-decoration="none" x="881.73095703125" y="355.5">Persona Moral</text></g></g><g transform="translate(-574,-326) scale(1,1)"><g><path fill="none" stroke="none"/><text fill="#000000" stroke="none" font-family="Arial" font-size="13px" font-style="normal" font-weight="normal" text-decoration="none" x="877" y="387.5">+razonSocial</text></g></g><g transform="translate(-574,-326) scale(1,1)"><g><path fill="none" stroke="none"/><text fill="#000000" stroke="none" font-family="Arial" font-size="13px" font-style="normal" font-weight="normal" text-decoration="none" x="877" y="402.5">+reniecyt</text></g></g></g></svg>