<svg version="1.1" xmlns="http://www.w3.org/2000/svg" xmlns:xlink="http://www.w3.org/1999/xlink" width="660.62158203125" height="368"><defs/><g><text fill="#eeeeee" stroke="none" font-family="Arial" font-size="24px" font-style="normal" font-weight="normal" text-decoration="none" x="0" y="0">UNREGISTERED</text><text fill="#eeeeee" stroke="none" font-family="Arial" font-size="24px" font-style="normal" font-weight="normal" text-decoration="none" x="0" y="30">UNREGISTERED</text><text fill="#eeeeee" stroke="none" font-family="Arial" font-size="24px" font-style="normal" font-weight="normal" text-decoration="none" x="0" y="60">UNREGISTERED</text><text fill="#eeeeee" stroke="none" font-family="Arial" font-size="24px" font-style="normal" font-weight="normal" text-decoration="none" x="0" y="90">UNREGISTERED</text><text fill="#eeeeee" stroke="none" font-family="Arial" font-size="24px" font-style="normal" font-weight="normal" text-decoration="none" x="0" y="120">UNREGISTERED</text><text fill="#eeeeee" stroke="none" font-family="Arial" font-size="24px" font-style="normal" font-weight="normal" text-decoration="none" x="0" y="150">UNREGISTERED</text><text fill="#eeeeee" stroke="none" font-family="Arial" font-size="24px" font-style="normal" font-weight="normal" text-decoration="none" x="0" y="180">UNREGISTERED</text><text fill="#eeeeee" stroke="none" font-family="Arial" font-size="24px" font-style="normal" font-weight="normal" text-decoration="none" x="0" y="210">UNREGISTERED</text><text fill="#eeeeee" stroke="none" font-family="Arial" font-size="24px" font-style="normal" font-weight="normal" text-decoration="none" x="0" y="240">UNREGISTERED</text><text fill="#eeeeee" stroke="none" font-family="Arial" font-size="24px" font-style="normal" font-weight="normal" text-decoration="none" x="0" y="270">UNREGISTERED</text><text fill="#eeeeee" stroke="none" font-family="Arial" font-size="24px" font-style="normal" font-weight="normal" text-decoration="none" x="0" y="300">UNREGISTERED</text><text fill="#eeeeee" stroke="none" font-family="Arial" font-size="24px" font-style="normal" font-weight="normal" text-decoration="none" x="0" y="330">UNREGISTERED</text><text fill="#eeeeee" stroke="none" font-family="Arial" font-size="24px" font-style="normal" font-weight="normal" text-decoration="none" x="0" y="360">UNREGISTERED</text><text fill="#eeeeee" stroke="none" font-family="Arial" font-size="24px" font-style="normal" font-weight="normal" text-decoration="none" x="200" y="0">UNREGISTERED</text><text fill="#eeeeee" stroke="none" font-family="Arial" font-size="24px" font-style="normal" font-weight="normal" text-decoration="none" x="200" y="30">UNREGISTERED</text><text fill="#eeeeee" stroke="none" font-family="Arial" font-size="24px" font-style="normal" font-weight="normal" text-decoration="none" x="200" y="60">UNREGISTERED</text><text fill="#eeeeee" stroke="none" font-family="Arial" font-size="24px" font-style="normal" font-weight="normal" text-decoration="none" x="200" y="90">UNREGISTERED</text><text fill="#eeeeee" stroke="none" font-family="Arial" font-size="24px" font-style="normal" font-weight="normal" text-decoration="none" x="200" y="120">UNREGISTERED</text><text fill="#eeeeee" stroke="none" font-family="Arial" font-size="24px" font-style="normal" font-weight="normal" text-decoration="none" x="200" y="150">UNREGISTERED</text><text fill="#eeeeee" stroke="none" font-family="Arial" font-size="24px" font-style="normal" font-weight="normal" text-decoration="none" x="200" y="180">UNREGISTERED</text><text fill="#eeeeee" stroke="none" font-family="Arial" font-size="24px" font-style="normal" font-weight="normal" text-decoration="none" x="200" y="210">UNREGISTERED</text><text fill="#eeeeee" stroke="none" font-family="Arial" font-size="24px" font-style="normal" font-weight="normal" text-decoration="none" x="200" y="240">UNREGISTERED</text><text fill="#eeeeee" stroke="none" font-family="Arial" font-size="24px" font-style="normal" font-weight="normal" text-decoration="none" x="200" y="270">UNREGISTERED</text><text fill="#eeeeee" stroke="none" font-family="Arial" font-size="24px" font-style="normal" font-weight="normal" text-decoration="none" x="200" y="300">UNREGISTERED</text><text fill="#eeeeee" stroke="none" font-family="Arial" font-size="24px" font-style="normal" font-weight="normal" text-decoration="none" x="200" y="330">UNREGISTERED</text><text fill="#eeeeee" stroke="none" font-family="Arial" font-size="24px" font-style="normal" font-weight="normal" text-decoration="none" x="200" y="360">UNREGISTERED</text><text fill="#eeeeee" stroke="none" font-family="Arial" font-size="24px" font-style="normal" font-weight="normal" text-decoration="none" x="400" y="0">UNREGISTERED</text><text fill="#eeeeee" stroke="none" font-family="Arial" font-size="24px" font-style="normal" font-weight="normal" text-decoration="none" x="400" y="30">UNREGISTERED</text><text fill="#eeeeee" stroke="none" font-family="Arial" font-size="24px" font-style="normal" font-weight="normal" text-decoration="none" x="400" y="60">UNREGISTERED</text><text fill="#eeeeee" stroke="none" font-family="Arial" font-size="24px" font-style="normal" font-weight="normal" text-decoration="none" x="400" y="90">UNREGISTERED</text><text fill="#eeeeee" stroke="none" font-family="Arial" font-size="24px" font-style="normal" font-weight="normal" text-decoration="none" x="400" y="120">UNREGISTERED</text><text fill="#eeeeee" stroke="none" font-family="Arial" font-size="24px" font-style="normal" font-weight="normal" text-decoration="none" x="400" y="150">UNREGISTERED</text><text fill="#eeeeee" stroke="none" font-family="Arial" font-size="24px" font-style="normal" font-weight="normal" text-decoration="none" x="400" y="180">UNREGISTERED</text><text fill="#eeeeee" stroke="none" font-family="Arial" font-size="24px" font-style="normal" font-weight="normal" text-decoration="none" x="400" y="210">UNREGISTERED</text><text fill="#eeeeee" stroke="none" font-family="Arial" font-size="24px" font-style="normal" font-weight="normal" text-decoration="none" x="400" y="240">UNREGISTERED</text><text fill="#eeeeee" stroke="none" font-family="Arial" font-size="24px" font-style="normal" font-weight="normal" text-decoration="none" x="400" y="270">UNREGISTERED</text><text fill="#eeeeee" stroke="none" font-family="Arial" font-size="24px" font-style="normal" font-weight="normal" text-decoration="none" x="400" y="300">UNREGISTERED</text><text fill="#eeeeee" stroke="none" font-family="Arial" font-size="24px" font-style="normal" font-weight="normal" text-decoration="none" x="400" y="330">UNREGISTERED</text><text fill="#eeeeee" stroke="none" font-family="Arial" font-size="24px" font-style="normal" font-weight="normal" text-decoration="none" x="400" y="360">UNREGISTERED</text><text fill="#eeeeee" stroke="none" font-family="Arial" font-size="24px" font-style="normal" font-weight="normal" text-decoration="none" x="600" y="0">UNREGISTERED</text><text fill="#eeeeee" stroke="none" font-family="Arial" font-size="24px" font-style="normal" font-weight="normal" text-decoration="none" x="600" y="30">UNREGISTERED</text><text fill="#eeeeee" stroke="none" font-family="Arial" font-size="24px" font-style="normal" font-weight="normal" text-decoration="none" x="600" y="60">UNREGISTERED</text><text fill="#eeeeee" stroke="none" font-family="Arial" font-size="24px" font-style="normal" font-weight="normal" text-decoration="none" x="600" y="90">UNREGISTERED</text><text fill="#eeeeee" stroke="none" font-family="Arial" font-size="24px" font-style="normal" font-weight="normal" text-decoration="none" x="600" y="120">UNREGISTERED</text><text fill="#eeeeee" stroke="none" font-family="Arial" font-size="24px" font-style="normal" font-weight="normal" text-decoration="none" x="600" y="150">UNREGISTERED</text><text fill="#eeeeee" stroke="none" font-family="Arial" font-size="24px" font-style="normal" font-weight="normal" text-decoration="none" x="600" y="180">UNREGISTERED</text><text fill="#eeeeee" stroke="none" font-family="Arial" font-size="24px" font-style="normal" font-weight="normal" text-decoration="none" x="600" y="210">UNREGISTERED</text><text fill="#eeeeee" stroke="none" font-family="Arial" font-size="24px" font-style="normal" font-weight="normal" text-decoration="none" x="600" y="240">UNREGISTERED</text><text fill="#eeeeee" stroke="none" font-family="Arial" font-size="24px" font-style="normal" font-weight="normal" text-decoration="none" x="600" y="270">UNREGISTERED</text><text fill="#eeeeee" stroke="none" font-family="Arial" font-size="24px" font-style="normal" font-weight="normal" text-decoration="none" x="600" y="300">UNREGISTERED</text><text fill="#eeeeee" stroke="none" font-family="Arial" font-size="24px" font-style="normal" font-weight="normal" text-decoration="none" x="600" y="330">UNREGISTERED</text><text fill="#eeeeee" stroke="none" font-family="Arial" font-size="24px" font-style="normal" font-weight="normal" text-decoration="none" x="600" y="360">UNREGISTERED</text><g transform="translate(-390,-110) scale(1,1)"><rect fill="#C0C0C0" stroke="none" x="599" y="127" width="211.693359375" height="236" opacity="0.2"/></g><g transform="translate(-390,-110) scale(1,1)"><rect fill="#ffffff" stroke="none" x="592" y="120" width="211.693359375" height="236"/></g><g transform="translate(-390,-110) scale(1,1)"><path fill="none" stroke="#000000" d="M 592 120 L 803.693359375 120 L 803.693359375 356 L 592 356 L 592 120 Z Z" stroke-miterlimit="10"/></g><g transform="translate(-390,-110) scale(1,1)"><path fill="#ffffff" stroke="none" d="M 782.8359048295455 129.57999999999998 C 782.8359048295455 127.60282041599999 784.5629458628546 126 786.693359375 126 C 788.8237728871454 126 790.5508139204546 127.60282041599999 790.5508139204546 129.57999999999998 C 790.5508139204546 131.55717958399998 788.8237728871454 133.16 786.693359375 133.16 C 784.5629458628546 133.16 782.8359048295455 131.55717958399998 782.8359048295455 129.57999999999998 Z"/></g><g transform="translate(-390,-110) scale(1,1)"><path fill="none" stroke="#000000" d="M 782.8359048295455 129.57999999999998 C 782.8359048295455 127.60282041599999 784.5629458628546 126 786.693359375 126 C 788.8237728871454 126 790.5508139204546 127.60282041599999 790.5508139204546 129.57999999999998 C 790.5508139204546 131.55717958399998 788.8237728871454 133.16 786.693359375 133.16 C 784.5629458628546 133.16 782.8359048295455 131.55717958399998 782.8359048295455 129.57999999999998 Z" stroke-miterlimit="10"/></g><g transform="translate(-390,-110) scale(1,1)"><path fill="none" stroke="#000000" d="M 786.693359375 133.16 L 786.693359375 140.84" stroke-miterlimit="10"/></g><g transform="translate(-390,-110) scale(1,1)"><path fill="none" stroke="#000000" d="M 782.6089957386364 136.04 L 790.7777230113637 136.04" stroke-miterlimit="10"/></g><g transform="translate(-390,-110) scale(1,1)"><path fill="none" stroke="#000000" d="M 786.693359375 140.84 L 781.0206321022728 148" stroke-miterlimit="10"/></g><g transform="translate(-390,-110) scale(1,1)"><path fill="none" stroke="#000000" d="M 786.693359375 140.84 L 792.3660866477273 148" stroke-miterlimit="10"/></g><g transform="translate(-390,-110) scale(1,1)"><g><path fill="none" stroke="none"/><text fill="#000000" stroke="none" font-family="Arial" font-size="13px" font-style="normal" font-weight="bold" text-decoration="none" x="642.495361328125" y="139.5">Persona Física</text></g></g><g transform="translate(-390,-110) scale(1,1)"><rect fill="#C0C0C0" stroke="none" x="919" y="255" width="128.62158203125" height="96" opacity="0.2"/></g><g transform="translate(-390,-110) scale(1,1)"><rect fill="#ffffff" stroke="none" x="912" y="248" width="128.62158203125" height="96"/></g><g transform="translate(-390,-110) scale(1,1)"><path fill="none" stroke="#000000" d="M 912 248 L 1040.62158203125 248 L 1040.62158203125 344 L 912 344 L 912 248 Z Z" stroke-miterlimit="10"/></g><g transform="translate(-390,-110) scale(1,1)"><path fill="#ffffff" stroke="none" d="M 1019.7641274857955 257.58000000000004 C 1019.7641274857955 255.60282041600004 1021.4911685191046 254 1023.62158203125 254 C 1025.7519955433954 254 1027.4790365767046 255.60282041600004 1027.4790365767046 257.58000000000004 C 1027.4790365767046 259.55717958400004 1025.7519955433954 261.16 1023.62158203125 261.16 C 1021.4911685191046 261.16 1019.7641274857955 259.55717958400004 1019.7641274857955 257.58000000000004 Z"/></g><g transform="translate(-390,-110) scale(1,1)"><path fill="none" stroke="#000000" d="M 1019.7641274857955 257.58000000000004 C 1019.7641274857955 255.60282041600004 1021.4911685191046 254 1023.62158203125 254 C 1025.7519955433954 254 1027.4790365767046 255.60282041600004 1027.4790365767046 257.58000000000004 C 1027.4790365767046 259.55717958400004 1025.7519955433954 261.16 1023.62158203125 261.16 C 1021.4911685191046 261.16 1019.7641274857955 259.55717958400004 1019.7641274857955 257.58000000000004 Z" stroke-miterlimit="10"/></g><g transform="translate(-390,-110) scale(1,1)"><path fill="none" stroke="#000000" d="M 1023.62158203125 261.16 L 1023.62158203125 268.84" stroke-miterlimit="10"/></g><g transform="translate(-390,-110) scale(1,1)"><path fill="none" stroke="#000000" d="M 1019.5372183948864 264.04 L 1027.7059456676136 264.04" stroke-miterlimit="10"/></g><g transform="translate(-390,-110) scale(1,1)"><path fill="none" stroke="#000000" d="M 1023.62158203125 268.84 L 1017.9488547585228 276" stroke-miterlimit="10"/></g><g transform="translate(-390,-110) scale(1,1)"><path fill="none" stroke="#000000" d="M 1023.62158203125 268.84 L 1029.2943093039773 276" stroke-miterlimit="10"/></g><g transform="translate(-390,-110) scale(1,1)"><g><path fill="none" stroke="none"/><text fill="#000000" stroke="none" font-family="Arial" font-size="13px" font-style="normal" font-weight="bold" text-decoration="none" x="935.044921875" y="267.5">Institución</text></g></g><g transform="translate(-390,-110) scale(1,1)"><rect fill="#C0C0C0" stroke="none" x="407" y="215" width="104" height="44" opacity="0.2"/></g><g transform="translate(-390,-110) scale(1,1)"><rect fill="#ffffff" stroke="none" x="400" y="208" width="104" height="44"/></g><g transform="translate(-390,-110) scale(1,1)"><path fill="none" stroke="#000000" d="M 400 208 L 504 208 L 504 252 L 400 252 L 400 208 Z Z" stroke-miterlimit="10"/></g><g transform="translate(-390,-110) scale(1,1)"><g><path fill="none" stroke="none"/><text fill="#000000" stroke="none" font-family="Arial" font-size="13px" font-style="normal" font-weight="normal" text-decoration="none" x="418.7509765625" y="225.5">«Catálogo»</text></g></g><g transform="translate(-390,-110) scale(1,1)"><g><path fill="none" stroke="none"/><text fill="#000000" stroke="none" font-family="Arial" font-size="13px" font-style="normal" font-weight="bold" text-decoration="none" x="437.1845703125" y="240.5">Sexo</text></g></g><g transform="translate(-390,-110) scale(1,1)"><rect fill="#C0C0C0" stroke="none" x="919" y="167" width="128" height="50" opacity="0.2"/></g><g transform="translate(-390,-110) scale(1,1)"><rect fill="#ffffff" stroke="none" x="912" y="160" width="128" height="50"/></g><g transform="translate(-390,-110) scale(1,1)"><path fill="none" stroke="#000000" d="M 912 160 L 1040 160 L 1040 210 L 912 210 L 912 160 Z Z" stroke-miterlimit="10"/></g><g transform="translate(-390,-110) scale(1,1)"><g><path fill="none" stroke="none"/><text fill="#000000" stroke="none" font-family="Arial" font-size="13px" font-style="normal" font-weight="normal" text-decoration="none" x="942.7509765625" y="177.5">«Catálogo»</text></g></g><g transform="translate(-390,-110) scale(1,1)"><g><path fill="none" stroke="none"/><text fill="#000000" stroke="none" font-family="Arial" font-size="13px" font-style="normal" font-weight="bold" text-decoration="none" x="921.438720703125" y="192.5">Entidad Federativa</text></g></g><g transform="translate(-390,-110) scale(1,1)"><rect fill="#C0C0C0" stroke="none" x="407" y="151" width="104" height="44" opacity="0.2"/></g><g transform="translate(-390,-110) scale(1,1)"><rect fill="#ffffff" stroke="none" x="400" y="144" width="104" height="44"/></g><g transform="translate(-390,-110) scale(1,1)"><path fill="none" stroke="#000000" d="M 400 144 L 504 144 L 504 188 L 400 188 L 400 144 Z Z" stroke-miterlimit="10"/></g><g transform="translate(-390,-110) scale(1,1)"><g><path fill="none" stroke="none"/><text fill="#000000" stroke="none" font-family="Arial" font-size="13px" font-style="normal" font-weight="normal" text-decoration="none" x="418.7509765625" y="161.5">«Catálogo»</text></g></g><g transform="translate(-390,-110) scale(1,1)"><g><path fill="none" stroke="none"/><text fill="#000000" stroke="none" font-family="Arial" font-size="13px" font-style="normal" font-weight="bold" text-decoration="none" x="439.35546875" y="176.5">Pais</text></g></g><g transform="translate(-390,-110) scale(1,1)"><rect fill="#C0C0C0" stroke="none" x="407" y="287" width="104" height="50" opacity="0.2"/></g><g transform="translate(-390,-110) scale(1,1)"><rect fill="#ffffff" stroke="none" x="400" y="280" width="104" height="50"/></g><g transform="translate(-390,-110) scale(1,1)"><path fill="none" stroke="#000000" d="M 400 280 L 504 280 L 504 330 L 400 330 L 400 280 Z Z" stroke-miterlimit="10"/></g><g transform="translate(-390,-110) scale(1,1)"><g><path fill="none" stroke="none"/><text fill="#000000" stroke="none" font-family="Arial" font-size="13px" font-style="normal" font-weight="normal" text-decoration="none" x="418.7509765625" y="297.5">«Catálogo»</text></g></g><g transform="translate(-390,-110) scale(1,1)"><g><path fill="none" stroke="none"/><text fill="#000000" stroke="none" font-family="Arial" font-size="13px" font-style="normal" font-weight="bold" text-decoration="none" x="433.9345703125" y="312.5">Grado</text><text fill="#000000" stroke="none" font-family="Arial" font-size="13px" font-style="normal" font-weight="bold" text-decoration="none" x="419.845947265625" y="325.5">Academico</text></g></g><g transform="translate(-390,-110) scale(1,1)"><rect fill="#C0C0C0" stroke="none" x="663" y="415" width="75.498046875" height="60" opacity="0.2"/></g><g transform="translate(-390,-110) scale(1,1)"><rect fill="#ffffff" stroke="none" x="656" y="408" width="75.498046875" height="60"/></g><g transform="translate(-390,-110) scale(1,1)"><path fill="none" stroke="#000000" d="M 656 408 L 731.498046875 408 L 731.498046875 468 L 656 468 L 656 408 Z Z" stroke-miterlimit="10"/></g><g transform="translate(-390,-110) scale(1,1)"><path fill="none" stroke="#000000" d="M 656 433 L 731.498046875 433" stroke-miterlimit="10"/></g><g transform="translate(-390,-110) scale(1,1)"><g><path fill="none" stroke="none"/><text fill="#000000" stroke="none" font-family="Arial" font-size="13px" font-style="normal" font-weight="bold" text-decoration="none" x="667.384033203125" y="427.5">Domicilio</text></g></g><g transform="translate(-390,-110) scale(1,1)"><g><path fill="none" stroke="none"/><text fill="#000000" stroke="none" font-family="Arial" font-size="13px" font-style="normal" font-weight="normal" text-decoration="none" x="661" y="450.5">+dirección</text></g></g><g transform="translate(-390,-110) scale(1,1)"><rect fill="#C0C0C0" stroke="none" x="775" y="423" width="94.7060546875" height="44" opacity="0.2"/></g><g transform="translate(-390,-110) scale(1,1)"><rect fill="#ffffff" stroke="none" x="768" y="416" width="94.7060546875" height="44"/></g><g transform="translate(-390,-110) scale(1,1)"><path fill="none" stroke="#000000" d="M 768 416 L 862.7060546875 416 L 862.7060546875 460 L 768 460 L 768 416 Z Z" stroke-miterlimit="10"/></g><g transform="translate(-390,-110) scale(1,1)"><g><path fill="none" stroke="none"/><text fill="#000000" stroke="none" font-family="Arial" font-size="13px" font-style="normal" font-weight="normal" text-decoration="none" x="782.10400390625" y="433.5">«Catálogo»</text></g></g><g transform="translate(-390,-110) scale(1,1)"><g><path fill="none" stroke="none"/><text fill="#000000" stroke="none" font-family="Arial" font-size="13px" font-style="normal" font-weight="bold" text-decoration="none" x="776.584716796875" y="448.5">TipoDomicilio</text></g></g><g transform="translate(-390,-110) scale(1,1)"><path fill="none" stroke="#000000" d="M 731 437 L 768 437" stroke-miterlimit="10"/></g><g transform="translate(-390,-110) scale(1,1)"><path fill="none" stroke="#000000" d="M 757.8373251423759 441.209517756016 L 768 437 L 757.8373251423758 432.790482243984" stroke-miterlimit="10"/></g><g transform="translate(-390,-110) scale(1,1)"><path fill="none" stroke="#000000" d="M 804 179 L 912 179" stroke-miterlimit="10"/></g><g transform="translate(-390,-110) scale(1,1)"><path fill="none" stroke="#000000" d="M 901.8373251423759 183.209517756016 L 912 179 L 901.8373251423758 174.790482243984" stroke-miterlimit="10"/></g><g transform="translate(-390,-110) scale(1,1)"><g><path fill="none" stroke="none"/><text fill="#000000" stroke="none" font-family="Arial" font-size="13px" font-style="normal" font-weight="normal" text-decoration="none" x="821.5" y="197.5">1</text></g></g><g transform="translate(-390,-110) scale(1,1)"><path fill="none" stroke="#000000" d="M 960 248 L 960 210" stroke-miterlimit="10"/></g><g transform="translate(-390,-110) scale(1,1)"><path fill="none" stroke="#000000" d="M 964.209517756016 220.16267485762415 L 960 210 L 955.790482243984 220.16267485762415" stroke-miterlimit="10"/></g><g transform="translate(-390,-110) scale(1,1)"><g><path fill="none" stroke="none"/><text fill="#000000" stroke="none" font-family="Arial" font-size="13px" font-style="normal" font-weight="normal" text-decoration="none" x="968.5" y="232.5">1</text></g></g><g transform="translate(-390,-110) scale(1,1)"><path fill="none" stroke="#000000" d="M 592 168 L 504 168" stroke-miterlimit="10"/></g><g transform="translate(-390,-110) scale(1,1)"><path fill="none" stroke="#000000" d="M 514.1626748576241 163.790482243984 L 504 168 L 514.1626748576241 172.209517756016" stroke-miterlimit="10"/></g><g transform="translate(-390,-110) scale(1,1)"><g><path fill="none" stroke="none"/><text fill="#000000" stroke="none" font-family="Arial" font-size="13px" font-style="normal" font-weight="normal" text-decoration="none" x="523.93359375" y="187.5">+pais de</text><text fill="#000000" stroke="none" font-family="Arial" font-size="13px" font-style="normal" font-weight="normal" text-decoration="none" x="519.061767578125" y="200.5">recidencia</text></g></g><g transform="translate(-390,-110) scale(1,1)"><g><path fill="none" stroke="none"/><text fill="#000000" stroke="none" font-family="Arial" font-size="13px" font-style="normal" font-weight="normal" text-decoration="none" x="521.5" y="161.5">1</text></g></g><g transform="translate(-390,-110) scale(1,1)"><path fill="none" stroke="#000000" d="M 592 305 L 504 305" stroke-miterlimit="10"/></g><g transform="translate(-390,-110) scale(1,1)"><path fill="none" stroke="#000000" d="M 514.1626748576241 300.790482243984 L 504 305 L 514.1626748576241 309.209517756016" stroke-miterlimit="10"/></g><g transform="translate(-390,-110) scale(1,1)"><g><path fill="none" stroke="none"/><text fill="#000000" stroke="none" font-family="Arial" font-size="13px" font-style="normal" font-weight="normal" text-decoration="none" x="521.5" y="298.5">1</text></g></g><g transform="translate(-390,-110) scale(1,1)"><path fill="none" stroke="#000000" d="M 592 232 L 504 232" stroke-miterlimit="10"/></g><g transform="translate(-390,-110) scale(1,1)"><path fill="none" stroke="#000000" d="M 514.1626748576241 227.790482243984 L 504 232 L 514.1626748576241 236.209517756016" stroke-miterlimit="10"/></g><g transform="translate(-390,-110) scale(1,1)"><g><path fill="none" stroke="none"/><text fill="#000000" stroke="none" font-family="Arial" font-size="13px" font-style="normal" font-weight="normal" text-decoration="none" x="521.5" y="225.5">1</text></g></g><g transform="translate(-390,-110) scale(1,1)"><path fill="none" stroke="#000000" d="M 688 356 L 688 408" stroke-miterlimit="10"/></g><g transform="translate(-390,-110) scale(1,1)"><path fill="none" stroke="#000000" d="M 683.790482243984 397.83732514237585 L 688 408 L 692.209517756016 397.83732514237585" stroke-miterlimit="10"/></g><g transform="translate(-390,-110) scale(1,1)"><g><path fill="none" stroke="none"/><text fill="#000000" stroke="none" font-family="Arial" font-size="13px" font-style="normal" font-weight="normal" text-decoration="none" x="664.74365234375" y="392.5">1..*</text></g></g><g transform="translate(-390,-110) scale(1,1)"><path fill="none" stroke="#000000" d="M 912 296 L 804 296" stroke-miterlimit="10"/></g><g transform="translate(-390,-110) scale(1,1)"><path fill="none" stroke="#000000" d="M 814.1626748576241 291.790482243984 L 804 296 L 814.1626748576241 300.209517756016" stroke-miterlimit="10"/></g><g transform="translate(-390,-110) scale(1,1)"><g><path fill="none" stroke="none"/><text fill="#000000" stroke="none" font-family="Arial" font-size="13px" font-style="normal" font-weight="normal" text-decoration="none" x="814.09326171875" y="314.5">+representante</text><text fill="#000000" stroke="none" font-family="Arial" font-size="13px" font-style="normal" font-weight="normal" text-decoration="none" x="842.095947265625" y="327.5">Legal</text></g></g><g transform="translate(-390,-110) scale(1,1)"><g><path fill="none" stroke="none"/><text fill="#000000" stroke="none" font-family="Arial" font-size="13px" font-style="normal" font-weight="normal" text-decoration="none" x="821.5" y="289.5">1</text></g></g></g></svg>