<svg version="1.1" xmlns="http://www.w3.org/2000/svg" xmlns:xlink="http://www.w3.org/1999/xlink" width="670.1962890625" height="372"><defs/><g><text fill="#eeeeee" stroke="none" font-family="Arial" font-size="24px" font-style="normal" font-weight="normal" text-decoration="none" x="0" y="0">UNREGISTERED</text><text fill="#eeeeee" stroke="none" font-family="Arial" font-size="24px" font-style="normal" font-weight="normal" text-decoration="none" x="0" y="30">UNREGISTERED</text><text fill="#eeeeee" stroke="none" font-family="Arial" font-size="24px" font-style="normal" font-weight="normal" text-decoration="none" x="0" y="60">UNREGISTERED</text><text fill="#eeeeee" stroke="none" font-family="Arial" font-size="24px" font-style="normal" font-weight="normal" text-decoration="none" x="0" y="90">UNREGISTERED</text><text fill="#eeeeee" stroke="none" font-family="Arial" font-size="24px" font-style="normal" font-weight="normal" text-decoration="none" x="0" y="120">UNREGISTERED</text><text fill="#eeeeee" stroke="none" font-family="Arial" font-size="24px" font-style="normal" font-weight="normal" text-decoration="none" x="0" y="150">UNREGISTERED</text><text fill="#eeeeee" stroke="none" font-family="Arial" font-size="24px" font-style="normal" font-weight="normal" text-decoration="none" x="0" y="180">UNREGISTERED</text><text fill="#eeeeee" stroke="none" font-family="Arial" font-size="24px" font-style="normal" font-weight="normal" text-decoration="none" x="0" y="210">UNREGISTERED</text><text fill="#eeeeee" stroke="none" font-family="Arial" font-size="24px" font-style="normal" font-weight="normal" text-decoration="none" x="0" y="240">UNREGISTERED</text><text fill="#eeeeee" stroke="none" font-family="Arial" font-size="24px" font-style="normal" font-weight="normal" text-decoration="none" x="0" y="270">UNREGISTERED</text><text fill="#eeeeee" stroke="none" font-family="Arial" font-size="24px" font-style="normal" font-weight="normal" text-decoration="none" x="0" y="300">UNREGISTERED</text><text fill="#eeeeee" stroke="none" font-family="Arial" font-size="24px" font-style="normal" font-weight="normal" text-decoration="none" x="0" y="330">UNREGISTERED</text><text fill="#eeeeee" stroke="none" font-family="Arial" font-size="24px" font-style="normal" font-weight="normal" text-decoration="none" x="0" y="360">UNREGISTERED</text><text fill="#eeeeee" stroke="none" font-family="Arial" font-size="24px" font-style="normal" font-weight="normal" text-decoration="none" x="200" y="0">UNREGISTERED</text><text fill="#eeeeee" stroke="none" font-family="Arial" font-size="24px" font-style="normal" font-weight="normal" text-decoration="none" x="200" y="30">UNREGISTERED</text><text fill="#eeeeee" stroke="none" font-family="Arial" font-size="24px" font-style="normal" font-weight="normal" text-decoration="none" x="200" y="60">UNREGISTERED</text><text fill="#eeeeee" stroke="none" font-family="Arial" font-size="24px" font-style="normal" font-weight="normal" text-decoration="none" x="200" y="90">UNREGISTERED</text><text fill="#eeeeee" stroke="none" font-family="Arial" font-size="24px" font-style="normal" font-weight="normal" text-decoration="none" x="200" y="120">UNREGISTERED</text><text fill="#eeeeee" stroke="none" font-family="Arial" font-size="24px" font-style="normal" font-weight="normal" text-decoration="none" x="200" y="150">UNREGISTERED</text><text fill="#eeeeee" stroke="none" font-family="Arial" font-size="24px" font-style="normal" font-weight="normal" text-decoration="none" x="200" y="180">UNREGISTERED</text><text fill="#eeeeee" stroke="none" font-family="Arial" font-size="24px" font-style="normal" font-weight="normal" text-decoration="none" x="200" y="210">UNREGISTERED</text><text fill="#eeeeee" stroke="none" font-family="Arial" font-size="24px" font-style="normal" font-weight="normal" text-decoration="none" x="200" y="240">UNREGISTERED</text><text fill="#eeeeee" stroke="none" font-family="Arial" font-size="24px" font-style="normal" font-weight="normal" text-decoration="none" x="200" y="270">UNREGISTERED</text><text fill="#eeeeee" stroke="none" font-family="Arial" font-size="24px" font-style="normal" font-weight="normal" text-decoration="none" x="200" y="300">UNREGISTERED</text><text fill="#eeeeee" stroke="none" font-family="Arial" font-size="24px" font-style="normal" font-weight="normal" text-decoration="none" x="200" y="330">UNREGISTERED</text><text fill="#eeeeee" stroke="none" font-family="Arial" font-size="24px" font-style="normal" font-weight="normal" text-decoration="none" x="200" y="360">UNREGISTERED</text><text fill="#eeeeee" stroke="none" font-family="Arial" font-size="24px" font-style="normal" font-weight="normal" text-decoration="none" x="400" y="0">UNREGISTERED</text><text fill="#eeeeee" stroke="none" font-family="Arial" font-size="24px" font-style="normal" font-weight="normal" text-decoration="none" x="400" y="30">UNREGISTERED</text><text fill="#eeeeee" stroke="none" font-family="Arial" font-size="24px" font-style="normal" font-weight="normal" text-decoration="none" x="400" y="60">UNREGISTERED</text><text fill="#eeeeee" stroke="none" font-family="Arial" font-size="24px" font-style="normal" font-weight="normal" text-decoration="none" x="400" y="90">UNREGISTERED</text><text fill="#eeeeee" stroke="none" font-family="Arial" font-size="24px" font-style="normal" font-weight="normal" text-decoration="none" x="400" y="120">UNREGISTERED</text><text fill="#eeeeee" stroke="none" font-family="Arial" font-size="24px" font-style="normal" font-weight="normal" text-decoration="none" x="400" y="150">UNREGISTERED</text><text fill="#eeeeee" stroke="none" font-family="Arial" font-size="24px" font-style="normal" font-weight="normal" text-decoration="none" x="400" y="180">UNREGISTERED</text><text fill="#eeeeee" stroke="none" font-family="Arial" font-size="24px" font-style="normal" font-weight="normal" text-decoration="none" x="400" y="210">UNREGISTERED</text><text fill="#eeeeee" stroke="none" font-family="Arial" font-size="24px" font-style="normal" font-weight="normal" text-decoration="none" x="400" y="240">UNREGISTERED</text><text fill="#eeeeee" stroke="none" font-family="Arial" font-size="24px" font-style="normal" font-weight="normal" text-decoration="none" x="400" y="270">UNREGISTERED</text><text fill="#eeeeee" stroke="none" font-family="Arial" font-size="24px" font-style="normal" font-weight="normal" text-decoration="none" x="400" y="300">UNREGISTERED</text><text fill="#eeeeee" stroke="none" font-family="Arial" font-size="24px" font-style="normal" font-weight="normal" text-decoration="none" x="400" y="330">UNREGISTERED</text><text fill="#eeeeee" stroke="none" font-family="Arial" font-size="24px" font-style="normal" font-weight="normal" text-decoration="none" x="400" y="360">UNREGISTERED</text><text fill="#eeeeee" stroke="none" font-family="Arial" font-size="24px" font-style="normal" font-weight="normal" text-decoration="none" x="600" y="0">UNREGISTERED</text><text fill="#eeeeee" stroke="none" font-family="Arial" font-size="24px" font-style="normal" font-weight="normal" text-decoration="none" x="600" y="30">UNREGISTERED</text><text fill="#eeeeee" stroke="none" font-family="Arial" font-size="24px" font-style="normal" font-weight="normal" text-decoration="none" x="600" y="60">UNREGISTERED</text><text fill="#eeeeee" stroke="none" font-family="Arial" font-size="24px" font-style="normal" font-weight="normal" text-decoration="none" x="600" y="90">UNREGISTERED</text><text fill="#eeeeee" stroke="none" font-family="Arial" font-size="24px" font-style="normal" font-weight="normal" text-decoration="none" x="600" y="120">UNREGISTERED</text><text fill="#eeeeee" stroke="none" font-family="Arial" font-size="24px" font-style="normal" font-weight="normal" text-decoration="none" x="600" y="150">UNREGISTERED</text><text fill="#eeeeee" stroke="none" font-family="Arial" font-size="24px" font-style="normal" font-weight="normal" text-decoration="none" x="600" y="180">UNREGISTERED</text><text fill="#eeeeee" stroke="none" font-family="Arial" font-size="24px" font-style="normal" font-weight="normal" text-decoration="none" x="600" y="210">UNREGISTERED</text><text fill="#eeeeee" stroke="none" font-family="Arial" font-size="24px" font-style="normal" font-weight="normal" text-decoration="none" x="600" y="240">UNREGISTERED</text><text fill="#eeeeee" stroke="none" font-family="Arial" font-size="24px" font-style="normal" font-weight="normal" text-decoration="none" x="600" y="270">UNREGISTERED</text><text fill="#eeeeee" stroke="none" font-family="Arial" font-size="24px" font-style="normal" font-weight="normal" text-decoration="none" x="600" y="300">UNREGISTERED</text><text fill="#eeeeee" stroke="none" font-family="Arial" font-size="24px" font-style="normal" font-weight="normal" text-decoration="none" x="600" y="330">UNREGISTERED</text><text fill="#eeeeee" stroke="none" font-family="Arial" font-size="24px" font-style="normal" font-weight="normal" text-decoration="none" x="600" y="360">UNREGISTERED</text><g transform="translate(-78,-86) scale(1,1)"><rect fill="#C0C0C0" stroke="none" x="263" y="223" width="272" height="107" opacity="0.2"/></g><g transform="translate(-78,-86) scale(1,1)"><rect fill="#ffeaad" stroke="none" x="256" y="216" width="272" height="107"/></g><g transform="translate(-78,-86) scale(1,1)"><path fill="none" stroke="#000000" d="M 256 216 L 528 216 L 528 323 L 256 323 L 256 216 Z Z" stroke-miterlimit="10"/></g><g transform="translate(-78,-86) scale(1,1)"><path fill="none" stroke="#000000" d="M 256 241 L 528 241" stroke-miterlimit="10"/></g><g transform="translate(-78,-86) scale(1,1)"><g><path fill="none" stroke="none"/><text fill="#000000" stroke="none" font-family="Arial" font-size="13px" font-style="normal" font-weight="bold" text-decoration="none" x="358.40185546875" y="235.5">Notificacion</text></g></g><g transform="translate(-78,-86) scale(1,1)"><g><path fill="none" stroke="none"/><text fill="#000000" stroke="none" font-family="Arial" font-size="13px" font-style="normal" font-weight="normal" text-decoration="none" x="261" y="258.5">+mensaje: TextBlob</text></g></g><g transform="translate(-78,-86) scale(1,1)"><g><path fill="none" stroke="none"/><text fill="#000000" stroke="none" font-family="Arial" font-size="13px" font-style="normal" font-weight="normal" text-decoration="none" x="261" y="273.5">+de: String</text></g></g><g transform="translate(-78,-86) scale(1,1)"><g><path fill="none" stroke="none"/><text fill="#000000" stroke="none" font-family="Arial" font-size="13px" font-style="normal" font-weight="normal" text-decoration="none" x="261" y="288.5">+para: String</text></g></g><g transform="translate(-78,-86) scale(1,1)"><g><path fill="none" stroke="none"/><text fill="#000000" stroke="none" font-family="Arial" font-size="13px" font-style="normal" font-weight="normal" text-decoration="none" x="261" y="303.5">+cc: String</text></g></g><g transform="translate(-78,-86) scale(1,1)"><g><path fill="none" stroke="none"/><text fill="#000000" stroke="none" font-family="Arial" font-size="13px" font-style="normal" font-weight="normal" text-decoration="none" x="261" y="318.5">+fechaDeEnvío</text></g></g><g transform="translate(-78,-86) scale(1,1)"><rect fill="#C0C0C0" stroke="none" x="95" y="247" width="96" height="72" opacity="0.2"/></g><g transform="translate(-78,-86) scale(1,1)"><rect fill="#ffffff" stroke="none" x="88" y="240" width="96" height="72"/></g><g transform="translate(-78,-86) scale(1,1)"><path fill="none" stroke="#000000" d="M 88 240 L 184 240 L 184 312 L 88 312 L 88 240 Z Z" stroke-miterlimit="10"/></g><g transform="translate(-78,-86) scale(1,1)"><g><path fill="none" stroke="none"/><text fill="#000000" stroke="none" font-family="Arial" font-size="13px" font-style="normal" font-weight="bold" text-decoration="none" x="111.431396484375" y="259.5">Solicitud</text></g></g><g transform="translate(-78,-86) scale(1,1)"><rect fill="#C0C0C0" stroke="none" x="351" y="367" width="99.53076171875" height="88" opacity="0.2"/></g><g transform="translate(-78,-86) scale(1,1)"><rect fill="#ffffff" stroke="none" x="344" y="360" width="99.53076171875" height="88"/></g><g transform="translate(-78,-86) scale(1,1)"><path fill="none" stroke="#000000" d="M 344 360 L 443.53076171875 360 L 443.53076171875 448 L 344 448 L 344 360 Z Z" stroke-miterlimit="10"/></g><g transform="translate(-78,-86) scale(1,1)"><g><path fill="none" stroke="none"/><text fill="#000000" stroke="none" font-family="Arial" font-size="13px" font-style="normal" font-weight="normal" text-decoration="none" x="360.516357421875" y="377.5">«Catálogo»</text></g></g><g transform="translate(-78,-86) scale(1,1)"><g><path fill="none" stroke="none"/><text fill="#000000" stroke="none" font-family="Arial" font-size="13px" font-style="normal" font-weight="bold" text-decoration="none" x="360.878173828125" y="392.5">Etapa de la</text><text fill="#000000" stroke="none" font-family="Arial" font-size="13px" font-style="normal" font-weight="bold" text-decoration="none" x="369.19677734375" y="405.5">Solicitud</text></g></g><g transform="translate(-78,-86) scale(1,1)"><rect fill="#C0C0C0" stroke="none" x="583" y="231" width="162.1962890625" height="72" opacity="0.2"/></g><g transform="translate(-78,-86) scale(1,1)"><rect fill="#ffffff" stroke="none" x="576" y="224" width="162.1962890625" height="72"/></g><g transform="translate(-78,-86) scale(1,1)"><path fill="none" stroke="#000000" d="M 576 224 L 738.1962890625 224 L 738.1962890625 296 L 576 296 L 576 224 Z Z" stroke-miterlimit="10"/></g><g transform="translate(-78,-86) scale(1,1)"><path fill="#ffffff" stroke="none" d="M 717.3388345170455 233.57999999999998 C 717.3388345170455 231.602820416 719.0658755503546 230 721.1962890625 230 C 723.3267025746454 230 725.0537436079546 231.602820416 725.0537436079546 233.57999999999998 C 725.0537436079546 235.55717958399998 723.3267025746454 237.16 721.1962890625 237.16 C 719.0658755503546 237.16 717.3388345170455 235.55717958399998 717.3388345170455 233.57999999999998 Z"/></g><g transform="translate(-78,-86) scale(1,1)"><path fill="none" stroke="#000000" d="M 717.3388345170455 233.57999999999998 C 717.3388345170455 231.602820416 719.0658755503546 230 721.1962890625 230 C 723.3267025746454 230 725.0537436079546 231.602820416 725.0537436079546 233.57999999999998 C 725.0537436079546 235.55717958399998 723.3267025746454 237.16 721.1962890625 237.16 C 719.0658755503546 237.16 717.3388345170455 235.55717958399998 717.3388345170455 233.57999999999998 Z" stroke-miterlimit="10"/></g><g transform="translate(-78,-86) scale(1,1)"><path fill="none" stroke="#000000" d="M 721.1962890625 237.16 L 721.1962890625 244.84" stroke-miterlimit="10"/></g><g transform="translate(-78,-86) scale(1,1)"><path fill="none" stroke="#000000" d="M 717.1119254261364 240.04 L 725.2806526988637 240.04" stroke-miterlimit="10"/></g><g transform="translate(-78,-86) scale(1,1)"><path fill="none" stroke="#000000" d="M 721.1962890625 244.84 L 715.5235617897728 252" stroke-miterlimit="10"/></g><g transform="translate(-78,-86) scale(1,1)"><path fill="none" stroke="#000000" d="M 721.1962890625 244.84 L 726.8690163352273 252" stroke-miterlimit="10"/></g><g transform="translate(-78,-86) scale(1,1)"><g><path fill="none" stroke="none"/><text fill="#000000" stroke="none" font-family="Arial" font-size="13px" font-style="normal" font-weight="bold" text-decoration="none" x="601.746826171875" y="243.5">Persona Física</text></g></g><g transform="translate(-78,-86) scale(1,1)"><g><path fill="none" stroke="none"/><text fill="#000000" stroke="none" font-family="Arial" font-size="13px" font-style="normal" font-weight="normal" text-decoration="none" x="596.3291015625" y="258.5">(from Seguridad)</text></g></g><g transform="translate(-78,-86) scale(1,1)"><path fill="none" stroke="#000000" d="M 256 272 L 184 272" stroke-miterlimit="10"/></g><g transform="translate(-78,-86) scale(1,1)"><path fill="none" stroke="#000000" d="M 194.16267485762415 267.790482243984 L 184 272 L 194.16267485762415 276.209517756016" stroke-miterlimit="10"/></g><g transform="translate(-78,-86) scale(1,1)"><g><path fill="none" stroke="none"/><text fill="#000000" stroke="none" font-family="Arial" font-size="13px" font-style="normal" font-weight="normal" text-decoration="none" x="201.5" y="265.5">1</text></g></g><g transform="translate(-78,-86) scale(1,1)"><path fill="none" stroke="#000000" d="M 392 323 L 392 360" stroke-miterlimit="10"/></g><g transform="translate(-78,-86) scale(1,1)"><path fill="none" stroke="#000000" d="M 387.790482243984 349.83732514237585 L 392 360 L 396.209517756016 349.83732514237585" stroke-miterlimit="10"/></g><g transform="translate(-78,-86) scale(1,1)"><g><path fill="none" stroke="none"/><text fill="#000000" stroke="none" font-family="Arial" font-size="13px" font-style="normal" font-weight="normal" text-decoration="none" x="375.5" y="344.5">1</text></g></g><g transform="translate(-78,-86) scale(1,1)"><path fill="none" stroke="#000000" d="M 528 260 L 576 260" stroke-miterlimit="10"/></g><g transform="translate(-78,-86) scale(1,1)"><path fill="none" stroke="#000000" d="M 565.8373251423759 264.209517756016 L 576 260 L 565.8373251423758 255.790482243984" stroke-miterlimit="10"/></g><g transform="translate(-78,-86) scale(1,1)"><g><path fill="none" stroke="none"/><text fill="#000000" stroke="none" font-family="Arial" font-size="13px" font-style="normal" font-weight="normal" text-decoration="none" x="550.5" y="278.5">1</text></g></g><g transform="translate(-78,-86) scale(1,1)"><rect fill="#C0C0C0" stroke="none" x="263" y="103" width="128" height="90" opacity="0.2"/></g><g transform="translate(-78,-86) scale(1,1)"><rect fill="#ffeaad" stroke="none" x="256" y="96" width="128" height="90"/></g><g transform="translate(-78,-86) scale(1,1)"><path fill="none" stroke="#000000" d="M 256 96 L 384 96 L 384 186 L 256 186 L 256 96 Z Z" stroke-miterlimit="10"/></g><g transform="translate(-78,-86) scale(1,1)"><path fill="none" stroke="#000000" d="M 256 134 L 384 134" stroke-miterlimit="10"/></g><g transform="translate(-78,-86) scale(1,1)"><g><path fill="none" stroke="none"/><text fill="#000000" stroke="none" font-family="Arial" font-size="13px" font-style="normal" font-weight="normal" text-decoration="none" x="286.7509765625" y="113.5">«Catálogo»</text></g></g><g transform="translate(-78,-86) scale(1,1)"><g><path fill="none" stroke="none"/><text fill="#000000" stroke="none" font-family="Arial" font-size="13px" font-style="normal" font-weight="bold" text-decoration="none" x="272.192626953125" y="128.5">Tipo Notificación</text></g></g><g transform="translate(-78,-86) scale(1,1)"><g><path fill="none" stroke="none"/><text fill="#000000" stroke="none" font-family="Arial" font-size="13px" font-style="normal" font-weight="normal" text-decoration="none" x="261" y="151.5">+nombre: String</text></g></g><g transform="translate(-78,-86) scale(1,1)"><g><path fill="none" stroke="none"/><text fill="#000000" stroke="none" font-family="Arial" font-size="13px" font-style="normal" font-weight="normal" text-decoration="none" x="261" y="166.5">+descripción: String</text></g></g><g transform="translate(-78,-86) scale(1,1)"><g><path fill="none" stroke="none"/><text fill="#000000" stroke="none" font-family="Arial" font-size="13px" font-style="normal" font-weight="normal" text-decoration="none" x="261" y="181.5">+mensaje: TextBlob</text></g></g><g transform="translate(-78,-86) scale(1,1)"><path fill="none" stroke="#000000" d="M 312 216 L 312 186" stroke-miterlimit="10"/></g><g transform="translate(-78,-86) scale(1,1)"><path fill="none" stroke="#000000" d="M 316.209517756016 196.16267485762415 L 312 186 L 307.790482243984 196.16267485762415" stroke-miterlimit="10"/></g><g transform="translate(-78,-86) scale(1,1)"><g><path fill="none" stroke="none"/><text fill="#000000" stroke="none" font-family="Arial" font-size="13px" font-style="normal" font-weight="normal" text-decoration="none" x="320.5" y="213.5">1</text></g></g><g transform="translate(-78,-86) scale(1,1)"><rect fill="#C0C0C0" stroke="none" x="407" y="103" width="123.53076171875" height="88" opacity="0.2"/></g><g transform="translate(-78,-86) scale(1,1)"><rect fill="#ffeaad" stroke="none" x="400" y="96" width="123.53076171875" height="88"/></g><g transform="translate(-78,-86) scale(1,1)"><path fill="none" stroke="#000000" d="M 400 96 L 523.53076171875 96 L 523.53076171875 184 L 400 184 L 400 96 Z Z" stroke-miterlimit="10"/></g><g transform="translate(-78,-86) scale(1,1)"><path fill="none" stroke="#000000" d="M 400 147 L 523.53076171875 147" stroke-miterlimit="10"/></g><g transform="translate(-78,-86) scale(1,1)"><g><path fill="none" stroke="none"/><text fill="#000000" stroke="none" font-family="Arial" font-size="13px" font-style="normal" font-weight="normal" text-decoration="none" x="428.516357421875" y="113.5">«Catálogo»</text></g></g><g transform="translate(-78,-86) scale(1,1)"><g><path fill="none" stroke="none"/><text fill="#000000" stroke="none" font-family="Arial" font-size="13px" font-style="normal" font-weight="bold" text-decoration="none" x="441.529052734375" y="128.5">Estado</text><text fill="#000000" stroke="none" font-family="Arial" font-size="13px" font-style="normal" font-weight="bold" text-decoration="none" x="428.167236328125" y="141.5">Notificación</text></g></g><g transform="translate(-78,-86) scale(1,1)"><g><path fill="none" stroke="none"/><text fill="#000000" stroke="none" font-family="Arial" font-size="13px" font-style="normal" font-weight="normal" text-decoration="none" x="405" y="164.5">+nombre: String</text></g></g><g transform="translate(-78,-86) scale(1,1)"><g><path fill="none" stroke="none"/><text fill="#000000" stroke="none" font-family="Arial" font-size="13px" font-style="normal" font-weight="normal" text-decoration="none" x="405" y="179.5">+descripción: String</text></g></g><g transform="translate(-78,-86) scale(1,1)"><path fill="none" stroke="#000000" d="M 464 216 L 464 184" stroke-miterlimit="10"/></g><g transform="translate(-78,-86) scale(1,1)"><path fill="none" stroke="#000000" d="M 468.209517756016 194.16267485762415 L 464 184 L 459.790482243984 194.16267485762415" stroke-miterlimit="10"/></g><g transform="translate(-78,-86) scale(1,1)"><g><path fill="none" stroke="none"/><text fill="#000000" stroke="none" font-family="Arial" font-size="13px" font-style="normal" font-weight="normal" text-decoration="none" x="472.5" y="200.5">1</text></g></g></g></svg>