<svg version="1.1" xmlns="http://www.w3.org/2000/svg" xmlns:xlink="http://www.w3.org/1999/xlink" width="348" height="288"><defs></defs><g><g transform="translate(-38,-30) scale(1,1)"><rect fill="#C0C0C0" stroke="none" x="167" y="47" width="104" height="68" opacity="0.2"></rect></g><g transform="translate(-38,-30) scale(1,1)"><rect fill="#ffffff" stroke="none" x="160" y="40" width="104" height="68"></rect></g><g transform="translate(-38,-30) scale(1,1)"><path fill="none" stroke="#000000" d="M 160 40 L 264 40 L 264 108 L 160 108 L 160 40 Z Z" stroke-miterlimit="10"></path></g><g transform="translate(-38,-30) scale(1,1)"><g><path fill="none" stroke="none"></path><text fill="#000000" stroke="none" font-family="Arial" font-size="13px" font-style="normal" font-weight="normal" text-decoration="none" x="192.5" y="57.5">«Tipo»</text></g></g><g transform="translate(-38,-30) scale(1,1)"><g><path fill="none" stroke="none"></path><text fill="#000000" stroke="none" font-family="Arial" font-size="13px" font-style="normal" font-weight="bold" text-decoration="none" x="182.5" y="72.5">Modalidad</text></g></g><g transform="translate(-38,-30) scale(1,1)"><rect fill="#C0C0C0" stroke="none" x="55" y="175" width="104" height="68" opacity="0.2"></rect></g><g transform="translate(-38,-30) scale(1,1)"><rect fill="#ffffff" stroke="none" x="48" y="168" width="104" height="68"></rect></g><g transform="translate(-38,-30) scale(1,1)"><path fill="none" stroke="#000000" d="M 48 168 L 152 168 L 152 236 L 48 236 L 48 168 Z Z" stroke-miterlimit="10"></path></g><g transform="translate(-38,-30) scale(1,1)"><g><path fill="none" stroke="none"></path><text fill="#000000" stroke="none" font-family="Arial" font-size="13px" font-style="normal" font-weight="normal" text-decoration="none" x="80.5" y="185.5">«Tipo»</text></g></g><g transform="translate(-38,-30) scale(1,1)"><g><path fill="none" stroke="none"></path><text fill="#000000" stroke="none" font-family="Arial" font-size="13px" font-style="normal" font-weight="bold" text-decoration="none" x="72.5" y="200.5">Individual</text></g></g><g transform="translate(-38,-30) scale(1,1)"><rect fill="#C0C0C0" stroke="none" x="167" y="247" width="104" height="68" opacity="0.2"></rect></g><g transform="translate(-38,-30) scale(1,1)"><rect fill="#ffffff" stroke="none" x="160" y="240" width="104" height="68"></rect></g><g transform="translate(-38,-30) scale(1,1)"><path fill="none" stroke="#000000" d="M 160 240 L 264 240 L 264 308 L 160 308 L 160 240 Z Z" stroke-miterlimit="10"></path></g><g transform="translate(-38,-30) scale(1,1)"><g><path fill="none" stroke="none"></path><text fill="#000000" stroke="none" font-family="Arial" font-size="13px" font-style="normal" font-weight="normal" text-decoration="none" x="192.5" y="257.5">«Tipo»</text></g></g><g transform="translate(-38,-30) scale(1,1)"><g><path fill="none" stroke="none"></path><text fill="#000000" stroke="none" font-family="Arial" font-size="13px" font-style="normal" font-weight="bold" text-decoration="none" x="194.5" y="272.5">Grupo</text></g></g><g transform="translate(-38,-30) scale(1,1)"><rect fill="#C0C0C0" stroke="none" x="279" y="175" width="104" height="68" opacity="0.2"></rect></g><g transform="translate(-38,-30) scale(1,1)"><rect fill="#ffffff" stroke="none" x="272" y="168" width="104" height="68"></rect></g><g transform="translate(-38,-30) scale(1,1)"><path fill="none" stroke="#000000" d="M 272 168 L 376 168 L 376 236 L 272 236 L 272 168 Z Z" stroke-miterlimit="10"></path></g><g transform="translate(-38,-30) scale(1,1)"><g><path fill="none" stroke="none"></path><text fill="#000000" stroke="none" font-family="Arial" font-size="13px" font-style="normal" font-weight="normal" text-decoration="none" x="304.5" y="185.5">«Tipo»</text></g></g><g transform="translate(-38,-30) scale(1,1)"><g><path fill="none" stroke="none"></path><text fill="#000000" stroke="none" font-family="Arial" font-size="13px" font-style="normal" font-weight="bold" text-decoration="none" x="300.5" y="200.5">Sinergia</text></g></g><g transform="translate(-38,-30) scale(1,1)"><path fill="none" stroke="#000000" d="M 152 190 L 182 190 M 182 190 A 8 8 0 0 0 190 182 L 190 108" stroke-miterlimit="10"></path></g><g transform="translate(-38,-30) scale(1,1)"><path fill="#FFFFFF" stroke="none" d="M 198.41903551203197 128.3253497152483 L 190 108 L 181.58096448796803 128.3253497152483"></path></g><g transform="translate(-38,-30) scale(1,1)"><path fill="none" stroke="#000000" d="M 198.41903551203197 128.3253497152483 L 190 108 L 181.58096448796803 128.3253497152483 L 198.41903551203197 128.3253497152483" stroke-miterlimit="10"></path></g><g transform="translate(-38,-30) scale(1,1)"><path fill="none" stroke="#000000" d="M 211 240 L 211 108" stroke-miterlimit="10"></path></g><g transform="translate(-38,-30) scale(1,1)"><path fill="#FFFFFF" stroke="none" d="M 219.41903551203197 128.3253497152483 L 211 108 L 202.58096448796803 128.3253497152483"></path></g><g transform="translate(-38,-30) scale(1,1)"><path fill="none" stroke="#000000" d="M 219.41903551203197 128.3253497152483 L 211 108 L 202.58096448796803 128.3253497152483 L 219.41903551203197 128.3253497152483" stroke-miterlimit="10"></path></g><g transform="translate(-38,-30) scale(1,1)"><path fill="none" stroke="#000000" d="M 272 190 L 239 190 M 239 190 A 8 8 0 0 1 231 182 L 231 108" stroke-miterlimit="10"></path></g><g transform="translate(-38,-30) scale(1,1)"><path fill="#FFFFFF" stroke="none" d="M 239.41903551203197 128.3253497152483 L 231 108 L 222.58096448796803 128.3253497152483"></path></g><g transform="translate(-38,-30) scale(1,1)"><path fill="none" stroke="#000000" d="M 239.41903551203197 128.3253497152483 L 231 108 L 222.58096448796803 128.3253497152483 L 239.41903551203197 128.3253497152483" stroke-miterlimit="10"></path></g></g></svg>