<svg version="1.1" xmlns="http://www.w3.org/2000/svg" xmlns:xlink="http://www.w3.org/1999/xlink" width="277.2763671875" height="200"><defs/><g><text fill="#eeeeee" stroke="none" font-family="Arial" font-size="24px" font-style="normal" font-weight="normal" text-decoration="none" x="0" y="0">UNREGISTERED</text><text fill="#eeeeee" stroke="none" font-family="Arial" font-size="24px" font-style="normal" font-weight="normal" text-decoration="none" x="0" y="30">UNREGISTERED</text><text fill="#eeeeee" stroke="none" font-family="Arial" font-size="24px" font-style="normal" font-weight="normal" text-decoration="none" x="0" y="60">UNREGISTERED</text><text fill="#eeeeee" stroke="none" font-family="Arial" font-size="24px" font-style="normal" font-weight="normal" text-decoration="none" x="0" y="90">UNREGISTERED</text><text fill="#eeeeee" stroke="none" font-family="Arial" font-size="24px" font-style="normal" font-weight="normal" text-decoration="none" x="0" y="120">UNREGISTERED</text><text fill="#eeeeee" stroke="none" font-family="Arial" font-size="24px" font-style="normal" font-weight="normal" text-decoration="none" x="0" y="150">UNREGISTERED</text><text fill="#eeeeee" stroke="none" font-family="Arial" font-size="24px" font-style="normal" font-weight="normal" text-decoration="none" x="0" y="180">UNREGISTERED</text><text fill="#eeeeee" stroke="none" font-family="Arial" font-size="24px" font-style="normal" font-weight="normal" text-decoration="none" x="200" y="0">UNREGISTERED</text><text fill="#eeeeee" stroke="none" font-family="Arial" font-size="24px" font-style="normal" font-weight="normal" text-decoration="none" x="200" y="30">UNREGISTERED</text><text fill="#eeeeee" stroke="none" font-family="Arial" font-size="24px" font-style="normal" font-weight="normal" text-decoration="none" x="200" y="60">UNREGISTERED</text><text fill="#eeeeee" stroke="none" font-family="Arial" font-size="24px" font-style="normal" font-weight="normal" text-decoration="none" x="200" y="90">UNREGISTERED</text><text fill="#eeeeee" stroke="none" font-family="Arial" font-size="24px" font-style="normal" font-weight="normal" text-decoration="none" x="200" y="120">UNREGISTERED</text><text fill="#eeeeee" stroke="none" font-family="Arial" font-size="24px" font-style="normal" font-weight="normal" text-decoration="none" x="200" y="150">UNREGISTERED</text><text fill="#eeeeee" stroke="none" font-family="Arial" font-size="24px" font-style="normal" font-weight="normal" text-decoration="none" x="200" y="180">UNREGISTERED</text><g transform="translate(-78,-62) scale(1,1)"><rect fill="#C0C0C0" stroke="none" x="191" y="79" width="73.2763671875" height="44" opacity="0.2"/></g><g transform="translate(-78,-62) scale(1,1)"><rect fill="#ffffff" stroke="none" x="184" y="72" width="73.2763671875" height="44"/></g><g transform="translate(-78,-62) scale(1,1)"><path fill="none" stroke="#000000" d="M 184 72 L 257.2763671875 72 L 257.2763671875 116 L 184 116 L 184 72 Z Z" stroke-miterlimit="10"/></g><g transform="translate(-78,-62) scale(1,1)"><g><path fill="none" stroke="none"/><text fill="#000000" stroke="none" font-family="Arial" font-size="13px" font-style="normal" font-weight="bold" text-decoration="none" x="190.6455078125" y="91.5">Modalidad</text></g></g><g transform="translate(-78,-62) scale(1,1)"><rect fill="#C0C0C0" stroke="none" x="95" y="183" width="73.2763671875" height="44" opacity="0.2"/></g><g transform="translate(-78,-62) scale(1,1)"><rect fill="#ffffff" stroke="none" x="88" y="176" width="73.2763671875" height="44"/></g><g transform="translate(-78,-62) scale(1,1)"><path fill="none" stroke="#000000" d="M 88 176 L 161.2763671875 176 L 161.2763671875 220 L 88 220 L 88 176 Z Z" stroke-miterlimit="10"/></g><g transform="translate(-78,-62) scale(1,1)"><g><path fill="none" stroke="none"/><text fill="#000000" stroke="none" font-family="Arial" font-size="13px" font-style="normal" font-weight="bold" text-decoration="none" x="97.175048828125" y="195.5">Individual</text></g></g><g transform="translate(-78,-62) scale(1,1)"><rect fill="#C0C0C0" stroke="none" x="187" y="215" width="73.2763671875" height="44" opacity="0.2"/></g><g transform="translate(-78,-62) scale(1,1)"><rect fill="#ffffff" stroke="none" x="180" y="208" width="73.2763671875" height="44"/></g><g transform="translate(-78,-62) scale(1,1)"><path fill="none" stroke="#000000" d="M 180 208 L 253.2763671875 208 L 253.2763671875 252 L 180 252 L 180 208 Z Z" stroke-miterlimit="10"/></g><g transform="translate(-78,-62) scale(1,1)"><g><path fill="none" stroke="none"/><text fill="#000000" stroke="none" font-family="Arial" font-size="13px" font-style="normal" font-weight="bold" text-decoration="none" x="198.57275390625" y="227.5">Grupo</text></g></g><g transform="translate(-78,-62) scale(1,1)"><rect fill="#C0C0C0" stroke="none" x="279" y="183" width="73.2763671875" height="44" opacity="0.2"/></g><g transform="translate(-78,-62) scale(1,1)"><rect fill="#ffffff" stroke="none" x="272" y="176" width="73.2763671875" height="44"/></g><g transform="translate(-78,-62) scale(1,1)"><path fill="none" stroke="#000000" d="M 272 176 L 345.2763671875 176 L 345.2763671875 220 L 272 220 L 272 176 Z Z" stroke-miterlimit="10"/></g><g transform="translate(-78,-62) scale(1,1)"><g><path fill="none" stroke="none"/><text fill="#000000" stroke="none" font-family="Arial" font-size="13px" font-style="normal" font-weight="bold" text-decoration="none" x="284.7900390625" y="195.5">Sinergia</text></g></g><g transform="translate(-78,-62) scale(1,1)"><path fill="none" stroke="#000000" d="M 161 198 L 190 198 M 190 198 A 8 8 0 0 0 198 190 L 198 116" stroke-miterlimit="10"/></g><g transform="translate(-78,-62) scale(1,1)"><path fill="#FFFFFF" stroke="none" d="M 206.41903551203197 136.3253497152483 L 198 116 L 189.58096448796803 136.3253497152483"/></g><g transform="translate(-78,-62) scale(1,1)"><path fill="none" stroke="#000000" d="M 206.41903551203197 136.3253497152483 L 198 116 L 189.58096448796803 136.3253497152483 L 206.41903551203197 136.3253497152483" stroke-miterlimit="10"/></g><g transform="translate(-78,-62) scale(1,1)"><path fill="none" stroke="#000000" d="M 219 208 L 219 116" stroke-miterlimit="10"/></g><g transform="translate(-78,-62) scale(1,1)"><path fill="#FFFFFF" stroke="none" d="M 227.41903551203197 136.3253497152483 L 219 116 L 210.58096448796803 136.3253497152483"/></g><g transform="translate(-78,-62) scale(1,1)"><path fill="none" stroke="#000000" d="M 227.41903551203197 136.3253497152483 L 219 116 L 210.58096448796803 136.3253497152483 L 227.41903551203197 136.3253497152483" stroke-miterlimit="10"/></g><g transform="translate(-78,-62) scale(1,1)"><path fill="none" stroke="#000000" d="M 272 198 L 247 198 M 247 198 A 8 8 0 0 1 239 190 L 239 116" stroke-miterlimit="10"/></g><g transform="translate(-78,-62) scale(1,1)"><path fill="#FFFFFF" stroke="none" d="M 247.41903551203197 136.3253497152483 L 239 116 L 230.58096448796803 136.3253497152483"/></g><g transform="translate(-78,-62) scale(1,1)"><path fill="none" stroke="#000000" d="M 247.41903551203197 136.3253497152483 L 239 116 L 230.58096448796803 136.3253497152483 L 247.41903551203197 136.3253497152483" stroke-miterlimit="10"/></g></g></svg>