<svg version="1.1" xmlns="http://www.w3.org/2000/svg" xmlns:xlink="http://www.w3.org/1999/xlink" width="700" height="544"><defs/><g><text fill="#eeeeee" stroke="none" font-family="Arial" font-size="24px" font-style="normal" font-weight="normal" text-decoration="none" x="0" y="0">UNREGISTERED</text><text fill="#eeeeee" stroke="none" font-family="Arial" font-size="24px" font-style="normal" font-weight="normal" text-decoration="none" x="0" y="30">UNREGISTERED</text><text fill="#eeeeee" stroke="none" font-family="Arial" font-size="24px" font-style="normal" font-weight="normal" text-decoration="none" x="0" y="60">UNREGISTERED</text><text fill="#eeeeee" stroke="none" font-family="Arial" font-size="24px" font-style="normal" font-weight="normal" text-decoration="none" x="0" y="90">UNREGISTERED</text><text fill="#eeeeee" stroke="none" font-family="Arial" font-size="24px" font-style="normal" font-weight="normal" text-decoration="none" x="0" y="120">UNREGISTERED</text><text fill="#eeeeee" stroke="none" font-family="Arial" font-size="24px" font-style="normal" font-weight="normal" text-decoration="none" x="0" y="150">UNREGISTERED</text><text fill="#eeeeee" stroke="none" font-family="Arial" font-size="24px" font-style="normal" font-weight="normal" text-decoration="none" x="0" y="180">UNREGISTERED</text><text fill="#eeeeee" stroke="none" font-family="Arial" font-size="24px" font-style="normal" font-weight="normal" text-decoration="none" x="0" y="210">UNREGISTERED</text><text fill="#eeeeee" stroke="none" font-family="Arial" font-size="24px" font-style="normal" font-weight="normal" text-decoration="none" x="0" y="240">UNREGISTERED</text><text fill="#eeeeee" stroke="none" font-family="Arial" font-size="24px" font-style="normal" font-weight="normal" text-decoration="none" x="0" y="270">UNREGISTERED</text><text fill="#eeeeee" stroke="none" font-family="Arial" font-size="24px" font-style="normal" font-weight="normal" text-decoration="none" x="0" y="300">UNREGISTERED</text><text fill="#eeeeee" stroke="none" font-family="Arial" font-size="24px" font-style="normal" font-weight="normal" text-decoration="none" x="0" y="330">UNREGISTERED</text><text fill="#eeeeee" stroke="none" font-family="Arial" font-size="24px" font-style="normal" font-weight="normal" text-decoration="none" x="0" y="360">UNREGISTERED</text><text fill="#eeeeee" stroke="none" font-family="Arial" font-size="24px" font-style="normal" font-weight="normal" text-decoration="none" x="0" y="390">UNREGISTERED</text><text fill="#eeeeee" stroke="none" font-family="Arial" font-size="24px" font-style="normal" font-weight="normal" text-decoration="none" x="0" y="420">UNREGISTERED</text><text fill="#eeeeee" stroke="none" font-family="Arial" font-size="24px" font-style="normal" font-weight="normal" text-decoration="none" x="0" y="450">UNREGISTERED</text><text fill="#eeeeee" stroke="none" font-family="Arial" font-size="24px" font-style="normal" font-weight="normal" text-decoration="none" x="0" y="480">UNREGISTERED</text><text fill="#eeeeee" stroke="none" font-family="Arial" font-size="24px" font-style="normal" font-weight="normal" text-decoration="none" x="0" y="510">UNREGISTERED</text><text fill="#eeeeee" stroke="none" font-family="Arial" font-size="24px" font-style="normal" font-weight="normal" text-decoration="none" x="0" y="540">UNREGISTERED</text><text fill="#eeeeee" stroke="none" font-family="Arial" font-size="24px" font-style="normal" font-weight="normal" text-decoration="none" x="200" y="0">UNREGISTERED</text><text fill="#eeeeee" stroke="none" font-family="Arial" font-size="24px" font-style="normal" font-weight="normal" text-decoration="none" x="200" y="30">UNREGISTERED</text><text fill="#eeeeee" stroke="none" font-family="Arial" font-size="24px" font-style="normal" font-weight="normal" text-decoration="none" x="200" y="60">UNREGISTERED</text><text fill="#eeeeee" stroke="none" font-family="Arial" font-size="24px" font-style="normal" font-weight="normal" text-decoration="none" x="200" y="90">UNREGISTERED</text><text fill="#eeeeee" stroke="none" font-family="Arial" font-size="24px" font-style="normal" font-weight="normal" text-decoration="none" x="200" y="120">UNREGISTERED</text><text fill="#eeeeee" stroke="none" font-family="Arial" font-size="24px" font-style="normal" font-weight="normal" text-decoration="none" x="200" y="150">UNREGISTERED</text><text fill="#eeeeee" stroke="none" font-family="Arial" font-size="24px" font-style="normal" font-weight="normal" text-decoration="none" x="200" y="180">UNREGISTERED</text><text fill="#eeeeee" stroke="none" font-family="Arial" font-size="24px" font-style="normal" font-weight="normal" text-decoration="none" x="200" y="210">UNREGISTERED</text><text fill="#eeeeee" stroke="none" font-family="Arial" font-size="24px" font-style="normal" font-weight="normal" text-decoration="none" x="200" y="240">UNREGISTERED</text><text fill="#eeeeee" stroke="none" font-family="Arial" font-size="24px" font-style="normal" font-weight="normal" text-decoration="none" x="200" y="270">UNREGISTERED</text><text fill="#eeeeee" stroke="none" font-family="Arial" font-size="24px" font-style="normal" font-weight="normal" text-decoration="none" x="200" y="300">UNREGISTERED</text><text fill="#eeeeee" stroke="none" font-family="Arial" font-size="24px" font-style="normal" font-weight="normal" text-decoration="none" x="200" y="330">UNREGISTERED</text><text fill="#eeeeee" stroke="none" font-family="Arial" font-size="24px" font-style="normal" font-weight="normal" text-decoration="none" x="200" y="360">UNREGISTERED</text><text fill="#eeeeee" stroke="none" font-family="Arial" font-size="24px" font-style="normal" font-weight="normal" text-decoration="none" x="200" y="390">UNREGISTERED</text><text fill="#eeeeee" stroke="none" font-family="Arial" font-size="24px" font-style="normal" font-weight="normal" text-decoration="none" x="200" y="420">UNREGISTERED</text><text fill="#eeeeee" stroke="none" font-family="Arial" font-size="24px" font-style="normal" font-weight="normal" text-decoration="none" x="200" y="450">UNREGISTERED</text><text fill="#eeeeee" stroke="none" font-family="Arial" font-size="24px" font-style="normal" font-weight="normal" text-decoration="none" x="200" y="480">UNREGISTERED</text><text fill="#eeeeee" stroke="none" font-family="Arial" font-size="24px" font-style="normal" font-weight="normal" text-decoration="none" x="200" y="510">UNREGISTERED</text><text fill="#eeeeee" stroke="none" font-family="Arial" font-size="24px" font-style="normal" font-weight="normal" text-decoration="none" x="200" y="540">UNREGISTERED</text><text fill="#eeeeee" stroke="none" font-family="Arial" font-size="24px" font-style="normal" font-weight="normal" text-decoration="none" x="400" y="0">UNREGISTERED</text><text fill="#eeeeee" stroke="none" font-family="Arial" font-size="24px" font-style="normal" font-weight="normal" text-decoration="none" x="400" y="30">UNREGISTERED</text><text fill="#eeeeee" stroke="none" font-family="Arial" font-size="24px" font-style="normal" font-weight="normal" text-decoration="none" x="400" y="60">UNREGISTERED</text><text fill="#eeeeee" stroke="none" font-family="Arial" font-size="24px" font-style="normal" font-weight="normal" text-decoration="none" x="400" y="90">UNREGISTERED</text><text fill="#eeeeee" stroke="none" font-family="Arial" font-size="24px" font-style="normal" font-weight="normal" text-decoration="none" x="400" y="120">UNREGISTERED</text><text fill="#eeeeee" stroke="none" font-family="Arial" font-size="24px" font-style="normal" font-weight="normal" text-decoration="none" x="400" y="150">UNREGISTERED</text><text fill="#eeeeee" stroke="none" font-family="Arial" font-size="24px" font-style="normal" font-weight="normal" text-decoration="none" x="400" y="180">UNREGISTERED</text><text fill="#eeeeee" stroke="none" font-family="Arial" font-size="24px" font-style="normal" font-weight="normal" text-decoration="none" x="400" y="210">UNREGISTERED</text><text fill="#eeeeee" stroke="none" font-family="Arial" font-size="24px" font-style="normal" font-weight="normal" text-decoration="none" x="400" y="240">UNREGISTERED</text><text fill="#eeeeee" stroke="none" font-family="Arial" font-size="24px" font-style="normal" font-weight="normal" text-decoration="none" x="400" y="270">UNREGISTERED</text><text fill="#eeeeee" stroke="none" font-family="Arial" font-size="24px" font-style="normal" font-weight="normal" text-decoration="none" x="400" y="300">UNREGISTERED</text><text fill="#eeeeee" stroke="none" font-family="Arial" font-size="24px" font-style="normal" font-weight="normal" text-decoration="none" x="400" y="330">UNREGISTERED</text><text fill="#eeeeee" stroke="none" font-family="Arial" font-size="24px" font-style="normal" font-weight="normal" text-decoration="none" x="400" y="360">UNREGISTERED</text><text fill="#eeeeee" stroke="none" font-family="Arial" font-size="24px" font-style="normal" font-weight="normal" text-decoration="none" x="400" y="390">UNREGISTERED</text><text fill="#eeeeee" stroke="none" font-family="Arial" font-size="24px" font-style="normal" font-weight="normal" text-decoration="none" x="400" y="420">UNREGISTERED</text><text fill="#eeeeee" stroke="none" font-family="Arial" font-size="24px" font-style="normal" font-weight="normal" text-decoration="none" x="400" y="450">UNREGISTERED</text><text fill="#eeeeee" stroke="none" font-family="Arial" font-size="24px" font-style="normal" font-weight="normal" text-decoration="none" x="400" y="480">UNREGISTERED</text><text fill="#eeeeee" stroke="none" font-family="Arial" font-size="24px" font-style="normal" font-weight="normal" text-decoration="none" x="400" y="510">UNREGISTERED</text><text fill="#eeeeee" stroke="none" font-family="Arial" font-size="24px" font-style="normal" font-weight="normal" text-decoration="none" x="400" y="540">UNREGISTERED</text><text fill="#eeeeee" stroke="none" font-family="Arial" font-size="24px" font-style="normal" font-weight="normal" text-decoration="none" x="600" y="0">UNREGISTERED</text><text fill="#eeeeee" stroke="none" font-family="Arial" font-size="24px" font-style="normal" font-weight="normal" text-decoration="none" x="600" y="30">UNREGISTERED</text><text fill="#eeeeee" stroke="none" font-family="Arial" font-size="24px" font-style="normal" font-weight="normal" text-decoration="none" x="600" y="60">UNREGISTERED</text><text fill="#eeeeee" stroke="none" font-family="Arial" font-size="24px" font-style="normal" font-weight="normal" text-decoration="none" x="600" y="90">UNREGISTERED</text><text fill="#eeeeee" stroke="none" font-family="Arial" font-size="24px" font-style="normal" font-weight="normal" text-decoration="none" x="600" y="120">UNREGISTERED</text><text fill="#eeeeee" stroke="none" font-family="Arial" font-size="24px" font-style="normal" font-weight="normal" text-decoration="none" x="600" y="150">UNREGISTERED</text><text fill="#eeeeee" stroke="none" font-family="Arial" font-size="24px" font-style="normal" font-weight="normal" text-decoration="none" x="600" y="180">UNREGISTERED</text><text fill="#eeeeee" stroke="none" font-family="Arial" font-size="24px" font-style="normal" font-weight="normal" text-decoration="none" x="600" y="210">UNREGISTERED</text><text fill="#eeeeee" stroke="none" font-family="Arial" font-size="24px" font-style="normal" font-weight="normal" text-decoration="none" x="600" y="240">UNREGISTERED</text><text fill="#eeeeee" stroke="none" font-family="Arial" font-size="24px" font-style="normal" font-weight="normal" text-decoration="none" x="600" y="270">UNREGISTERED</text><text fill="#eeeeee" stroke="none" font-family="Arial" font-size="24px" font-style="normal" font-weight="normal" text-decoration="none" x="600" y="300">UNREGISTERED</text><text fill="#eeeeee" stroke="none" font-family="Arial" font-size="24px" font-style="normal" font-weight="normal" text-decoration="none" x="600" y="330">UNREGISTERED</text><text fill="#eeeeee" stroke="none" font-family="Arial" font-size="24px" font-style="normal" font-weight="normal" text-decoration="none" x="600" y="360">UNREGISTERED</text><text fill="#eeeeee" stroke="none" font-family="Arial" font-size="24px" font-style="normal" font-weight="normal" text-decoration="none" x="600" y="390">UNREGISTERED</text><text fill="#eeeeee" stroke="none" font-family="Arial" font-size="24px" font-style="normal" font-weight="normal" text-decoration="none" x="600" y="420">UNREGISTERED</text><text fill="#eeeeee" stroke="none" font-family="Arial" font-size="24px" font-style="normal" font-weight="normal" text-decoration="none" x="600" y="450">UNREGISTERED</text><text fill="#eeeeee" stroke="none" font-family="Arial" font-size="24px" font-style="normal" font-weight="normal" text-decoration="none" x="600" y="480">UNREGISTERED</text><text fill="#eeeeee" stroke="none" font-family="Arial" font-size="24px" font-style="normal" font-weight="normal" text-decoration="none" x="600" y="510">UNREGISTERED</text><text fill="#eeeeee" stroke="none" font-family="Arial" font-size="24px" font-style="normal" font-weight="normal" text-decoration="none" x="600" y="540">UNREGISTERED</text><g transform="translate(-86,-70) scale(1,1)"><rect fill="#C0C0C0" stroke="none" x="215" y="87" width="148.8388671875" height="150" opacity="0.2"/></g><g transform="translate(-86,-70) scale(1,1)"><rect fill="#ffffff" stroke="none" x="208" y="80" width="148.8388671875" height="150"/></g><g transform="translate(-86,-70) scale(1,1)"><path fill="none" stroke="#000000" d="M 208 80 L 356.8388671875 80 L 356.8388671875 230 L 208 230 L 208 80 Z Z" stroke-miterlimit="10"/></g><g transform="translate(-86,-70) scale(1,1)"><path fill="none" stroke="#000000" d="M 208 118 L 356.8388671875 118" stroke-miterlimit="10"/></g><g transform="translate(-86,-70) scale(1,1)"><g><path fill="none" stroke="none"/><text fill="#000000" stroke="none" font-family="Arial" font-size="13px" font-style="normal" font-weight="normal" text-decoration="none" x="249.17041015625" y="97.5">«Catálogo»</text></g></g><g transform="translate(-86,-70) scale(1,1)"><g><path fill="none" stroke="none"/><text fill="#000000" stroke="none" font-family="Arial" font-size="13px" font-style="normal" font-weight="bold" text-decoration="none" x="252.4267578125" y="112.5">Modalidad</text></g></g><g transform="translate(-86,-70) scale(1,1)"><g><path fill="none" stroke="none"/><text fill="#000000" stroke="none" font-family="Arial" font-size="13px" font-style="normal" font-weight="normal" text-decoration="none" x="213" y="135.5">+nombre: String</text></g></g><g transform="translate(-86,-70) scale(1,1)"><g><path fill="none" stroke="none"/><text fill="#000000" stroke="none" font-family="Arial" font-size="13px" font-style="normal" font-weight="normal" text-decoration="none" x="213" y="150.5">+descripción: String</text></g></g><g transform="translate(-86,-70) scale(1,1)"><g><path fill="none" stroke="none"/><text fill="#000000" stroke="none" font-family="Arial" font-size="13px" font-style="normal" font-weight="normal" text-decoration="none" x="213" y="165.5">+montoMáximo: Double</text></g></g><g transform="translate(-86,-70) scale(1,1)"><g><path fill="none" stroke="none"/><text fill="#000000" stroke="none" font-family="Arial" font-size="13px" font-style="normal" font-weight="normal" text-decoration="none" x="213" y="180.5">+duración: Integer</text></g></g><g transform="translate(-86,-70) scale(1,1)"><g><path fill="none" stroke="none"/><text fill="#000000" stroke="none" font-family="Arial" font-size="13px" font-style="normal" font-weight="normal" text-decoration="none" x="213" y="195.5">+numeroEtapas: Integer</text></g></g><g transform="translate(-86,-70) scale(1,1)"><g><path fill="none" stroke="none"/><text fill="#000000" stroke="none" font-family="Arial" font-size="13px" font-style="normal" font-weight="normal" text-decoration="none" x="213" y="210.5">+fechaInicio: Date</text></g></g><g transform="translate(-86,-70) scale(1,1)"><g><path fill="none" stroke="none"/><text fill="#000000" stroke="none" font-family="Arial" font-size="13px" font-style="normal" font-weight="normal" text-decoration="none" x="213" y="225.5">+fechaFin: Date</text></g></g><g transform="translate(-86,-70) scale(1,1)"><rect fill="#C0C0C0" stroke="none" x="111" y="295" width="104" height="68" opacity="0.2"/></g><g transform="translate(-86,-70) scale(1,1)"><rect fill="#ffffff" stroke="none" x="104" y="288" width="104" height="68"/></g><g transform="translate(-86,-70) scale(1,1)"><path fill="none" stroke="#000000" d="M 104 288 L 208 288 L 208 356 L 104 356 L 104 288 Z Z" stroke-miterlimit="10"/></g><g transform="translate(-86,-70) scale(1,1)"><g><path fill="none" stroke="none"/><text fill="#000000" stroke="none" font-family="Arial" font-size="13px" font-style="normal" font-weight="normal" text-decoration="none" x="136.36669921875" y="305.5">«Tipo»</text></g></g><g transform="translate(-86,-70) scale(1,1)"><g><path fill="none" stroke="none"/><text fill="#000000" stroke="none" font-family="Arial" font-size="13px" font-style="normal" font-weight="bold" text-decoration="none" x="128.536865234375" y="320.5">Individual</text></g></g><g transform="translate(-86,-70) scale(1,1)"><rect fill="#C0C0C0" stroke="none" x="223" y="367" width="104" height="68" opacity="0.2"/></g><g transform="translate(-86,-70) scale(1,1)"><rect fill="#ffffff" stroke="none" x="216" y="360" width="104" height="68"/></g><g transform="translate(-86,-70) scale(1,1)"><path fill="none" stroke="#000000" d="M 216 360 L 320 360 L 320 428 L 216 428 L 216 360 Z Z" stroke-miterlimit="10"/></g><g transform="translate(-86,-70) scale(1,1)"><g><path fill="none" stroke="none"/><text fill="#000000" stroke="none" font-family="Arial" font-size="13px" font-style="normal" font-weight="normal" text-decoration="none" x="248.36669921875" y="377.5">«Tipo»</text></g></g><g transform="translate(-86,-70) scale(1,1)"><g><path fill="none" stroke="none"/><text fill="#000000" stroke="none" font-family="Arial" font-size="13px" font-style="normal" font-weight="bold" text-decoration="none" x="249.9345703125" y="392.5">Grupo</text></g></g><g transform="translate(-86,-70) scale(1,1)"><rect fill="#C0C0C0" stroke="none" x="335" y="295" width="104" height="68" opacity="0.2"/></g><g transform="translate(-86,-70) scale(1,1)"><rect fill="#ffffff" stroke="none" x="328" y="288" width="104" height="68"/></g><g transform="translate(-86,-70) scale(1,1)"><path fill="none" stroke="#000000" d="M 328 288 L 432 288 L 432 356 L 328 356 L 328 288 Z Z" stroke-miterlimit="10"/></g><g transform="translate(-86,-70) scale(1,1)"><g><path fill="none" stroke="none"/><text fill="#000000" stroke="none" font-family="Arial" font-size="13px" font-style="normal" font-weight="normal" text-decoration="none" x="360.36669921875" y="305.5">«Tipo»</text></g></g><g transform="translate(-86,-70) scale(1,1)"><g><path fill="none" stroke="none"/><text fill="#000000" stroke="none" font-family="Arial" font-size="13px" font-style="normal" font-weight="bold" text-decoration="none" x="356.15185546875" y="320.5">Sinergia</text></g></g><g transform="translate(-86,-70) scale(1,1)"><path fill="none" stroke="#000000" d="M 208 310 L 238 310 M 238 310 A 8 8 0 0 0 246 302 L 246 230" stroke-miterlimit="10"/></g><g transform="translate(-86,-70) scale(1,1)"><path fill="#FFFFFF" stroke="none" d="M 254.41903551203197 250.3253497152483 L 246 230 L 237.58096448796803 250.3253497152483"/></g><g transform="translate(-86,-70) scale(1,1)"><path fill="none" stroke="#000000" d="M 254.41903551203197 250.3253497152483 L 246 230 L 237.58096448796803 250.3253497152483 L 254.41903551203197 250.3253497152483" stroke-miterlimit="10"/></g><g transform="translate(-86,-70) scale(1,1)"><path fill="none" stroke="#000000" d="M 267 360 L 267 230" stroke-miterlimit="10"/></g><g transform="translate(-86,-70) scale(1,1)"><path fill="#FFFFFF" stroke="none" d="M 275.419035512032 250.3253497152483 L 267 230 L 258.580964487968 250.3253497152483"/></g><g transform="translate(-86,-70) scale(1,1)"><path fill="none" stroke="#000000" d="M 275.419035512032 250.3253497152483 L 267 230 L 258.580964487968 250.3253497152483 L 275.419035512032 250.3253497152483" stroke-miterlimit="10"/></g><g transform="translate(-86,-70) scale(1,1)"><path fill="none" stroke="#000000" d="M 328 310 L 295 310 M 295 310 A 8 8 0 0 1 287 302 L 287 230" stroke-miterlimit="10"/></g><g transform="translate(-86,-70) scale(1,1)"><path fill="#FFFFFF" stroke="none" d="M 295.419035512032 250.3253497152483 L 287 230 L 278.580964487968 250.3253497152483"/></g><g transform="translate(-86,-70) scale(1,1)"><path fill="none" stroke="#000000" d="M 295.419035512032 250.3253497152483 L 287 230 L 278.580964487968 250.3253497152483 L 295.419035512032 250.3253497152483" stroke-miterlimit="10"/></g><g transform="translate(-86,-70) scale(1,1)"><path fill="#ffffff" stroke="none" d="M 96 448 L 197 448 L 207 458 L 207 603 L 96 603 L 96 448"/></g><g transform="translate(-86,-70) scale(1,1)"><path fill="none" stroke="#000000" d="M 96 448 L 197 448 L 207 458 L 207 603 L 96 603 L 96 448 L 96 448" stroke-miterlimit="10"/></g><g transform="translate(-86,-70) scale(1,1)"><path fill="none" stroke="#000000" d="M 197 448 L 197 458 L 207 458 L 197 448" stroke-miterlimit="10"/></g><g transform="translate(-86,-70) scale(1,1)"><g><path fill="none" stroke="none"/><text fill="#000000" stroke="none" font-family="Arial" font-size="13px" font-style="normal" font-weight="normal" text-decoration="none" x="101" y="466">Monto Máximo</text><text fill="#000000" stroke="none" font-family="Arial" font-size="13px" font-style="normal" font-weight="normal" text-decoration="none" x="101" y="479">$500,000</text><text fill="#000000" stroke="none" font-family="Arial" font-size="13px" font-style="normal" font-weight="normal" text-decoration="none" x="101" y="492">(quinientos</text></g></g><g transform="translate(-86,-70) scale(1,1)"><g><path fill="none" stroke="none"/><text fill="#000000" stroke="none" font-family="Arial" font-size="13px" font-style="normal" font-weight="normal" text-decoration="none" x="101" y="507">mil pesos 00/100</text><text fill="#000000" stroke="none" font-family="Arial" font-size="13px" font-style="normal" font-weight="normal" text-decoration="none" x="101" y="520">M.N.), con</text><text fill="#000000" stroke="none" font-family="Arial" font-size="13px" font-style="normal" font-weight="normal" text-decoration="none" x="101" y="533">duración de dos</text><text fill="#000000" stroke="none" font-family="Arial" font-size="13px" font-style="normal" font-weight="normal" text-decoration="none" x="101" y="546">años (12 meses).</text><text fill="#000000" stroke="none" font-family="Arial" font-size="13px" font-style="normal" font-weight="normal" text-decoration="none" x="101" y="559">Contará con una</text><text fill="#000000" stroke="none" font-family="Arial" font-size="13px" font-style="normal" font-weight="normal" text-decoration="none" x="101" y="572">etapa dividida en</text><text fill="#000000" stroke="none" font-family="Arial" font-size="13px" font-style="normal" font-weight="normal" text-decoration="none" x="101" y="585">dos.</text></g></g><g transform="translate(-86,-70) scale(1,1)"><path fill="#ffffff" stroke="none" d="M 216 488 L 485 488 L 495 498 L 495 559 L 216 559 L 216 488"/></g><g transform="translate(-86,-70) scale(1,1)"><path fill="none" stroke="#000000" d="M 216 488 L 485 488 L 495 498 L 495 559 L 216 559 L 216 488 L 216 488" stroke-miterlimit="10"/></g><g transform="translate(-86,-70) scale(1,1)"><path fill="none" stroke="#000000" d="M 485 488 L 485 498 L 495 498 L 485 488" stroke-miterlimit="10"/></g><g transform="translate(-86,-70) scale(1,1)"><g><path fill="none" stroke="none"/><text fill="#000000" stroke="none" font-family="Arial" font-size="13px" font-style="normal" font-weight="normal" text-decoration="none" x="221" y="506">Monto Máximo de $4,500,000.00 (cuatro</text></g></g><g transform="translate(-86,-70) scale(1,1)"><g><path fill="none" stroke="none"/><text fill="#000000" stroke="none" font-family="Arial" font-size="13px" font-style="normal" font-weight="normal" text-decoration="none" x="221" y="521">millones quinientos mil pesos 00/100 M.N.),</text><text fill="#000000" stroke="none" font-family="Arial" font-size="13px" font-style="normal" font-weight="normal" text-decoration="none" x="221" y="534">con una duración de 3 años (36 meses)</text><text fill="#000000" stroke="none" font-family="Arial" font-size="13px" font-style="normal" font-weight="normal" text-decoration="none" x="221" y="547">contará con dos etapas anuales</text></g></g><g transform="translate(-86,-70) scale(1,1)"><path fill="none" stroke="#000000" d="M 155 448 L 155 356" stroke-miterlimit="10" stroke-dasharray="3"/></g><g transform="translate(-86,-70) scale(1,1)"><path fill="none" stroke="#000000" d="M 264 488 L 264 428" stroke-miterlimit="10" stroke-dasharray="3"/></g><g transform="translate(-86,-70) scale(1,1)"><path fill="#ffffff" stroke="none" d="M 472 280 L 765 280 L 775 290 L 775 359 L 472 359 L 472 280"/></g><g transform="translate(-86,-70) scale(1,1)"><path fill="none" stroke="#000000" d="M 472 280 L 765 280 L 775 290 L 775 359 L 472 359 L 472 280 L 472 280" stroke-miterlimit="10"/></g><g transform="translate(-86,-70) scale(1,1)"><path fill="none" stroke="#000000" d="M 765 280 L 765 290 L 775 290 L 765 280" stroke-miterlimit="10"/></g><g transform="translate(-86,-70) scale(1,1)"><g><path fill="none" stroke="none"/><text fill="#000000" stroke="none" font-family="Arial" font-size="13px" font-style="normal" font-weight="normal" text-decoration="none" x="477" y="298">Monto Máximo de hasta</text></g></g><g transform="translate(-86,-70) scale(1,1)"><g><path fill="none" stroke="none"/><text fill="#000000" stroke="none" font-family="Arial" font-size="13px" font-style="normal" font-weight="normal" text-decoration="none" x="477" y="313">$30,000,000.00 (treinta millones de pesos 00/100</text><text fill="#000000" stroke="none" font-family="Arial" font-size="13px" font-style="normal" font-weight="normal" text-decoration="none" x="477" y="326">M.N.), con una duración de 3 años (36 meses),</text><text fill="#000000" stroke="none" font-family="Arial" font-size="13px" font-style="normal" font-weight="normal" text-decoration="none" x="477" y="339">dividido en tres períodos (etapas)</text></g></g><g transform="translate(-86,-70) scale(1,1)"><g><path fill="none" stroke="none"/><text fill="#000000" stroke="none" font-family="Arial" font-size="13px" font-style="normal" font-weight="normal" text-decoration="none" x="477" y="354">anuales.</text></g></g><g transform="translate(-86,-70) scale(1,1)"><path fill="none" stroke="#000000" d="M 472 318 L 432 318" stroke-miterlimit="10" stroke-dasharray="3"/></g></g></svg>