<svg version="1.1" xmlns="http://www.w3.org/2000/svg" xmlns:xlink="http://www.w3.org/1999/xlink" width="607.7490234375" height="316"><defs/><g><text fill="#eeeeee" stroke="none" font-family="Arial" font-size="24px" font-style="normal" font-weight="normal" text-decoration="none" x="0" y="0">UNREGISTERED</text><text fill="#eeeeee" stroke="none" font-family="Arial" font-size="24px" font-style="normal" font-weight="normal" text-decoration="none" x="0" y="30">UNREGISTERED</text><text fill="#eeeeee" stroke="none" font-family="Arial" font-size="24px" font-style="normal" font-weight="normal" text-decoration="none" x="0" y="60">UNREGISTERED</text><text fill="#eeeeee" stroke="none" font-family="Arial" font-size="24px" font-style="normal" font-weight="normal" text-decoration="none" x="0" y="90">UNREGISTERED</text><text fill="#eeeeee" stroke="none" font-family="Arial" font-size="24px" font-style="normal" font-weight="normal" text-decoration="none" x="0" y="120">UNREGISTERED</text><text fill="#eeeeee" stroke="none" font-family="Arial" font-size="24px" font-style="normal" font-weight="normal" text-decoration="none" x="0" y="150">UNREGISTERED</text><text fill="#eeeeee" stroke="none" font-family="Arial" font-size="24px" font-style="normal" font-weight="normal" text-decoration="none" x="0" y="180">UNREGISTERED</text><text fill="#eeeeee" stroke="none" font-family="Arial" font-size="24px" font-style="normal" font-weight="normal" text-decoration="none" x="0" y="210">UNREGISTERED</text><text fill="#eeeeee" stroke="none" font-family="Arial" font-size="24px" font-style="normal" font-weight="normal" text-decoration="none" x="0" y="240">UNREGISTERED</text><text fill="#eeeeee" stroke="none" font-family="Arial" font-size="24px" font-style="normal" font-weight="normal" text-decoration="none" x="0" y="270">UNREGISTERED</text><text fill="#eeeeee" stroke="none" font-family="Arial" font-size="24px" font-style="normal" font-weight="normal" text-decoration="none" x="0" y="300">UNREGISTERED</text><text fill="#eeeeee" stroke="none" font-family="Arial" font-size="24px" font-style="normal" font-weight="normal" text-decoration="none" x="200" y="0">UNREGISTERED</text><text fill="#eeeeee" stroke="none" font-family="Arial" font-size="24px" font-style="normal" font-weight="normal" text-decoration="none" x="200" y="30">UNREGISTERED</text><text fill="#eeeeee" stroke="none" font-family="Arial" font-size="24px" font-style="normal" font-weight="normal" text-decoration="none" x="200" y="60">UNREGISTERED</text><text fill="#eeeeee" stroke="none" font-family="Arial" font-size="24px" font-style="normal" font-weight="normal" text-decoration="none" x="200" y="90">UNREGISTERED</text><text fill="#eeeeee" stroke="none" font-family="Arial" font-size="24px" font-style="normal" font-weight="normal" text-decoration="none" x="200" y="120">UNREGISTERED</text><text fill="#eeeeee" stroke="none" font-family="Arial" font-size="24px" font-style="normal" font-weight="normal" text-decoration="none" x="200" y="150">UNREGISTERED</text><text fill="#eeeeee" stroke="none" font-family="Arial" font-size="24px" font-style="normal" font-weight="normal" text-decoration="none" x="200" y="180">UNREGISTERED</text><text fill="#eeeeee" stroke="none" font-family="Arial" font-size="24px" font-style="normal" font-weight="normal" text-decoration="none" x="200" y="210">UNREGISTERED</text><text fill="#eeeeee" stroke="none" font-family="Arial" font-size="24px" font-style="normal" font-weight="normal" text-decoration="none" x="200" y="240">UNREGISTERED</text><text fill="#eeeeee" stroke="none" font-family="Arial" font-size="24px" font-style="normal" font-weight="normal" text-decoration="none" x="200" y="270">UNREGISTERED</text><text fill="#eeeeee" stroke="none" font-family="Arial" font-size="24px" font-style="normal" font-weight="normal" text-decoration="none" x="200" y="300">UNREGISTERED</text><text fill="#eeeeee" stroke="none" font-family="Arial" font-size="24px" font-style="normal" font-weight="normal" text-decoration="none" x="400" y="0">UNREGISTERED</text><text fill="#eeeeee" stroke="none" font-family="Arial" font-size="24px" font-style="normal" font-weight="normal" text-decoration="none" x="400" y="30">UNREGISTERED</text><text fill="#eeeeee" stroke="none" font-family="Arial" font-size="24px" font-style="normal" font-weight="normal" text-decoration="none" x="400" y="60">UNREGISTERED</text><text fill="#eeeeee" stroke="none" font-family="Arial" font-size="24px" font-style="normal" font-weight="normal" text-decoration="none" x="400" y="90">UNREGISTERED</text><text fill="#eeeeee" stroke="none" font-family="Arial" font-size="24px" font-style="normal" font-weight="normal" text-decoration="none" x="400" y="120">UNREGISTERED</text><text fill="#eeeeee" stroke="none" font-family="Arial" font-size="24px" font-style="normal" font-weight="normal" text-decoration="none" x="400" y="150">UNREGISTERED</text><text fill="#eeeeee" stroke="none" font-family="Arial" font-size="24px" font-style="normal" font-weight="normal" text-decoration="none" x="400" y="180">UNREGISTERED</text><text fill="#eeeeee" stroke="none" font-family="Arial" font-size="24px" font-style="normal" font-weight="normal" text-decoration="none" x="400" y="210">UNREGISTERED</text><text fill="#eeeeee" stroke="none" font-family="Arial" font-size="24px" font-style="normal" font-weight="normal" text-decoration="none" x="400" y="240">UNREGISTERED</text><text fill="#eeeeee" stroke="none" font-family="Arial" font-size="24px" font-style="normal" font-weight="normal" text-decoration="none" x="400" y="270">UNREGISTERED</text><text fill="#eeeeee" stroke="none" font-family="Arial" font-size="24px" font-style="normal" font-weight="normal" text-decoration="none" x="400" y="300">UNREGISTERED</text><text fill="#eeeeee" stroke="none" font-family="Arial" font-size="24px" font-style="normal" font-weight="normal" text-decoration="none" x="600" y="0">UNREGISTERED</text><text fill="#eeeeee" stroke="none" font-family="Arial" font-size="24px" font-style="normal" font-weight="normal" text-decoration="none" x="600" y="30">UNREGISTERED</text><text fill="#eeeeee" stroke="none" font-family="Arial" font-size="24px" font-style="normal" font-weight="normal" text-decoration="none" x="600" y="60">UNREGISTERED</text><text fill="#eeeeee" stroke="none" font-family="Arial" font-size="24px" font-style="normal" font-weight="normal" text-decoration="none" x="600" y="90">UNREGISTERED</text><text fill="#eeeeee" stroke="none" font-family="Arial" font-size="24px" font-style="normal" font-weight="normal" text-decoration="none" x="600" y="120">UNREGISTERED</text><text fill="#eeeeee" stroke="none" font-family="Arial" font-size="24px" font-style="normal" font-weight="normal" text-decoration="none" x="600" y="150">UNREGISTERED</text><text fill="#eeeeee" stroke="none" font-family="Arial" font-size="24px" font-style="normal" font-weight="normal" text-decoration="none" x="600" y="180">UNREGISTERED</text><text fill="#eeeeee" stroke="none" font-family="Arial" font-size="24px" font-style="normal" font-weight="normal" text-decoration="none" x="600" y="210">UNREGISTERED</text><text fill="#eeeeee" stroke="none" font-family="Arial" font-size="24px" font-style="normal" font-weight="normal" text-decoration="none" x="600" y="240">UNREGISTERED</text><text fill="#eeeeee" stroke="none" font-family="Arial" font-size="24px" font-style="normal" font-weight="normal" text-decoration="none" x="600" y="270">UNREGISTERED</text><text fill="#eeeeee" stroke="none" font-family="Arial" font-size="24px" font-style="normal" font-weight="normal" text-decoration="none" x="600" y="300">UNREGISTERED</text><g transform="translate(-78,-134) scale(1,1)"><rect fill="#C0C0C0" stroke="none" x="311" y="151" width="146.4853515625" height="296" opacity="0.2"/></g><g transform="translate(-78,-134) scale(1,1)"><rect fill="#ffffff" stroke="none" x="304" y="144" width="146.4853515625" height="296"/></g><g transform="translate(-78,-134) scale(1,1)"><path fill="none" stroke="#000000" d="M 304 144 L 450.4853515625 144 L 450.4853515625 440 L 304 440 L 304 144 Z Z" stroke-miterlimit="10"/></g><g transform="translate(-78,-134) scale(1,1)"><path fill="none" stroke="#000000" d="M 304 169 L 450.4853515625 169" stroke-miterlimit="10"/></g><g transform="translate(-78,-134) scale(1,1)"><g><path fill="none" stroke="none"/><text fill="#000000" stroke="none" font-family="Arial" font-size="13px" font-style="normal" font-weight="bold" text-decoration="none" x="326.674072265625" y="163.5">Firma Electronica</text></g></g><g transform="translate(-78,-134) scale(1,1)"><g><path fill="none" stroke="none"/><text fill="#000000" stroke="none" font-family="Arial" font-size="13px" font-style="normal" font-weight="normal" text-decoration="none" x="309" y="186.5">+cadenaOriginal</text></g></g><g transform="translate(-78,-134) scale(1,1)"><g><path fill="none" stroke="none"/><text fill="#000000" stroke="none" font-family="Arial" font-size="13px" font-style="normal" font-weight="normal" text-decoration="none" x="309" y="201.5">+selloDigital: String</text></g></g><g transform="translate(-78,-134) scale(1,1)"><g><path fill="none" stroke="none"/><text fill="#000000" stroke="none" font-family="Arial" font-size="13px" font-style="normal" font-weight="normal" text-decoration="none" x="309" y="216.5">+certificado: Blob</text></g></g><g transform="translate(-78,-134) scale(1,1)"><g><path fill="none" stroke="none"/><text fill="#000000" stroke="none" font-family="Arial" font-size="13px" font-style="normal" font-weight="normal" text-decoration="none" x="309" y="231.5">+tipo: TipoFirma</text></g></g><g transform="translate(-78,-134) scale(1,1)"><g><path fill="none" stroke="none"/><text fill="#000000" stroke="none" font-family="Arial" font-size="13px" font-style="normal" font-weight="normal" text-decoration="none" x="309" y="246.5">+fechaAcuse</text></g></g><g transform="translate(-78,-134) scale(1,1)"><rect fill="#C0C0C0" stroke="none" x="95" y="319" width="81.0478515625" height="44" opacity="0.2"/></g><g transform="translate(-78,-134) scale(1,1)"><rect fill="#ffffff" stroke="none" x="88" y="312" width="81.0478515625" height="44"/></g><g transform="translate(-78,-134) scale(1,1)"><path fill="none" stroke="#000000" d="M 88 312 L 169.0478515625 312 L 169.0478515625 356 L 88 356 L 88 312 Z Z" stroke-miterlimit="10"/></g><g transform="translate(-78,-134) scale(1,1)"><g><path fill="none" stroke="none"/><text fill="#000000" stroke="none" font-family="Arial" font-size="13px" font-style="normal" font-weight="bold" text-decoration="none" x="97.950439453125" y="331.5">Firma SAT</text></g></g><g transform="translate(-78,-134) scale(1,1)"><rect fill="#C0C0C0" stroke="none" x="183" y="319" width="90.63720703125" height="44" opacity="0.2"/></g><g transform="translate(-78,-134) scale(1,1)"><rect fill="#ffffff" stroke="none" x="176" y="312" width="90.63720703125" height="44"/></g><g transform="translate(-78,-134) scale(1,1)"><path fill="none" stroke="#000000" d="M 176 312 L 266.63720703125 312 L 266.63720703125 356 L 176 356 L 176 312 Z Z" stroke-miterlimit="10"/></g><g transform="translate(-78,-134) scale(1,1)"><g><path fill="none" stroke="none"/><text fill="#000000" stroke="none" font-family="Arial" font-size="13px" font-style="normal" font-weight="bold" text-decoration="none" x="183.035888671875" y="331.5">Firma Simple</text></g></g><g transform="translate(-78,-134) scale(1,1)"><path fill="none" stroke="#000000" d="M 144 312 L 144 225" stroke-miterlimit="10"/></g><g transform="translate(-78,-134) scale(1,1)"><path fill="#FFFFFF" stroke="none" d="M 152.41903551203197 245.3253497152483 L 144 225 L 135.58096448796803 245.3253497152483"/></g><g transform="translate(-78,-134) scale(1,1)"><path fill="none" stroke="#000000" d="M 152.41903551203197 245.3253497152483 L 144 225 L 135.58096448796803 245.3253497152483 L 152.41903551203197 245.3253497152483" stroke-miterlimit="10"/></g><g transform="translate(-78,-134) scale(1,1)"><path fill="none" stroke="#000000" d="M 200 312 L 200 225" stroke-miterlimit="10"/></g><g transform="translate(-78,-134) scale(1,1)"><path fill="#FFFFFF" stroke="none" d="M 208.41903551203197 245.3253497152483 L 200 225 L 191.58096448796803 245.3253497152483"/></g><g transform="translate(-78,-134) scale(1,1)"><path fill="none" stroke="#000000" d="M 208.41903551203197 245.3253497152483 L 200 225 L 191.58096448796803 245.3253497152483 L 208.41903551203197 245.3253497152483" stroke-miterlimit="10"/></g><g transform="translate(-78,-134) scale(1,1)"><rect fill="#C0C0C0" stroke="none" x="535" y="239" width="136" height="56" opacity="0.2"/></g><g transform="translate(-78,-134) scale(1,1)"><rect fill="#ffffff" stroke="none" x="528" y="232" width="136" height="56"/></g><g transform="translate(-78,-134) scale(1,1)"><path fill="none" stroke="#000000" d="M 528 232 L 664 232 L 664 288 L 528 288 L 528 232 Z Z" stroke-miterlimit="10"/></g><g transform="translate(-78,-134) scale(1,1)"><g><path fill="none" stroke="none"/><text fill="#000000" stroke="none" font-family="Arial" font-size="13px" font-style="normal" font-weight="normal" text-decoration="none" x="562.7509765625" y="249.5">«Catálogo»</text></g></g><g transform="translate(-78,-134) scale(1,1)"><g><path fill="none" stroke="none"/><text fill="#000000" stroke="none" font-family="Arial" font-size="13px" font-style="normal" font-weight="bold" text-decoration="none" x="563.11279296875" y="264.5">Etapa de la</text><text fill="#000000" stroke="none" font-family="Arial" font-size="13px" font-style="normal" font-weight="bold" text-decoration="none" x="571.431396484375" y="277.5">Solicitud</text></g></g><g transform="translate(-78,-134) scale(1,1)"><rect fill="#C0C0C0" stroke="none" x="535" y="311" width="136" height="56" opacity="0.2"/></g><g transform="translate(-78,-134) scale(1,1)"><rect fill="#ffffff" stroke="none" x="528" y="304" width="136" height="56"/></g><g transform="translate(-78,-134) scale(1,1)"><path fill="none" stroke="#000000" d="M 528 304 L 664 304 L 664 360 L 528 360 L 528 304 Z Z" stroke-miterlimit="10"/></g><g transform="translate(-78,-134) scale(1,1)"><g><path fill="none" stroke="none"/><text fill="#000000" stroke="none" font-family="Arial" font-size="13px" font-style="normal" font-weight="bold" text-decoration="none" x="570.34912109375" y="323.5">Proyecto</text></g></g><g transform="translate(-78,-134) scale(1,1)"><g><path fill="none" stroke="none"/><text fill="#000000" stroke="none" font-family="Arial" font-size="13px" font-style="normal" font-weight="normal" text-decoration="none" x="551.214111328125" y="338.5">(from Proyecto)</text></g></g><g transform="translate(-78,-134) scale(1,1)"><path fill="none" stroke="#000000" d="M 450 256 L 528 256" stroke-miterlimit="10"/></g><g transform="translate(-78,-134) scale(1,1)"><path fill="none" stroke="#000000" d="M 517.8373251423759 260.209517756016 L 528 256 L 517.8373251423758 251.790482243984" stroke-miterlimit="10"/></g><g transform="translate(-78,-134) scale(1,1)"><g><path fill="none" stroke="none"/><text fill="#000000" stroke="none" font-family="Arial" font-size="13px" font-style="normal" font-weight="normal" text-decoration="none" x="502.5" y="274.5">1</text></g></g><g transform="translate(-78,-134) scale(1,1)"><path fill="none" stroke="#000000" d="M 450 325 L 528 325" stroke-miterlimit="10"/></g><g transform="translate(-78,-134) scale(1,1)"><path fill="none" stroke="#000000" d="M 517.8373251423759 329.209517756016 L 528 325 L 517.8373251423758 320.790482243984" stroke-miterlimit="10"/></g><g transform="translate(-78,-134) scale(1,1)"><g><path fill="none" stroke="none"/><text fill="#000000" stroke="none" font-family="Arial" font-size="13px" font-style="normal" font-weight="normal" text-decoration="none" x="502.5" y="343.5">1</text></g></g><g transform="translate(-78,-134) scale(1,1)"><rect fill="#C0C0C0" stroke="none" x="535" y="375" width="136" height="65" opacity="0.2"/></g><g transform="translate(-78,-134) scale(1,1)"><rect fill="#ffffff" stroke="none" x="528" y="368" width="136" height="65"/></g><g transform="translate(-78,-134) scale(1,1)"><path fill="none" stroke="#000000" d="M 528 368 L 664 368 L 664 433 L 528 433 L 528 368 Z Z" stroke-miterlimit="10"/></g><g transform="translate(-78,-134) scale(1,1)"><g><path fill="none" stroke="none"/><text fill="#000000" stroke="none" font-family="Arial" font-size="13px" font-style="normal" font-weight="normal" text-decoration="none" x="562.7509765625" y="385.5">«Catálogo»</text></g></g><g transform="translate(-78,-134) scale(1,1)"><g><path fill="none" stroke="none"/><text fill="#000000" stroke="none" font-family="Arial" font-size="13px" font-style="normal" font-weight="bold" text-decoration="none" x="539.635986328125" y="400.5">Rol del Participante</text></g></g><g transform="translate(-78,-134) scale(1,1)"><rect fill="#C0C0C0" stroke="none" x="535" y="151" width="147.7490234375" height="80" opacity="0.2"/></g><g transform="translate(-78,-134) scale(1,1)"><rect fill="#ffffff" stroke="none" x="528" y="144" width="147.7490234375" height="80"/></g><g transform="translate(-78,-134) scale(1,1)"><path fill="none" stroke="#000000" d="M 528 144 L 675.7490234375 144 L 675.7490234375 224 L 528 224 L 528 144 Z Z" stroke-miterlimit="10"/></g><g transform="translate(-78,-134) scale(1,1)"><path fill="#ffffff" stroke="none" d="M 654.8915688920455 153.57999999999998 C 654.8915688920455 151.602820416 656.6186099253546 150 658.7490234375 150 C 660.8794369496454 150 662.6064779829546 151.602820416 662.6064779829546 153.57999999999998 C 662.6064779829546 155.55717958399998 660.8794369496454 157.16 658.7490234375 157.16 C 656.6186099253546 157.16 654.8915688920455 155.55717958399998 654.8915688920455 153.57999999999998 Z"/></g><g transform="translate(-78,-134) scale(1,1)"><path fill="none" stroke="#000000" d="M 654.8915688920455 153.57999999999998 C 654.8915688920455 151.602820416 656.6186099253546 150 658.7490234375 150 C 660.8794369496454 150 662.6064779829546 151.602820416 662.6064779829546 153.57999999999998 C 662.6064779829546 155.55717958399998 660.8794369496454 157.16 658.7490234375 157.16 C 656.6186099253546 157.16 654.8915688920455 155.55717958399998 654.8915688920455 153.57999999999998 Z" stroke-miterlimit="10"/></g><g transform="translate(-78,-134) scale(1,1)"><path fill="none" stroke="#000000" d="M 658.7490234375 157.16 L 658.7490234375 164.84" stroke-miterlimit="10"/></g><g transform="translate(-78,-134) scale(1,1)"><path fill="none" stroke="#000000" d="M 654.6646598011364 160.04 L 662.8333870738637 160.04" stroke-miterlimit="10"/></g><g transform="translate(-78,-134) scale(1,1)"><path fill="none" stroke="#000000" d="M 658.7490234375 164.84 L 653.0762961647728 172" stroke-miterlimit="10"/></g><g transform="translate(-78,-134) scale(1,1)"><path fill="none" stroke="#000000" d="M 658.7490234375 164.84 L 664.4217507102273 172" stroke-miterlimit="10"/></g><g transform="translate(-78,-134) scale(1,1)"><g><path fill="none" stroke="none"/><text fill="#000000" stroke="none" font-family="Arial" font-size="13px" font-style="normal" font-weight="bold" text-decoration="none" x="546.523193359375" y="163.5">Persona Física</text></g></g><g transform="translate(-78,-134) scale(1,1)"><g><path fill="none" stroke="none"/><text fill="#000000" stroke="none" font-family="Arial" font-size="13px" font-style="normal" font-weight="normal" text-decoration="none" x="537.5" y="178.5">(from Documento)</text></g></g><g transform="translate(-78,-134) scale(1,1)"><path fill="none" stroke="#000000" d="M 450 184 L 528 184" stroke-miterlimit="10"/></g><g transform="translate(-78,-134) scale(1,1)"><path fill="none" stroke="#000000" d="M 517.8373251423759 188.209517756016 L 528 184 L 517.8373251423758 179.790482243984" stroke-miterlimit="10"/></g><g transform="translate(-78,-134) scale(1,1)"><g><path fill="none" stroke="none"/><text fill="#000000" stroke="none" font-family="Arial" font-size="13px" font-style="normal" font-weight="normal" text-decoration="none" x="502.5" y="202.5">1</text></g></g><g transform="translate(-78,-134) scale(1,1)"><path fill="none" stroke="#000000" d="M 450 400 L 528 400" stroke-miterlimit="10"/></g><g transform="translate(-78,-134) scale(1,1)"><path fill="none" stroke="#000000" d="M 517.8373251423759 404.209517756016 L 528 400 L 517.8373251423758 395.790482243984" stroke-miterlimit="10"/></g><g transform="translate(-78,-134) scale(1,1)"><g><path fill="none" stroke="none"/><text fill="#000000" stroke="none" font-family="Arial" font-size="13px" font-style="normal" font-weight="normal" text-decoration="none" x="502.5" y="418.5">1</text></g></g><g transform="translate(-78,-134) scale(1,1)"><rect fill="#C0C0C0" stroke="none" x="135" y="175" width="93.9951171875" height="57" opacity="0.2"/></g><g transform="translate(-78,-134) scale(1,1)"><rect fill="#ffffff" stroke="none" x="128" y="168" width="93.9951171875" height="57"/></g><g transform="translate(-78,-134) scale(1,1)"><path fill="none" stroke="#000000" d="M 128 168 L 221.9951171875 168 L 221.9951171875 225 L 128 225 L 128 168 Z Z" stroke-miterlimit="10"/></g><g transform="translate(-78,-134) scale(1,1)"><g><path fill="none" stroke="none"/><text fill="#000000" stroke="none" font-family="Arial" font-size="13px" font-style="normal" font-weight="bold" text-decoration="none" x="153.558349609375" y="187.5">Tipo de</text><text fill="#000000" stroke="none" font-family="Arial" font-size="13px" font-style="normal" font-weight="bold" text-decoration="none" x="158.388916015625" y="200.5">Firma</text></g></g><g transform="translate(-78,-134) scale(1,1)"><path fill="none" stroke="#000000" d="M 304 188 L 222 188" stroke-miterlimit="10"/></g><g transform="translate(-78,-134) scale(1,1)"><path fill="none" stroke="#000000" d="M 232.16267485762415 183.790482243984 L 222 188 L 232.16267485762415 192.209517756016" stroke-miterlimit="10"/></g></g></svg>