<svg version="1.1" xmlns="http://www.w3.org/2000/svg" xmlns:xlink="http://www.w3.org/1999/xlink" width="382.4853515625" height="276"><defs/><g><text fill="#eeeeee" stroke="none" font-family="Arial" font-size="24px" font-style="normal" font-weight="normal" text-decoration="none" x="0" y="0">UNREGISTERED</text><text fill="#eeeeee" stroke="none" font-family="Arial" font-size="24px" font-style="normal" font-weight="normal" text-decoration="none" x="0" y="30">UNREGISTERED</text><text fill="#eeeeee" stroke="none" font-family="Arial" font-size="24px" font-style="normal" font-weight="normal" text-decoration="none" x="0" y="60">UNREGISTERED</text><text fill="#eeeeee" stroke="none" font-family="Arial" font-size="24px" font-style="normal" font-weight="normal" text-decoration="none" x="0" y="90">UNREGISTERED</text><text fill="#eeeeee" stroke="none" font-family="Arial" font-size="24px" font-style="normal" font-weight="normal" text-decoration="none" x="0" y="120">UNREGISTERED</text><text fill="#eeeeee" stroke="none" font-family="Arial" font-size="24px" font-style="normal" font-weight="normal" text-decoration="none" x="0" y="150">UNREGISTERED</text><text fill="#eeeeee" stroke="none" font-family="Arial" font-size="24px" font-style="normal" font-weight="normal" text-decoration="none" x="0" y="180">UNREGISTERED</text><text fill="#eeeeee" stroke="none" font-family="Arial" font-size="24px" font-style="normal" font-weight="normal" text-decoration="none" x="0" y="210">UNREGISTERED</text><text fill="#eeeeee" stroke="none" font-family="Arial" font-size="24px" font-style="normal" font-weight="normal" text-decoration="none" x="0" y="240">UNREGISTERED</text><text fill="#eeeeee" stroke="none" font-family="Arial" font-size="24px" font-style="normal" font-weight="normal" text-decoration="none" x="0" y="270">UNREGISTERED</text><text fill="#eeeeee" stroke="none" font-family="Arial" font-size="24px" font-style="normal" font-weight="normal" text-decoration="none" x="200" y="0">UNREGISTERED</text><text fill="#eeeeee" stroke="none" font-family="Arial" font-size="24px" font-style="normal" font-weight="normal" text-decoration="none" x="200" y="30">UNREGISTERED</text><text fill="#eeeeee" stroke="none" font-family="Arial" font-size="24px" font-style="normal" font-weight="normal" text-decoration="none" x="200" y="60">UNREGISTERED</text><text fill="#eeeeee" stroke="none" font-family="Arial" font-size="24px" font-style="normal" font-weight="normal" text-decoration="none" x="200" y="90">UNREGISTERED</text><text fill="#eeeeee" stroke="none" font-family="Arial" font-size="24px" font-style="normal" font-weight="normal" text-decoration="none" x="200" y="120">UNREGISTERED</text><text fill="#eeeeee" stroke="none" font-family="Arial" font-size="24px" font-style="normal" font-weight="normal" text-decoration="none" x="200" y="150">UNREGISTERED</text><text fill="#eeeeee" stroke="none" font-family="Arial" font-size="24px" font-style="normal" font-weight="normal" text-decoration="none" x="200" y="180">UNREGISTERED</text><text fill="#eeeeee" stroke="none" font-family="Arial" font-size="24px" font-style="normal" font-weight="normal" text-decoration="none" x="200" y="210">UNREGISTERED</text><text fill="#eeeeee" stroke="none" font-family="Arial" font-size="24px" font-style="normal" font-weight="normal" text-decoration="none" x="200" y="240">UNREGISTERED</text><text fill="#eeeeee" stroke="none" font-family="Arial" font-size="24px" font-style="normal" font-weight="normal" text-decoration="none" x="200" y="270">UNREGISTERED</text><g transform="translate(-78,-134) scale(1,1)"><rect fill="#C0C0C0" stroke="none" x="311" y="151" width="146.4853515625" height="256" opacity="0.2"/></g><g transform="translate(-78,-134) scale(1,1)"><rect fill="#ffffff" stroke="none" x="304" y="144" width="146.4853515625" height="256"/></g><g transform="translate(-78,-134) scale(1,1)"><path fill="none" stroke="#000000" d="M 304 144 L 450.4853515625 144 L 450.4853515625 400 L 304 400 L 304 144 Z Z" stroke-miterlimit="10"/></g><g transform="translate(-78,-134) scale(1,1)"><path fill="none" stroke="#000000" d="M 304 169 L 450.4853515625 169" stroke-miterlimit="10"/></g><g transform="translate(-78,-134) scale(1,1)"><g><path fill="none" stroke="none"/><text fill="#000000" stroke="none" font-family="Arial" font-size="13px" font-style="normal" font-weight="bold" text-decoration="none" x="326.674072265625" y="163.5">Firma Electronica</text></g></g><g transform="translate(-78,-134) scale(1,1)"><g><path fill="none" stroke="none"/><text fill="#000000" stroke="none" font-family="Arial" font-size="13px" font-style="normal" font-weight="normal" text-decoration="none" x="309" y="186.5">+cadenaOriginal</text></g></g><g transform="translate(-78,-134) scale(1,1)"><g><path fill="none" stroke="none"/><text fill="#000000" stroke="none" font-family="Arial" font-size="13px" font-style="normal" font-weight="normal" text-decoration="none" x="309" y="201.5">+selloDigital: String</text></g></g><g transform="translate(-78,-134) scale(1,1)"><g><path fill="none" stroke="none"/><text fill="#000000" stroke="none" font-family="Arial" font-size="13px" font-style="normal" font-weight="normal" text-decoration="none" x="309" y="216.5">+certificado: Blob</text></g></g><g transform="translate(-78,-134) scale(1,1)"><g><path fill="none" stroke="none"/><text fill="#000000" stroke="none" font-family="Arial" font-size="13px" font-style="normal" font-weight="normal" text-decoration="none" x="309" y="231.5">+tipo: TipoFirma</text></g></g><g transform="translate(-78,-134) scale(1,1)"><g><path fill="none" stroke="none"/><text fill="#000000" stroke="none" font-family="Arial" font-size="13px" font-style="normal" font-weight="normal" text-decoration="none" x="309" y="246.5">+fechaAcuse</text></g></g><g transform="translate(-78,-134) scale(1,1)"><rect fill="#C0C0C0" stroke="none" x="95" y="319" width="73.0478515625" height="44" opacity="0.2"/></g><g transform="translate(-78,-134) scale(1,1)"><rect fill="#ffffff" stroke="none" x="88" y="312" width="73.0478515625" height="44"/></g><g transform="translate(-78,-134) scale(1,1)"><path fill="none" stroke="#000000" d="M 88 312 L 161.0478515625 312 L 161.0478515625 356 L 88 356 L 88 312 Z Z" stroke-miterlimit="10"/></g><g transform="translate(-78,-134) scale(1,1)"><g><path fill="none" stroke="none"/><text fill="#000000" stroke="none" font-family="Arial" font-size="13px" font-style="normal" font-weight="bold" text-decoration="none" x="107.915283203125" y="331.5">Firma</text><text fill="#000000" stroke="none" font-family="Arial" font-size="13px" font-style="normal" font-weight="bold" text-decoration="none" x="112.364990234375" y="344.5">SAT</text></g></g><g transform="translate(-78,-134) scale(1,1)"><rect fill="#C0C0C0" stroke="none" x="183" y="319" width="90.63720703125" height="44" opacity="0.2"/></g><g transform="translate(-78,-134) scale(1,1)"><rect fill="#ffffff" stroke="none" x="176" y="312" width="90.63720703125" height="44"/></g><g transform="translate(-78,-134) scale(1,1)"><path fill="none" stroke="#000000" d="M 176 312 L 266.63720703125 312 L 266.63720703125 356 L 176 356 L 176 312 Z Z" stroke-miterlimit="10"/></g><g transform="translate(-78,-134) scale(1,1)"><g><path fill="none" stroke="none"/><text fill="#000000" stroke="none" font-family="Arial" font-size="13px" font-style="normal" font-weight="bold" text-decoration="none" x="204.7099609375" y="331.5">Firma</text><text fill="#000000" stroke="none" font-family="Arial" font-size="13px" font-style="normal" font-weight="bold" text-decoration="none" x="201.450439453125" y="344.5">Simple</text></g></g><g transform="translate(-78,-134) scale(1,1)"><path fill="none" stroke="#000000" d="M 144 312 L 144 225" stroke-miterlimit="10"/></g><g transform="translate(-78,-134) scale(1,1)"><path fill="#FFFFFF" stroke="none" d="M 152.41903551203197 245.3253497152483 L 144 225 L 135.58096448796803 245.3253497152483"/></g><g transform="translate(-78,-134) scale(1,1)"><path fill="none" stroke="#000000" d="M 152.41903551203197 245.3253497152483 L 144 225 L 135.58096448796803 245.3253497152483 L 152.41903551203197 245.3253497152483" stroke-miterlimit="10"/></g><g transform="translate(-78,-134) scale(1,1)"><path fill="none" stroke="#000000" d="M 200 312 L 200 225" stroke-miterlimit="10"/></g><g transform="translate(-78,-134) scale(1,1)"><path fill="#FFFFFF" stroke="none" d="M 208.41903551203197 245.3253497152483 L 200 225 L 191.58096448796803 245.3253497152483"/></g><g transform="translate(-78,-134) scale(1,1)"><path fill="none" stroke="#000000" d="M 208.41903551203197 245.3253497152483 L 200 225 L 191.58096448796803 245.3253497152483 L 208.41903551203197 245.3253497152483" stroke-miterlimit="10"/></g><g transform="translate(-78,-134) scale(1,1)"><rect fill="#C0C0C0" stroke="none" x="135" y="175" width="93.9951171875" height="57" opacity="0.2"/></g><g transform="translate(-78,-134) scale(1,1)"><rect fill="#ffffff" stroke="none" x="128" y="168" width="93.9951171875" height="57"/></g><g transform="translate(-78,-134) scale(1,1)"><path fill="none" stroke="#000000" d="M 128 168 L 221.9951171875 168 L 221.9951171875 225 L 128 225 L 128 168 Z Z" stroke-miterlimit="10"/></g><g transform="translate(-78,-134) scale(1,1)"><g><path fill="none" stroke="none"/><text fill="#000000" stroke="none" font-family="Arial" font-size="13px" font-style="normal" font-weight="bold" text-decoration="none" x="153.558349609375" y="187.5">Tipo de</text><text fill="#000000" stroke="none" font-family="Arial" font-size="13px" font-style="normal" font-weight="bold" text-decoration="none" x="158.388916015625" y="200.5">Firma</text></g></g><g transform="translate(-78,-134) scale(1,1)"><path fill="none" stroke="#000000" d="M 304 188 L 222 188" stroke-miterlimit="10"/></g><g transform="translate(-78,-134) scale(1,1)"><path fill="none" stroke="#000000" d="M 232.16267485762415 183.790482243984 L 222 188 L 232.16267485762415 192.209517756016" stroke-miterlimit="10"/></g></g></svg>