<svg version="1.1" xmlns="http://www.w3.org/2000/svg" xmlns:xlink="http://www.w3.org/1999/xlink" width="511" height="488"><defs/><g><text fill="#eeeeee" stroke="none" font-family="Arial" font-size="24px" font-style="normal" font-weight="normal" text-decoration="none" x="0" y="0">UNREGISTERED</text><text fill="#eeeeee" stroke="none" font-family="Arial" font-size="24px" font-style="normal" font-weight="normal" text-decoration="none" x="0" y="30">UNREGISTERED</text><text fill="#eeeeee" stroke="none" font-family="Arial" font-size="24px" font-style="normal" font-weight="normal" text-decoration="none" x="0" y="60">UNREGISTERED</text><text fill="#eeeeee" stroke="none" font-family="Arial" font-size="24px" font-style="normal" font-weight="normal" text-decoration="none" x="0" y="90">UNREGISTERED</text><text fill="#eeeeee" stroke="none" font-family="Arial" font-size="24px" font-style="normal" font-weight="normal" text-decoration="none" x="0" y="120">UNREGISTERED</text><text fill="#eeeeee" stroke="none" font-family="Arial" font-size="24px" font-style="normal" font-weight="normal" text-decoration="none" x="0" y="150">UNREGISTERED</text><text fill="#eeeeee" stroke="none" font-family="Arial" font-size="24px" font-style="normal" font-weight="normal" text-decoration="none" x="0" y="180">UNREGISTERED</text><text fill="#eeeeee" stroke="none" font-family="Arial" font-size="24px" font-style="normal" font-weight="normal" text-decoration="none" x="0" y="210">UNREGISTERED</text><text fill="#eeeeee" stroke="none" font-family="Arial" font-size="24px" font-style="normal" font-weight="normal" text-decoration="none" x="0" y="240">UNREGISTERED</text><text fill="#eeeeee" stroke="none" font-family="Arial" font-size="24px" font-style="normal" font-weight="normal" text-decoration="none" x="0" y="270">UNREGISTERED</text><text fill="#eeeeee" stroke="none" font-family="Arial" font-size="24px" font-style="normal" font-weight="normal" text-decoration="none" x="0" y="300">UNREGISTERED</text><text fill="#eeeeee" stroke="none" font-family="Arial" font-size="24px" font-style="normal" font-weight="normal" text-decoration="none" x="0" y="330">UNREGISTERED</text><text fill="#eeeeee" stroke="none" font-family="Arial" font-size="24px" font-style="normal" font-weight="normal" text-decoration="none" x="0" y="360">UNREGISTERED</text><text fill="#eeeeee" stroke="none" font-family="Arial" font-size="24px" font-style="normal" font-weight="normal" text-decoration="none" x="0" y="390">UNREGISTERED</text><text fill="#eeeeee" stroke="none" font-family="Arial" font-size="24px" font-style="normal" font-weight="normal" text-decoration="none" x="0" y="420">UNREGISTERED</text><text fill="#eeeeee" stroke="none" font-family="Arial" font-size="24px" font-style="normal" font-weight="normal" text-decoration="none" x="0" y="450">UNREGISTERED</text><text fill="#eeeeee" stroke="none" font-family="Arial" font-size="24px" font-style="normal" font-weight="normal" text-decoration="none" x="0" y="480">UNREGISTERED</text><text fill="#eeeeee" stroke="none" font-family="Arial" font-size="24px" font-style="normal" font-weight="normal" text-decoration="none" x="200" y="0">UNREGISTERED</text><text fill="#eeeeee" stroke="none" font-family="Arial" font-size="24px" font-style="normal" font-weight="normal" text-decoration="none" x="200" y="30">UNREGISTERED</text><text fill="#eeeeee" stroke="none" font-family="Arial" font-size="24px" font-style="normal" font-weight="normal" text-decoration="none" x="200" y="60">UNREGISTERED</text><text fill="#eeeeee" stroke="none" font-family="Arial" font-size="24px" font-style="normal" font-weight="normal" text-decoration="none" x="200" y="90">UNREGISTERED</text><text fill="#eeeeee" stroke="none" font-family="Arial" font-size="24px" font-style="normal" font-weight="normal" text-decoration="none" x="200" y="120">UNREGISTERED</text><text fill="#eeeeee" stroke="none" font-family="Arial" font-size="24px" font-style="normal" font-weight="normal" text-decoration="none" x="200" y="150">UNREGISTERED</text><text fill="#eeeeee" stroke="none" font-family="Arial" font-size="24px" font-style="normal" font-weight="normal" text-decoration="none" x="200" y="180">UNREGISTERED</text><text fill="#eeeeee" stroke="none" font-family="Arial" font-size="24px" font-style="normal" font-weight="normal" text-decoration="none" x="200" y="210">UNREGISTERED</text><text fill="#eeeeee" stroke="none" font-family="Arial" font-size="24px" font-style="normal" font-weight="normal" text-decoration="none" x="200" y="240">UNREGISTERED</text><text fill="#eeeeee" stroke="none" font-family="Arial" font-size="24px" font-style="normal" font-weight="normal" text-decoration="none" x="200" y="270">UNREGISTERED</text><text fill="#eeeeee" stroke="none" font-family="Arial" font-size="24px" font-style="normal" font-weight="normal" text-decoration="none" x="200" y="300">UNREGISTERED</text><text fill="#eeeeee" stroke="none" font-family="Arial" font-size="24px" font-style="normal" font-weight="normal" text-decoration="none" x="200" y="330">UNREGISTERED</text><text fill="#eeeeee" stroke="none" font-family="Arial" font-size="24px" font-style="normal" font-weight="normal" text-decoration="none" x="200" y="360">UNREGISTERED</text><text fill="#eeeeee" stroke="none" font-family="Arial" font-size="24px" font-style="normal" font-weight="normal" text-decoration="none" x="200" y="390">UNREGISTERED</text><text fill="#eeeeee" stroke="none" font-family="Arial" font-size="24px" font-style="normal" font-weight="normal" text-decoration="none" x="200" y="420">UNREGISTERED</text><text fill="#eeeeee" stroke="none" font-family="Arial" font-size="24px" font-style="normal" font-weight="normal" text-decoration="none" x="200" y="450">UNREGISTERED</text><text fill="#eeeeee" stroke="none" font-family="Arial" font-size="24px" font-style="normal" font-weight="normal" text-decoration="none" x="200" y="480">UNREGISTERED</text><text fill="#eeeeee" stroke="none" font-family="Arial" font-size="24px" font-style="normal" font-weight="normal" text-decoration="none" x="400" y="0">UNREGISTERED</text><text fill="#eeeeee" stroke="none" font-family="Arial" font-size="24px" font-style="normal" font-weight="normal" text-decoration="none" x="400" y="30">UNREGISTERED</text><text fill="#eeeeee" stroke="none" font-family="Arial" font-size="24px" font-style="normal" font-weight="normal" text-decoration="none" x="400" y="60">UNREGISTERED</text><text fill="#eeeeee" stroke="none" font-family="Arial" font-size="24px" font-style="normal" font-weight="normal" text-decoration="none" x="400" y="90">UNREGISTERED</text><text fill="#eeeeee" stroke="none" font-family="Arial" font-size="24px" font-style="normal" font-weight="normal" text-decoration="none" x="400" y="120">UNREGISTERED</text><text fill="#eeeeee" stroke="none" font-family="Arial" font-size="24px" font-style="normal" font-weight="normal" text-decoration="none" x="400" y="150">UNREGISTERED</text><text fill="#eeeeee" stroke="none" font-family="Arial" font-size="24px" font-style="normal" font-weight="normal" text-decoration="none" x="400" y="180">UNREGISTERED</text><text fill="#eeeeee" stroke="none" font-family="Arial" font-size="24px" font-style="normal" font-weight="normal" text-decoration="none" x="400" y="210">UNREGISTERED</text><text fill="#eeeeee" stroke="none" font-family="Arial" font-size="24px" font-style="normal" font-weight="normal" text-decoration="none" x="400" y="240">UNREGISTERED</text><text fill="#eeeeee" stroke="none" font-family="Arial" font-size="24px" font-style="normal" font-weight="normal" text-decoration="none" x="400" y="270">UNREGISTERED</text><text fill="#eeeeee" stroke="none" font-family="Arial" font-size="24px" font-style="normal" font-weight="normal" text-decoration="none" x="400" y="300">UNREGISTERED</text><text fill="#eeeeee" stroke="none" font-family="Arial" font-size="24px" font-style="normal" font-weight="normal" text-decoration="none" x="400" y="330">UNREGISTERED</text><text fill="#eeeeee" stroke="none" font-family="Arial" font-size="24px" font-style="normal" font-weight="normal" text-decoration="none" x="400" y="360">UNREGISTERED</text><text fill="#eeeeee" stroke="none" font-family="Arial" font-size="24px" font-style="normal" font-weight="normal" text-decoration="none" x="400" y="390">UNREGISTERED</text><text fill="#eeeeee" stroke="none" font-family="Arial" font-size="24px" font-style="normal" font-weight="normal" text-decoration="none" x="400" y="420">UNREGISTERED</text><text fill="#eeeeee" stroke="none" font-family="Arial" font-size="24px" font-style="normal" font-weight="normal" text-decoration="none" x="400" y="450">UNREGISTERED</text><text fill="#eeeeee" stroke="none" font-family="Arial" font-size="24px" font-style="normal" font-weight="normal" text-decoration="none" x="400" y="480">UNREGISTERED</text><g transform="translate(-150,2) scale(1,1)"><path fill="#ffffff" stroke="none" d="M 388.82072727272725 161.68 C 388.82072727272725 156.886167936 392.70656959767274 153 397.5 153 C 402.29343040232726 153 406.17927272727275 156.886167936 406.17927272727275 161.68 C 406.17927272727275 166.47383206400002 402.29343040232726 170.36 397.5 170.36 C 392.70656959767274 170.36 388.82072727272725 166.47383206400002 388.82072727272725 161.68 Z"/></g><g transform="translate(-150,2) scale(1,1)"><path fill="none" stroke="#000000" d="M 388.82072727272725 161.68 C 388.82072727272725 156.886167936 392.70656959767274 153 397.5 153 C 402.29343040232726 153 406.17927272727275 156.886167936 406.17927272727275 161.68 C 406.17927272727275 166.47383206400002 402.29343040232726 170.36 397.5 170.36 C 392.70656959767274 170.36 388.82072727272725 166.47383206400002 388.82072727272725 161.68 Z" stroke-miterlimit="10"/></g><g transform="translate(-150,2) scale(1,1)"><path fill="none" stroke="#000000" d="M 397.5 170.36 L 397.5 187.64" stroke-miterlimit="10"/></g><g transform="translate(-150,2) scale(1,1)"><path fill="none" stroke="#000000" d="M 388.31018181818183 176.84 L 406.68981818181817 176.84" stroke-miterlimit="10"/></g><g transform="translate(-150,2) scale(1,1)"><path fill="none" stroke="#000000" d="M 397.5 187.64 L 384.73636363636365 205" stroke-miterlimit="10"/></g><g transform="translate(-150,2) scale(1,1)"><path fill="none" stroke="#000000" d="M 397.5 187.64 L 410.26363636363635 205" stroke-miterlimit="10"/></g><g transform="translate(-150,2) scale(1,1)"><g><path fill="none" stroke="none"/><text fill="#000000" stroke="none" font-family="Arial" font-size="13px" font-style="normal" font-weight="bold" text-decoration="none" x="368.234130859375" y="225.5">Institución</text></g></g><g transform="translate(-150,2) scale(1,1)"><path fill="#ffffff" stroke="none" d="M 305.0108137428977 299.89 C 305.0108137428977 293.875618528 309.83213662755225 289 315.779541015625 289 C 321.72694540369775 289 326.5482682883523 293.875618528 326.5482682883523 299.89 C 326.5482682883523 305.90438147199995 321.72694540369775 310.78 315.779541015625 310.78 C 309.83213662755225 310.78 305.0108137428977 305.90438147199995 305.0108137428977 299.89 Z"/></g><g transform="translate(-150,2) scale(1,1)"><path fill="none" stroke="#000000" d="M 305.0108137428977 299.89 C 305.0108137428977 293.875618528 309.83213662755225 289 315.779541015625 289 C 321.72694540369775 289 326.5482682883523 293.875618528 326.5482682883523 299.89 C 326.5482682883523 305.90438147199995 321.72694540369775 310.78 315.779541015625 310.78 C 309.83213662755225 310.78 305.0108137428977 305.90438147199995 305.0108137428977 299.89 Z" stroke-miterlimit="10"/></g><g transform="translate(-150,2) scale(1,1)"><path fill="none" stroke="#000000" d="M 315.779541015625 310.78 L 315.779541015625 332.22" stroke-miterlimit="10"/></g><g transform="translate(-150,2) scale(1,1)"><path fill="none" stroke="#000000" d="M 304.3773591974432 318.82 L 327.1817228338068 318.82" stroke-miterlimit="10"/></g><g transform="translate(-150,2) scale(1,1)"><path fill="none" stroke="#000000" d="M 315.779541015625 332.22 L 299.94317737926133 354" stroke-miterlimit="10"/></g><g transform="translate(-150,2) scale(1,1)"><path fill="none" stroke="#000000" d="M 315.779541015625 332.22 L 331.61590465198867 354" stroke-miterlimit="10"/></g><g transform="translate(-150,2) scale(1,1)"><g><path fill="none" stroke="none"/><text fill="#000000" stroke="none" font-family="Arial" font-size="13px" font-style="normal" font-weight="bold" text-decoration="none" x="288.313232421875" y="374.5">Sujeto de</text><text fill="#000000" stroke="none" font-family="Arial" font-size="13px" font-style="normal" font-weight="bold" text-decoration="none" x="297.34912109375" y="387.5">Apoyo</text></g></g><g transform="translate(-150,2) scale(1,1)"><path fill="#ffffff" stroke="none" d="M 485.31827361505685 299.21000000000004 C 485.31827361505685 293.571172192 489.8517563274932 289 495.444091796875 289 C 501.0364272662568 289 505.56990997869315 293.571172192 505.56990997869315 299.21000000000004 C 505.56990997869315 304.84882780800007 501.0364272662568 309.42 495.444091796875 309.42 C 489.8517563274932 309.42 485.31827361505685 304.84882780800007 485.31827361505685 299.21000000000004 Z"/></g><g transform="translate(-150,2) scale(1,1)"><path fill="none" stroke="#000000" d="M 485.31827361505685 299.21000000000004 C 485.31827361505685 293.571172192 489.8517563274932 289 495.444091796875 289 C 501.0364272662568 289 505.56990997869315 293.571172192 505.56990997869315 299.21000000000004 C 505.56990997869315 304.84882780800007 501.0364272662568 309.42 495.444091796875 309.42 C 489.8517563274932 309.42 485.31827361505685 304.84882780800007 485.31827361505685 299.21000000000004 Z" stroke-miterlimit="10"/></g><g transform="translate(-150,2) scale(1,1)"><path fill="none" stroke="#000000" d="M 495.444091796875 309.42 L 495.444091796875 329.58" stroke-miterlimit="10"/></g><g transform="translate(-150,2) scale(1,1)"><path fill="none" stroke="#000000" d="M 484.72263725142045 316.98 L 506.16554634232955 316.98" stroke-miterlimit="10"/></g><g transform="translate(-150,2) scale(1,1)"><path fill="none" stroke="#000000" d="M 495.444091796875 329.58 L 480.5531827059659 350" stroke-miterlimit="10"/></g><g transform="translate(-150,2) scale(1,1)"><path fill="none" stroke="#000000" d="M 495.444091796875 329.58 L 510.3350008877841 350" stroke-miterlimit="10"/></g><g transform="translate(-150,2) scale(1,1)"><g><path fill="none" stroke="none"/><text fill="#000000" stroke="none" font-family="Arial" font-size="13px" font-style="normal" font-weight="bold" text-decoration="none" x="447.02734375" y="370.5">Co-Responsable</text></g></g><g transform="translate(-150,2) scale(1,1)"><path fill="none" stroke="#000000" d="M 360 320 L 360 320 M 360 320 A 8 8 0 0 0 368 312 L 368 231" stroke-miterlimit="10"/></g><g transform="translate(-150,2) scale(1,1)"><path fill="#FFFFFF" stroke="none" d="M 376.419035512032 251.3253497152483 L 368 231 L 359.580964487968 251.3253497152483"/></g><g transform="translate(-150,2) scale(1,1)"><path fill="none" stroke="#000000" d="M 376.419035512032 251.3253497152483 L 368 231 L 359.580964487968 251.3253497152483 L 376.419035512032 251.3253497152483" stroke-miterlimit="10"/></g><g transform="translate(-150,2) scale(1,1)"><path fill="none" stroke="#000000" d="M 440 320 L 432 320 M 432 320 A 8 8 0 0 1 424 312 L 424 231" stroke-miterlimit="10"/></g><g transform="translate(-150,2) scale(1,1)"><path fill="#FFFFFF" stroke="none" d="M 432.419035512032 251.3253497152483 L 424 231 L 415.580964487968 251.3253497152483"/></g><g transform="translate(-150,2) scale(1,1)"><path fill="none" stroke="#000000" d="M 432.419035512032 251.3253497152483 L 424 231 L 415.580964487968 251.3253497152483 L 432.419035512032 251.3253497152483" stroke-miterlimit="10"/></g><g transform="translate(-150,2) scale(1,1)"><path fill="#ffffff" stroke="none" d="M 604.8207272727273 161.68 C 604.8207272727273 156.886167936 608.7065695976727 153 613.5 153 C 618.2934304023273 153 622.1792727272727 156.886167936 622.1792727272727 161.68 C 622.1792727272727 166.47383206400002 618.2934304023273 170.36 613.5 170.36 C 608.7065695976727 170.36 604.8207272727273 166.47383206400002 604.8207272727273 161.68 Z"/></g><g transform="translate(-150,2) scale(1,1)"><path fill="none" stroke="#000000" d="M 604.8207272727273 161.68 C 604.8207272727273 156.886167936 608.7065695976727 153 613.5 153 C 618.2934304023273 153 622.1792727272727 156.886167936 622.1792727272727 161.68 C 622.1792727272727 166.47383206400002 618.2934304023273 170.36 613.5 170.36 C 608.7065695976727 170.36 604.8207272727273 166.47383206400002 604.8207272727273 161.68 Z" stroke-miterlimit="10"/></g><g transform="translate(-150,2) scale(1,1)"><path fill="none" stroke="#000000" d="M 613.5 170.36 L 613.5 187.64" stroke-miterlimit="10"/></g><g transform="translate(-150,2) scale(1,1)"><path fill="none" stroke="#000000" d="M 604.3101818181818 176.84 L 622.6898181818182 176.84" stroke-miterlimit="10"/></g><g transform="translate(-150,2) scale(1,1)"><path fill="none" stroke="#000000" d="M 613.5 187.64 L 600.7363636363636 205" stroke-miterlimit="10"/></g><g transform="translate(-150,2) scale(1,1)"><path fill="none" stroke="#000000" d="M 613.5 187.64 L 626.2636363636364 205" stroke-miterlimit="10"/></g><g transform="translate(-150,2) scale(1,1)"><g><path fill="none" stroke="none"/><text fill="#000000" stroke="none" font-family="Arial" font-size="13px" font-style="normal" font-weight="bold" text-decoration="none" x="581.720458984375" y="225.5">RENIECyT</text></g></g><g transform="translate(-150,2) scale(1,1)"><path fill="none" stroke="#000000" d="M 435 184 L 576 184" stroke-miterlimit="10"/></g><g transform="translate(-150,2) scale(1,1)"><path fill="none" stroke="#000000" d="M 565.8373251423759 188.209517756016 L 576 184 L 565.8373251423758 179.790482243984" stroke-miterlimit="10"/></g><g transform="translate(-150,2) scale(1,1)"><g><path fill="none" stroke="none"/><text fill="#000000" stroke="none" font-family="Arial" font-size="13px" font-style="normal" font-weight="normal" text-decoration="none" x="472.535888671875" y="168.5">+registrada</text><text fill="#000000" stroke="none" font-family="Arial" font-size="13px" font-style="normal" font-weight="normal" text-decoration="none" x="498.005859375" y="181.5">en</text></g></g><g transform="translate(-150,2) scale(1,1)"><g><path fill="none" stroke="none"/><text fill="#000000" stroke="none" font-family="Arial" font-size="13px" font-style="normal" font-weight="normal" text-decoration="none" x="542.658203125" y="202.5">0..1</text></g></g><g transform="translate(-150,2) scale(1,1)"><path fill="#ffffff" stroke="none" d="M 389.08342258522725 393.68 C 389.08342258522725 388.886167936 392.96926491017274 385 397.7626953125 385 C 402.55612571482726 385 406.44196803977275 388.886167936 406.44196803977275 393.68 C 406.44196803977275 398.473832064 402.55612571482726 402.36 397.7626953125 402.36 C 392.96926491017274 402.36 389.08342258522725 398.473832064 389.08342258522725 393.68 Z"/></g><g transform="translate(-150,2) scale(1,1)"><path fill="none" stroke="#000000" d="M 389.08342258522725 393.68 C 389.08342258522725 388.886167936 392.96926491017274 385 397.7626953125 385 C 402.55612571482726 385 406.44196803977275 388.886167936 406.44196803977275 393.68 C 406.44196803977275 398.473832064 402.55612571482726 402.36 397.7626953125 402.36 C 392.96926491017274 402.36 389.08342258522725 398.473832064 389.08342258522725 393.68 Z" stroke-miterlimit="10"/></g><g transform="translate(-150,2) scale(1,1)"><path fill="none" stroke="#000000" d="M 397.7626953125 402.36 L 397.7626953125 419.64" stroke-miterlimit="10"/></g><g transform="translate(-150,2) scale(1,1)"><path fill="none" stroke="#000000" d="M 388.57287713068183 408.84 L 406.95251349431817 408.84" stroke-miterlimit="10"/></g><g transform="translate(-150,2) scale(1,1)"><path fill="none" stroke="#000000" d="M 397.7626953125 419.64 L 384.99905894886365 437" stroke-miterlimit="10"/></g><g transform="translate(-150,2) scale(1,1)"><path fill="none" stroke="#000000" d="M 397.7626953125 419.64 L 410.52633167613635 437" stroke-miterlimit="10"/></g><g transform="translate(-150,2) scale(1,1)"><g><path fill="none" stroke="none"/><text fill="#000000" stroke="none" font-family="Arial" font-size="13px" font-style="normal" font-weight="bold" text-decoration="none" x="359.4609375" y="457.5">Institución de</text><text fill="#000000" stroke="none" font-family="Arial" font-size="13px" font-style="normal" font-weight="bold" text-decoration="none" x="363.437744140625" y="470.5">Participante</text></g></g><g transform="translate(-150,2) scale(1,1)"><path fill="none" stroke="#000000" d="M 397 384 L 397 231" stroke-miterlimit="10"/></g><g transform="translate(-150,2) scale(1,1)"><path fill="#FFFFFF" stroke="none" d="M 405.419035512032 251.3253497152483 L 397 231 L 388.580964487968 251.3253497152483"/></g><g transform="translate(-150,2) scale(1,1)"><path fill="none" stroke="#000000" d="M 405.419035512032 251.3253497152483 L 397 231 L 388.580964487968 251.3253497152483 L 405.419035512032 251.3253497152483" stroke-miterlimit="10"/></g><g transform="translate(-150,2) scale(1,1)"><path fill="#ffffff" stroke="none" d="M 193.02751438210228 161.68 C 193.02751438210228 156.886167936 196.91335670704774 153 201.706787109375 153 C 206.50021751170226 153 210.38605983664772 156.886167936 210.38605983664772 161.68 C 210.38605983664772 166.47383206400002 206.50021751170226 170.36 201.706787109375 170.36 C 196.91335670704774 170.36 193.02751438210228 166.47383206400002 193.02751438210228 161.68 Z"/></g><g transform="translate(-150,2) scale(1,1)"><path fill="none" stroke="#000000" d="M 193.02751438210228 161.68 C 193.02751438210228 156.886167936 196.91335670704774 153 201.706787109375 153 C 206.50021751170226 153 210.38605983664772 156.886167936 210.38605983664772 161.68 C 210.38605983664772 166.47383206400002 206.50021751170226 170.36 201.706787109375 170.36 C 196.91335670704774 170.36 193.02751438210228 166.47383206400002 193.02751438210228 161.68 Z" stroke-miterlimit="10"/></g><g transform="translate(-150,2) scale(1,1)"><path fill="none" stroke="#000000" d="M 201.706787109375 170.36 L 201.706787109375 187.64" stroke-miterlimit="10"/></g><g transform="translate(-150,2) scale(1,1)"><path fill="none" stroke="#000000" d="M 192.51696892755683 176.84 L 210.89660529119317 176.84" stroke-miterlimit="10"/></g><g transform="translate(-150,2) scale(1,1)"><path fill="none" stroke="#000000" d="M 201.706787109375 187.64 L 188.94315074573865 205" stroke-miterlimit="10"/></g><g transform="translate(-150,2) scale(1,1)"><path fill="none" stroke="#000000" d="M 201.706787109375 187.64 L 214.47042347301135 205" stroke-miterlimit="10"/></g><g transform="translate(-150,2) scale(1,1)"><g><path fill="none" stroke="none"/><text fill="#000000" stroke="none" font-family="Arial" font-size="13px" font-style="normal" font-weight="normal" text-decoration="none" x="187.253173828125" y="223.5">«rol»</text></g></g><g transform="translate(-150,2) scale(1,1)"><g><path fill="none" stroke="none"/><text fill="#000000" stroke="none" font-family="Arial" font-size="13px" font-style="normal" font-weight="bold" text-decoration="none" x="167.3818359375" y="238.5">Participante</text></g></g><g transform="translate(-150,2) scale(1,1)"><path fill="none" stroke="#000000" d="M 243 196 L 360 196" stroke-miterlimit="10"/></g><g transform="translate(-150,2) scale(1,1)"><path fill="none" stroke="#000000" d="M 349.83732514237585 200.209517756016 L 360 196 L 349.83732514237585 191.790482243984" stroke-miterlimit="10"/></g><g transform="translate(-150,2) scale(1,1)"><g><path fill="none" stroke="none"/><text fill="#000000" stroke="none" font-family="Arial" font-size="13px" font-style="normal" font-weight="normal" text-decoration="none" x="268.5" y="187.5">+pertenece</text></g></g><g transform="translate(-150,2) scale(1,1)"><g><path fill="none" stroke="none"/><text fill="#000000" stroke="none" font-family="Arial" font-size="13px" font-style="normal" font-weight="normal" text-decoration="none" x="327.74365234375" y="214.5">1..*</text></g></g><g transform="translate(-150,2) scale(1,1)"><path fill="#ffffff" stroke="none" d="M 390.5235090553977 19.89 C 390.5235090553977 13.875618528 395.34483194005225 9 401.292236328125 9 C 407.23964071619775 9 412.0609636008523 13.875618528 412.0609636008523 19.89 C 412.0609636008523 25.904381472 407.23964071619775 30.78 401.292236328125 30.78 C 395.34483194005225 30.78 390.5235090553977 25.904381472 390.5235090553977 19.89 Z"/></g><g transform="translate(-150,2) scale(1,1)"><path fill="none" stroke="#000000" d="M 390.5235090553977 19.89 C 390.5235090553977 13.875618528 395.34483194005225 9 401.292236328125 9 C 407.23964071619775 9 412.0609636008523 13.875618528 412.0609636008523 19.89 C 412.0609636008523 25.904381472 407.23964071619775 30.78 401.292236328125 30.78 C 395.34483194005225 30.78 390.5235090553977 25.904381472 390.5235090553977 19.89 Z" stroke-miterlimit="10"/></g><g transform="translate(-150,2) scale(1,1)"><path fill="none" stroke="#000000" d="M 401.292236328125 30.78 L 401.292236328125 52.22" stroke-miterlimit="10"/></g><g transform="translate(-150,2) scale(1,1)"><path fill="none" stroke="#000000" d="M 389.8900545099432 38.82 L 412.6944181463068 38.82" stroke-miterlimit="10"/></g><g transform="translate(-150,2) scale(1,1)"><path fill="none" stroke="#000000" d="M 401.292236328125 52.22 L 385.45587269176133 74" stroke-miterlimit="10"/></g><g transform="translate(-150,2) scale(1,1)"><path fill="none" stroke="#000000" d="M 401.292236328125 52.22 L 417.12859996448867 74" stroke-miterlimit="10"/></g><g transform="translate(-150,2) scale(1,1)"><g><path fill="none" stroke="none"/><text fill="#000000" stroke="none" font-family="Arial" font-size="13px" font-style="normal" font-weight="bold" text-decoration="none" x="372.0263671875" y="94.5">Institución</text></g></g><g transform="translate(-150,2) scale(1,1)"><path fill="none" stroke="#000000" d="M 400 152 L 400 100" stroke-miterlimit="10"/></g><g transform="translate(-150,2) scale(1,1)"><path fill="#FFFFFF" stroke="none" d="M 408.419035512032 120.32534971524831 L 400 100 L 391.580964487968 120.32534971524831"/></g><g transform="translate(-150,2) scale(1,1)"><path fill="none" stroke="#000000" d="M 408.419035512032 120.32534971524831 L 400 100 L 391.580964487968 120.32534971524831 L 408.419035512032 120.32534971524831" stroke-miterlimit="10"/></g></g></svg>