<svg version="1.1" xmlns="http://www.w3.org/2000/svg" xmlns:xlink="http://www.w3.org/1999/xlink" width="509.2890625" height="344"><defs/><g><text fill="#eeeeee" stroke="none" font-family="Arial" font-size="24px" font-style="normal" font-weight="normal" text-decoration="none" x="0" y="0">UNREGISTERED</text><text fill="#eeeeee" stroke="none" font-family="Arial" font-size="24px" font-style="normal" font-weight="normal" text-decoration="none" x="0" y="30">UNREGISTERED</text><text fill="#eeeeee" stroke="none" font-family="Arial" font-size="24px" font-style="normal" font-weight="normal" text-decoration="none" x="0" y="60">UNREGISTERED</text><text fill="#eeeeee" stroke="none" font-family="Arial" font-size="24px" font-style="normal" font-weight="normal" text-decoration="none" x="0" y="90">UNREGISTERED</text><text fill="#eeeeee" stroke="none" font-family="Arial" font-size="24px" font-style="normal" font-weight="normal" text-decoration="none" x="0" y="120">UNREGISTERED</text><text fill="#eeeeee" stroke="none" font-family="Arial" font-size="24px" font-style="normal" font-weight="normal" text-decoration="none" x="0" y="150">UNREGISTERED</text><text fill="#eeeeee" stroke="none" font-family="Arial" font-size="24px" font-style="normal" font-weight="normal" text-decoration="none" x="0" y="180">UNREGISTERED</text><text fill="#eeeeee" stroke="none" font-family="Arial" font-size="24px" font-style="normal" font-weight="normal" text-decoration="none" x="0" y="210">UNREGISTERED</text><text fill="#eeeeee" stroke="none" font-family="Arial" font-size="24px" font-style="normal" font-weight="normal" text-decoration="none" x="0" y="240">UNREGISTERED</text><text fill="#eeeeee" stroke="none" font-family="Arial" font-size="24px" font-style="normal" font-weight="normal" text-decoration="none" x="0" y="270">UNREGISTERED</text><text fill="#eeeeee" stroke="none" font-family="Arial" font-size="24px" font-style="normal" font-weight="normal" text-decoration="none" x="0" y="300">UNREGISTERED</text><text fill="#eeeeee" stroke="none" font-family="Arial" font-size="24px" font-style="normal" font-weight="normal" text-decoration="none" x="0" y="330">UNREGISTERED</text><text fill="#eeeeee" stroke="none" font-family="Arial" font-size="24px" font-style="normal" font-weight="normal" text-decoration="none" x="200" y="0">UNREGISTERED</text><text fill="#eeeeee" stroke="none" font-family="Arial" font-size="24px" font-style="normal" font-weight="normal" text-decoration="none" x="200" y="30">UNREGISTERED</text><text fill="#eeeeee" stroke="none" font-family="Arial" font-size="24px" font-style="normal" font-weight="normal" text-decoration="none" x="200" y="60">UNREGISTERED</text><text fill="#eeeeee" stroke="none" font-family="Arial" font-size="24px" font-style="normal" font-weight="normal" text-decoration="none" x="200" y="90">UNREGISTERED</text><text fill="#eeeeee" stroke="none" font-family="Arial" font-size="24px" font-style="normal" font-weight="normal" text-decoration="none" x="200" y="120">UNREGISTERED</text><text fill="#eeeeee" stroke="none" font-family="Arial" font-size="24px" font-style="normal" font-weight="normal" text-decoration="none" x="200" y="150">UNREGISTERED</text><text fill="#eeeeee" stroke="none" font-family="Arial" font-size="24px" font-style="normal" font-weight="normal" text-decoration="none" x="200" y="180">UNREGISTERED</text><text fill="#eeeeee" stroke="none" font-family="Arial" font-size="24px" font-style="normal" font-weight="normal" text-decoration="none" x="200" y="210">UNREGISTERED</text><text fill="#eeeeee" stroke="none" font-family="Arial" font-size="24px" font-style="normal" font-weight="normal" text-decoration="none" x="200" y="240">UNREGISTERED</text><text fill="#eeeeee" stroke="none" font-family="Arial" font-size="24px" font-style="normal" font-weight="normal" text-decoration="none" x="200" y="270">UNREGISTERED</text><text fill="#eeeeee" stroke="none" font-family="Arial" font-size="24px" font-style="normal" font-weight="normal" text-decoration="none" x="200" y="300">UNREGISTERED</text><text fill="#eeeeee" stroke="none" font-family="Arial" font-size="24px" font-style="normal" font-weight="normal" text-decoration="none" x="200" y="330">UNREGISTERED</text><text fill="#eeeeee" stroke="none" font-family="Arial" font-size="24px" font-style="normal" font-weight="normal" text-decoration="none" x="400" y="0">UNREGISTERED</text><text fill="#eeeeee" stroke="none" font-family="Arial" font-size="24px" font-style="normal" font-weight="normal" text-decoration="none" x="400" y="30">UNREGISTERED</text><text fill="#eeeeee" stroke="none" font-family="Arial" font-size="24px" font-style="normal" font-weight="normal" text-decoration="none" x="400" y="60">UNREGISTERED</text><text fill="#eeeeee" stroke="none" font-family="Arial" font-size="24px" font-style="normal" font-weight="normal" text-decoration="none" x="400" y="90">UNREGISTERED</text><text fill="#eeeeee" stroke="none" font-family="Arial" font-size="24px" font-style="normal" font-weight="normal" text-decoration="none" x="400" y="120">UNREGISTERED</text><text fill="#eeeeee" stroke="none" font-family="Arial" font-size="24px" font-style="normal" font-weight="normal" text-decoration="none" x="400" y="150">UNREGISTERED</text><text fill="#eeeeee" stroke="none" font-family="Arial" font-size="24px" font-style="normal" font-weight="normal" text-decoration="none" x="400" y="180">UNREGISTERED</text><text fill="#eeeeee" stroke="none" font-family="Arial" font-size="24px" font-style="normal" font-weight="normal" text-decoration="none" x="400" y="210">UNREGISTERED</text><text fill="#eeeeee" stroke="none" font-family="Arial" font-size="24px" font-style="normal" font-weight="normal" text-decoration="none" x="400" y="240">UNREGISTERED</text><text fill="#eeeeee" stroke="none" font-family="Arial" font-size="24px" font-style="normal" font-weight="normal" text-decoration="none" x="400" y="270">UNREGISTERED</text><text fill="#eeeeee" stroke="none" font-family="Arial" font-size="24px" font-style="normal" font-weight="normal" text-decoration="none" x="400" y="300">UNREGISTERED</text><text fill="#eeeeee" stroke="none" font-family="Arial" font-size="24px" font-style="normal" font-weight="normal" text-decoration="none" x="400" y="330">UNREGISTERED</text><g transform="translate(-62,-38) scale(1,1)"><path fill="#ffffff" stroke="none" d="M 300.67936985085225 57.68 C 300.67936985085225 52.886167936 304.56521217579774 49 309.358642578125 49 C 314.15207298045226 49 318.03791530539775 52.886167936 318.03791530539775 57.68 C 318.03791530539775 62.473832064 314.15207298045226 66.36 309.358642578125 66.36 C 304.56521217579774 66.36 300.67936985085225 62.473832064 300.67936985085225 57.68 Z"/></g><g transform="translate(-62,-38) scale(1,1)"><path fill="none" stroke="#000000" d="M 300.67936985085225 57.68 C 300.67936985085225 52.886167936 304.56521217579774 49 309.358642578125 49 C 314.15207298045226 49 318.03791530539775 52.886167936 318.03791530539775 57.68 C 318.03791530539775 62.473832064 314.15207298045226 66.36 309.358642578125 66.36 C 304.56521217579774 66.36 300.67936985085225 62.473832064 300.67936985085225 57.68 Z" stroke-miterlimit="10"/></g><g transform="translate(-62,-38) scale(1,1)"><path fill="none" stroke="#000000" d="M 309.358642578125 66.36 L 309.358642578125 83.64" stroke-miterlimit="10"/></g><g transform="translate(-62,-38) scale(1,1)"><path fill="none" stroke="#000000" d="M 300.16882439630683 72.84 L 318.54846075994317 72.84" stroke-miterlimit="10"/></g><g transform="translate(-62,-38) scale(1,1)"><path fill="none" stroke="#000000" d="M 309.358642578125 83.64 L 296.59500621448865 101" stroke-miterlimit="10"/></g><g transform="translate(-62,-38) scale(1,1)"><path fill="none" stroke="#000000" d="M 309.358642578125 83.64 L 322.12227894176135 101" stroke-miterlimit="10"/></g><g transform="translate(-62,-38) scale(1,1)"><g><path fill="none" stroke="none"/><text fill="#000000" stroke="none" font-family="Arial" font-size="13px" font-style="normal" font-weight="bold" text-decoration="none" x="280.0927734375" y="121.5">Institución</text></g></g><g transform="translate(-62,-38) scale(1,1)"><path fill="#ffffff" stroke="none" d="M 217.0108137428977 195.89 C 217.0108137428977 189.875618528 221.83213662755227 185 227.779541015625 185 C 233.72694540369773 185 238.5482682883523 189.875618528 238.5482682883523 195.89 C 238.5482682883523 201.90438147199998 233.72694540369773 206.78 227.779541015625 206.78 C 221.83213662755227 206.78 217.0108137428977 201.90438147199998 217.0108137428977 195.89 Z"/></g><g transform="translate(-62,-38) scale(1,1)"><path fill="none" stroke="#000000" d="M 217.0108137428977 195.89 C 217.0108137428977 189.875618528 221.83213662755227 185 227.779541015625 185 C 233.72694540369773 185 238.5482682883523 189.875618528 238.5482682883523 195.89 C 238.5482682883523 201.90438147199998 233.72694540369773 206.78 227.779541015625 206.78 C 221.83213662755227 206.78 217.0108137428977 201.90438147199998 217.0108137428977 195.89 Z" stroke-miterlimit="10"/></g><g transform="translate(-62,-38) scale(1,1)"><path fill="none" stroke="#000000" d="M 227.779541015625 206.78 L 227.779541015625 228.22" stroke-miterlimit="10"/></g><g transform="translate(-62,-38) scale(1,1)"><path fill="none" stroke="#000000" d="M 216.37735919744318 214.82 L 239.18172283380682 214.82" stroke-miterlimit="10"/></g><g transform="translate(-62,-38) scale(1,1)"><path fill="none" stroke="#000000" d="M 227.779541015625 228.22 L 211.94317737926136 250" stroke-miterlimit="10"/></g><g transform="translate(-62,-38) scale(1,1)"><path fill="none" stroke="#000000" d="M 227.779541015625 228.22 L 243.61590465198864 250" stroke-miterlimit="10"/></g><g transform="translate(-62,-38) scale(1,1)"><g><path fill="none" stroke="none"/><text fill="#000000" stroke="none" font-family="Arial" font-size="13px" font-style="normal" font-weight="bold" text-decoration="none" x="200.313232421875" y="270.5">Sujeto de</text><text fill="#000000" stroke="none" font-family="Arial" font-size="13px" font-style="normal" font-weight="bold" text-decoration="none" x="209.34912109375" y="283.5">Apoyo</text></g></g><g transform="translate(-62,-38) scale(1,1)"><path fill="#ffffff" stroke="none" d="M 397.31827361505685 195.21 C 397.31827361505685 189.571172192 401.8517563274932 185 407.444091796875 185 C 413.0364272662568 185 417.56990997869315 189.571172192 417.56990997869315 195.21 C 417.56990997869315 200.848827808 413.0364272662568 205.42000000000002 407.444091796875 205.42000000000002 C 401.8517563274932 205.42000000000002 397.31827361505685 200.848827808 397.31827361505685 195.21 Z"/></g><g transform="translate(-62,-38) scale(1,1)"><path fill="none" stroke="#000000" d="M 397.31827361505685 195.21 C 397.31827361505685 189.571172192 401.8517563274932 185 407.444091796875 185 C 413.0364272662568 185 417.56990997869315 189.571172192 417.56990997869315 195.21 C 417.56990997869315 200.848827808 413.0364272662568 205.42000000000002 407.444091796875 205.42000000000002 C 401.8517563274932 205.42000000000002 397.31827361505685 200.848827808 397.31827361505685 195.21 Z" stroke-miterlimit="10"/></g><g transform="translate(-62,-38) scale(1,1)"><path fill="none" stroke="#000000" d="M 407.444091796875 205.42000000000002 L 407.444091796875 225.57999999999998" stroke-miterlimit="10"/></g><g transform="translate(-62,-38) scale(1,1)"><path fill="none" stroke="#000000" d="M 396.72263725142045 212.98 L 418.16554634232955 212.98" stroke-miterlimit="10"/></g><g transform="translate(-62,-38) scale(1,1)"><path fill="none" stroke="#000000" d="M 407.444091796875 225.57999999999998 L 392.5531827059659 246" stroke-miterlimit="10"/></g><g transform="translate(-62,-38) scale(1,1)"><path fill="none" stroke="#000000" d="M 407.444091796875 225.57999999999998 L 422.3350008877841 246" stroke-miterlimit="10"/></g><g transform="translate(-62,-38) scale(1,1)"><g><path fill="none" stroke="none"/><text fill="#000000" stroke="none" font-family="Arial" font-size="13px" font-style="normal" font-weight="bold" text-decoration="none" x="359.02734375" y="266.5">Co-Responsable</text></g></g><g transform="translate(-62,-38) scale(1,1)"><path fill="none" stroke="#000000" d="M 272 216 L 272 216 M 272 216 A 8 8 0 0 0 280 208 L 280 127" stroke-miterlimit="10"/></g><g transform="translate(-62,-38) scale(1,1)"><path fill="#FFFFFF" stroke="none" d="M 288.419035512032 147.3253497152483 L 280 127 L 271.580964487968 147.3253497152483"/></g><g transform="translate(-62,-38) scale(1,1)"><path fill="none" stroke="#000000" d="M 288.419035512032 147.3253497152483 L 280 127 L 271.580964487968 147.3253497152483 L 288.419035512032 147.3253497152483" stroke-miterlimit="10"/></g><g transform="translate(-62,-38) scale(1,1)"><path fill="none" stroke="#000000" d="M 352 216 L 344 216 M 344 216 A 8 8 0 0 1 336 208 L 336 127" stroke-miterlimit="10"/></g><g transform="translate(-62,-38) scale(1,1)"><path fill="#FFFFFF" stroke="none" d="M 344.419035512032 147.3253497152483 L 336 127 L 327.580964487968 147.3253497152483"/></g><g transform="translate(-62,-38) scale(1,1)"><path fill="none" stroke="#000000" d="M 344.419035512032 147.3253497152483 L 336 127 L 327.580964487968 147.3253497152483 L 344.419035512032 147.3253497152483" stroke-miterlimit="10"/></g><g transform="translate(-62,-38) scale(1,1)"><path fill="#ffffff" stroke="none" d="M 515.9652585227273 57.68 C 515.9652585227273 52.886167936 519.8511008476727 49 524.64453125 49 C 529.4379616523273 49 533.3238039772727 52.886167936 533.3238039772727 57.68 C 533.3238039772727 62.473832064 529.4379616523273 66.36 524.64453125 66.36 C 519.8511008476727 66.36 515.9652585227273 62.473832064 515.9652585227273 57.68 Z"/></g><g transform="translate(-62,-38) scale(1,1)"><path fill="none" stroke="#000000" d="M 515.9652585227273 57.68 C 515.9652585227273 52.886167936 519.8511008476727 49 524.64453125 49 C 529.4379616523273 49 533.3238039772727 52.886167936 533.3238039772727 57.68 C 533.3238039772727 62.473832064 529.4379616523273 66.36 524.64453125 66.36 C 519.8511008476727 66.36 515.9652585227273 62.473832064 515.9652585227273 57.68 Z" stroke-miterlimit="10"/></g><g transform="translate(-62,-38) scale(1,1)"><path fill="none" stroke="#000000" d="M 524.64453125 66.36 L 524.64453125 83.64" stroke-miterlimit="10"/></g><g transform="translate(-62,-38) scale(1,1)"><path fill="none" stroke="#000000" d="M 515.4547130681818 72.84 L 533.8343494318182 72.84" stroke-miterlimit="10"/></g><g transform="translate(-62,-38) scale(1,1)"><path fill="none" stroke="#000000" d="M 524.64453125 83.64 L 511.88089488636365 101" stroke-miterlimit="10"/></g><g transform="translate(-62,-38) scale(1,1)"><path fill="none" stroke="#000000" d="M 524.64453125 83.64 L 537.4081676136364 101" stroke-miterlimit="10"/></g><g transform="translate(-62,-38) scale(1,1)"><g><path fill="none" stroke="none"/><text fill="#000000" stroke="none" font-family="Arial" font-size="13px" font-style="normal" font-weight="bold" text-decoration="none" x="492.864990234375" y="121.5">RENIECyT</text></g></g><g transform="translate(-62,-38) scale(1,1)"><path fill="none" stroke="#000000" d="M 347 80 L 488 80" stroke-miterlimit="10"/></g><g transform="translate(-62,-38) scale(1,1)"><path fill="none" stroke="#000000" d="M 477.83732514237585 84.20951775601598 L 488 80 L 477.83732514237585 75.79048224398402" stroke-miterlimit="10"/></g><g transform="translate(-62,-38) scale(1,1)"><g><path fill="none" stroke="none"/><text fill="#000000" stroke="none" font-family="Arial" font-size="13px" font-style="normal" font-weight="normal" text-decoration="none" x="384.535888671875" y="64.5">+registrada</text><text fill="#000000" stroke="none" font-family="Arial" font-size="13px" font-style="normal" font-weight="normal" text-decoration="none" x="410.005859375" y="77.5">en</text></g></g><g transform="translate(-62,-38) scale(1,1)"><g><path fill="none" stroke="none"/><text fill="#000000" stroke="none" font-family="Arial" font-size="13px" font-style="normal" font-weight="normal" text-decoration="none" x="455.5" y="98.5">0..1</text></g></g><g transform="translate(-62,-38) scale(1,1)"><path fill="#ffffff" stroke="none" d="M 301.08342258522725 289.68 C 301.08342258522725 284.886167936 304.96926491017274 281 309.7626953125 281 C 314.55612571482726 281 318.44196803977275 284.886167936 318.44196803977275 289.68 C 318.44196803977275 294.473832064 314.55612571482726 298.36 309.7626953125 298.36 C 304.96926491017274 298.36 301.08342258522725 294.473832064 301.08342258522725 289.68 Z"/></g><g transform="translate(-62,-38) scale(1,1)"><path fill="none" stroke="#000000" d="M 301.08342258522725 289.68 C 301.08342258522725 284.886167936 304.96926491017274 281 309.7626953125 281 C 314.55612571482726 281 318.44196803977275 284.886167936 318.44196803977275 289.68 C 318.44196803977275 294.473832064 314.55612571482726 298.36 309.7626953125 298.36 C 304.96926491017274 298.36 301.08342258522725 294.473832064 301.08342258522725 289.68 Z" stroke-miterlimit="10"/></g><g transform="translate(-62,-38) scale(1,1)"><path fill="none" stroke="#000000" d="M 309.7626953125 298.36 L 309.7626953125 315.64" stroke-miterlimit="10"/></g><g transform="translate(-62,-38) scale(1,1)"><path fill="none" stroke="#000000" d="M 300.57287713068183 304.84 L 318.95251349431817 304.84" stroke-miterlimit="10"/></g><g transform="translate(-62,-38) scale(1,1)"><path fill="none" stroke="#000000" d="M 309.7626953125 315.64 L 296.99905894886365 333" stroke-miterlimit="10"/></g><g transform="translate(-62,-38) scale(1,1)"><path fill="none" stroke="#000000" d="M 309.7626953125 315.64 L 322.52633167613635 333" stroke-miterlimit="10"/></g><g transform="translate(-62,-38) scale(1,1)"><g><path fill="none" stroke="none"/><text fill="#000000" stroke="none" font-family="Arial" font-size="13px" font-style="normal" font-weight="bold" text-decoration="none" x="271.4609375" y="353.5">Institución de</text><text fill="#000000" stroke="none" font-family="Arial" font-size="13px" font-style="normal" font-weight="bold" text-decoration="none" x="275.437744140625" y="366.5">Participante</text></g></g><g transform="translate(-62,-38) scale(1,1)"><path fill="none" stroke="#000000" d="M 309 280 L 309 127" stroke-miterlimit="10"/></g><g transform="translate(-62,-38) scale(1,1)"><path fill="#FFFFFF" stroke="none" d="M 317.419035512032 147.3253497152483 L 309 127 L 300.580964487968 147.3253497152483"/></g><g transform="translate(-62,-38) scale(1,1)"><path fill="none" stroke="#000000" d="M 317.419035512032 147.3253497152483 L 309 127 L 300.580964487968 147.3253497152483 L 317.419035512032 147.3253497152483" stroke-miterlimit="10"/></g><g transform="translate(-62,-38) scale(1,1)"><path fill="#ffffff" stroke="none" d="M 105.02751438210227 57.68 C 105.02751438210227 52.886167936 108.91335670704773 49 113.706787109375 49 C 118.50021751170227 49 122.38605983664773 52.886167936 122.38605983664773 57.68 C 122.38605983664773 62.473832064 118.50021751170227 66.36 113.706787109375 66.36 C 108.91335670704773 66.36 105.02751438210227 62.473832064 105.02751438210227 57.68 Z"/></g><g transform="translate(-62,-38) scale(1,1)"><path fill="none" stroke="#000000" d="M 105.02751438210227 57.68 C 105.02751438210227 52.886167936 108.91335670704773 49 113.706787109375 49 C 118.50021751170227 49 122.38605983664773 52.886167936 122.38605983664773 57.68 C 122.38605983664773 62.473832064 118.50021751170227 66.36 113.706787109375 66.36 C 108.91335670704773 66.36 105.02751438210227 62.473832064 105.02751438210227 57.68 Z" stroke-miterlimit="10"/></g><g transform="translate(-62,-38) scale(1,1)"><path fill="none" stroke="#000000" d="M 113.706787109375 66.36 L 113.706787109375 83.64" stroke-miterlimit="10"/></g><g transform="translate(-62,-38) scale(1,1)"><path fill="none" stroke="#000000" d="M 104.51696892755682 72.84 L 122.89660529119318 72.84" stroke-miterlimit="10"/></g><g transform="translate(-62,-38) scale(1,1)"><path fill="none" stroke="#000000" d="M 113.706787109375 83.64 L 100.94315074573863 101" stroke-miterlimit="10"/></g><g transform="translate(-62,-38) scale(1,1)"><path fill="none" stroke="#000000" d="M 113.706787109375 83.64 L 126.47042347301137 101" stroke-miterlimit="10"/></g><g transform="translate(-62,-38) scale(1,1)"><g><path fill="none" stroke="none"/><text fill="#000000" stroke="none" font-family="Arial" font-size="13px" font-style="normal" font-weight="bold" text-decoration="none" x="79.3818359375" y="121.5">Participante</text></g></g><g transform="translate(-62,-38) scale(1,1)"><path fill="none" stroke="#000000" d="M 156 87 L 271 87" stroke-miterlimit="10"/></g><g transform="translate(-62,-38) scale(1,1)"><path fill="none" stroke="#000000" d="M 260.83732514237585 91.20951775601598 L 271 87 L 260.83732514237585 82.79048224398402" stroke-miterlimit="10"/></g><g transform="translate(-62,-38) scale(1,1)"><g><path fill="none" stroke="none"/><text fill="#000000" stroke="none" font-family="Arial" font-size="13px" font-style="normal" font-weight="normal" text-decoration="none" x="180.5" y="78.5">+pertenece</text></g></g><g transform="translate(-62,-38) scale(1,1)"><g><path fill="none" stroke="none"/><text fill="#000000" stroke="none" font-family="Arial" font-size="13px" font-style="normal" font-weight="normal" text-decoration="none" x="239.5" y="105.5">1..*</text></g></g></g></svg>