<svg version="1.1" xmlns="http://www.w3.org/2000/svg" xmlns:xlink="http://www.w3.org/1999/xlink" width="381.2890625" height="261"><defs/><g><text fill="#eeeeee" stroke="none" font-family="Arial" font-size="24px" font-style="normal" font-weight="normal" text-decoration="none" x="0" y="0">UNREGISTERED</text><text fill="#eeeeee" stroke="none" font-family="Arial" font-size="24px" font-style="normal" font-weight="normal" text-decoration="none" x="0" y="30">UNREGISTERED</text><text fill="#eeeeee" stroke="none" font-family="Arial" font-size="24px" font-style="normal" font-weight="normal" text-decoration="none" x="0" y="60">UNREGISTERED</text><text fill="#eeeeee" stroke="none" font-family="Arial" font-size="24px" font-style="normal" font-weight="normal" text-decoration="none" x="0" y="90">UNREGISTERED</text><text fill="#eeeeee" stroke="none" font-family="Arial" font-size="24px" font-style="normal" font-weight="normal" text-decoration="none" x="0" y="120">UNREGISTERED</text><text fill="#eeeeee" stroke="none" font-family="Arial" font-size="24px" font-style="normal" font-weight="normal" text-decoration="none" x="0" y="150">UNREGISTERED</text><text fill="#eeeeee" stroke="none" font-family="Arial" font-size="24px" font-style="normal" font-weight="normal" text-decoration="none" x="0" y="180">UNREGISTERED</text><text fill="#eeeeee" stroke="none" font-family="Arial" font-size="24px" font-style="normal" font-weight="normal" text-decoration="none" x="0" y="210">UNREGISTERED</text><text fill="#eeeeee" stroke="none" font-family="Arial" font-size="24px" font-style="normal" font-weight="normal" text-decoration="none" x="0" y="240">UNREGISTERED</text><text fill="#eeeeee" stroke="none" font-family="Arial" font-size="24px" font-style="normal" font-weight="normal" text-decoration="none" x="200" y="0">UNREGISTERED</text><text fill="#eeeeee" stroke="none" font-family="Arial" font-size="24px" font-style="normal" font-weight="normal" text-decoration="none" x="200" y="30">UNREGISTERED</text><text fill="#eeeeee" stroke="none" font-family="Arial" font-size="24px" font-style="normal" font-weight="normal" text-decoration="none" x="200" y="60">UNREGISTERED</text><text fill="#eeeeee" stroke="none" font-family="Arial" font-size="24px" font-style="normal" font-weight="normal" text-decoration="none" x="200" y="90">UNREGISTERED</text><text fill="#eeeeee" stroke="none" font-family="Arial" font-size="24px" font-style="normal" font-weight="normal" text-decoration="none" x="200" y="120">UNREGISTERED</text><text fill="#eeeeee" stroke="none" font-family="Arial" font-size="24px" font-style="normal" font-weight="normal" text-decoration="none" x="200" y="150">UNREGISTERED</text><text fill="#eeeeee" stroke="none" font-family="Arial" font-size="24px" font-style="normal" font-weight="normal" text-decoration="none" x="200" y="180">UNREGISTERED</text><text fill="#eeeeee" stroke="none" font-family="Arial" font-size="24px" font-style="normal" font-weight="normal" text-decoration="none" x="200" y="210">UNREGISTERED</text><text fill="#eeeeee" stroke="none" font-family="Arial" font-size="24px" font-style="normal" font-weight="normal" text-decoration="none" x="200" y="240">UNREGISTERED</text><g transform="translate(-38,-30) scale(1,1)"><path fill="#ffffff" stroke="none" d="M 164.67936985085228 49.68 C 164.67936985085228 44.886167936 168.56521217579774 41 173.358642578125 41 C 178.15207298045226 41 182.03791530539772 44.886167936 182.03791530539772 49.68 C 182.03791530539772 54.473832064 178.15207298045226 58.36 173.358642578125 58.36 C 168.56521217579774 58.36 164.67936985085228 54.473832064 164.67936985085228 49.68 Z"/></g><g transform="translate(-38,-30) scale(1,1)"><path fill="none" stroke="#000000" d="M 164.67936985085228 49.68 C 164.67936985085228 44.886167936 168.56521217579774 41 173.358642578125 41 C 178.15207298045226 41 182.03791530539772 44.886167936 182.03791530539772 49.68 C 182.03791530539772 54.473832064 178.15207298045226 58.36 173.358642578125 58.36 C 168.56521217579774 58.36 164.67936985085228 54.473832064 164.67936985085228 49.68 Z" stroke-miterlimit="10"/></g><g transform="translate(-38,-30) scale(1,1)"><path fill="none" stroke="#000000" d="M 173.358642578125 58.36 L 173.358642578125 75.64" stroke-miterlimit="10"/></g><g transform="translate(-38,-30) scale(1,1)"><path fill="none" stroke="#000000" d="M 164.16882439630683 64.84 L 182.54846075994317 64.84" stroke-miterlimit="10"/></g><g transform="translate(-38,-30) scale(1,1)"><path fill="none" stroke="#000000" d="M 173.358642578125 75.64 L 160.59500621448865 93" stroke-miterlimit="10"/></g><g transform="translate(-38,-30) scale(1,1)"><path fill="none" stroke="#000000" d="M 173.358642578125 75.64 L 186.12227894176135 93" stroke-miterlimit="10"/></g><g transform="translate(-38,-30) scale(1,1)"><g><path fill="none" stroke="none"/><text fill="#000000" stroke="none" font-family="Arial" font-size="13px" font-style="normal" font-weight="bold" text-decoration="none" x="144.0927734375" y="113.5">Institución</text></g></g><g transform="translate(-38,-30) scale(1,1)"><path fill="#ffffff" stroke="none" d="M 81.01081374289772 187.89 C 81.01081374289772 181.875618528 85.83213662755227 177 91.779541015625 177 C 97.72694540369773 177 102.54826828835228 181.875618528 102.54826828835228 187.89 C 102.54826828835228 193.90438147199998 97.72694540369773 198.78 91.779541015625 198.78 C 85.83213662755227 198.78 81.01081374289772 193.90438147199998 81.01081374289772 187.89 Z"/></g><g transform="translate(-38,-30) scale(1,1)"><path fill="none" stroke="#000000" d="M 81.01081374289772 187.89 C 81.01081374289772 181.875618528 85.83213662755227 177 91.779541015625 177 C 97.72694540369773 177 102.54826828835228 181.875618528 102.54826828835228 187.89 C 102.54826828835228 193.90438147199998 97.72694540369773 198.78 91.779541015625 198.78 C 85.83213662755227 198.78 81.01081374289772 193.90438147199998 81.01081374289772 187.89 Z" stroke-miterlimit="10"/></g><g transform="translate(-38,-30) scale(1,1)"><path fill="none" stroke="#000000" d="M 91.779541015625 198.78 L 91.779541015625 220.22" stroke-miterlimit="10"/></g><g transform="translate(-38,-30) scale(1,1)"><path fill="none" stroke="#000000" d="M 80.37735919744318 206.82 L 103.18172283380682 206.82" stroke-miterlimit="10"/></g><g transform="translate(-38,-30) scale(1,1)"><path fill="none" stroke="#000000" d="M 91.779541015625 220.22 L 75.94317737926136 242" stroke-miterlimit="10"/></g><g transform="translate(-38,-30) scale(1,1)"><path fill="none" stroke="#000000" d="M 91.779541015625 220.22 L 107.61590465198864 242" stroke-miterlimit="10"/></g><g transform="translate(-38,-30) scale(1,1)"><g><path fill="none" stroke="none"/><text fill="#000000" stroke="none" font-family="Arial" font-size="13px" font-style="normal" font-weight="bold" text-decoration="none" x="64.313232421875" y="262.5">Sujeto de</text><text fill="#000000" stroke="none" font-family="Arial" font-size="13px" font-style="normal" font-weight="bold" text-decoration="none" x="73.34912109375" y="275.5">Apoyo</text></g></g><g transform="translate(-38,-30) scale(1,1)"><path fill="#ffffff" stroke="none" d="M 249.87418181818182 187.21 C 249.87418181818182 181.571172192 254.4076645306182 177 260 177 C 265.5923354693818 177 270.12581818181815 181.571172192 270.12581818181815 187.21 C 270.12581818181815 192.848827808 265.5923354693818 197.42000000000002 260 197.42000000000002 C 254.4076645306182 197.42000000000002 249.87418181818182 192.848827808 249.87418181818182 187.21 Z"/></g><g transform="translate(-38,-30) scale(1,1)"><path fill="none" stroke="#000000" d="M 249.87418181818182 187.21 C 249.87418181818182 181.571172192 254.4076645306182 177 260 177 C 265.5923354693818 177 270.12581818181815 181.571172192 270.12581818181815 187.21 C 270.12581818181815 192.848827808 265.5923354693818 197.42000000000002 260 197.42000000000002 C 254.4076645306182 197.42000000000002 249.87418181818182 192.848827808 249.87418181818182 187.21 Z" stroke-miterlimit="10"/></g><g transform="translate(-38,-30) scale(1,1)"><path fill="none" stroke="#000000" d="M 260 197.42000000000002 L 260 217.57999999999998" stroke-miterlimit="10"/></g><g transform="translate(-38,-30) scale(1,1)"><path fill="none" stroke="#000000" d="M 249.27854545454545 204.98 L 270.72145454545455 204.98" stroke-miterlimit="10"/></g><g transform="translate(-38,-30) scale(1,1)"><path fill="none" stroke="#000000" d="M 260 217.57999999999998 L 245.10909090909092 238" stroke-miterlimit="10"/></g><g transform="translate(-38,-30) scale(1,1)"><path fill="none" stroke="#000000" d="M 260 217.57999999999998 L 274.8909090909091 238" stroke-miterlimit="10"/></g><g transform="translate(-38,-30) scale(1,1)"><g><path fill="none" stroke="none"/><text fill="#000000" stroke="none" font-family="Arial" font-size="13px" font-style="normal" font-weight="bold" text-decoration="none" x="214.833251953125" y="258.5">Co-Reponsable</text></g></g><g transform="translate(-38,-30) scale(1,1)"><path fill="none" stroke="#000000" d="M 136 208 L 149 208 M 149 208 A 8 8 0 0 0 157 200 L 157 119" stroke-miterlimit="10"/></g><g transform="translate(-38,-30) scale(1,1)"><path fill="#FFFFFF" stroke="none" d="M 165.41903551203197 139.3253497152483 L 157 119 L 148.58096448796803 139.3253497152483"/></g><g transform="translate(-38,-30) scale(1,1)"><path fill="none" stroke="#000000" d="M 165.41903551203197 139.3253497152483 L 157 119 L 148.58096448796803 139.3253497152483 L 165.41903551203197 139.3253497152483" stroke-miterlimit="10"/></g><g transform="translate(-38,-30) scale(1,1)"><path fill="none" stroke="#000000" d="M 200 208 L 192 208 M 192 208 A 8 8 0 0 1 184 200 L 184 119" stroke-miterlimit="10"/></g><g transform="translate(-38,-30) scale(1,1)"><path fill="#FFFFFF" stroke="none" d="M 192.41903551203197 139.3253497152483 L 184 119 L 175.58096448796803 139.3253497152483"/></g><g transform="translate(-38,-30) scale(1,1)"><path fill="none" stroke="#000000" d="M 192.41903551203197 139.3253497152483 L 184 119 L 175.58096448796803 139.3253497152483 L 192.41903551203197 139.3253497152483" stroke-miterlimit="10"/></g><g transform="translate(-38,-30) scale(1,1)"><path fill="#ffffff" stroke="none" d="M 363.96525852272725 49.68 C 363.96525852272725 44.886167936 367.85110084767274 41 372.64453125 41 C 377.43796165232726 41 381.32380397727275 44.886167936 381.32380397727275 49.68 C 381.32380397727275 54.473832064 377.43796165232726 58.36 372.64453125 58.36 C 367.85110084767274 58.36 363.96525852272725 54.473832064 363.96525852272725 49.68 Z"/></g><g transform="translate(-38,-30) scale(1,1)"><path fill="none" stroke="#000000" d="M 363.96525852272725 49.68 C 363.96525852272725 44.886167936 367.85110084767274 41 372.64453125 41 C 377.43796165232726 41 381.32380397727275 44.886167936 381.32380397727275 49.68 C 381.32380397727275 54.473832064 377.43796165232726 58.36 372.64453125 58.36 C 367.85110084767274 58.36 363.96525852272725 54.473832064 363.96525852272725 49.68 Z" stroke-miterlimit="10"/></g><g transform="translate(-38,-30) scale(1,1)"><path fill="none" stroke="#000000" d="M 372.64453125 58.36 L 372.64453125 75.64" stroke-miterlimit="10"/></g><g transform="translate(-38,-30) scale(1,1)"><path fill="none" stroke="#000000" d="M 363.45471306818183 64.84 L 381.83434943181817 64.84" stroke-miterlimit="10"/></g><g transform="translate(-38,-30) scale(1,1)"><path fill="none" stroke="#000000" d="M 372.64453125 75.64 L 359.88089488636365 93" stroke-miterlimit="10"/></g><g transform="translate(-38,-30) scale(1,1)"><path fill="none" stroke="#000000" d="M 372.64453125 75.64 L 385.40816761363635 93" stroke-miterlimit="10"/></g><g transform="translate(-38,-30) scale(1,1)"><g><path fill="none" stroke="none"/><text fill="#000000" stroke="none" font-family="Arial" font-size="13px" font-style="normal" font-weight="bold" text-decoration="none" x="340.864990234375" y="113.5">RENIECyT</text></g></g><g transform="translate(-38,-30) scale(1,1)"><path fill="none" stroke="#000000" d="M 211 72 L 336 72" stroke-miterlimit="10"/></g><g transform="translate(-38,-30) scale(1,1)"><path fill="none" stroke="#000000" d="M 325.83732514237585 76.20951775601598 L 336 72 L 325.83732514237585 67.79048224398402" stroke-miterlimit="10"/></g><g transform="translate(-38,-30) scale(1,1)"><g><path fill="none" stroke="none"/><text fill="#000000" stroke="none" font-family="Arial" font-size="13px" font-style="normal" font-weight="normal" text-decoration="none" x="240.535888671875" y="56.5">+registrada</text><text fill="#000000" stroke="none" font-family="Arial" font-size="13px" font-style="normal" font-weight="normal" text-decoration="none" x="266.005859375" y="69.5">en</text></g></g></g></svg>