<svg version="1.1" xmlns="http://www.w3.org/2000/svg" xmlns:xlink="http://www.w3.org/1999/xlink" width="511" height="344"><defs/><g><text fill="#eeeeee" stroke="none" font-family="Arial" font-size="24px" font-style="normal" font-weight="normal" text-decoration="none" x="0" y="0">UNREGISTERED</text><text fill="#eeeeee" stroke="none" font-family="Arial" font-size="24px" font-style="normal" font-weight="normal" text-decoration="none" x="0" y="30">UNREGISTERED</text><text fill="#eeeeee" stroke="none" font-family="Arial" font-size="24px" font-style="normal" font-weight="normal" text-decoration="none" x="0" y="60">UNREGISTERED</text><text fill="#eeeeee" stroke="none" font-family="Arial" font-size="24px" font-style="normal" font-weight="normal" text-decoration="none" x="0" y="90">UNREGISTERED</text><text fill="#eeeeee" stroke="none" font-family="Arial" font-size="24px" font-style="normal" font-weight="normal" text-decoration="none" x="0" y="120">UNREGISTERED</text><text fill="#eeeeee" stroke="none" font-family="Arial" font-size="24px" font-style="normal" font-weight="normal" text-decoration="none" x="0" y="150">UNREGISTERED</text><text fill="#eeeeee" stroke="none" font-family="Arial" font-size="24px" font-style="normal" font-weight="normal" text-decoration="none" x="0" y="180">UNREGISTERED</text><text fill="#eeeeee" stroke="none" font-family="Arial" font-size="24px" font-style="normal" font-weight="normal" text-decoration="none" x="0" y="210">UNREGISTERED</text><text fill="#eeeeee" stroke="none" font-family="Arial" font-size="24px" font-style="normal" font-weight="normal" text-decoration="none" x="0" y="240">UNREGISTERED</text><text fill="#eeeeee" stroke="none" font-family="Arial" font-size="24px" font-style="normal" font-weight="normal" text-decoration="none" x="0" y="270">UNREGISTERED</text><text fill="#eeeeee" stroke="none" font-family="Arial" font-size="24px" font-style="normal" font-weight="normal" text-decoration="none" x="0" y="300">UNREGISTERED</text><text fill="#eeeeee" stroke="none" font-family="Arial" font-size="24px" font-style="normal" font-weight="normal" text-decoration="none" x="0" y="330">UNREGISTERED</text><text fill="#eeeeee" stroke="none" font-family="Arial" font-size="24px" font-style="normal" font-weight="normal" text-decoration="none" x="200" y="0">UNREGISTERED</text><text fill="#eeeeee" stroke="none" font-family="Arial" font-size="24px" font-style="normal" font-weight="normal" text-decoration="none" x="200" y="30">UNREGISTERED</text><text fill="#eeeeee" stroke="none" font-family="Arial" font-size="24px" font-style="normal" font-weight="normal" text-decoration="none" x="200" y="60">UNREGISTERED</text><text fill="#eeeeee" stroke="none" font-family="Arial" font-size="24px" font-style="normal" font-weight="normal" text-decoration="none" x="200" y="90">UNREGISTERED</text><text fill="#eeeeee" stroke="none" font-family="Arial" font-size="24px" font-style="normal" font-weight="normal" text-decoration="none" x="200" y="120">UNREGISTERED</text><text fill="#eeeeee" stroke="none" font-family="Arial" font-size="24px" font-style="normal" font-weight="normal" text-decoration="none" x="200" y="150">UNREGISTERED</text><text fill="#eeeeee" stroke="none" font-family="Arial" font-size="24px" font-style="normal" font-weight="normal" text-decoration="none" x="200" y="180">UNREGISTERED</text><text fill="#eeeeee" stroke="none" font-family="Arial" font-size="24px" font-style="normal" font-weight="normal" text-decoration="none" x="200" y="210">UNREGISTERED</text><text fill="#eeeeee" stroke="none" font-family="Arial" font-size="24px" font-style="normal" font-weight="normal" text-decoration="none" x="200" y="240">UNREGISTERED</text><text fill="#eeeeee" stroke="none" font-family="Arial" font-size="24px" font-style="normal" font-weight="normal" text-decoration="none" x="200" y="270">UNREGISTERED</text><text fill="#eeeeee" stroke="none" font-family="Arial" font-size="24px" font-style="normal" font-weight="normal" text-decoration="none" x="200" y="300">UNREGISTERED</text><text fill="#eeeeee" stroke="none" font-family="Arial" font-size="24px" font-style="normal" font-weight="normal" text-decoration="none" x="200" y="330">UNREGISTERED</text><text fill="#eeeeee" stroke="none" font-family="Arial" font-size="24px" font-style="normal" font-weight="normal" text-decoration="none" x="400" y="0">UNREGISTERED</text><text fill="#eeeeee" stroke="none" font-family="Arial" font-size="24px" font-style="normal" font-weight="normal" text-decoration="none" x="400" y="30">UNREGISTERED</text><text fill="#eeeeee" stroke="none" font-family="Arial" font-size="24px" font-style="normal" font-weight="normal" text-decoration="none" x="400" y="60">UNREGISTERED</text><text fill="#eeeeee" stroke="none" font-family="Arial" font-size="24px" font-style="normal" font-weight="normal" text-decoration="none" x="400" y="90">UNREGISTERED</text><text fill="#eeeeee" stroke="none" font-family="Arial" font-size="24px" font-style="normal" font-weight="normal" text-decoration="none" x="400" y="120">UNREGISTERED</text><text fill="#eeeeee" stroke="none" font-family="Arial" font-size="24px" font-style="normal" font-weight="normal" text-decoration="none" x="400" y="150">UNREGISTERED</text><text fill="#eeeeee" stroke="none" font-family="Arial" font-size="24px" font-style="normal" font-weight="normal" text-decoration="none" x="400" y="180">UNREGISTERED</text><text fill="#eeeeee" stroke="none" font-family="Arial" font-size="24px" font-style="normal" font-weight="normal" text-decoration="none" x="400" y="210">UNREGISTERED</text><text fill="#eeeeee" stroke="none" font-family="Arial" font-size="24px" font-style="normal" font-weight="normal" text-decoration="none" x="400" y="240">UNREGISTERED</text><text fill="#eeeeee" stroke="none" font-family="Arial" font-size="24px" font-style="normal" font-weight="normal" text-decoration="none" x="400" y="270">UNREGISTERED</text><text fill="#eeeeee" stroke="none" font-family="Arial" font-size="24px" font-style="normal" font-weight="normal" text-decoration="none" x="400" y="300">UNREGISTERED</text><text fill="#eeeeee" stroke="none" font-family="Arial" font-size="24px" font-style="normal" font-weight="normal" text-decoration="none" x="400" y="330">UNREGISTERED</text><g transform="translate(-62,-38) scale(1,1)"><path fill="#ffffff" stroke="none" d="M 300.82072727272725 57.68 C 300.82072727272725 52.886167936 304.70656959767274 49 309.5 49 C 314.29343040232726 49 318.17927272727275 52.886167936 318.17927272727275 57.68 C 318.17927272727275 62.473832064 314.29343040232726 66.36 309.5 66.36 C 304.70656959767274 66.36 300.82072727272725 62.473832064 300.82072727272725 57.68 Z"/></g><g transform="translate(-62,-38) scale(1,1)"><path fill="none" stroke="#000000" d="M 300.82072727272725 57.68 C 300.82072727272725 52.886167936 304.70656959767274 49 309.5 49 C 314.29343040232726 49 318.17927272727275 52.886167936 318.17927272727275 57.68 C 318.17927272727275 62.473832064 314.29343040232726 66.36 309.5 66.36 C 304.70656959767274 66.36 300.82072727272725 62.473832064 300.82072727272725 57.68 Z" stroke-miterlimit="10"/></g><g transform="translate(-62,-38) scale(1,1)"><path fill="none" stroke="#000000" d="M 309.5 66.36 L 309.5 83.64" stroke-miterlimit="10"/></g><g transform="translate(-62,-38) scale(1,1)"><path fill="none" stroke="#000000" d="M 300.31018181818183 72.84 L 318.68981818181817 72.84" stroke-miterlimit="10"/></g><g transform="translate(-62,-38) scale(1,1)"><path fill="none" stroke="#000000" d="M 309.5 83.64 L 296.73636363636365 101" stroke-miterlimit="10"/></g><g transform="translate(-62,-38) scale(1,1)"><path fill="none" stroke="#000000" d="M 309.5 83.64 L 322.26363636363635 101" stroke-miterlimit="10"/></g><g transform="translate(-62,-38) scale(1,1)"><g><path fill="none" stroke="none"/><text fill="#000000" stroke="none" font-family="Arial" font-size="13px" font-style="normal" font-weight="bold" text-decoration="none" x="280.234130859375" y="121.5">Institución</text></g></g><g transform="translate(-62,-38) scale(1,1)"><path fill="#ffffff" stroke="none" d="M 217.0108137428977 195.89 C 217.0108137428977 189.875618528 221.83213662755227 185 227.779541015625 185 C 233.72694540369773 185 238.5482682883523 189.875618528 238.5482682883523 195.89 C 238.5482682883523 201.90438147199998 233.72694540369773 206.78 227.779541015625 206.78 C 221.83213662755227 206.78 217.0108137428977 201.90438147199998 217.0108137428977 195.89 Z"/></g><g transform="translate(-62,-38) scale(1,1)"><path fill="none" stroke="#000000" d="M 217.0108137428977 195.89 C 217.0108137428977 189.875618528 221.83213662755227 185 227.779541015625 185 C 233.72694540369773 185 238.5482682883523 189.875618528 238.5482682883523 195.89 C 238.5482682883523 201.90438147199998 233.72694540369773 206.78 227.779541015625 206.78 C 221.83213662755227 206.78 217.0108137428977 201.90438147199998 217.0108137428977 195.89 Z" stroke-miterlimit="10"/></g><g transform="translate(-62,-38) scale(1,1)"><path fill="none" stroke="#000000" d="M 227.779541015625 206.78 L 227.779541015625 228.22" stroke-miterlimit="10"/></g><g transform="translate(-62,-38) scale(1,1)"><path fill="none" stroke="#000000" d="M 216.37735919744318 214.82 L 239.18172283380682 214.82" stroke-miterlimit="10"/></g><g transform="translate(-62,-38) scale(1,1)"><path fill="none" stroke="#000000" d="M 227.779541015625 228.22 L 211.94317737926136 250" stroke-miterlimit="10"/></g><g transform="translate(-62,-38) scale(1,1)"><path fill="none" stroke="#000000" d="M 227.779541015625 228.22 L 243.61590465198864 250" stroke-miterlimit="10"/></g><g transform="translate(-62,-38) scale(1,1)"><g><path fill="none" stroke="none"/><text fill="#000000" stroke="none" font-family="Arial" font-size="13px" font-style="normal" font-weight="bold" text-decoration="none" x="200.313232421875" y="270.5">Sujeto de</text><text fill="#000000" stroke="none" font-family="Arial" font-size="13px" font-style="normal" font-weight="bold" text-decoration="none" x="209.34912109375" y="283.5">Apoyo</text></g></g><g transform="translate(-62,-38) scale(1,1)"><path fill="#ffffff" stroke="none" d="M 397.31827361505685 195.21 C 397.31827361505685 189.571172192 401.8517563274932 185 407.444091796875 185 C 413.0364272662568 185 417.56990997869315 189.571172192 417.56990997869315 195.21 C 417.56990997869315 200.848827808 413.0364272662568 205.42000000000002 407.444091796875 205.42000000000002 C 401.8517563274932 205.42000000000002 397.31827361505685 200.848827808 397.31827361505685 195.21 Z"/></g><g transform="translate(-62,-38) scale(1,1)"><path fill="none" stroke="#000000" d="M 397.31827361505685 195.21 C 397.31827361505685 189.571172192 401.8517563274932 185 407.444091796875 185 C 413.0364272662568 185 417.56990997869315 189.571172192 417.56990997869315 195.21 C 417.56990997869315 200.848827808 413.0364272662568 205.42000000000002 407.444091796875 205.42000000000002 C 401.8517563274932 205.42000000000002 397.31827361505685 200.848827808 397.31827361505685 195.21 Z" stroke-miterlimit="10"/></g><g transform="translate(-62,-38) scale(1,1)"><path fill="none" stroke="#000000" d="M 407.444091796875 205.42000000000002 L 407.444091796875 225.57999999999998" stroke-miterlimit="10"/></g><g transform="translate(-62,-38) scale(1,1)"><path fill="none" stroke="#000000" d="M 396.72263725142045 212.98 L 418.16554634232955 212.98" stroke-miterlimit="10"/></g><g transform="translate(-62,-38) scale(1,1)"><path fill="none" stroke="#000000" d="M 407.444091796875 225.57999999999998 L 392.5531827059659 246" stroke-miterlimit="10"/></g><g transform="translate(-62,-38) scale(1,1)"><path fill="none" stroke="#000000" d="M 407.444091796875 225.57999999999998 L 422.3350008877841 246" stroke-miterlimit="10"/></g><g transform="translate(-62,-38) scale(1,1)"><g><path fill="none" stroke="none"/><text fill="#000000" stroke="none" font-family="Arial" font-size="13px" font-style="normal" font-weight="bold" text-decoration="none" x="359.02734375" y="266.5">Co-Responsable</text></g></g><g transform="translate(-62,-38) scale(1,1)"><path fill="none" stroke="#000000" d="M 272 216 L 272 216 M 272 216 A 8 8 0 0 0 280 208 L 280 127" stroke-miterlimit="10"/></g><g transform="translate(-62,-38) scale(1,1)"><path fill="#FFFFFF" stroke="none" d="M 288.419035512032 147.3253497152483 L 280 127 L 271.580964487968 147.3253497152483"/></g><g transform="translate(-62,-38) scale(1,1)"><path fill="none" stroke="#000000" d="M 288.419035512032 147.3253497152483 L 280 127 L 271.580964487968 147.3253497152483 L 288.419035512032 147.3253497152483" stroke-miterlimit="10"/></g><g transform="translate(-62,-38) scale(1,1)"><path fill="none" stroke="#000000" d="M 352 216 L 344 216 M 344 216 A 8 8 0 0 1 336 208 L 336 127" stroke-miterlimit="10"/></g><g transform="translate(-62,-38) scale(1,1)"><path fill="#FFFFFF" stroke="none" d="M 344.419035512032 147.3253497152483 L 336 127 L 327.580964487968 147.3253497152483"/></g><g transform="translate(-62,-38) scale(1,1)"><path fill="none" stroke="#000000" d="M 344.419035512032 147.3253497152483 L 336 127 L 327.580964487968 147.3253497152483 L 344.419035512032 147.3253497152483" stroke-miterlimit="10"/></g><g transform="translate(-62,-38) scale(1,1)"><path fill="#ffffff" stroke="none" d="M 516.8207272727273 57.68 C 516.8207272727273 52.886167936 520.7065695976727 49 525.5 49 C 530.2934304023273 49 534.1792727272727 52.886167936 534.1792727272727 57.68 C 534.1792727272727 62.473832064 530.2934304023273 66.36 525.5 66.36 C 520.7065695976727 66.36 516.8207272727273 62.473832064 516.8207272727273 57.68 Z"/></g><g transform="translate(-62,-38) scale(1,1)"><path fill="none" stroke="#000000" d="M 516.8207272727273 57.68 C 516.8207272727273 52.886167936 520.7065695976727 49 525.5 49 C 530.2934304023273 49 534.1792727272727 52.886167936 534.1792727272727 57.68 C 534.1792727272727 62.473832064 530.2934304023273 66.36 525.5 66.36 C 520.7065695976727 66.36 516.8207272727273 62.473832064 516.8207272727273 57.68 Z" stroke-miterlimit="10"/></g><g transform="translate(-62,-38) scale(1,1)"><path fill="none" stroke="#000000" d="M 525.5 66.36 L 525.5 83.64" stroke-miterlimit="10"/></g><g transform="translate(-62,-38) scale(1,1)"><path fill="none" stroke="#000000" d="M 516.3101818181818 72.84 L 534.6898181818182 72.84" stroke-miterlimit="10"/></g><g transform="translate(-62,-38) scale(1,1)"><path fill="none" stroke="#000000" d="M 525.5 83.64 L 512.7363636363636 101" stroke-miterlimit="10"/></g><g transform="translate(-62,-38) scale(1,1)"><path fill="none" stroke="#000000" d="M 525.5 83.64 L 538.2636363636364 101" stroke-miterlimit="10"/></g><g transform="translate(-62,-38) scale(1,1)"><g><path fill="none" stroke="none"/><text fill="#000000" stroke="none" font-family="Arial" font-size="13px" font-style="normal" font-weight="bold" text-decoration="none" x="493.720458984375" y="121.5">RENIECyT</text></g></g><g transform="translate(-62,-38) scale(1,1)"><path fill="none" stroke="#000000" d="M 347 80 L 488 80" stroke-miterlimit="10"/></g><g transform="translate(-62,-38) scale(1,1)"><path fill="none" stroke="#000000" d="M 477.83732514237585 84.20951775601598 L 488 80 L 477.83732514237585 75.79048224398402" stroke-miterlimit="10"/></g><g transform="translate(-62,-38) scale(1,1)"><g><path fill="none" stroke="none"/><text fill="#000000" stroke="none" font-family="Arial" font-size="13px" font-style="normal" font-weight="normal" text-decoration="none" x="384.535888671875" y="64.5">+registrada</text><text fill="#000000" stroke="none" font-family="Arial" font-size="13px" font-style="normal" font-weight="normal" text-decoration="none" x="410.005859375" y="77.5">en</text></g></g><g transform="translate(-62,-38) scale(1,1)"><g><path fill="none" stroke="none"/><text fill="#000000" stroke="none" font-family="Arial" font-size="13px" font-style="normal" font-weight="normal" text-decoration="none" x="454.658203125" y="98.5">0..1</text></g></g><g transform="translate(-62,-38) scale(1,1)"><path fill="#ffffff" stroke="none" d="M 301.08342258522725 289.68 C 301.08342258522725 284.886167936 304.96926491017274 281 309.7626953125 281 C 314.55612571482726 281 318.44196803977275 284.886167936 318.44196803977275 289.68 C 318.44196803977275 294.473832064 314.55612571482726 298.36 309.7626953125 298.36 C 304.96926491017274 298.36 301.08342258522725 294.473832064 301.08342258522725 289.68 Z"/></g><g transform="translate(-62,-38) scale(1,1)"><path fill="none" stroke="#000000" d="M 301.08342258522725 289.68 C 301.08342258522725 284.886167936 304.96926491017274 281 309.7626953125 281 C 314.55612571482726 281 318.44196803977275 284.886167936 318.44196803977275 289.68 C 318.44196803977275 294.473832064 314.55612571482726 298.36 309.7626953125 298.36 C 304.96926491017274 298.36 301.08342258522725 294.473832064 301.08342258522725 289.68 Z" stroke-miterlimit="10"/></g><g transform="translate(-62,-38) scale(1,1)"><path fill="none" stroke="#000000" d="M 309.7626953125 298.36 L 309.7626953125 315.64" stroke-miterlimit="10"/></g><g transform="translate(-62,-38) scale(1,1)"><path fill="none" stroke="#000000" d="M 300.57287713068183 304.84 L 318.95251349431817 304.84" stroke-miterlimit="10"/></g><g transform="translate(-62,-38) scale(1,1)"><path fill="none" stroke="#000000" d="M 309.7626953125 315.64 L 296.99905894886365 333" stroke-miterlimit="10"/></g><g transform="translate(-62,-38) scale(1,1)"><path fill="none" stroke="#000000" d="M 309.7626953125 315.64 L 322.52633167613635 333" stroke-miterlimit="10"/></g><g transform="translate(-62,-38) scale(1,1)"><g><path fill="none" stroke="none"/><text fill="#000000" stroke="none" font-family="Arial" font-size="13px" font-style="normal" font-weight="bold" text-decoration="none" x="271.4609375" y="353.5">Institución de</text><text fill="#000000" stroke="none" font-family="Arial" font-size="13px" font-style="normal" font-weight="bold" text-decoration="none" x="275.437744140625" y="366.5">Participante</text></g></g><g transform="translate(-62,-38) scale(1,1)"><path fill="none" stroke="#000000" d="M 309 280 L 309 127" stroke-miterlimit="10"/></g><g transform="translate(-62,-38) scale(1,1)"><path fill="#FFFFFF" stroke="none" d="M 317.419035512032 147.3253497152483 L 309 127 L 300.580964487968 147.3253497152483"/></g><g transform="translate(-62,-38) scale(1,1)"><path fill="none" stroke="#000000" d="M 317.419035512032 147.3253497152483 L 309 127 L 300.580964487968 147.3253497152483 L 317.419035512032 147.3253497152483" stroke-miterlimit="10"/></g><g transform="translate(-62,-38) scale(1,1)"><path fill="#ffffff" stroke="none" d="M 105.02751438210227 57.68 C 105.02751438210227 52.886167936 108.91335670704773 49 113.706787109375 49 C 118.50021751170227 49 122.38605983664773 52.886167936 122.38605983664773 57.68 C 122.38605983664773 62.473832064 118.50021751170227 66.36 113.706787109375 66.36 C 108.91335670704773 66.36 105.02751438210227 62.473832064 105.02751438210227 57.68 Z"/></g><g transform="translate(-62,-38) scale(1,1)"><path fill="none" stroke="#000000" d="M 105.02751438210227 57.68 C 105.02751438210227 52.886167936 108.91335670704773 49 113.706787109375 49 C 118.50021751170227 49 122.38605983664773 52.886167936 122.38605983664773 57.68 C 122.38605983664773 62.473832064 118.50021751170227 66.36 113.706787109375 66.36 C 108.91335670704773 66.36 105.02751438210227 62.473832064 105.02751438210227 57.68 Z" stroke-miterlimit="10"/></g><g transform="translate(-62,-38) scale(1,1)"><path fill="none" stroke="#000000" d="M 113.706787109375 66.36 L 113.706787109375 83.64" stroke-miterlimit="10"/></g><g transform="translate(-62,-38) scale(1,1)"><path fill="none" stroke="#000000" d="M 104.51696892755682 72.84 L 122.89660529119318 72.84" stroke-miterlimit="10"/></g><g transform="translate(-62,-38) scale(1,1)"><path fill="none" stroke="#000000" d="M 113.706787109375 83.64 L 100.94315074573863 101" stroke-miterlimit="10"/></g><g transform="translate(-62,-38) scale(1,1)"><path fill="none" stroke="#000000" d="M 113.706787109375 83.64 L 126.47042347301137 101" stroke-miterlimit="10"/></g><g transform="translate(-62,-38) scale(1,1)"><g><path fill="none" stroke="none"/><text fill="#000000" stroke="none" font-family="Arial" font-size="13px" font-style="normal" font-weight="normal" text-decoration="none" x="99.253173828125" y="119.5">«rol»</text></g></g><g transform="translate(-62,-38) scale(1,1)"><g><path fill="none" stroke="none"/><text fill="#000000" stroke="none" font-family="Arial" font-size="13px" font-style="normal" font-weight="bold" text-decoration="none" x="79.3818359375" y="134.5">Participante</text></g></g><g transform="translate(-62,-38) scale(1,1)"><path fill="none" stroke="#000000" d="M 156 92 L 271 88" stroke-miterlimit="10"/></g><g transform="translate(-62,-38) scale(1,1)"><path fill="none" stroke="#000000" d="M 260.98979664241233 92.56024437280954 L 271 88 L 260.69713760491203 84.14629704467484" stroke-miterlimit="10"/></g><g transform="translate(-62,-38) scale(1,1)"><g><path fill="none" stroke="none"/><text fill="#000000" stroke="none" font-family="Arial" font-size="13px" font-style="normal" font-weight="normal" text-decoration="none" x="179.5" y="81.5">+pertenece</text></g></g><g transform="translate(-62,-38) scale(1,1)"><g><path fill="none" stroke="none"/><text fill="#000000" stroke="none" font-family="Arial" font-size="13px" font-style="normal" font-weight="normal" text-decoration="none" x="238.74365234375" y="107.5">1..*</text></g></g></g></svg>