<svg version="1.1" xmlns="http://www.w3.org/2000/svg" xmlns:xlink="http://www.w3.org/1999/xlink" width="511" height="496"><defs></defs><g><g transform="translate(-46,-38) scale(1,1)"><path fill="#ffffff" stroke="none" d="M 284.82072727272725 209.68 C 284.82072727272725 204.886167936 288.70656959767274 201 293.5 201 C 298.29343040232726 201 302.17927272727275 204.886167936 302.17927272727275 209.68 C 302.17927272727275 214.47383206400002 298.29343040232726 218.36 293.5 218.36 C 288.70656959767274 218.36 284.82072727272725 214.47383206400002 284.82072727272725 209.68 Z"></path></g><g transform="translate(-46,-38) scale(1,1)"><path fill="none" stroke="#000000" d="M 284.82072727272725 209.68 C 284.82072727272725 204.886167936 288.70656959767274 201 293.5 201 C 298.29343040232726 201 302.17927272727275 204.886167936 302.17927272727275 209.68 C 302.17927272727275 214.47383206400002 298.29343040232726 218.36 293.5 218.36 C 288.70656959767274 218.36 284.82072727272725 214.47383206400002 284.82072727272725 209.68 Z" stroke-miterlimit="10"></path></g><g transform="translate(-46,-38) scale(1,1)"><path fill="none" stroke="#000000" d="M 293.5 218.36 L 293.5 235.64" stroke-miterlimit="10"></path></g><g transform="translate(-46,-38) scale(1,1)"><path fill="none" stroke="#000000" d="M 284.31018181818183 224.84 L 302.68981818181817 224.84" stroke-miterlimit="10"></path></g><g transform="translate(-46,-38) scale(1,1)"><path fill="none" stroke="#000000" d="M 293.5 235.64 L 280.73636363636365 253" stroke-miterlimit="10"></path></g><g transform="translate(-46,-38) scale(1,1)"><path fill="none" stroke="#000000" d="M 293.5 235.64 L 306.26363636363635 253" stroke-miterlimit="10"></path></g><g transform="translate(-46,-38) scale(1,1)"><g><path fill="none" stroke="none"></path><text fill="#000000" stroke="none" font-family="Arial" font-size="13px" font-style="normal" font-weight="bold" text-decoration="none" x="263.5" y="273.5">Institución</text></g></g><g transform="translate(-46,-38) scale(1,1)"><path fill="#ffffff" stroke="none" d="M 201.0108137428977 347.89 C 201.0108137428977 341.875618528 205.83213662755227 337 211.779541015625 337 C 217.72694540369773 337 222.5482682883523 341.875618528 222.5482682883523 347.89 C 222.5482682883523 353.90438147199995 217.72694540369773 358.78 211.779541015625 358.78 C 205.83213662755227 358.78 201.0108137428977 353.90438147199995 201.0108137428977 347.89 Z"></path></g><g transform="translate(-46,-38) scale(1,1)"><path fill="none" stroke="#000000" d="M 201.0108137428977 347.89 C 201.0108137428977 341.875618528 205.83213662755227 337 211.779541015625 337 C 217.72694540369773 337 222.5482682883523 341.875618528 222.5482682883523 347.89 C 222.5482682883523 353.90438147199995 217.72694540369773 358.78 211.779541015625 358.78 C 205.83213662755227 358.78 201.0108137428977 353.90438147199995 201.0108137428977 347.89 Z" stroke-miterlimit="10"></path></g><g transform="translate(-46,-38) scale(1,1)"><path fill="none" stroke="#000000" d="M 211.779541015625 358.78 L 211.779541015625 380.22" stroke-miterlimit="10"></path></g><g transform="translate(-46,-38) scale(1,1)"><path fill="none" stroke="#000000" d="M 200.37735919744318 366.82 L 223.18172283380682 366.82" stroke-miterlimit="10"></path></g><g transform="translate(-46,-38) scale(1,1)"><path fill="none" stroke="#000000" d="M 211.779541015625 380.22 L 195.94317737926136 402" stroke-miterlimit="10"></path></g><g transform="translate(-46,-38) scale(1,1)"><path fill="none" stroke="#000000" d="M 211.779541015625 380.22 L 227.61590465198864 402" stroke-miterlimit="10"></path></g><g transform="translate(-46,-38) scale(1,1)"><g><path fill="none" stroke="none"></path><text fill="#000000" stroke="none" font-family="Arial" font-size="13px" font-style="normal" font-weight="bold" text-decoration="none" x="184.279541015625" y="422.5">Sujeto de</text><text fill="#000000" stroke="none" font-family="Arial" font-size="13px" font-style="normal" font-weight="bold" text-decoration="none" x="193.279541015625" y="435.5">Apoyo</text></g></g><g transform="translate(-46,-38) scale(1,1)"><path fill="#ffffff" stroke="none" d="M 381.31827361505685 347.21000000000004 C 381.31827361505685 341.571172192 385.8517563274932 337 391.444091796875 337 C 397.0364272662568 337 401.56990997869315 341.571172192 401.56990997869315 347.21000000000004 C 401.56990997869315 352.84882780800007 397.0364272662568 357.42 391.444091796875 357.42 C 385.8517563274932 357.42 381.31827361505685 352.84882780800007 381.31827361505685 347.21000000000004 Z"></path></g><g transform="translate(-46,-38) scale(1,1)"><path fill="none" stroke="#000000" d="M 381.31827361505685 347.21000000000004 C 381.31827361505685 341.571172192 385.8517563274932 337 391.444091796875 337 C 397.0364272662568 337 401.56990997869315 341.571172192 401.56990997869315 347.21000000000004 C 401.56990997869315 352.84882780800007 397.0364272662568 357.42 391.444091796875 357.42 C 385.8517563274932 357.42 381.31827361505685 352.84882780800007 381.31827361505685 347.21000000000004 Z" stroke-miterlimit="10"></path></g><g transform="translate(-46,-38) scale(1,1)"><path fill="none" stroke="#000000" d="M 391.444091796875 357.42 L 391.444091796875 377.58" stroke-miterlimit="10"></path></g><g transform="translate(-46,-38) scale(1,1)"><path fill="none" stroke="#000000" d="M 380.72263725142045 364.98 L 402.16554634232955 364.98" stroke-miterlimit="10"></path></g><g transform="translate(-46,-38) scale(1,1)"><path fill="none" stroke="#000000" d="M 391.444091796875 377.58 L 376.5531827059659 398" stroke-miterlimit="10"></path></g><g transform="translate(-46,-38) scale(1,1)"><path fill="none" stroke="#000000" d="M 391.444091796875 377.58 L 406.3350008877841 398" stroke-miterlimit="10"></path></g><g transform="translate(-46,-38) scale(1,1)"><g><path fill="none" stroke="none"></path><text fill="#000000" stroke="none" font-family="Arial" font-size="13px" font-style="normal" font-weight="bold" text-decoration="none" x="343.944091796875" y="418.5">Co-Responsable</text></g></g><g transform="translate(-46,-38) scale(1,1)"><path fill="none" stroke="#000000" d="M 256 368 L 256 368 M 256 368 A 8 8 0 0 0 264 360 L 264 279" stroke-miterlimit="10"></path></g><g transform="translate(-46,-38) scale(1,1)"><path fill="#FFFFFF" stroke="none" d="M 272.419035512032 299.3253497152483 L 264 279 L 255.58096448796803 299.3253497152483"></path></g><g transform="translate(-46,-38) scale(1,1)"><path fill="none" stroke="#000000" d="M 272.419035512032 299.3253497152483 L 264 279 L 255.58096448796803 299.3253497152483 L 272.419035512032 299.3253497152483" stroke-miterlimit="10"></path></g><g transform="translate(-46,-38) scale(1,1)"><path fill="none" stroke="#000000" d="M 336 368 L 328 368 M 328 368 A 8 8 0 0 1 320 360 L 320 279" stroke-miterlimit="10"></path></g><g transform="translate(-46,-38) scale(1,1)"><path fill="#FFFFFF" stroke="none" d="M 328.419035512032 299.3253497152483 L 320 279 L 311.580964487968 299.3253497152483"></path></g><g transform="translate(-46,-38) scale(1,1)"><path fill="none" stroke="#000000" d="M 328.419035512032 299.3253497152483 L 320 279 L 311.580964487968 299.3253497152483 L 328.419035512032 299.3253497152483" stroke-miterlimit="10"></path></g><g transform="translate(-46,-38) scale(1,1)"><path fill="#ffffff" stroke="none" d="M 500.82072727272725 209.68 C 500.82072727272725 204.886167936 504.70656959767274 201 509.5 201 C 514.2934304023273 201 518.1792727272727 204.886167936 518.1792727272727 209.68 C 518.1792727272727 214.47383206400002 514.2934304023273 218.36 509.5 218.36 C 504.70656959767274 218.36 500.82072727272725 214.47383206400002 500.82072727272725 209.68 Z"></path></g><g transform="translate(-46,-38) scale(1,1)"><path fill="none" stroke="#000000" d="M 500.82072727272725 209.68 C 500.82072727272725 204.886167936 504.70656959767274 201 509.5 201 C 514.2934304023273 201 518.1792727272727 204.886167936 518.1792727272727 209.68 C 518.1792727272727 214.47383206400002 514.2934304023273 218.36 509.5 218.36 C 504.70656959767274 218.36 500.82072727272725 214.47383206400002 500.82072727272725 209.68 Z" stroke-miterlimit="10"></path></g><g transform="translate(-46,-38) scale(1,1)"><path fill="none" stroke="#000000" d="M 509.5 218.36 L 509.5 235.64" stroke-miterlimit="10"></path></g><g transform="translate(-46,-38) scale(1,1)"><path fill="none" stroke="#000000" d="M 500.31018181818183 224.84 L 518.6898181818182 224.84" stroke-miterlimit="10"></path></g><g transform="translate(-46,-38) scale(1,1)"><path fill="none" stroke="#000000" d="M 509.5 235.64 L 496.73636363636365 253" stroke-miterlimit="10"></path></g><g transform="translate(-46,-38) scale(1,1)"><path fill="none" stroke="#000000" d="M 509.5 235.64 L 522.2636363636364 253" stroke-miterlimit="10"></path></g><g transform="translate(-46,-38) scale(1,1)"><g><path fill="none" stroke="none"></path><text fill="#000000" stroke="none" font-family="Arial" font-size="13px" font-style="normal" font-weight="bold" text-decoration="none" x="477.5" y="273.5">RENIECyT</text></g></g><g transform="translate(-46,-38) scale(1,1)"><path fill="none" stroke="#000000" d="M 331 232 L 472 232" stroke-miterlimit="10"></path></g><g transform="translate(-46,-38) scale(1,1)"><path fill="none" stroke="#000000" d="M 461.83732514237585 236.209517756016 L 472 232 L 461.83732514237585 227.790482243984" stroke-miterlimit="10"></path></g><g transform="translate(-46,-38) scale(1,1)"><g><path fill="none" stroke="none"></path><text fill="#000000" stroke="none" font-family="Arial" font-size="13px" font-style="normal" font-weight="normal" text-decoration="none" x="368.73583984375" y="216.5">+registrada</text><text fill="#000000" stroke="none" font-family="Arial" font-size="13px" font-style="normal" font-weight="normal" text-decoration="none" x="394.23583984375" y="229.5">en</text></g></g><g transform="translate(-46,-38) scale(1,1)"><g><path fill="none" stroke="none"></path><text fill="#000000" stroke="none" font-family="Arial" font-size="13px" font-style="normal" font-weight="normal" text-decoration="none" x="438.5" y="250.5">0..1</text></g></g><g transform="translate(-46,-38) scale(1,1)"><path fill="#ffffff" stroke="none" d="M 285.08342258522725 441.68 C 285.08342258522725 436.886167936 288.96926491017274 433 293.7626953125 433 C 298.55612571482726 433 302.44196803977275 436.886167936 302.44196803977275 441.68 C 302.44196803977275 446.473832064 298.55612571482726 450.36 293.7626953125 450.36 C 288.96926491017274 450.36 285.08342258522725 446.473832064 285.08342258522725 441.68 Z"></path></g><g transform="translate(-46,-38) scale(1,1)"><path fill="none" stroke="#000000" d="M 285.08342258522725 441.68 C 285.08342258522725 436.886167936 288.96926491017274 433 293.7626953125 433 C 298.55612571482726 433 302.44196803977275 436.886167936 302.44196803977275 441.68 C 302.44196803977275 446.473832064 298.55612571482726 450.36 293.7626953125 450.36 C 288.96926491017274 450.36 285.08342258522725 446.473832064 285.08342258522725 441.68 Z" stroke-miterlimit="10"></path></g><g transform="translate(-46,-38) scale(1,1)"><path fill="none" stroke="#000000" d="M 293.7626953125 450.36 L 293.7626953125 467.64" stroke-miterlimit="10"></path></g><g transform="translate(-46,-38) scale(1,1)"><path fill="none" stroke="#000000" d="M 284.57287713068183 456.84 L 302.95251349431817 456.84" stroke-miterlimit="10"></path></g><g transform="translate(-46,-38) scale(1,1)"><path fill="none" stroke="#000000" d="M 293.7626953125 467.64 L 280.99905894886365 485" stroke-miterlimit="10"></path></g><g transform="translate(-46,-38) scale(1,1)"><path fill="none" stroke="#000000" d="M 293.7626953125 467.64 L 306.52633167613635 485" stroke-miterlimit="10"></path></g><g transform="translate(-46,-38) scale(1,1)"><g><path fill="none" stroke="none"></path><text fill="#000000" stroke="none" font-family="Arial" font-size="13px" font-style="normal" font-weight="bold" text-decoration="none" x="254.7626953125" y="505.5">Institución de</text><text fill="#000000" stroke="none" font-family="Arial" font-size="13px" font-style="normal" font-weight="bold" text-decoration="none" x="259.2626953125" y="518.5">Participante</text></g></g><g transform="translate(-46,-38) scale(1,1)"><path fill="none" stroke="#000000" d="M 293 432 L 293 279" stroke-miterlimit="10"></path></g><g transform="translate(-46,-38) scale(1,1)"><path fill="#FFFFFF" stroke="none" d="M 301.419035512032 299.3253497152483 L 293 279 L 284.580964487968 299.3253497152483"></path></g><g transform="translate(-46,-38) scale(1,1)"><path fill="none" stroke="#000000" d="M 301.419035512032 299.3253497152483 L 293 279 L 284.580964487968 299.3253497152483 L 301.419035512032 299.3253497152483" stroke-miterlimit="10"></path></g><g transform="translate(-46,-38) scale(1,1)"><path fill="#ffffff" stroke="none" d="M 89.02751438210227 201.68 C 89.02751438210227 196.886167936 92.91335670704773 193 97.706787109375 193 C 102.50021751170227 193 106.38605983664773 196.886167936 106.38605983664773 201.68 C 106.38605983664773 206.47383206400002 102.50021751170227 210.36 97.706787109375 210.36 C 92.91335670704773 210.36 89.02751438210227 206.47383206400002 89.02751438210227 201.68 Z"></path></g><g transform="translate(-46,-38) scale(1,1)"><path fill="none" stroke="#000000" d="M 89.02751438210227 201.68 C 89.02751438210227 196.886167936 92.91335670704773 193 97.706787109375 193 C 102.50021751170227 193 106.38605983664773 196.886167936 106.38605983664773 201.68 C 106.38605983664773 206.47383206400002 102.50021751170227 210.36 97.706787109375 210.36 C 92.91335670704773 210.36 89.02751438210227 206.47383206400002 89.02751438210227 201.68 Z" stroke-miterlimit="10"></path></g><g transform="translate(-46,-38) scale(1,1)"><path fill="none" stroke="#000000" d="M 97.706787109375 210.36 L 97.706787109375 227.64" stroke-miterlimit="10"></path></g><g transform="translate(-46,-38) scale(1,1)"><path fill="none" stroke="#000000" d="M 88.51696892755682 216.84 L 106.89660529119318 216.84" stroke-miterlimit="10"></path></g><g transform="translate(-46,-38) scale(1,1)"><path fill="none" stroke="#000000" d="M 97.706787109375 227.64 L 84.94315074573863 245" stroke-miterlimit="10"></path></g><g transform="translate(-46,-38) scale(1,1)"><path fill="none" stroke="#000000" d="M 97.706787109375 227.64 L 110.47042347301137 245" stroke-miterlimit="10"></path></g><g transform="translate(-46,-38) scale(1,1)"><g><path fill="none" stroke="none"></path><text fill="#000000" stroke="none" font-family="Arial" font-size="13px" font-style="normal" font-weight="normal" text-decoration="none" x="83.706787109375" y="263.5">«rol»</text></g></g><g transform="translate(-46,-38) scale(1,1)"><g><path fill="none" stroke="none"></path><text fill="#000000" stroke="none" font-family="Arial" font-size="13px" font-style="normal" font-weight="bold" text-decoration="none" x="63.206787109375" y="278.5">Participante</text></g></g><g transform="translate(-46,-38) scale(1,1)"><path fill="none" stroke="#000000" d="M 139 239 L 256 239" stroke-miterlimit="10"></path></g><g transform="translate(-46,-38) scale(1,1)"><path fill="none" stroke="#000000" d="M 245.83732514237585 243.209517756016 L 256 239 L 245.83732514237585 234.790482243984" stroke-miterlimit="10"></path></g><g transform="translate(-46,-38) scale(1,1)"><g><path fill="none" stroke="none"></path><text fill="#000000" stroke="none" font-family="Arial" font-size="13px" font-style="normal" font-weight="normal" text-decoration="none" x="164.706298828125" y="230.5">+pertenece</text></g></g><g transform="translate(-46,-38) scale(1,1)"><g><path fill="none" stroke="none"></path><text fill="#000000" stroke="none" font-family="Arial" font-size="13px" font-style="normal" font-weight="normal" text-decoration="none" x="223.5" y="257.5">1..*</text></g></g><g transform="translate(-46,-38) scale(1,1)"><path fill="#ffffff" stroke="none" d="M 288.82072727272725 57.68 C 288.82072727272725 52.886167936 292.70656959767274 49 297.5 49 C 302.29343040232726 49 306.17927272727275 52.886167936 306.17927272727275 57.68 C 306.17927272727275 62.473832064 302.29343040232726 66.36 297.5 66.36 C 292.70656959767274 66.36 288.82072727272725 62.473832064 288.82072727272725 57.68 Z"></path></g><g transform="translate(-46,-38) scale(1,1)"><path fill="none" stroke="#000000" d="M 288.82072727272725 57.68 C 288.82072727272725 52.886167936 292.70656959767274 49 297.5 49 C 302.29343040232726 49 306.17927272727275 52.886167936 306.17927272727275 57.68 C 306.17927272727275 62.473832064 302.29343040232726 66.36 297.5 66.36 C 292.70656959767274 66.36 288.82072727272725 62.473832064 288.82072727272725 57.68 Z" stroke-miterlimit="10"></path></g><g transform="translate(-46,-38) scale(1,1)"><path fill="none" stroke="#000000" d="M 297.5 66.36 L 297.5 83.64" stroke-miterlimit="10"></path></g><g transform="translate(-46,-38) scale(1,1)"><path fill="none" stroke="#000000" d="M 288.31018181818183 72.84 L 306.68981818181817 72.84" stroke-miterlimit="10"></path></g><g transform="translate(-46,-38) scale(1,1)"><path fill="none" stroke="#000000" d="M 297.5 83.64 L 284.73636363636365 101" stroke-miterlimit="10"></path></g><g transform="translate(-46,-38) scale(1,1)"><path fill="none" stroke="#000000" d="M 297.5 83.64 L 310.26363636363635 101" stroke-miterlimit="10"></path></g><g transform="translate(-46,-38) scale(1,1)"><g><path fill="none" stroke="none"></path><text fill="#000000" stroke="none" font-family="Arial" font-size="13px" font-style="normal" font-weight="bold" text-decoration="none" x="273.5" y="121.5">Persona</text><text fill="#000000" stroke="none" font-family="Arial" font-size="13px" font-style="normal" font-weight="bold" text-decoration="none" x="281.5" y="134.5">Moral</text></g></g><g transform="translate(-46,-38) scale(1,1)"><path fill="none" stroke="#000000" d="M 296 200 L 296 140" stroke-miterlimit="10"></path></g><g transform="translate(-46,-38) scale(1,1)"><path fill="#FFFFFF" stroke="none" d="M 304.419035512032 160.3253497152483 L 296 140 L 287.580964487968 160.3253497152483"></path></g><g transform="translate(-46,-38) scale(1,1)"><path fill="none" stroke="#000000" d="M 304.419035512032 160.3253497152483 L 296 140 L 287.580964487968 160.3253497152483 L 304.419035512032 160.3253497152483" stroke-miterlimit="10"></path></g></g></svg>