<svg version="1.1" xmlns="http://www.w3.org/2000/svg" xmlns:xlink="http://www.w3.org/1999/xlink" width="94.71728515625" height="99"><defs/><g><text fill="#eeeeee" stroke="none" font-family="Arial" font-size="24px" font-style="normal" font-weight="normal" text-decoration="none" x="0" y="0">UNREGISTERED</text><text fill="#eeeeee" stroke="none" font-family="Arial" font-size="24px" font-style="normal" font-weight="normal" text-decoration="none" x="0" y="30">UNREGISTERED</text><text fill="#eeeeee" stroke="none" font-family="Arial" font-size="24px" font-style="normal" font-weight="normal" text-decoration="none" x="0" y="60">UNREGISTERED</text><text fill="#eeeeee" stroke="none" font-family="Arial" font-size="24px" font-style="normal" font-weight="normal" text-decoration="none" x="0" y="90">UNREGISTERED</text><g transform="translate(-222,-214) scale(1,1)"><path fill="#ffffff" stroke="none" d="M 260.67936985085225 233.68 C 260.67936985085225 228.886167936 264.56521217579774 225 269.358642578125 225 C 274.15207298045226 225 278.03791530539775 228.886167936 278.03791530539775 233.68 C 278.03791530539775 238.47383206400002 274.15207298045226 242.36 269.358642578125 242.36 C 264.56521217579774 242.36 260.67936985085225 238.47383206400002 260.67936985085225 233.68 Z"/></g><g transform="translate(-222,-214) scale(1,1)"><path fill="none" stroke="#000000" d="M 260.67936985085225 233.68 C 260.67936985085225 228.886167936 264.56521217579774 225 269.358642578125 225 C 274.15207298045226 225 278.03791530539775 228.886167936 278.03791530539775 233.68 C 278.03791530539775 238.47383206400002 274.15207298045226 242.36 269.358642578125 242.36 C 264.56521217579774 242.36 260.67936985085225 238.47383206400002 260.67936985085225 233.68 Z" stroke-miterlimit="10"/></g><g transform="translate(-222,-214) scale(1,1)"><path fill="none" stroke="#000000" d="M 269.358642578125 242.36 L 269.358642578125 259.64" stroke-miterlimit="10"/></g><g transform="translate(-222,-214) scale(1,1)"><path fill="none" stroke="#000000" d="M 260.16882439630683 248.84 L 278.54846075994317 248.84" stroke-miterlimit="10"/></g><g transform="translate(-222,-214) scale(1,1)"><path fill="none" stroke="#000000" d="M 269.358642578125 259.64 L 256.59500621448865 277" stroke-miterlimit="10"/></g><g transform="translate(-222,-214) scale(1,1)"><path fill="none" stroke="#000000" d="M 269.358642578125 259.64 L 282.12227894176135 277" stroke-miterlimit="10"/></g><g transform="translate(-222,-214) scale(1,1)"><g><path fill="none" stroke="none"/><text fill="#000000" stroke="none" font-family="Arial" font-size="13px" font-style="normal" font-weight="bold" text-decoration="none" x="240.0927734375" y="297.5">Institución</text></g></g></g></svg>