<svg version="1.1" xmlns="http://www.w3.org/2000/svg" xmlns:xlink="http://www.w3.org/1999/xlink" width="564" height="444"><defs></defs><g><g transform="translate(-86,-14) scale(1,1)"><rect fill="#C0C0C0" stroke="none" x="255" y="167" width="128" height="68" opacity="0.2"></rect></g><g transform="translate(-86,-14) scale(1,1)"><rect fill="#ffffff" stroke="none" x="248" y="160" width="128" height="68"></rect></g><g transform="translate(-86,-14) scale(1,1)"><path fill="none" stroke="#000000" d="M 248 160 L 376 160 L 376 228 L 248 228 L 248 160 Z Z" stroke-miterlimit="10"></path></g><g transform="translate(-86,-14) scale(1,1)"><g><path fill="none" stroke="none"></path><text fill="#000000" stroke="none" font-family="Arial" font-size="13px" font-style="normal" font-weight="bold" text-decoration="none" x="282" y="179.5">Institución</text></g></g><g transform="translate(-86,-14) scale(1,1)"><rect fill="#C0C0C0" stroke="none" x="519" y="47" width="128" height="68" opacity="0.2"></rect></g><g transform="translate(-86,-14) scale(1,1)"><rect fill="#ffffff" stroke="none" x="512" y="40" width="128" height="68"></rect></g><g transform="translate(-86,-14) scale(1,1)"><path fill="none" stroke="#000000" d="M 512 40 L 640 40 L 640 108 L 512 108 L 512 40 Z Z" stroke-miterlimit="10"></path></g><g transform="translate(-86,-14) scale(1,1)"><g><path fill="none" stroke="none"></path><text fill="#000000" stroke="none" font-family="Arial" font-size="13px" font-style="normal" font-weight="bold" text-decoration="none" x="534" y="59.5">Representante</text><text fill="#000000" stroke="none" font-family="Arial" font-size="13px" font-style="normal" font-weight="bold" text-decoration="none" x="560.5" y="72.5">Legal</text></g></g><g transform="translate(-86,-14) scale(1,1)"><g><path fill="none" stroke="none"></path><text fill="#000000" stroke="none" font-family="Arial" font-size="13px" font-style="normal" font-weight="normal" text-decoration="none" x="520" y="87.5">(from Instituciones)</text></g></g><g transform="translate(-86,-14) scale(1,1)"><path fill="none" stroke="#000000" d="M 436 74 L 512 74" stroke-miterlimit="10"></path></g><g transform="translate(-86,-14) scale(1,1)"><path fill="none" stroke="#000000" d="M 501.83732514237585 78.20951775601598 L 512 74 L 501.83732514237585 69.79048224398402" stroke-miterlimit="10"></path></g><g transform="translate(-86,-14) scale(1,1)"><g><path fill="none" stroke="none"></path><text fill="#000000" stroke="none" font-family="Arial" font-size="13px" font-style="normal" font-weight="normal" text-decoration="none" x="446.5" y="65.5">+tiene un</text></g></g><g transform="translate(-86,-14) scale(1,1)"><g><path fill="none" stroke="none"></path><text fill="#000000" stroke="none" font-family="Arial" font-size="13px" font-style="normal" font-weight="normal" text-decoration="none" x="486" y="92.5">1</text></g></g><g transform="translate(-86,-14) scale(1,1)"><rect fill="#C0C0C0" stroke="none" x="103" y="31" width="128" height="89" opacity="0.2"></rect></g><g transform="translate(-86,-14) scale(1,1)"><rect fill="#ffffff" stroke="none" x="96" y="24" width="128" height="89"></rect></g><g transform="translate(-86,-14) scale(1,1)"><path fill="none" stroke="#000000" d="M 96 24 L 224 24 L 224 113 L 96 113 L 96 24 Z Z" stroke-miterlimit="10"></path></g><g transform="translate(-86,-14) scale(1,1)"><g><path fill="none" stroke="none"></path><text fill="#000000" stroke="none" font-family="Arial" font-size="13px" font-style="normal" font-weight="bold" text-decoration="none" x="109" y="43.5">Registro Nacional</text><text fill="#000000" stroke="none" font-family="Arial" font-size="13px" font-style="normal" font-weight="bold" text-decoration="none" x="108.5" y="56.5">de Instituciones y</text><text fill="#000000" stroke="none" font-family="Arial" font-size="13px" font-style="normal" font-weight="bold" text-decoration="none" x="130.5" y="69.5">Empresas</text><text fill="#000000" stroke="none" font-family="Arial" font-size="13px" font-style="normal" font-weight="bold" text-decoration="none" x="123.5" y="82.5">Científicas y</text><text fill="#000000" stroke="none" font-family="Arial" font-size="13px" font-style="normal" font-weight="bold" text-decoration="none" x="121.5" y="95.5">Tecnológicas</text><text fill="#000000" stroke="none" font-family="Arial" font-size="13px" font-style="normal" font-weight="bold" text-decoration="none" x="126" y="108.5">(RENIECyT</text></g></g><g transform="translate(-86,-14) scale(1,1)"><rect fill="#C0C0C0" stroke="none" x="111" y="311" width="152" height="63" opacity="0.2"></rect></g><g transform="translate(-86,-14) scale(1,1)"><rect fill="#ffffff" stroke="none" x="104" y="304" width="152" height="63"></rect></g><g transform="translate(-86,-14) scale(1,1)"><path fill="none" stroke="#000000" d="M 104 304 L 256 304 L 256 367 L 104 367 L 104 304 Z Z" stroke-miterlimit="10"></path></g><g transform="translate(-86,-14) scale(1,1)"><g><path fill="none" stroke="none"></path><text fill="#000000" stroke="none" font-family="Arial" font-size="13px" font-style="normal" font-weight="bold" text-decoration="none" x="141" y="323.5">Institucion de</text><text fill="#000000" stroke="none" font-family="Arial" font-size="13px" font-style="normal" font-weight="bold" text-decoration="none" x="123.5" y="336.5">Educación Superior</text><text fill="#000000" stroke="none" font-family="Arial" font-size="13px" font-style="normal" font-weight="bold" text-decoration="none" x="156" y="349.5">públicas</text></g></g><g transform="translate(-86,-14) scale(1,1)"><rect fill="#C0C0C0" stroke="none" x="367" y="311" width="152" height="63" opacity="0.2"></rect></g><g transform="translate(-86,-14) scale(1,1)"><rect fill="#ffffff" stroke="none" x="360" y="304" width="152" height="63"></rect></g><g transform="translate(-86,-14) scale(1,1)"><path fill="none" stroke="#000000" d="M 360 304 L 512 304 L 512 367 L 360 367 L 360 304 Z Z" stroke-miterlimit="10"></path></g><g transform="translate(-86,-14) scale(1,1)"><g><path fill="none" stroke="none"></path><text fill="#000000" stroke="none" font-family="Arial" font-size="13px" font-style="normal" font-weight="bold" text-decoration="none" x="397" y="323.5">Institucion de</text><text fill="#000000" stroke="none" font-family="Arial" font-size="13px" font-style="normal" font-weight="bold" text-decoration="none" x="379.5" y="336.5">Educación Superior</text><text fill="#000000" stroke="none" font-family="Arial" font-size="13px" font-style="normal" font-weight="bold" text-decoration="none" x="402.5" y="349.5">particulares</text></g></g><g transform="translate(-86,-14) scale(1,1)"><rect fill="#C0C0C0" stroke="none" x="111" y="391" width="152" height="64" opacity="0.2"></rect></g><g transform="translate(-86,-14) scale(1,1)"><rect fill="#ffffff" stroke="none" x="104" y="384" width="152" height="64"></rect></g><g transform="translate(-86,-14) scale(1,1)"><path fill="none" stroke="#000000" d="M 104 384 L 256 384 L 256 448 L 104 448 L 104 384 Z Z" stroke-miterlimit="10"></path></g><g transform="translate(-86,-14) scale(1,1)"><g><path fill="none" stroke="none"></path><text fill="#000000" stroke="none" font-family="Arial" font-size="13px" font-style="normal" font-weight="bold" text-decoration="none" x="125" y="403.5">Centro Públicos de</text><text fill="#000000" stroke="none" font-family="Arial" font-size="13px" font-style="normal" font-weight="bold" text-decoration="none" x="141.5" y="416.5">Investigación</text></g></g><g transform="translate(-86,-14) scale(1,1)"><rect fill="#C0C0C0" stroke="none" x="367" y="391" width="152" height="64" opacity="0.2"></rect></g><g transform="translate(-86,-14) scale(1,1)"><rect fill="#ffffff" stroke="none" x="360" y="384" width="152" height="64"></rect></g><g transform="translate(-86,-14) scale(1,1)"><path fill="none" stroke="#000000" d="M 360 384 L 512 384 L 512 448 L 360 448 L 360 384 Z Z" stroke-miterlimit="10"></path></g><g transform="translate(-86,-14) scale(1,1)"><g><path fill="none" stroke="none"></path><text fill="#000000" stroke="none" font-family="Arial" font-size="13px" font-style="normal" font-weight="bold" text-decoration="none" x="370.5" y="403.5">Instituciones federales</text><text fill="#000000" stroke="none" font-family="Arial" font-size="13px" font-style="normal" font-weight="bold" text-decoration="none" x="373.5" y="416.5">y estatales del sector</text><text fill="#000000" stroke="none" font-family="Arial" font-size="13px" font-style="normal" font-weight="bold" text-decoration="none" x="415.5" y="429.5">público</text></g></g><g transform="translate(-86,-14) scale(1,1)"><path fill="none" stroke="#000000" d="M 256 320 L 264 320 M 264 320 A 8 8 0 0 0 272 312 L 272 228" stroke-miterlimit="10"></path></g><g transform="translate(-86,-14) scale(1,1)"><path fill="#FFFFFF" stroke="none" d="M 280.419035512032 248.3253497152483 L 272 228 L 263.580964487968 248.3253497152483"></path></g><g transform="translate(-86,-14) scale(1,1)"><path fill="none" stroke="#000000" d="M 280.419035512032 248.3253497152483 L 272 228 L 263.580964487968 248.3253497152483 L 280.419035512032 248.3253497152483" stroke-miterlimit="10"></path></g><g transform="translate(-86,-14) scale(1,1)"><path fill="none" stroke="#000000" d="M 360 327 L 352 327 M 352 327 A 8 8 0 0 1 344 319 L 344 228" stroke-miterlimit="10"></path></g><g transform="translate(-86,-14) scale(1,1)"><path fill="#FFFFFF" stroke="none" d="M 352.419035512032 248.3253497152483 L 344 228 L 335.580964487968 248.3253497152483"></path></g><g transform="translate(-86,-14) scale(1,1)"><path fill="none" stroke="#000000" d="M 352.419035512032 248.3253497152483 L 344 228 L 335.580964487968 248.3253497152483 L 352.419035512032 248.3253497152483" stroke-miterlimit="10"></path></g><g transform="translate(-86,-14) scale(1,1)"><path fill="none" stroke="#000000" d="M 256 408 L 289 408 M 289 408 A 8 8 0 0 0 297 400 L 297 228" stroke-miterlimit="10"></path></g><g transform="translate(-86,-14) scale(1,1)"><path fill="#FFFFFF" stroke="none" d="M 305.419035512032 248.3253497152483 L 297 228 L 288.580964487968 248.3253497152483"></path></g><g transform="translate(-86,-14) scale(1,1)"><path fill="none" stroke="#000000" d="M 305.419035512032 248.3253497152483 L 297 228 L 288.580964487968 248.3253497152483 L 305.419035512032 248.3253497152483" stroke-miterlimit="10"></path></g><g transform="translate(-86,-14) scale(1,1)"><path fill="none" stroke="#000000" d="M 360 408 L 330 408 M 330 408 A 8 8 0 0 1 322 400 L 322 228" stroke-miterlimit="10"></path></g><g transform="translate(-86,-14) scale(1,1)"><path fill="#FFFFFF" stroke="none" d="M 330.419035512032 248.3253497152483 L 322 228 L 313.580964487968 248.3253497152483"></path></g><g transform="translate(-86,-14) scale(1,1)"><path fill="none" stroke="#000000" d="M 330.419035512032 248.3253497152483 L 322 228 L 313.580964487968 248.3253497152483 L 330.419035512032 248.3253497152483" stroke-miterlimit="10"></path></g><g transform="translate(-86,-14) scale(1,1)"><path fill="none" stroke="#000000" d="M 224 68 L 304 68 M 304 68 A 8 8 0 0 1 312 76 L 312 160" stroke-miterlimit="10"></path></g><g transform="translate(-86,-14) scale(1,1)"><g><path fill="none" stroke="none"></path><text fill="#000000" stroke="none" font-family="Arial" font-size="13px" font-style="normal" font-weight="normal" text-decoration="none" x="234.5" y="86.5">0..*</text></g></g><g transform="translate(-86,-14) scale(1,1)"><g><path fill="none" stroke="none"></path><text fill="#000000" stroke="none" font-family="Arial" font-size="13px" font-style="normal" font-weight="normal" text-decoration="none" x="321" y="138.5">+miembro del</text><text fill="#000000" stroke="none" font-family="Arial" font-size="13px" font-style="normal" font-weight="normal" text-decoration="none" x="328.5" y="151.5">RENIECyT</text></g></g><g transform="translate(-86,-14) scale(1,1)"><g><path fill="none" stroke="none"></path><text fill="#000000" stroke="none" font-family="Arial" font-size="13px" font-style="normal" font-weight="normal" text-decoration="none" x="288.5" y="144.5">0..*</text></g></g><g transform="translate(-86,-14) scale(1,1)"><rect fill="#C0C0C0" stroke="none" x="351" y="55" width="92.2236328125" height="44" opacity="0.2"></rect></g><g transform="translate(-86,-14) scale(1,1)"><rect fill="#ffffff" stroke="none" x="344" y="48" width="92.2236328125" height="44"></rect></g><g transform="translate(-86,-14) scale(1,1)"><path fill="none" stroke="#000000" d="M 344 48 L 436.2236328125 48 L 436.2236328125 92 L 344 92 L 344 48 Z Z" stroke-miterlimit="10"></path></g><g transform="translate(-86,-14) scale(1,1)"><g><path fill="none" stroke="none"></path><text fill="#000000" stroke="none" font-family="Arial" font-size="13px" font-style="normal" font-weight="bold" text-decoration="none" x="363.11181640625" y="67.5">Convenio</text></g></g><g transform="translate(-86,-14) scale(1,1)"><path fill="none" stroke="#000000" d="M 349 93 L 312 114" stroke-miterlimit="10" stroke-dasharray="3"></path></g></g></svg>