<svg version="1.1" xmlns="http://www.w3.org/2000/svg" xmlns:xlink="http://www.w3.org/1999/xlink" width="476" height="407"><defs/><g><text fill="#eeeeee" stroke="none" font-family="Arial" font-size="24px" font-style="normal" font-weight="normal" text-decoration="none" x="0" y="0">UNREGISTERED</text><text fill="#eeeeee" stroke="none" font-family="Arial" font-size="24px" font-style="normal" font-weight="normal" text-decoration="none" x="0" y="30">UNREGISTERED</text><text fill="#eeeeee" stroke="none" font-family="Arial" font-size="24px" font-style="normal" font-weight="normal" text-decoration="none" x="0" y="60">UNREGISTERED</text><text fill="#eeeeee" stroke="none" font-family="Arial" font-size="24px" font-style="normal" font-weight="normal" text-decoration="none" x="0" y="90">UNREGISTERED</text><text fill="#eeeeee" stroke="none" font-family="Arial" font-size="24px" font-style="normal" font-weight="normal" text-decoration="none" x="0" y="120">UNREGISTERED</text><text fill="#eeeeee" stroke="none" font-family="Arial" font-size="24px" font-style="normal" font-weight="normal" text-decoration="none" x="0" y="150">UNREGISTERED</text><text fill="#eeeeee" stroke="none" font-family="Arial" font-size="24px" font-style="normal" font-weight="normal" text-decoration="none" x="0" y="180">UNREGISTERED</text><text fill="#eeeeee" stroke="none" font-family="Arial" font-size="24px" font-style="normal" font-weight="normal" text-decoration="none" x="0" y="210">UNREGISTERED</text><text fill="#eeeeee" stroke="none" font-family="Arial" font-size="24px" font-style="normal" font-weight="normal" text-decoration="none" x="0" y="240">UNREGISTERED</text><text fill="#eeeeee" stroke="none" font-family="Arial" font-size="24px" font-style="normal" font-weight="normal" text-decoration="none" x="0" y="270">UNREGISTERED</text><text fill="#eeeeee" stroke="none" font-family="Arial" font-size="24px" font-style="normal" font-weight="normal" text-decoration="none" x="0" y="300">UNREGISTERED</text><text fill="#eeeeee" stroke="none" font-family="Arial" font-size="24px" font-style="normal" font-weight="normal" text-decoration="none" x="0" y="330">UNREGISTERED</text><text fill="#eeeeee" stroke="none" font-family="Arial" font-size="24px" font-style="normal" font-weight="normal" text-decoration="none" x="0" y="360">UNREGISTERED</text><text fill="#eeeeee" stroke="none" font-family="Arial" font-size="24px" font-style="normal" font-weight="normal" text-decoration="none" x="0" y="390">UNREGISTERED</text><text fill="#eeeeee" stroke="none" font-family="Arial" font-size="24px" font-style="normal" font-weight="normal" text-decoration="none" x="200" y="0">UNREGISTERED</text><text fill="#eeeeee" stroke="none" font-family="Arial" font-size="24px" font-style="normal" font-weight="normal" text-decoration="none" x="200" y="30">UNREGISTERED</text><text fill="#eeeeee" stroke="none" font-family="Arial" font-size="24px" font-style="normal" font-weight="normal" text-decoration="none" x="200" y="60">UNREGISTERED</text><text fill="#eeeeee" stroke="none" font-family="Arial" font-size="24px" font-style="normal" font-weight="normal" text-decoration="none" x="200" y="90">UNREGISTERED</text><text fill="#eeeeee" stroke="none" font-family="Arial" font-size="24px" font-style="normal" font-weight="normal" text-decoration="none" x="200" y="120">UNREGISTERED</text><text fill="#eeeeee" stroke="none" font-family="Arial" font-size="24px" font-style="normal" font-weight="normal" text-decoration="none" x="200" y="150">UNREGISTERED</text><text fill="#eeeeee" stroke="none" font-family="Arial" font-size="24px" font-style="normal" font-weight="normal" text-decoration="none" x="200" y="180">UNREGISTERED</text><text fill="#eeeeee" stroke="none" font-family="Arial" font-size="24px" font-style="normal" font-weight="normal" text-decoration="none" x="200" y="210">UNREGISTERED</text><text fill="#eeeeee" stroke="none" font-family="Arial" font-size="24px" font-style="normal" font-weight="normal" text-decoration="none" x="200" y="240">UNREGISTERED</text><text fill="#eeeeee" stroke="none" font-family="Arial" font-size="24px" font-style="normal" font-weight="normal" text-decoration="none" x="200" y="270">UNREGISTERED</text><text fill="#eeeeee" stroke="none" font-family="Arial" font-size="24px" font-style="normal" font-weight="normal" text-decoration="none" x="200" y="300">UNREGISTERED</text><text fill="#eeeeee" stroke="none" font-family="Arial" font-size="24px" font-style="normal" font-weight="normal" text-decoration="none" x="200" y="330">UNREGISTERED</text><text fill="#eeeeee" stroke="none" font-family="Arial" font-size="24px" font-style="normal" font-weight="normal" text-decoration="none" x="200" y="360">UNREGISTERED</text><text fill="#eeeeee" stroke="none" font-family="Arial" font-size="24px" font-style="normal" font-weight="normal" text-decoration="none" x="200" y="390">UNREGISTERED</text><text fill="#eeeeee" stroke="none" font-family="Arial" font-size="24px" font-style="normal" font-weight="normal" text-decoration="none" x="400" y="0">UNREGISTERED</text><text fill="#eeeeee" stroke="none" font-family="Arial" font-size="24px" font-style="normal" font-weight="normal" text-decoration="none" x="400" y="30">UNREGISTERED</text><text fill="#eeeeee" stroke="none" font-family="Arial" font-size="24px" font-style="normal" font-weight="normal" text-decoration="none" x="400" y="60">UNREGISTERED</text><text fill="#eeeeee" stroke="none" font-family="Arial" font-size="24px" font-style="normal" font-weight="normal" text-decoration="none" x="400" y="90">UNREGISTERED</text><text fill="#eeeeee" stroke="none" font-family="Arial" font-size="24px" font-style="normal" font-weight="normal" text-decoration="none" x="400" y="120">UNREGISTERED</text><text fill="#eeeeee" stroke="none" font-family="Arial" font-size="24px" font-style="normal" font-weight="normal" text-decoration="none" x="400" y="150">UNREGISTERED</text><text fill="#eeeeee" stroke="none" font-family="Arial" font-size="24px" font-style="normal" font-weight="normal" text-decoration="none" x="400" y="180">UNREGISTERED</text><text fill="#eeeeee" stroke="none" font-family="Arial" font-size="24px" font-style="normal" font-weight="normal" text-decoration="none" x="400" y="210">UNREGISTERED</text><text fill="#eeeeee" stroke="none" font-family="Arial" font-size="24px" font-style="normal" font-weight="normal" text-decoration="none" x="400" y="240">UNREGISTERED</text><text fill="#eeeeee" stroke="none" font-family="Arial" font-size="24px" font-style="normal" font-weight="normal" text-decoration="none" x="400" y="270">UNREGISTERED</text><text fill="#eeeeee" stroke="none" font-family="Arial" font-size="24px" font-style="normal" font-weight="normal" text-decoration="none" x="400" y="300">UNREGISTERED</text><text fill="#eeeeee" stroke="none" font-family="Arial" font-size="24px" font-style="normal" font-weight="normal" text-decoration="none" x="400" y="330">UNREGISTERED</text><text fill="#eeeeee" stroke="none" font-family="Arial" font-size="24px" font-style="normal" font-weight="normal" text-decoration="none" x="400" y="360">UNREGISTERED</text><text fill="#eeeeee" stroke="none" font-family="Arial" font-size="24px" font-style="normal" font-weight="normal" text-decoration="none" x="400" y="390">UNREGISTERED</text><g transform="translate(-214,-37) scale(1,1)"><rect fill="#C0C0C0" stroke="none" x="391" y="183" width="96" height="44" opacity="0.2"/></g><g transform="translate(-214,-37) scale(1,1)"><rect fill="#ffffff" stroke="none" x="384" y="176" width="96" height="44"/></g><g transform="translate(-214,-37) scale(1,1)"><path fill="none" stroke="#000000" d="M 384 176 L 480 176 L 480 220 L 384 220 L 384 176 Z Z" stroke-miterlimit="10"/></g><g transform="translate(-214,-37) scale(1,1)"><g><path fill="none" stroke="none"/><text fill="#000000" stroke="none" font-family="Arial" font-size="13px" font-style="normal" font-weight="bold" text-decoration="none" x="402.734130859375" y="195.5">Institución</text></g></g><g transform="translate(-214,-37) scale(1,1)"><rect fill="#C0C0C0" stroke="none" x="567" y="183" width="120" height="40" opacity="0.2"/></g><g transform="translate(-214,-37) scale(1,1)"><rect fill="#ffffff" stroke="none" x="560" y="176" width="120" height="40"/></g><g transform="translate(-214,-37) scale(1,1)"><path fill="none" stroke="#000000" d="M 560 176 L 680 176 L 680 216 L 560 216 L 560 176 Z Z" stroke-miterlimit="10"/></g><g transform="translate(-214,-37) scale(1,1)"><g><path fill="none" stroke="none"/><text fill="#000000" stroke="none" font-family="Arial" font-size="13px" font-style="normal" font-weight="bold" text-decoration="none" x="577.359619140625" y="195.5">Representante</text><text fill="#000000" stroke="none" font-family="Arial" font-size="13px" font-style="normal" font-weight="bold" text-decoration="none" x="604.095947265625" y="208.5">Legal</text></g></g><g transform="translate(-214,-37) scale(1,1)"><path fill="none" stroke="#000000" d="M 481 197 L 559 197" stroke-miterlimit="10"/></g><g transform="translate(-214,-37) scale(1,1)"><path fill="none" stroke="#000000" d="M 548.8373251423759 201.209517756016 L 559 197 L 548.8373251423758 192.790482243984" stroke-miterlimit="10"/></g><g transform="translate(-214,-37) scale(1,1)"><g><path fill="none" stroke="none"/><text fill="#000000" stroke="none" font-family="Arial" font-size="13px" font-style="normal" font-weight="normal" text-decoration="none" x="493.5" y="188.5">+tiene un</text></g></g><g transform="translate(-214,-37) scale(1,1)"><g><path fill="none" stroke="none"/><text fill="#000000" stroke="none" font-family="Arial" font-size="13px" font-style="normal" font-weight="normal" text-decoration="none" x="526.74365234375" y="215.5">1..*</text></g></g><g transform="translate(-214,-37) scale(1,1)"><rect fill="#C0C0C0" stroke="none" x="231" y="55" width="77" height="44" opacity="0.2"/></g><g transform="translate(-214,-37) scale(1,1)"><rect fill="#ffffff" stroke="none" x="224" y="48" width="77" height="44"/></g><g transform="translate(-214,-37) scale(1,1)"><path fill="none" stroke="#000000" d="M 224 48 L 301 48 L 301 92 L 224 92 L 224 48 Z Z" stroke-miterlimit="10"/></g><g transform="translate(-214,-37) scale(1,1)"><g><path fill="none" stroke="none"/><text fill="#000000" stroke="none" font-family="Arial" font-size="13px" font-style="normal" font-weight="bold" text-decoration="none" x="229.635009765625" y="67.5">RENIECYT</text></g></g><g transform="translate(-214,-37) scale(1,1)"><rect fill="#C0C0C0" stroke="none" x="255" y="303" width="104" height="63" opacity="0.2"/></g><g transform="translate(-214,-37) scale(1,1)"><rect fill="#ffffff" stroke="none" x="248" y="296" width="104" height="63"/></g><g transform="translate(-214,-37) scale(1,1)"><path fill="none" stroke="#000000" d="M 248 296 L 352 296 L 352 359 L 248 359 L 248 296 Z Z" stroke-miterlimit="10"/></g><g transform="translate(-214,-37) scale(1,1)"><g><path fill="none" stroke="none"/><text fill="#000000" stroke="none" font-family="Arial" font-size="13px" font-style="normal" font-weight="bold" text-decoration="none" x="261.6982421875" y="315.5">Institucion de</text><text fill="#000000" stroke="none" font-family="Arial" font-size="13px" font-style="normal" font-weight="bold" text-decoration="none" x="269.6455078125" y="328.5">Educación</text><text fill="#000000" stroke="none" font-family="Arial" font-size="13px" font-style="normal" font-weight="bold" text-decoration="none" x="275.431396484375" y="341.5">Superior</text><text fill="#000000" stroke="none" font-family="Arial" font-size="13px" font-style="normal" font-weight="bold" text-decoration="none" x="276.15185546875" y="354.5">públicas</text></g></g><g transform="translate(-214,-37) scale(1,1)"><rect fill="#C0C0C0" stroke="none" x="487" y="295" width="120" height="63" opacity="0.2"/></g><g transform="translate(-214,-37) scale(1,1)"><rect fill="#ffffff" stroke="none" x="480" y="288" width="120" height="63"/></g><g transform="translate(-214,-37) scale(1,1)"><path fill="none" stroke="#000000" d="M 480 288 L 600 288 L 600 351 L 480 351 L 480 288 Z Z" stroke-miterlimit="10"/></g><g transform="translate(-214,-37) scale(1,1)"><g><path fill="none" stroke="none"/><text fill="#000000" stroke="none" font-family="Arial" font-size="13px" font-style="normal" font-weight="bold" text-decoration="none" x="501.6982421875" y="307.5">Institucion de</text><text fill="#000000" stroke="none" font-family="Arial" font-size="13px" font-style="normal" font-weight="bold" text-decoration="none" x="509.6455078125" y="320.5">Educación</text><text fill="#000000" stroke="none" font-family="Arial" font-size="13px" font-style="normal" font-weight="bold" text-decoration="none" x="515.431396484375" y="333.5">Superior</text><text fill="#000000" stroke="none" font-family="Arial" font-size="13px" font-style="normal" font-weight="bold" text-decoration="none" x="506.40185546875" y="346.5">particulares</text></g></g><g transform="translate(-214,-37) scale(1,1)"><rect fill="#C0C0C0" stroke="none" x="263" y="391" width="120" height="44" opacity="0.2"/></g><g transform="translate(-214,-37) scale(1,1)"><rect fill="#ffffff" stroke="none" x="256" y="384" width="120" height="44"/></g><g transform="translate(-214,-37) scale(1,1)"><path fill="none" stroke="#000000" d="M 256 384 L 376 384 L 376 428 L 256 428 L 256 384 Z Z" stroke-miterlimit="10"/></g><g transform="translate(-214,-37) scale(1,1)"><g><path fill="none" stroke="none"/><text fill="#000000" stroke="none" font-family="Arial" font-size="13px" font-style="normal" font-weight="bold" text-decoration="none" x="270.115966796875" y="403.5">Centro Públicos</text><text fill="#000000" stroke="none" font-family="Arial" font-size="13px" font-style="normal" font-weight="bold" text-decoration="none" x="269.024169921875" y="416.5">de Investigación</text></g></g><g transform="translate(-214,-37) scale(1,1)"><rect fill="#C0C0C0" stroke="none" x="487" y="391" width="160" height="50" opacity="0.2"/></g><g transform="translate(-214,-37) scale(1,1)"><rect fill="#ffffff" stroke="none" x="480" y="384" width="160" height="50"/></g><g transform="translate(-214,-37) scale(1,1)"><path fill="none" stroke="#000000" d="M 480 384 L 640 384 L 640 434 L 480 434 L 480 384 Z Z" stroke-miterlimit="10"/></g><g transform="translate(-214,-37) scale(1,1)"><g><path fill="none" stroke="none"/><text fill="#000000" stroke="none" font-family="Arial" font-size="13px" font-style="normal" font-weight="bold" text-decoration="none" x="495.32373046875" y="403.5">Instituciones federales</text><text fill="#000000" stroke="none" font-family="Arial" font-size="13px" font-style="normal" font-weight="bold" text-decoration="none" x="498.94189453125" y="416.5">y estatales del sector</text><text fill="#000000" stroke="none" font-family="Arial" font-size="13px" font-style="normal" font-weight="bold" text-decoration="none" x="539.40185546875" y="429.5">público</text></g></g><g transform="translate(-214,-37) scale(1,1)"><rect fill="#C0C0C0" stroke="none" x="383" y="55" width="104" height="40" opacity="0.2"/></g><g transform="translate(-214,-37) scale(1,1)"><rect fill="#ffffff" stroke="none" x="376" y="48" width="104" height="40"/></g><g transform="translate(-214,-37) scale(1,1)"><path fill="none" stroke="#000000" d="M 376 48 L 480 48 L 480 88 L 376 88 L 376 48 Z Z" stroke-miterlimit="10"/></g><g transform="translate(-214,-37) scale(1,1)"><g><path fill="none" stroke="none"/><text fill="#000000" stroke="none" font-family="Arial" font-size="13px" font-style="normal" font-weight="bold" text-decoration="none" x="386.445068359375" y="67.5">Constancia de</text><text fill="#000000" stroke="none" font-family="Arial" font-size="13px" font-style="normal" font-weight="bold" text-decoration="none" x="396.931396484375" y="80.5">Inscripción</text></g></g><g transform="translate(-214,-37) scale(1,1)"><path fill="none" stroke="#000000" d="M 431 175 L 429 89" stroke-miterlimit="10"/></g><g transform="translate(-214,-37) scale(1,1)"><g><path fill="none" stroke="none"/><text fill="#000000" stroke="none" font-family="Arial" font-size="13px" font-style="normal" font-weight="normal" text-decoration="none" x="431.5" y="142.5">+tiene</text></g></g><g transform="translate(-214,-37) scale(1,1)"><g><path fill="none" stroke="none"/><text fill="#000000" stroke="none" font-family="Arial" font-size="13px" font-style="normal" font-weight="normal" text-decoration="none" x="439.726806640625" y="168.5">1</text></g></g><g transform="translate(-214,-37) scale(1,1)"><g><path fill="none" stroke="none"/><text fill="#000000" stroke="none" font-family="Arial" font-size="13px" font-style="normal" font-weight="normal" text-decoration="none" x="439.5" y="107.5">0..1</text></g></g><g transform="translate(-214,-37) scale(1,1)"><path fill="none" stroke="#000000" d="M 302 70 L 375 69" stroke-miterlimit="10"/></g><g transform="translate(-214,-37) scale(1,1)"><path fill="none" stroke="#000000" d="M 364.895937750807 73.34832451231878 L 375 69 L 364.7806193166043 64.93007881552491" stroke-miterlimit="10"/></g><g transform="translate(-214,-37) scale(1,1)"><g><path fill="none" stroke="none"/><text fill="#000000" stroke="none" font-family="Arial" font-size="13px" font-style="normal" font-weight="normal" text-decoration="none" x="316.5" y="59.5">+tiene</text></g></g><g transform="translate(-214,-37) scale(1,1)"><g><path fill="none" stroke="none"/><text fill="#000000" stroke="none" font-family="Arial" font-size="13px" font-style="normal" font-weight="normal" text-decoration="none" x="342.74365234375" y="87.5">0..*</text></g></g><g transform="translate(-214,-37) scale(1,1)"><path fill="none" stroke="#000000" d="M 352 327 L 384 327 M 384 327 A 8 8 0 0 0 392 319 L 392 220" stroke-miterlimit="10"/></g><g transform="translate(-214,-37) scale(1,1)"><path fill="#FFFFFF" stroke="none" d="M 400.419035512032 240.3253497152483 L 392 220 L 383.580964487968 240.3253497152483"/></g><g transform="translate(-214,-37) scale(1,1)"><path fill="none" stroke="#000000" d="M 400.419035512032 240.3253497152483 L 392 220 L 383.580964487968 240.3253497152483 L 400.419035512032 240.3253497152483" stroke-miterlimit="10"/></g><g transform="translate(-214,-37) scale(1,1)"><path fill="none" stroke="#000000" d="M 480 319 L 472 319 M 472 319 A 8 8 0 0 1 464 311 L 464 220" stroke-miterlimit="10"/></g><g transform="translate(-214,-37) scale(1,1)"><path fill="#FFFFFF" stroke="none" d="M 472.419035512032 240.3253497152483 L 464 220 L 455.580964487968 240.3253497152483"/></g><g transform="translate(-214,-37) scale(1,1)"><path fill="none" stroke="#000000" d="M 472.419035512032 240.3253497152483 L 464 220 L 455.580964487968 240.3253497152483 L 472.419035512032 240.3253497152483" stroke-miterlimit="10"/></g><g transform="translate(-214,-37) scale(1,1)"><path fill="none" stroke="#000000" d="M 376 406 L 409 406 M 409 406 A 8 8 0 0 0 417 398 L 417 220" stroke-miterlimit="10"/></g><g transform="translate(-214,-37) scale(1,1)"><path fill="#FFFFFF" stroke="none" d="M 425.419035512032 240.3253497152483 L 417 220 L 408.580964487968 240.3253497152483"/></g><g transform="translate(-214,-37) scale(1,1)"><path fill="none" stroke="#000000" d="M 425.419035512032 240.3253497152483 L 417 220 L 408.580964487968 240.3253497152483 L 425.419035512032 240.3253497152483" stroke-miterlimit="10"/></g><g transform="translate(-214,-37) scale(1,1)"><path fill="none" stroke="#000000" d="M 480 409 L 450 409 M 450 409 A 8 8 0 0 1 442 401 L 442 220" stroke-miterlimit="10"/></g><g transform="translate(-214,-37) scale(1,1)"><path fill="#FFFFFF" stroke="none" d="M 450.419035512032 240.3253497152483 L 442 220 L 433.580964487968 240.3253497152483"/></g><g transform="translate(-214,-37) scale(1,1)"><path fill="none" stroke="#000000" d="M 450.419035512032 240.3253497152483 L 442 220 L 433.580964487968 240.3253497152483 L 450.419035512032 240.3253497152483" stroke-miterlimit="10"/></g></g></svg>