<svg version="1.1" xmlns="http://www.w3.org/2000/svg" xmlns:xlink="http://www.w3.org/1999/xlink" width="589.2490234375" height="366"><defs/><g><text fill="#eeeeee" stroke="none" font-family="Arial" font-size="24px" font-style="normal" font-weight="normal" text-decoration="none" x="0" y="0">UNREGISTERED</text><text fill="#eeeeee" stroke="none" font-family="Arial" font-size="24px" font-style="normal" font-weight="normal" text-decoration="none" x="0" y="30">UNREGISTERED</text><text fill="#eeeeee" stroke="none" font-family="Arial" font-size="24px" font-style="normal" font-weight="normal" text-decoration="none" x="0" y="60">UNREGISTERED</text><text fill="#eeeeee" stroke="none" font-family="Arial" font-size="24px" font-style="normal" font-weight="normal" text-decoration="none" x="0" y="90">UNREGISTERED</text><text fill="#eeeeee" stroke="none" font-family="Arial" font-size="24px" font-style="normal" font-weight="normal" text-decoration="none" x="0" y="120">UNREGISTERED</text><text fill="#eeeeee" stroke="none" font-family="Arial" font-size="24px" font-style="normal" font-weight="normal" text-decoration="none" x="0" y="150">UNREGISTERED</text><text fill="#eeeeee" stroke="none" font-family="Arial" font-size="24px" font-style="normal" font-weight="normal" text-decoration="none" x="0" y="180">UNREGISTERED</text><text fill="#eeeeee" stroke="none" font-family="Arial" font-size="24px" font-style="normal" font-weight="normal" text-decoration="none" x="0" y="210">UNREGISTERED</text><text fill="#eeeeee" stroke="none" font-family="Arial" font-size="24px" font-style="normal" font-weight="normal" text-decoration="none" x="0" y="240">UNREGISTERED</text><text fill="#eeeeee" stroke="none" font-family="Arial" font-size="24px" font-style="normal" font-weight="normal" text-decoration="none" x="0" y="270">UNREGISTERED</text><text fill="#eeeeee" stroke="none" font-family="Arial" font-size="24px" font-style="normal" font-weight="normal" text-decoration="none" x="0" y="300">UNREGISTERED</text><text fill="#eeeeee" stroke="none" font-family="Arial" font-size="24px" font-style="normal" font-weight="normal" text-decoration="none" x="0" y="330">UNREGISTERED</text><text fill="#eeeeee" stroke="none" font-family="Arial" font-size="24px" font-style="normal" font-weight="normal" text-decoration="none" x="0" y="360">UNREGISTERED</text><text fill="#eeeeee" stroke="none" font-family="Arial" font-size="24px" font-style="normal" font-weight="normal" text-decoration="none" x="200" y="0">UNREGISTERED</text><text fill="#eeeeee" stroke="none" font-family="Arial" font-size="24px" font-style="normal" font-weight="normal" text-decoration="none" x="200" y="30">UNREGISTERED</text><text fill="#eeeeee" stroke="none" font-family="Arial" font-size="24px" font-style="normal" font-weight="normal" text-decoration="none" x="200" y="60">UNREGISTERED</text><text fill="#eeeeee" stroke="none" font-family="Arial" font-size="24px" font-style="normal" font-weight="normal" text-decoration="none" x="200" y="90">UNREGISTERED</text><text fill="#eeeeee" stroke="none" font-family="Arial" font-size="24px" font-style="normal" font-weight="normal" text-decoration="none" x="200" y="120">UNREGISTERED</text><text fill="#eeeeee" stroke="none" font-family="Arial" font-size="24px" font-style="normal" font-weight="normal" text-decoration="none" x="200" y="150">UNREGISTERED</text><text fill="#eeeeee" stroke="none" font-family="Arial" font-size="24px" font-style="normal" font-weight="normal" text-decoration="none" x="200" y="180">UNREGISTERED</text><text fill="#eeeeee" stroke="none" font-family="Arial" font-size="24px" font-style="normal" font-weight="normal" text-decoration="none" x="200" y="210">UNREGISTERED</text><text fill="#eeeeee" stroke="none" font-family="Arial" font-size="24px" font-style="normal" font-weight="normal" text-decoration="none" x="200" y="240">UNREGISTERED</text><text fill="#eeeeee" stroke="none" font-family="Arial" font-size="24px" font-style="normal" font-weight="normal" text-decoration="none" x="200" y="270">UNREGISTERED</text><text fill="#eeeeee" stroke="none" font-family="Arial" font-size="24px" font-style="normal" font-weight="normal" text-decoration="none" x="200" y="300">UNREGISTERED</text><text fill="#eeeeee" stroke="none" font-family="Arial" font-size="24px" font-style="normal" font-weight="normal" text-decoration="none" x="200" y="330">UNREGISTERED</text><text fill="#eeeeee" stroke="none" font-family="Arial" font-size="24px" font-style="normal" font-weight="normal" text-decoration="none" x="200" y="360">UNREGISTERED</text><text fill="#eeeeee" stroke="none" font-family="Arial" font-size="24px" font-style="normal" font-weight="normal" text-decoration="none" x="400" y="0">UNREGISTERED</text><text fill="#eeeeee" stroke="none" font-family="Arial" font-size="24px" font-style="normal" font-weight="normal" text-decoration="none" x="400" y="30">UNREGISTERED</text><text fill="#eeeeee" stroke="none" font-family="Arial" font-size="24px" font-style="normal" font-weight="normal" text-decoration="none" x="400" y="60">UNREGISTERED</text><text fill="#eeeeee" stroke="none" font-family="Arial" font-size="24px" font-style="normal" font-weight="normal" text-decoration="none" x="400" y="90">UNREGISTERED</text><text fill="#eeeeee" stroke="none" font-family="Arial" font-size="24px" font-style="normal" font-weight="normal" text-decoration="none" x="400" y="120">UNREGISTERED</text><text fill="#eeeeee" stroke="none" font-family="Arial" font-size="24px" font-style="normal" font-weight="normal" text-decoration="none" x="400" y="150">UNREGISTERED</text><text fill="#eeeeee" stroke="none" font-family="Arial" font-size="24px" font-style="normal" font-weight="normal" text-decoration="none" x="400" y="180">UNREGISTERED</text><text fill="#eeeeee" stroke="none" font-family="Arial" font-size="24px" font-style="normal" font-weight="normal" text-decoration="none" x="400" y="210">UNREGISTERED</text><text fill="#eeeeee" stroke="none" font-family="Arial" font-size="24px" font-style="normal" font-weight="normal" text-decoration="none" x="400" y="240">UNREGISTERED</text><text fill="#eeeeee" stroke="none" font-family="Arial" font-size="24px" font-style="normal" font-weight="normal" text-decoration="none" x="400" y="270">UNREGISTERED</text><text fill="#eeeeee" stroke="none" font-family="Arial" font-size="24px" font-style="normal" font-weight="normal" text-decoration="none" x="400" y="300">UNREGISTERED</text><text fill="#eeeeee" stroke="none" font-family="Arial" font-size="24px" font-style="normal" font-weight="normal" text-decoration="none" x="400" y="330">UNREGISTERED</text><text fill="#eeeeee" stroke="none" font-family="Arial" font-size="24px" font-style="normal" font-weight="normal" text-decoration="none" x="400" y="360">UNREGISTERED</text><g transform="translate(-70,-46) scale(1,1)"><rect fill="#C0C0C0" stroke="none" x="271" y="63" width="200" height="50" opacity="0.2"/></g><g transform="translate(-70,-46) scale(1,1)"><rect fill="#ffffff" stroke="none" x="264" y="56" width="200" height="50"/></g><g transform="translate(-70,-46) scale(1,1)"><path fill="none" stroke="#000000" d="M 264 56 L 464 56 L 464 106 L 264 106 L 264 56 Z Z" stroke-miterlimit="10"/></g><g transform="translate(-70,-46) scale(1,1)"><g><path fill="none" stroke="none"/><text fill="#000000" stroke="none" font-family="Arial" font-size="13px" font-style="normal" font-weight="bold" text-decoration="none" x="299.685546875" y="75.5">Area de Conocimiento</text></g></g><g transform="translate(-70,-46) scale(1,1)"><rect fill="#C0C0C0" stroke="none" x="87" y="159" width="185.2490234375" height="50" opacity="0.2"/></g><g transform="translate(-70,-46) scale(1,1)"><rect fill="#ffffff" stroke="none" x="80" y="152" width="185.2490234375" height="50"/></g><g transform="translate(-70,-46) scale(1,1)"><path fill="none" stroke="#000000" d="M 80 152 L 265.2490234375 152 L 265.2490234375 202 L 80 202 L 80 152 Z Z" stroke-miterlimit="10"/></g><g transform="translate(-70,-46) scale(1,1)"><g><path fill="none" stroke="none"/><text fill="#000000" stroke="none" font-family="Arial" font-size="13px" font-style="normal" font-weight="bold" text-decoration="none" x="123.14453125" y="171.5">ÁREA I.- Física y</text><text fill="#000000" stroke="none" font-family="Arial" font-size="13px" font-style="normal" font-weight="bold" text-decoration="none" x="94.95458984375" y="184.5">Matemáticas y Ciencias de</text><text fill="#000000" stroke="none" font-family="Arial" font-size="13px" font-style="normal" font-weight="bold" text-decoration="none" x="149.027099609375" y="197.5">la Tierra</text></g></g><g transform="translate(-70,-46) scale(1,1)"><rect fill="#C0C0C0" stroke="none" x="87" y="223" width="185.2490234375" height="50" opacity="0.2"/></g><g transform="translate(-70,-46) scale(1,1)"><rect fill="#ffffff" stroke="none" x="80" y="216" width="185.2490234375" height="50"/></g><g transform="translate(-70,-46) scale(1,1)"><path fill="none" stroke="#000000" d="M 80 216 L 265.2490234375 216 L 265.2490234375 266 L 80 266 L 80 216 Z Z" stroke-miterlimit="10"/></g><g transform="translate(-70,-46) scale(1,1)"><g><path fill="none" stroke="none"/><text fill="#000000" stroke="none" font-family="Arial" font-size="13px" font-style="normal" font-weight="bold" text-decoration="none" x="115.1845703125" y="235.5">ÁREA II.- Biología y</text><text fill="#000000" stroke="none" font-family="Arial" font-size="13px" font-style="normal" font-weight="bold" text-decoration="none" x="148.424072265625" y="248.5">Química</text></g></g><g transform="translate(-70,-46) scale(1,1)"><rect fill="#C0C0C0" stroke="none" x="87" y="287" width="185.2490234375" height="50" opacity="0.2"/></g><g transform="translate(-70,-46) scale(1,1)"><rect fill="#ffffff" stroke="none" x="80" y="280" width="185.2490234375" height="50"/></g><g transform="translate(-70,-46) scale(1,1)"><path fill="none" stroke="#000000" d="M 80 280 L 265.2490234375 280 L 265.2490234375 330 L 80 330 L 80 280 Z Z" stroke-miterlimit="10"/></g><g transform="translate(-70,-46) scale(1,1)"><g><path fill="none" stroke="none"/><text fill="#000000" stroke="none" font-family="Arial" font-size="13px" font-style="normal" font-weight="bold" text-decoration="none" x="110.85546875" y="299.5">ÁREA III.- Medicina y</text><text fill="#000000" stroke="none" font-family="Arial" font-size="13px" font-style="normal" font-weight="bold" text-decoration="none" x="113.365966796875" y="312.5">Ciencias de la Salud</text></g></g><g transform="translate(-70,-46) scale(1,1)"><rect fill="#C0C0C0" stroke="none" x="87" y="351" width="185.2490234375" height="50" opacity="0.2"/></g><g transform="translate(-70,-46) scale(1,1)"><rect fill="#ffffff" stroke="none" x="80" y="344" width="185.2490234375" height="50"/></g><g transform="translate(-70,-46) scale(1,1)"><path fill="none" stroke="#000000" d="M 80 344 L 265.2490234375 344 L 265.2490234375 394 L 80 394 L 80 344 Z Z" stroke-miterlimit="10"/></g><g transform="translate(-70,-46) scale(1,1)"><g><path fill="none" stroke="none"/><text fill="#000000" stroke="none" font-family="Arial" font-size="13px" font-style="normal" font-weight="bold" text-decoration="none" x="96.633544921875" y="363.5">ÁREA IV.- Humanidades y</text><text fill="#000000" stroke="none" font-family="Arial" font-size="13px" font-style="normal" font-weight="bold" text-decoration="none" x="102.16552734375" y="376.5">Ciencias de la Conducta</text></g></g><g transform="translate(-70,-46) scale(1,1)"><rect fill="#C0C0C0" stroke="none" x="471" y="167" width="185.2490234375" height="50" opacity="0.2"/></g><g transform="translate(-70,-46) scale(1,1)"><rect fill="#ffffff" stroke="none" x="464" y="160" width="185.2490234375" height="50"/></g><g transform="translate(-70,-46) scale(1,1)"><path fill="none" stroke="#000000" d="M 464 160 L 649.2490234375 160 L 649.2490234375 210 L 464 210 L 464 160 Z Z" stroke-miterlimit="10"/></g><g transform="translate(-70,-46) scale(1,1)"><g><path fill="none" stroke="none"/><text fill="#000000" stroke="none" font-family="Arial" font-size="13px" font-style="normal" font-weight="bold" text-decoration="none" x="476.30126953125" y="179.5">ÁREA V.- Ciencias Sociales</text><text fill="#000000" stroke="none" font-family="Arial" font-size="13px" font-style="normal" font-weight="bold" text-decoration="none" x="516.16455078125" y="192.5">y Económicas</text></g></g><g transform="translate(-70,-46) scale(1,1)"><rect fill="#C0C0C0" stroke="none" x="471" y="239" width="185.2490234375" height="50" opacity="0.2"/></g><g transform="translate(-70,-46) scale(1,1)"><rect fill="#ffffff" stroke="none" x="464" y="232" width="185.2490234375" height="50"/></g><g transform="translate(-70,-46) scale(1,1)"><path fill="none" stroke="#000000" d="M 464 232 L 649.2490234375 232 L 649.2490234375 282 L 464 282 L 464 232 Z Z" stroke-miterlimit="10"/></g><g transform="translate(-70,-46) scale(1,1)"><g><path fill="none" stroke="none"/><text fill="#000000" stroke="none" font-family="Arial" font-size="13px" font-style="normal" font-weight="bold" text-decoration="none" x="478.9482421875" y="251.5">ÁREA VI. - Biotecnología y</text><text fill="#000000" stroke="none" font-family="Arial" font-size="13px" font-style="normal" font-weight="bold" text-decoration="none" x="487.977783203125" y="264.5">Ciencias Agropecuarias</text></g></g><g transform="translate(-70,-46) scale(1,1)"><rect fill="#C0C0C0" stroke="none" x="471" y="295" width="185.2490234375" height="50" opacity="0.2"/></g><g transform="translate(-70,-46) scale(1,1)"><rect fill="#ffffff" stroke="none" x="464" y="288" width="185.2490234375" height="50"/></g><g transform="translate(-70,-46) scale(1,1)"><path fill="none" stroke="#000000" d="M 464 288 L 649.2490234375 288 L 649.2490234375 338 L 464 338 L 464 288 Z Z" stroke-miterlimit="10"/></g><g transform="translate(-70,-46) scale(1,1)"><g><path fill="none" stroke="none"/><text fill="#000000" stroke="none" font-family="Arial" font-size="13px" font-style="normal" font-weight="bold" text-decoration="none" x="482.56640625" y="307.5">ÁREA VII.- Ciencias de la</text><text fill="#000000" stroke="none" font-family="Arial" font-size="13px" font-style="normal" font-weight="bold" text-decoration="none" x="527.714111328125" y="320.5">Ingeniería</text></g></g><g transform="translate(-70,-46) scale(1,1)"><rect fill="#C0C0C0" stroke="none" x="471" y="359" width="185.2490234375" height="50" opacity="0.2"/></g><g transform="translate(-70,-46) scale(1,1)"><rect fill="#ffffff" stroke="none" x="464" y="352" width="185.2490234375" height="50"/></g><g transform="translate(-70,-46) scale(1,1)"><path fill="none" stroke="#000000" d="M 464 352 L 649.2490234375 352 L 649.2490234375 402 L 464 402 L 464 352 Z Z" stroke-miterlimit="10"/></g><g transform="translate(-70,-46) scale(1,1)"><g><path fill="none" stroke="none"/><text fill="#000000" stroke="none" font-family="Arial" font-size="13px" font-style="normal" font-weight="bold" text-decoration="none" x="483.648681640625" y="371.5">ÁREA VIII.- Investigación</text><text fill="#000000" stroke="none" font-family="Arial" font-size="13px" font-style="normal" font-weight="bold" text-decoration="none" x="507.135009765625" y="384.5">Multidisciplinaria </text></g></g><g transform="translate(-70,-46) scale(1,1)"><path fill="none" stroke="#000000" d="M 265 177 L 272 177 M 272 177 A 8 8 0 0 0 280 169 L 280 106" stroke-miterlimit="10"/></g><g transform="translate(-70,-46) scale(1,1)"><path fill="#FFFFFF" stroke="none" d="M 288.419035512032 126.32534971524831 L 280 106 L 271.580964487968 126.32534971524831"/></g><g transform="translate(-70,-46) scale(1,1)"><path fill="none" stroke="#000000" d="M 288.419035512032 126.32534971524831 L 280 106 L 271.580964487968 126.32534971524831 L 288.419035512032 126.32534971524831" stroke-miterlimit="10"/></g><g transform="translate(-70,-46) scale(1,1)"><path fill="none" stroke="#000000" d="M 464 185 L 456 185 M 456 185 A 8 8 0 0 1 448 177 L 448 106" stroke-miterlimit="10"/></g><g transform="translate(-70,-46) scale(1,1)"><path fill="#FFFFFF" stroke="none" d="M 456.419035512032 126.32534971524831 L 448 106 L 439.580964487968 126.32534971524831"/></g><g transform="translate(-70,-46) scale(1,1)"><path fill="none" stroke="#000000" d="M 456.419035512032 126.32534971524831 L 448 106 L 439.580964487968 126.32534971524831 L 456.419035512032 126.32534971524831" stroke-miterlimit="10"/></g><g transform="translate(-70,-46) scale(1,1)"><path fill="none" stroke="#000000" d="M 265 241 L 296 241 M 296 241 A 8 8 0 0 0 304 233 L 304 106" stroke-miterlimit="10"/></g><g transform="translate(-70,-46) scale(1,1)"><path fill="#FFFFFF" stroke="none" d="M 312.419035512032 126.32534971524831 L 304 106 L 295.580964487968 126.32534971524831"/></g><g transform="translate(-70,-46) scale(1,1)"><path fill="none" stroke="#000000" d="M 312.419035512032 126.32534971524831 L 304 106 L 295.580964487968 126.32534971524831 L 312.419035512032 126.32534971524831" stroke-miterlimit="10"/></g><g transform="translate(-70,-46) scale(1,1)"><path fill="none" stroke="#000000" d="M 464 257 L 432 257 M 432 257 A 8 8 0 0 1 424 249 L 424 106" stroke-miterlimit="10"/></g><g transform="translate(-70,-46) scale(1,1)"><path fill="#FFFFFF" stroke="none" d="M 432.419035512032 126.32534971524831 L 424 106 L 415.580964487968 126.32534971524831"/></g><g transform="translate(-70,-46) scale(1,1)"><path fill="none" stroke="#000000" d="M 432.419035512032 126.32534971524831 L 424 106 L 415.580964487968 126.32534971524831 L 432.419035512032 126.32534971524831" stroke-miterlimit="10"/></g><g transform="translate(-70,-46) scale(1,1)"><path fill="none" stroke="#000000" d="M 265 305 L 320 305 M 320 305 A 8 8 0 0 0 328 297 L 328 106" stroke-miterlimit="10"/></g><g transform="translate(-70,-46) scale(1,1)"><path fill="#FFFFFF" stroke="none" d="M 336.419035512032 126.32534971524831 L 328 106 L 319.580964487968 126.32534971524831"/></g><g transform="translate(-70,-46) scale(1,1)"><path fill="none" stroke="#000000" d="M 336.419035512032 126.32534971524831 L 328 106 L 319.580964487968 126.32534971524831 L 336.419035512032 126.32534971524831" stroke-miterlimit="10"/></g><g transform="translate(-70,-46) scale(1,1)"><path fill="none" stroke="#000000" d="M 464 313 L 408 313 M 408 313 A 8 8 0 0 1 400 305 L 400 106" stroke-miterlimit="10"/></g><g transform="translate(-70,-46) scale(1,1)"><path fill="#FFFFFF" stroke="none" d="M 408.419035512032 126.32534971524831 L 400 106 L 391.580964487968 126.32534971524831"/></g><g transform="translate(-70,-46) scale(1,1)"><path fill="none" stroke="#000000" d="M 408.419035512032 126.32534971524831 L 400 106 L 391.580964487968 126.32534971524831 L 408.419035512032 126.32534971524831" stroke-miterlimit="10"/></g><g transform="translate(-70,-46) scale(1,1)"><path fill="none" stroke="#000000" d="M 265 369 L 344 369 M 344 369 A 8 8 0 0 0 352 361 L 352 106" stroke-miterlimit="10"/></g><g transform="translate(-70,-46) scale(1,1)"><path fill="#FFFFFF" stroke="none" d="M 360.419035512032 126.32534971524831 L 352 106 L 343.580964487968 126.32534971524831"/></g><g transform="translate(-70,-46) scale(1,1)"><path fill="none" stroke="#000000" d="M 360.419035512032 126.32534971524831 L 352 106 L 343.580964487968 126.32534971524831 L 360.419035512032 126.32534971524831" stroke-miterlimit="10"/></g><g transform="translate(-70,-46) scale(1,1)"><path fill="none" stroke="#000000" d="M 464 377 L 384 377 M 384 377 A 8 8 0 0 1 376 369 L 376 106" stroke-miterlimit="10"/></g><g transform="translate(-70,-46) scale(1,1)"><path fill="#FFFFFF" stroke="none" d="M 384.419035512032 126.32534971524831 L 376 106 L 367.580964487968 126.32534971524831"/></g><g transform="translate(-70,-46) scale(1,1)"><path fill="none" stroke="#000000" d="M 384.419035512032 126.32534971524831 L 376 106 L 367.580964487968 126.32534971524831 L 384.419035512032 126.32534971524831" stroke-miterlimit="10"/></g></g></svg>