<svg version="1.1" xmlns="http://www.w3.org/2000/svg" xmlns:xlink="http://www.w3.org/1999/xlink" width="805" height="366"><defs></defs><g><g transform="translate(-22,-38) scale(1,1)"><rect fill="#C0C0C0" stroke="none" x="223" y="55" width="200" height="50" opacity="0.2"></rect></g><g transform="translate(-22,-38) scale(1,1)"><rect fill="#ffffff" stroke="none" x="216" y="48" width="200" height="50"></rect></g><g transform="translate(-22,-38) scale(1,1)"><path fill="none" stroke="#000000" d="M 216 48 L 416 48 L 416 98 L 216 98 L 216 48 Z Z" stroke-miterlimit="10"></path></g><g transform="translate(-22,-38) scale(1,1)"><g><path fill="none" stroke="none"></path><text fill="#000000" stroke="none" font-family="Arial" font-size="13px" font-style="normal" font-weight="bold" text-decoration="none" x="252" y="67.5">Área de Conocimiento</text></g></g><g transform="translate(-22,-38) scale(1,1)"><rect fill="#C0C0C0" stroke="none" x="39" y="151" width="185.2490234375" height="50" opacity="0.2"></rect></g><g transform="translate(-22,-38) scale(1,1)"><rect fill="#ffffff" stroke="none" x="32" y="144" width="185.2490234375" height="50"></rect></g><g transform="translate(-22,-38) scale(1,1)"><path fill="none" stroke="#000000" d="M 32 144 L 217.2490234375 144 L 217.2490234375 194 L 32 194 L 32 144 Z Z" stroke-miterlimit="10"></path></g><g transform="translate(-22,-38) scale(1,1)"><g><path fill="none" stroke="none"></path><text fill="#000000" stroke="none" font-family="Arial" font-size="13px" font-style="normal" font-weight="bold" text-decoration="none" x="73.12451171875" y="163.5">ÁREA I.- Física y</text><text fill="#000000" stroke="none" font-family="Arial" font-size="13px" font-style="normal" font-weight="bold" text-decoration="none" x="45.62451171875" y="176.5">Matemáticas y Ciencias de</text><text fill="#000000" stroke="none" font-family="Arial" font-size="13px" font-style="normal" font-weight="bold" text-decoration="none" x="101.12451171875" y="189.5">la Tierra</text></g></g><g transform="translate(-22,-38) scale(1,1)"><rect fill="#C0C0C0" stroke="none" x="39" y="215" width="185.2490234375" height="50" opacity="0.2"></rect></g><g transform="translate(-22,-38) scale(1,1)"><rect fill="#ffffff" stroke="none" x="32" y="208" width="185.2490234375" height="50"></rect></g><g transform="translate(-22,-38) scale(1,1)"><path fill="none" stroke="#000000" d="M 32 208 L 217.2490234375 208 L 217.2490234375 258 L 32 258 L 32 208 Z Z" stroke-miterlimit="10"></path></g><g transform="translate(-22,-38) scale(1,1)"><g><path fill="none" stroke="none"></path><text fill="#000000" stroke="none" font-family="Arial" font-size="13px" font-style="normal" font-weight="bold" text-decoration="none" x="65.62451171875" y="227.5">ÁREA II.- Biología y</text><text fill="#000000" stroke="none" font-family="Arial" font-size="13px" font-style="normal" font-weight="bold" text-decoration="none" x="100.12451171875" y="240.5">Química</text></g></g><g transform="translate(-22,-38) scale(1,1)"><rect fill="#C0C0C0" stroke="none" x="39" y="279" width="185.2490234375" height="50" opacity="0.2"></rect></g><g transform="translate(-22,-38) scale(1,1)"><rect fill="#ffffff" stroke="none" x="32" y="272" width="185.2490234375" height="50"></rect></g><g transform="translate(-22,-38) scale(1,1)"><path fill="none" stroke="#000000" d="M 32 272 L 217.2490234375 272 L 217.2490234375 322 L 32 322 L 32 272 Z Z" stroke-miterlimit="10"></path></g><g transform="translate(-22,-38) scale(1,1)"><g><path fill="none" stroke="none"></path><text fill="#000000" stroke="none" font-family="Arial" font-size="13px" font-style="normal" font-weight="bold" text-decoration="none" x="61.12451171875" y="291.5">ÁREA III.- Medicina y</text><text fill="#000000" stroke="none" font-family="Arial" font-size="13px" font-style="normal" font-weight="bold" text-decoration="none" x="65.12451171875" y="304.5">Ciencias de la Salud</text></g></g><g transform="translate(-22,-38) scale(1,1)"><rect fill="#C0C0C0" stroke="none" x="39" y="343" width="185.2490234375" height="50" opacity="0.2"></rect></g><g transform="translate(-22,-38) scale(1,1)"><rect fill="#ffffff" stroke="none" x="32" y="336" width="185.2490234375" height="50"></rect></g><g transform="translate(-22,-38) scale(1,1)"><path fill="none" stroke="#000000" d="M 32 336 L 217.2490234375 336 L 217.2490234375 386 L 32 386 L 32 336 Z Z" stroke-miterlimit="10"></path></g><g transform="translate(-22,-38) scale(1,1)"><g><path fill="none" stroke="none"></path><text fill="#000000" stroke="none" font-family="Arial" font-size="13px" font-style="normal" font-weight="bold" text-decoration="none" x="47.12451171875" y="355.5">ÁREA IV.- Humanidades y</text><text fill="#000000" stroke="none" font-family="Arial" font-size="13px" font-style="normal" font-weight="bold" text-decoration="none" x="54.12451171875" y="368.5">Ciencias de la Conducta</text></g></g><g transform="translate(-22,-38) scale(1,1)"><rect fill="#C0C0C0" stroke="none" x="423" y="159" width="185.2490234375" height="50" opacity="0.2"></rect></g><g transform="translate(-22,-38) scale(1,1)"><rect fill="#ffffff" stroke="none" x="416" y="152" width="185.2490234375" height="50"></rect></g><g transform="translate(-22,-38) scale(1,1)"><path fill="none" stroke="#000000" d="M 416 152 L 601.2490234375 152 L 601.2490234375 202 L 416 202 L 416 152 Z Z" stroke-miterlimit="10"></path></g><g transform="translate(-22,-38) scale(1,1)"><g><path fill="none" stroke="none"></path><text fill="#000000" stroke="none" font-family="Arial" font-size="13px" font-style="normal" font-weight="bold" text-decoration="none" x="426.12451171875" y="171.5">ÁREA V.- Ciencias Sociales</text></g></g><g transform="translate(-22,-38) scale(1,1)"><rect fill="#C0C0C0" stroke="none" x="423" y="231" width="185.2490234375" height="50" opacity="0.2"></rect></g><g transform="translate(-22,-38) scale(1,1)"><rect fill="#ffffff" stroke="none" x="416" y="224" width="185.2490234375" height="50"></rect></g><g transform="translate(-22,-38) scale(1,1)"><path fill="none" stroke="#000000" d="M 416 224 L 601.2490234375 224 L 601.2490234375 274 L 416 274 L 416 224 Z Z" stroke-miterlimit="10"></path></g><g transform="translate(-22,-38) scale(1,1)"><g><path fill="none" stroke="none"></path><text fill="#000000" stroke="none" font-family="Arial" font-size="13px" font-style="normal" font-weight="bold" text-decoration="none" x="429.12451171875" y="243.5">ÁREA VI. - Biotecnología y</text><text fill="#000000" stroke="none" font-family="Arial" font-size="13px" font-style="normal" font-weight="bold" text-decoration="none" x="440.12451171875" y="256.5">Ciencias Agropecuarias</text></g></g><g transform="translate(-22,-38) scale(1,1)"><rect fill="#C0C0C0" stroke="none" x="423" y="287" width="185.2490234375" height="50" opacity="0.2"></rect></g><g transform="translate(-22,-38) scale(1,1)"><rect fill="#ffffff" stroke="none" x="416" y="280" width="185.2490234375" height="50"></rect></g><g transform="translate(-22,-38) scale(1,1)"><path fill="none" stroke="#000000" d="M 416 280 L 601.2490234375 280 L 601.2490234375 330 L 416 330 L 416 280 Z Z" stroke-miterlimit="10"></path></g><g transform="translate(-22,-38) scale(1,1)"><g><path fill="none" stroke="none"></path><text fill="#000000" stroke="none" font-family="Arial" font-size="13px" font-style="normal" font-weight="bold" text-decoration="none" x="433.12451171875" y="299.5">ÁREA VII.- Ciencias de la</text><text fill="#000000" stroke="none" font-family="Arial" font-size="13px" font-style="normal" font-weight="bold" text-decoration="none" x="480.12451171875" y="312.5">Ingeniería</text></g></g><g transform="translate(-22,-38) scale(1,1)"><rect fill="#C0C0C0" stroke="none" x="423" y="351" width="185.2490234375" height="50" opacity="0.2"></rect></g><g transform="translate(-22,-38) scale(1,1)"><rect fill="#ffebd8" stroke="none" x="416" y="344" width="185.2490234375" height="50"></rect></g><g transform="translate(-22,-38) scale(1,1)"><path fill="none" stroke="#000000" d="M 416 344 L 601.2490234375 344 L 601.2490234375 394 L 416 394 L 416 344 Z Z" stroke-miterlimit="10"></path></g><g transform="translate(-22,-38) scale(1,1)"><g><path fill="none" stroke="none"></path><text fill="#000000" stroke="none" font-family="Arial" font-size="13px" font-style="normal" font-weight="bold" text-decoration="none" x="433.62451171875" y="363.5">ÁREA VIII.- Investigación</text><text fill="#000000" stroke="none" font-family="Arial" font-size="13px" font-style="normal" font-weight="bold" text-decoration="none" x="458.62451171875" y="376.5">Multidisciplinaria </text></g></g><g transform="translate(-22,-38) scale(1,1)"><path fill="none" stroke="#000000" d="M 217 169 L 224 169 M 224 169 A 8 8 0 0 0 232 161 L 232 98" stroke-miterlimit="10"></path></g><g transform="translate(-22,-38) scale(1,1)"><path fill="#FFFFFF" stroke="none" d="M 240.41903551203197 118.32534971524831 L 232 98 L 223.58096448796803 118.32534971524831"></path></g><g transform="translate(-22,-38) scale(1,1)"><path fill="none" stroke="#000000" d="M 240.41903551203197 118.32534971524831 L 232 98 L 223.58096448796803 118.32534971524831 L 240.41903551203197 118.32534971524831" stroke-miterlimit="10"></path></g><g transform="translate(-22,-38) scale(1,1)"><path fill="none" stroke="#000000" d="M 416 177 L 408 177 M 408 177 A 8 8 0 0 1 400 169 L 400 98" stroke-miterlimit="10"></path></g><g transform="translate(-22,-38) scale(1,1)"><path fill="#FFFFFF" stroke="none" d="M 408.419035512032 118.32534971524831 L 400 98 L 391.580964487968 118.32534971524831"></path></g><g transform="translate(-22,-38) scale(1,1)"><path fill="none" stroke="#000000" d="M 408.419035512032 118.32534971524831 L 400 98 L 391.580964487968 118.32534971524831 L 408.419035512032 118.32534971524831" stroke-miterlimit="10"></path></g><g transform="translate(-22,-38) scale(1,1)"><path fill="none" stroke="#000000" d="M 217 233 L 248 233 M 248 233 A 8 8 0 0 0 256 225 L 256 98" stroke-miterlimit="10"></path></g><g transform="translate(-22,-38) scale(1,1)"><path fill="#FFFFFF" stroke="none" d="M 264.419035512032 118.32534971524831 L 256 98 L 247.58096448796803 118.32534971524831"></path></g><g transform="translate(-22,-38) scale(1,1)"><path fill="none" stroke="#000000" d="M 264.419035512032 118.32534971524831 L 256 98 L 247.58096448796803 118.32534971524831 L 264.419035512032 118.32534971524831" stroke-miterlimit="10"></path></g><g transform="translate(-22,-38) scale(1,1)"><path fill="none" stroke="#000000" d="M 416 249 L 384 249 M 384 249 A 8 8 0 0 1 376 241 L 376 98" stroke-miterlimit="10"></path></g><g transform="translate(-22,-38) scale(1,1)"><path fill="#FFFFFF" stroke="none" d="M 384.419035512032 118.32534971524831 L 376 98 L 367.580964487968 118.32534971524831"></path></g><g transform="translate(-22,-38) scale(1,1)"><path fill="none" stroke="#000000" d="M 384.419035512032 118.32534971524831 L 376 98 L 367.580964487968 118.32534971524831 L 384.419035512032 118.32534971524831" stroke-miterlimit="10"></path></g><g transform="translate(-22,-38) scale(1,1)"><path fill="none" stroke="#000000" d="M 217 297 L 272 297 M 272 297 A 8 8 0 0 0 280 289 L 280 98" stroke-miterlimit="10"></path></g><g transform="translate(-22,-38) scale(1,1)"><path fill="#FFFFFF" stroke="none" d="M 288.419035512032 118.32534971524831 L 280 98 L 271.580964487968 118.32534971524831"></path></g><g transform="translate(-22,-38) scale(1,1)"><path fill="none" stroke="#000000" d="M 288.419035512032 118.32534971524831 L 280 98 L 271.580964487968 118.32534971524831 L 288.419035512032 118.32534971524831" stroke-miterlimit="10"></path></g><g transform="translate(-22,-38) scale(1,1)"><path fill="none" stroke="#000000" d="M 416 305 L 360 305 M 360 305 A 8 8 0 0 1 352 297 L 352 98" stroke-miterlimit="10"></path></g><g transform="translate(-22,-38) scale(1,1)"><path fill="#FFFFFF" stroke="none" d="M 360.419035512032 118.32534971524831 L 352 98 L 343.580964487968 118.32534971524831"></path></g><g transform="translate(-22,-38) scale(1,1)"><path fill="none" stroke="#000000" d="M 360.419035512032 118.32534971524831 L 352 98 L 343.580964487968 118.32534971524831 L 360.419035512032 118.32534971524831" stroke-miterlimit="10"></path></g><g transform="translate(-22,-38) scale(1,1)"><path fill="none" stroke="#000000" d="M 217 361 L 296 361 M 296 361 A 8 8 0 0 0 304 353 L 304 98" stroke-miterlimit="10"></path></g><g transform="translate(-22,-38) scale(1,1)"><path fill="#FFFFFF" stroke="none" d="M 312.419035512032 118.32534971524831 L 304 98 L 295.580964487968 118.32534971524831"></path></g><g transform="translate(-22,-38) scale(1,1)"><path fill="none" stroke="#000000" d="M 312.419035512032 118.32534971524831 L 304 98 L 295.580964487968 118.32534971524831 L 312.419035512032 118.32534971524831" stroke-miterlimit="10"></path></g><g transform="translate(-22,-38) scale(1,1)"><path fill="none" stroke="#000000" d="M 416 360 L 336 360 M 336 360 A 8 8 0 0 1 328 352 L 328 98" stroke-miterlimit="10"></path></g><g transform="translate(-22,-38) scale(1,1)"><path fill="#FFFFFF" stroke="none" d="M 336.419035512032 118.32534971524831 L 328 98 L 319.580964487968 118.32534971524831"></path></g><g transform="translate(-22,-38) scale(1,1)"><path fill="none" stroke="#000000" d="M 336.419035512032 118.32534971524831 L 328 98 L 319.580964487968 118.32534971524831 L 336.419035512032 118.32534971524831" stroke-miterlimit="10"></path></g><g transform="translate(-22,-38) scale(1,1)"><path fill="#ffffff" stroke="none" d="M 664 344 L 751.4853515625 344 L 761.4853515625 354 L 761.4853515625 393 L 664 393 L 664 344"></path></g><g transform="translate(-22,-38) scale(1,1)"><path fill="none" stroke="#000000" d="M 664 344 L 751.4853515625 344 L 761.4853515625 354 L 761.4853515625 393 L 664 393 L 664 344 L 664 344" stroke-miterlimit="10"></path></g><g transform="translate(-22,-38) scale(1,1)"><path fill="none" stroke="#000000" d="M 751.4853515625 344 L 751.4853515625 354 L 761.4853515625 354 L 751.4853515625 344" stroke-miterlimit="10"></path></g><g transform="translate(-22,-38) scale(1,1)"><g><path fill="none" stroke="none"></path><text fill="#000000" stroke="none" font-family="Arial" font-size="13px" font-style="normal" font-weight="normal" text-decoration="none" x="669" y="362">Implica dos o</text><text fill="#000000" stroke="none" font-family="Arial" font-size="13px" font-style="normal" font-weight="normal" text-decoration="none" x="669" y="375">más áreas de</text><text fill="#000000" stroke="none" font-family="Arial" font-size="13px" font-style="normal" font-weight="normal" text-decoration="none" x="669" y="388">conocimiento</text></g></g><g transform="translate(-22,-38) scale(1,1)"><path fill="none" stroke="#000000" d="M 663 369 L 602 369" stroke-miterlimit="10" stroke-dasharray="3"></path></g><g transform="translate(-22,-38) scale(1,1)"><rect fill="#C0C0C0" stroke="none" x="471" y="55" width="71" height="48" opacity="0.2"></rect></g><g transform="translate(-22,-38) scale(1,1)"><rect fill="#ffffff" stroke="none" x="464" y="48" width="71" height="48"></rect></g><g transform="translate(-22,-38) scale(1,1)"><path fill="none" stroke="#000000" d="M 464 48 L 535 48 L 535 96 L 464 96 L 464 48 Z Z" stroke-miterlimit="10"></path></g><g transform="translate(-22,-38) scale(1,1)"><g><path fill="none" stroke="none"></path><text fill="#000000" stroke="none" font-family="Arial" font-size="13px" font-style="normal" font-weight="bold" text-decoration="none" x="471.5" y="67.5">Disciplina</text></g></g><g transform="translate(-22,-38) scale(1,1)"><rect fill="#C0C0C0" stroke="none" x="591" y="55" width="95" height="48" opacity="0.2"></rect></g><g transform="translate(-22,-38) scale(1,1)"><rect fill="#ffffff" stroke="none" x="584" y="48" width="95" height="48"></rect></g><g transform="translate(-22,-38) scale(1,1)"><path fill="none" stroke="#000000" d="M 584 48 L 679 48 L 679 96 L 584 96 L 584 48 Z Z" stroke-miterlimit="10"></path></g><g transform="translate(-22,-38) scale(1,1)"><g><path fill="none" stroke="none"></path><text fill="#000000" stroke="none" font-family="Arial" font-size="13px" font-style="normal" font-weight="bold" text-decoration="none" x="593" y="67.5">Subdisciplina</text></g></g><g transform="translate(-22,-38) scale(1,1)"><path fill="none" stroke="#000000" d="M 463 72 L 417 72" stroke-miterlimit="10"></path></g><g transform="translate(-22,-38) scale(1,1)"><path fill="#000000" stroke="none" d="M 427.16267485762415 67.79048224398402 L 417 72 L 427.16267485762415 76.20951775601598 L 439 72"></path></g><g transform="translate(-22,-38) scale(1,1)"><path fill="none" stroke="#000000" d="M 427.16267485762415 67.79048224398402 L 417 72 L 427.16267485762415 76.20951775601598 L 439 72 L 427.16267485762415 67.79048224398402" stroke-miterlimit="10"></path></g><g transform="translate(-22,-38) scale(1,1)"><g><path fill="none" stroke="none"></path><text fill="#000000" stroke="none" font-family="Arial" font-size="13px" font-style="normal" font-weight="normal" text-decoration="none" x="438.5" y="64.5">1..*</text></g></g><g transform="translate(-22,-38) scale(1,1)"><path fill="none" stroke="#000000" d="M 583 72 L 536 72" stroke-miterlimit="10"></path></g><g transform="translate(-22,-38) scale(1,1)"><path fill="#000000" stroke="none" d="M 546.1626748576241 67.79048224398402 L 536 72 L 546.1626748576241 76.20951775601598 L 558 72"></path></g><g transform="translate(-22,-38) scale(1,1)"><path fill="none" stroke="#000000" d="M 546.1626748576241 67.79048224398402 L 536 72 L 546.1626748576241 76.20951775601598 L 558 72 L 546.1626748576241 67.79048224398402" stroke-miterlimit="10"></path></g><g transform="translate(-22,-38) scale(1,1)"><g><path fill="none" stroke="none"></path><text fill="#000000" stroke="none" font-family="Arial" font-size="13px" font-style="normal" font-weight="normal" text-decoration="none" x="558.5" y="64.5">1..*</text></g></g><g transform="translate(-22,-38) scale(1,1)"><rect fill="#C0C0C0" stroke="none" x="735" y="55" width="89" height="48" opacity="0.2"></rect></g><g transform="translate(-22,-38) scale(1,1)"><rect fill="#ffffff" stroke="none" x="728" y="48" width="89" height="48"></rect></g><g transform="translate(-22,-38) scale(1,1)"><path fill="none" stroke="#000000" d="M 728 48 L 817 48 L 817 96 L 728 96 L 728 48 Z Z" stroke-miterlimit="10"></path></g><g transform="translate(-22,-38) scale(1,1)"><g><path fill="none" stroke="none"></path><text fill="#000000" stroke="none" font-family="Arial" font-size="13px" font-style="normal" font-weight="bold" text-decoration="none" x="735.5" y="67.5">Especialidad</text></g></g><g transform="translate(-22,-38) scale(1,1)"><path fill="none" stroke="#000000" d="M 727 72 L 680 72" stroke-miterlimit="10"></path></g><g transform="translate(-22,-38) scale(1,1)"><path fill="#000000" stroke="none" d="M 690.1626748576241 67.79048224398402 L 680 72 L 690.1626748576241 76.20951775601598 L 702 72"></path></g><g transform="translate(-22,-38) scale(1,1)"><path fill="none" stroke="#000000" d="M 690.1626748576241 67.79048224398402 L 680 72 L 690.1626748576241 76.20951775601598 L 702 72 L 690.1626748576241 67.79048224398402" stroke-miterlimit="10"></path></g><g transform="translate(-22,-38) scale(1,1)"><g><path fill="none" stroke="none"></path><text fill="#000000" stroke="none" font-family="Arial" font-size="13px" font-style="normal" font-weight="normal" text-decoration="none" x="702.5" y="64.5">1..*</text></g></g></g></svg>