<svg version="1.1" xmlns="http://www.w3.org/2000/svg" xmlns:xlink="http://www.w3.org/1999/xlink" width="284" height="168"><defs></defs><g><g transform="translate(-18,-18) scale(1,1)"><rect fill="#C0C0C0" stroke="none" x="219" y="91" width="80" height="36" opacity="0.2"></rect></g><g transform="translate(-18,-18) scale(1,1)"><rect fill="#ffffff" stroke="none" x="212" y="84" width="80" height="36"></rect></g><g transform="translate(-18,-18) scale(1,1)"><path fill="none" stroke="#000000" d="M 212 84 L 292 84 L 292 120 L 212 120 L 212 84 Z Z" stroke-miterlimit="10"></path></g><g transform="translate(-18,-18) scale(1,1)"><g><path fill="none" stroke="none"></path><text fill="#000000" stroke="none" font-family="Arial" font-size="12px" font-style="normal" font-weight="normal" text-decoration="none" x="216.5" y="100.5">«stereotype»</text></g></g><g transform="translate(-18,-18) scale(1,1)"><g><path fill="none" stroke="none"></path><text fill="#000000" stroke="none" font-family="Arial" font-size="12px" font-style="normal" font-weight="bold" text-decoration="none" x="237.5" y="114.5">entity</text></g></g><g transform="translate(-18,-18) scale(1,1)"><rect fill="#C0C0C0" stroke="none" x="35" y="35" width="88" height="148" opacity="0.2"></rect></g><g transform="translate(-18,-18) scale(1,1)"><rect fill="#e2e2e2" stroke="none" x="28" y="28" width="88" height="148"></rect></g><g transform="translate(-18,-18) scale(1,1)"><path fill="none" stroke="#000000" d="M 28 28 L 116 28 L 116 176 L 28 176 L 28 28 Z Z" stroke-miterlimit="10"></path></g><g transform="translate(-18,-18) scale(1,1)"><g><path fill="none" stroke="none"></path><text fill="#000000" stroke="none" font-family="Arial" font-size="12px" font-style="normal" font-weight="normal" text-decoration="none" x="36" y="44.5">«metaClass»</text></g></g><g transform="translate(-18,-18) scale(1,1)"><g><path fill="none" stroke="none"></path><text fill="#000000" stroke="none" font-family="Arial" font-size="12px" font-style="normal" font-weight="bold" text-decoration="none" x="43.5" y="58.5">UMLClass</text></g></g><g transform="translate(-18,-18) scale(1,1)"><path fill="none" stroke="#000000" d="M 211 102 L 117 102" stroke-miterlimit="10"></path></g><g transform="translate(-18,-18) scale(1,1)"><path fill="#000000" stroke="none" d="M 127.16267485762415 97.79048224398402 L 117 102 L 127.16267485762415 106.20951775601598"></path></g><g transform="translate(-18,-18) scale(1,1)"><path fill="none" stroke="#000000" d="M 127.16267485762415 97.79048224398402 L 117 102 L 127.16267485762415 106.20951775601598 L 127.16267485762415 97.79048224398402" stroke-miterlimit="10"></path></g><g transform="translate(-18,-18) scale(1,1)"><rect fill="#C0C0C0" stroke="none" x="219" y="39" width="80" height="36" opacity="0.2"></rect></g><g transform="translate(-18,-18) scale(1,1)"><rect fill="#ffffff" stroke="none" x="212" y="32" width="80" height="36"></rect></g><g transform="translate(-18,-18) scale(1,1)"><path fill="none" stroke="#000000" d="M 212 32 L 292 32 L 292 68 L 212 68 L 212 32 Z Z" stroke-miterlimit="10"></path></g><g transform="translate(-18,-18) scale(1,1)"><g><path fill="none" stroke="none"></path><text fill="#000000" stroke="none" font-family="Arial" font-size="12px" font-style="normal" font-weight="normal" text-decoration="none" x="216.5" y="48.5">«stereotype»</text></g></g><g transform="translate(-18,-18) scale(1,1)"><g><path fill="none" stroke="none"></path><text fill="#000000" stroke="none" font-family="Arial" font-size="12px" font-style="normal" font-weight="bold" text-decoration="none" x="233.5" y="62.5">control</text></g></g><g transform="translate(-18,-18) scale(1,1)"><path fill="none" stroke="#000000" d="M 211 62 L 117 89" stroke-miterlimit="10"></path></g><g transform="translate(-18,-18) scale(1,1)"><path fill="#000000" stroke="none" d="M 125.60559731994137 82.14845311137566 L 117 89 L 127.92985148765518 90.24030095452746"></path></g><g transform="translate(-18,-18) scale(1,1)"><path fill="none" stroke="#000000" d="M 125.60559731994137 82.14845311137566 L 117 89 L 127.92985148765518 90.24030095452746 L 125.60559731994137 82.14845311137566" stroke-miterlimit="10"></path></g><g transform="translate(-18,-18) scale(1,1)"><rect fill="#C0C0C0" stroke="none" x="219" y="143" width="80" height="36" opacity="0.2"></rect></g><g transform="translate(-18,-18) scale(1,1)"><rect fill="#ffffff" stroke="none" x="212" y="136" width="80" height="36"></rect></g><g transform="translate(-18,-18) scale(1,1)"><path fill="none" stroke="#000000" d="M 212 136 L 292 136 L 292 172 L 212 172 L 212 136 Z Z" stroke-miterlimit="10"></path></g><g transform="translate(-18,-18) scale(1,1)"><g><path fill="none" stroke="none"></path><text fill="#000000" stroke="none" font-family="Arial" font-size="12px" font-style="normal" font-weight="normal" text-decoration="none" x="216.5" y="152.5">«stereotype»</text></g></g><g transform="translate(-18,-18) scale(1,1)"><g><path fill="none" stroke="none"></path><text fill="#000000" stroke="none" font-family="Arial" font-size="12px" font-style="normal" font-weight="bold" text-decoration="none" x="226" y="166.5">boundary</text></g></g><g transform="translate(-18,-18) scale(1,1)"><path fill="none" stroke="#000000" d="M 211 142 L 117 115" stroke-miterlimit="10"></path></g><g transform="translate(-18,-18) scale(1,1)"><path fill="#000000" stroke="none" d="M 127.92985148765518 113.75969904547254 L 117 115 L 125.60559731994137 121.85154688862434"></path></g><g transform="translate(-18,-18) scale(1,1)"><path fill="none" stroke="#000000" d="M 127.92985148765518 113.75969904547254 L 117 115 L 125.60559731994137 121.85154688862434 L 127.92985148765518 113.75969904547254" stroke-miterlimit="10"></path></g></g></svg>