<svg version="1.1" xmlns="http://www.w3.org/2000/svg" xmlns:xlink="http://www.w3.org/1999/xlink" width="493" height="300"><defs/><g><text fill="#eeeeee" stroke="none" font-family="Arial" font-size="24px" font-style="normal" font-weight="normal" text-decoration="none" x="0" y="0">UNREGISTERED</text><text fill="#eeeeee" stroke="none" font-family="Arial" font-size="24px" font-style="normal" font-weight="normal" text-decoration="none" x="0" y="30">UNREGISTERED</text><text fill="#eeeeee" stroke="none" font-family="Arial" font-size="24px" font-style="normal" font-weight="normal" text-decoration="none" x="0" y="60">UNREGISTERED</text><text fill="#eeeeee" stroke="none" font-family="Arial" font-size="24px" font-style="normal" font-weight="normal" text-decoration="none" x="0" y="90">UNREGISTERED</text><text fill="#eeeeee" stroke="none" font-family="Arial" font-size="24px" font-style="normal" font-weight="normal" text-decoration="none" x="0" y="120">UNREGISTERED</text><text fill="#eeeeee" stroke="none" font-family="Arial" font-size="24px" font-style="normal" font-weight="normal" text-decoration="none" x="0" y="150">UNREGISTERED</text><text fill="#eeeeee" stroke="none" font-family="Arial" font-size="24px" font-style="normal" font-weight="normal" text-decoration="none" x="0" y="180">UNREGISTERED</text><text fill="#eeeeee" stroke="none" font-family="Arial" font-size="24px" font-style="normal" font-weight="normal" text-decoration="none" x="0" y="210">UNREGISTERED</text><text fill="#eeeeee" stroke="none" font-family="Arial" font-size="24px" font-style="normal" font-weight="normal" text-decoration="none" x="0" y="240">UNREGISTERED</text><text fill="#eeeeee" stroke="none" font-family="Arial" font-size="24px" font-style="normal" font-weight="normal" text-decoration="none" x="0" y="270">UNREGISTERED</text><text fill="#eeeeee" stroke="none" font-family="Arial" font-size="24px" font-style="normal" font-weight="normal" text-decoration="none" x="200" y="0">UNREGISTERED</text><text fill="#eeeeee" stroke="none" font-family="Arial" font-size="24px" font-style="normal" font-weight="normal" text-decoration="none" x="200" y="30">UNREGISTERED</text><text fill="#eeeeee" stroke="none" font-family="Arial" font-size="24px" font-style="normal" font-weight="normal" text-decoration="none" x="200" y="60">UNREGISTERED</text><text fill="#eeeeee" stroke="none" font-family="Arial" font-size="24px" font-style="normal" font-weight="normal" text-decoration="none" x="200" y="90">UNREGISTERED</text><text fill="#eeeeee" stroke="none" font-family="Arial" font-size="24px" font-style="normal" font-weight="normal" text-decoration="none" x="200" y="120">UNREGISTERED</text><text fill="#eeeeee" stroke="none" font-family="Arial" font-size="24px" font-style="normal" font-weight="normal" text-decoration="none" x="200" y="150">UNREGISTERED</text><text fill="#eeeeee" stroke="none" font-family="Arial" font-size="24px" font-style="normal" font-weight="normal" text-decoration="none" x="200" y="180">UNREGISTERED</text><text fill="#eeeeee" stroke="none" font-family="Arial" font-size="24px" font-style="normal" font-weight="normal" text-decoration="none" x="200" y="210">UNREGISTERED</text><text fill="#eeeeee" stroke="none" font-family="Arial" font-size="24px" font-style="normal" font-weight="normal" text-decoration="none" x="200" y="240">UNREGISTERED</text><text fill="#eeeeee" stroke="none" font-family="Arial" font-size="24px" font-style="normal" font-weight="normal" text-decoration="none" x="200" y="270">UNREGISTERED</text><text fill="#eeeeee" stroke="none" font-family="Arial" font-size="24px" font-style="normal" font-weight="normal" text-decoration="none" x="400" y="0">UNREGISTERED</text><text fill="#eeeeee" stroke="none" font-family="Arial" font-size="24px" font-style="normal" font-weight="normal" text-decoration="none" x="400" y="30">UNREGISTERED</text><text fill="#eeeeee" stroke="none" font-family="Arial" font-size="24px" font-style="normal" font-weight="normal" text-decoration="none" x="400" y="60">UNREGISTERED</text><text fill="#eeeeee" stroke="none" font-family="Arial" font-size="24px" font-style="normal" font-weight="normal" text-decoration="none" x="400" y="90">UNREGISTERED</text><text fill="#eeeeee" stroke="none" font-family="Arial" font-size="24px" font-style="normal" font-weight="normal" text-decoration="none" x="400" y="120">UNREGISTERED</text><text fill="#eeeeee" stroke="none" font-family="Arial" font-size="24px" font-style="normal" font-weight="normal" text-decoration="none" x="400" y="150">UNREGISTERED</text><text fill="#eeeeee" stroke="none" font-family="Arial" font-size="24px" font-style="normal" font-weight="normal" text-decoration="none" x="400" y="180">UNREGISTERED</text><text fill="#eeeeee" stroke="none" font-family="Arial" font-size="24px" font-style="normal" font-weight="normal" text-decoration="none" x="400" y="210">UNREGISTERED</text><text fill="#eeeeee" stroke="none" font-family="Arial" font-size="24px" font-style="normal" font-weight="normal" text-decoration="none" x="400" y="240">UNREGISTERED</text><text fill="#eeeeee" stroke="none" font-family="Arial" font-size="24px" font-style="normal" font-weight="normal" text-decoration="none" x="400" y="270">UNREGISTERED</text><g transform="translate(-126,-54) scale(1,1)"><rect fill="#C0C0C0" stroke="none" x="287" y="143" width="96" height="72" opacity="0.2"/></g><g transform="translate(-126,-54) scale(1,1)"><rect fill="#ffffff" stroke="none" x="280" y="136" width="96" height="72"/></g><g transform="translate(-126,-54) scale(1,1)"><path fill="none" stroke="#000000" d="M 280 136 L 376 136 L 376 208 L 280 208 L 280 136 Z Z" stroke-miterlimit="10"/></g><g transform="translate(-126,-54) scale(1,1)"><g><path fill="none" stroke="none"/><text fill="#000000" stroke="none" font-family="Arial" font-size="13px" font-style="normal" font-weight="bold" text-decoration="none" x="303.431396484375" y="155.5">Solicitud</text></g></g><g transform="translate(-126,-54) scale(1,1)"><rect fill="#C0C0C0" stroke="none" x="439" y="71" width="123.53076171875" height="73" opacity="0.2"/></g><g transform="translate(-126,-54) scale(1,1)"><rect fill="#ffffff" stroke="none" x="432" y="64" width="123.53076171875" height="73"/></g><g transform="translate(-126,-54) scale(1,1)"><path fill="none" stroke="#000000" d="M 432 64 L 555.53076171875 64 L 555.53076171875 137 L 432 137 L 432 64 Z Z" stroke-miterlimit="10"/></g><g transform="translate(-126,-54) scale(1,1)"><path fill="none" stroke="#000000" d="M 432 115 L 555.53076171875 115" stroke-miterlimit="10"/></g><g transform="translate(-126,-54) scale(1,1)"><g><path fill="none" stroke="none"/><text fill="#000000" stroke="none" font-family="Arial" font-size="13px" font-style="normal" font-weight="normal" text-decoration="none" x="460.516357421875" y="81.5">«Catálogo»</text></g></g><g transform="translate(-126,-54) scale(1,1)"><g><path fill="none" stroke="none"/><text fill="#000000" stroke="none" font-family="Arial" font-size="13px" font-style="normal" font-weight="bold" text-decoration="none" x="463.4140625" y="96.5">Fase de la</text><text fill="#000000" stroke="none" font-family="Arial" font-size="13px" font-style="normal" font-weight="bold" text-decoration="none" x="469.19677734375" y="109.5">Solicitud</text></g></g><g transform="translate(-126,-54) scale(1,1)"><g><path fill="none" stroke="none"/><text fill="#000000" stroke="none" font-family="Arial" font-size="13px" font-style="normal" font-weight="normal" text-decoration="none" x="437" y="132.5">+descripción: String</text></g></g><g transform="translate(-126,-54) scale(1,1)"><rect fill="#C0C0C0" stroke="none" x="439" y="199" width="123.53076171875" height="73" opacity="0.2"/></g><g transform="translate(-126,-54) scale(1,1)"><rect fill="#ffffff" stroke="none" x="432" y="192" width="123.53076171875" height="73"/></g><g transform="translate(-126,-54) scale(1,1)"><path fill="none" stroke="#000000" d="M 432 192 L 555.53076171875 192 L 555.53076171875 265 L 432 265 L 432 192 Z Z" stroke-miterlimit="10"/></g><g transform="translate(-126,-54) scale(1,1)"><path fill="none" stroke="#000000" d="M 432 243 L 555.53076171875 243" stroke-miterlimit="10"/></g><g transform="translate(-126,-54) scale(1,1)"><g><path fill="none" stroke="none"/><text fill="#000000" stroke="none" font-family="Arial" font-size="13px" font-style="normal" font-weight="normal" text-decoration="none" x="460.516357421875" y="209.5">«Catálogo»</text></g></g><g transform="translate(-126,-54) scale(1,1)"><g><path fill="none" stroke="none"/><text fill="#000000" stroke="none" font-family="Arial" font-size="13px" font-style="normal" font-weight="bold" text-decoration="none" x="457.628173828125" y="224.5">Estado de la</text><text fill="#000000" stroke="none" font-family="Arial" font-size="13px" font-style="normal" font-weight="bold" text-decoration="none" x="469.19677734375" y="237.5">Solicitud</text></g></g><g transform="translate(-126,-54) scale(1,1)"><g><path fill="none" stroke="none"/><text fill="#000000" stroke="none" font-family="Arial" font-size="13px" font-style="normal" font-weight="normal" text-decoration="none" x="437" y="260.5">+descripción: String</text></g></g><g transform="translate(-126,-54) scale(1,1)"><rect fill="#C0C0C0" stroke="none" x="143" y="151" width="113.41259765625" height="77" opacity="0.2"/></g><g transform="translate(-126,-54) scale(1,1)"><rect fill="#ffffff" stroke="none" x="136" y="144" width="113.41259765625" height="77"/></g><g transform="translate(-126,-54) scale(1,1)"><path fill="none" stroke="#000000" d="M 136 144 L 249.41259765625 144 L 249.41259765625 221 L 136 221 L 136 144 Z Z" stroke-miterlimit="10"/></g><g transform="translate(-126,-54) scale(1,1)"><path fill="none" stroke="#000000" d="M 136 169 L 249.41259765625 169" stroke-miterlimit="10"/></g><g transform="translate(-126,-54) scale(1,1)"><g><path fill="none" stroke="none"/><text fill="#000000" stroke="none" font-family="Arial" font-size="13px" font-style="normal" font-weight="bold" text-decoration="none" x="154.40771484375" y="163.5">Convocatoria</text></g></g><g transform="translate(-126,-54) scale(1,1)"><g><path fill="none" stroke="none"/><text fill="#000000" stroke="none" font-family="Arial" font-size="13px" font-style="normal" font-weight="normal" text-decoration="none" x="141" y="186.5">+clave: String</text></g></g><g transform="translate(-126,-54) scale(1,1)"><g><path fill="none" stroke="none"/><text fill="#000000" stroke="none" font-family="Arial" font-size="13px" font-style="normal" font-weight="normal" text-decoration="none" x="141" y="201.5">+nombre: String</text></g></g><g transform="translate(-126,-54) scale(1,1)"><g><path fill="none" stroke="none"/><text fill="#000000" stroke="none" font-family="Arial" font-size="13px" font-style="normal" font-weight="normal" text-decoration="none" x="141" y="216.5">+añoFiscal: String</text></g></g><g transform="translate(-126,-54) scale(1,1)"><path fill="none" stroke="#000000" d="M 249 168 L 280 168" stroke-miterlimit="10"/></g><g transform="translate(-126,-54) scale(1,1)"><path fill="none" stroke="#000000" d="M 269.83732514237585 172.209517756016 L 280 168 L 269.83732514237585 163.790482243984" stroke-miterlimit="10"/></g><g transform="translate(-126,-54) scale(1,1)"><g><path fill="none" stroke="none"/><text fill="#000000" stroke="none" font-family="Arial" font-size="13px" font-style="normal" font-weight="normal" text-decoration="none" x="248.5" y="186.5">1..*</text></g></g><g transform="translate(-126,-54) scale(1,1)"><path fill="none" stroke="#000000" d="M 343 136 L 343 104 M 343 104 A 8 8 0 0 1 351 96 L 432 96" stroke-miterlimit="10"/></g><g transform="translate(-126,-54) scale(1,1)"><path fill="none" stroke="#000000" d="M 421.83732514237585 100.20951775601598 L 432 96 L 421.83732514237585 91.79048224398402" stroke-miterlimit="10"/></g><g transform="translate(-126,-54) scale(1,1)"><g><path fill="none" stroke="none"/><text fill="#000000" stroke="none" font-family="Arial" font-size="13px" font-style="normal" font-weight="normal" text-decoration="none" x="342.5" y="92.5">+está en</text></g></g><g transform="translate(-126,-54) scale(1,1)"><g><path fill="none" stroke="none"/><text fill="#000000" stroke="none" font-family="Arial" font-size="13px" font-style="normal" font-weight="normal" text-decoration="none" x="345.5" y="120.5">1..*</text></g></g><g transform="translate(-126,-54) scale(1,1)"><g><path fill="none" stroke="none"/><text fill="#000000" stroke="none" font-family="Arial" font-size="13px" font-style="normal" font-weight="normal" text-decoration="none" x="406.5" y="114.5">1</text></g></g><g transform="translate(-126,-54) scale(1,1)"><path fill="none" stroke="#000000" d="M 343 208 L 343 224 M 343 224 A 8 8 0 0 0 351 232 L 432 232" stroke-miterlimit="10"/></g><g transform="translate(-126,-54) scale(1,1)"><path fill="none" stroke="#000000" d="M 421.83732514237585 236.209517756016 L 432 232 L 421.83732514237585 227.790482243984" stroke-miterlimit="10"/></g><g transform="translate(-126,-54) scale(1,1)"><g><path fill="none" stroke="none"/><text fill="#000000" stroke="none" font-family="Arial" font-size="13px" font-style="normal" font-weight="normal" text-decoration="none" x="350.5" y="251.5">+está en</text></g></g><g transform="translate(-126,-54) scale(1,1)"><g><path fill="none" stroke="none"/><text fill="#000000" stroke="none" font-family="Arial" font-size="13px" font-style="normal" font-weight="normal" text-decoration="none" x="350.5" y="228.5">1..*</text></g></g><g transform="translate(-126,-54) scale(1,1)"><g><path fill="none" stroke="none"/><text fill="#000000" stroke="none" font-family="Arial" font-size="13px" font-style="normal" font-weight="normal" text-decoration="none" x="406.5" y="250.5">1</text></g></g><g transform="translate(-126,-54) scale(1,1)"><path fill="none" stroke="#000000" d="M 556 120 L 600 120 M 600 120 A 8 8 0 0 1 608 128 L 608 216 M 608 216 A 8 8 0 0 1 600 224 L 556 224" stroke-miterlimit="10"/></g><g transform="translate(-126,-54) scale(1,1)"><g><path fill="none" stroke="none"/><text fill="#000000" stroke="none" font-family="Arial" font-size="13px" font-style="normal" font-weight="normal" text-decoration="none" x="563.5" y="108.5">0..*</text></g></g><g transform="translate(-126,-54) scale(1,1)"><g><path fill="none" stroke="none"/><text fill="#000000" stroke="none" font-family="Arial" font-size="13px" font-style="normal" font-weight="normal" text-decoration="none" x="563.5" y="243.5">0..*</text></g></g><g transform="translate(-126,-54) scale(1,1)"><rect fill="#C0C0C0" stroke="none" x="143" y="295" width="120.9853515625" height="56" opacity="0.2"/></g><g transform="translate(-126,-54) scale(1,1)"><rect fill="#ffffff" stroke="none" x="136" y="288" width="120.9853515625" height="56"/></g><g transform="translate(-126,-54) scale(1,1)"><path fill="none" stroke="#000000" d="M 136 288 L 256.9853515625 288 L 256.9853515625 344 L 136 344 L 136 288 Z Z" stroke-miterlimit="10"/></g><g transform="translate(-126,-54) scale(1,1)"><g><path fill="none" stroke="none"/><text fill="#000000" stroke="none" font-family="Arial" font-size="13px" font-style="normal" font-weight="normal" text-decoration="none" x="163.24365234375" y="305.5">«Catálogo»</text></g></g><g transform="translate(-126,-54) scale(1,1)"><g><path fill="none" stroke="none"/><text fill="#000000" stroke="none" font-family="Arial" font-size="13px" font-style="normal" font-weight="bold" text-decoration="none" x="166.5" y="320.5">Modalidad</text></g></g><g transform="translate(-126,-54) scale(1,1)"><g><path fill="none" stroke="none"/><text fill="#000000" stroke="none" font-family="Arial" font-size="13px" font-style="normal" font-weight="normal" text-decoration="none" x="140.5" y="335.5">(from Modalidades)</text></g></g><g transform="translate(-126,-54) scale(1,1)"><path fill="none" stroke="#000000" d="M 193 221 L 193 288" stroke-miterlimit="10"/></g><g transform="translate(-126,-54) scale(1,1)"><g><path fill="none" stroke="none"/><text fill="#000000" stroke="none" font-family="Arial" font-size="13px" font-style="normal" font-weight="normal" text-decoration="none" x="197.5" y="260.5">+define</text></g></g><g transform="translate(-126,-54) scale(1,1)"><g><path fill="none" stroke="none"/><text fill="#000000" stroke="none" font-family="Arial" font-size="13px" font-style="normal" font-weight="normal" text-decoration="none" x="167.5" y="244.5">1..*</text></g></g><g transform="translate(-126,-54) scale(1,1)"><g><path fill="none" stroke="none"/><text fill="#000000" stroke="none" font-family="Arial" font-size="13px" font-style="normal" font-weight="normal" text-decoration="none" x="167.5" y="275.5">1..*</text></g></g></g></svg>