<svg version="1.1" xmlns="http://www.w3.org/2000/svg" xmlns:xlink="http://www.w3.org/1999/xlink" width="797" height="463"><defs/><g><text fill="#eeeeee" stroke="none" font-family="Arial" font-size="24px" font-style="normal" font-weight="normal" text-decoration="none" x="0" y="0">UNREGISTERED</text><text fill="#eeeeee" stroke="none" font-family="Arial" font-size="24px" font-style="normal" font-weight="normal" text-decoration="none" x="0" y="30">UNREGISTERED</text><text fill="#eeeeee" stroke="none" font-family="Arial" font-size="24px" font-style="normal" font-weight="normal" text-decoration="none" x="0" y="60">UNREGISTERED</text><text fill="#eeeeee" stroke="none" font-family="Arial" font-size="24px" font-style="normal" font-weight="normal" text-decoration="none" x="0" y="90">UNREGISTERED</text><text fill="#eeeeee" stroke="none" font-family="Arial" font-size="24px" font-style="normal" font-weight="normal" text-decoration="none" x="0" y="120">UNREGISTERED</text><text fill="#eeeeee" stroke="none" font-family="Arial" font-size="24px" font-style="normal" font-weight="normal" text-decoration="none" x="0" y="150">UNREGISTERED</text><text fill="#eeeeee" stroke="none" font-family="Arial" font-size="24px" font-style="normal" font-weight="normal" text-decoration="none" x="0" y="180">UNREGISTERED</text><text fill="#eeeeee" stroke="none" font-family="Arial" font-size="24px" font-style="normal" font-weight="normal" text-decoration="none" x="0" y="210">UNREGISTERED</text><text fill="#eeeeee" stroke="none" font-family="Arial" font-size="24px" font-style="normal" font-weight="normal" text-decoration="none" x="0" y="240">UNREGISTERED</text><text fill="#eeeeee" stroke="none" font-family="Arial" font-size="24px" font-style="normal" font-weight="normal" text-decoration="none" x="0" y="270">UNREGISTERED</text><text fill="#eeeeee" stroke="none" font-family="Arial" font-size="24px" font-style="normal" font-weight="normal" text-decoration="none" x="0" y="300">UNREGISTERED</text><text fill="#eeeeee" stroke="none" font-family="Arial" font-size="24px" font-style="normal" font-weight="normal" text-decoration="none" x="0" y="330">UNREGISTERED</text><text fill="#eeeeee" stroke="none" font-family="Arial" font-size="24px" font-style="normal" font-weight="normal" text-decoration="none" x="0" y="360">UNREGISTERED</text><text fill="#eeeeee" stroke="none" font-family="Arial" font-size="24px" font-style="normal" font-weight="normal" text-decoration="none" x="0" y="390">UNREGISTERED</text><text fill="#eeeeee" stroke="none" font-family="Arial" font-size="24px" font-style="normal" font-weight="normal" text-decoration="none" x="0" y="420">UNREGISTERED</text><text fill="#eeeeee" stroke="none" font-family="Arial" font-size="24px" font-style="normal" font-weight="normal" text-decoration="none" x="0" y="450">UNREGISTERED</text><text fill="#eeeeee" stroke="none" font-family="Arial" font-size="24px" font-style="normal" font-weight="normal" text-decoration="none" x="200" y="0">UNREGISTERED</text><text fill="#eeeeee" stroke="none" font-family="Arial" font-size="24px" font-style="normal" font-weight="normal" text-decoration="none" x="200" y="30">UNREGISTERED</text><text fill="#eeeeee" stroke="none" font-family="Arial" font-size="24px" font-style="normal" font-weight="normal" text-decoration="none" x="200" y="60">UNREGISTERED</text><text fill="#eeeeee" stroke="none" font-family="Arial" font-size="24px" font-style="normal" font-weight="normal" text-decoration="none" x="200" y="90">UNREGISTERED</text><text fill="#eeeeee" stroke="none" font-family="Arial" font-size="24px" font-style="normal" font-weight="normal" text-decoration="none" x="200" y="120">UNREGISTERED</text><text fill="#eeeeee" stroke="none" font-family="Arial" font-size="24px" font-style="normal" font-weight="normal" text-decoration="none" x="200" y="150">UNREGISTERED</text><text fill="#eeeeee" stroke="none" font-family="Arial" font-size="24px" font-style="normal" font-weight="normal" text-decoration="none" x="200" y="180">UNREGISTERED</text><text fill="#eeeeee" stroke="none" font-family="Arial" font-size="24px" font-style="normal" font-weight="normal" text-decoration="none" x="200" y="210">UNREGISTERED</text><text fill="#eeeeee" stroke="none" font-family="Arial" font-size="24px" font-style="normal" font-weight="normal" text-decoration="none" x="200" y="240">UNREGISTERED</text><text fill="#eeeeee" stroke="none" font-family="Arial" font-size="24px" font-style="normal" font-weight="normal" text-decoration="none" x="200" y="270">UNREGISTERED</text><text fill="#eeeeee" stroke="none" font-family="Arial" font-size="24px" font-style="normal" font-weight="normal" text-decoration="none" x="200" y="300">UNREGISTERED</text><text fill="#eeeeee" stroke="none" font-family="Arial" font-size="24px" font-style="normal" font-weight="normal" text-decoration="none" x="200" y="330">UNREGISTERED</text><text fill="#eeeeee" stroke="none" font-family="Arial" font-size="24px" font-style="normal" font-weight="normal" text-decoration="none" x="200" y="360">UNREGISTERED</text><text fill="#eeeeee" stroke="none" font-family="Arial" font-size="24px" font-style="normal" font-weight="normal" text-decoration="none" x="200" y="390">UNREGISTERED</text><text fill="#eeeeee" stroke="none" font-family="Arial" font-size="24px" font-style="normal" font-weight="normal" text-decoration="none" x="200" y="420">UNREGISTERED</text><text fill="#eeeeee" stroke="none" font-family="Arial" font-size="24px" font-style="normal" font-weight="normal" text-decoration="none" x="200" y="450">UNREGISTERED</text><text fill="#eeeeee" stroke="none" font-family="Arial" font-size="24px" font-style="normal" font-weight="normal" text-decoration="none" x="400" y="0">UNREGISTERED</text><text fill="#eeeeee" stroke="none" font-family="Arial" font-size="24px" font-style="normal" font-weight="normal" text-decoration="none" x="400" y="30">UNREGISTERED</text><text fill="#eeeeee" stroke="none" font-family="Arial" font-size="24px" font-style="normal" font-weight="normal" text-decoration="none" x="400" y="60">UNREGISTERED</text><text fill="#eeeeee" stroke="none" font-family="Arial" font-size="24px" font-style="normal" font-weight="normal" text-decoration="none" x="400" y="90">UNREGISTERED</text><text fill="#eeeeee" stroke="none" font-family="Arial" font-size="24px" font-style="normal" font-weight="normal" text-decoration="none" x="400" y="120">UNREGISTERED</text><text fill="#eeeeee" stroke="none" font-family="Arial" font-size="24px" font-style="normal" font-weight="normal" text-decoration="none" x="400" y="150">UNREGISTERED</text><text fill="#eeeeee" stroke="none" font-family="Arial" font-size="24px" font-style="normal" font-weight="normal" text-decoration="none" x="400" y="180">UNREGISTERED</text><text fill="#eeeeee" stroke="none" font-family="Arial" font-size="24px" font-style="normal" font-weight="normal" text-decoration="none" x="400" y="210">UNREGISTERED</text><text fill="#eeeeee" stroke="none" font-family="Arial" font-size="24px" font-style="normal" font-weight="normal" text-decoration="none" x="400" y="240">UNREGISTERED</text><text fill="#eeeeee" stroke="none" font-family="Arial" font-size="24px" font-style="normal" font-weight="normal" text-decoration="none" x="400" y="270">UNREGISTERED</text><text fill="#eeeeee" stroke="none" font-family="Arial" font-size="24px" font-style="normal" font-weight="normal" text-decoration="none" x="400" y="300">UNREGISTERED</text><text fill="#eeeeee" stroke="none" font-family="Arial" font-size="24px" font-style="normal" font-weight="normal" text-decoration="none" x="400" y="330">UNREGISTERED</text><text fill="#eeeeee" stroke="none" font-family="Arial" font-size="24px" font-style="normal" font-weight="normal" text-decoration="none" x="400" y="360">UNREGISTERED</text><text fill="#eeeeee" stroke="none" font-family="Arial" font-size="24px" font-style="normal" font-weight="normal" text-decoration="none" x="400" y="390">UNREGISTERED</text><text fill="#eeeeee" stroke="none" font-family="Arial" font-size="24px" font-style="normal" font-weight="normal" text-decoration="none" x="400" y="420">UNREGISTERED</text><text fill="#eeeeee" stroke="none" font-family="Arial" font-size="24px" font-style="normal" font-weight="normal" text-decoration="none" x="400" y="450">UNREGISTERED</text><text fill="#eeeeee" stroke="none" font-family="Arial" font-size="24px" font-style="normal" font-weight="normal" text-decoration="none" x="600" y="0">UNREGISTERED</text><text fill="#eeeeee" stroke="none" font-family="Arial" font-size="24px" font-style="normal" font-weight="normal" text-decoration="none" x="600" y="30">UNREGISTERED</text><text fill="#eeeeee" stroke="none" font-family="Arial" font-size="24px" font-style="normal" font-weight="normal" text-decoration="none" x="600" y="60">UNREGISTERED</text><text fill="#eeeeee" stroke="none" font-family="Arial" font-size="24px" font-style="normal" font-weight="normal" text-decoration="none" x="600" y="90">UNREGISTERED</text><text fill="#eeeeee" stroke="none" font-family="Arial" font-size="24px" font-style="normal" font-weight="normal" text-decoration="none" x="600" y="120">UNREGISTERED</text><text fill="#eeeeee" stroke="none" font-family="Arial" font-size="24px" font-style="normal" font-weight="normal" text-decoration="none" x="600" y="150">UNREGISTERED</text><text fill="#eeeeee" stroke="none" font-family="Arial" font-size="24px" font-style="normal" font-weight="normal" text-decoration="none" x="600" y="180">UNREGISTERED</text><text fill="#eeeeee" stroke="none" font-family="Arial" font-size="24px" font-style="normal" font-weight="normal" text-decoration="none" x="600" y="210">UNREGISTERED</text><text fill="#eeeeee" stroke="none" font-family="Arial" font-size="24px" font-style="normal" font-weight="normal" text-decoration="none" x="600" y="240">UNREGISTERED</text><text fill="#eeeeee" stroke="none" font-family="Arial" font-size="24px" font-style="normal" font-weight="normal" text-decoration="none" x="600" y="270">UNREGISTERED</text><text fill="#eeeeee" stroke="none" font-family="Arial" font-size="24px" font-style="normal" font-weight="normal" text-decoration="none" x="600" y="300">UNREGISTERED</text><text fill="#eeeeee" stroke="none" font-family="Arial" font-size="24px" font-style="normal" font-weight="normal" text-decoration="none" x="600" y="330">UNREGISTERED</text><text fill="#eeeeee" stroke="none" font-family="Arial" font-size="24px" font-style="normal" font-weight="normal" text-decoration="none" x="600" y="360">UNREGISTERED</text><text fill="#eeeeee" stroke="none" font-family="Arial" font-size="24px" font-style="normal" font-weight="normal" text-decoration="none" x="600" y="390">UNREGISTERED</text><text fill="#eeeeee" stroke="none" font-family="Arial" font-size="24px" font-style="normal" font-weight="normal" text-decoration="none" x="600" y="420">UNREGISTERED</text><text fill="#eeeeee" stroke="none" font-family="Arial" font-size="24px" font-style="normal" font-weight="normal" text-decoration="none" x="600" y="450">UNREGISTERED</text><g transform="translate(-94,-142) scale(1,1)"><rect fill="#C0C0C0" stroke="none" x="471" y="319" width="174.12158203125" height="77" opacity="0.2"/></g><g transform="translate(-94,-142) scale(1,1)"><rect fill="#ffffff" stroke="none" x="464" y="312" width="174.12158203125" height="77"/></g><g transform="translate(-94,-142) scale(1,1)"><path fill="none" stroke="#000000" d="M 464 312 L 638.12158203125 312 L 638.12158203125 389 L 464 389 L 464 312 Z Z" stroke-miterlimit="10"/></g><g transform="translate(-94,-142) scale(1,1)"><path fill="none" stroke="#000000" d="M 464 337 L 638.12158203125 337" stroke-miterlimit="10"/></g><g transform="translate(-94,-142) scale(1,1)"><g><path fill="none" stroke="none"/><text fill="#000000" stroke="none" font-family="Arial" font-size="13px" font-style="normal" font-weight="bold" text-decoration="none" x="526.4921875" y="331.5">Solicitud</text></g></g><g transform="translate(-94,-142) scale(1,1)"><g><path fill="none" stroke="none"/><text fill="#000000" stroke="none" font-family="Arial" font-size="13px" font-style="normal" font-weight="normal" text-decoration="none" x="469" y="354.5">+convocatoria: Convocatoria</text></g></g><g transform="translate(-94,-142) scale(1,1)"><g><path fill="none" stroke="none"/><text fill="#000000" stroke="none" font-family="Arial" font-size="13px" font-style="normal" font-weight="normal" text-decoration="none" x="469" y="369.5">+fechaCreación: Date</text></g></g><g transform="translate(-94,-142) scale(1,1)"><g><path fill="none" stroke="none"/><text fill="#000000" stroke="none" font-family="Arial" font-size="13px" font-style="normal" font-weight="normal" text-decoration="none" x="469" y="384.5">+clave: String</text></g></g><g transform="translate(-94,-142) scale(1,1)"><rect fill="#C0C0C0" stroke="none" x="711" y="247" width="123.53076171875" height="73" opacity="0.2"/></g><g transform="translate(-94,-142) scale(1,1)"><rect fill="#ffffff" stroke="none" x="704" y="240" width="123.53076171875" height="73"/></g><g transform="translate(-94,-142) scale(1,1)"><path fill="none" stroke="#000000" d="M 704 240 L 827.53076171875 240 L 827.53076171875 313 L 704 313 L 704 240 Z Z" stroke-miterlimit="10"/></g><g transform="translate(-94,-142) scale(1,1)"><path fill="none" stroke="#000000" d="M 704 291 L 827.53076171875 291" stroke-miterlimit="10"/></g><g transform="translate(-94,-142) scale(1,1)"><g><path fill="none" stroke="none"/><text fill="#000000" stroke="none" font-family="Arial" font-size="13px" font-style="normal" font-weight="normal" text-decoration="none" x="732.516357421875" y="257.5">«Catálogo»</text></g></g><g transform="translate(-94,-142) scale(1,1)"><g><path fill="none" stroke="none"/><text fill="#000000" stroke="none" font-family="Arial" font-size="13px" font-style="normal" font-weight="bold" text-decoration="none" x="732.878173828125" y="272.5">Etapa de la</text><text fill="#000000" stroke="none" font-family="Arial" font-size="13px" font-style="normal" font-weight="bold" text-decoration="none" x="741.19677734375" y="285.5">Solicitud</text></g></g><g transform="translate(-94,-142) scale(1,1)"><g><path fill="none" stroke="none"/><text fill="#000000" stroke="none" font-family="Arial" font-size="13px" font-style="normal" font-weight="normal" text-decoration="none" x="709" y="308.5">+descripción: String</text></g></g><g transform="translate(-94,-142) scale(1,1)"><rect fill="#C0C0C0" stroke="none" x="711" y="375" width="123.53076171875" height="73" opacity="0.2"/></g><g transform="translate(-94,-142) scale(1,1)"><rect fill="#ffffff" stroke="none" x="704" y="368" width="123.53076171875" height="73"/></g><g transform="translate(-94,-142) scale(1,1)"><path fill="none" stroke="#000000" d="M 704 368 L 827.53076171875 368 L 827.53076171875 441 L 704 441 L 704 368 Z Z" stroke-miterlimit="10"/></g><g transform="translate(-94,-142) scale(1,1)"><path fill="none" stroke="#000000" d="M 704 419 L 827.53076171875 419" stroke-miterlimit="10"/></g><g transform="translate(-94,-142) scale(1,1)"><g><path fill="none" stroke="none"/><text fill="#000000" stroke="none" font-family="Arial" font-size="13px" font-style="normal" font-weight="normal" text-decoration="none" x="732.516357421875" y="385.5">«Catálogo»</text></g></g><g transform="translate(-94,-142) scale(1,1)"><g><path fill="none" stroke="none"/><text fill="#000000" stroke="none" font-family="Arial" font-size="13px" font-style="normal" font-weight="bold" text-decoration="none" x="729.628173828125" y="400.5">Estado de la</text><text fill="#000000" stroke="none" font-family="Arial" font-size="13px" font-style="normal" font-weight="bold" text-decoration="none" x="741.19677734375" y="413.5">Solicitud</text></g></g><g transform="translate(-94,-142) scale(1,1)"><g><path fill="none" stroke="none"/><text fill="#000000" stroke="none" font-family="Arial" font-size="13px" font-style="normal" font-weight="normal" text-decoration="none" x="709" y="436.5">+descripción: String</text></g></g><g transform="translate(-94,-142) scale(1,1)"><rect fill="#C0C0C0" stroke="none" x="287" y="279" width="135.1025390625" height="107" opacity="0.2"/></g><g transform="translate(-94,-142) scale(1,1)"><rect fill="#ffffff" stroke="none" x="280" y="272" width="135.1025390625" height="107"/></g><g transform="translate(-94,-142) scale(1,1)"><path fill="none" stroke="#000000" d="M 280 272 L 415.1025390625 272 L 415.1025390625 379 L 280 379 L 280 272 Z Z" stroke-miterlimit="10"/></g><g transform="translate(-94,-142) scale(1,1)"><path fill="none" stroke="#000000" d="M 280 297 L 415.1025390625 297" stroke-miterlimit="10"/></g><g transform="translate(-94,-142) scale(1,1)"><g><path fill="none" stroke="none"/><text fill="#000000" stroke="none" font-family="Arial" font-size="13px" font-style="normal" font-weight="bold" text-decoration="none" x="309.252685546875" y="291.5">Convocatoria</text></g></g><g transform="translate(-94,-142) scale(1,1)"><g><path fill="none" stroke="none"/><text fill="#000000" stroke="none" font-family="Arial" font-size="13px" font-style="normal" font-weight="normal" text-decoration="none" x="285" y="314.5">+clave: String</text></g></g><g transform="translate(-94,-142) scale(1,1)"><g><path fill="none" stroke="none"/><text fill="#000000" stroke="none" font-family="Arial" font-size="13px" font-style="normal" font-weight="normal" text-decoration="none" x="285" y="329.5">+nombre: String</text></g></g><g transform="translate(-94,-142) scale(1,1)"><g><path fill="none" stroke="none"/><text fill="#000000" stroke="none" font-family="Arial" font-size="13px" font-style="normal" font-weight="normal" text-decoration="none" x="285" y="344.5">+añoFiscal: String</text></g></g><g transform="translate(-94,-142) scale(1,1)"><g><path fill="none" stroke="none"/><text fill="#000000" stroke="none" font-family="Arial" font-size="13px" font-style="normal" font-weight="normal" text-decoration="none" x="285" y="359.5">+tipo</text></g></g><g transform="translate(-94,-142) scale(1,1)"><g><path fill="none" stroke="none"/><text fill="#000000" stroke="none" font-family="Arial" font-size="13px" font-style="normal" font-weight="normal" text-decoration="none" x="285" y="374.5">+fechaCreación: Date</text></g></g><g transform="translate(-94,-142) scale(1,1)"><path fill="none" stroke="#000000" d="M 415 328 L 464 328" stroke-miterlimit="10"/></g><g transform="translate(-94,-142) scale(1,1)"><path fill="none" stroke="#000000" d="M 453.83732514237585 332.209517756016 L 464 328 L 453.83732514237585 323.790482243984" stroke-miterlimit="10"/></g><g transform="translate(-94,-142) scale(1,1)"><g><path fill="none" stroke="none"/><text fill="#000000" stroke="none" font-family="Arial" font-size="13px" font-style="normal" font-weight="normal" text-decoration="none" x="432.5" y="346.5">1..*</text></g></g><g transform="translate(-94,-142) scale(1,1)"><path fill="none" stroke="#000000" d="M 615 312 L 615 280 M 615 280 A 8 8 0 0 1 623 272 L 704 272" stroke-miterlimit="10"/></g><g transform="translate(-94,-142) scale(1,1)"><path fill="none" stroke="#000000" d="M 693.8373251423759 276.209517756016 L 704 272 L 693.8373251423758 267.790482243984" stroke-miterlimit="10"/></g><g transform="translate(-94,-142) scale(1,1)"><g><path fill="none" stroke="none"/><text fill="#000000" stroke="none" font-family="Arial" font-size="13px" font-style="normal" font-weight="normal" text-decoration="none" x="614.5" y="268.5">+está en</text></g></g><g transform="translate(-94,-142) scale(1,1)"><g><path fill="none" stroke="none"/><text fill="#000000" stroke="none" font-family="Arial" font-size="13px" font-style="normal" font-weight="normal" text-decoration="none" x="617.5" y="296.5">1..*</text></g></g><g transform="translate(-94,-142) scale(1,1)"><g><path fill="none" stroke="none"/><text fill="#000000" stroke="none" font-family="Arial" font-size="13px" font-style="normal" font-weight="normal" text-decoration="none" x="678.5" y="290.5">1</text></g></g><g transform="translate(-94,-142) scale(1,1)"><path fill="none" stroke="#000000" d="M 615 389 L 615 400 M 615 400 A 8 8 0 0 0 623 408 L 704 408" stroke-miterlimit="10"/></g><g transform="translate(-94,-142) scale(1,1)"><path fill="none" stroke="#000000" d="M 693.8373251423759 412.209517756016 L 704 408 L 693.8373251423758 403.790482243984" stroke-miterlimit="10"/></g><g transform="translate(-94,-142) scale(1,1)"><g><path fill="none" stroke="none"/><text fill="#000000" stroke="none" font-family="Arial" font-size="13px" font-style="normal" font-weight="normal" text-decoration="none" x="622.5" y="427.5">+está en</text></g></g><g transform="translate(-94,-142) scale(1,1)"><g><path fill="none" stroke="none"/><text fill="#000000" stroke="none" font-family="Arial" font-size="13px" font-style="normal" font-weight="normal" text-decoration="none" x="622.5" y="409.5">1..*</text></g></g><g transform="translate(-94,-142) scale(1,1)"><g><path fill="none" stroke="none"/><text fill="#000000" stroke="none" font-family="Arial" font-size="13px" font-style="normal" font-weight="normal" text-decoration="none" x="678.5" y="426.5">1</text></g></g><g transform="translate(-94,-142) scale(1,1)"><path fill="none" stroke="#000000" d="M 828 296 L 872 296 M 872 296 A 8 8 0 0 1 880 304 L 880 392 M 880 392 A 8 8 0 0 1 872 400 L 828 400" stroke-miterlimit="10"/></g><g transform="translate(-94,-142) scale(1,1)"><g><path fill="none" stroke="none"/><text fill="#000000" stroke="none" font-family="Arial" font-size="13px" font-style="normal" font-weight="normal" text-decoration="none" x="835.5" y="284.5">0..*</text></g></g><g transform="translate(-94,-142) scale(1,1)"><g><path fill="none" stroke="none"/><text fill="#000000" stroke="none" font-family="Arial" font-size="13px" font-style="normal" font-weight="normal" text-decoration="none" x="835.5" y="419.5">0..*</text></g></g><g transform="translate(-94,-142) scale(1,1)"><rect fill="#C0C0C0" stroke="none" x="295" y="159" width="120.9853515625" height="56" opacity="0.2"/></g><g transform="translate(-94,-142) scale(1,1)"><rect fill="#ffffff" stroke="none" x="288" y="152" width="120.9853515625" height="56"/></g><g transform="translate(-94,-142) scale(1,1)"><path fill="none" stroke="#000000" d="M 288 152 L 408.9853515625 152 L 408.9853515625 208 L 288 208 L 288 152 Z Z" stroke-miterlimit="10"/></g><g transform="translate(-94,-142) scale(1,1)"><g><path fill="none" stroke="none"/><text fill="#000000" stroke="none" font-family="Arial" font-size="13px" font-style="normal" font-weight="normal" text-decoration="none" x="314.1708984375" y="169.5">«Dinámico»</text></g></g><g transform="translate(-94,-142) scale(1,1)"><g><path fill="none" stroke="none"/><text fill="#000000" stroke="none" font-family="Arial" font-size="13px" font-style="normal" font-weight="bold" text-decoration="none" x="318.5" y="184.5">Modalidad</text></g></g><g transform="translate(-94,-142) scale(1,1)"><g><path fill="none" stroke="none"/><text fill="#000000" stroke="none" font-family="Arial" font-size="13px" font-style="normal" font-weight="normal" text-decoration="none" x="292.5" y="199.5">(from Modalidades)</text></g></g><g transform="translate(-94,-142) scale(1,1)"><path fill="none" stroke="#000000" d="M 344 272 L 344 208" stroke-miterlimit="10"/></g><g transform="translate(-94,-142) scale(1,1)"><g><path fill="none" stroke="none"/><text fill="#000000" stroke="none" font-family="Arial" font-size="13px" font-style="normal" font-weight="normal" text-decoration="none" x="295.5" y="245.5">+define</text></g></g><g transform="translate(-94,-142) scale(1,1)"><g><path fill="none" stroke="none"/><text fill="#000000" stroke="none" font-family="Arial" font-size="13px" font-style="normal" font-weight="normal" text-decoration="none" x="355.641357421875" y="260.5">1</text></g></g><g transform="translate(-94,-142) scale(1,1)"><g><path fill="none" stroke="none"/><text fill="#000000" stroke="none" font-family="Arial" font-size="13px" font-style="normal" font-weight="normal" text-decoration="none" x="349.5" y="232.5">1..*</text></g></g><g transform="translate(-94,-142) scale(1,1)"><rect fill="#C0C0C0" stroke="none" x="111" y="295" width="123.53076171875" height="75" opacity="0.2"/></g><g transform="translate(-94,-142) scale(1,1)"><rect fill="#ffffff" stroke="none" x="104" y="288" width="123.53076171875" height="75"/></g><g transform="translate(-94,-142) scale(1,1)"><path fill="none" stroke="#000000" d="M 104 288 L 227.53076171875 288 L 227.53076171875 363 L 104 363 L 104 288 Z Z" stroke-miterlimit="10"/></g><g transform="translate(-94,-142) scale(1,1)"><path fill="none" stroke="#000000" d="M 104 326 L 227.53076171875 326" stroke-miterlimit="10"/></g><g transform="translate(-94,-142) scale(1,1)"><g><path fill="none" stroke="none"/><text fill="#000000" stroke="none" font-family="Arial" font-size="13px" font-style="normal" font-weight="bold" text-decoration="none" x="153.362060546875" y="307.5">Tipo</text><text fill="#000000" stroke="none" font-family="Arial" font-size="13px" font-style="normal" font-weight="bold" text-decoration="none" x="127.466796875" y="320.5">Convocatoria</text></g></g><g transform="translate(-94,-142) scale(1,1)"><g><path fill="none" stroke="none"/><text fill="#000000" stroke="none" font-family="Arial" font-size="13px" font-style="normal" font-weight="normal" text-decoration="none" x="109" y="343.5">+clave: String</text></g></g><g transform="translate(-94,-142) scale(1,1)"><g><path fill="none" stroke="none"/><text fill="#000000" stroke="none" font-family="Arial" font-size="13px" font-style="normal" font-weight="normal" text-decoration="none" x="109" y="358.5">+descripción: String</text></g></g><g transform="translate(-94,-142) scale(1,1)"><path fill="none" stroke="#000000" d="M 280 315 L 228 315" stroke-miterlimit="10"/></g><g transform="translate(-94,-142) scale(1,1)"><path fill="none" stroke="#000000" d="M 238.16267485762415 310.790482243984 L 228 315 L 238.16267485762415 319.209517756016" stroke-miterlimit="10"/></g><g transform="translate(-94,-142) scale(1,1)"><rect fill="#C0C0C0" stroke="none" x="295" y="527" width="123.53076171875" height="75" opacity="0.2"/></g><g transform="translate(-94,-142) scale(1,1)"><rect fill="#ffffff" stroke="none" x="288" y="520" width="123.53076171875" height="75"/></g><g transform="translate(-94,-142) scale(1,1)"><path fill="none" stroke="#000000" d="M 288 520 L 411.53076171875 520 L 411.53076171875 595 L 288 595 L 288 520 Z Z" stroke-miterlimit="10"/></g><g transform="translate(-94,-142) scale(1,1)"><path fill="none" stroke="#000000" d="M 288 558 L 411.53076171875 558" stroke-miterlimit="10"/></g><g transform="translate(-94,-142) scale(1,1)"><g><path fill="none" stroke="none"/><text fill="#000000" stroke="none" font-family="Arial" font-size="13px" font-style="normal" font-weight="normal" text-decoration="none" x="316.516357421875" y="537.5">«Catálogo»</text></g></g><g transform="translate(-94,-142) scale(1,1)"><g><path fill="none" stroke="none"/><text fill="#000000" stroke="none" font-family="Arial" font-size="13px" font-style="normal" font-weight="bold" text-decoration="none" x="332.061767578125" y="552.5">Rubro</text></g></g><g transform="translate(-94,-142) scale(1,1)"><g><path fill="none" stroke="none"/><text fill="#000000" stroke="none" font-family="Arial" font-size="13px" font-style="normal" font-weight="normal" text-decoration="none" x="293" y="575.5">+nombre: String</text></g></g><g transform="translate(-94,-142) scale(1,1)"><g><path fill="none" stroke="none"/><text fill="#000000" stroke="none" font-family="Arial" font-size="13px" font-style="normal" font-weight="normal" text-decoration="none" x="293" y="590.5">+descripción: String</text></g></g><g transform="translate(-94,-142) scale(1,1)"><path fill="none" stroke="#000000" d="M 349 460 L 349 520" stroke-miterlimit="10"/></g><g transform="translate(-94,-142) scale(1,1)"><g><path fill="none" stroke="none"/><text fill="#000000" stroke="none" font-family="Arial" font-size="13px" font-style="normal" font-weight="normal" text-decoration="none" x="319.5" y="484.5">1..*</text></g></g><g transform="translate(-94,-142) scale(1,1)"><g><path fill="none" stroke="none"/><text fill="#000000" stroke="none" font-family="Arial" font-size="13px" font-style="normal" font-weight="normal" text-decoration="none" x="319.5" y="507.5">1..*</text></g></g><g transform="translate(-94,-142) scale(1,1)"><rect fill="#C0C0C0" stroke="none" x="319" y="423" width="74.01904296875" height="44" opacity="0.2"/></g><g transform="translate(-94,-142) scale(1,1)"><rect fill="#ffffff" stroke="none" x="312" y="416" width="74.01904296875" height="44"/></g><g transform="translate(-94,-142) scale(1,1)"><path fill="none" stroke="#000000" d="M 312 416 L 386.01904296875 416 L 386.01904296875 460 L 312 460 L 312 416 Z Z" stroke-miterlimit="10"/></g><g transform="translate(-94,-142) scale(1,1)"><g><path fill="none" stroke="none"/><text fill="#000000" stroke="none" font-family="Arial" font-size="13px" font-style="normal" font-weight="bold" text-decoration="none" x="317.57275390625" y="435.5">MetaEtapa</text></g></g><g transform="translate(-94,-142) scale(1,1)"><path fill="none" stroke="#000000" d="M 348 380 L 349 415" stroke-miterlimit="10"/></g><g transform="translate(-94,-142) scale(1,1)"><path fill="none" stroke="#000000" d="M 344.5019556671291 404.96169351038094 L 349 415 L 352.9175569405878 404.7212477597107" stroke-miterlimit="10"/></g><g transform="translate(-94,-142) scale(1,1)"><g><path fill="none" stroke="none"/><text fill="#000000" stroke="none" font-family="Arial" font-size="13px" font-style="normal" font-weight="normal" text-decoration="none" x="326.5" y="407.5">1..*</text></g></g></g></svg>