<svg version="1.1" xmlns="http://www.w3.org/2000/svg" xmlns:xlink="http://www.w3.org/1999/xlink" width="797" height="399"><defs/><g><text fill="#eeeeee" stroke="none" font-family="Arial" font-size="24px" font-style="normal" font-weight="normal" text-decoration="none" x="0" y="0">UNREGISTERED</text><text fill="#eeeeee" stroke="none" font-family="Arial" font-size="24px" font-style="normal" font-weight="normal" text-decoration="none" x="0" y="30">UNREGISTERED</text><text fill="#eeeeee" stroke="none" font-family="Arial" font-size="24px" font-style="normal" font-weight="normal" text-decoration="none" x="0" y="60">UNREGISTERED</text><text fill="#eeeeee" stroke="none" font-family="Arial" font-size="24px" font-style="normal" font-weight="normal" text-decoration="none" x="0" y="90">UNREGISTERED</text><text fill="#eeeeee" stroke="none" font-family="Arial" font-size="24px" font-style="normal" font-weight="normal" text-decoration="none" x="0" y="120">UNREGISTERED</text><text fill="#eeeeee" stroke="none" font-family="Arial" font-size="24px" font-style="normal" font-weight="normal" text-decoration="none" x="0" y="150">UNREGISTERED</text><text fill="#eeeeee" stroke="none" font-family="Arial" font-size="24px" font-style="normal" font-weight="normal" text-decoration="none" x="0" y="180">UNREGISTERED</text><text fill="#eeeeee" stroke="none" font-family="Arial" font-size="24px" font-style="normal" font-weight="normal" text-decoration="none" x="0" y="210">UNREGISTERED</text><text fill="#eeeeee" stroke="none" font-family="Arial" font-size="24px" font-style="normal" font-weight="normal" text-decoration="none" x="0" y="240">UNREGISTERED</text><text fill="#eeeeee" stroke="none" font-family="Arial" font-size="24px" font-style="normal" font-weight="normal" text-decoration="none" x="0" y="270">UNREGISTERED</text><text fill="#eeeeee" stroke="none" font-family="Arial" font-size="24px" font-style="normal" font-weight="normal" text-decoration="none" x="0" y="300">UNREGISTERED</text><text fill="#eeeeee" stroke="none" font-family="Arial" font-size="24px" font-style="normal" font-weight="normal" text-decoration="none" x="0" y="330">UNREGISTERED</text><text fill="#eeeeee" stroke="none" font-family="Arial" font-size="24px" font-style="normal" font-weight="normal" text-decoration="none" x="0" y="360">UNREGISTERED</text><text fill="#eeeeee" stroke="none" font-family="Arial" font-size="24px" font-style="normal" font-weight="normal" text-decoration="none" x="0" y="390">UNREGISTERED</text><text fill="#eeeeee" stroke="none" font-family="Arial" font-size="24px" font-style="normal" font-weight="normal" text-decoration="none" x="200" y="0">UNREGISTERED</text><text fill="#eeeeee" stroke="none" font-family="Arial" font-size="24px" font-style="normal" font-weight="normal" text-decoration="none" x="200" y="30">UNREGISTERED</text><text fill="#eeeeee" stroke="none" font-family="Arial" font-size="24px" font-style="normal" font-weight="normal" text-decoration="none" x="200" y="60">UNREGISTERED</text><text fill="#eeeeee" stroke="none" font-family="Arial" font-size="24px" font-style="normal" font-weight="normal" text-decoration="none" x="200" y="90">UNREGISTERED</text><text fill="#eeeeee" stroke="none" font-family="Arial" font-size="24px" font-style="normal" font-weight="normal" text-decoration="none" x="200" y="120">UNREGISTERED</text><text fill="#eeeeee" stroke="none" font-family="Arial" font-size="24px" font-style="normal" font-weight="normal" text-decoration="none" x="200" y="150">UNREGISTERED</text><text fill="#eeeeee" stroke="none" font-family="Arial" font-size="24px" font-style="normal" font-weight="normal" text-decoration="none" x="200" y="180">UNREGISTERED</text><text fill="#eeeeee" stroke="none" font-family="Arial" font-size="24px" font-style="normal" font-weight="normal" text-decoration="none" x="200" y="210">UNREGISTERED</text><text fill="#eeeeee" stroke="none" font-family="Arial" font-size="24px" font-style="normal" font-weight="normal" text-decoration="none" x="200" y="240">UNREGISTERED</text><text fill="#eeeeee" stroke="none" font-family="Arial" font-size="24px" font-style="normal" font-weight="normal" text-decoration="none" x="200" y="270">UNREGISTERED</text><text fill="#eeeeee" stroke="none" font-family="Arial" font-size="24px" font-style="normal" font-weight="normal" text-decoration="none" x="200" y="300">UNREGISTERED</text><text fill="#eeeeee" stroke="none" font-family="Arial" font-size="24px" font-style="normal" font-weight="normal" text-decoration="none" x="200" y="330">UNREGISTERED</text><text fill="#eeeeee" stroke="none" font-family="Arial" font-size="24px" font-style="normal" font-weight="normal" text-decoration="none" x="200" y="360">UNREGISTERED</text><text fill="#eeeeee" stroke="none" font-family="Arial" font-size="24px" font-style="normal" font-weight="normal" text-decoration="none" x="200" y="390">UNREGISTERED</text><text fill="#eeeeee" stroke="none" font-family="Arial" font-size="24px" font-style="normal" font-weight="normal" text-decoration="none" x="400" y="0">UNREGISTERED</text><text fill="#eeeeee" stroke="none" font-family="Arial" font-size="24px" font-style="normal" font-weight="normal" text-decoration="none" x="400" y="30">UNREGISTERED</text><text fill="#eeeeee" stroke="none" font-family="Arial" font-size="24px" font-style="normal" font-weight="normal" text-decoration="none" x="400" y="60">UNREGISTERED</text><text fill="#eeeeee" stroke="none" font-family="Arial" font-size="24px" font-style="normal" font-weight="normal" text-decoration="none" x="400" y="90">UNREGISTERED</text><text fill="#eeeeee" stroke="none" font-family="Arial" font-size="24px" font-style="normal" font-weight="normal" text-decoration="none" x="400" y="120">UNREGISTERED</text><text fill="#eeeeee" stroke="none" font-family="Arial" font-size="24px" font-style="normal" font-weight="normal" text-decoration="none" x="400" y="150">UNREGISTERED</text><text fill="#eeeeee" stroke="none" font-family="Arial" font-size="24px" font-style="normal" font-weight="normal" text-decoration="none" x="400" y="180">UNREGISTERED</text><text fill="#eeeeee" stroke="none" font-family="Arial" font-size="24px" font-style="normal" font-weight="normal" text-decoration="none" x="400" y="210">UNREGISTERED</text><text fill="#eeeeee" stroke="none" font-family="Arial" font-size="24px" font-style="normal" font-weight="normal" text-decoration="none" x="400" y="240">UNREGISTERED</text><text fill="#eeeeee" stroke="none" font-family="Arial" font-size="24px" font-style="normal" font-weight="normal" text-decoration="none" x="400" y="270">UNREGISTERED</text><text fill="#eeeeee" stroke="none" font-family="Arial" font-size="24px" font-style="normal" font-weight="normal" text-decoration="none" x="400" y="300">UNREGISTERED</text><text fill="#eeeeee" stroke="none" font-family="Arial" font-size="24px" font-style="normal" font-weight="normal" text-decoration="none" x="400" y="330">UNREGISTERED</text><text fill="#eeeeee" stroke="none" font-family="Arial" font-size="24px" font-style="normal" font-weight="normal" text-decoration="none" x="400" y="360">UNREGISTERED</text><text fill="#eeeeee" stroke="none" font-family="Arial" font-size="24px" font-style="normal" font-weight="normal" text-decoration="none" x="400" y="390">UNREGISTERED</text><text fill="#eeeeee" stroke="none" font-family="Arial" font-size="24px" font-style="normal" font-weight="normal" text-decoration="none" x="600" y="0">UNREGISTERED</text><text fill="#eeeeee" stroke="none" font-family="Arial" font-size="24px" font-style="normal" font-weight="normal" text-decoration="none" x="600" y="30">UNREGISTERED</text><text fill="#eeeeee" stroke="none" font-family="Arial" font-size="24px" font-style="normal" font-weight="normal" text-decoration="none" x="600" y="60">UNREGISTERED</text><text fill="#eeeeee" stroke="none" font-family="Arial" font-size="24px" font-style="normal" font-weight="normal" text-decoration="none" x="600" y="90">UNREGISTERED</text><text fill="#eeeeee" stroke="none" font-family="Arial" font-size="24px" font-style="normal" font-weight="normal" text-decoration="none" x="600" y="120">UNREGISTERED</text><text fill="#eeeeee" stroke="none" font-family="Arial" font-size="24px" font-style="normal" font-weight="normal" text-decoration="none" x="600" y="150">UNREGISTERED</text><text fill="#eeeeee" stroke="none" font-family="Arial" font-size="24px" font-style="normal" font-weight="normal" text-decoration="none" x="600" y="180">UNREGISTERED</text><text fill="#eeeeee" stroke="none" font-family="Arial" font-size="24px" font-style="normal" font-weight="normal" text-decoration="none" x="600" y="210">UNREGISTERED</text><text fill="#eeeeee" stroke="none" font-family="Arial" font-size="24px" font-style="normal" font-weight="normal" text-decoration="none" x="600" y="240">UNREGISTERED</text><text fill="#eeeeee" stroke="none" font-family="Arial" font-size="24px" font-style="normal" font-weight="normal" text-decoration="none" x="600" y="270">UNREGISTERED</text><text fill="#eeeeee" stroke="none" font-family="Arial" font-size="24px" font-style="normal" font-weight="normal" text-decoration="none" x="600" y="300">UNREGISTERED</text><text fill="#eeeeee" stroke="none" font-family="Arial" font-size="24px" font-style="normal" font-weight="normal" text-decoration="none" x="600" y="330">UNREGISTERED</text><text fill="#eeeeee" stroke="none" font-family="Arial" font-size="24px" font-style="normal" font-weight="normal" text-decoration="none" x="600" y="360">UNREGISTERED</text><text fill="#eeeeee" stroke="none" font-family="Arial" font-size="24px" font-style="normal" font-weight="normal" text-decoration="none" x="600" y="390">UNREGISTERED</text><g transform="translate(-110,-46) scale(1,1)"><rect fill="#C0C0C0" stroke="none" x="487" y="223" width="174.12158203125" height="77" opacity="0.2"/></g><g transform="translate(-110,-46) scale(1,1)"><rect fill="#ffffff" stroke="none" x="480" y="216" width="174.12158203125" height="77"/></g><g transform="translate(-110,-46) scale(1,1)"><path fill="none" stroke="#000000" d="M 480 216 L 654.12158203125 216 L 654.12158203125 293 L 480 293 L 480 216 Z Z" stroke-miterlimit="10"/></g><g transform="translate(-110,-46) scale(1,1)"><path fill="none" stroke="#000000" d="M 480 241 L 654.12158203125 241" stroke-miterlimit="10"/></g><g transform="translate(-110,-46) scale(1,1)"><g><path fill="none" stroke="none"/><text fill="#000000" stroke="none" font-family="Arial" font-size="13px" font-style="normal" font-weight="bold" text-decoration="none" x="542.4921875" y="235.5">Solicitud</text></g></g><g transform="translate(-110,-46) scale(1,1)"><g><path fill="none" stroke="none"/><text fill="#000000" stroke="none" font-family="Arial" font-size="13px" font-style="normal" font-weight="normal" text-decoration="none" x="485" y="258.5">+convocatoria: Convocatoria</text></g></g><g transform="translate(-110,-46) scale(1,1)"><g><path fill="none" stroke="none"/><text fill="#000000" stroke="none" font-family="Arial" font-size="13px" font-style="normal" font-weight="normal" text-decoration="none" x="485" y="273.5">+fechaCreación: Date</text></g></g><g transform="translate(-110,-46) scale(1,1)"><g><path fill="none" stroke="none"/><text fill="#000000" stroke="none" font-family="Arial" font-size="13px" font-style="normal" font-weight="normal" text-decoration="none" x="485" y="288.5">+clave: String</text></g></g><g transform="translate(-110,-46) scale(1,1)"><rect fill="#C0C0C0" stroke="none" x="727" y="151" width="123.53076171875" height="73" opacity="0.2"/></g><g transform="translate(-110,-46) scale(1,1)"><rect fill="#ffffff" stroke="none" x="720" y="144" width="123.53076171875" height="73"/></g><g transform="translate(-110,-46) scale(1,1)"><path fill="none" stroke="#000000" d="M 720 144 L 843.53076171875 144 L 843.53076171875 217 L 720 217 L 720 144 Z Z" stroke-miterlimit="10"/></g><g transform="translate(-110,-46) scale(1,1)"><path fill="none" stroke="#000000" d="M 720 195 L 843.53076171875 195" stroke-miterlimit="10"/></g><g transform="translate(-110,-46) scale(1,1)"><g><path fill="none" stroke="none"/><text fill="#000000" stroke="none" font-family="Arial" font-size="13px" font-style="normal" font-weight="normal" text-decoration="none" x="748.516357421875" y="161.5">«Catálogo»</text></g></g><g transform="translate(-110,-46) scale(1,1)"><g><path fill="none" stroke="none"/><text fill="#000000" stroke="none" font-family="Arial" font-size="13px" font-style="normal" font-weight="bold" text-decoration="none" x="748.878173828125" y="176.5">Etapa de la</text><text fill="#000000" stroke="none" font-family="Arial" font-size="13px" font-style="normal" font-weight="bold" text-decoration="none" x="757.19677734375" y="189.5">Solicitud</text></g></g><g transform="translate(-110,-46) scale(1,1)"><g><path fill="none" stroke="none"/><text fill="#000000" stroke="none" font-family="Arial" font-size="13px" font-style="normal" font-weight="normal" text-decoration="none" x="725" y="212.5">+descripción: String</text></g></g><g transform="translate(-110,-46) scale(1,1)"><rect fill="#C0C0C0" stroke="none" x="727" y="279" width="123.53076171875" height="73" opacity="0.2"/></g><g transform="translate(-110,-46) scale(1,1)"><rect fill="#ffffff" stroke="none" x="720" y="272" width="123.53076171875" height="73"/></g><g transform="translate(-110,-46) scale(1,1)"><path fill="none" stroke="#000000" d="M 720 272 L 843.53076171875 272 L 843.53076171875 345 L 720 345 L 720 272 Z Z" stroke-miterlimit="10"/></g><g transform="translate(-110,-46) scale(1,1)"><path fill="none" stroke="#000000" d="M 720 323 L 843.53076171875 323" stroke-miterlimit="10"/></g><g transform="translate(-110,-46) scale(1,1)"><g><path fill="none" stroke="none"/><text fill="#000000" stroke="none" font-family="Arial" font-size="13px" font-style="normal" font-weight="normal" text-decoration="none" x="748.516357421875" y="289.5">«Catálogo»</text></g></g><g transform="translate(-110,-46) scale(1,1)"><g><path fill="none" stroke="none"/><text fill="#000000" stroke="none" font-family="Arial" font-size="13px" font-style="normal" font-weight="bold" text-decoration="none" x="745.628173828125" y="304.5">Estado de la</text><text fill="#000000" stroke="none" font-family="Arial" font-size="13px" font-style="normal" font-weight="bold" text-decoration="none" x="757.19677734375" y="317.5">Solicitud</text></g></g><g transform="translate(-110,-46) scale(1,1)"><g><path fill="none" stroke="none"/><text fill="#000000" stroke="none" font-family="Arial" font-size="13px" font-style="normal" font-weight="normal" text-decoration="none" x="725" y="340.5">+descripción: String</text></g></g><g transform="translate(-110,-46) scale(1,1)"><rect fill="#C0C0C0" stroke="none" x="303" y="183" width="135.1025390625" height="107" opacity="0.2"/></g><g transform="translate(-110,-46) scale(1,1)"><rect fill="#ffffff" stroke="none" x="296" y="176" width="135.1025390625" height="107"/></g><g transform="translate(-110,-46) scale(1,1)"><path fill="none" stroke="#000000" d="M 296 176 L 431.1025390625 176 L 431.1025390625 283 L 296 283 L 296 176 Z Z" stroke-miterlimit="10"/></g><g transform="translate(-110,-46) scale(1,1)"><path fill="none" stroke="#000000" d="M 296 201 L 431.1025390625 201" stroke-miterlimit="10"/></g><g transform="translate(-110,-46) scale(1,1)"><g><path fill="none" stroke="none"/><text fill="#000000" stroke="none" font-family="Arial" font-size="13px" font-style="normal" font-weight="bold" text-decoration="none" x="325.252685546875" y="195.5">Convocatoria</text></g></g><g transform="translate(-110,-46) scale(1,1)"><g><path fill="none" stroke="none"/><text fill="#000000" stroke="none" font-family="Arial" font-size="13px" font-style="normal" font-weight="normal" text-decoration="none" x="301" y="218.5">+clave: String</text></g></g><g transform="translate(-110,-46) scale(1,1)"><g><path fill="none" stroke="none"/><text fill="#000000" stroke="none" font-family="Arial" font-size="13px" font-style="normal" font-weight="normal" text-decoration="none" x="301" y="233.5">+nombre: String</text></g></g><g transform="translate(-110,-46) scale(1,1)"><g><path fill="none" stroke="none"/><text fill="#000000" stroke="none" font-family="Arial" font-size="13px" font-style="normal" font-weight="normal" text-decoration="none" x="301" y="248.5">+añoFiscal: String</text></g></g><g transform="translate(-110,-46) scale(1,1)"><g><path fill="none" stroke="none"/><text fill="#000000" stroke="none" font-family="Arial" font-size="13px" font-style="normal" font-weight="normal" text-decoration="none" x="301" y="263.5">+tipo</text></g></g><g transform="translate(-110,-46) scale(1,1)"><g><path fill="none" stroke="none"/><text fill="#000000" stroke="none" font-family="Arial" font-size="13px" font-style="normal" font-weight="normal" text-decoration="none" x="301" y="278.5">+fechaCreación: Date</text></g></g><g transform="translate(-110,-46) scale(1,1)"><path fill="none" stroke="#000000" d="M 431 232 L 480 232" stroke-miterlimit="10"/></g><g transform="translate(-110,-46) scale(1,1)"><path fill="none" stroke="#000000" d="M 469.83732514237585 236.209517756016 L 480 232 L 469.83732514237585 227.790482243984" stroke-miterlimit="10"/></g><g transform="translate(-110,-46) scale(1,1)"><g><path fill="none" stroke="none"/><text fill="#000000" stroke="none" font-family="Arial" font-size="13px" font-style="normal" font-weight="normal" text-decoration="none" x="448.5" y="250.5">1..*</text></g></g><g transform="translate(-110,-46) scale(1,1)"><path fill="none" stroke="#000000" d="M 631 216 L 631 184 M 631 184 A 8 8 0 0 1 639 176 L 720 176" stroke-miterlimit="10"/></g><g transform="translate(-110,-46) scale(1,1)"><path fill="none" stroke="#000000" d="M 709.8373251423759 180.209517756016 L 720 176 L 709.8373251423758 171.790482243984" stroke-miterlimit="10"/></g><g transform="translate(-110,-46) scale(1,1)"><g><path fill="none" stroke="none"/><text fill="#000000" stroke="none" font-family="Arial" font-size="13px" font-style="normal" font-weight="normal" text-decoration="none" x="630.5" y="172.5">+está en</text></g></g><g transform="translate(-110,-46) scale(1,1)"><g><path fill="none" stroke="none"/><text fill="#000000" stroke="none" font-family="Arial" font-size="13px" font-style="normal" font-weight="normal" text-decoration="none" x="633.5" y="200.5">1..*</text></g></g><g transform="translate(-110,-46) scale(1,1)"><g><path fill="none" stroke="none"/><text fill="#000000" stroke="none" font-family="Arial" font-size="13px" font-style="normal" font-weight="normal" text-decoration="none" x="694.5" y="194.5">1</text></g></g><g transform="translate(-110,-46) scale(1,1)"><path fill="none" stroke="#000000" d="M 631 293 L 631 304 M 631 304 A 8 8 0 0 0 639 312 L 720 312" stroke-miterlimit="10"/></g><g transform="translate(-110,-46) scale(1,1)"><path fill="none" stroke="#000000" d="M 709.8373251423759 316.209517756016 L 720 312 L 709.8373251423758 307.790482243984" stroke-miterlimit="10"/></g><g transform="translate(-110,-46) scale(1,1)"><g><path fill="none" stroke="none"/><text fill="#000000" stroke="none" font-family="Arial" font-size="13px" font-style="normal" font-weight="normal" text-decoration="none" x="638.5" y="331.5">+está en</text></g></g><g transform="translate(-110,-46) scale(1,1)"><g><path fill="none" stroke="none"/><text fill="#000000" stroke="none" font-family="Arial" font-size="13px" font-style="normal" font-weight="normal" text-decoration="none" x="638.5" y="313.5">1..*</text></g></g><g transform="translate(-110,-46) scale(1,1)"><g><path fill="none" stroke="none"/><text fill="#000000" stroke="none" font-family="Arial" font-size="13px" font-style="normal" font-weight="normal" text-decoration="none" x="694.5" y="330.5">1</text></g></g><g transform="translate(-110,-46) scale(1,1)"><path fill="none" stroke="#000000" d="M 844 200 L 888 200 M 888 200 A 8 8 0 0 1 896 208 L 896 296 M 896 296 A 8 8 0 0 1 888 304 L 844 304" stroke-miterlimit="10"/></g><g transform="translate(-110,-46) scale(1,1)"><g><path fill="none" stroke="none"/><text fill="#000000" stroke="none" font-family="Arial" font-size="13px" font-style="normal" font-weight="normal" text-decoration="none" x="851.5" y="188.5">0..*</text></g></g><g transform="translate(-110,-46) scale(1,1)"><g><path fill="none" stroke="none"/><text fill="#000000" stroke="none" font-family="Arial" font-size="13px" font-style="normal" font-weight="normal" text-decoration="none" x="851.5" y="323.5">0..*</text></g></g><g transform="translate(-110,-46) scale(1,1)"><rect fill="#C0C0C0" stroke="none" x="311" y="63" width="120.9853515625" height="56" opacity="0.2"/></g><g transform="translate(-110,-46) scale(1,1)"><rect fill="#ffffff" stroke="none" x="304" y="56" width="120.9853515625" height="56"/></g><g transform="translate(-110,-46) scale(1,1)"><path fill="none" stroke="#000000" d="M 304 56 L 424.9853515625 56 L 424.9853515625 112 L 304 112 L 304 56 Z Z" stroke-miterlimit="10"/></g><g transform="translate(-110,-46) scale(1,1)"><g><path fill="none" stroke="none"/><text fill="#000000" stroke="none" font-family="Arial" font-size="13px" font-style="normal" font-weight="normal" text-decoration="none" x="330.1708984375" y="73.5">«Dinámico»</text></g></g><g transform="translate(-110,-46) scale(1,1)"><g><path fill="none" stroke="none"/><text fill="#000000" stroke="none" font-family="Arial" font-size="13px" font-style="normal" font-weight="bold" text-decoration="none" x="334.5" y="88.5">Modalidad</text></g></g><g transform="translate(-110,-46) scale(1,1)"><g><path fill="none" stroke="none"/><text fill="#000000" stroke="none" font-family="Arial" font-size="13px" font-style="normal" font-weight="normal" text-decoration="none" x="308.5" y="103.5">(from Modalidades)</text></g></g><g transform="translate(-110,-46) scale(1,1)"><path fill="none" stroke="#000000" d="M 360 176 L 360 112" stroke-miterlimit="10"/></g><g transform="translate(-110,-46) scale(1,1)"><g><path fill="none" stroke="none"/><text fill="#000000" stroke="none" font-family="Arial" font-size="13px" font-style="normal" font-weight="normal" text-decoration="none" x="311.5" y="149.5">+define</text></g></g><g transform="translate(-110,-46) scale(1,1)"><g><path fill="none" stroke="none"/><text fill="#000000" stroke="none" font-family="Arial" font-size="13px" font-style="normal" font-weight="normal" text-decoration="none" x="371.641357421875" y="164.5">1</text></g></g><g transform="translate(-110,-46) scale(1,1)"><g><path fill="none" stroke="none"/><text fill="#000000" stroke="none" font-family="Arial" font-size="13px" font-style="normal" font-weight="normal" text-decoration="none" x="365.5" y="136.5">1..*</text></g></g><g transform="translate(-110,-46) scale(1,1)"><rect fill="#C0C0C0" stroke="none" x="127" y="199" width="123.53076171875" height="75" opacity="0.2"/></g><g transform="translate(-110,-46) scale(1,1)"><rect fill="#ffffff" stroke="none" x="120" y="192" width="123.53076171875" height="75"/></g><g transform="translate(-110,-46) scale(1,1)"><path fill="none" stroke="#000000" d="M 120 192 L 243.53076171875 192 L 243.53076171875 267 L 120 267 L 120 192 Z Z" stroke-miterlimit="10"/></g><g transform="translate(-110,-46) scale(1,1)"><path fill="none" stroke="#000000" d="M 120 230 L 243.53076171875 230" stroke-miterlimit="10"/></g><g transform="translate(-110,-46) scale(1,1)"><g><path fill="none" stroke="none"/><text fill="#000000" stroke="none" font-family="Arial" font-size="13px" font-style="normal" font-weight="bold" text-decoration="none" x="169.362060546875" y="211.5">Tipo</text><text fill="#000000" stroke="none" font-family="Arial" font-size="13px" font-style="normal" font-weight="bold" text-decoration="none" x="143.466796875" y="224.5">Convocatoria</text></g></g><g transform="translate(-110,-46) scale(1,1)"><g><path fill="none" stroke="none"/><text fill="#000000" stroke="none" font-family="Arial" font-size="13px" font-style="normal" font-weight="normal" text-decoration="none" x="125" y="247.5">+clave: String</text></g></g><g transform="translate(-110,-46) scale(1,1)"><g><path fill="none" stroke="none"/><text fill="#000000" stroke="none" font-family="Arial" font-size="13px" font-style="normal" font-weight="normal" text-decoration="none" x="125" y="262.5">+descripción: String</text></g></g><g transform="translate(-110,-46) scale(1,1)"><path fill="none" stroke="#000000" d="M 296 219 L 244 219" stroke-miterlimit="10"/></g><g transform="translate(-110,-46) scale(1,1)"><path fill="none" stroke="#000000" d="M 254.16267485762415 214.790482243984 L 244 219 L 254.16267485762415 223.209517756016" stroke-miterlimit="10"/></g><g transform="translate(-110,-46) scale(1,1)"><rect fill="#C0C0C0" stroke="none" x="303" y="367" width="123.53076171875" height="75" opacity="0.2"/></g><g transform="translate(-110,-46) scale(1,1)"><rect fill="#ffffff" stroke="none" x="296" y="360" width="123.53076171875" height="75"/></g><g transform="translate(-110,-46) scale(1,1)"><path fill="none" stroke="#000000" d="M 296 360 L 419.53076171875 360 L 419.53076171875 435 L 296 435 L 296 360 Z Z" stroke-miterlimit="10"/></g><g transform="translate(-110,-46) scale(1,1)"><path fill="none" stroke="#000000" d="M 296 398 L 419.53076171875 398" stroke-miterlimit="10"/></g><g transform="translate(-110,-46) scale(1,1)"><g><path fill="none" stroke="none"/><text fill="#000000" stroke="none" font-family="Arial" font-size="13px" font-style="normal" font-weight="normal" text-decoration="none" x="324.516357421875" y="377.5">«Catálogo»</text></g></g><g transform="translate(-110,-46) scale(1,1)"><g><path fill="none" stroke="none"/><text fill="#000000" stroke="none" font-family="Arial" font-size="13px" font-style="normal" font-weight="bold" text-decoration="none" x="340.061767578125" y="392.5">Rubro</text></g></g><g transform="translate(-110,-46) scale(1,1)"><g><path fill="none" stroke="none"/><text fill="#000000" stroke="none" font-family="Arial" font-size="13px" font-style="normal" font-weight="normal" text-decoration="none" x="301" y="415.5">+nombre: String</text></g></g><g transform="translate(-110,-46) scale(1,1)"><g><path fill="none" stroke="none"/><text fill="#000000" stroke="none" font-family="Arial" font-size="13px" font-style="normal" font-weight="normal" text-decoration="none" x="301" y="430.5">+descripción: String</text></g></g><g transform="translate(-110,-46) scale(1,1)"><path fill="none" stroke="#000000" d="M 361 283 L 361 360" stroke-miterlimit="10"/></g><g transform="translate(-110,-46) scale(1,1)"><g><path fill="none" stroke="none"/><text fill="#000000" stroke="none" font-family="Arial" font-size="13px" font-style="normal" font-weight="normal" text-decoration="none" x="338.5" y="310.5">1..*</text></g></g><g transform="translate(-110,-46) scale(1,1)"><g><path fill="none" stroke="none"/><text fill="#000000" stroke="none" font-family="Arial" font-size="13px" font-style="normal" font-weight="normal" text-decoration="none" x="338.5" y="344.5">1..*</text></g></g></g></svg>