<svg version="1.1" xmlns="http://www.w3.org/2000/svg" xmlns:xlink="http://www.w3.org/1999/xlink" width="509" height="248"><defs/><g><text fill="#eeeeee" stroke="none" font-family="Arial" font-size="24px" font-style="normal" font-weight="normal" text-decoration="none" x="0" y="0">UNREGISTERED</text><text fill="#eeeeee" stroke="none" font-family="Arial" font-size="24px" font-style="normal" font-weight="normal" text-decoration="none" x="0" y="30">UNREGISTERED</text><text fill="#eeeeee" stroke="none" font-family="Arial" font-size="24px" font-style="normal" font-weight="normal" text-decoration="none" x="0" y="60">UNREGISTERED</text><text fill="#eeeeee" stroke="none" font-family="Arial" font-size="24px" font-style="normal" font-weight="normal" text-decoration="none" x="0" y="90">UNREGISTERED</text><text fill="#eeeeee" stroke="none" font-family="Arial" font-size="24px" font-style="normal" font-weight="normal" text-decoration="none" x="0" y="120">UNREGISTERED</text><text fill="#eeeeee" stroke="none" font-family="Arial" font-size="24px" font-style="normal" font-weight="normal" text-decoration="none" x="0" y="150">UNREGISTERED</text><text fill="#eeeeee" stroke="none" font-family="Arial" font-size="24px" font-style="normal" font-weight="normal" text-decoration="none" x="0" y="180">UNREGISTERED</text><text fill="#eeeeee" stroke="none" font-family="Arial" font-size="24px" font-style="normal" font-weight="normal" text-decoration="none" x="0" y="210">UNREGISTERED</text><text fill="#eeeeee" stroke="none" font-family="Arial" font-size="24px" font-style="normal" font-weight="normal" text-decoration="none" x="0" y="240">UNREGISTERED</text><text fill="#eeeeee" stroke="none" font-family="Arial" font-size="24px" font-style="normal" font-weight="normal" text-decoration="none" x="200" y="0">UNREGISTERED</text><text fill="#eeeeee" stroke="none" font-family="Arial" font-size="24px" font-style="normal" font-weight="normal" text-decoration="none" x="200" y="30">UNREGISTERED</text><text fill="#eeeeee" stroke="none" font-family="Arial" font-size="24px" font-style="normal" font-weight="normal" text-decoration="none" x="200" y="60">UNREGISTERED</text><text fill="#eeeeee" stroke="none" font-family="Arial" font-size="24px" font-style="normal" font-weight="normal" text-decoration="none" x="200" y="90">UNREGISTERED</text><text fill="#eeeeee" stroke="none" font-family="Arial" font-size="24px" font-style="normal" font-weight="normal" text-decoration="none" x="200" y="120">UNREGISTERED</text><text fill="#eeeeee" stroke="none" font-family="Arial" font-size="24px" font-style="normal" font-weight="normal" text-decoration="none" x="200" y="150">UNREGISTERED</text><text fill="#eeeeee" stroke="none" font-family="Arial" font-size="24px" font-style="normal" font-weight="normal" text-decoration="none" x="200" y="180">UNREGISTERED</text><text fill="#eeeeee" stroke="none" font-family="Arial" font-size="24px" font-style="normal" font-weight="normal" text-decoration="none" x="200" y="210">UNREGISTERED</text><text fill="#eeeeee" stroke="none" font-family="Arial" font-size="24px" font-style="normal" font-weight="normal" text-decoration="none" x="200" y="240">UNREGISTERED</text><text fill="#eeeeee" stroke="none" font-family="Arial" font-size="24px" font-style="normal" font-weight="normal" text-decoration="none" x="400" y="0">UNREGISTERED</text><text fill="#eeeeee" stroke="none" font-family="Arial" font-size="24px" font-style="normal" font-weight="normal" text-decoration="none" x="400" y="30">UNREGISTERED</text><text fill="#eeeeee" stroke="none" font-family="Arial" font-size="24px" font-style="normal" font-weight="normal" text-decoration="none" x="400" y="60">UNREGISTERED</text><text fill="#eeeeee" stroke="none" font-family="Arial" font-size="24px" font-style="normal" font-weight="normal" text-decoration="none" x="400" y="90">UNREGISTERED</text><text fill="#eeeeee" stroke="none" font-family="Arial" font-size="24px" font-style="normal" font-weight="normal" text-decoration="none" x="400" y="120">UNREGISTERED</text><text fill="#eeeeee" stroke="none" font-family="Arial" font-size="24px" font-style="normal" font-weight="normal" text-decoration="none" x="400" y="150">UNREGISTERED</text><text fill="#eeeeee" stroke="none" font-family="Arial" font-size="24px" font-style="normal" font-weight="normal" text-decoration="none" x="400" y="180">UNREGISTERED</text><text fill="#eeeeee" stroke="none" font-family="Arial" font-size="24px" font-style="normal" font-weight="normal" text-decoration="none" x="400" y="210">UNREGISTERED</text><text fill="#eeeeee" stroke="none" font-family="Arial" font-size="24px" font-style="normal" font-weight="normal" text-decoration="none" x="400" y="240">UNREGISTERED</text><g transform="translate(-61,-110) scale(1,1)"><rect fill="#C0C0C0" stroke="none" x="247" y="127" width="160" height="52" opacity="0.2"/></g><g transform="translate(-61,-110) scale(1,1)"><rect fill="#ffffff" stroke="none" x="240" y="120" width="160" height="52"/></g><g transform="translate(-61,-110) scale(1,1)"><path fill="none" stroke="#000000" d="M 240 120 L 400 120 L 400 172 L 240 172 L 240 120 Z Z" stroke-miterlimit="10"/></g><g transform="translate(-61,-110) scale(1,1)"><g><path fill="none" stroke="none"/><text fill="#000000" stroke="none" font-family="Arial" font-size="13px" font-style="normal" font-weight="bold" text-decoration="none" x="271.82763671875" y="139.5">GrupoDeTrabajo</text></g></g><g transform="translate(-61,-110) scale(1,1)"><rect fill="#C0C0C0" stroke="none" x="407" y="223" width="160" height="52" opacity="0.2"/></g><g transform="translate(-61,-110) scale(1,1)"><rect fill="#ffffff" stroke="none" x="400" y="216" width="160" height="52"/></g><g transform="translate(-61,-110) scale(1,1)"><path fill="none" stroke="#000000" d="M 400 216 L 560 216 L 560 268 L 400 268 L 400 216 Z Z" stroke-miterlimit="10"/></g><g transform="translate(-61,-110) scale(1,1)"><g><path fill="none" stroke="none"/><text fill="#000000" stroke="none" font-family="Arial" font-size="13px" font-style="normal" font-weight="normal" text-decoration="none" x="463.016845703125" y="233.5">«Rol»</text></g></g><g transform="translate(-61,-110) scale(1,1)"><g><path fill="none" stroke="none"/><text fill="#000000" stroke="none" font-family="Arial" font-size="13px" font-style="normal" font-weight="bold" text-decoration="none" x="444.589599609375" y="248.5">Investigador</text></g></g><g transform="translate(-61,-110) scale(1,1)"><g><path fill="none" stroke="none"/><text fill="#000000" stroke="none" font-family="Arial" font-size="13px" font-style="normal" font-weight="normal" text-decoration="none" x="418.589599609375" y="263.5">(from Investigadores)</text></g></g><g transform="translate(-61,-110) scale(1,1)"><path fill="none" stroke="#000000" d="M 400 242 L 360 242 M 360 242 A 8 8 0 0 1 352 234 L 352 172" stroke-miterlimit="10"/></g><g transform="translate(-61,-110) scale(1,1)"><path fill="#FFFFFF" stroke="none" d="M 356.209517756016 182.16267485762415 L 352 172 L 347.790482243984 182.16267485762415 L 352 194"/></g><g transform="translate(-61,-110) scale(1,1)"><path fill="none" stroke="#000000" d="M 356.209517756016 182.16267485762415 L 352 172 L 347.790482243984 182.16267485762415 L 352 194 L 356.209517756016 182.16267485762415" stroke-miterlimit="10"/></g><g transform="translate(-61,-110) scale(1,1)"><g><path fill="none" stroke="none"/><text fill="#000000" stroke="none" font-family="Arial" font-size="13px" font-style="normal" font-weight="normal" text-decoration="none" x="367.74365234375" y="270.5">1..*</text></g></g><g transform="translate(-61,-110) scale(1,1)"><rect fill="#C0C0C0" stroke="none" x="126" y="223" width="75.45361328125" height="44" opacity="0.2"/></g><g transform="translate(-61,-110) scale(1,1)"><rect fill="#ffffff" stroke="none" x="119" y="216" width="75.45361328125" height="44"/></g><g transform="translate(-61,-110) scale(1,1)"><path fill="none" stroke="#000000" d="M 119 216 L 194.45361328125 216 L 194.45361328125 260 L 119 260 L 119 216 Z Z" stroke-miterlimit="10"/></g><g transform="translate(-61,-110) scale(1,1)"><g><path fill="none" stroke="none"/><text fill="#000000" stroke="none" font-family="Arial" font-size="13px" font-style="normal" font-weight="bold" text-decoration="none" x="126.010498046875" y="235.5">Estudiante</text></g></g><g transform="translate(-61,-110) scale(1,1)"><rect fill="#C0C0C0" stroke="none" x="78" y="311" width="80" height="44" opacity="0.2"/></g><g transform="translate(-61,-110) scale(1,1)"><rect fill="#ffffff" stroke="none" x="71" y="304" width="80" height="44"/></g><g transform="translate(-61,-110) scale(1,1)"><path fill="none" stroke="#000000" d="M 71 304 L 151 304 L 151 348 L 71 348 L 71 304 Z Z" stroke-miterlimit="10"/></g><g transform="translate(-61,-110) scale(1,1)"><g><path fill="none" stroke="none"/><text fill="#000000" stroke="none" font-family="Arial" font-size="13px" font-style="normal" font-weight="bold" text-decoration="none" x="83.175048828125" y="323.5">Posgrado</text></g></g><g transform="translate(-61,-110) scale(1,1)"><path fill="none" stroke="#000000" d="M 123 303 L 144 261" stroke-miterlimit="10"/></g><g transform="translate(-61,-110) scale(1,1)"><path fill="#FFFFFF" stroke="none" d="M 142.44044155800506 282.9446525938781 L 144 261 L 127.38001299009446 275.41443830992284"/></g><g transform="translate(-61,-110) scale(1,1)"><path fill="none" stroke="#000000" d="M 142.44044155800506 282.9446525938781 L 144 261 L 127.38001299009446 275.41443830992284 L 142.44044155800506 282.9446525938781" stroke-miterlimit="10"/></g><g transform="translate(-61,-110) scale(1,1)"><path fill="none" stroke="#000000" d="M 194 238 L 278 238 M 278 238 A 8 8 0 0 0 286 230 L 286 172" stroke-miterlimit="10"/></g><g transform="translate(-61,-110) scale(1,1)"><path fill="#FFFFFF" stroke="none" d="M 290.209517756016 182.16267485762415 L 286 172 L 281.790482243984 182.16267485762415 L 286 194"/></g><g transform="translate(-61,-110) scale(1,1)"><path fill="none" stroke="#000000" d="M 290.209517756016 182.16267485762415 L 286 172 L 281.790482243984 182.16267485762415 L 286 194 L 290.209517756016 182.16267485762415" stroke-miterlimit="10"/></g><g transform="translate(-61,-110) scale(1,1)"><g><path fill="none" stroke="none"/><text fill="#000000" stroke="none" font-family="Arial" font-size="13px" font-style="normal" font-weight="normal" text-decoration="none" x="204.74365234375" y="256.5">0..*</text></g></g><g transform="translate(-61,-110) scale(1,1)"><rect fill="#C0C0C0" stroke="none" x="182" y="311" width="74" height="44" opacity="0.2"/></g><g transform="translate(-61,-110) scale(1,1)"><rect fill="#ffffff" stroke="none" x="175" y="304" width="74" height="44"/></g><g transform="translate(-61,-110) scale(1,1)"><path fill="none" stroke="#000000" d="M 175 304 L 249 304 L 249 348 L 175 348 L 175 304 Z Z" stroke-miterlimit="10"/></g><g transform="translate(-61,-110) scale(1,1)"><g><path fill="none" stroke="none"/><text fill="#000000" stroke="none" font-family="Arial" font-size="13px" font-style="normal" font-weight="bold" text-decoration="none" x="182.010498046875" y="323.5">Doctorado</text></g></g><g transform="translate(-61,-110) scale(1,1)"><path fill="none" stroke="#000000" d="M 197 303 L 171 261" stroke-miterlimit="10"/></g><g transform="translate(-61,-110) scale(1,1)"><path fill="#FFFFFF" stroke="none" d="M 188.85675408091913 273.8505382647412 L 171 261 L 174.53992915170278 282.7133346494942"/></g><g transform="translate(-61,-110) scale(1,1)"><path fill="none" stroke="#000000" d="M 188.85675408091913 273.8505382647412 L 171 261 L 174.53992915170278 282.7133346494942 L 188.85675408091913 273.8505382647412" stroke-miterlimit="10"/></g><g transform="translate(-61,-110) scale(1,1)"><rect fill="#C0C0C0" stroke="none" x="271" y="311" width="107.24267578125" height="44" opacity="0.2"/></g><g transform="translate(-61,-110) scale(1,1)"><rect fill="#ffffff" stroke="none" x="264" y="304" width="107.24267578125" height="44"/></g><g transform="translate(-61,-110) scale(1,1)"><path fill="none" stroke="#000000" d="M 264 304 L 371.24267578125 304 L 371.24267578125 348 L 264 348 L 264 304 Z Z" stroke-miterlimit="10"/></g><g transform="translate(-61,-110) scale(1,1)"><g><path fill="none" stroke="none"/><text fill="#000000" stroke="none" font-family="Arial" font-size="13px" font-style="normal" font-weight="bold" text-decoration="none" x="272.45458984375" y="323.5">Posdoctorantes</text></g></g><g transform="translate(-61,-110) scale(1,1)"><path fill="none" stroke="#000000" d="M 316 304 L 316 172" stroke-miterlimit="10"/></g><g transform="translate(-61,-110) scale(1,1)"><path fill="#FFFFFF" stroke="none" d="M 320.209517756016 182.16267485762415 L 316 172 L 311.790482243984 182.16267485762415 L 316 194"/></g><g transform="translate(-61,-110) scale(1,1)"><path fill="none" stroke="#000000" d="M 320.209517756016 182.16267485762415 L 316 172 L 311.790482243984 182.16267485762415 L 316 194 L 320.209517756016 182.16267485762415" stroke-miterlimit="10"/></g></g></svg>