<svg version="1.1" xmlns="http://www.w3.org/2000/svg" xmlns:xlink="http://www.w3.org/1999/xlink" width="702.57177734375" height="409"><defs/><g><text fill="#eeeeee" stroke="none" font-family="Arial" font-size="24px" font-style="normal" font-weight="normal" text-decoration="none" x="0" y="0">UNREGISTERED</text><text fill="#eeeeee" stroke="none" font-family="Arial" font-size="24px" font-style="normal" font-weight="normal" text-decoration="none" x="0" y="30">UNREGISTERED</text><text fill="#eeeeee" stroke="none" font-family="Arial" font-size="24px" font-style="normal" font-weight="normal" text-decoration="none" x="0" y="60">UNREGISTERED</text><text fill="#eeeeee" stroke="none" font-family="Arial" font-size="24px" font-style="normal" font-weight="normal" text-decoration="none" x="0" y="90">UNREGISTERED</text><text fill="#eeeeee" stroke="none" font-family="Arial" font-size="24px" font-style="normal" font-weight="normal" text-decoration="none" x="0" y="120">UNREGISTERED</text><text fill="#eeeeee" stroke="none" font-family="Arial" font-size="24px" font-style="normal" font-weight="normal" text-decoration="none" x="0" y="150">UNREGISTERED</text><text fill="#eeeeee" stroke="none" font-family="Arial" font-size="24px" font-style="normal" font-weight="normal" text-decoration="none" x="0" y="180">UNREGISTERED</text><text fill="#eeeeee" stroke="none" font-family="Arial" font-size="24px" font-style="normal" font-weight="normal" text-decoration="none" x="0" y="210">UNREGISTERED</text><text fill="#eeeeee" stroke="none" font-family="Arial" font-size="24px" font-style="normal" font-weight="normal" text-decoration="none" x="0" y="240">UNREGISTERED</text><text fill="#eeeeee" stroke="none" font-family="Arial" font-size="24px" font-style="normal" font-weight="normal" text-decoration="none" x="0" y="270">UNREGISTERED</text><text fill="#eeeeee" stroke="none" font-family="Arial" font-size="24px" font-style="normal" font-weight="normal" text-decoration="none" x="0" y="300">UNREGISTERED</text><text fill="#eeeeee" stroke="none" font-family="Arial" font-size="24px" font-style="normal" font-weight="normal" text-decoration="none" x="0" y="330">UNREGISTERED</text><text fill="#eeeeee" stroke="none" font-family="Arial" font-size="24px" font-style="normal" font-weight="normal" text-decoration="none" x="0" y="360">UNREGISTERED</text><text fill="#eeeeee" stroke="none" font-family="Arial" font-size="24px" font-style="normal" font-weight="normal" text-decoration="none" x="0" y="390">UNREGISTERED</text><text fill="#eeeeee" stroke="none" font-family="Arial" font-size="24px" font-style="normal" font-weight="normal" text-decoration="none" x="200" y="0">UNREGISTERED</text><text fill="#eeeeee" stroke="none" font-family="Arial" font-size="24px" font-style="normal" font-weight="normal" text-decoration="none" x="200" y="30">UNREGISTERED</text><text fill="#eeeeee" stroke="none" font-family="Arial" font-size="24px" font-style="normal" font-weight="normal" text-decoration="none" x="200" y="60">UNREGISTERED</text><text fill="#eeeeee" stroke="none" font-family="Arial" font-size="24px" font-style="normal" font-weight="normal" text-decoration="none" x="200" y="90">UNREGISTERED</text><text fill="#eeeeee" stroke="none" font-family="Arial" font-size="24px" font-style="normal" font-weight="normal" text-decoration="none" x="200" y="120">UNREGISTERED</text><text fill="#eeeeee" stroke="none" font-family="Arial" font-size="24px" font-style="normal" font-weight="normal" text-decoration="none" x="200" y="150">UNREGISTERED</text><text fill="#eeeeee" stroke="none" font-family="Arial" font-size="24px" font-style="normal" font-weight="normal" text-decoration="none" x="200" y="180">UNREGISTERED</text><text fill="#eeeeee" stroke="none" font-family="Arial" font-size="24px" font-style="normal" font-weight="normal" text-decoration="none" x="200" y="210">UNREGISTERED</text><text fill="#eeeeee" stroke="none" font-family="Arial" font-size="24px" font-style="normal" font-weight="normal" text-decoration="none" x="200" y="240">UNREGISTERED</text><text fill="#eeeeee" stroke="none" font-family="Arial" font-size="24px" font-style="normal" font-weight="normal" text-decoration="none" x="200" y="270">UNREGISTERED</text><text fill="#eeeeee" stroke="none" font-family="Arial" font-size="24px" font-style="normal" font-weight="normal" text-decoration="none" x="200" y="300">UNREGISTERED</text><text fill="#eeeeee" stroke="none" font-family="Arial" font-size="24px" font-style="normal" font-weight="normal" text-decoration="none" x="200" y="330">UNREGISTERED</text><text fill="#eeeeee" stroke="none" font-family="Arial" font-size="24px" font-style="normal" font-weight="normal" text-decoration="none" x="200" y="360">UNREGISTERED</text><text fill="#eeeeee" stroke="none" font-family="Arial" font-size="24px" font-style="normal" font-weight="normal" text-decoration="none" x="200" y="390">UNREGISTERED</text><text fill="#eeeeee" stroke="none" font-family="Arial" font-size="24px" font-style="normal" font-weight="normal" text-decoration="none" x="400" y="0">UNREGISTERED</text><text fill="#eeeeee" stroke="none" font-family="Arial" font-size="24px" font-style="normal" font-weight="normal" text-decoration="none" x="400" y="30">UNREGISTERED</text><text fill="#eeeeee" stroke="none" font-family="Arial" font-size="24px" font-style="normal" font-weight="normal" text-decoration="none" x="400" y="60">UNREGISTERED</text><text fill="#eeeeee" stroke="none" font-family="Arial" font-size="24px" font-style="normal" font-weight="normal" text-decoration="none" x="400" y="90">UNREGISTERED</text><text fill="#eeeeee" stroke="none" font-family="Arial" font-size="24px" font-style="normal" font-weight="normal" text-decoration="none" x="400" y="120">UNREGISTERED</text><text fill="#eeeeee" stroke="none" font-family="Arial" font-size="24px" font-style="normal" font-weight="normal" text-decoration="none" x="400" y="150">UNREGISTERED</text><text fill="#eeeeee" stroke="none" font-family="Arial" font-size="24px" font-style="normal" font-weight="normal" text-decoration="none" x="400" y="180">UNREGISTERED</text><text fill="#eeeeee" stroke="none" font-family="Arial" font-size="24px" font-style="normal" font-weight="normal" text-decoration="none" x="400" y="210">UNREGISTERED</text><text fill="#eeeeee" stroke="none" font-family="Arial" font-size="24px" font-style="normal" font-weight="normal" text-decoration="none" x="400" y="240">UNREGISTERED</text><text fill="#eeeeee" stroke="none" font-family="Arial" font-size="24px" font-style="normal" font-weight="normal" text-decoration="none" x="400" y="270">UNREGISTERED</text><text fill="#eeeeee" stroke="none" font-family="Arial" font-size="24px" font-style="normal" font-weight="normal" text-decoration="none" x="400" y="300">UNREGISTERED</text><text fill="#eeeeee" stroke="none" font-family="Arial" font-size="24px" font-style="normal" font-weight="normal" text-decoration="none" x="400" y="330">UNREGISTERED</text><text fill="#eeeeee" stroke="none" font-family="Arial" font-size="24px" font-style="normal" font-weight="normal" text-decoration="none" x="400" y="360">UNREGISTERED</text><text fill="#eeeeee" stroke="none" font-family="Arial" font-size="24px" font-style="normal" font-weight="normal" text-decoration="none" x="400" y="390">UNREGISTERED</text><text fill="#eeeeee" stroke="none" font-family="Arial" font-size="24px" font-style="normal" font-weight="normal" text-decoration="none" x="600" y="0">UNREGISTERED</text><text fill="#eeeeee" stroke="none" font-family="Arial" font-size="24px" font-style="normal" font-weight="normal" text-decoration="none" x="600" y="30">UNREGISTERED</text><text fill="#eeeeee" stroke="none" font-family="Arial" font-size="24px" font-style="normal" font-weight="normal" text-decoration="none" x="600" y="60">UNREGISTERED</text><text fill="#eeeeee" stroke="none" font-family="Arial" font-size="24px" font-style="normal" font-weight="normal" text-decoration="none" x="600" y="90">UNREGISTERED</text><text fill="#eeeeee" stroke="none" font-family="Arial" font-size="24px" font-style="normal" font-weight="normal" text-decoration="none" x="600" y="120">UNREGISTERED</text><text fill="#eeeeee" stroke="none" font-family="Arial" font-size="24px" font-style="normal" font-weight="normal" text-decoration="none" x="600" y="150">UNREGISTERED</text><text fill="#eeeeee" stroke="none" font-family="Arial" font-size="24px" font-style="normal" font-weight="normal" text-decoration="none" x="600" y="180">UNREGISTERED</text><text fill="#eeeeee" stroke="none" font-family="Arial" font-size="24px" font-style="normal" font-weight="normal" text-decoration="none" x="600" y="210">UNREGISTERED</text><text fill="#eeeeee" stroke="none" font-family="Arial" font-size="24px" font-style="normal" font-weight="normal" text-decoration="none" x="600" y="240">UNREGISTERED</text><text fill="#eeeeee" stroke="none" font-family="Arial" font-size="24px" font-style="normal" font-weight="normal" text-decoration="none" x="600" y="270">UNREGISTERED</text><text fill="#eeeeee" stroke="none" font-family="Arial" font-size="24px" font-style="normal" font-weight="normal" text-decoration="none" x="600" y="300">UNREGISTERED</text><text fill="#eeeeee" stroke="none" font-family="Arial" font-size="24px" font-style="normal" font-weight="normal" text-decoration="none" x="600" y="330">UNREGISTERED</text><text fill="#eeeeee" stroke="none" font-family="Arial" font-size="24px" font-style="normal" font-weight="normal" text-decoration="none" x="600" y="360">UNREGISTERED</text><text fill="#eeeeee" stroke="none" font-family="Arial" font-size="24px" font-style="normal" font-weight="normal" text-decoration="none" x="600" y="390">UNREGISTERED</text><g transform="translate(-14,-69) scale(1,1)"><rect fill="#C0C0C0" stroke="none" x="295" y="183" width="160" height="136" opacity="0.2"/></g><g transform="translate(-14,-69) scale(1,1)"><rect fill="#ffffff" stroke="none" x="288" y="176" width="160" height="136"/></g><g transform="translate(-14,-69) scale(1,1)"><path fill="none" stroke="#000000" d="M 288 176 L 448 176 L 448 312 L 288 312 L 288 176 Z Z" stroke-miterlimit="10"/></g><g transform="translate(-14,-69) scale(1,1)"><g><path fill="none" stroke="none"/><text fill="#000000" stroke="none" font-family="Arial" font-size="13px" font-style="normal" font-weight="bold" text-decoration="none" x="332.589599609375" y="195.5">Investigador</text></g></g><g transform="translate(-14,-69) scale(1,1)"><rect fill="#C0C0C0" stroke="none" x="191" y="367" width="128.62451171875" height="50" opacity="0.2"/></g><g transform="translate(-14,-69) scale(1,1)"><rect fill="#ffffff" stroke="none" x="184" y="360" width="128.62451171875" height="50"/></g><g transform="translate(-14,-69) scale(1,1)"><path fill="none" stroke="#000000" d="M 184 360 L 312.62451171875 360 L 312.62451171875 410 L 184 410 L 184 360 Z Z" stroke-miterlimit="10"/></g><g transform="translate(-14,-69) scale(1,1)"><g><path fill="none" stroke="none"/><text fill="#000000" stroke="none" font-family="Arial" font-size="13px" font-style="normal" font-weight="bold" text-decoration="none" x="212.90185546875" y="379.5">Investigador</text><text fill="#000000" stroke="none" font-family="Arial" font-size="13px" font-style="normal" font-weight="bold" text-decoration="none" x="212.175048828125" y="392.5">Consolidado</text></g></g><g transform="translate(-14,-69) scale(1,1)"><rect fill="#C0C0C0" stroke="none" x="431" y="367" width="127.47900390625" height="50" opacity="0.2"/></g><g transform="translate(-14,-69) scale(1,1)"><rect fill="#ffffff" stroke="none" x="424" y="360" width="127.47900390625" height="50"/></g><g transform="translate(-14,-69) scale(1,1)"><path fill="none" stroke="#000000" d="M 424 360 L 551.47900390625 360 L 551.47900390625 410 L 424 410 L 424 360 Z Z" stroke-miterlimit="10"/></g><g transform="translate(-14,-69) scale(1,1)"><g><path fill="none" stroke="none"/><text fill="#000000" stroke="none" font-family="Arial" font-size="13px" font-style="normal" font-weight="bold" text-decoration="none" x="452.3291015625" y="379.5">Investigador</text><text fill="#000000" stroke="none" font-family="Arial" font-size="13px" font-style="normal" font-weight="bold" text-decoration="none" x="470.39453125" y="392.5">Joven</text></g></g><g transform="translate(-14,-69) scale(1,1)"><path fill="none" stroke="#000000" d="M 313 390 L 328 390 M 328 390 A 8 8 0 0 0 336 382 L 336 312" stroke-miterlimit="10"/></g><g transform="translate(-14,-69) scale(1,1)"><path fill="#FFFFFF" stroke="none" d="M 344.419035512032 332.3253497152483 L 336 312 L 327.580964487968 332.3253497152483"/></g><g transform="translate(-14,-69) scale(1,1)"><path fill="none" stroke="#000000" d="M 344.419035512032 332.3253497152483 L 336 312 L 327.580964487968 332.3253497152483 L 344.419035512032 332.3253497152483" stroke-miterlimit="10"/></g><g transform="translate(-14,-69) scale(1,1)"><path fill="none" stroke="#000000" d="M 424 392 L 416 392 M 416 392 A 8 8 0 0 1 408 384 L 408 312" stroke-miterlimit="10"/></g><g transform="translate(-14,-69) scale(1,1)"><path fill="#FFFFFF" stroke="none" d="M 416.419035512032 332.3253497152483 L 408 312 L 399.580964487968 332.3253497152483"/></g><g transform="translate(-14,-69) scale(1,1)"><path fill="none" stroke="#000000" d="M 416.419035512032 332.3253497152483 L 408 312 L 399.580964487968 332.3253497152483 L 416.419035512032 332.3253497152483" stroke-miterlimit="10"/></g><g transform="translate(-14,-69) scale(1,1)"><rect fill="#C0C0C0" stroke="none" x="431" y="423" width="128" height="50" opacity="0.2"/></g><g transform="translate(-14,-69) scale(1,1)"><rect fill="#ffffff" stroke="none" x="424" y="416" width="128" height="50"/></g><g transform="translate(-14,-69) scale(1,1)"><path fill="none" stroke="#000000" d="M 424 416 L 552 416 L 552 466 L 424 466 L 424 416 Z Z" stroke-miterlimit="10"/></g><g transform="translate(-14,-69) scale(1,1)"><g><path fill="none" stroke="none"/><text fill="#000000" stroke="none" font-family="Arial" font-size="13px" font-style="normal" font-weight="bold" text-decoration="none" x="450.056884765625" y="435.5">Responsable</text><text fill="#000000" stroke="none" font-family="Arial" font-size="13px" font-style="normal" font-weight="bold" text-decoration="none" x="465.240478515625" y="448.5">Técnico</text></g></g><g transform="translate(-14,-69) scale(1,1)"><path fill="none" stroke="#000000" d="M 424 440 L 392 440 M 392 440 A 8 8 0 0 1 384 432 L 384 312" stroke-miterlimit="10"/></g><g transform="translate(-14,-69) scale(1,1)"><path fill="#FFFFFF" stroke="none" d="M 392.419035512032 332.3253497152483 L 384 312 L 375.580964487968 332.3253497152483"/></g><g transform="translate(-14,-69) scale(1,1)"><path fill="none" stroke="#000000" d="M 392.419035512032 332.3253497152483 L 384 312 L 375.580964487968 332.3253497152483 L 392.419035512032 332.3253497152483" stroke-miterlimit="10"/></g><g transform="translate(-14,-69) scale(1,1)"><rect fill="#C0C0C0" stroke="none" x="31" y="223" width="152" height="40" opacity="0.2"/></g><g transform="translate(-14,-69) scale(1,1)"><rect fill="#ffffff" stroke="none" x="24" y="216" width="152" height="40"/></g><g transform="translate(-14,-69) scale(1,1)"><path fill="none" stroke="#000000" d="M 24 216 L 176 216 L 176 256 L 24 256 L 24 216 Z Z" stroke-miterlimit="10"/></g><g transform="translate(-14,-69) scale(1,1)"><g><path fill="none" stroke="none"/><text fill="#000000" stroke="none" font-family="Arial" font-size="13px" font-style="normal" font-weight="bold" text-decoration="none" x="70.734130859375" y="235.5">Institución</text></g></g><g transform="translate(-14,-69) scale(1,1)"><g><path fill="none" stroke="none"/><text fill="#000000" stroke="none" font-family="Arial" font-size="13px" font-style="normal" font-weight="normal" text-decoration="none" x="44.734130859375" y="250.5">(from Instituciones)</text></g></g><g transform="translate(-14,-69) scale(1,1)"><path fill="none" stroke="#000000" d="M 288 240 L 176 240" stroke-miterlimit="10"/></g><g transform="translate(-14,-69) scale(1,1)"><path fill="none" stroke="#000000" d="M 186.16267485762415 235.790482243984 L 176 240 L 186.16267485762415 244.209517756016" stroke-miterlimit="10"/></g><g transform="translate(-14,-69) scale(1,1)"><g><path fill="none" stroke="none"/><text fill="#000000" stroke="none" font-family="Arial" font-size="13px" font-style="normal" font-weight="normal" text-decoration="none" x="195.5" y="261.5">+adscrito en</text></g></g><g transform="translate(-14,-69) scale(1,1)"><g><path fill="none" stroke="none"/><text fill="#000000" stroke="none" font-family="Arial" font-size="13px" font-style="normal" font-weight="normal" text-decoration="none" x="186.74365234375" y="233.5">0..*</text></g></g><g transform="translate(-14,-69) scale(1,1)"><rect fill="#C0C0C0" stroke="none" x="239" y="431" width="80.51904296875" height="44" opacity="0.2"/></g><g transform="translate(-14,-69) scale(1,1)"><rect fill="#ffffff" stroke="none" x="232" y="424" width="80.51904296875" height="44"/></g><g transform="translate(-14,-69) scale(1,1)"><path fill="none" stroke="#000000" d="M 232 424 L 312.51904296875 424 L 312.51904296875 468 L 232 468 L 232 424 Z Z" stroke-miterlimit="10"/></g><g transform="translate(-14,-69) scale(1,1)"><g><path fill="none" stroke="none"/><text fill="#000000" stroke="none" font-family="Arial" font-size="13px" font-style="normal" font-weight="bold" text-decoration="none" x="239.02001953125" y="443.5">Catedrático</text></g></g><g transform="translate(-14,-69) scale(1,1)"><path fill="none" stroke="#000000" d="M 313 440 L 352 440 M 352 440 A 8 8 0 0 0 360 432 L 360 312" stroke-miterlimit="10"/></g><g transform="translate(-14,-69) scale(1,1)"><path fill="#FFFFFF" stroke="none" d="M 368.419035512032 332.3253497152483 L 360 312 L 351.580964487968 332.3253497152483"/></g><g transform="translate(-14,-69) scale(1,1)"><path fill="none" stroke="#000000" d="M 368.419035512032 332.3253497152483 L 360 312 L 351.580964487968 332.3253497152483 L 368.419035512032 332.3253497152483" stroke-miterlimit="10"/></g><g transform="translate(-14,-69) scale(1,1)"><rect fill="#C0C0C0" stroke="none" x="519" y="87" width="152" height="44" opacity="0.2"/></g><g transform="translate(-14,-69) scale(1,1)"><rect fill="#ffffff" stroke="none" x="512" y="80" width="152" height="44"/></g><g transform="translate(-14,-69) scale(1,1)"><path fill="none" stroke="#000000" d="M 512 80 L 664 80 L 664 124 L 512 124 L 512 80 Z Z" stroke-miterlimit="10"/></g><g transform="translate(-14,-69) scale(1,1)"><g><path fill="none" stroke="none"/><text fill="#000000" stroke="none" font-family="Arial" font-size="13px" font-style="normal" font-weight="bold" text-decoration="none" x="569.2109375" y="99.5">Redes</text><text fill="#000000" stroke="none" font-family="Arial" font-size="13px" font-style="normal" font-weight="bold" text-decoration="none" x="524.79638671875" y="112.5">Temáticas-CONACYT</text></g></g><g transform="translate(-14,-69) scale(1,1)"><rect fill="#C0C0C0" stroke="none" x="103" y="95" width="160" height="44" opacity="0.2"/></g><g transform="translate(-14,-69) scale(1,1)"><rect fill="#ffffff" stroke="none" x="96" y="88" width="160" height="44"/></g><g transform="translate(-14,-69) scale(1,1)"><path fill="none" stroke="#000000" d="M 96 88 L 256 88 L 256 132 L 96 132 L 96 88 Z Z" stroke-miterlimit="10"/></g><g transform="translate(-14,-69) scale(1,1)"><g><path fill="none" stroke="none"/><text fill="#000000" stroke="none" font-family="Arial" font-size="13px" font-style="normal" font-weight="bold" text-decoration="none" x="139.865966796875" y="107.5">Laboratorios</text><text fill="#000000" stroke="none" font-family="Arial" font-size="13px" font-style="normal" font-weight="bold" text-decoration="none" x="110.25732421875" y="120.5">Nacionales CONACYT</text></g></g><g transform="translate(-14,-69) scale(1,1)"><path fill="none" stroke="#000000" d="M 408 176 L 408 110 M 408 110 A 8 8 0 0 1 416 102 L 512 102" stroke-miterlimit="10"/></g><g transform="translate(-14,-69) scale(1,1)"><g><path fill="none" stroke="none"/><text fill="#000000" stroke="none" font-family="Arial" font-size="13px" font-style="normal" font-weight="normal" text-decoration="none" x="434.5" y="92.5">+participa en</text></g></g><g transform="translate(-14,-69) scale(1,1)"><g><path fill="none" stroke="none"/><text fill="#000000" stroke="none" font-family="Arial" font-size="13px" font-style="normal" font-weight="normal" text-decoration="none" x="410.5" y="160.5">0..*</text></g></g><g transform="translate(-14,-69) scale(1,1)"><g><path fill="none" stroke="none"/><text fill="#000000" stroke="none" font-family="Arial" font-size="13px" font-style="normal" font-weight="normal" text-decoration="none" x="480.5" y="120.5">0..*</text></g></g><g transform="translate(-14,-69) scale(1,1)"><path fill="none" stroke="#000000" d="M 368 176 L 368 112 M 368 112 A 8 8 0 0 0 360 104 L 256 104" stroke-miterlimit="10"/></g><g transform="translate(-14,-69) scale(1,1)"><g><path fill="none" stroke="none"/><text fill="#000000" stroke="none" font-family="Arial" font-size="13px" font-style="normal" font-weight="normal" text-decoration="none" x="286.5" y="91.5">+participa en</text></g></g><g transform="translate(-14,-69) scale(1,1)"><g><path fill="none" stroke="none"/><text fill="#000000" stroke="none" font-family="Arial" font-size="13px" font-style="normal" font-weight="normal" text-decoration="none" x="341.5" y="160.5">0..*</text></g></g><g transform="translate(-14,-69) scale(1,1)"><g><path fill="none" stroke="none"/><text fill="#000000" stroke="none" font-family="Arial" font-size="13px" font-style="normal" font-weight="normal" text-decoration="none" x="267.5" y="125.5">0..*</text></g></g><g transform="translate(-14,-69) scale(1,1)"><path fill="none" stroke="#000000" d="M 448 208 L 608 208" stroke-miterlimit="10"/></g><g transform="translate(-14,-69) scale(1,1)"><g><path fill="none" stroke="none"/><text fill="#000000" stroke="none" font-family="Arial" font-size="13px" font-style="normal" font-weight="normal" text-decoration="none" x="453.90087890625" y="185.5">+responsable</text><text fill="#000000" stroke="none" font-family="Arial" font-size="13px" font-style="normal" font-weight="normal" text-decoration="none" x="472.515380859375" y="198.5">técnico</text></g></g><g transform="translate(-14,-69) scale(1,1)"><g><path fill="none" stroke="none"/><text fill="#000000" stroke="none" font-family="Arial" font-size="13px" font-style="normal" font-weight="normal" text-decoration="none" x="465.641357421875" y="226.5">1</text></g></g><g transform="translate(-14,-69) scale(1,1)"><g><path fill="none" stroke="none"/><text fill="#000000" stroke="none" font-family="Arial" font-size="13px" font-style="normal" font-weight="normal" text-decoration="none" x="576.5" y="226.5">0..*</text></g></g><g transform="translate(-14,-69) scale(1,1)"><path fill="none" stroke="#000000" d="M 448 280 L 608 280" stroke-miterlimit="10"/></g><g transform="translate(-14,-69) scale(1,1)"><g><path fill="none" stroke="none"/><text fill="#000000" stroke="none" font-family="Arial" font-size="13px" font-style="normal" font-weight="normal" text-decoration="none" x="454.5" y="265.5">+co-responsable</text><text fill="#000000" stroke="none" font-family="Arial" font-size="13px" font-style="normal" font-weight="normal" text-decoration="none" x="482.14404296875" y="278.5">técnico</text></g></g><g transform="translate(-14,-69) scale(1,1)"><g><path fill="none" stroke="none"/><text fill="#000000" stroke="none" font-family="Arial" font-size="13px" font-style="normal" font-weight="normal" text-decoration="none" x="459.5" y="298.5">0..*</text></g></g><g transform="translate(-14,-69) scale(1,1)"><g><path fill="none" stroke="none"/><text fill="#000000" stroke="none" font-family="Arial" font-size="13px" font-style="normal" font-weight="normal" text-decoration="none" x="576.5" y="298.5">0..*</text></g></g><g transform="translate(-14,-69) scale(1,1)"><rect fill="#C0C0C0" stroke="none" x="615" y="191" width="98.57177734375" height="120" opacity="0.2"/></g><g transform="translate(-14,-69) scale(1,1)"><rect fill="#ffadad" stroke="none" x="608" y="184" width="98.57177734375" height="120"/></g><g transform="translate(-14,-69) scale(1,1)"><path fill="none" stroke="#000000" d="M 608 184 L 706.57177734375 184 L 706.57177734375 304 L 608 304 L 608 184 Z Z" stroke-miterlimit="10"/></g><g transform="translate(-14,-69) scale(1,1)"><g><path fill="none" stroke="none"/><text fill="#000000" stroke="none" font-family="Arial" font-size="13px" font-style="normal" font-weight="bold" text-decoration="none" x="631.635009765625" y="203.5">Proyecto</text></g></g><g transform="translate(-14,-69) scale(1,1)"><g><path fill="none" stroke="none"/><text fill="#000000" stroke="none" font-family="Arial" font-size="13px" font-style="normal" font-weight="normal" text-decoration="none" x="612.5" y="218.5">(from Proyecto)</text></g></g></g></svg>