<svg version="1.1" xmlns="http://www.w3.org/2000/svg" xmlns:xlink="http://www.w3.org/1999/xlink" width="692" height="415"><defs></defs><g><g transform="translate(-14,-69) scale(1,1)"><rect fill="#C0C0C0" stroke="none" x="295" y="183" width="160" height="136" opacity="0.2"></rect></g><g transform="translate(-14,-69) scale(1,1)"><rect fill="#ffffff" stroke="none" x="288" y="176" width="160" height="136"></rect></g><g transform="translate(-14,-69) scale(1,1)"><path fill="none" stroke="#000000" d="M 288 176 L 448 176 L 448 312 L 288 312 L 288 176 Z Z" stroke-miterlimit="10"></path></g><g transform="translate(-14,-69) scale(1,1)"><g><path fill="none" stroke="none"></path><text fill="#000000" stroke="none" font-family="Arial" font-size="13px" font-style="normal" font-weight="normal" text-decoration="none" x="351.5" y="193.5">«Rol»</text></g></g><g transform="translate(-14,-69) scale(1,1)"><g><path fill="none" stroke="none"></path><text fill="#000000" stroke="none" font-family="Arial" font-size="13px" font-style="normal" font-weight="bold" text-decoration="none" x="332.5" y="208.5">Investigador</text></g></g><g transform="translate(-14,-69) scale(1,1)"><rect fill="#C0C0C0" stroke="none" x="191" y="367" width="128.62451171875" height="50" opacity="0.2"></rect></g><g transform="translate(-14,-69) scale(1,1)"><rect fill="#ffffff" stroke="none" x="184" y="360" width="128.62451171875" height="50"></rect></g><g transform="translate(-14,-69) scale(1,1)"><path fill="none" stroke="#000000" d="M 184 360 L 312.62451171875 360 L 312.62451171875 410 L 184 410 L 184 360 Z Z" stroke-miterlimit="10"></path></g><g transform="translate(-14,-69) scale(1,1)"><g><path fill="none" stroke="none"></path><text fill="#000000" stroke="none" font-family="Arial" font-size="13px" font-style="normal" font-weight="normal" text-decoration="none" x="231.812255859375" y="377.5">«Rol»</text></g></g><g transform="translate(-14,-69) scale(1,1)"><g><path fill="none" stroke="none"></path><text fill="#000000" stroke="none" font-family="Arial" font-size="13px" font-style="normal" font-weight="bold" text-decoration="none" x="212.812255859375" y="392.5">Investigador</text><text fill="#000000" stroke="none" font-family="Arial" font-size="13px" font-style="normal" font-weight="bold" text-decoration="none" x="212.812255859375" y="405.5">Consolidado</text></g></g><g transform="translate(-14,-69) scale(1,1)"><rect fill="#C0C0C0" stroke="none" x="431" y="367" width="127.47900390625" height="50" opacity="0.2"></rect></g><g transform="translate(-14,-69) scale(1,1)"><rect fill="#ffffff" stroke="none" x="424" y="360" width="127.47900390625" height="50"></rect></g><g transform="translate(-14,-69) scale(1,1)"><path fill="none" stroke="#000000" d="M 424 360 L 551.47900390625 360 L 551.47900390625 410 L 424 410 L 424 360 Z Z" stroke-miterlimit="10"></path></g><g transform="translate(-14,-69) scale(1,1)"><g><path fill="none" stroke="none"></path><text fill="#000000" stroke="none" font-family="Arial" font-size="13px" font-style="normal" font-weight="normal" text-decoration="none" x="471.239501953125" y="377.5">«Rol»</text></g></g><g transform="translate(-14,-69) scale(1,1)"><g><path fill="none" stroke="none"></path><text fill="#000000" stroke="none" font-family="Arial" font-size="13px" font-style="normal" font-weight="bold" text-decoration="none" x="452.239501953125" y="392.5">Investigador</text><text fill="#000000" stroke="none" font-family="Arial" font-size="13px" font-style="normal" font-weight="bold" text-decoration="none" x="470.239501953125" y="405.5">Joven</text></g></g><g transform="translate(-14,-69) scale(1,1)"><path fill="none" stroke="#000000" d="M 313 390 L 328 390 M 328 390 A 8 8 0 0 0 336 382 L 336 312" stroke-miterlimit="10"></path></g><g transform="translate(-14,-69) scale(1,1)"><path fill="#FFFFFF" stroke="none" d="M 344.419035512032 332.3253497152483 L 336 312 L 327.580964487968 332.3253497152483"></path></g><g transform="translate(-14,-69) scale(1,1)"><path fill="none" stroke="#000000" d="M 344.419035512032 332.3253497152483 L 336 312 L 327.580964487968 332.3253497152483 L 344.419035512032 332.3253497152483" stroke-miterlimit="10"></path></g><g transform="translate(-14,-69) scale(1,1)"><path fill="none" stroke="#000000" d="M 424 392 L 416 392 M 416 392 A 8 8 0 0 1 408 384 L 408 312" stroke-miterlimit="10"></path></g><g transform="translate(-14,-69) scale(1,1)"><path fill="#FFFFFF" stroke="none" d="M 416.419035512032 332.3253497152483 L 408 312 L 399.580964487968 332.3253497152483"></path></g><g transform="translate(-14,-69) scale(1,1)"><path fill="none" stroke="#000000" d="M 416.419035512032 332.3253497152483 L 408 312 L 399.580964487968 332.3253497152483 L 416.419035512032 332.3253497152483" stroke-miterlimit="10"></path></g><g transform="translate(-14,-69) scale(1,1)"><rect fill="#C0C0C0" stroke="none" x="431" y="431" width="128" height="50" opacity="0.2"></rect></g><g transform="translate(-14,-69) scale(1,1)"><rect fill="#ffffff" stroke="none" x="424" y="424" width="128" height="50"></rect></g><g transform="translate(-14,-69) scale(1,1)"><path fill="none" stroke="#000000" d="M 424 424 L 552 424 L 552 474 L 424 474 L 424 424 Z Z" stroke-miterlimit="10"></path></g><g transform="translate(-14,-69) scale(1,1)"><g><path fill="none" stroke="none"></path><text fill="#000000" stroke="none" font-family="Arial" font-size="13px" font-style="normal" font-weight="normal" text-decoration="none" x="471.5" y="441.5">«Rol»</text></g></g><g transform="translate(-14,-69) scale(1,1)"><g><path fill="none" stroke="none"></path><text fill="#000000" stroke="none" font-family="Arial" font-size="13px" font-style="normal" font-weight="bold" text-decoration="none" x="450.5" y="456.5">Responsable</text><text fill="#000000" stroke="none" font-family="Arial" font-size="13px" font-style="normal" font-weight="bold" text-decoration="none" x="465" y="469.5">Técnico</text></g></g><g transform="translate(-14,-69) scale(1,1)"><path fill="none" stroke="#000000" d="M 424 440 L 392 440 M 392 440 A 8 8 0 0 1 384 432 L 384 312" stroke-miterlimit="10"></path></g><g transform="translate(-14,-69) scale(1,1)"><path fill="#FFFFFF" stroke="none" d="M 392.419035512032 332.3253497152483 L 384 312 L 375.580964487968 332.3253497152483"></path></g><g transform="translate(-14,-69) scale(1,1)"><path fill="none" stroke="#000000" d="M 392.419035512032 332.3253497152483 L 384 312 L 375.580964487968 332.3253497152483 L 392.419035512032 332.3253497152483" stroke-miterlimit="10"></path></g><g transform="translate(-14,-69) scale(1,1)"><rect fill="#C0C0C0" stroke="none" x="31" y="191" width="152" height="40" opacity="0.2"></rect></g><g transform="translate(-14,-69) scale(1,1)"><rect fill="#ffffff" stroke="none" x="24" y="184" width="152" height="40"></rect></g><g transform="translate(-14,-69) scale(1,1)"><path fill="none" stroke="#000000" d="M 24 184 L 176 184 L 176 224 L 24 224 L 24 184 Z Z" stroke-miterlimit="10"></path></g><g transform="translate(-14,-69) scale(1,1)"><g><path fill="none" stroke="none"></path><text fill="#000000" stroke="none" font-family="Arial" font-size="13px" font-style="normal" font-weight="bold" text-decoration="none" x="70" y="203.5">Institución</text></g></g><g transform="translate(-14,-69) scale(1,1)"><g><path fill="none" stroke="none"></path><text fill="#000000" stroke="none" font-family="Arial" font-size="13px" font-style="normal" font-weight="normal" text-decoration="none" x="44" y="218.5">(from Instituciones)</text></g></g><g transform="translate(-14,-69) scale(1,1)"><path fill="none" stroke="#000000" d="M 288 200 L 176 200" stroke-miterlimit="10"></path></g><g transform="translate(-14,-69) scale(1,1)"><path fill="none" stroke="#000000" d="M 186.16267485762415 195.790482243984 L 176 200 L 186.16267485762415 204.209517756016" stroke-miterlimit="10"></path></g><g transform="translate(-14,-69) scale(1,1)"><g><path fill="none" stroke="none"></path><text fill="#000000" stroke="none" font-family="Arial" font-size="13px" font-style="normal" font-weight="normal" text-decoration="none" x="194.5" y="221.5">+adscrito en</text></g></g><g transform="translate(-14,-69) scale(1,1)"><g><path fill="none" stroke="none"></path><text fill="#000000" stroke="none" font-family="Arial" font-size="13px" font-style="normal" font-weight="normal" text-decoration="none" x="186.5" y="193.5">0..*</text></g></g><g transform="translate(-14,-69) scale(1,1)"><rect fill="#C0C0C0" stroke="none" x="191" y="431" width="128" height="50" opacity="0.2"></rect></g><g transform="translate(-14,-69) scale(1,1)"><rect fill="#ffffff" stroke="none" x="184" y="424" width="128" height="50"></rect></g><g transform="translate(-14,-69) scale(1,1)"><path fill="none" stroke="#000000" d="M 184 424 L 312 424 L 312 474 L 184 474 L 184 424 Z Z" stroke-miterlimit="10"></path></g><g transform="translate(-14,-69) scale(1,1)"><g><path fill="none" stroke="none"></path><text fill="#000000" stroke="none" font-family="Arial" font-size="13px" font-style="normal" font-weight="normal" text-decoration="none" x="231.5" y="441.5">«Rol»</text></g></g><g transform="translate(-14,-69) scale(1,1)"><g><path fill="none" stroke="none"></path><text fill="#000000" stroke="none" font-family="Arial" font-size="13px" font-style="normal" font-weight="bold" text-decoration="none" x="215" y="456.5">Catedrático</text></g></g><g transform="translate(-14,-69) scale(1,1)"><path fill="none" stroke="#000000" d="M 312 440 L 352 440 M 352 440 A 8 8 0 0 0 360 432 L 360 312" stroke-miterlimit="10"></path></g><g transform="translate(-14,-69) scale(1,1)"><path fill="#FFFFFF" stroke="none" d="M 368.419035512032 332.3253497152483 L 360 312 L 351.580964487968 332.3253497152483"></path></g><g transform="translate(-14,-69) scale(1,1)"><path fill="none" stroke="#000000" d="M 368.419035512032 332.3253497152483 L 360 312 L 351.580964487968 332.3253497152483 L 368.419035512032 332.3253497152483" stroke-miterlimit="10"></path></g><g transform="translate(-14,-69) scale(1,1)"><rect fill="#C0C0C0" stroke="none" x="519" y="87" width="152" height="44" opacity="0.2"></rect></g><g transform="translate(-14,-69) scale(1,1)"><rect fill="#ffffff" stroke="none" x="512" y="80" width="152" height="44"></rect></g><g transform="translate(-14,-69) scale(1,1)"><path fill="none" stroke="#000000" d="M 512 80 L 664 80 L 664 124 L 512 124 L 512 80 Z Z" stroke-miterlimit="10"></path></g><g transform="translate(-14,-69) scale(1,1)"><g><path fill="none" stroke="none"></path><text fill="#000000" stroke="none" font-family="Arial" font-size="13px" font-style="normal" font-weight="bold" text-decoration="none" x="569.5" y="99.5">Redes</text><text fill="#000000" stroke="none" font-family="Arial" font-size="13px" font-style="normal" font-weight="bold" text-decoration="none" x="524" y="112.5">Temáticas-CONACYT</text></g></g><g transform="translate(-14,-69) scale(1,1)"><rect fill="#C0C0C0" stroke="none" x="103" y="95" width="160" height="44" opacity="0.2"></rect></g><g transform="translate(-14,-69) scale(1,1)"><rect fill="#ffffff" stroke="none" x="96" y="88" width="160" height="44"></rect></g><g transform="translate(-14,-69) scale(1,1)"><path fill="none" stroke="#000000" d="M 96 88 L 256 88 L 256 132 L 96 132 L 96 88 Z Z" stroke-miterlimit="10"></path></g><g transform="translate(-14,-69) scale(1,1)"><g><path fill="none" stroke="none"></path><text fill="#000000" stroke="none" font-family="Arial" font-size="13px" font-style="normal" font-weight="bold" text-decoration="none" x="140.5" y="107.5">Laboratorios</text><text fill="#000000" stroke="none" font-family="Arial" font-size="13px" font-style="normal" font-weight="bold" text-decoration="none" x="110.5" y="120.5">Nacionales CONACYT</text></g></g><g transform="translate(-14,-69) scale(1,1)"><path fill="none" stroke="#000000" d="M 408 176 L 408 110 M 408 110 A 8 8 0 0 1 416 102 L 512 102" stroke-miterlimit="10"></path></g><g transform="translate(-14,-69) scale(1,1)"><g><path fill="none" stroke="none"></path><text fill="#000000" stroke="none" font-family="Arial" font-size="13px" font-style="normal" font-weight="normal" text-decoration="none" x="434.5" y="92.5">+participa en</text></g></g><g transform="translate(-14,-69) scale(1,1)"><g><path fill="none" stroke="none"></path><text fill="#000000" stroke="none" font-family="Arial" font-size="13px" font-style="normal" font-weight="normal" text-decoration="none" x="409.5" y="160.5">0..*</text></g></g><g transform="translate(-14,-69) scale(1,1)"><g><path fill="none" stroke="none"></path><text fill="#000000" stroke="none" font-family="Arial" font-size="13px" font-style="normal" font-weight="normal" text-decoration="none" x="479.5" y="120.5">0..*</text></g></g><g transform="translate(-14,-69) scale(1,1)"><path fill="none" stroke="#000000" d="M 368 176 L 368 112 M 368 112 A 8 8 0 0 0 360 104 L 256 104" stroke-miterlimit="10"></path></g><g transform="translate(-14,-69) scale(1,1)"><g><path fill="none" stroke="none"></path><text fill="#000000" stroke="none" font-family="Arial" font-size="13px" font-style="normal" font-weight="normal" text-decoration="none" x="286.5" y="91.5">+participa en</text></g></g><g transform="translate(-14,-69) scale(1,1)"><g><path fill="none" stroke="none"></path><text fill="#000000" stroke="none" font-family="Arial" font-size="13px" font-style="normal" font-weight="normal" text-decoration="none" x="340.5" y="160.5">0..*</text></g></g><g transform="translate(-14,-69) scale(1,1)"><g><path fill="none" stroke="none"></path><text fill="#000000" stroke="none" font-family="Arial" font-size="13px" font-style="normal" font-weight="normal" text-decoration="none" x="266.5" y="125.5">0..*</text></g></g><g transform="translate(-14,-69) scale(1,1)"><rect fill="#C0C0C0" stroke="none" x="599" y="175" width="104" height="144" opacity="0.2"></rect></g><g transform="translate(-14,-69) scale(1,1)"><rect fill="#d8e5ff" stroke="none" x="592" y="168" width="104" height="144"></rect></g><g transform="translate(-14,-69) scale(1,1)"><path fill="none" stroke="#000000" d="M 592 168 L 696 168 L 696 312 L 592 312 L 592 168 Z Z" stroke-miterlimit="10"></path></g><g transform="translate(-14,-69) scale(1,1)"><g><path fill="none" stroke="none"></path><text fill="#000000" stroke="none" font-family="Arial" font-size="13px" font-style="normal" font-weight="bold" text-decoration="none" x="609" y="187.5">RegistroSNI</text></g></g><g transform="translate(-14,-69) scale(1,1)"><path fill="none" stroke="#000000" d="M 448 246 L 592 246" stroke-miterlimit="10"></path></g><g transform="translate(-14,-69) scale(1,1)"><g><path fill="none" stroke="none"></path><text fill="#000000" stroke="none" font-family="Arial" font-size="13px" font-style="normal" font-weight="normal" text-decoration="none" x="460.219970703125" y="228.5">+Miembro</text><text fill="#000000" stroke="none" font-family="Arial" font-size="13px" font-style="normal" font-weight="normal" text-decoration="none" x="478.219970703125" y="241.5">SNI</text></g></g><g transform="translate(-14,-69) scale(1,1)"><g><path fill="none" stroke="none"></path><text fill="#000000" stroke="none" font-family="Arial" font-size="13px" font-style="normal" font-weight="normal" text-decoration="none" x="458.5" y="264.5">0..*</text></g></g><g transform="translate(-14,-69) scale(1,1)"><g><path fill="none" stroke="none"></path><text fill="#000000" stroke="none" font-family="Arial" font-size="13px" font-style="normal" font-weight="normal" text-decoration="none" x="558.5" y="264.5">0..1</text></g></g></g></svg>