<svg version="1.1" xmlns="http://www.w3.org/2000/svg" xmlns:xlink="http://www.w3.org/1999/xlink" width="755.57177734375" height="525"><defs/><g><text fill="#eeeeee" stroke="none" font-family="Arial" font-size="24px" font-style="normal" font-weight="normal" text-decoration="none" x="0" y="0">UNREGISTERED</text><text fill="#eeeeee" stroke="none" font-family="Arial" font-size="24px" font-style="normal" font-weight="normal" text-decoration="none" x="0" y="30">UNREGISTERED</text><text fill="#eeeeee" stroke="none" font-family="Arial" font-size="24px" font-style="normal" font-weight="normal" text-decoration="none" x="0" y="60">UNREGISTERED</text><text fill="#eeeeee" stroke="none" font-family="Arial" font-size="24px" font-style="normal" font-weight="normal" text-decoration="none" x="0" y="90">UNREGISTERED</text><text fill="#eeeeee" stroke="none" font-family="Arial" font-size="24px" font-style="normal" font-weight="normal" text-decoration="none" x="0" y="120">UNREGISTERED</text><text fill="#eeeeee" stroke="none" font-family="Arial" font-size="24px" font-style="normal" font-weight="normal" text-decoration="none" x="0" y="150">UNREGISTERED</text><text fill="#eeeeee" stroke="none" font-family="Arial" font-size="24px" font-style="normal" font-weight="normal" text-decoration="none" x="0" y="180">UNREGISTERED</text><text fill="#eeeeee" stroke="none" font-family="Arial" font-size="24px" font-style="normal" font-weight="normal" text-decoration="none" x="0" y="210">UNREGISTERED</text><text fill="#eeeeee" stroke="none" font-family="Arial" font-size="24px" font-style="normal" font-weight="normal" text-decoration="none" x="0" y="240">UNREGISTERED</text><text fill="#eeeeee" stroke="none" font-family="Arial" font-size="24px" font-style="normal" font-weight="normal" text-decoration="none" x="0" y="270">UNREGISTERED</text><text fill="#eeeeee" stroke="none" font-family="Arial" font-size="24px" font-style="normal" font-weight="normal" text-decoration="none" x="0" y="300">UNREGISTERED</text><text fill="#eeeeee" stroke="none" font-family="Arial" font-size="24px" font-style="normal" font-weight="normal" text-decoration="none" x="0" y="330">UNREGISTERED</text><text fill="#eeeeee" stroke="none" font-family="Arial" font-size="24px" font-style="normal" font-weight="normal" text-decoration="none" x="0" y="360">UNREGISTERED</text><text fill="#eeeeee" stroke="none" font-family="Arial" font-size="24px" font-style="normal" font-weight="normal" text-decoration="none" x="0" y="390">UNREGISTERED</text><text fill="#eeeeee" stroke="none" font-family="Arial" font-size="24px" font-style="normal" font-weight="normal" text-decoration="none" x="0" y="420">UNREGISTERED</text><text fill="#eeeeee" stroke="none" font-family="Arial" font-size="24px" font-style="normal" font-weight="normal" text-decoration="none" x="0" y="450">UNREGISTERED</text><text fill="#eeeeee" stroke="none" font-family="Arial" font-size="24px" font-style="normal" font-weight="normal" text-decoration="none" x="0" y="480">UNREGISTERED</text><text fill="#eeeeee" stroke="none" font-family="Arial" font-size="24px" font-style="normal" font-weight="normal" text-decoration="none" x="0" y="510">UNREGISTERED</text><text fill="#eeeeee" stroke="none" font-family="Arial" font-size="24px" font-style="normal" font-weight="normal" text-decoration="none" x="200" y="0">UNREGISTERED</text><text fill="#eeeeee" stroke="none" font-family="Arial" font-size="24px" font-style="normal" font-weight="normal" text-decoration="none" x="200" y="30">UNREGISTERED</text><text fill="#eeeeee" stroke="none" font-family="Arial" font-size="24px" font-style="normal" font-weight="normal" text-decoration="none" x="200" y="60">UNREGISTERED</text><text fill="#eeeeee" stroke="none" font-family="Arial" font-size="24px" font-style="normal" font-weight="normal" text-decoration="none" x="200" y="90">UNREGISTERED</text><text fill="#eeeeee" stroke="none" font-family="Arial" font-size="24px" font-style="normal" font-weight="normal" text-decoration="none" x="200" y="120">UNREGISTERED</text><text fill="#eeeeee" stroke="none" font-family="Arial" font-size="24px" font-style="normal" font-weight="normal" text-decoration="none" x="200" y="150">UNREGISTERED</text><text fill="#eeeeee" stroke="none" font-family="Arial" font-size="24px" font-style="normal" font-weight="normal" text-decoration="none" x="200" y="180">UNREGISTERED</text><text fill="#eeeeee" stroke="none" font-family="Arial" font-size="24px" font-style="normal" font-weight="normal" text-decoration="none" x="200" y="210">UNREGISTERED</text><text fill="#eeeeee" stroke="none" font-family="Arial" font-size="24px" font-style="normal" font-weight="normal" text-decoration="none" x="200" y="240">UNREGISTERED</text><text fill="#eeeeee" stroke="none" font-family="Arial" font-size="24px" font-style="normal" font-weight="normal" text-decoration="none" x="200" y="270">UNREGISTERED</text><text fill="#eeeeee" stroke="none" font-family="Arial" font-size="24px" font-style="normal" font-weight="normal" text-decoration="none" x="200" y="300">UNREGISTERED</text><text fill="#eeeeee" stroke="none" font-family="Arial" font-size="24px" font-style="normal" font-weight="normal" text-decoration="none" x="200" y="330">UNREGISTERED</text><text fill="#eeeeee" stroke="none" font-family="Arial" font-size="24px" font-style="normal" font-weight="normal" text-decoration="none" x="200" y="360">UNREGISTERED</text><text fill="#eeeeee" stroke="none" font-family="Arial" font-size="24px" font-style="normal" font-weight="normal" text-decoration="none" x="200" y="390">UNREGISTERED</text><text fill="#eeeeee" stroke="none" font-family="Arial" font-size="24px" font-style="normal" font-weight="normal" text-decoration="none" x="200" y="420">UNREGISTERED</text><text fill="#eeeeee" stroke="none" font-family="Arial" font-size="24px" font-style="normal" font-weight="normal" text-decoration="none" x="200" y="450">UNREGISTERED</text><text fill="#eeeeee" stroke="none" font-family="Arial" font-size="24px" font-style="normal" font-weight="normal" text-decoration="none" x="200" y="480">UNREGISTERED</text><text fill="#eeeeee" stroke="none" font-family="Arial" font-size="24px" font-style="normal" font-weight="normal" text-decoration="none" x="200" y="510">UNREGISTERED</text><text fill="#eeeeee" stroke="none" font-family="Arial" font-size="24px" font-style="normal" font-weight="normal" text-decoration="none" x="400" y="0">UNREGISTERED</text><text fill="#eeeeee" stroke="none" font-family="Arial" font-size="24px" font-style="normal" font-weight="normal" text-decoration="none" x="400" y="30">UNREGISTERED</text><text fill="#eeeeee" stroke="none" font-family="Arial" font-size="24px" font-style="normal" font-weight="normal" text-decoration="none" x="400" y="60">UNREGISTERED</text><text fill="#eeeeee" stroke="none" font-family="Arial" font-size="24px" font-style="normal" font-weight="normal" text-decoration="none" x="400" y="90">UNREGISTERED</text><text fill="#eeeeee" stroke="none" font-family="Arial" font-size="24px" font-style="normal" font-weight="normal" text-decoration="none" x="400" y="120">UNREGISTERED</text><text fill="#eeeeee" stroke="none" font-family="Arial" font-size="24px" font-style="normal" font-weight="normal" text-decoration="none" x="400" y="150">UNREGISTERED</text><text fill="#eeeeee" stroke="none" font-family="Arial" font-size="24px" font-style="normal" font-weight="normal" text-decoration="none" x="400" y="180">UNREGISTERED</text><text fill="#eeeeee" stroke="none" font-family="Arial" font-size="24px" font-style="normal" font-weight="normal" text-decoration="none" x="400" y="210">UNREGISTERED</text><text fill="#eeeeee" stroke="none" font-family="Arial" font-size="24px" font-style="normal" font-weight="normal" text-decoration="none" x="400" y="240">UNREGISTERED</text><text fill="#eeeeee" stroke="none" font-family="Arial" font-size="24px" font-style="normal" font-weight="normal" text-decoration="none" x="400" y="270">UNREGISTERED</text><text fill="#eeeeee" stroke="none" font-family="Arial" font-size="24px" font-style="normal" font-weight="normal" text-decoration="none" x="400" y="300">UNREGISTERED</text><text fill="#eeeeee" stroke="none" font-family="Arial" font-size="24px" font-style="normal" font-weight="normal" text-decoration="none" x="400" y="330">UNREGISTERED</text><text fill="#eeeeee" stroke="none" font-family="Arial" font-size="24px" font-style="normal" font-weight="normal" text-decoration="none" x="400" y="360">UNREGISTERED</text><text fill="#eeeeee" stroke="none" font-family="Arial" font-size="24px" font-style="normal" font-weight="normal" text-decoration="none" x="400" y="390">UNREGISTERED</text><text fill="#eeeeee" stroke="none" font-family="Arial" font-size="24px" font-style="normal" font-weight="normal" text-decoration="none" x="400" y="420">UNREGISTERED</text><text fill="#eeeeee" stroke="none" font-family="Arial" font-size="24px" font-style="normal" font-weight="normal" text-decoration="none" x="400" y="450">UNREGISTERED</text><text fill="#eeeeee" stroke="none" font-family="Arial" font-size="24px" font-style="normal" font-weight="normal" text-decoration="none" x="400" y="480">UNREGISTERED</text><text fill="#eeeeee" stroke="none" font-family="Arial" font-size="24px" font-style="normal" font-weight="normal" text-decoration="none" x="400" y="510">UNREGISTERED</text><text fill="#eeeeee" stroke="none" font-family="Arial" font-size="24px" font-style="normal" font-weight="normal" text-decoration="none" x="600" y="0">UNREGISTERED</text><text fill="#eeeeee" stroke="none" font-family="Arial" font-size="24px" font-style="normal" font-weight="normal" text-decoration="none" x="600" y="30">UNREGISTERED</text><text fill="#eeeeee" stroke="none" font-family="Arial" font-size="24px" font-style="normal" font-weight="normal" text-decoration="none" x="600" y="60">UNREGISTERED</text><text fill="#eeeeee" stroke="none" font-family="Arial" font-size="24px" font-style="normal" font-weight="normal" text-decoration="none" x="600" y="90">UNREGISTERED</text><text fill="#eeeeee" stroke="none" font-family="Arial" font-size="24px" font-style="normal" font-weight="normal" text-decoration="none" x="600" y="120">UNREGISTERED</text><text fill="#eeeeee" stroke="none" font-family="Arial" font-size="24px" font-style="normal" font-weight="normal" text-decoration="none" x="600" y="150">UNREGISTERED</text><text fill="#eeeeee" stroke="none" font-family="Arial" font-size="24px" font-style="normal" font-weight="normal" text-decoration="none" x="600" y="180">UNREGISTERED</text><text fill="#eeeeee" stroke="none" font-family="Arial" font-size="24px" font-style="normal" font-weight="normal" text-decoration="none" x="600" y="210">UNREGISTERED</text><text fill="#eeeeee" stroke="none" font-family="Arial" font-size="24px" font-style="normal" font-weight="normal" text-decoration="none" x="600" y="240">UNREGISTERED</text><text fill="#eeeeee" stroke="none" font-family="Arial" font-size="24px" font-style="normal" font-weight="normal" text-decoration="none" x="600" y="270">UNREGISTERED</text><text fill="#eeeeee" stroke="none" font-family="Arial" font-size="24px" font-style="normal" font-weight="normal" text-decoration="none" x="600" y="300">UNREGISTERED</text><text fill="#eeeeee" stroke="none" font-family="Arial" font-size="24px" font-style="normal" font-weight="normal" text-decoration="none" x="600" y="330">UNREGISTERED</text><text fill="#eeeeee" stroke="none" font-family="Arial" font-size="24px" font-style="normal" font-weight="normal" text-decoration="none" x="600" y="360">UNREGISTERED</text><text fill="#eeeeee" stroke="none" font-family="Arial" font-size="24px" font-style="normal" font-weight="normal" text-decoration="none" x="600" y="390">UNREGISTERED</text><text fill="#eeeeee" stroke="none" font-family="Arial" font-size="24px" font-style="normal" font-weight="normal" text-decoration="none" x="600" y="420">UNREGISTERED</text><text fill="#eeeeee" stroke="none" font-family="Arial" font-size="24px" font-style="normal" font-weight="normal" text-decoration="none" x="600" y="450">UNREGISTERED</text><text fill="#eeeeee" stroke="none" font-family="Arial" font-size="24px" font-style="normal" font-weight="normal" text-decoration="none" x="600" y="480">UNREGISTERED</text><text fill="#eeeeee" stroke="none" font-family="Arial" font-size="24px" font-style="normal" font-weight="normal" text-decoration="none" x="600" y="510">UNREGISTERED</text><g transform="translate(-550,-62) scale(1,1)"><rect fill="#C0C0C0" stroke="none" x="687" y="79" width="392" height="472" opacity="0.2"/></g><g transform="translate(-550,-62) scale(1,1)"><rect fill="#ffffff" stroke="none" x="680" y="72" width="392" height="472"/></g><g transform="translate(-550,-62) scale(1,1)"><path fill="none" stroke="#000000" d="M 680 72 L 1072 72 L 1072 544 L 680 544 L 680 72 Z Z" stroke-miterlimit="10"/></g><g transform="translate(-550,-62) scale(1,1)"><g><path fill="none" stroke="none"/><text fill="#000000" stroke="none" font-family="Arial" font-size="13px" font-style="normal" font-weight="normal" text-decoration="none" x="846.37548828125" y="89.5">«sistema»</text></g></g><g transform="translate(-550,-62) scale(1,1)"><g><path fill="none" stroke="none"/><text fill="#000000" stroke="none" font-family="Arial" font-size="13px" font-style="normal" font-weight="bold" text-decoration="none" x="818.5537109375" y="104.5">CIencia de Frontera</text></g></g><g transform="translate(-550,-62) scale(1,1)"><path fill="#C0C0C0" stroke="none" d="M 810 169 C 810 154.6405952 847.6080768 143 894 143 C 940.3919232 143 978 154.6405952 978 169 C 978 183.3594048 940.3919232 195 894 195 C 847.6080768 195 810 183.3594048 810 169 Z" opacity="0.2"/></g><g transform="translate(-550,-62) scale(1,1)"><path fill="#ffffff" stroke="none" d="M 803 162 C 803 147.6405952 840.6080768 136 887 136 C 933.3919232 136 971 147.6405952 971 162 C 971 176.3594048 933.3919232 188 887 188 C 840.6080768 188 803 176.3594048 803 162 Z"/></g><g transform="translate(-550,-62) scale(1,1)"><path fill="none" stroke="#000000" d="M 803 162 C 803 147.6405952 840.6080768 136 887 136 C 933.3919232 136 971 147.6405952 971 162 C 971 176.3594048 933.3919232 188 887 188 C 840.6080768 188 803 176.3594048 803 162 Z" stroke-miterlimit="10"/></g><g transform="translate(-550,-62) scale(1,1)"><g><path fill="none" stroke="none"/><text fill="#000000" stroke="none" font-family="Arial" font-size="13px" font-style="normal" font-weight="bold" text-decoration="none" x="840.754150390625" y="169">crear Propuesta</text></g></g><g transform="translate(-550,-62) scale(1,1)"><path fill="#C0C0C0" stroke="none" d="M 810 226 C 810 211.6405952 847.6080768 200 894 200 C 940.3919232 200 978 211.6405952 978 226 C 978 240.3594048 940.3919232 252 894 252 C 847.6080768 252 810 240.3594048 810 226 Z" opacity="0.2"/></g><g transform="translate(-550,-62) scale(1,1)"><path fill="#ffffff" stroke="none" d="M 803 219 C 803 204.6405952 840.6080768 193 887 193 C 933.3919232 193 971 204.6405952 971 219 C 971 233.3594048 933.3919232 245 887 245 C 840.6080768 245 803 233.3594048 803 219 Z"/></g><g transform="translate(-550,-62) scale(1,1)"><path fill="none" stroke="#000000" d="M 803 219 C 803 204.6405952 840.6080768 193 887 193 C 933.3919232 193 971 204.6405952 971 219 C 971 233.3594048 933.3919232 245 887 245 C 840.6080768 245 803 233.3594048 803 219 Z" stroke-miterlimit="10"/></g><g transform="translate(-550,-62) scale(1,1)"><g><path fill="none" stroke="none"/><text fill="#000000" stroke="none" font-family="Arial" font-size="13px" font-style="normal" font-weight="bold" text-decoration="none" x="850.869140625" y="219.5">Autenticarse</text><text fill="#000000" stroke="none" font-family="Arial" font-size="13px" font-style="normal" font-weight="bold" text-decoration="none" x="842.1982421875" y="232.5">ante el Sistema</text></g></g><g transform="translate(-550,-62) scale(1,1)"><path fill="#C0C0C0" stroke="none" d="M 810 292.5 C 810 272.8938896 847.6080768 257 894 257 C 940.3919232 257 978 272.8938896 978 292.5 C 978 312.1061104 940.3919232 328 894 328 C 847.6080768 328 810 312.1061104 810 292.5 Z" opacity="0.2"/></g><g transform="translate(-550,-62) scale(1,1)"><path fill="#ffffff" stroke="none" d="M 803 285.5 C 803 265.8938896 840.6080768 250 887 250 C 933.3919232 250 971 265.8938896 971 285.5 C 971 305.1061104 933.3919232 321 887 321 C 840.6080768 321 803 305.1061104 803 285.5 Z"/></g><g transform="translate(-550,-62) scale(1,1)"><path fill="none" stroke="#000000" d="M 803 285.5 C 803 265.8938896 840.6080768 250 887 250 C 933.3919232 250 971 265.8938896 971 285.5 C 971 305.1061104 933.3919232 321 887 321 C 840.6080768 321 803 305.1061104 803 285.5 Z" stroke-miterlimit="10"/></g><g transform="translate(-550,-62) scale(1,1)"><g><path fill="none" stroke="none"/><text fill="#000000" stroke="none" font-family="Arial" font-size="13px" font-style="normal" font-weight="bold" text-decoration="none" x="854.1318359375" y="279.5">Administrar</text><text fill="#000000" stroke="none" font-family="Arial" font-size="13px" font-style="normal" font-weight="bold" text-decoration="none" x="854.119140625" y="292.5">Bitácora de</text><text fill="#000000" stroke="none" font-family="Arial" font-size="13px" font-style="normal" font-weight="bold" text-decoration="none" x="850.1455078125" y="305.5">Operaciones</text></g></g><g transform="translate(-550,-62) scale(1,1)"><path fill="#C0C0C0" stroke="none" d="M 810 386.5 C 810 366.8938896 847.6080768 351 894 351 C 940.3919232 351 978 366.8938896 978 386.5 C 978 406.1061104 940.3919232 422 894 422 C 847.6080768 422 810 406.1061104 810 386.5 Z" opacity="0.2"/></g><g transform="translate(-550,-62) scale(1,1)"><path fill="#ffffff" stroke="none" d="M 803 379.5 C 803 359.8938896 840.6080768 344 887 344 C 933.3919232 344 971 359.8938896 971 379.5 C 971 399.1061104 933.3919232 415 887 415 C 840.6080768 415 803 399.1061104 803 379.5 Z"/></g><g transform="translate(-550,-62) scale(1,1)"><path fill="none" stroke="#000000" d="M 803 379.5 C 803 359.8938896 840.6080768 344 887 344 C 933.3919232 344 971 359.8938896 971 379.5 C 971 399.1061104 933.3919232 415 887 415 C 840.6080768 415 803 399.1061104 803 379.5 Z" stroke-miterlimit="10"/></g><g transform="translate(-550,-62) scale(1,1)"><g><path fill="none" stroke="none"/><text fill="#000000" stroke="none" font-family="Arial" font-size="13px" font-style="normal" font-weight="normal" text-decoration="none" x="853.3955078125" y="371.5">«Genérico»</text></g></g><g transform="translate(-550,-62) scale(1,1)"><g><path fill="none" stroke="none"/><text fill="#000000" stroke="none" font-family="Arial" font-size="13px" font-style="normal" font-weight="bold" text-decoration="none" x="868.226806640625" y="386.5">Firmar</text><text fill="#000000" stroke="none" font-family="Arial" font-size="13px" font-style="normal" font-weight="bold" text-decoration="none" x="853.760498046875" y="399.5">Documento</text></g></g><g transform="translate(-550,-62) scale(1,1)"><path fill="#C0C0C0" stroke="none" d="M 903 505 C 903 490.6405952 940.6080768 479 987 479 C 1033.3919232 479 1071 490.6405952 1071 505 C 1071 519.3594048 1033.3919232 531 987 531 C 940.6080768 531 903 519.3594048 903 505 Z" opacity="0.2"/></g><g transform="translate(-550,-62) scale(1,1)"><path fill="#ffffff" stroke="none" d="M 896 498 C 896 483.6405952 933.6080768 472 980 472 C 1026.3919232 472 1064 483.6405952 1064 498 C 1064 512.3594048 1026.3919232 524 980 524 C 933.6080768 524 896 512.3594048 896 498 Z"/></g><g transform="translate(-550,-62) scale(1,1)"><path fill="none" stroke="#000000" d="M 896 498 C 896 483.6405952 933.6080768 472 980 472 C 1026.3919232 472 1064 483.6405952 1064 498 C 1064 512.3594048 1026.3919232 524 980 524 C 933.6080768 524 896 512.3594048 896 498 Z" stroke-miterlimit="10"/></g><g transform="translate(-550,-62) scale(1,1)"><g><path fill="none" stroke="none"/><text fill="#000000" stroke="none" font-family="Arial" font-size="13px" font-style="normal" font-weight="bold" text-decoration="none" x="936.661376953125" y="505">Firmar con Fiel</text></g></g><g transform="translate(-550,-62) scale(1,1)"><path fill="#C0C0C0" stroke="none" d="M 711 505 C 711 490.6405952 748.6080768 479 795 479 C 841.3919232 479 879 490.6405952 879 505 C 879 519.3594048 841.3919232 531 795 531 C 748.6080768 531 711 519.3594048 711 505 Z" opacity="0.2"/></g><g transform="translate(-550,-62) scale(1,1)"><path fill="#ffffff" stroke="none" d="M 704 498 C 704 483.6405952 741.6080768 472 788 472 C 834.3919232 472 872 483.6405952 872 498 C 872 512.3594048 834.3919232 524 788 524 C 741.6080768 524 704 512.3594048 704 498 Z"/></g><g transform="translate(-550,-62) scale(1,1)"><path fill="none" stroke="#000000" d="M 704 498 C 704 483.6405952 741.6080768 472 788 472 C 834.3919232 472 872 483.6405952 872 498 C 872 512.3594048 834.3919232 524 788 524 C 741.6080768 524 704 512.3594048 704 498 Z" stroke-miterlimit="10"/></g><g transform="translate(-550,-62) scale(1,1)"><g><path fill="none" stroke="none"/><text fill="#000000" stroke="none" font-family="Arial" font-size="13px" font-style="normal" font-weight="bold" text-decoration="none" x="738.516845703125" y="498.5">Firmar con Clave</text><text fill="#000000" stroke="none" font-family="Arial" font-size="13px" font-style="normal" font-weight="bold" text-decoration="none" x="765.59912109375" y="511.5">Secreta</text></g></g><g transform="translate(-550,-62) scale(1,1)"><path fill="none" stroke="#000000" d="M 959 471 L 916 416" stroke-miterlimit="10"/></g><g transform="translate(-550,-62) scale(1,1)"><path fill="#FFFFFF" stroke="none" d="M 935.1514058742353 426.8269872559408 L 916 416 L 921.8862528544315 437.19792507142375"/></g><g transform="translate(-550,-62) scale(1,1)"><path fill="none" stroke="#000000" d="M 935.1514058742353 426.8269872559408 L 916 416 L 921.8862528544315 437.19792507142375 L 935.1514058742353 426.8269872559408" stroke-miterlimit="10"/></g><g transform="translate(-550,-62) scale(1,1)"><path fill="none" stroke="#000000" d="M 810 471 L 856 416" stroke-miterlimit="10"/></g><g transform="translate(-550,-62) scale(1,1)"><path fill="#FFFFFF" stroke="none" d="M 849.4182135986536 436.99238166018927 L 856 416 L 836.5021187781106 426.1898296284624"/></g><g transform="translate(-550,-62) scale(1,1)"><path fill="none" stroke="#000000" d="M 849.4182135986536 436.99238166018927 L 856 416 L 836.5021187781106 426.1898296284624 L 849.4182135986536 436.99238166018927" stroke-miterlimit="10"/></g><g transform="translate(-550,-62) scale(1,1)"><path fill="#ffffff" stroke="none" d="M 1231.1066159446023 265.68 C 1231.1066159446023 260.886167936 1234.9924582695478 257 1239.785888671875 257 C 1244.5793190742022 257 1248.4651613991477 260.886167936 1248.4651613991477 265.68 C 1248.4651613991477 270.473832064 1244.5793190742022 274.36 1239.785888671875 274.36 C 1234.9924582695478 274.36 1231.1066159446023 270.473832064 1231.1066159446023 265.68 Z"/></g><g transform="translate(-550,-62) scale(1,1)"><path fill="none" stroke="#000000" d="M 1231.1066159446023 265.68 C 1231.1066159446023 260.886167936 1234.9924582695478 257 1239.785888671875 257 C 1244.5793190742022 257 1248.4651613991477 260.886167936 1248.4651613991477 265.68 C 1248.4651613991477 270.473832064 1244.5793190742022 274.36 1239.785888671875 274.36 C 1234.9924582695478 274.36 1231.1066159446023 270.473832064 1231.1066159446023 265.68 Z" stroke-miterlimit="10"/></g><g transform="translate(-550,-62) scale(1,1)"><path fill="none" stroke="#000000" d="M 1239.785888671875 274.36 L 1239.785888671875 291.64" stroke-miterlimit="10"/></g><g transform="translate(-550,-62) scale(1,1)"><path fill="none" stroke="#000000" d="M 1230.5960704900567 280.84 L 1248.9757068536933 280.84" stroke-miterlimit="10"/></g><g transform="translate(-550,-62) scale(1,1)"><path fill="none" stroke="#000000" d="M 1239.785888671875 291.64 L 1227.0222523082386 309" stroke-miterlimit="10"/></g><g transform="translate(-550,-62) scale(1,1)"><path fill="none" stroke="#000000" d="M 1239.785888671875 291.64 L 1252.5495250355114 309" stroke-miterlimit="10"/></g><g transform="translate(-550,-62) scale(1,1)"><g><path fill="none" stroke="none"/><text fill="#000000" stroke="none" font-family="Arial" font-size="13px" font-style="normal" font-weight="normal" text-decoration="none" x="1225.332275390625" y="327.5">«rol»</text></g></g><g transform="translate(-550,-62) scale(1,1)"><g><path fill="none" stroke="none"/><text fill="#000000" stroke="none" font-family="Arial" font-size="13px" font-style="normal" font-weight="bold" text-decoration="none" x="1191.369140625" y="342.5">Co-Responsable</text><text fill="#000000" stroke="none" font-family="Arial" font-size="13px" font-style="normal" font-weight="bold" text-decoration="none" x="1198.96728515625" y="355.5">Administrativo</text></g></g><g transform="translate(-550,-62) scale(1,1)"><path fill="#ffffff" stroke="none" d="M 1213.3270749289773 385.68 C 1213.3270749289773 380.886167936 1217.2129172539228 377 1222.00634765625 377 C 1226.7997780585772 377 1230.6856203835227 380.886167936 1230.6856203835227 385.68 C 1230.6856203835227 390.473832064 1226.7997780585772 394.36 1222.00634765625 394.36 C 1217.2129172539228 394.36 1213.3270749289773 390.473832064 1213.3270749289773 385.68 Z"/></g><g transform="translate(-550,-62) scale(1,1)"><path fill="none" stroke="#000000" d="M 1213.3270749289773 385.68 C 1213.3270749289773 380.886167936 1217.2129172539228 377 1222.00634765625 377 C 1226.7997780585772 377 1230.6856203835227 380.886167936 1230.6856203835227 385.68 C 1230.6856203835227 390.473832064 1226.7997780585772 394.36 1222.00634765625 394.36 C 1217.2129172539228 394.36 1213.3270749289773 390.473832064 1213.3270749289773 385.68 Z" stroke-miterlimit="10"/></g><g transform="translate(-550,-62) scale(1,1)"><path fill="none" stroke="#000000" d="M 1222.00634765625 394.36 L 1222.00634765625 411.64" stroke-miterlimit="10"/></g><g transform="translate(-550,-62) scale(1,1)"><path fill="none" stroke="#000000" d="M 1212.8165294744317 400.84 L 1231.1961658380683 400.84" stroke-miterlimit="10"/></g><g transform="translate(-550,-62) scale(1,1)"><path fill="none" stroke="#000000" d="M 1222.00634765625 411.64 L 1209.2427112926136 429" stroke-miterlimit="10"/></g><g transform="translate(-550,-62) scale(1,1)"><path fill="none" stroke="#000000" d="M 1222.00634765625 411.64 L 1234.7699840198864 429" stroke-miterlimit="10"/></g><g transform="translate(-550,-62) scale(1,1)"><g><path fill="none" stroke="none"/><text fill="#000000" stroke="none" font-family="Arial" font-size="13px" font-style="normal" font-weight="normal" text-decoration="none" x="1207.552734375" y="447.5">«rol»</text></g></g><g transform="translate(-550,-62) scale(1,1)"><g><path fill="none" stroke="none"/><text fill="#000000" stroke="none" font-family="Arial" font-size="13px" font-style="normal" font-weight="bold" text-decoration="none" x="1184.063232421875" y="462.5">Responsable</text><text fill="#000000" stroke="none" font-family="Arial" font-size="13px" font-style="normal" font-weight="bold" text-decoration="none" x="1181.187744140625" y="475.5">Administrativo</text></g></g><g transform="translate(-550,-62) scale(1,1)"><path fill="#ffffff" stroke="none" d="M 1128.9747800071023 105.68 C 1128.9747800071023 100.886167936 1132.8606223320478 97 1137.654052734375 97 C 1142.4474831367022 97 1146.3333254616477 100.886167936 1146.3333254616477 105.68 C 1146.3333254616477 110.473832064 1142.4474831367022 114.36 1137.654052734375 114.36 C 1132.8606223320478 114.36 1128.9747800071023 110.473832064 1128.9747800071023 105.68 Z"/></g><g transform="translate(-550,-62) scale(1,1)"><path fill="none" stroke="#000000" d="M 1128.9747800071023 105.68 C 1128.9747800071023 100.886167936 1132.8606223320478 97 1137.654052734375 97 C 1142.4474831367022 97 1146.3333254616477 100.886167936 1146.3333254616477 105.68 C 1146.3333254616477 110.473832064 1142.4474831367022 114.36 1137.654052734375 114.36 C 1132.8606223320478 114.36 1128.9747800071023 110.473832064 1128.9747800071023 105.68 Z" stroke-miterlimit="10"/></g><g transform="translate(-550,-62) scale(1,1)"><path fill="none" stroke="#000000" d="M 1137.654052734375 114.36 L 1137.654052734375 131.64" stroke-miterlimit="10"/></g><g transform="translate(-550,-62) scale(1,1)"><path fill="none" stroke="#000000" d="M 1128.4642345525567 120.84 L 1146.8438709161933 120.84" stroke-miterlimit="10"/></g><g transform="translate(-550,-62) scale(1,1)"><path fill="none" stroke="#000000" d="M 1137.654052734375 131.64 L 1124.8904163707386 149" stroke-miterlimit="10"/></g><g transform="translate(-550,-62) scale(1,1)"><path fill="none" stroke="#000000" d="M 1137.654052734375 131.64 L 1150.4176890980114 149" stroke-miterlimit="10"/></g><g transform="translate(-550,-62) scale(1,1)"><g><path fill="none" stroke="none"/><text fill="#000000" stroke="none" font-family="Arial" font-size="13px" font-style="normal" font-weight="normal" text-decoration="none" x="1123.200439453125" y="167.5">«rol»</text></g></g><g transform="translate(-550,-62) scale(1,1)"><g><path fill="none" stroke="none"/><text fill="#000000" stroke="none" font-family="Arial" font-size="13px" font-style="normal" font-weight="bold" text-decoration="none" x="1095.013671875" y="182.5">Representante</text><text fill="#000000" stroke="none" font-family="Arial" font-size="13px" font-style="normal" font-weight="bold" text-decoration="none" x="1121.75" y="195.5">Legal</text></g></g><g transform="translate(-550,-62) scale(1,1)"><path fill="#ffffff" stroke="none" d="M 1163.4916257102273 481.68 C 1163.4916257102273 476.886167936 1167.3774680351728 473 1172.1708984375 473 C 1176.9643288398272 473 1180.8501711647727 476.886167936 1180.8501711647727 481.68 C 1180.8501711647727 486.473832064 1176.9643288398272 490.36 1172.1708984375 490.36 C 1167.3774680351728 490.36 1163.4916257102273 486.473832064 1163.4916257102273 481.68 Z"/></g><g transform="translate(-550,-62) scale(1,1)"><path fill="none" stroke="#000000" d="M 1163.4916257102273 481.68 C 1163.4916257102273 476.886167936 1167.3774680351728 473 1172.1708984375 473 C 1176.9643288398272 473 1180.8501711647727 476.886167936 1180.8501711647727 481.68 C 1180.8501711647727 486.473832064 1176.9643288398272 490.36 1172.1708984375 490.36 C 1167.3774680351728 490.36 1163.4916257102273 486.473832064 1163.4916257102273 481.68 Z" stroke-miterlimit="10"/></g><g transform="translate(-550,-62) scale(1,1)"><path fill="none" stroke="#000000" d="M 1172.1708984375 490.36 L 1172.1708984375 507.64" stroke-miterlimit="10"/></g><g transform="translate(-550,-62) scale(1,1)"><path fill="none" stroke="#000000" d="M 1162.9810802556817 496.84 L 1181.3607166193183 496.84" stroke-miterlimit="10"/></g><g transform="translate(-550,-62) scale(1,1)"><path fill="none" stroke="#000000" d="M 1172.1708984375 507.64 L 1159.4072620738636 525" stroke-miterlimit="10"/></g><g transform="translate(-550,-62) scale(1,1)"><path fill="none" stroke="#000000" d="M 1172.1708984375 507.64 L 1184.9345348011364 525" stroke-miterlimit="10"/></g><g transform="translate(-550,-62) scale(1,1)"><g><path fill="none" stroke="none"/><text fill="#000000" stroke="none" font-family="Arial" font-size="13px" font-style="normal" font-weight="normal" text-decoration="none" x="1157.71728515625" y="543.5">«rol»</text></g></g><g transform="translate(-550,-62) scale(1,1)"><g><path fill="none" stroke="none"/><text fill="#000000" stroke="none" font-family="Arial" font-size="13px" font-style="normal" font-weight="bold" text-decoration="none" x="1127.004150390625" y="558.5">Co-Reponsable</text><text fill="#000000" stroke="none" font-family="Arial" font-size="13px" font-style="normal" font-weight="bold" text-decoration="none" x="1149.411376953125" y="571.5">Técnico</text></g></g><g transform="translate(-550,-62) scale(1,1)"><path fill="#ffffff" stroke="none" d="M 602.3207272727273 121.68 C 602.3207272727273 116.886167936 606.2065695976727 113 611 113 C 615.7934304023273 113 619.6792727272727 116.886167936 619.6792727272727 121.68 C 619.6792727272727 126.473832064 615.7934304023273 130.36 611 130.36 C 606.2065695976727 130.36 602.3207272727273 126.473832064 602.3207272727273 121.68 Z"/></g><g transform="translate(-550,-62) scale(1,1)"><path fill="none" stroke="#000000" d="M 602.3207272727273 121.68 C 602.3207272727273 116.886167936 606.2065695976727 113 611 113 C 615.7934304023273 113 619.6792727272727 116.886167936 619.6792727272727 121.68 C 619.6792727272727 126.473832064 615.7934304023273 130.36 611 130.36 C 606.2065695976727 130.36 602.3207272727273 126.473832064 602.3207272727273 121.68 Z" stroke-miterlimit="10"/></g><g transform="translate(-550,-62) scale(1,1)"><path fill="none" stroke="#000000" d="M 611 130.36 L 611 147.64" stroke-miterlimit="10"/></g><g transform="translate(-550,-62) scale(1,1)"><path fill="none" stroke="#000000" d="M 601.8101818181818 136.84 L 620.1898181818182 136.84" stroke-miterlimit="10"/></g><g transform="translate(-550,-62) scale(1,1)"><path fill="none" stroke="#000000" d="M 611 147.64 L 598.2363636363636 165" stroke-miterlimit="10"/></g><g transform="translate(-550,-62) scale(1,1)"><path fill="none" stroke="#000000" d="M 611 147.64 L 623.7636363636364 165" stroke-miterlimit="10"/></g><g transform="translate(-550,-62) scale(1,1)"><g><path fill="none" stroke="none"/><text fill="#000000" stroke="none" font-family="Arial" font-size="13px" font-style="normal" font-weight="normal" text-decoration="none" x="596.54638671875" y="183.5">«rol»</text></g></g><g transform="translate(-550,-62) scale(1,1)"><g><path fill="none" stroke="none"/><text fill="#000000" stroke="none" font-family="Arial" font-size="13px" font-style="normal" font-weight="bold" text-decoration="none" x="573.056884765625" y="198.5">Responsable</text><text fill="#000000" stroke="none" font-family="Arial" font-size="13px" font-style="normal" font-weight="bold" text-decoration="none" x="588.240478515625" y="211.5">Técnico</text></g></g><g transform="translate(-550,-62) scale(1,1)"><path fill="#ffffff" stroke="none" d="M 1200.384605291193 170.36 C 1200.384605291193 165.190614272 1204.5582877883567 161 1209.706787109375 161 C 1214.8552864303933 161 1219.028968927557 165.190614272 1219.028968927557 170.36 C 1219.028968927557 175.52938572800002 1214.8552864303933 179.72 1209.706787109375 179.72 C 1204.5582877883567 179.72 1200.384605291193 175.52938572800002 1200.384605291193 170.36 Z"/></g><g transform="translate(-550,-62) scale(1,1)"><path fill="none" stroke="#000000" d="M 1200.384605291193 170.36 C 1200.384605291193 165.190614272 1204.5582877883567 161 1209.706787109375 161 C 1214.8552864303933 161 1219.028968927557 165.190614272 1219.028968927557 170.36 C 1219.028968927557 175.52938572800002 1214.8552864303933 179.72 1209.706787109375 179.72 C 1204.5582877883567 179.72 1200.384605291193 175.52938572800002 1200.384605291193 170.36 Z" stroke-miterlimit="10"/></g><g transform="translate(-550,-62) scale(1,1)"><path fill="none" stroke="#000000" d="M 1209.706787109375 179.72 L 1209.706787109375 198.28" stroke-miterlimit="10"/></g><g transform="translate(-550,-62) scale(1,1)"><path fill="none" stroke="#000000" d="M 1199.8362416548296 186.68 L 1219.5773325639204 186.68" stroke-miterlimit="10"/></g><g transform="translate(-550,-62) scale(1,1)"><path fill="none" stroke="#000000" d="M 1209.706787109375 198.28 L 1195.997696200284 217" stroke-miterlimit="10"/></g><g transform="translate(-550,-62) scale(1,1)"><path fill="none" stroke="#000000" d="M 1209.706787109375 198.28 L 1223.415878018466 217" stroke-miterlimit="10"/></g><g transform="translate(-550,-62) scale(1,1)"><g><path fill="none" stroke="none"/><text fill="#000000" stroke="none" font-family="Arial" font-size="13px" font-style="normal" font-weight="normal" text-decoration="none" x="1195.253173828125" y="235.5">«rol»</text></g></g><g transform="translate(-550,-62) scale(1,1)"><g><path fill="none" stroke="none"/><text fill="#000000" stroke="none" font-family="Arial" font-size="13px" font-style="normal" font-weight="bold" text-decoration="none" x="1175.3818359375" y="250.5">Participante</text></g></g><g transform="translate(-550,-62) scale(1,1)"><path fill="none" stroke="#000000" d="M 662 160 L 803 160" stroke-miterlimit="10"/></g><g transform="translate(-550,-62) scale(1,1)"><path fill="none" stroke="#000000" d="M 663 174 L 802 202" stroke-miterlimit="10"/></g><g transform="translate(-550,-62) scale(1,1)"><path fill="#ffffff" stroke="none" d="M 615.3207272727273 257.68 C 615.3207272727273 252.886167936 619.2065695976727 249 624 249 C 628.7934304023273 249 632.6792727272727 252.886167936 632.6792727272727 257.68 C 632.6792727272727 262.473832064 628.7934304023273 266.36 624 266.36 C 619.2065695976727 266.36 615.3207272727273 262.473832064 615.3207272727273 257.68 Z"/></g><g transform="translate(-550,-62) scale(1,1)"><path fill="none" stroke="#000000" d="M 615.3207272727273 257.68 C 615.3207272727273 252.886167936 619.2065695976727 249 624 249 C 628.7934304023273 249 632.6792727272727 252.886167936 632.6792727272727 257.68 C 632.6792727272727 262.473832064 628.7934304023273 266.36 624 266.36 C 619.2065695976727 266.36 615.3207272727273 262.473832064 615.3207272727273 257.68 Z" stroke-miterlimit="10"/></g><g transform="translate(-550,-62) scale(1,1)"><path fill="none" stroke="#000000" d="M 624 266.36 L 624 283.64" stroke-miterlimit="10"/></g><g transform="translate(-550,-62) scale(1,1)"><path fill="none" stroke="#000000" d="M 614.8101818181818 272.84 L 633.1898181818182 272.84" stroke-miterlimit="10"/></g><g transform="translate(-550,-62) scale(1,1)"><path fill="none" stroke="#000000" d="M 624 283.64 L 611.2363636363636 301" stroke-miterlimit="10"/></g><g transform="translate(-550,-62) scale(1,1)"><path fill="none" stroke="#000000" d="M 624 283.64 L 636.7636363636364 301" stroke-miterlimit="10"/></g><g transform="translate(-550,-62) scale(1,1)"><g><path fill="none" stroke="none"/><text fill="#000000" stroke="none" font-family="Arial" font-size="13px" font-style="normal" font-weight="bold" text-decoration="none" x="586.06005859375" y="321.5">Operador del</text><text fill="#000000" stroke="none" font-family="Arial" font-size="13px" font-style="normal" font-weight="bold" text-decoration="none" x="592.220458984375" y="334.5">CONACYT</text></g></g><g transform="translate(-550,-62) scale(1,1)"><path fill="none" stroke="#000000" d="M 673 280 L 802 243" stroke-miterlimit="10"/></g><g transform="translate(-550,-62) scale(1,1)"><path fill="none" stroke="#000000" d="M 673 292 L 802 288" stroke-miterlimit="10"/></g><g transform="translate(-550,-62) scale(1,1)"><path fill="none" stroke="#000000" d="M 1119 497 L 960 416" stroke-miterlimit="10"/></g><g transform="translate(-550,-62) scale(1,1)"><path fill="none" stroke="#000000" d="M 1167 420 L 972 391" stroke-miterlimit="10"/></g><g transform="translate(-550,-62) scale(1,1)"><path fill="none" stroke="#000000" d="M 1087 194 L 926 343" stroke-miterlimit="10"/></g><g transform="translate(-550,-62) scale(1,1)"><path fill="none" stroke="#000000" d="M 1167 230 L 955 343" stroke-miterlimit="10"/></g><g transform="translate(-550,-62) scale(1,1)"><path fill="none" stroke="#000000" d="M 1183 319 L 972 362" stroke-miterlimit="10"/></g></g></svg>