<svg version="1.1" xmlns="http://www.w3.org/2000/svg" xmlns:xlink="http://www.w3.org/1999/xlink" width="807.41357421875" height="640"><defs/><g><text fill="#eeeeee" stroke="none" font-family="Arial" font-size="24px" font-style="normal" font-weight="normal" text-decoration="none" x="0" y="0">UNREGISTERED</text><text fill="#eeeeee" stroke="none" font-family="Arial" font-size="24px" font-style="normal" font-weight="normal" text-decoration="none" x="0" y="30">UNREGISTERED</text><text fill="#eeeeee" stroke="none" font-family="Arial" font-size="24px" font-style="normal" font-weight="normal" text-decoration="none" x="0" y="60">UNREGISTERED</text><text fill="#eeeeee" stroke="none" font-family="Arial" font-size="24px" font-style="normal" font-weight="normal" text-decoration="none" x="0" y="90">UNREGISTERED</text><text fill="#eeeeee" stroke="none" font-family="Arial" font-size="24px" font-style="normal" font-weight="normal" text-decoration="none" x="0" y="120">UNREGISTERED</text><text fill="#eeeeee" stroke="none" font-family="Arial" font-size="24px" font-style="normal" font-weight="normal" text-decoration="none" x="0" y="150">UNREGISTERED</text><text fill="#eeeeee" stroke="none" font-family="Arial" font-size="24px" font-style="normal" font-weight="normal" text-decoration="none" x="0" y="180">UNREGISTERED</text><text fill="#eeeeee" stroke="none" font-family="Arial" font-size="24px" font-style="normal" font-weight="normal" text-decoration="none" x="0" y="210">UNREGISTERED</text><text fill="#eeeeee" stroke="none" font-family="Arial" font-size="24px" font-style="normal" font-weight="normal" text-decoration="none" x="0" y="240">UNREGISTERED</text><text fill="#eeeeee" stroke="none" font-family="Arial" font-size="24px" font-style="normal" font-weight="normal" text-decoration="none" x="0" y="270">UNREGISTERED</text><text fill="#eeeeee" stroke="none" font-family="Arial" font-size="24px" font-style="normal" font-weight="normal" text-decoration="none" x="0" y="300">UNREGISTERED</text><text fill="#eeeeee" stroke="none" font-family="Arial" font-size="24px" font-style="normal" font-weight="normal" text-decoration="none" x="0" y="330">UNREGISTERED</text><text fill="#eeeeee" stroke="none" font-family="Arial" font-size="24px" font-style="normal" font-weight="normal" text-decoration="none" x="0" y="360">UNREGISTERED</text><text fill="#eeeeee" stroke="none" font-family="Arial" font-size="24px" font-style="normal" font-weight="normal" text-decoration="none" x="0" y="390">UNREGISTERED</text><text fill="#eeeeee" stroke="none" font-family="Arial" font-size="24px" font-style="normal" font-weight="normal" text-decoration="none" x="0" y="420">UNREGISTERED</text><text fill="#eeeeee" stroke="none" font-family="Arial" font-size="24px" font-style="normal" font-weight="normal" text-decoration="none" x="0" y="450">UNREGISTERED</text><text fill="#eeeeee" stroke="none" font-family="Arial" font-size="24px" font-style="normal" font-weight="normal" text-decoration="none" x="0" y="480">UNREGISTERED</text><text fill="#eeeeee" stroke="none" font-family="Arial" font-size="24px" font-style="normal" font-weight="normal" text-decoration="none" x="0" y="510">UNREGISTERED</text><text fill="#eeeeee" stroke="none" font-family="Arial" font-size="24px" font-style="normal" font-weight="normal" text-decoration="none" x="0" y="540">UNREGISTERED</text><text fill="#eeeeee" stroke="none" font-family="Arial" font-size="24px" font-style="normal" font-weight="normal" text-decoration="none" x="0" y="570">UNREGISTERED</text><text fill="#eeeeee" stroke="none" font-family="Arial" font-size="24px" font-style="normal" font-weight="normal" text-decoration="none" x="0" y="600">UNREGISTERED</text><text fill="#eeeeee" stroke="none" font-family="Arial" font-size="24px" font-style="normal" font-weight="normal" text-decoration="none" x="0" y="630">UNREGISTERED</text><text fill="#eeeeee" stroke="none" font-family="Arial" font-size="24px" font-style="normal" font-weight="normal" text-decoration="none" x="200" y="0">UNREGISTERED</text><text fill="#eeeeee" stroke="none" font-family="Arial" font-size="24px" font-style="normal" font-weight="normal" text-decoration="none" x="200" y="30">UNREGISTERED</text><text fill="#eeeeee" stroke="none" font-family="Arial" font-size="24px" font-style="normal" font-weight="normal" text-decoration="none" x="200" y="60">UNREGISTERED</text><text fill="#eeeeee" stroke="none" font-family="Arial" font-size="24px" font-style="normal" font-weight="normal" text-decoration="none" x="200" y="90">UNREGISTERED</text><text fill="#eeeeee" stroke="none" font-family="Arial" font-size="24px" font-style="normal" font-weight="normal" text-decoration="none" x="200" y="120">UNREGISTERED</text><text fill="#eeeeee" stroke="none" font-family="Arial" font-size="24px" font-style="normal" font-weight="normal" text-decoration="none" x="200" y="150">UNREGISTERED</text><text fill="#eeeeee" stroke="none" font-family="Arial" font-size="24px" font-style="normal" font-weight="normal" text-decoration="none" x="200" y="180">UNREGISTERED</text><text fill="#eeeeee" stroke="none" font-family="Arial" font-size="24px" font-style="normal" font-weight="normal" text-decoration="none" x="200" y="210">UNREGISTERED</text><text fill="#eeeeee" stroke="none" font-family="Arial" font-size="24px" font-style="normal" font-weight="normal" text-decoration="none" x="200" y="240">UNREGISTERED</text><text fill="#eeeeee" stroke="none" font-family="Arial" font-size="24px" font-style="normal" font-weight="normal" text-decoration="none" x="200" y="270">UNREGISTERED</text><text fill="#eeeeee" stroke="none" font-family="Arial" font-size="24px" font-style="normal" font-weight="normal" text-decoration="none" x="200" y="300">UNREGISTERED</text><text fill="#eeeeee" stroke="none" font-family="Arial" font-size="24px" font-style="normal" font-weight="normal" text-decoration="none" x="200" y="330">UNREGISTERED</text><text fill="#eeeeee" stroke="none" font-family="Arial" font-size="24px" font-style="normal" font-weight="normal" text-decoration="none" x="200" y="360">UNREGISTERED</text><text fill="#eeeeee" stroke="none" font-family="Arial" font-size="24px" font-style="normal" font-weight="normal" text-decoration="none" x="200" y="390">UNREGISTERED</text><text fill="#eeeeee" stroke="none" font-family="Arial" font-size="24px" font-style="normal" font-weight="normal" text-decoration="none" x="200" y="420">UNREGISTERED</text><text fill="#eeeeee" stroke="none" font-family="Arial" font-size="24px" font-style="normal" font-weight="normal" text-decoration="none" x="200" y="450">UNREGISTERED</text><text fill="#eeeeee" stroke="none" font-family="Arial" font-size="24px" font-style="normal" font-weight="normal" text-decoration="none" x="200" y="480">UNREGISTERED</text><text fill="#eeeeee" stroke="none" font-family="Arial" font-size="24px" font-style="normal" font-weight="normal" text-decoration="none" x="200" y="510">UNREGISTERED</text><text fill="#eeeeee" stroke="none" font-family="Arial" font-size="24px" font-style="normal" font-weight="normal" text-decoration="none" x="200" y="540">UNREGISTERED</text><text fill="#eeeeee" stroke="none" font-family="Arial" font-size="24px" font-style="normal" font-weight="normal" text-decoration="none" x="200" y="570">UNREGISTERED</text><text fill="#eeeeee" stroke="none" font-family="Arial" font-size="24px" font-style="normal" font-weight="normal" text-decoration="none" x="200" y="600">UNREGISTERED</text><text fill="#eeeeee" stroke="none" font-family="Arial" font-size="24px" font-style="normal" font-weight="normal" text-decoration="none" x="200" y="630">UNREGISTERED</text><text fill="#eeeeee" stroke="none" font-family="Arial" font-size="24px" font-style="normal" font-weight="normal" text-decoration="none" x="400" y="0">UNREGISTERED</text><text fill="#eeeeee" stroke="none" font-family="Arial" font-size="24px" font-style="normal" font-weight="normal" text-decoration="none" x="400" y="30">UNREGISTERED</text><text fill="#eeeeee" stroke="none" font-family="Arial" font-size="24px" font-style="normal" font-weight="normal" text-decoration="none" x="400" y="60">UNREGISTERED</text><text fill="#eeeeee" stroke="none" font-family="Arial" font-size="24px" font-style="normal" font-weight="normal" text-decoration="none" x="400" y="90">UNREGISTERED</text><text fill="#eeeeee" stroke="none" font-family="Arial" font-size="24px" font-style="normal" font-weight="normal" text-decoration="none" x="400" y="120">UNREGISTERED</text><text fill="#eeeeee" stroke="none" font-family="Arial" font-size="24px" font-style="normal" font-weight="normal" text-decoration="none" x="400" y="150">UNREGISTERED</text><text fill="#eeeeee" stroke="none" font-family="Arial" font-size="24px" font-style="normal" font-weight="normal" text-decoration="none" x="400" y="180">UNREGISTERED</text><text fill="#eeeeee" stroke="none" font-family="Arial" font-size="24px" font-style="normal" font-weight="normal" text-decoration="none" x="400" y="210">UNREGISTERED</text><text fill="#eeeeee" stroke="none" font-family="Arial" font-size="24px" font-style="normal" font-weight="normal" text-decoration="none" x="400" y="240">UNREGISTERED</text><text fill="#eeeeee" stroke="none" font-family="Arial" font-size="24px" font-style="normal" font-weight="normal" text-decoration="none" x="400" y="270">UNREGISTERED</text><text fill="#eeeeee" stroke="none" font-family="Arial" font-size="24px" font-style="normal" font-weight="normal" text-decoration="none" x="400" y="300">UNREGISTERED</text><text fill="#eeeeee" stroke="none" font-family="Arial" font-size="24px" font-style="normal" font-weight="normal" text-decoration="none" x="400" y="330">UNREGISTERED</text><text fill="#eeeeee" stroke="none" font-family="Arial" font-size="24px" font-style="normal" font-weight="normal" text-decoration="none" x="400" y="360">UNREGISTERED</text><text fill="#eeeeee" stroke="none" font-family="Arial" font-size="24px" font-style="normal" font-weight="normal" text-decoration="none" x="400" y="390">UNREGISTERED</text><text fill="#eeeeee" stroke="none" font-family="Arial" font-size="24px" font-style="normal" font-weight="normal" text-decoration="none" x="400" y="420">UNREGISTERED</text><text fill="#eeeeee" stroke="none" font-family="Arial" font-size="24px" font-style="normal" font-weight="normal" text-decoration="none" x="400" y="450">UNREGISTERED</text><text fill="#eeeeee" stroke="none" font-family="Arial" font-size="24px" font-style="normal" font-weight="normal" text-decoration="none" x="400" y="480">UNREGISTERED</text><text fill="#eeeeee" stroke="none" font-family="Arial" font-size="24px" font-style="normal" font-weight="normal" text-decoration="none" x="400" y="510">UNREGISTERED</text><text fill="#eeeeee" stroke="none" font-family="Arial" font-size="24px" font-style="normal" font-weight="normal" text-decoration="none" x="400" y="540">UNREGISTERED</text><text fill="#eeeeee" stroke="none" font-family="Arial" font-size="24px" font-style="normal" font-weight="normal" text-decoration="none" x="400" y="570">UNREGISTERED</text><text fill="#eeeeee" stroke="none" font-family="Arial" font-size="24px" font-style="normal" font-weight="normal" text-decoration="none" x="400" y="600">UNREGISTERED</text><text fill="#eeeeee" stroke="none" font-family="Arial" font-size="24px" font-style="normal" font-weight="normal" text-decoration="none" x="400" y="630">UNREGISTERED</text><text fill="#eeeeee" stroke="none" font-family="Arial" font-size="24px" font-style="normal" font-weight="normal" text-decoration="none" x="600" y="0">UNREGISTERED</text><text fill="#eeeeee" stroke="none" font-family="Arial" font-size="24px" font-style="normal" font-weight="normal" text-decoration="none" x="600" y="30">UNREGISTERED</text><text fill="#eeeeee" stroke="none" font-family="Arial" font-size="24px" font-style="normal" font-weight="normal" text-decoration="none" x="600" y="60">UNREGISTERED</text><text fill="#eeeeee" stroke="none" font-family="Arial" font-size="24px" font-style="normal" font-weight="normal" text-decoration="none" x="600" y="90">UNREGISTERED</text><text fill="#eeeeee" stroke="none" font-family="Arial" font-size="24px" font-style="normal" font-weight="normal" text-decoration="none" x="600" y="120">UNREGISTERED</text><text fill="#eeeeee" stroke="none" font-family="Arial" font-size="24px" font-style="normal" font-weight="normal" text-decoration="none" x="600" y="150">UNREGISTERED</text><text fill="#eeeeee" stroke="none" font-family="Arial" font-size="24px" font-style="normal" font-weight="normal" text-decoration="none" x="600" y="180">UNREGISTERED</text><text fill="#eeeeee" stroke="none" font-family="Arial" font-size="24px" font-style="normal" font-weight="normal" text-decoration="none" x="600" y="210">UNREGISTERED</text><text fill="#eeeeee" stroke="none" font-family="Arial" font-size="24px" font-style="normal" font-weight="normal" text-decoration="none" x="600" y="240">UNREGISTERED</text><text fill="#eeeeee" stroke="none" font-family="Arial" font-size="24px" font-style="normal" font-weight="normal" text-decoration="none" x="600" y="270">UNREGISTERED</text><text fill="#eeeeee" stroke="none" font-family="Arial" font-size="24px" font-style="normal" font-weight="normal" text-decoration="none" x="600" y="300">UNREGISTERED</text><text fill="#eeeeee" stroke="none" font-family="Arial" font-size="24px" font-style="normal" font-weight="normal" text-decoration="none" x="600" y="330">UNREGISTERED</text><text fill="#eeeeee" stroke="none" font-family="Arial" font-size="24px" font-style="normal" font-weight="normal" text-decoration="none" x="600" y="360">UNREGISTERED</text><text fill="#eeeeee" stroke="none" font-family="Arial" font-size="24px" font-style="normal" font-weight="normal" text-decoration="none" x="600" y="390">UNREGISTERED</text><text fill="#eeeeee" stroke="none" font-family="Arial" font-size="24px" font-style="normal" font-weight="normal" text-decoration="none" x="600" y="420">UNREGISTERED</text><text fill="#eeeeee" stroke="none" font-family="Arial" font-size="24px" font-style="normal" font-weight="normal" text-decoration="none" x="600" y="450">UNREGISTERED</text><text fill="#eeeeee" stroke="none" font-family="Arial" font-size="24px" font-style="normal" font-weight="normal" text-decoration="none" x="600" y="480">UNREGISTERED</text><text fill="#eeeeee" stroke="none" font-family="Arial" font-size="24px" font-style="normal" font-weight="normal" text-decoration="none" x="600" y="510">UNREGISTERED</text><text fill="#eeeeee" stroke="none" font-family="Arial" font-size="24px" font-style="normal" font-weight="normal" text-decoration="none" x="600" y="540">UNREGISTERED</text><text fill="#eeeeee" stroke="none" font-family="Arial" font-size="24px" font-style="normal" font-weight="normal" text-decoration="none" x="600" y="570">UNREGISTERED</text><text fill="#eeeeee" stroke="none" font-family="Arial" font-size="24px" font-style="normal" font-weight="normal" text-decoration="none" x="600" y="600">UNREGISTERED</text><text fill="#eeeeee" stroke="none" font-family="Arial" font-size="24px" font-style="normal" font-weight="normal" text-decoration="none" x="600" y="630">UNREGISTERED</text><text fill="#eeeeee" stroke="none" font-family="Arial" font-size="24px" font-style="normal" font-weight="normal" text-decoration="none" x="800" y="0">UNREGISTERED</text><text fill="#eeeeee" stroke="none" font-family="Arial" font-size="24px" font-style="normal" font-weight="normal" text-decoration="none" x="800" y="30">UNREGISTERED</text><text fill="#eeeeee" stroke="none" font-family="Arial" font-size="24px" font-style="normal" font-weight="normal" text-decoration="none" x="800" y="60">UNREGISTERED</text><text fill="#eeeeee" stroke="none" font-family="Arial" font-size="24px" font-style="normal" font-weight="normal" text-decoration="none" x="800" y="90">UNREGISTERED</text><text fill="#eeeeee" stroke="none" font-family="Arial" font-size="24px" font-style="normal" font-weight="normal" text-decoration="none" x="800" y="120">UNREGISTERED</text><text fill="#eeeeee" stroke="none" font-family="Arial" font-size="24px" font-style="normal" font-weight="normal" text-decoration="none" x="800" y="150">UNREGISTERED</text><text fill="#eeeeee" stroke="none" font-family="Arial" font-size="24px" font-style="normal" font-weight="normal" text-decoration="none" x="800" y="180">UNREGISTERED</text><text fill="#eeeeee" stroke="none" font-family="Arial" font-size="24px" font-style="normal" font-weight="normal" text-decoration="none" x="800" y="210">UNREGISTERED</text><text fill="#eeeeee" stroke="none" font-family="Arial" font-size="24px" font-style="normal" font-weight="normal" text-decoration="none" x="800" y="240">UNREGISTERED</text><text fill="#eeeeee" stroke="none" font-family="Arial" font-size="24px" font-style="normal" font-weight="normal" text-decoration="none" x="800" y="270">UNREGISTERED</text><text fill="#eeeeee" stroke="none" font-family="Arial" font-size="24px" font-style="normal" font-weight="normal" text-decoration="none" x="800" y="300">UNREGISTERED</text><text fill="#eeeeee" stroke="none" font-family="Arial" font-size="24px" font-style="normal" font-weight="normal" text-decoration="none" x="800" y="330">UNREGISTERED</text><text fill="#eeeeee" stroke="none" font-family="Arial" font-size="24px" font-style="normal" font-weight="normal" text-decoration="none" x="800" y="360">UNREGISTERED</text><text fill="#eeeeee" stroke="none" font-family="Arial" font-size="24px" font-style="normal" font-weight="normal" text-decoration="none" x="800" y="390">UNREGISTERED</text><text fill="#eeeeee" stroke="none" font-family="Arial" font-size="24px" font-style="normal" font-weight="normal" text-decoration="none" x="800" y="420">UNREGISTERED</text><text fill="#eeeeee" stroke="none" font-family="Arial" font-size="24px" font-style="normal" font-weight="normal" text-decoration="none" x="800" y="450">UNREGISTERED</text><text fill="#eeeeee" stroke="none" font-family="Arial" font-size="24px" font-style="normal" font-weight="normal" text-decoration="none" x="800" y="480">UNREGISTERED</text><text fill="#eeeeee" stroke="none" font-family="Arial" font-size="24px" font-style="normal" font-weight="normal" text-decoration="none" x="800" y="510">UNREGISTERED</text><text fill="#eeeeee" stroke="none" font-family="Arial" font-size="24px" font-style="normal" font-weight="normal" text-decoration="none" x="800" y="540">UNREGISTERED</text><text fill="#eeeeee" stroke="none" font-family="Arial" font-size="24px" font-style="normal" font-weight="normal" text-decoration="none" x="800" y="570">UNREGISTERED</text><text fill="#eeeeee" stroke="none" font-family="Arial" font-size="24px" font-style="normal" font-weight="normal" text-decoration="none" x="800" y="600">UNREGISTERED</text><text fill="#eeeeee" stroke="none" font-family="Arial" font-size="24px" font-style="normal" font-weight="normal" text-decoration="none" x="800" y="630">UNREGISTERED</text><g transform="translate(-22,-22) scale(1,1)"><path fill="#ffffff" stroke="none" d="M 300.0412567471591 219.04 C 300.0412567471591 213.495060608 304.50277941654093 209 310.00634765625 209 C 315.50991589595907 209 319.9714385653409 213.495060608 319.9714385653409 219.04 C 319.9714385653409 224.584939392 315.50991589595907 229.07999999999998 310.00634765625 229.07999999999998 C 304.50277941654093 229.07999999999998 300.0412567471591 224.584939392 300.0412567471591 219.04 Z"/></g><g transform="translate(-22,-22) scale(1,1)"><path fill="none" stroke="#000000" d="M 300.0412567471591 219.04 C 300.0412567471591 213.495060608 304.50277941654093 209 310.00634765625 209 C 315.50991589595907 209 319.9714385653409 213.495060608 319.9714385653409 219.04 C 319.9714385653409 224.584939392 315.50991589595907 229.07999999999998 310.00634765625 229.07999999999998 C 304.50277941654093 229.07999999999998 300.0412567471591 224.584939392 300.0412567471591 219.04 Z" stroke-miterlimit="10"/></g><g transform="translate(-22,-22) scale(1,1)"><path fill="none" stroke="#000000" d="M 310.00634765625 229.07999999999998 L 310.00634765625 248.92000000000002" stroke-miterlimit="10"/></g><g transform="translate(-22,-22) scale(1,1)"><path fill="none" stroke="#000000" d="M 299.4550749289773 236.52 L 320.5576203835227 236.52" stroke-miterlimit="10"/></g><g transform="translate(-22,-22) scale(1,1)"><path fill="none" stroke="#000000" d="M 310.00634765625 248.92000000000002 L 295.3518022017046 269" stroke-miterlimit="10"/></g><g transform="translate(-22,-22) scale(1,1)"><path fill="none" stroke="#000000" d="M 310.00634765625 248.92000000000002 L 324.6608931107954 269" stroke-miterlimit="10"/></g><g transform="translate(-22,-22) scale(1,1)"><g><path fill="none" stroke="none"/><text fill="#000000" stroke="none" font-family="Arial" font-size="13px" font-style="normal" font-weight="bold" text-decoration="none" x="272.063232421875" y="289.5">Responsable</text><text fill="#000000" stroke="none" font-family="Arial" font-size="13px" font-style="normal" font-weight="bold" text-decoration="none" x="269.187744140625" y="302.5">Administrativo</text></g></g><g transform="translate(-22,-22) scale(1,1)"><path fill="#ffffff" stroke="none" d="M 565.8207977627841 219.04 C 565.8207977627841 213.495060608 570.2823204321659 209 575.785888671875 209 C 581.2894569115841 209 585.7509795809659 213.495060608 585.7509795809659 219.04 C 585.7509795809659 224.584939392 581.2894569115841 229.07999999999998 575.785888671875 229.07999999999998 C 570.2823204321659 229.07999999999998 565.8207977627841 224.584939392 565.8207977627841 219.04 Z"/></g><g transform="translate(-22,-22) scale(1,1)"><path fill="none" stroke="#000000" d="M 565.8207977627841 219.04 C 565.8207977627841 213.495060608 570.2823204321659 209 575.785888671875 209 C 581.2894569115841 209 585.7509795809659 213.495060608 585.7509795809659 219.04 C 585.7509795809659 224.584939392 581.2894569115841 229.07999999999998 575.785888671875 229.07999999999998 C 570.2823204321659 229.07999999999998 565.8207977627841 224.584939392 565.8207977627841 219.04 Z" stroke-miterlimit="10"/></g><g transform="translate(-22,-22) scale(1,1)"><path fill="none" stroke="#000000" d="M 575.785888671875 229.07999999999998 L 575.785888671875 248.92000000000002" stroke-miterlimit="10"/></g><g transform="translate(-22,-22) scale(1,1)"><path fill="none" stroke="#000000" d="M 565.2346159446023 236.52 L 586.3371613991477 236.52" stroke-miterlimit="10"/></g><g transform="translate(-22,-22) scale(1,1)"><path fill="none" stroke="#000000" d="M 575.785888671875 248.92000000000002 L 561.1313432173296 269" stroke-miterlimit="10"/></g><g transform="translate(-22,-22) scale(1,1)"><path fill="none" stroke="#000000" d="M 575.785888671875 248.92000000000002 L 590.4404341264204 269" stroke-miterlimit="10"/></g><g transform="translate(-22,-22) scale(1,1)"><g><path fill="none" stroke="none"/><text fill="#000000" stroke="none" font-family="Arial" font-size="13px" font-style="normal" font-weight="bold" text-decoration="none" x="527.369140625" y="289.5">Co-Responsable</text><text fill="#000000" stroke="none" font-family="Arial" font-size="13px" font-style="normal" font-weight="bold" text-decoration="none" x="534.96728515625" y="302.5">Administrativo</text></g></g><g transform="translate(-22,-22) scale(1,1)"><path fill="#ffffff" stroke="none" d="M 706.0349090909091 219.04 C 706.0349090909091 213.495060608 710.4964317602909 209 716 209 C 721.5035682397091 209 725.9650909090909 213.495060608 725.9650909090909 219.04 C 725.9650909090909 224.584939392 721.5035682397091 229.07999999999998 716 229.07999999999998 C 710.4964317602909 229.07999999999998 706.0349090909091 224.584939392 706.0349090909091 219.04 Z"/></g><g transform="translate(-22,-22) scale(1,1)"><path fill="none" stroke="#000000" d="M 706.0349090909091 219.04 C 706.0349090909091 213.495060608 710.4964317602909 209 716 209 C 721.5035682397091 209 725.9650909090909 213.495060608 725.9650909090909 219.04 C 725.9650909090909 224.584939392 721.5035682397091 229.07999999999998 716 229.07999999999998 C 710.4964317602909 229.07999999999998 706.0349090909091 224.584939392 706.0349090909091 219.04 Z" stroke-miterlimit="10"/></g><g transform="translate(-22,-22) scale(1,1)"><path fill="none" stroke="#000000" d="M 716 229.07999999999998 L 716 248.92000000000002" stroke-miterlimit="10"/></g><g transform="translate(-22,-22) scale(1,1)"><path fill="none" stroke="#000000" d="M 705.4487272727273 236.52 L 726.5512727272727 236.52" stroke-miterlimit="10"/></g><g transform="translate(-22,-22) scale(1,1)"><path fill="none" stroke="#000000" d="M 716 248.92000000000002 L 701.3454545454546 269" stroke-miterlimit="10"/></g><g transform="translate(-22,-22) scale(1,1)"><path fill="none" stroke="#000000" d="M 716 248.92000000000002 L 730.6545454545454 269" stroke-miterlimit="10"/></g><g transform="translate(-22,-22) scale(1,1)"><g><path fill="none" stroke="none"/><text fill="#000000" stroke="none" font-family="Arial" font-size="13px" font-style="normal" font-weight="bold" text-decoration="none" x="673.359619140625" y="289.5">Representante</text><text fill="#000000" stroke="none" font-family="Arial" font-size="13px" font-style="normal" font-weight="bold" text-decoration="none" x="700.095947265625" y="302.5">Legal</text></g></g><g transform="translate(-22,-22) scale(1,1)"><path fill="#ffffff" stroke="none" d="M 438.0349090909091 235.04 C 438.0349090909091 229.495060608 442.49643176029093 225 448 225 C 453.50356823970907 225 457.9650909090909 229.495060608 457.9650909090909 235.04 C 457.9650909090909 240.584939392 453.50356823970907 245.07999999999998 448 245.07999999999998 C 442.49643176029093 245.07999999999998 438.0349090909091 240.584939392 438.0349090909091 235.04 Z"/></g><g transform="translate(-22,-22) scale(1,1)"><path fill="none" stroke="#000000" d="M 438.0349090909091 235.04 C 438.0349090909091 229.495060608 442.49643176029093 225 448 225 C 453.50356823970907 225 457.9650909090909 229.495060608 457.9650909090909 235.04 C 457.9650909090909 240.584939392 453.50356823970907 245.07999999999998 448 245.07999999999998 C 442.49643176029093 245.07999999999998 438.0349090909091 240.584939392 438.0349090909091 235.04 Z" stroke-miterlimit="10"/></g><g transform="translate(-22,-22) scale(1,1)"><path fill="none" stroke="#000000" d="M 448 245.07999999999998 L 448 264.92" stroke-miterlimit="10"/></g><g transform="translate(-22,-22) scale(1,1)"><path fill="none" stroke="#000000" d="M 437.4487272727273 252.52 L 458.5512727272727 252.52" stroke-miterlimit="10"/></g><g transform="translate(-22,-22) scale(1,1)"><path fill="none" stroke="#000000" d="M 448 264.92 L 433.3454545454546 285" stroke-miterlimit="10"/></g><g transform="translate(-22,-22) scale(1,1)"><path fill="none" stroke="#000000" d="M 448 264.92 L 462.6545454545454 285" stroke-miterlimit="10"/></g><g transform="translate(-22,-22) scale(1,1)"><g><path fill="none" stroke="none"/><text fill="#000000" stroke="none" font-family="Arial" font-size="13px" font-style="normal" font-weight="bold" text-decoration="none" x="412.589599609375" y="305.5">Investigador</text></g></g><g transform="translate(-22,-22) scale(1,1)"><path fill="#ffffff" stroke="none" d="M 435.17936985085225 569.6800000000001 C 435.17936985085225 564.8861679360001 439.06521217579774 561 443.858642578125 561 C 448.65207298045226 561 452.53791530539775 564.8861679360001 452.53791530539775 569.6800000000001 C 452.53791530539775 574.473832064 448.65207298045226 578.36 443.858642578125 578.36 C 439.06521217579774 578.36 435.17936985085225 574.473832064 435.17936985085225 569.6800000000001 Z"/></g><g transform="translate(-22,-22) scale(1,1)"><path fill="none" stroke="#000000" d="M 435.17936985085225 569.6800000000001 C 435.17936985085225 564.8861679360001 439.06521217579774 561 443.858642578125 561 C 448.65207298045226 561 452.53791530539775 564.8861679360001 452.53791530539775 569.6800000000001 C 452.53791530539775 574.473832064 448.65207298045226 578.36 443.858642578125 578.36 C 439.06521217579774 578.36 435.17936985085225 574.473832064 435.17936985085225 569.6800000000001 Z" stroke-miterlimit="10"/></g><g transform="translate(-22,-22) scale(1,1)"><path fill="none" stroke="#000000" d="M 443.858642578125 578.36 L 443.858642578125 595.64" stroke-miterlimit="10"/></g><g transform="translate(-22,-22) scale(1,1)"><path fill="none" stroke="#000000" d="M 434.66882439630683 584.84 L 453.04846075994317 584.84" stroke-miterlimit="10"/></g><g transform="translate(-22,-22) scale(1,1)"><path fill="none" stroke="#000000" d="M 443.858642578125 595.64 L 431.09500621448865 613" stroke-miterlimit="10"/></g><g transform="translate(-22,-22) scale(1,1)"><path fill="none" stroke="#000000" d="M 443.858642578125 595.64 L 456.62227894176135 613" stroke-miterlimit="10"/></g><g transform="translate(-22,-22) scale(1,1)"><g><path fill="none" stroke="none"/><text fill="#000000" stroke="none" font-family="Arial" font-size="13px" font-style="normal" font-weight="bold" text-decoration="none" x="408.4482421875" y="633.5">Investigador</text><text fill="#000000" stroke="none" font-family="Arial" font-size="13px" font-style="normal" font-weight="bold" text-decoration="none" x="407.721435546875" y="646.5">Consolidado</text></g></g><g transform="translate(-22,-22) scale(1,1)"><path fill="#ffffff" stroke="none" d="M 346.46843235085225 481.68 C 346.46843235085225 476.886167936 350.35427467579774 473 355.147705078125 473 C 359.94113548045226 473 363.82697780539775 476.886167936 363.82697780539775 481.68 C 363.82697780539775 486.473832064 359.94113548045226 490.36 355.147705078125 490.36 C 350.35427467579774 490.36 346.46843235085225 486.473832064 346.46843235085225 481.68 Z"/></g><g transform="translate(-22,-22) scale(1,1)"><path fill="none" stroke="#000000" d="M 346.46843235085225 481.68 C 346.46843235085225 476.886167936 350.35427467579774 473 355.147705078125 473 C 359.94113548045226 473 363.82697780539775 476.886167936 363.82697780539775 481.68 C 363.82697780539775 486.473832064 359.94113548045226 490.36 355.147705078125 490.36 C 350.35427467579774 490.36 346.46843235085225 486.473832064 346.46843235085225 481.68 Z" stroke-miterlimit="10"/></g><g transform="translate(-22,-22) scale(1,1)"><path fill="none" stroke="#000000" d="M 355.147705078125 490.36 L 355.147705078125 507.64" stroke-miterlimit="10"/></g><g transform="translate(-22,-22) scale(1,1)"><path fill="none" stroke="#000000" d="M 345.95788689630683 496.84 L 364.33752325994317 496.84" stroke-miterlimit="10"/></g><g transform="translate(-22,-22) scale(1,1)"><path fill="none" stroke="#000000" d="M 355.147705078125 507.64 L 342.38406871448865 525" stroke-miterlimit="10"/></g><g transform="translate(-22,-22) scale(1,1)"><path fill="none" stroke="#000000" d="M 355.147705078125 507.64 L 367.91134144176135 525" stroke-miterlimit="10"/></g><g transform="translate(-22,-22) scale(1,1)"><g><path fill="none" stroke="none"/><text fill="#000000" stroke="none" font-family="Arial" font-size="13px" font-style="normal" font-weight="bold" text-decoration="none" x="319.7373046875" y="545.5">Investigador</text><text fill="#000000" stroke="none" font-family="Arial" font-size="13px" font-style="normal" font-weight="bold" text-decoration="none" x="337.802734375" y="558.5">Joven</text></g></g><g transform="translate(-22,-22) scale(1,1)"><path fill="#ffffff" stroke="none" d="M 532.2775143821023 377.68 C 532.2775143821023 372.886167936 536.1633567070477 369 540.956787109375 369 C 545.7502175117023 369 549.6360598366477 372.886167936 549.6360598366477 377.68 C 549.6360598366477 382.473832064 545.7502175117023 386.36 540.956787109375 386.36 C 536.1633567070477 386.36 532.2775143821023 382.473832064 532.2775143821023 377.68 Z"/></g><g transform="translate(-22,-22) scale(1,1)"><path fill="none" stroke="#000000" d="M 532.2775143821023 377.68 C 532.2775143821023 372.886167936 536.1633567070477 369 540.956787109375 369 C 545.7502175117023 369 549.6360598366477 372.886167936 549.6360598366477 377.68 C 549.6360598366477 382.473832064 545.7502175117023 386.36 540.956787109375 386.36 C 536.1633567070477 386.36 532.2775143821023 382.473832064 532.2775143821023 377.68 Z" stroke-miterlimit="10"/></g><g transform="translate(-22,-22) scale(1,1)"><path fill="none" stroke="#000000" d="M 540.956787109375 386.36 L 540.956787109375 403.64" stroke-miterlimit="10"/></g><g transform="translate(-22,-22) scale(1,1)"><path fill="none" stroke="#000000" d="M 531.7669689275568 392.84 L 550.1466052911932 392.84" stroke-miterlimit="10"/></g><g transform="translate(-22,-22) scale(1,1)"><path fill="none" stroke="#000000" d="M 540.956787109375 403.64 L 528.1931507457386 421" stroke-miterlimit="10"/></g><g transform="translate(-22,-22) scale(1,1)"><path fill="none" stroke="#000000" d="M 540.956787109375 403.64 L 553.7204234730114 421" stroke-miterlimit="10"/></g><g transform="translate(-22,-22) scale(1,1)"><g><path fill="none" stroke="none"/><text fill="#000000" stroke="none" font-family="Arial" font-size="13px" font-style="normal" font-weight="bold" text-decoration="none" x="503.013671875" y="441.5">Responsable</text><text fill="#000000" stroke="none" font-family="Arial" font-size="13px" font-style="normal" font-weight="bold" text-decoration="none" x="518.197265625" y="454.5">Técnico</text></g></g><g transform="translate(-22,-22) scale(1,1)"><path fill="#ffffff" stroke="none" d="M 319.58024875710225 385.68 C 319.58024875710225 380.886167936 323.46609108204774 377 328.259521484375 377 C 333.05295188670226 377 336.93879421164775 380.886167936 336.93879421164775 385.68 C 336.93879421164775 390.473832064 333.05295188670226 394.36 328.259521484375 394.36 C 323.46609108204774 394.36 319.58024875710225 390.473832064 319.58024875710225 385.68 Z"/></g><g transform="translate(-22,-22) scale(1,1)"><path fill="none" stroke="#000000" d="M 319.58024875710225 385.68 C 319.58024875710225 380.886167936 323.46609108204774 377 328.259521484375 377 C 333.05295188670226 377 336.93879421164775 380.886167936 336.93879421164775 385.68 C 336.93879421164775 390.473832064 333.05295188670226 394.36 328.259521484375 394.36 C 323.46609108204774 394.36 319.58024875710225 390.473832064 319.58024875710225 385.68 Z" stroke-miterlimit="10"/></g><g transform="translate(-22,-22) scale(1,1)"><path fill="none" stroke="#000000" d="M 328.259521484375 394.36 L 328.259521484375 411.64" stroke-miterlimit="10"/></g><g transform="translate(-22,-22) scale(1,1)"><path fill="none" stroke="#000000" d="M 319.06970330255683 400.84 L 337.44933966619317 400.84" stroke-miterlimit="10"/></g><g transform="translate(-22,-22) scale(1,1)"><path fill="none" stroke="#000000" d="M 328.259521484375 411.64 L 315.49588512073865 429" stroke-miterlimit="10"/></g><g transform="translate(-22,-22) scale(1,1)"><path fill="none" stroke="#000000" d="M 328.259521484375 411.64 L 341.02315784801135 429" stroke-miterlimit="10"/></g><g transform="translate(-22,-22) scale(1,1)"><g><path fill="none" stroke="none"/><text fill="#000000" stroke="none" font-family="Arial" font-size="13px" font-style="normal" font-weight="bold" text-decoration="none" x="295.02001953125" y="449.5">Catedrático</text></g></g><g transform="translate(-22,-22) scale(1,1)"><path fill="none" stroke="#000000" d="M 369 423 L 399 423 M 399 423 A 8 8 0 0 0 407 415 L 407 311" stroke-miterlimit="10"/></g><g transform="translate(-22,-22) scale(1,1)"><path fill="#FFFFFF" stroke="none" d="M 415.419035512032 331.3253497152483 L 407 311 L 398.580964487968 331.3253497152483"/></g><g transform="translate(-22,-22) scale(1,1)"><path fill="none" stroke="#000000" d="M 415.419035512032 331.3253497152483 L 407 311 L 398.580964487968 331.3253497152483 L 415.419035512032 331.3253497152483" stroke-miterlimit="10"/></g><g transform="translate(-22,-22) scale(1,1)"><path fill="none" stroke="#000000" d="M 398 504 L 418 504 M 418 504 A 8 8 0 0 0 426 496 L 426 311" stroke-miterlimit="10"/></g><g transform="translate(-22,-22) scale(1,1)"><path fill="#FFFFFF" stroke="none" d="M 434.419035512032 331.3253497152483 L 426 311 L 417.580964487968 331.3253497152483"/></g><g transform="translate(-22,-22) scale(1,1)"><path fill="none" stroke="#000000" d="M 434.419035512032 331.3253497152483 L 426 311 L 417.580964487968 331.3253497152483 L 434.419035512032 331.3253497152483" stroke-miterlimit="10"/></g><g transform="translate(-22,-22) scale(1,1)"><path fill="none" stroke="#000000" d="M 447 560 L 447 311" stroke-miterlimit="10"/></g><g transform="translate(-22,-22) scale(1,1)"><path fill="#FFFFFF" stroke="none" d="M 455.419035512032 331.3253497152483 L 447 311 L 438.580964487968 331.3253497152483"/></g><g transform="translate(-22,-22) scale(1,1)"><path fill="none" stroke="#000000" d="M 455.419035512032 331.3253497152483 L 447 311 L 438.580964487968 331.3253497152483 L 455.419035512032 331.3253497152483" stroke-miterlimit="10"/></g><g transform="translate(-22,-22) scale(1,1)"><path fill="none" stroke="#000000" d="M 496 416 L 488 416 M 488 416 A 8 8 0 0 1 480 408 L 480 311" stroke-miterlimit="10"/></g><g transform="translate(-22,-22) scale(1,1)"><path fill="#FFFFFF" stroke="none" d="M 488.419035512032 331.3253497152483 L 480 311 L 471.580964487968 331.3253497152483"/></g><g transform="translate(-22,-22) scale(1,1)"><path fill="none" stroke="#000000" d="M 488.419035512032 331.3253497152483 L 480 311 L 471.580964487968 331.3253497152483 L 488.419035512032 331.3253497152483" stroke-miterlimit="10"/></g><g transform="translate(-22,-22) scale(1,1)"><path fill="#ffffff" stroke="none" d="M 440.7490909090909 44.4 C 440.7490909090909 38.10395328 445.78629392290907 33 452 33 C 458.21370607709093 33 463.2509090909091 38.10395328 463.2509090909091 44.4 C 463.2509090909091 50.69604672 458.21370607709093 55.8 452 55.8 C 445.78629392290907 55.8 440.7490909090909 50.69604672 440.7490909090909 44.4 Z"/></g><g transform="translate(-22,-22) scale(1,1)"><path fill="none" stroke="#000000" d="M 440.7490909090909 44.4 C 440.7490909090909 38.10395328 445.78629392290907 33 452 33 C 458.21370607709093 33 463.2509090909091 38.10395328 463.2509090909091 44.4 C 463.2509090909091 50.69604672 458.21370607709093 55.8 452 55.8 C 445.78629392290907 55.8 440.7490909090909 50.69604672 440.7490909090909 44.4 Z" stroke-miterlimit="10"/></g><g transform="translate(-22,-22) scale(1,1)"><path fill="none" stroke="#000000" d="M 452 55.8 L 452 78.2" stroke-miterlimit="10"/></g><g transform="translate(-22,-22) scale(1,1)"><path fill="none" stroke="#000000" d="M 440.08727272727276 64.2 L 463.91272727272724 64.2" stroke-miterlimit="10"/></g><g transform="translate(-22,-22) scale(1,1)"><path fill="none" stroke="#000000" d="M 452 78.2 L 435.4545454545455 101" stroke-miterlimit="10"/></g><g transform="translate(-22,-22) scale(1,1)"><path fill="none" stroke="#000000" d="M 452 78.2 L 468.5454545454545 101" stroke-miterlimit="10"/></g><g transform="translate(-22,-22) scale(1,1)"><g><path fill="none" stroke="none"/><text fill="#000000" stroke="none" font-family="Arial" font-size="13px" font-style="normal" font-weight="bold" text-decoration="none" x="402.142333984375" y="121.5">PersonaConCVU</text></g></g><g transform="translate(-22,-22) scale(1,1)"><path fill="none" stroke="#000000" d="M 448 224 L 448 127" stroke-miterlimit="10"/></g><g transform="translate(-22,-22) scale(1,1)"><path fill="#FFFFFF" stroke="none" d="M 456.419035512032 147.3253497152483 L 448 127 L 439.580964487968 147.3253497152483"/></g><g transform="translate(-22,-22) scale(1,1)"><path fill="none" stroke="#000000" d="M 456.419035512032 147.3253497152483 L 448 127 L 439.580964487968 147.3253497152483 L 456.419035512032 147.3253497152483" stroke-miterlimit="10"/></g><g transform="translate(-22,-22) scale(1,1)"><path fill="none" stroke="#000000" d="M 712 208 L 712 135 M 712 135 A 8 8 0 0 0 704 127 L 528 127" stroke-miterlimit="10"/></g><g transform="translate(-22,-22) scale(1,1)"><path fill="#FFFFFF" stroke="none" d="M 548.3253497152483 118.58096448796803 L 528 127 L 548.3253497152483 135.41903551203197"/></g><g transform="translate(-22,-22) scale(1,1)"><path fill="none" stroke="#000000" d="M 548.3253497152483 118.58096448796803 L 528 127 L 548.3253497152483 135.41903551203197 L 548.3253497152483 118.58096448796803" stroke-miterlimit="10"/></g><g transform="translate(-22,-22) scale(1,1)"><path fill="none" stroke="#000000" d="M 364 240 L 392 240 M 392 240 A 8 8 0 0 0 400 232 L 400 127" stroke-miterlimit="10"/></g><g transform="translate(-22,-22) scale(1,1)"><path fill="#FFFFFF" stroke="none" d="M 408.419035512032 147.3253497152483 L 400 127 L 391.580964487968 147.3253497152483"/></g><g transform="translate(-22,-22) scale(1,1)"><path fill="none" stroke="#000000" d="M 408.419035512032 147.3253497152483 L 400 127 L 391.580964487968 147.3253497152483 L 408.419035512032 147.3253497152483" stroke-miterlimit="10"/></g><g transform="translate(-22,-22) scale(1,1)"><path fill="none" stroke="#000000" d="M 520 232 L 496 232 M 496 232 A 8 8 0 0 1 488 224 L 488 127" stroke-miterlimit="10"/></g><g transform="translate(-22,-22) scale(1,1)"><path fill="#FFFFFF" stroke="none" d="M 496.419035512032 147.3253497152483 L 488 127 L 479.580964487968 147.3253497152483"/></g><g transform="translate(-22,-22) scale(1,1)"><path fill="none" stroke="#000000" d="M 496.419035512032 147.3253497152483 L 488 127 L 479.580964487968 147.3253497152483 L 496.419035512032 147.3253497152483" stroke-miterlimit="10"/></g><g transform="translate(-22,-22) scale(1,1)"><path fill="#ffffff" stroke="none" d="M 539.4916257102273 473.68 C 539.4916257102273 468.886167936 543.3774680351727 465 548.1708984375 465 C 552.9643288398273 465 556.8501711647727 468.886167936 556.8501711647727 473.68 C 556.8501711647727 478.473832064 552.9643288398273 482.36 548.1708984375 482.36 C 543.3774680351727 482.36 539.4916257102273 478.473832064 539.4916257102273 473.68 Z"/></g><g transform="translate(-22,-22) scale(1,1)"><path fill="none" stroke="#000000" d="M 539.4916257102273 473.68 C 539.4916257102273 468.886167936 543.3774680351727 465 548.1708984375 465 C 552.9643288398273 465 556.8501711647727 468.886167936 556.8501711647727 473.68 C 556.8501711647727 478.473832064 552.9643288398273 482.36 548.1708984375 482.36 C 543.3774680351727 482.36 539.4916257102273 478.473832064 539.4916257102273 473.68 Z" stroke-miterlimit="10"/></g><g transform="translate(-22,-22) scale(1,1)"><path fill="none" stroke="#000000" d="M 548.1708984375 482.36 L 548.1708984375 499.64" stroke-miterlimit="10"/></g><g transform="translate(-22,-22) scale(1,1)"><path fill="none" stroke="#000000" d="M 538.9810802556818 488.84 L 557.3607166193182 488.84" stroke-miterlimit="10"/></g><g transform="translate(-22,-22) scale(1,1)"><path fill="none" stroke="#000000" d="M 548.1708984375 499.64 L 535.4072620738636 517" stroke-miterlimit="10"/></g><g transform="translate(-22,-22) scale(1,1)"><path fill="none" stroke="#000000" d="M 548.1708984375 499.64 L 560.9345348011364 517" stroke-miterlimit="10"/></g><g transform="translate(-22,-22) scale(1,1)"><g><path fill="none" stroke="none"/><text fill="#000000" stroke="none" font-family="Arial" font-size="13px" font-style="normal" font-weight="bold" text-decoration="none" x="503.004150390625" y="537.5">Co-Reponsable</text><text fill="#000000" stroke="none" font-family="Arial" font-size="13px" font-style="normal" font-weight="bold" text-decoration="none" x="525.411376953125" y="550.5">Técnico</text></g></g><g transform="translate(-22,-22) scale(1,1)"><path fill="none" stroke="#000000" d="M 496 510 L 475 510 M 475 510 A 8 8 0 0 1 467 502 L 467 311" stroke-miterlimit="10"/></g><g transform="translate(-22,-22) scale(1,1)"><path fill="#FFFFFF" stroke="none" d="M 475.419035512032 331.3253497152483 L 467 311 L 458.580964487968 331.3253497152483"/></g><g transform="translate(-22,-22) scale(1,1)"><path fill="none" stroke="#000000" d="M 475.419035512032 331.3253497152483 L 467 311 L 458.580964487968 331.3253497152483 L 475.419035512032 331.3253497152483" stroke-miterlimit="10"/></g><g transform="translate(-22,-22) scale(1,1)"><path fill="#ffffff" stroke="none" d="M 133.04753391335228 233.68 C 133.04753391335228 228.886167936 136.93337623829774 225 141.726806640625 225 C 146.52023704295226 225 150.40607936789772 228.886167936 150.40607936789772 233.68 C 150.40607936789772 238.47383206400002 146.52023704295226 242.36 141.726806640625 242.36 C 136.93337623829774 242.36 133.04753391335228 238.47383206400002 133.04753391335228 233.68 Z"/></g><g transform="translate(-22,-22) scale(1,1)"><path fill="none" stroke="#000000" d="M 133.04753391335228 233.68 C 133.04753391335228 228.886167936 136.93337623829774 225 141.726806640625 225 C 146.52023704295226 225 150.40607936789772 228.886167936 150.40607936789772 233.68 C 150.40607936789772 238.47383206400002 146.52023704295226 242.36 141.726806640625 242.36 C 136.93337623829774 242.36 133.04753391335228 238.47383206400002 133.04753391335228 233.68 Z" stroke-miterlimit="10"/></g><g transform="translate(-22,-22) scale(1,1)"><path fill="none" stroke="#000000" d="M 141.726806640625 242.36 L 141.726806640625 259.64" stroke-miterlimit="10"/></g><g transform="translate(-22,-22) scale(1,1)"><path fill="none" stroke="#000000" d="M 132.53698845880683 248.84 L 150.91662482244317 248.84" stroke-miterlimit="10"/></g><g transform="translate(-22,-22) scale(1,1)"><path fill="none" stroke="#000000" d="M 141.726806640625 259.64 L 128.96317027698865 277" stroke-miterlimit="10"/></g><g transform="translate(-22,-22) scale(1,1)"><path fill="none" stroke="#000000" d="M 141.726806640625 259.64 L 154.49044300426135 277" stroke-miterlimit="10"/></g><g transform="translate(-22,-22) scale(1,1)"><g><path fill="none" stroke="none"/><text fill="#000000" stroke="none" font-family="Arial" font-size="13px" font-style="normal" font-weight="bold" text-decoration="none" x="111.010498046875" y="297.5">Estudiante</text></g></g><g transform="translate(-22,-22) scale(1,1)"><path fill="#ffffff" stroke="none" d="M 57.79753391335227 401.68 C 57.79753391335227 396.886167936 61.683376238297726 393 66.476806640625 393 C 71.27023704295227 393 75.15607936789773 396.886167936 75.15607936789773 401.68 C 75.15607936789773 406.473832064 71.27023704295227 410.36 66.476806640625 410.36 C 61.683376238297726 410.36 57.79753391335227 406.473832064 57.79753391335227 401.68 Z"/></g><g transform="translate(-22,-22) scale(1,1)"><path fill="none" stroke="#000000" d="M 57.79753391335227 401.68 C 57.79753391335227 396.886167936 61.683376238297726 393 66.476806640625 393 C 71.27023704295227 393 75.15607936789773 396.886167936 75.15607936789773 401.68 C 75.15607936789773 406.473832064 71.27023704295227 410.36 66.476806640625 410.36 C 61.683376238297726 410.36 57.79753391335227 406.473832064 57.79753391335227 401.68 Z" stroke-miterlimit="10"/></g><g transform="translate(-22,-22) scale(1,1)"><path fill="none" stroke="#000000" d="M 66.476806640625 410.36 L 66.476806640625 427.64" stroke-miterlimit="10"/></g><g transform="translate(-22,-22) scale(1,1)"><path fill="none" stroke="#000000" d="M 57.28698845880682 416.84 L 75.66662482244318 416.84" stroke-miterlimit="10"/></g><g transform="translate(-22,-22) scale(1,1)"><path fill="none" stroke="#000000" d="M 66.476806640625 427.64 L 53.713170276988635 445" stroke-miterlimit="10"/></g><g transform="translate(-22,-22) scale(1,1)"><path fill="none" stroke="#000000" d="M 66.476806640625 427.64 L 79.24044300426137 445" stroke-miterlimit="10"/></g><g transform="translate(-22,-22) scale(1,1)"><g><path fill="none" stroke="none"/><text fill="#000000" stroke="none" font-family="Arial" font-size="13px" font-style="normal" font-weight="bold" text-decoration="none" x="38.65185546875" y="465.5">Posgrado</text></g></g><g transform="translate(-22,-22) scale(1,1)"><path fill="#ffffff" stroke="none" d="M 220.32072727272728 417.68 C 220.32072727272728 412.886167936 224.20656959767274 409 229 409 C 233.79343040232726 409 237.67927272727272 412.886167936 237.67927272727272 417.68 C 237.67927272727272 422.473832064 233.79343040232726 426.36 229 426.36 C 224.20656959767274 426.36 220.32072727272728 422.473832064 220.32072727272728 417.68 Z"/></g><g transform="translate(-22,-22) scale(1,1)"><path fill="none" stroke="#000000" d="M 220.32072727272728 417.68 C 220.32072727272728 412.886167936 224.20656959767274 409 229 409 C 233.79343040232726 409 237.67927272727272 412.886167936 237.67927272727272 417.68 C 237.67927272727272 422.473832064 233.79343040232726 426.36 229 426.36 C 224.20656959767274 426.36 220.32072727272728 422.473832064 220.32072727272728 417.68 Z" stroke-miterlimit="10"/></g><g transform="translate(-22,-22) scale(1,1)"><path fill="none" stroke="#000000" d="M 229 426.36 L 229 443.64" stroke-miterlimit="10"/></g><g transform="translate(-22,-22) scale(1,1)"><path fill="none" stroke="#000000" d="M 219.81018181818183 432.84 L 238.18981818181817 432.84" stroke-miterlimit="10"/></g><g transform="translate(-22,-22) scale(1,1)"><path fill="none" stroke="#000000" d="M 229 443.64 L 216.23636363636365 461" stroke-miterlimit="10"/></g><g transform="translate(-22,-22) scale(1,1)"><path fill="none" stroke="#000000" d="M 229 443.64 L 241.76363636363635 461" stroke-miterlimit="10"/></g><g transform="translate(-22,-22) scale(1,1)"><g><path fill="none" stroke="none"/><text fill="#000000" stroke="none" font-family="Arial" font-size="13px" font-style="normal" font-weight="bold" text-decoration="none" x="199.010498046875" y="481.5">Doctorado</text></g></g><g transform="translate(-22,-22) scale(1,1)"><path fill="#ffffff" stroke="none" d="M 132.94206516335228 489.68 C 132.94206516335228 484.886167936 136.82790748829774 481 141.621337890625 481 C 146.41476829295226 481 150.30061061789772 484.886167936 150.30061061789772 489.68 C 150.30061061789772 494.473832064 146.41476829295226 498.36 141.621337890625 498.36 C 136.82790748829774 498.36 132.94206516335228 494.473832064 132.94206516335228 489.68 Z"/></g><g transform="translate(-22,-22) scale(1,1)"><path fill="none" stroke="#000000" d="M 132.94206516335228 489.68 C 132.94206516335228 484.886167936 136.82790748829774 481 141.621337890625 481 C 146.41476829295226 481 150.30061061789772 484.886167936 150.30061061789772 489.68 C 150.30061061789772 494.473832064 146.41476829295226 498.36 141.621337890625 498.36 C 136.82790748829774 498.36 132.94206516335228 494.473832064 132.94206516335228 489.68 Z" stroke-miterlimit="10"/></g><g transform="translate(-22,-22) scale(1,1)"><path fill="none" stroke="#000000" d="M 141.621337890625 498.36 L 141.621337890625 515.64" stroke-miterlimit="10"/></g><g transform="translate(-22,-22) scale(1,1)"><path fill="none" stroke="#000000" d="M 132.43151970880683 504.84 L 150.81115607244317 504.84" stroke-miterlimit="10"/></g><g transform="translate(-22,-22) scale(1,1)"><path fill="none" stroke="#000000" d="M 141.621337890625 515.64 L 128.85770152698865 533" stroke-miterlimit="10"/></g><g transform="translate(-22,-22) scale(1,1)"><path fill="none" stroke="#000000" d="M 141.621337890625 515.64 L 154.38497425426135 533" stroke-miterlimit="10"/></g><g transform="translate(-22,-22) scale(1,1)"><g><path fill="none" stroke="none"/><text fill="#000000" stroke="none" font-family="Arial" font-size="13px" font-style="normal" font-weight="bold" text-decoration="none" x="96.45458984375" y="553.5">Posdoctorantes</text></g></g><g transform="translate(-22,-22) scale(1,1)"><path fill="none" stroke="#000000" d="M 101 431 L 115 431 M 115 431 A 8 8 0 0 0 123 423 L 123 303" stroke-miterlimit="10"/></g><g transform="translate(-22,-22) scale(1,1)"><path fill="#FFFFFF" stroke="none" d="M 131.41903551203197 323.3253497152483 L 123 303 L 114.58096448796803 323.3253497152483"/></g><g transform="translate(-22,-22) scale(1,1)"><path fill="none" stroke="#000000" d="M 131.41903551203197 323.3253497152483 L 123 303 L 114.58096448796803 323.3253497152483 L 131.41903551203197 323.3253497152483" stroke-miterlimit="10"/></g><g transform="translate(-22,-22) scale(1,1)"><path fill="none" stroke="#000000" d="M 192 447 L 169 447 M 169 447 A 8 8 0 0 1 161 439 L 161 303" stroke-miterlimit="10"/></g><g transform="translate(-22,-22) scale(1,1)"><path fill="#FFFFFF" stroke="none" d="M 169.41903551203197 323.3253497152483 L 161 303 L 152.58096448796803 323.3253497152483"/></g><g transform="translate(-22,-22) scale(1,1)"><path fill="none" stroke="#000000" d="M 169.41903551203197 323.3253497152483 L 161 303 L 152.58096448796803 323.3253497152483 L 169.41903551203197 323.3253497152483" stroke-miterlimit="10"/></g><g transform="translate(-22,-22) scale(1,1)"><path fill="none" stroke="#000000" d="M 141 480 L 141 303" stroke-miterlimit="10"/></g><g transform="translate(-22,-22) scale(1,1)"><path fill="#FFFFFF" stroke="none" d="M 149.41903551203197 323.3253497152483 L 141 303 L 132.58096448796803 323.3253497152483"/></g><g transform="translate(-22,-22) scale(1,1)"><path fill="none" stroke="#000000" d="M 149.41903551203197 323.3253497152483 L 141 303 L 132.58096448796803 323.3253497152483 L 149.41903551203197 323.3253497152483" stroke-miterlimit="10"/></g><g transform="translate(-22,-22) scale(1,1)"><path fill="none" stroke="#000000" d="M 144 224 L 144 135 M 144 135 A 8 8 0 0 1 152 127 L 376 127" stroke-miterlimit="10"/></g><g transform="translate(-22,-22) scale(1,1)"><path fill="#FFFFFF" stroke="none" d="M 355.6746502847517 135.41903551203197 L 376 127 L 355.6746502847517 118.58096448796803"/></g><g transform="translate(-22,-22) scale(1,1)"><path fill="none" stroke="#000000" d="M 355.6746502847517 135.41903551203197 L 376 127 L 355.6746502847517 118.58096448796803 L 355.6746502847517 135.41903551203197" stroke-miterlimit="10"/></g><g transform="translate(-22,-22) scale(1,1)"><path fill="#ffffff" stroke="none" d="M 769.0275143821023 49.68 C 769.0275143821023 44.886167936 772.9133567070477 41 777.706787109375 41 C 782.5002175117023 41 786.3860598366477 44.886167936 786.3860598366477 49.68 C 786.3860598366477 54.473832064 782.5002175117023 58.36 777.706787109375 58.36 C 772.9133567070477 58.36 769.0275143821023 54.473832064 769.0275143821023 49.68 Z"/></g><g transform="translate(-22,-22) scale(1,1)"><path fill="none" stroke="#000000" d="M 769.0275143821023 49.68 C 769.0275143821023 44.886167936 772.9133567070477 41 777.706787109375 41 C 782.5002175117023 41 786.3860598366477 44.886167936 786.3860598366477 49.68 C 786.3860598366477 54.473832064 782.5002175117023 58.36 777.706787109375 58.36 C 772.9133567070477 58.36 769.0275143821023 54.473832064 769.0275143821023 49.68 Z" stroke-miterlimit="10"/></g><g transform="translate(-22,-22) scale(1,1)"><path fill="none" stroke="#000000" d="M 777.706787109375 58.36 L 777.706787109375 75.64" stroke-miterlimit="10"/></g><g transform="translate(-22,-22) scale(1,1)"><path fill="none" stroke="#000000" d="M 768.5169689275568 64.84 L 786.8966052911932 64.84" stroke-miterlimit="10"/></g><g transform="translate(-22,-22) scale(1,1)"><path fill="none" stroke="#000000" d="M 777.706787109375 75.64 L 764.9431507457386 93" stroke-miterlimit="10"/></g><g transform="translate(-22,-22) scale(1,1)"><path fill="none" stroke="#000000" d="M 777.706787109375 75.64 L 790.4704234730114 93" stroke-miterlimit="10"/></g><g transform="translate(-22,-22) scale(1,1)"><g><path fill="none" stroke="none"/><text fill="#000000" stroke="none" font-family="Arial" font-size="13px" font-style="normal" font-weight="bold" text-decoration="none" x="743.3818359375" y="113.5">Participante</text></g></g><g transform="translate(-22,-22) scale(1,1)"><path fill="none" stroke="#000000" d="M 528 79 L 736 79" stroke-miterlimit="10"/></g><g transform="translate(-22,-22) scale(1,1)"><path fill="none" stroke="#000000" d="M 725.8373251423759 83.20951775601598 L 736 79 L 725.8373251423758 74.79048224398402" stroke-miterlimit="10"/></g><g transform="translate(-22,-22) scale(1,1)"><g><path fill="none" stroke="none"/><text fill="#000000" stroke="none" font-family="Arial" font-size="13px" font-style="normal" font-weight="normal" text-decoration="none" x="599.5" y="70.5">+puede ser</text></g></g></g></svg>