<svg version="1.1" xmlns="http://www.w3.org/2000/svg" xmlns:xlink="http://www.w3.org/1999/xlink" width="1111" height="627"><defs></defs><g><g transform="translate(-46,-46) scale(1,1)"><path fill="#ffffff" stroke="none" d="M 197.32707492897728 433.68 C 197.32707492897728 428.886167936 201.21291725392274 425 206.00634765625 425 C 210.79977805857726 425 214.68562038352272 428.886167936 214.68562038352272 433.68 C 214.68562038352272 438.473832064 210.79977805857726 442.36 206.00634765625 442.36 C 201.21291725392274 442.36 197.32707492897728 438.473832064 197.32707492897728 433.68 Z"></path></g><g transform="translate(-46,-46) scale(1,1)"><path fill="none" stroke="#000000" d="M 197.32707492897728 433.68 C 197.32707492897728 428.886167936 201.21291725392274 425 206.00634765625 425 C 210.79977805857726 425 214.68562038352272 428.886167936 214.68562038352272 433.68 C 214.68562038352272 438.473832064 210.79977805857726 442.36 206.00634765625 442.36 C 201.21291725392274 442.36 197.32707492897728 438.473832064 197.32707492897728 433.68 Z" stroke-miterlimit="10"></path></g><g transform="translate(-46,-46) scale(1,1)"><path fill="none" stroke="#000000" d="M 206.00634765625 442.36 L 206.00634765625 459.64" stroke-miterlimit="10"></path></g><g transform="translate(-46,-46) scale(1,1)"><path fill="none" stroke="#000000" d="M 196.81652947443183 448.84 L 215.19616583806817 448.84" stroke-miterlimit="10"></path></g><g transform="translate(-46,-46) scale(1,1)"><path fill="none" stroke="#000000" d="M 206.00634765625 459.64 L 193.24271129261365 477" stroke-miterlimit="10"></path></g><g transform="translate(-46,-46) scale(1,1)"><path fill="none" stroke="#000000" d="M 206.00634765625 459.64 L 218.76998401988635 477" stroke-miterlimit="10"></path></g><g transform="translate(-46,-46) scale(1,1)"><g><path fill="none" stroke="none"></path><text fill="#000000" stroke="none" font-family="Arial" font-size="13px" font-style="normal" font-weight="normal" text-decoration="none" x="192.00634765625" y="495.5">«rol»</text></g></g><g transform="translate(-46,-46) scale(1,1)"><g><path fill="none" stroke="none"></path><text fill="#000000" stroke="none" font-family="Arial" font-size="13px" font-style="normal" font-weight="bold" text-decoration="none" x="168.50634765625" y="510.5">Responsable</text><text fill="#000000" stroke="none" font-family="Arial" font-size="13px" font-style="normal" font-weight="bold" text-decoration="none" x="164.50634765625" y="523.5">Administrativo</text></g></g><g transform="translate(-46,-46) scale(1,1)"><path fill="#ffffff" stroke="none" d="M 103.10661594460227 345.68 C 103.10661594460227 340.886167936 106.99245826954773 337 111.785888671875 337 C 116.57931907420227 337 120.46516139914773 340.886167936 120.46516139914773 345.68 C 120.46516139914773 350.473832064 116.57931907420227 354.36 111.785888671875 354.36 C 106.99245826954773 354.36 103.10661594460227 350.473832064 103.10661594460227 345.68 Z"></path></g><g transform="translate(-46,-46) scale(1,1)"><path fill="none" stroke="#000000" d="M 103.10661594460227 345.68 C 103.10661594460227 340.886167936 106.99245826954773 337 111.785888671875 337 C 116.57931907420227 337 120.46516139914773 340.886167936 120.46516139914773 345.68 C 120.46516139914773 350.473832064 116.57931907420227 354.36 111.785888671875 354.36 C 106.99245826954773 354.36 103.10661594460227 350.473832064 103.10661594460227 345.68 Z" stroke-miterlimit="10"></path></g><g transform="translate(-46,-46) scale(1,1)"><path fill="none" stroke="#000000" d="M 111.785888671875 354.36 L 111.785888671875 371.64" stroke-miterlimit="10"></path></g><g transform="translate(-46,-46) scale(1,1)"><path fill="none" stroke="#000000" d="M 102.59607049005682 360.84 L 120.97570685369318 360.84" stroke-miterlimit="10"></path></g><g transform="translate(-46,-46) scale(1,1)"><path fill="none" stroke="#000000" d="M 111.785888671875 371.64 L 99.02225230823863 389" stroke-miterlimit="10"></path></g><g transform="translate(-46,-46) scale(1,1)"><path fill="none" stroke="#000000" d="M 111.785888671875 371.64 L 124.54952503551137 389" stroke-miterlimit="10"></path></g><g transform="translate(-46,-46) scale(1,1)"><g><path fill="none" stroke="none"></path><text fill="#000000" stroke="none" font-family="Arial" font-size="13px" font-style="normal" font-weight="normal" text-decoration="none" x="97.785888671875" y="407.5">«rol»</text></g></g><g transform="translate(-46,-46) scale(1,1)"><g><path fill="none" stroke="none"></path><text fill="#000000" stroke="none" font-family="Arial" font-size="13px" font-style="normal" font-weight="bold" text-decoration="none" x="64.285888671875" y="422.5">Co-Responsable</text><text fill="#000000" stroke="none" font-family="Arial" font-size="13px" font-style="normal" font-weight="bold" text-decoration="none" x="70.285888671875" y="435.5">Administrativo</text></g></g><g transform="translate(-46,-46) scale(1,1)"><path fill="#ffffff" stroke="none" d="M 295.82072727272725 353.68 C 295.82072727272725 348.886167936 299.70656959767274 345 304.5 345 C 309.29343040232726 345 313.17927272727275 348.886167936 313.17927272727275 353.68 C 313.17927272727275 358.473832064 309.29343040232726 362.36 304.5 362.36 C 299.70656959767274 362.36 295.82072727272725 358.473832064 295.82072727272725 353.68 Z"></path></g><g transform="translate(-46,-46) scale(1,1)"><path fill="none" stroke="#000000" d="M 295.82072727272725 353.68 C 295.82072727272725 348.886167936 299.70656959767274 345 304.5 345 C 309.29343040232726 345 313.17927272727275 348.886167936 313.17927272727275 353.68 C 313.17927272727275 358.473832064 309.29343040232726 362.36 304.5 362.36 C 299.70656959767274 362.36 295.82072727272725 358.473832064 295.82072727272725 353.68 Z" stroke-miterlimit="10"></path></g><g transform="translate(-46,-46) scale(1,1)"><path fill="none" stroke="#000000" d="M 304.5 362.36 L 304.5 379.64" stroke-miterlimit="10"></path></g><g transform="translate(-46,-46) scale(1,1)"><path fill="none" stroke="#000000" d="M 295.31018181818183 368.84 L 313.68981818181817 368.84" stroke-miterlimit="10"></path></g><g transform="translate(-46,-46) scale(1,1)"><path fill="none" stroke="#000000" d="M 304.5 379.64 L 291.73636363636365 397" stroke-miterlimit="10"></path></g><g transform="translate(-46,-46) scale(1,1)"><path fill="none" stroke="#000000" d="M 304.5 379.64 L 317.26363636363635 397" stroke-miterlimit="10"></path></g><g transform="translate(-46,-46) scale(1,1)"><g><path fill="none" stroke="none"></path><text fill="#000000" stroke="none" font-family="Arial" font-size="13px" font-style="normal" font-weight="normal" text-decoration="none" x="290.5" y="415.5">«rol»</text></g></g><g transform="translate(-46,-46) scale(1,1)"><g><path fill="none" stroke="none"></path><text fill="#000000" stroke="none" font-family="Arial" font-size="13px" font-style="normal" font-weight="bold" text-decoration="none" x="262.5" y="430.5">Representante</text><text fill="#000000" stroke="none" font-family="Arial" font-size="13px" font-style="normal" font-weight="bold" text-decoration="none" x="289" y="443.5">Legal</text></g></g><g transform="translate(-46,-46) scale(1,1)"><path fill="#ffffff" stroke="none" d="M 697.0349090909091 363.03999999999996 C 697.0349090909091 357.49506060799996 701.4964317602909 353 707 353 C 712.5035682397091 353 716.9650909090909 357.49506060799996 716.9650909090909 363.03999999999996 C 716.9650909090909 368.58493939199997 712.5035682397091 373.08 707 373.08 C 701.4964317602909 373.08 697.0349090909091 368.58493939199997 697.0349090909091 363.03999999999996 Z"></path></g><g transform="translate(-46,-46) scale(1,1)"><path fill="none" stroke="#000000" d="M 697.0349090909091 363.03999999999996 C 697.0349090909091 357.49506060799996 701.4964317602909 353 707 353 C 712.5035682397091 353 716.9650909090909 357.49506060799996 716.9650909090909 363.03999999999996 C 716.9650909090909 368.58493939199997 712.5035682397091 373.08 707 373.08 C 701.4964317602909 373.08 697.0349090909091 368.58493939199997 697.0349090909091 363.03999999999996 Z" stroke-miterlimit="10"></path></g><g transform="translate(-46,-46) scale(1,1)"><path fill="none" stroke="#000000" d="M 707 373.08 L 707 392.92" stroke-miterlimit="10"></path></g><g transform="translate(-46,-46) scale(1,1)"><path fill="none" stroke="#000000" d="M 696.4487272727273 380.52 L 717.5512727272727 380.52" stroke-miterlimit="10"></path></g><g transform="translate(-46,-46) scale(1,1)"><path fill="none" stroke="#000000" d="M 707 392.92 L 692.3454545454546 413" stroke-miterlimit="10"></path></g><g transform="translate(-46,-46) scale(1,1)"><path fill="none" stroke="#000000" d="M 707 392.92 L 721.6545454545454 413" stroke-miterlimit="10"></path></g><g transform="translate(-46,-46) scale(1,1)"><g><path fill="none" stroke="none"></path><text fill="#000000" stroke="none" font-family="Arial" font-size="13px" font-style="normal" font-weight="bold" text-decoration="none" x="671.5" y="433.5">Investigador</text></g></g><g transform="translate(-46,-46) scale(1,1)"><path fill="#ffffff" stroke="none" d="M 779.3207272727273 513.6800000000001 C 779.3207272727273 508.88616793600005 783.2065695976727 505 788 505 C 792.7934304023273 505 796.6792727272727 508.88616793600005 796.6792727272727 513.6800000000001 C 796.6792727272727 518.473832064 792.7934304023273 522.36 788 522.36 C 783.2065695976727 522.36 779.3207272727273 518.473832064 779.3207272727273 513.6800000000001 Z"></path></g><g transform="translate(-46,-46) scale(1,1)"><path fill="none" stroke="#000000" d="M 779.3207272727273 513.6800000000001 C 779.3207272727273 508.88616793600005 783.2065695976727 505 788 505 C 792.7934304023273 505 796.6792727272727 508.88616793600005 796.6792727272727 513.6800000000001 C 796.6792727272727 518.473832064 792.7934304023273 522.36 788 522.36 C 783.2065695976727 522.36 779.3207272727273 518.473832064 779.3207272727273 513.6800000000001 Z" stroke-miterlimit="10"></path></g><g transform="translate(-46,-46) scale(1,1)"><path fill="none" stroke="#000000" d="M 788 522.36 L 788 539.64" stroke-miterlimit="10"></path></g><g transform="translate(-46,-46) scale(1,1)"><path fill="none" stroke="#000000" d="M 778.8101818181818 528.84 L 797.1898181818182 528.84" stroke-miterlimit="10"></path></g><g transform="translate(-46,-46) scale(1,1)"><path fill="none" stroke="#000000" d="M 788 539.64 L 775.2363636363636 557" stroke-miterlimit="10"></path></g><g transform="translate(-46,-46) scale(1,1)"><path fill="none" stroke="#000000" d="M 788 539.64 L 800.7636363636364 557" stroke-miterlimit="10"></path></g><g transform="translate(-46,-46) scale(1,1)"><g><path fill="none" stroke="none"></path><text fill="#000000" stroke="none" font-family="Arial" font-size="13px" font-style="normal" font-weight="bold" text-decoration="none" x="752.5" y="577.5">Investigador</text><text fill="#000000" stroke="none" font-family="Arial" font-size="13px" font-style="normal" font-weight="bold" text-decoration="none" x="752.5" y="590.5">Consolidado</text></g></g><g transform="translate(-46,-46) scale(1,1)"><path fill="#ffffff" stroke="none" d="M 698.4684323508523 577.6800000000001 C 698.4684323508523 572.8861679360001 702.3542746757977 569 707.147705078125 569 C 711.9411354804523 569 715.8269778053977 572.8861679360001 715.8269778053977 577.6800000000001 C 715.8269778053977 582.473832064 711.9411354804523 586.36 707.147705078125 586.36 C 702.3542746757977 586.36 698.4684323508523 582.473832064 698.4684323508523 577.6800000000001 Z"></path></g><g transform="translate(-46,-46) scale(1,1)"><path fill="none" stroke="#000000" d="M 698.4684323508523 577.6800000000001 C 698.4684323508523 572.8861679360001 702.3542746757977 569 707.147705078125 569 C 711.9411354804523 569 715.8269778053977 572.8861679360001 715.8269778053977 577.6800000000001 C 715.8269778053977 582.473832064 711.9411354804523 586.36 707.147705078125 586.36 C 702.3542746757977 586.36 698.4684323508523 582.473832064 698.4684323508523 577.6800000000001 Z" stroke-miterlimit="10"></path></g><g transform="translate(-46,-46) scale(1,1)"><path fill="none" stroke="#000000" d="M 707.147705078125 586.36 L 707.147705078125 603.64" stroke-miterlimit="10"></path></g><g transform="translate(-46,-46) scale(1,1)"><path fill="none" stroke="#000000" d="M 697.9578868963068 592.84 L 716.3375232599432 592.84" stroke-miterlimit="10"></path></g><g transform="translate(-46,-46) scale(1,1)"><path fill="none" stroke="#000000" d="M 707.147705078125 603.64 L 694.3840687144886 621" stroke-miterlimit="10"></path></g><g transform="translate(-46,-46) scale(1,1)"><path fill="none" stroke="#000000" d="M 707.147705078125 603.64 L 719.9113414417614 621" stroke-miterlimit="10"></path></g><g transform="translate(-46,-46) scale(1,1)"><g><path fill="none" stroke="none"></path><text fill="#000000" stroke="none" font-family="Arial" font-size="13px" font-style="normal" font-weight="bold" text-decoration="none" x="671.647705078125" y="641.5">Investigador</text><text fill="#000000" stroke="none" font-family="Arial" font-size="13px" font-style="normal" font-weight="bold" text-decoration="none" x="689.647705078125" y="654.5">Joven</text></g></g><g transform="translate(-46,-46) scale(1,1)"><path fill="#ffffff" stroke="none" d="M 1010.3207272727273 545.6800000000001 C 1010.3207272727273 540.8861679360001 1014.2065695976727 537 1019 537 C 1023.7934304023273 537 1027.6792727272727 540.8861679360001 1027.6792727272727 545.6800000000001 C 1027.6792727272727 550.473832064 1023.7934304023273 554.36 1019 554.36 C 1014.2065695976727 554.36 1010.3207272727273 550.473832064 1010.3207272727273 545.6800000000001 Z"></path></g><g transform="translate(-46,-46) scale(1,1)"><path fill="none" stroke="#000000" d="M 1010.3207272727273 545.6800000000001 C 1010.3207272727273 540.8861679360001 1014.2065695976727 537 1019 537 C 1023.7934304023273 537 1027.6792727272727 540.8861679360001 1027.6792727272727 545.6800000000001 C 1027.6792727272727 550.473832064 1023.7934304023273 554.36 1019 554.36 C 1014.2065695976727 554.36 1010.3207272727273 550.473832064 1010.3207272727273 545.6800000000001 Z" stroke-miterlimit="10"></path></g><g transform="translate(-46,-46) scale(1,1)"><path fill="none" stroke="#000000" d="M 1019 554.36 L 1019 571.64" stroke-miterlimit="10"></path></g><g transform="translate(-46,-46) scale(1,1)"><path fill="none" stroke="#000000" d="M 1009.8101818181818 560.84 L 1028.1898181818183 560.84" stroke-miterlimit="10"></path></g><g transform="translate(-46,-46) scale(1,1)"><path fill="none" stroke="#000000" d="M 1019 571.64 L 1006.2363636363636 589" stroke-miterlimit="10"></path></g><g transform="translate(-46,-46) scale(1,1)"><path fill="none" stroke="#000000" d="M 1019 571.64 L 1031.7636363636364 589" stroke-miterlimit="10"></path></g><g transform="translate(-46,-46) scale(1,1)"><g><path fill="none" stroke="none"></path><text fill="#000000" stroke="none" font-family="Arial" font-size="13px" font-style="normal" font-weight="normal" text-decoration="none" x="1005" y="607.5">«rol»</text></g></g><g transform="translate(-46,-46) scale(1,1)"><g><path fill="none" stroke="none"></path><text fill="#000000" stroke="none" font-family="Arial" font-size="13px" font-style="normal" font-weight="bold" text-decoration="none" x="981.5" y="622.5">Responsable</text><text fill="#000000" stroke="none" font-family="Arial" font-size="13px" font-style="normal" font-weight="bold" text-decoration="none" x="996" y="635.5">Técnico</text></g></g><g transform="translate(-46,-46) scale(1,1)"><path fill="#ffffff" stroke="none" d="M 615.5802487571023 521.6800000000001 C 615.5802487571023 516.8861679360001 619.4660910820477 513 624.259521484375 513 C 629.0529518867023 513 632.9387942116477 516.8861679360001 632.9387942116477 521.6800000000001 C 632.9387942116477 526.473832064 629.0529518867023 530.36 624.259521484375 530.36 C 619.4660910820477 530.36 615.5802487571023 526.473832064 615.5802487571023 521.6800000000001 Z"></path></g><g transform="translate(-46,-46) scale(1,1)"><path fill="none" stroke="#000000" d="M 615.5802487571023 521.6800000000001 C 615.5802487571023 516.8861679360001 619.4660910820477 513 624.259521484375 513 C 629.0529518867023 513 632.9387942116477 516.8861679360001 632.9387942116477 521.6800000000001 C 632.9387942116477 526.473832064 629.0529518867023 530.36 624.259521484375 530.36 C 619.4660910820477 530.36 615.5802487571023 526.473832064 615.5802487571023 521.6800000000001 Z" stroke-miterlimit="10"></path></g><g transform="translate(-46,-46) scale(1,1)"><path fill="none" stroke="#000000" d="M 624.259521484375 530.36 L 624.259521484375 547.64" stroke-miterlimit="10"></path></g><g transform="translate(-46,-46) scale(1,1)"><path fill="none" stroke="#000000" d="M 615.0697033025568 536.84 L 633.4493396661932 536.84" stroke-miterlimit="10"></path></g><g transform="translate(-46,-46) scale(1,1)"><path fill="none" stroke="#000000" d="M 624.259521484375 547.64 L 611.4958851207386 565" stroke-miterlimit="10"></path></g><g transform="translate(-46,-46) scale(1,1)"><path fill="none" stroke="#000000" d="M 624.259521484375 547.64 L 637.0231578480114 565" stroke-miterlimit="10"></path></g><g transform="translate(-46,-46) scale(1,1)"><g><path fill="none" stroke="none"></path><text fill="#000000" stroke="none" font-family="Arial" font-size="13px" font-style="normal" font-weight="bold" text-decoration="none" x="591.259521484375" y="585.5">Catedrático</text></g></g><g transform="translate(-46,-46) scale(1,1)"><path fill="none" stroke="#000000" d="M 665 559 L 679 559 M 679 559 A 8 8 0 0 0 687 551 L 687 439" stroke-miterlimit="10"></path></g><g transform="translate(-46,-46) scale(1,1)"><path fill="#FFFFFF" stroke="none" d="M 695.419035512032 459.3253497152483 L 687 439 L 678.580964487968 459.3253497152483"></path></g><g transform="translate(-46,-46) scale(1,1)"><path fill="none" stroke="#000000" d="M 695.419035512032 459.3253497152483 L 687 439 L 678.580964487968 459.3253497152483 L 695.419035512032 459.3253497152483" stroke-miterlimit="10"></path></g><g transform="translate(-46,-46) scale(1,1)"><path fill="none" stroke="#000000" d="M 706 568 L 706 439" stroke-miterlimit="10"></path></g><g transform="translate(-46,-46) scale(1,1)"><path fill="#FFFFFF" stroke="none" d="M 714.419035512032 459.3253497152483 L 706 439 L 697.580964487968 459.3253497152483"></path></g><g transform="translate(-46,-46) scale(1,1)"><path fill="none" stroke="#000000" d="M 714.419035512032 459.3253497152483 L 706 439 L 697.580964487968 459.3253497152483 L 714.419035512032 459.3253497152483" stroke-miterlimit="10"></path></g><g transform="translate(-46,-46) scale(1,1)"><path fill="none" stroke="#000000" d="M 744 552 L 736 552 M 736 552 A 8 8 0 0 1 728 544 L 728 439" stroke-miterlimit="10"></path></g><g transform="translate(-46,-46) scale(1,1)"><path fill="#FFFFFF" stroke="none" d="M 736.419035512032 459.3253497152483 L 728 439 L 719.580964487968 459.3253497152483"></path></g><g transform="translate(-46,-46) scale(1,1)"><path fill="none" stroke="#000000" d="M 736.419035512032 459.3253497152483 L 728 439 L 719.580964487968 459.3253497152483 L 736.419035512032 459.3253497152483" stroke-miterlimit="10"></path></g><g transform="translate(-46,-46) scale(1,1)"><path fill="none" stroke="#000000" d="M 1016 536 L 1016 449" stroke-miterlimit="10"></path></g><g transform="translate(-46,-46) scale(1,1)"><path fill="#FFFFFF" stroke="none" d="M 1024.419035512032 469.3253497152483 L 1016 449 L 1007.580964487968 469.3253497152483"></path></g><g transform="translate(-46,-46) scale(1,1)"><path fill="none" stroke="#000000" d="M 1024.419035512032 469.3253497152483 L 1016 449 L 1007.580964487968 469.3253497152483 L 1024.419035512032 469.3253497152483" stroke-miterlimit="10"></path></g><g transform="translate(-46,-46) scale(1,1)"><path fill="#ffffff" stroke="none" d="M 564.7490909090909 228.4 C 564.7490909090909 222.10395328 569.7862939229091 217 576 217 C 582.2137060770909 217 587.2509090909091 222.10395328 587.2509090909091 228.4 C 587.2509090909091 234.69604672 582.2137060770909 239.8 576 239.8 C 569.7862939229091 239.8 564.7490909090909 234.69604672 564.7490909090909 228.4 Z"></path></g><g transform="translate(-46,-46) scale(1,1)"><path fill="none" stroke="#000000" d="M 564.7490909090909 228.4 C 564.7490909090909 222.10395328 569.7862939229091 217 576 217 C 582.2137060770909 217 587.2509090909091 222.10395328 587.2509090909091 228.4 C 587.2509090909091 234.69604672 582.2137060770909 239.8 576 239.8 C 569.7862939229091 239.8 564.7490909090909 234.69604672 564.7490909090909 228.4 Z" stroke-miterlimit="10"></path></g><g transform="translate(-46,-46) scale(1,1)"><path fill="none" stroke="#000000" d="M 576 239.8 L 576 262.2" stroke-miterlimit="10"></path></g><g transform="translate(-46,-46) scale(1,1)"><path fill="none" stroke="#000000" d="M 564.0872727272728 248.2 L 587.9127272727272 248.2" stroke-miterlimit="10"></path></g><g transform="translate(-46,-46) scale(1,1)"><path fill="none" stroke="#000000" d="M 576 262.2 L 559.4545454545455 285" stroke-miterlimit="10"></path></g><g transform="translate(-46,-46) scale(1,1)"><path fill="none" stroke="#000000" d="M 576 262.2 L 592.5454545454545 285" stroke-miterlimit="10"></path></g><g transform="translate(-46,-46) scale(1,1)"><g><path fill="none" stroke="none"></path><text fill="#000000" stroke="none" font-family="Arial" font-size="13px" font-style="normal" font-weight="bold" text-decoration="none" x="527" y="305.5">PersonaConCVU</text></g></g><g transform="translate(-46,-46) scale(1,1)"><path fill="none" stroke="#000000" d="M 664 408 L 592 408 M 592 408 A 8 8 0 0 1 584 400 L 584 311" stroke-miterlimit="10"></path></g><g transform="translate(-46,-46) scale(1,1)"><path fill="#FFFFFF" stroke="none" d="M 592.419035512032 331.3253497152483 L 584 311 L 575.580964487968 331.3253497152483"></path></g><g transform="translate(-46,-46) scale(1,1)"><path fill="none" stroke="#000000" d="M 592.419035512032 331.3253497152483 L 584 311 L 575.580964487968 331.3253497152483 L 592.419035512032 331.3253497152483" stroke-miterlimit="10"></path></g><g transform="translate(-46,-46) scale(1,1)"><path fill="none" stroke="#000000" d="M 256 400 L 240 400 M 240 400 A 8 8 0 0 1 232 392 L 232 326" stroke-miterlimit="10"></path></g><g transform="translate(-46,-46) scale(1,1)"><path fill="#FFFFFF" stroke="none" d="M 240.41903551203197 346.3253497152483 L 232 326 L 223.58096448796803 346.3253497152483"></path></g><g transform="translate(-46,-46) scale(1,1)"><path fill="none" stroke="#000000" d="M 240.41903551203197 346.3253497152483 L 232 326 L 223.58096448796803 346.3253497152483 L 240.41903551203197 346.3253497152483" stroke-miterlimit="10"></path></g><g transform="translate(-46,-46) scale(1,1)"><path fill="none" stroke="#000000" d="M 208 424 L 208 326" stroke-miterlimit="10"></path></g><g transform="translate(-46,-46) scale(1,1)"><path fill="#FFFFFF" stroke="none" d="M 216.41903551203197 346.3253497152483 L 208 326 L 199.58096448796803 346.3253497152483"></path></g><g transform="translate(-46,-46) scale(1,1)"><path fill="none" stroke="#000000" d="M 216.41903551203197 346.3253497152483 L 208 326 L 199.58096448796803 346.3253497152483 L 216.41903551203197 346.3253497152483" stroke-miterlimit="10"></path></g><g transform="translate(-46,-46) scale(1,1)"><path fill="none" stroke="#000000" d="M 168 400 L 176 400 M 176 400 A 8 8 0 0 0 184 392 L 184 326" stroke-miterlimit="10"></path></g><g transform="translate(-46,-46) scale(1,1)"><path fill="#FFFFFF" stroke="none" d="M 192.41903551203197 346.3253497152483 L 184 326 L 175.58096448796803 346.3253497152483"></path></g><g transform="translate(-46,-46) scale(1,1)"><path fill="none" stroke="#000000" d="M 192.41903551203197 346.3253497152483 L 184 326 L 175.58096448796803 346.3253497152483 L 192.41903551203197 346.3253497152483" stroke-miterlimit="10"></path></g><g transform="translate(-46,-46) scale(1,1)"><path fill="#ffffff" stroke="none" d="M 922.8207272727273 505.68 C 922.8207272727273 500.886167936 926.7065695976727 497 931.5 497 C 936.2934304023273 497 940.1792727272727 500.886167936 940.1792727272727 505.68 C 940.1792727272727 510.473832064 936.2934304023273 514.36 931.5 514.36 C 926.7065695976727 514.36 922.8207272727273 510.473832064 922.8207272727273 505.68 Z"></path></g><g transform="translate(-46,-46) scale(1,1)"><path fill="none" stroke="#000000" d="M 922.8207272727273 505.68 C 922.8207272727273 500.886167936 926.7065695976727 497 931.5 497 C 936.2934304023273 497 940.1792727272727 500.886167936 940.1792727272727 505.68 C 940.1792727272727 510.473832064 936.2934304023273 514.36 931.5 514.36 C 926.7065695976727 514.36 922.8207272727273 510.473832064 922.8207272727273 505.68 Z" stroke-miterlimit="10"></path></g><g transform="translate(-46,-46) scale(1,1)"><path fill="none" stroke="#000000" d="M 931.5 514.36 L 931.5 531.64" stroke-miterlimit="10"></path></g><g transform="translate(-46,-46) scale(1,1)"><path fill="none" stroke="#000000" d="M 922.3101818181818 520.84 L 940.6898181818182 520.84" stroke-miterlimit="10"></path></g><g transform="translate(-46,-46) scale(1,1)"><path fill="none" stroke="#000000" d="M 931.5 531.64 L 918.7363636363636 549" stroke-miterlimit="10"></path></g><g transform="translate(-46,-46) scale(1,1)"><path fill="none" stroke="#000000" d="M 931.5 531.64 L 944.2636363636364 549" stroke-miterlimit="10"></path></g><g transform="translate(-46,-46) scale(1,1)"><g><path fill="none" stroke="none"></path><text fill="#000000" stroke="none" font-family="Arial" font-size="13px" font-style="normal" font-weight="normal" text-decoration="none" x="917.5" y="567.5">«rol»</text></g></g><g transform="translate(-46,-46) scale(1,1)"><g><path fill="none" stroke="none"></path><text fill="#000000" stroke="none" font-family="Arial" font-size="13px" font-style="normal" font-weight="bold" text-decoration="none" x="887.5" y="582.5">Co-Reponsable</text><text fill="#000000" stroke="none" font-family="Arial" font-size="13px" font-style="normal" font-weight="bold" text-decoration="none" x="908.5" y="595.5">Técnico</text></g></g><g transform="translate(-46,-46) scale(1,1)"><path fill="none" stroke="#000000" d="M 983 528 L 984 528 M 984 528 A 8 8 0 0 0 992 520 L 992 449" stroke-miterlimit="10"></path></g><g transform="translate(-46,-46) scale(1,1)"><path fill="#FFFFFF" stroke="none" d="M 1000.419035512032 469.3253497152483 L 992 449 L 983.580964487968 469.3253497152483"></path></g><g transform="translate(-46,-46) scale(1,1)"><path fill="none" stroke="#000000" d="M 1000.419035512032 469.3253497152483 L 992 449 L 983.580964487968 469.3253497152483 L 1000.419035512032 469.3253497152483" stroke-miterlimit="10"></path></g><g transform="translate(-46,-46) scale(1,1)"><path fill="#ffffff" stroke="none" d="M 445.04753391335225 377.68 C 445.04753391335225 372.886167936 448.93337623829774 369 453.726806640625 369 C 458.52023704295226 369 462.40607936789775 372.886167936 462.40607936789775 377.68 C 462.40607936789775 382.473832064 458.52023704295226 386.36 453.726806640625 386.36 C 448.93337623829774 386.36 445.04753391335225 382.473832064 445.04753391335225 377.68 Z"></path></g><g transform="translate(-46,-46) scale(1,1)"><path fill="none" stroke="#000000" d="M 445.04753391335225 377.68 C 445.04753391335225 372.886167936 448.93337623829774 369 453.726806640625 369 C 458.52023704295226 369 462.40607936789775 372.886167936 462.40607936789775 377.68 C 462.40607936789775 382.473832064 458.52023704295226 386.36 453.726806640625 386.36 C 448.93337623829774 386.36 445.04753391335225 382.473832064 445.04753391335225 377.68 Z" stroke-miterlimit="10"></path></g><g transform="translate(-46,-46) scale(1,1)"><path fill="none" stroke="#000000" d="M 453.726806640625 386.36 L 453.726806640625 403.64" stroke-miterlimit="10"></path></g><g transform="translate(-46,-46) scale(1,1)"><path fill="none" stroke="#000000" d="M 444.53698845880683 392.84 L 462.91662482244317 392.84" stroke-miterlimit="10"></path></g><g transform="translate(-46,-46) scale(1,1)"><path fill="none" stroke="#000000" d="M 453.726806640625 403.64 L 440.96317027698865 421" stroke-miterlimit="10"></path></g><g transform="translate(-46,-46) scale(1,1)"><path fill="none" stroke="#000000" d="M 453.726806640625 403.64 L 466.49044300426135 421" stroke-miterlimit="10"></path></g><g transform="translate(-46,-46) scale(1,1)"><g><path fill="none" stroke="none"></path><text fill="#000000" stroke="none" font-family="Arial" font-size="13px" font-style="normal" font-weight="bold" text-decoration="none" x="422.726806640625" y="441.5">Estudiante</text></g></g><g transform="translate(-46,-46) scale(1,1)"><path fill="#ffffff" stroke="none" d="M 361.82072727272725 505.68 C 361.82072727272725 500.886167936 365.70656959767274 497 370.5 497 C 375.29343040232726 497 379.17927272727275 500.886167936 379.17927272727275 505.68 C 379.17927272727275 510.473832064 375.29343040232726 514.36 370.5 514.36 C 365.70656959767274 514.36 361.82072727272725 510.473832064 361.82072727272725 505.68 Z"></path></g><g transform="translate(-46,-46) scale(1,1)"><path fill="none" stroke="#000000" d="M 361.82072727272725 505.68 C 361.82072727272725 500.886167936 365.70656959767274 497 370.5 497 C 375.29343040232726 497 379.17927272727275 500.886167936 379.17927272727275 505.68 C 379.17927272727275 510.473832064 375.29343040232726 514.36 370.5 514.36 C 365.70656959767274 514.36 361.82072727272725 510.473832064 361.82072727272725 505.68 Z" stroke-miterlimit="10"></path></g><g transform="translate(-46,-46) scale(1,1)"><path fill="none" stroke="#000000" d="M 370.5 514.36 L 370.5 531.64" stroke-miterlimit="10"></path></g><g transform="translate(-46,-46) scale(1,1)"><path fill="none" stroke="#000000" d="M 361.31018181818183 520.84 L 379.68981818181817 520.84" stroke-miterlimit="10"></path></g><g transform="translate(-46,-46) scale(1,1)"><path fill="none" stroke="#000000" d="M 370.5 531.64 L 357.73636363636365 549" stroke-miterlimit="10"></path></g><g transform="translate(-46,-46) scale(1,1)"><path fill="none" stroke="#000000" d="M 370.5 531.64 L 383.26363636363635 549" stroke-miterlimit="10"></path></g><g transform="translate(-46,-46) scale(1,1)"><g><path fill="none" stroke="none"></path><text fill="#000000" stroke="none" font-family="Arial" font-size="13px" font-style="normal" font-weight="bold" text-decoration="none" x="343" y="569.5">Posgrado</text></g></g><g transform="translate(-46,-46) scale(1,1)"><path fill="#ffffff" stroke="none" d="M 524.3207272727273 521.6800000000001 C 524.3207272727273 516.8861679360001 528.2065695976727 513 533 513 C 537.7934304023273 513 541.6792727272727 516.8861679360001 541.6792727272727 521.6800000000001 C 541.6792727272727 526.473832064 537.7934304023273 530.36 533 530.36 C 528.2065695976727 530.36 524.3207272727273 526.473832064 524.3207272727273 521.6800000000001 Z"></path></g><g transform="translate(-46,-46) scale(1,1)"><path fill="none" stroke="#000000" d="M 524.3207272727273 521.6800000000001 C 524.3207272727273 516.8861679360001 528.2065695976727 513 533 513 C 537.7934304023273 513 541.6792727272727 516.8861679360001 541.6792727272727 521.6800000000001 C 541.6792727272727 526.473832064 537.7934304023273 530.36 533 530.36 C 528.2065695976727 530.36 524.3207272727273 526.473832064 524.3207272727273 521.6800000000001 Z" stroke-miterlimit="10"></path></g><g transform="translate(-46,-46) scale(1,1)"><path fill="none" stroke="#000000" d="M 533 530.36 L 533 547.64" stroke-miterlimit="10"></path></g><g transform="translate(-46,-46) scale(1,1)"><path fill="none" stroke="#000000" d="M 523.8101818181818 536.84 L 542.1898181818182 536.84" stroke-miterlimit="10"></path></g><g transform="translate(-46,-46) scale(1,1)"><path fill="none" stroke="#000000" d="M 533 547.64 L 520.2363636363636 565" stroke-miterlimit="10"></path></g><g transform="translate(-46,-46) scale(1,1)"><path fill="none" stroke="#000000" d="M 533 547.64 L 545.7636363636364 565" stroke-miterlimit="10"></path></g><g transform="translate(-46,-46) scale(1,1)"><g><path fill="none" stroke="none"></path><text fill="#000000" stroke="none" font-family="Arial" font-size="13px" font-style="normal" font-weight="bold" text-decoration="none" x="503.5" y="585.5">Doctorado</text></g></g><g transform="translate(-46,-46) scale(1,1)"><path fill="#ffffff" stroke="none" d="M 436.94206516335225 593.6800000000001 C 436.94206516335225 588.8861679360001 440.82790748829774 585 445.621337890625 585 C 450.41476829295226 585 454.30061061789775 588.8861679360001 454.30061061789775 593.6800000000001 C 454.30061061789775 598.473832064 450.41476829295226 602.36 445.621337890625 602.36 C 440.82790748829774 602.36 436.94206516335225 598.473832064 436.94206516335225 593.6800000000001 Z"></path></g><g transform="translate(-46,-46) scale(1,1)"><path fill="none" stroke="#000000" d="M 436.94206516335225 593.6800000000001 C 436.94206516335225 588.8861679360001 440.82790748829774 585 445.621337890625 585 C 450.41476829295226 585 454.30061061789775 588.8861679360001 454.30061061789775 593.6800000000001 C 454.30061061789775 598.473832064 450.41476829295226 602.36 445.621337890625 602.36 C 440.82790748829774 602.36 436.94206516335225 598.473832064 436.94206516335225 593.6800000000001 Z" stroke-miterlimit="10"></path></g><g transform="translate(-46,-46) scale(1,1)"><path fill="none" stroke="#000000" d="M 445.621337890625 602.36 L 445.621337890625 619.64" stroke-miterlimit="10"></path></g><g transform="translate(-46,-46) scale(1,1)"><path fill="none" stroke="#000000" d="M 436.43151970880683 608.84 L 454.81115607244317 608.84" stroke-miterlimit="10"></path></g><g transform="translate(-46,-46) scale(1,1)"><path fill="none" stroke="#000000" d="M 445.621337890625 619.64 L 432.85770152698865 637" stroke-miterlimit="10"></path></g><g transform="translate(-46,-46) scale(1,1)"><path fill="none" stroke="#000000" d="M 445.621337890625 619.64 L 458.38497425426135 637" stroke-miterlimit="10"></path></g><g transform="translate(-46,-46) scale(1,1)"><g><path fill="none" stroke="none"></path><text fill="#000000" stroke="none" font-family="Arial" font-size="13px" font-style="normal" font-weight="bold" text-decoration="none" x="400.121337890625" y="657.5">Posdoctorantes</text></g></g><g transform="translate(-46,-46) scale(1,1)"><path fill="none" stroke="#000000" d="M 405 535 L 419 535 M 419 535 A 8 8 0 0 0 427 527 L 427 447" stroke-miterlimit="10"></path></g><g transform="translate(-46,-46) scale(1,1)"><path fill="#FFFFFF" stroke="none" d="M 435.419035512032 467.3253497152483 L 427 447 L 418.580964487968 467.3253497152483"></path></g><g transform="translate(-46,-46) scale(1,1)"><path fill="none" stroke="#000000" d="M 435.419035512032 467.3253497152483 L 427 447 L 418.580964487968 467.3253497152483 L 435.419035512032 467.3253497152483" stroke-miterlimit="10"></path></g><g transform="translate(-46,-46) scale(1,1)"><path fill="none" stroke="#000000" d="M 496 551 L 473 551 M 473 551 A 8 8 0 0 1 465 543 L 465 447" stroke-miterlimit="10"></path></g><g transform="translate(-46,-46) scale(1,1)"><path fill="#FFFFFF" stroke="none" d="M 473.419035512032 467.3253497152483 L 465 447 L 456.580964487968 467.3253497152483"></path></g><g transform="translate(-46,-46) scale(1,1)"><path fill="none" stroke="#000000" d="M 473.419035512032 467.3253497152483 L 465 447 L 456.580964487968 467.3253497152483 L 473.419035512032 467.3253497152483" stroke-miterlimit="10"></path></g><g transform="translate(-46,-46) scale(1,1)"><path fill="none" stroke="#000000" d="M 445 584 L 445 447" stroke-miterlimit="10"></path></g><g transform="translate(-46,-46) scale(1,1)"><path fill="#FFFFFF" stroke="none" d="M 453.419035512032 467.3253497152483 L 445 447 L 436.580964487968 467.3253497152483"></path></g><g transform="translate(-46,-46) scale(1,1)"><path fill="none" stroke="#000000" d="M 453.419035512032 467.3253497152483 L 445 447 L 436.580964487968 467.3253497152483 L 453.419035512032 467.3253497152483" stroke-miterlimit="10"></path></g><g transform="translate(-46,-46) scale(1,1)"><path fill="none" stroke="#000000" d="M 491 408 L 544 408 M 544 408 A 8 8 0 0 0 552 400 L 552 311" stroke-miterlimit="10"></path></g><g transform="translate(-46,-46) scale(1,1)"><path fill="#FFFFFF" stroke="none" d="M 560.419035512032 331.3253497152483 L 552 311 L 543.580964487968 331.3253497152483"></path></g><g transform="translate(-46,-46) scale(1,1)"><path fill="none" stroke="#000000" d="M 560.419035512032 331.3253497152483 L 552 311 L 543.580964487968 331.3253497152483 L 560.419035512032 331.3253497152483" stroke-miterlimit="10"></path></g><g transform="translate(-46,-46) scale(1,1)"><path fill="#ffffff" stroke="none" d="M 1096.177818181818 498.36 C 1096.177818181818 493.190614272 1100.3515006789817 489 1105.5 489 C 1110.6484993210183 489 1114.822181818182 493.190614272 1114.822181818182 498.36 C 1114.822181818182 503.529385728 1110.6484993210183 507.72 1105.5 507.72 C 1100.3515006789817 507.72 1096.177818181818 503.529385728 1096.177818181818 498.36 Z"></path></g><g transform="translate(-46,-46) scale(1,1)"><path fill="none" stroke="#000000" d="M 1096.177818181818 498.36 C 1096.177818181818 493.190614272 1100.3515006789817 489 1105.5 489 C 1110.6484993210183 489 1114.822181818182 493.190614272 1114.822181818182 498.36 C 1114.822181818182 503.529385728 1110.6484993210183 507.72 1105.5 507.72 C 1100.3515006789817 507.72 1096.177818181818 503.529385728 1096.177818181818 498.36 Z" stroke-miterlimit="10"></path></g><g transform="translate(-46,-46) scale(1,1)"><path fill="none" stroke="#000000" d="M 1105.5 507.72 L 1105.5 526.28" stroke-miterlimit="10"></path></g><g transform="translate(-46,-46) scale(1,1)"><path fill="none" stroke="#000000" d="M 1095.6294545454546 514.68 L 1115.3705454545454 514.68" stroke-miterlimit="10"></path></g><g transform="translate(-46,-46) scale(1,1)"><path fill="none" stroke="#000000" d="M 1105.5 526.28 L 1091.790909090909 545" stroke-miterlimit="10"></path></g><g transform="translate(-46,-46) scale(1,1)"><path fill="none" stroke="#000000" d="M 1105.5 526.28 L 1119.209090909091 545" stroke-miterlimit="10"></path></g><g transform="translate(-46,-46) scale(1,1)"><g><path fill="none" stroke="none"></path><text fill="#000000" stroke="none" font-family="Arial" font-size="13px" font-style="normal" font-weight="normal" text-decoration="none" x="1091.5" y="563.5">«rol»</text></g></g><g transform="translate(-46,-46) scale(1,1)"><g><path fill="none" stroke="none"></path><text fill="#000000" stroke="none" font-family="Arial" font-size="13px" font-style="normal" font-weight="bold" text-decoration="none" x="1071" y="578.5">Participante</text></g></g><g transform="translate(-46,-46) scale(1,1)"><path fill="none" stroke="#000000" d="M 1064 520 L 1048 520 M 1048 520 A 8 8 0 0 1 1040 512 L 1040 449" stroke-miterlimit="10"></path></g><g transform="translate(-46,-46) scale(1,1)"><path fill="#FFFFFF" stroke="none" d="M 1048.419035512032 469.3253497152483 L 1040 449 L 1031.580964487968 469.3253497152483"></path></g><g transform="translate(-46,-46) scale(1,1)"><path fill="none" stroke="#000000" d="M 1048.419035512032 469.3253497152483 L 1040 449 L 1031.580964487968 469.3253497152483 L 1048.419035512032 469.3253497152483" stroke-miterlimit="10"></path></g><g transform="translate(-46,-46) scale(1,1)"><path fill="#ffffff" stroke="none" d="M 565.5527272727272 67.55 C 565.5527272727272 61.72339536 570.2301300712727 57 576 57 C 581.7698699287273 57 586.4472727272728 61.72339536 586.4472727272728 67.55 C 586.4472727272728 73.37660464 581.7698699287273 78.1 576 78.1 C 570.2301300712727 78.1 565.5527272727272 73.37660464 565.5527272727272 67.55 Z"></path></g><g transform="translate(-46,-46) scale(1,1)"><path fill="none" stroke="#000000" d="M 565.5527272727272 67.55 C 565.5527272727272 61.72339536 570.2301300712727 57 576 57 C 581.7698699287273 57 586.4472727272728 61.72339536 586.4472727272728 67.55 C 586.4472727272728 73.37660464 581.7698699287273 78.1 576 78.1 C 570.2301300712727 78.1 565.5527272727272 73.37660464 565.5527272727272 67.55 Z" stroke-miterlimit="10"></path></g><g transform="translate(-46,-46) scale(1,1)"><path fill="none" stroke="#000000" d="M 576 78.1 L 576 98.9" stroke-miterlimit="10"></path></g><g transform="translate(-46,-46) scale(1,1)"><path fill="none" stroke="#000000" d="M 564.9381818181818 85.9 L 587.0618181818182 85.9" stroke-miterlimit="10"></path></g><g transform="translate(-46,-46) scale(1,1)"><path fill="none" stroke="#000000" d="M 576 98.9 L 560.6363636363636 120" stroke-miterlimit="10"></path></g><g transform="translate(-46,-46) scale(1,1)"><path fill="none" stroke="#000000" d="M 576 98.9 L 591.3636363636364 120" stroke-miterlimit="10"></path></g><g transform="translate(-46,-46) scale(1,1)"><g><path fill="none" stroke="none"></path><text fill="#000000" stroke="none" font-family="Arial" font-size="13px" font-style="normal" font-weight="normal" text-decoration="none" x="545" y="138.5">«Sistema»</text></g></g><g transform="translate(-46,-46) scale(1,1)"><g><path fill="none" stroke="none"></path><text fill="#000000" stroke="none" font-family="Arial" font-size="13px" font-style="normal" font-weight="bold" text-decoration="none" x="523.5" y="153.5">Usuario Aplicativo</text></g></g><g transform="translate(-46,-46) scale(1,1)"><path fill="none" stroke="#000000" d="M 576 216 L 576 159" stroke-miterlimit="10"></path></g><g transform="translate(-46,-46) scale(1,1)"><path fill="#FFFFFF" stroke="none" d="M 584.419035512032 179.3253497152483 L 576 159 L 567.580964487968 179.3253497152483"></path></g><g transform="translate(-46,-46) scale(1,1)"><path fill="none" stroke="#000000" d="M 584.419035512032 179.3253497152483 L 576 159 L 567.580964487968 179.3253497152483 L 584.419035512032 179.3253497152483" stroke-miterlimit="10"></path></g><g transform="translate(-46,-46) scale(1,1)"><path fill="#ffffff" stroke="none" d="M 1006.3207272727273 353.68 C 1006.3207272727273 348.886167936 1010.2065695976727 345 1015 345 C 1019.7934304023273 345 1023.6792727272727 348.886167936 1023.6792727272727 353.68 C 1023.6792727272727 358.473832064 1019.7934304023273 362.36 1015 362.36 C 1010.2065695976727 362.36 1006.3207272727273 358.473832064 1006.3207272727273 353.68 Z"></path></g><g transform="translate(-46,-46) scale(1,1)"><path fill="none" stroke="#000000" d="M 1006.3207272727273 353.68 C 1006.3207272727273 348.886167936 1010.2065695976727 345 1015 345 C 1019.7934304023273 345 1023.6792727272727 348.886167936 1023.6792727272727 353.68 C 1023.6792727272727 358.473832064 1019.7934304023273 362.36 1015 362.36 C 1010.2065695976727 362.36 1006.3207272727273 358.473832064 1006.3207272727273 353.68 Z" stroke-miterlimit="10"></path></g><g transform="translate(-46,-46) scale(1,1)"><path fill="none" stroke="#000000" d="M 1015 362.36 L 1015 379.64" stroke-miterlimit="10"></path></g><g transform="translate(-46,-46) scale(1,1)"><path fill="none" stroke="#000000" d="M 1005.8101818181818 368.84 L 1024.1898181818183 368.84" stroke-miterlimit="10"></path></g><g transform="translate(-46,-46) scale(1,1)"><path fill="none" stroke="#000000" d="M 1015 379.64 L 1002.2363636363636 397" stroke-miterlimit="10"></path></g><g transform="translate(-46,-46) scale(1,1)"><path fill="none" stroke="#000000" d="M 1015 379.64 L 1027.7636363636364 397" stroke-miterlimit="10"></path></g><g transform="translate(-46,-46) scale(1,1)"><g><path fill="none" stroke="none"></path><text fill="#000000" stroke="none" font-family="Arial" font-size="13px" font-style="normal" font-weight="bold" text-decoration="none" x="996.5" y="417.5">Rol en</text><text fill="#000000" stroke="none" font-family="Arial" font-size="13px" font-style="normal" font-weight="bold" text-decoration="none" x="977" y="430.5">Convocatoria</text><text fill="#000000" stroke="none" font-family="Arial" font-size="13px" font-style="normal" font-weight="bold" text-decoration="none" x="976" y="443.5">(investigador)</text></g></g><g transform="translate(-46,-46) scale(1,1)"><path fill="#ffffff" stroke="none" d="M 195.32072727272728 217.68 C 195.32072727272728 212.886167936 199.20656959767274 209 204 209 C 208.79343040232726 209 212.67927272727272 212.886167936 212.67927272727272 217.68 C 212.67927272727272 222.47383206400002 208.79343040232726 226.36 204 226.36 C 199.20656959767274 226.36 195.32072727272728 222.47383206400002 195.32072727272728 217.68 Z"></path></g><g transform="translate(-46,-46) scale(1,1)"><path fill="none" stroke="#000000" d="M 195.32072727272728 217.68 C 195.32072727272728 212.886167936 199.20656959767274 209 204 209 C 208.79343040232726 209 212.67927272727272 212.886167936 212.67927272727272 217.68 C 212.67927272727272 222.47383206400002 208.79343040232726 226.36 204 226.36 C 199.20656959767274 226.36 195.32072727272728 222.47383206400002 195.32072727272728 217.68 Z" stroke-miterlimit="10"></path></g><g transform="translate(-46,-46) scale(1,1)"><path fill="none" stroke="#000000" d="M 204 226.36 L 204 243.64" stroke-miterlimit="10"></path></g><g transform="translate(-46,-46) scale(1,1)"><path fill="none" stroke="#000000" d="M 194.81018181818183 232.84 L 213.18981818181817 232.84" stroke-miterlimit="10"></path></g><g transform="translate(-46,-46) scale(1,1)"><path fill="none" stroke="#000000" d="M 204 243.64 L 191.23636363636365 261" stroke-miterlimit="10"></path></g><g transform="translate(-46,-46) scale(1,1)"><path fill="none" stroke="#000000" d="M 204 243.64 L 216.76363636363635 261" stroke-miterlimit="10"></path></g><g transform="translate(-46,-46) scale(1,1)"><g><path fill="none" stroke="none"></path><text fill="#000000" stroke="none" font-family="Arial" font-size="13px" font-style="normal" font-weight="bold" text-decoration="none" x="185.5" y="281.5">Rol en</text><text fill="#000000" stroke="none" font-family="Arial" font-size="13px" font-style="normal" font-weight="bold" text-decoration="none" x="166" y="294.5">Convocatoria</text><text fill="#000000" stroke="none" font-family="Arial" font-size="13px" font-style="normal" font-weight="bold" text-decoration="none" x="182.5" y="307.5">(Lega y</text><text fill="#000000" stroke="none" font-family="Arial" font-size="13px" font-style="normal" font-weight="bold" text-decoration="none" x="160.5" y="320.5">Administrativo)</text></g></g><g transform="translate(-46,-46) scale(1,1)"><path fill="none" stroke="#000000" d="M 512 266 L 264 266" stroke-miterlimit="10"></path></g><g transform="translate(-46,-46) scale(1,1)"><path fill="none" stroke="#000000" d="M 274.16267485762415 261.790482243984 L 264 266 L 274.16267485762415 270.209517756016" stroke-miterlimit="10"></path></g><g transform="translate(-46,-46) scale(1,1)"><g><path fill="none" stroke="none"></path><text fill="#000000" stroke="none" font-family="Arial" font-size="13px" font-style="normal" font-weight="normal" text-decoration="none" x="368.5" y="287.5">+tiene</text></g></g><g transform="translate(-46,-46) scale(1,1)"><g><path fill="none" stroke="none"></path><text fill="#000000" stroke="none" font-family="Arial" font-size="13px" font-style="normal" font-weight="normal" text-decoration="none" x="274.5" y="259.5">0..*</text></g></g><g transform="translate(-46,-46) scale(1,1)"><path fill="none" stroke="#000000" d="M 750 396 L 968 396" stroke-miterlimit="10"></path></g><g transform="translate(-46,-46) scale(1,1)"><path fill="none" stroke="#000000" d="M 957.8373251423759 400.209517756016 L 968 396 L 957.8373251423758 391.790482243984" stroke-miterlimit="10"></path></g><g transform="translate(-46,-46) scale(1,1)"><g><path fill="none" stroke="none"></path><text fill="#000000" stroke="none" font-family="Arial" font-size="13px" font-style="normal" font-weight="normal" text-decoration="none" x="840.5" y="387.5">+tiene</text></g></g><g transform="translate(-46,-46) scale(1,1)"><g><path fill="none" stroke="none"></path><text fill="#000000" stroke="none" font-family="Arial" font-size="13px" font-style="normal" font-weight="normal" text-decoration="none" x="935.5" y="414.5">0..*</text></g></g></g></svg>