<svg version="1.1" xmlns="http://www.w3.org/2000/svg" xmlns:xlink="http://www.w3.org/1999/xlink" width="1528" height="899"><defs></defs><g><g transform="translate(-158,-22) scale(1,1)"><path fill="#ffffff" stroke="none" d="M 309.32707492897725 681.6800000000001 C 309.32707492897725 676.8861679360001 313.21291725392274 673 318.00634765625 673 C 322.79977805857726 673 326.68562038352275 676.8861679360001 326.68562038352275 681.6800000000001 C 326.68562038352275 686.473832064 322.79977805857726 690.36 318.00634765625 690.36 C 313.21291725392274 690.36 309.32707492897725 686.473832064 309.32707492897725 681.6800000000001 Z"></path></g><g transform="translate(-158,-22) scale(1,1)"><path fill="none" stroke="#000000" d="M 309.32707492897725 681.6800000000001 C 309.32707492897725 676.8861679360001 313.21291725392274 673 318.00634765625 673 C 322.79977805857726 673 326.68562038352275 676.8861679360001 326.68562038352275 681.6800000000001 C 326.68562038352275 686.473832064 322.79977805857726 690.36 318.00634765625 690.36 C 313.21291725392274 690.36 309.32707492897725 686.473832064 309.32707492897725 681.6800000000001 Z" stroke-miterlimit="10"></path></g><g transform="translate(-158,-22) scale(1,1)"><path fill="none" stroke="#000000" d="M 318.00634765625 690.36 L 318.00634765625 707.64" stroke-miterlimit="10"></path></g><g transform="translate(-158,-22) scale(1,1)"><path fill="none" stroke="#000000" d="M 308.81652947443183 696.84 L 327.19616583806817 696.84" stroke-miterlimit="10"></path></g><g transform="translate(-158,-22) scale(1,1)"><path fill="none" stroke="#000000" d="M 318.00634765625 707.64 L 305.24271129261365 725" stroke-miterlimit="10"></path></g><g transform="translate(-158,-22) scale(1,1)"><path fill="none" stroke="#000000" d="M 318.00634765625 707.64 L 330.76998401988635 725" stroke-miterlimit="10"></path></g><g transform="translate(-158,-22) scale(1,1)"><g><path fill="none" stroke="none"></path><text fill="#000000" stroke="none" font-family="Arial" font-size="13px" font-style="normal" font-weight="normal" text-decoration="none" x="304.00634765625" y="743.5">«rol»</text></g></g><g transform="translate(-158,-22) scale(1,1)"><g><path fill="none" stroke="none"></path><text fill="#000000" stroke="none" font-family="Arial" font-size="13px" font-style="normal" font-weight="bold" text-decoration="none" x="280.50634765625" y="758.5">Responsable</text><text fill="#000000" stroke="none" font-family="Arial" font-size="13px" font-style="normal" font-weight="bold" text-decoration="none" x="276.50634765625" y="771.5">Administrativo</text></g></g><g transform="translate(-158,-22) scale(1,1)"><path fill="#ffffff" stroke="none" d="M 215.10661594460228 593.6800000000001 C 215.10661594460228 588.8861679360001 218.99245826954774 585 223.785888671875 585 C 228.57931907420226 585 232.46516139914772 588.8861679360001 232.46516139914772 593.6800000000001 C 232.46516139914772 598.473832064 228.57931907420226 602.36 223.785888671875 602.36 C 218.99245826954774 602.36 215.10661594460228 598.473832064 215.10661594460228 593.6800000000001 Z"></path></g><g transform="translate(-158,-22) scale(1,1)"><path fill="none" stroke="#000000" d="M 215.10661594460228 593.6800000000001 C 215.10661594460228 588.8861679360001 218.99245826954774 585 223.785888671875 585 C 228.57931907420226 585 232.46516139914772 588.8861679360001 232.46516139914772 593.6800000000001 C 232.46516139914772 598.473832064 228.57931907420226 602.36 223.785888671875 602.36 C 218.99245826954774 602.36 215.10661594460228 598.473832064 215.10661594460228 593.6800000000001 Z" stroke-miterlimit="10"></path></g><g transform="translate(-158,-22) scale(1,1)"><path fill="none" stroke="#000000" d="M 223.785888671875 602.36 L 223.785888671875 619.64" stroke-miterlimit="10"></path></g><g transform="translate(-158,-22) scale(1,1)"><path fill="none" stroke="#000000" d="M 214.59607049005683 608.84 L 232.97570685369317 608.84" stroke-miterlimit="10"></path></g><g transform="translate(-158,-22) scale(1,1)"><path fill="none" stroke="#000000" d="M 223.785888671875 619.64 L 211.02225230823865 637" stroke-miterlimit="10"></path></g><g transform="translate(-158,-22) scale(1,1)"><path fill="none" stroke="#000000" d="M 223.785888671875 619.64 L 236.54952503551135 637" stroke-miterlimit="10"></path></g><g transform="translate(-158,-22) scale(1,1)"><g><path fill="none" stroke="none"></path><text fill="#000000" stroke="none" font-family="Arial" font-size="13px" font-style="normal" font-weight="normal" text-decoration="none" x="209.785888671875" y="655.5">«rol»</text></g></g><g transform="translate(-158,-22) scale(1,1)"><g><path fill="none" stroke="none"></path><text fill="#000000" stroke="none" font-family="Arial" font-size="13px" font-style="normal" font-weight="bold" text-decoration="none" x="176.285888671875" y="670.5">Co-Responsable</text><text fill="#000000" stroke="none" font-family="Arial" font-size="13px" font-style="normal" font-weight="bold" text-decoration="none" x="182.285888671875" y="683.5">Administrativo</text></g></g><g transform="translate(-158,-22) scale(1,1)"><path fill="#ffffff" stroke="none" d="M 408.97478000710225 601.6800000000001 C 408.97478000710225 596.8861679360001 412.86062233204774 593 417.654052734375 593 C 422.44748313670226 593 426.33332546164775 596.8861679360001 426.33332546164775 601.6800000000001 C 426.33332546164775 606.473832064 422.44748313670226 610.36 417.654052734375 610.36 C 412.86062233204774 610.36 408.97478000710225 606.473832064 408.97478000710225 601.6800000000001 Z"></path></g><g transform="translate(-158,-22) scale(1,1)"><path fill="none" stroke="#000000" d="M 408.97478000710225 601.6800000000001 C 408.97478000710225 596.8861679360001 412.86062233204774 593 417.654052734375 593 C 422.44748313670226 593 426.33332546164775 596.8861679360001 426.33332546164775 601.6800000000001 C 426.33332546164775 606.473832064 422.44748313670226 610.36 417.654052734375 610.36 C 412.86062233204774 610.36 408.97478000710225 606.473832064 408.97478000710225 601.6800000000001 Z" stroke-miterlimit="10"></path></g><g transform="translate(-158,-22) scale(1,1)"><path fill="none" stroke="#000000" d="M 417.654052734375 610.36 L 417.654052734375 627.64" stroke-miterlimit="10"></path></g><g transform="translate(-158,-22) scale(1,1)"><path fill="none" stroke="#000000" d="M 408.46423455255683 616.84 L 426.84387091619317 616.84" stroke-miterlimit="10"></path></g><g transform="translate(-158,-22) scale(1,1)"><path fill="none" stroke="#000000" d="M 417.654052734375 627.64 L 404.89041637073865 645" stroke-miterlimit="10"></path></g><g transform="translate(-158,-22) scale(1,1)"><path fill="none" stroke="#000000" d="M 417.654052734375 627.64 L 430.41768909801135 645" stroke-miterlimit="10"></path></g><g transform="translate(-158,-22) scale(1,1)"><g><path fill="none" stroke="none"></path><text fill="#000000" stroke="none" font-family="Arial" font-size="13px" font-style="normal" font-weight="normal" text-decoration="none" x="403.654052734375" y="663.5">«rol»</text></g></g><g transform="translate(-158,-22) scale(1,1)"><g><path fill="none" stroke="none"></path><text fill="#000000" stroke="none" font-family="Arial" font-size="13px" font-style="normal" font-weight="bold" text-decoration="none" x="375.654052734375" y="678.5">Representante</text><text fill="#000000" stroke="none" font-family="Arial" font-size="13px" font-style="normal" font-weight="bold" text-decoration="none" x="402.154052734375" y="691.5">Legal</text></g></g><g transform="translate(-158,-22) scale(1,1)"><path fill="#ffffff" stroke="none" d="M 809.1826141690341 611.04 C 809.1826141690341 605.4950606079999 813.6441368384159 601 819.147705078125 601 C 824.6512733178341 601 829.1127959872159 605.4950606079999 829.1127959872159 611.04 C 829.1127959872159 616.584939392 824.6512733178341 621.08 819.147705078125 621.08 C 813.6441368384159 621.08 809.1826141690341 616.584939392 809.1826141690341 611.04 Z"></path></g><g transform="translate(-158,-22) scale(1,1)"><path fill="none" stroke="#000000" d="M 809.1826141690341 611.04 C 809.1826141690341 605.4950606079999 813.6441368384159 601 819.147705078125 601 C 824.6512733178341 601 829.1127959872159 605.4950606079999 829.1127959872159 611.04 C 829.1127959872159 616.584939392 824.6512733178341 621.08 819.147705078125 621.08 C 813.6441368384159 621.08 809.1826141690341 616.584939392 809.1826141690341 611.04 Z" stroke-miterlimit="10"></path></g><g transform="translate(-158,-22) scale(1,1)"><path fill="none" stroke="#000000" d="M 819.147705078125 621.08 L 819.147705078125 640.92" stroke-miterlimit="10"></path></g><g transform="translate(-158,-22) scale(1,1)"><path fill="none" stroke="#000000" d="M 808.5964323508523 628.52 L 829.6989778053977 628.52" stroke-miterlimit="10"></path></g><g transform="translate(-158,-22) scale(1,1)"><path fill="none" stroke="#000000" d="M 819.147705078125 640.92 L 804.4931596235796 661" stroke-miterlimit="10"></path></g><g transform="translate(-158,-22) scale(1,1)"><path fill="none" stroke="#000000" d="M 819.147705078125 640.92 L 833.8022505326704 661" stroke-miterlimit="10"></path></g><g transform="translate(-158,-22) scale(1,1)"><g><path fill="none" stroke="none"></path><text fill="#000000" stroke="none" font-family="Arial" font-size="13px" font-style="normal" font-weight="bold" text-decoration="none" x="783.647705078125" y="681.5">Investigador</text></g></g><g transform="translate(-158,-22) scale(1,1)"><path fill="#ffffff" stroke="none" d="M 891.3207272727273 761.6800000000001 C 891.3207272727273 756.8861679360001 895.2065695976727 753 900 753 C 904.7934304023273 753 908.6792727272727 756.8861679360001 908.6792727272727 761.6800000000001 C 908.6792727272727 766.473832064 904.7934304023273 770.36 900 770.36 C 895.2065695976727 770.36 891.3207272727273 766.473832064 891.3207272727273 761.6800000000001 Z"></path></g><g transform="translate(-158,-22) scale(1,1)"><path fill="none" stroke="#000000" d="M 891.3207272727273 761.6800000000001 C 891.3207272727273 756.8861679360001 895.2065695976727 753 900 753 C 904.7934304023273 753 908.6792727272727 756.8861679360001 908.6792727272727 761.6800000000001 C 908.6792727272727 766.473832064 904.7934304023273 770.36 900 770.36 C 895.2065695976727 770.36 891.3207272727273 766.473832064 891.3207272727273 761.6800000000001 Z" stroke-miterlimit="10"></path></g><g transform="translate(-158,-22) scale(1,1)"><path fill="none" stroke="#000000" d="M 900 770.36 L 900 787.64" stroke-miterlimit="10"></path></g><g transform="translate(-158,-22) scale(1,1)"><path fill="none" stroke="#000000" d="M 890.8101818181818 776.84 L 909.1898181818182 776.84" stroke-miterlimit="10"></path></g><g transform="translate(-158,-22) scale(1,1)"><path fill="none" stroke="#000000" d="M 900 787.64 L 887.2363636363636 805" stroke-miterlimit="10"></path></g><g transform="translate(-158,-22) scale(1,1)"><path fill="none" stroke="#000000" d="M 900 787.64 L 912.7636363636364 805" stroke-miterlimit="10"></path></g><g transform="translate(-158,-22) scale(1,1)"><g><path fill="none" stroke="none"></path><text fill="#000000" stroke="none" font-family="Arial" font-size="13px" font-style="normal" font-weight="bold" text-decoration="none" x="864.5" y="825.5">Investigador</text><text fill="#000000" stroke="none" font-family="Arial" font-size="13px" font-style="normal" font-weight="bold" text-decoration="none" x="864.5" y="838.5">Consolidado</text></g></g><g transform="translate(-158,-22) scale(1,1)"><path fill="#ffffff" stroke="none" d="M 810.4684323508523 825.6800000000001 C 810.4684323508523 820.8861679360001 814.3542746757977 817 819.147705078125 817 C 823.9411354804523 817 827.8269778053977 820.8861679360001 827.8269778053977 825.6800000000001 C 827.8269778053977 830.473832064 823.9411354804523 834.36 819.147705078125 834.36 C 814.3542746757977 834.36 810.4684323508523 830.473832064 810.4684323508523 825.6800000000001 Z"></path></g><g transform="translate(-158,-22) scale(1,1)"><path fill="none" stroke="#000000" d="M 810.4684323508523 825.6800000000001 C 810.4684323508523 820.8861679360001 814.3542746757977 817 819.147705078125 817 C 823.9411354804523 817 827.8269778053977 820.8861679360001 827.8269778053977 825.6800000000001 C 827.8269778053977 830.473832064 823.9411354804523 834.36 819.147705078125 834.36 C 814.3542746757977 834.36 810.4684323508523 830.473832064 810.4684323508523 825.6800000000001 Z" stroke-miterlimit="10"></path></g><g transform="translate(-158,-22) scale(1,1)"><path fill="none" stroke="#000000" d="M 819.147705078125 834.36 L 819.147705078125 851.64" stroke-miterlimit="10"></path></g><g transform="translate(-158,-22) scale(1,1)"><path fill="none" stroke="#000000" d="M 809.9578868963068 840.84 L 828.3375232599432 840.84" stroke-miterlimit="10"></path></g><g transform="translate(-158,-22) scale(1,1)"><path fill="none" stroke="#000000" d="M 819.147705078125 851.64 L 806.3840687144886 869" stroke-miterlimit="10"></path></g><g transform="translate(-158,-22) scale(1,1)"><path fill="none" stroke="#000000" d="M 819.147705078125 851.64 L 831.9113414417614 869" stroke-miterlimit="10"></path></g><g transform="translate(-158,-22) scale(1,1)"><g><path fill="none" stroke="none"></path><text fill="#000000" stroke="none" font-family="Arial" font-size="13px" font-style="normal" font-weight="bold" text-decoration="none" x="783.647705078125" y="889.5">Investigador</text><text fill="#000000" stroke="none" font-family="Arial" font-size="13px" font-style="normal" font-weight="bold" text-decoration="none" x="801.647705078125" y="902.5">Joven</text></g></g><g transform="translate(-158,-22) scale(1,1)"><path fill="#ffffff" stroke="none" d="M 1122.3207272727273 793.6800000000001 C 1122.3207272727273 788.8861679360001 1126.2065695976728 785 1131 785 C 1135.7934304023272 785 1139.6792727272727 788.8861679360001 1139.6792727272727 793.6800000000001 C 1139.6792727272727 798.473832064 1135.7934304023272 802.36 1131 802.36 C 1126.2065695976728 802.36 1122.3207272727273 798.473832064 1122.3207272727273 793.6800000000001 Z"></path></g><g transform="translate(-158,-22) scale(1,1)"><path fill="none" stroke="#000000" d="M 1122.3207272727273 793.6800000000001 C 1122.3207272727273 788.8861679360001 1126.2065695976728 785 1131 785 C 1135.7934304023272 785 1139.6792727272727 788.8861679360001 1139.6792727272727 793.6800000000001 C 1139.6792727272727 798.473832064 1135.7934304023272 802.36 1131 802.36 C 1126.2065695976728 802.36 1122.3207272727273 798.473832064 1122.3207272727273 793.6800000000001 Z" stroke-miterlimit="10"></path></g><g transform="translate(-158,-22) scale(1,1)"><path fill="none" stroke="#000000" d="M 1131 802.36 L 1131 819.64" stroke-miterlimit="10"></path></g><g transform="translate(-158,-22) scale(1,1)"><path fill="none" stroke="#000000" d="M 1121.8101818181817 808.84 L 1140.1898181818183 808.84" stroke-miterlimit="10"></path></g><g transform="translate(-158,-22) scale(1,1)"><path fill="none" stroke="#000000" d="M 1131 819.64 L 1118.2363636363636 837" stroke-miterlimit="10"></path></g><g transform="translate(-158,-22) scale(1,1)"><path fill="none" stroke="#000000" d="M 1131 819.64 L 1143.7636363636364 837" stroke-miterlimit="10"></path></g><g transform="translate(-158,-22) scale(1,1)"><g><path fill="none" stroke="none"></path><text fill="#000000" stroke="none" font-family="Arial" font-size="13px" font-style="normal" font-weight="normal" text-decoration="none" x="1117" y="855.5">«rol»</text></g></g><g transform="translate(-158,-22) scale(1,1)"><g><path fill="none" stroke="none"></path><text fill="#000000" stroke="none" font-family="Arial" font-size="13px" font-style="normal" font-weight="bold" text-decoration="none" x="1093.5" y="870.5">Responsable</text><text fill="#000000" stroke="none" font-family="Arial" font-size="13px" font-style="normal" font-weight="bold" text-decoration="none" x="1108" y="883.5">Técnico</text></g></g><g transform="translate(-158,-22) scale(1,1)"><path fill="#ffffff" stroke="none" d="M 727.5802487571023 769.6800000000001 C 727.5802487571023 764.8861679360001 731.4660910820477 761 736.259521484375 761 C 741.0529518867023 761 744.9387942116477 764.8861679360001 744.9387942116477 769.6800000000001 C 744.9387942116477 774.473832064 741.0529518867023 778.36 736.259521484375 778.36 C 731.4660910820477 778.36 727.5802487571023 774.473832064 727.5802487571023 769.6800000000001 Z"></path></g><g transform="translate(-158,-22) scale(1,1)"><path fill="none" stroke="#000000" d="M 727.5802487571023 769.6800000000001 C 727.5802487571023 764.8861679360001 731.4660910820477 761 736.259521484375 761 C 741.0529518867023 761 744.9387942116477 764.8861679360001 744.9387942116477 769.6800000000001 C 744.9387942116477 774.473832064 741.0529518867023 778.36 736.259521484375 778.36 C 731.4660910820477 778.36 727.5802487571023 774.473832064 727.5802487571023 769.6800000000001 Z" stroke-miterlimit="10"></path></g><g transform="translate(-158,-22) scale(1,1)"><path fill="none" stroke="#000000" d="M 736.259521484375 778.36 L 736.259521484375 795.64" stroke-miterlimit="10"></path></g><g transform="translate(-158,-22) scale(1,1)"><path fill="none" stroke="#000000" d="M 727.0697033025568 784.84 L 745.4493396661932 784.84" stroke-miterlimit="10"></path></g><g transform="translate(-158,-22) scale(1,1)"><path fill="none" stroke="#000000" d="M 736.259521484375 795.64 L 723.4958851207386 813" stroke-miterlimit="10"></path></g><g transform="translate(-158,-22) scale(1,1)"><path fill="none" stroke="#000000" d="M 736.259521484375 795.64 L 749.0231578480114 813" stroke-miterlimit="10"></path></g><g transform="translate(-158,-22) scale(1,1)"><g><path fill="none" stroke="none"></path><text fill="#000000" stroke="none" font-family="Arial" font-size="13px" font-style="normal" font-weight="bold" text-decoration="none" x="703.259521484375" y="833.5">Catedrático</text></g></g><g transform="translate(-158,-22) scale(1,1)"><path fill="none" stroke="#000000" d="M 777 807 L 791 807 M 791 807 A 8 8 0 0 0 799 799 L 799 687" stroke-miterlimit="10"></path></g><g transform="translate(-158,-22) scale(1,1)"><path fill="#FFFFFF" stroke="none" d="M 807.419035512032 707.3253497152483 L 799 687 L 790.580964487968 707.3253497152483"></path></g><g transform="translate(-158,-22) scale(1,1)"><path fill="none" stroke="#000000" d="M 807.419035512032 707.3253497152483 L 799 687 L 790.580964487968 707.3253497152483 L 807.419035512032 707.3253497152483" stroke-miterlimit="10"></path></g><g transform="translate(-158,-22) scale(1,1)"><path fill="none" stroke="#000000" d="M 818 816 L 818 687" stroke-miterlimit="10"></path></g><g transform="translate(-158,-22) scale(1,1)"><path fill="#FFFFFF" stroke="none" d="M 826.419035512032 707.3253497152483 L 818 687 L 809.580964487968 707.3253497152483"></path></g><g transform="translate(-158,-22) scale(1,1)"><path fill="none" stroke="#000000" d="M 826.419035512032 707.3253497152483 L 818 687 L 809.580964487968 707.3253497152483 L 826.419035512032 707.3253497152483" stroke-miterlimit="10"></path></g><g transform="translate(-158,-22) scale(1,1)"><path fill="none" stroke="#000000" d="M 856 800 L 848 800 M 848 800 A 8 8 0 0 1 840 792 L 840 687" stroke-miterlimit="10"></path></g><g transform="translate(-158,-22) scale(1,1)"><path fill="#FFFFFF" stroke="none" d="M 848.419035512032 707.3253497152483 L 840 687 L 831.580964487968 707.3253497152483"></path></g><g transform="translate(-158,-22) scale(1,1)"><path fill="none" stroke="#000000" d="M 848.419035512032 707.3253497152483 L 840 687 L 831.580964487968 707.3253497152483 L 848.419035512032 707.3253497152483" stroke-miterlimit="10"></path></g><g transform="translate(-158,-22) scale(1,1)"><path fill="none" stroke="#000000" d="M 1128 784 L 1128 697" stroke-miterlimit="10"></path></g><g transform="translate(-158,-22) scale(1,1)"><path fill="#FFFFFF" stroke="none" d="M 1136.419035512032 717.3253497152483 L 1128 697 L 1119.580964487968 717.3253497152483"></path></g><g transform="translate(-158,-22) scale(1,1)"><path fill="none" stroke="#000000" d="M 1136.419035512032 717.3253497152483 L 1128 697 L 1119.580964487968 717.3253497152483 L 1136.419035512032 717.3253497152483" stroke-miterlimit="10"></path></g><g transform="translate(-158,-22) scale(1,1)"><path fill="#ffffff" stroke="none" d="M 676.7490909090909 476.4 C 676.7490909090909 470.10395328 681.7862939229091 465 688 465 C 694.2137060770909 465 699.2509090909091 470.10395328 699.2509090909091 476.4 C 699.2509090909091 482.69604671999997 694.2137060770909 487.8 688 487.8 C 681.7862939229091 487.8 676.7490909090909 482.69604671999997 676.7490909090909 476.4 Z"></path></g><g transform="translate(-158,-22) scale(1,1)"><path fill="none" stroke="#000000" d="M 676.7490909090909 476.4 C 676.7490909090909 470.10395328 681.7862939229091 465 688 465 C 694.2137060770909 465 699.2509090909091 470.10395328 699.2509090909091 476.4 C 699.2509090909091 482.69604671999997 694.2137060770909 487.8 688 487.8 C 681.7862939229091 487.8 676.7490909090909 482.69604671999997 676.7490909090909 476.4 Z" stroke-miterlimit="10"></path></g><g transform="translate(-158,-22) scale(1,1)"><path fill="none" stroke="#000000" d="M 688 487.8 L 688 510.2" stroke-miterlimit="10"></path></g><g transform="translate(-158,-22) scale(1,1)"><path fill="none" stroke="#000000" d="M 676.0872727272728 496.2 L 699.9127272727272 496.2" stroke-miterlimit="10"></path></g><g transform="translate(-158,-22) scale(1,1)"><path fill="none" stroke="#000000" d="M 688 510.2 L 671.4545454545455 533" stroke-miterlimit="10"></path></g><g transform="translate(-158,-22) scale(1,1)"><path fill="none" stroke="#000000" d="M 688 510.2 L 704.5454545454545 533" stroke-miterlimit="10"></path></g><g transform="translate(-158,-22) scale(1,1)"><g><path fill="none" stroke="none"></path><text fill="#000000" stroke="none" font-family="Arial" font-size="13px" font-style="normal" font-weight="bold" text-decoration="none" x="639" y="553.5">PersonaConCVU</text></g></g><g transform="translate(-158,-22) scale(1,1)"><path fill="none" stroke="#000000" d="M 776 656 L 704 656 M 704 656 A 8 8 0 0 1 696 648 L 696 559" stroke-miterlimit="10"></path></g><g transform="translate(-158,-22) scale(1,1)"><path fill="#FFFFFF" stroke="none" d="M 704.419035512032 579.3253497152483 L 696 559 L 687.580964487968 579.3253497152483"></path></g><g transform="translate(-158,-22) scale(1,1)"><path fill="none" stroke="#000000" d="M 704.419035512032 579.3253497152483 L 696 559 L 687.580964487968 579.3253497152483 L 704.419035512032 579.3253497152483" stroke-miterlimit="10"></path></g><g transform="translate(-158,-22) scale(1,1)"><path fill="none" stroke="#000000" d="M 368 648 L 352 648 M 352 648 A 8 8 0 0 1 344 640 L 344 574" stroke-miterlimit="10"></path></g><g transform="translate(-158,-22) scale(1,1)"><path fill="#FFFFFF" stroke="none" d="M 352.419035512032 594.3253497152483 L 344 574 L 335.580964487968 594.3253497152483"></path></g><g transform="translate(-158,-22) scale(1,1)"><path fill="none" stroke="#000000" d="M 352.419035512032 594.3253497152483 L 344 574 L 335.580964487968 594.3253497152483 L 352.419035512032 594.3253497152483" stroke-miterlimit="10"></path></g><g transform="translate(-158,-22) scale(1,1)"><path fill="none" stroke="#000000" d="M 320 672 L 320 574" stroke-miterlimit="10"></path></g><g transform="translate(-158,-22) scale(1,1)"><path fill="#FFFFFF" stroke="none" d="M 328.419035512032 594.3253497152483 L 320 574 L 311.580964487968 594.3253497152483"></path></g><g transform="translate(-158,-22) scale(1,1)"><path fill="none" stroke="#000000" d="M 328.419035512032 594.3253497152483 L 320 574 L 311.580964487968 594.3253497152483 L 328.419035512032 594.3253497152483" stroke-miterlimit="10"></path></g><g transform="translate(-158,-22) scale(1,1)"><path fill="none" stroke="#000000" d="M 280 648 L 288 648 M 288 648 A 8 8 0 0 0 296 640 L 296 574" stroke-miterlimit="10"></path></g><g transform="translate(-158,-22) scale(1,1)"><path fill="#FFFFFF" stroke="none" d="M 304.419035512032 594.3253497152483 L 296 574 L 287.580964487968 594.3253497152483"></path></g><g transform="translate(-158,-22) scale(1,1)"><path fill="none" stroke="#000000" d="M 304.419035512032 594.3253497152483 L 296 574 L 287.580964487968 594.3253497152483 L 304.419035512032 594.3253497152483" stroke-miterlimit="10"></path></g><g transform="translate(-158,-22) scale(1,1)"><path fill="#ffffff" stroke="none" d="M 1035.4916257102273 753.6800000000001 C 1035.4916257102273 748.8861679360001 1039.3774680351728 745 1044.1708984375 745 C 1048.9643288398272 745 1052.8501711647727 748.8861679360001 1052.8501711647727 753.6800000000001 C 1052.8501711647727 758.473832064 1048.9643288398272 762.36 1044.1708984375 762.36 C 1039.3774680351728 762.36 1035.4916257102273 758.473832064 1035.4916257102273 753.6800000000001 Z"></path></g><g transform="translate(-158,-22) scale(1,1)"><path fill="none" stroke="#000000" d="M 1035.4916257102273 753.6800000000001 C 1035.4916257102273 748.8861679360001 1039.3774680351728 745 1044.1708984375 745 C 1048.9643288398272 745 1052.8501711647727 748.8861679360001 1052.8501711647727 753.6800000000001 C 1052.8501711647727 758.473832064 1048.9643288398272 762.36 1044.1708984375 762.36 C 1039.3774680351728 762.36 1035.4916257102273 758.473832064 1035.4916257102273 753.6800000000001 Z" stroke-miterlimit="10"></path></g><g transform="translate(-158,-22) scale(1,1)"><path fill="none" stroke="#000000" d="M 1044.1708984375 762.36 L 1044.1708984375 779.64" stroke-miterlimit="10"></path></g><g transform="translate(-158,-22) scale(1,1)"><path fill="none" stroke="#000000" d="M 1034.9810802556817 768.84 L 1053.3607166193183 768.84" stroke-miterlimit="10"></path></g><g transform="translate(-158,-22) scale(1,1)"><path fill="none" stroke="#000000" d="M 1044.1708984375 779.64 L 1031.4072620738636 797" stroke-miterlimit="10"></path></g><g transform="translate(-158,-22) scale(1,1)"><path fill="none" stroke="#000000" d="M 1044.1708984375 779.64 L 1056.9345348011364 797" stroke-miterlimit="10"></path></g><g transform="translate(-158,-22) scale(1,1)"><g><path fill="none" stroke="none"></path><text fill="#000000" stroke="none" font-family="Arial" font-size="13px" font-style="normal" font-weight="normal" text-decoration="none" x="1030.1708984375" y="815.5">«rol»</text></g></g><g transform="translate(-158,-22) scale(1,1)"><g><path fill="none" stroke="none"></path><text fill="#000000" stroke="none" font-family="Arial" font-size="13px" font-style="normal" font-weight="bold" text-decoration="none" x="1000.1708984375" y="830.5">Co-Reponsable</text><text fill="#000000" stroke="none" font-family="Arial" font-size="13px" font-style="normal" font-weight="bold" text-decoration="none" x="1021.1708984375" y="843.5">Técnico</text></g></g><g transform="translate(-158,-22) scale(1,1)"><path fill="none" stroke="#000000" d="M 1096 776 L 1096 776 M 1096 776 A 8 8 0 0 0 1104 768 L 1104 697" stroke-miterlimit="10"></path></g><g transform="translate(-158,-22) scale(1,1)"><path fill="#FFFFFF" stroke="none" d="M 1112.419035512032 717.3253497152483 L 1104 697 L 1095.580964487968 717.3253497152483"></path></g><g transform="translate(-158,-22) scale(1,1)"><path fill="none" stroke="#000000" d="M 1112.419035512032 717.3253497152483 L 1104 697 L 1095.580964487968 717.3253497152483 L 1112.419035512032 717.3253497152483" stroke-miterlimit="10"></path></g><g transform="translate(-158,-22) scale(1,1)"><path fill="#ffffff" stroke="none" d="M 557.0475339133523 625.6800000000001 C 557.0475339133523 620.8861679360001 560.9333762382977 617 565.726806640625 617 C 570.5202370429523 617 574.4060793678977 620.8861679360001 574.4060793678977 625.6800000000001 C 574.4060793678977 630.473832064 570.5202370429523 634.36 565.726806640625 634.36 C 560.9333762382977 634.36 557.0475339133523 630.473832064 557.0475339133523 625.6800000000001 Z"></path></g><g transform="translate(-158,-22) scale(1,1)"><path fill="none" stroke="#000000" d="M 557.0475339133523 625.6800000000001 C 557.0475339133523 620.8861679360001 560.9333762382977 617 565.726806640625 617 C 570.5202370429523 617 574.4060793678977 620.8861679360001 574.4060793678977 625.6800000000001 C 574.4060793678977 630.473832064 570.5202370429523 634.36 565.726806640625 634.36 C 560.9333762382977 634.36 557.0475339133523 630.473832064 557.0475339133523 625.6800000000001 Z" stroke-miterlimit="10"></path></g><g transform="translate(-158,-22) scale(1,1)"><path fill="none" stroke="#000000" d="M 565.726806640625 634.36 L 565.726806640625 651.64" stroke-miterlimit="10"></path></g><g transform="translate(-158,-22) scale(1,1)"><path fill="none" stroke="#000000" d="M 556.5369884588068 640.84 L 574.9166248224432 640.84" stroke-miterlimit="10"></path></g><g transform="translate(-158,-22) scale(1,1)"><path fill="none" stroke="#000000" d="M 565.726806640625 651.64 L 552.9631702769886 669" stroke-miterlimit="10"></path></g><g transform="translate(-158,-22) scale(1,1)"><path fill="none" stroke="#000000" d="M 565.726806640625 651.64 L 578.4904430042614 669" stroke-miterlimit="10"></path></g><g transform="translate(-158,-22) scale(1,1)"><g><path fill="none" stroke="none"></path><text fill="#000000" stroke="none" font-family="Arial" font-size="13px" font-style="normal" font-weight="bold" text-decoration="none" x="534.726806640625" y="689.5">Estudiante</text></g></g><g transform="translate(-158,-22) scale(1,1)"><path fill="#ffffff" stroke="none" d="M 473.82072727272725 753.6800000000001 C 473.82072727272725 748.8861679360001 477.70656959767274 745 482.5 745 C 487.29343040232726 745 491.17927272727275 748.8861679360001 491.17927272727275 753.6800000000001 C 491.17927272727275 758.473832064 487.29343040232726 762.36 482.5 762.36 C 477.70656959767274 762.36 473.82072727272725 758.473832064 473.82072727272725 753.6800000000001 Z"></path></g><g transform="translate(-158,-22) scale(1,1)"><path fill="none" stroke="#000000" d="M 473.82072727272725 753.6800000000001 C 473.82072727272725 748.8861679360001 477.70656959767274 745 482.5 745 C 487.29343040232726 745 491.17927272727275 748.8861679360001 491.17927272727275 753.6800000000001 C 491.17927272727275 758.473832064 487.29343040232726 762.36 482.5 762.36 C 477.70656959767274 762.36 473.82072727272725 758.473832064 473.82072727272725 753.6800000000001 Z" stroke-miterlimit="10"></path></g><g transform="translate(-158,-22) scale(1,1)"><path fill="none" stroke="#000000" d="M 482.5 762.36 L 482.5 779.64" stroke-miterlimit="10"></path></g><g transform="translate(-158,-22) scale(1,1)"><path fill="none" stroke="#000000" d="M 473.31018181818183 768.84 L 491.68981818181817 768.84" stroke-miterlimit="10"></path></g><g transform="translate(-158,-22) scale(1,1)"><path fill="none" stroke="#000000" d="M 482.5 779.64 L 469.73636363636365 797" stroke-miterlimit="10"></path></g><g transform="translate(-158,-22) scale(1,1)"><path fill="none" stroke="#000000" d="M 482.5 779.64 L 495.26363636363635 797" stroke-miterlimit="10"></path></g><g transform="translate(-158,-22) scale(1,1)"><g><path fill="none" stroke="none"></path><text fill="#000000" stroke="none" font-family="Arial" font-size="13px" font-style="normal" font-weight="bold" text-decoration="none" x="455" y="817.5">Posgrado</text></g></g><g transform="translate(-158,-22) scale(1,1)"><path fill="#ffffff" stroke="none" d="M 636.3207272727273 769.6800000000001 C 636.3207272727273 764.8861679360001 640.2065695976727 761 645 761 C 649.7934304023273 761 653.6792727272727 764.8861679360001 653.6792727272727 769.6800000000001 C 653.6792727272727 774.473832064 649.7934304023273 778.36 645 778.36 C 640.2065695976727 778.36 636.3207272727273 774.473832064 636.3207272727273 769.6800000000001 Z"></path></g><g transform="translate(-158,-22) scale(1,1)"><path fill="none" stroke="#000000" d="M 636.3207272727273 769.6800000000001 C 636.3207272727273 764.8861679360001 640.2065695976727 761 645 761 C 649.7934304023273 761 653.6792727272727 764.8861679360001 653.6792727272727 769.6800000000001 C 653.6792727272727 774.473832064 649.7934304023273 778.36 645 778.36 C 640.2065695976727 778.36 636.3207272727273 774.473832064 636.3207272727273 769.6800000000001 Z" stroke-miterlimit="10"></path></g><g transform="translate(-158,-22) scale(1,1)"><path fill="none" stroke="#000000" d="M 645 778.36 L 645 795.64" stroke-miterlimit="10"></path></g><g transform="translate(-158,-22) scale(1,1)"><path fill="none" stroke="#000000" d="M 635.8101818181818 784.84 L 654.1898181818182 784.84" stroke-miterlimit="10"></path></g><g transform="translate(-158,-22) scale(1,1)"><path fill="none" stroke="#000000" d="M 645 795.64 L 632.2363636363636 813" stroke-miterlimit="10"></path></g><g transform="translate(-158,-22) scale(1,1)"><path fill="none" stroke="#000000" d="M 645 795.64 L 657.7636363636364 813" stroke-miterlimit="10"></path></g><g transform="translate(-158,-22) scale(1,1)"><g><path fill="none" stroke="none"></path><text fill="#000000" stroke="none" font-family="Arial" font-size="13px" font-style="normal" font-weight="bold" text-decoration="none" x="615.5" y="833.5">Doctorado</text></g></g><g transform="translate(-158,-22) scale(1,1)"><path fill="#ffffff" stroke="none" d="M 548.9420651633523 841.6800000000001 C 548.9420651633523 836.8861679360001 552.8279074882977 833 557.621337890625 833 C 562.4147682929523 833 566.3006106178977 836.8861679360001 566.3006106178977 841.6800000000001 C 566.3006106178977 846.473832064 562.4147682929523 850.36 557.621337890625 850.36 C 552.8279074882977 850.36 548.9420651633523 846.473832064 548.9420651633523 841.6800000000001 Z"></path></g><g transform="translate(-158,-22) scale(1,1)"><path fill="none" stroke="#000000" d="M 548.9420651633523 841.6800000000001 C 548.9420651633523 836.8861679360001 552.8279074882977 833 557.621337890625 833 C 562.4147682929523 833 566.3006106178977 836.8861679360001 566.3006106178977 841.6800000000001 C 566.3006106178977 846.473832064 562.4147682929523 850.36 557.621337890625 850.36 C 552.8279074882977 850.36 548.9420651633523 846.473832064 548.9420651633523 841.6800000000001 Z" stroke-miterlimit="10"></path></g><g transform="translate(-158,-22) scale(1,1)"><path fill="none" stroke="#000000" d="M 557.621337890625 850.36 L 557.621337890625 867.64" stroke-miterlimit="10"></path></g><g transform="translate(-158,-22) scale(1,1)"><path fill="none" stroke="#000000" d="M 548.4315197088068 856.84 L 566.8111560724432 856.84" stroke-miterlimit="10"></path></g><g transform="translate(-158,-22) scale(1,1)"><path fill="none" stroke="#000000" d="M 557.621337890625 867.64 L 544.8577015269886 885" stroke-miterlimit="10"></path></g><g transform="translate(-158,-22) scale(1,1)"><path fill="none" stroke="#000000" d="M 557.621337890625 867.64 L 570.3849742542614 885" stroke-miterlimit="10"></path></g><g transform="translate(-158,-22) scale(1,1)"><g><path fill="none" stroke="none"></path><text fill="#000000" stroke="none" font-family="Arial" font-size="13px" font-style="normal" font-weight="bold" text-decoration="none" x="512.121337890625" y="905.5">Posdoctorantes</text></g></g><g transform="translate(-158,-22) scale(1,1)"><path fill="none" stroke="#000000" d="M 517 783 L 531 783 M 531 783 A 8 8 0 0 0 539 775 L 539 695" stroke-miterlimit="10"></path></g><g transform="translate(-158,-22) scale(1,1)"><path fill="#FFFFFF" stroke="none" d="M 547.419035512032 715.3253497152483 L 539 695 L 530.580964487968 715.3253497152483"></path></g><g transform="translate(-158,-22) scale(1,1)"><path fill="none" stroke="#000000" d="M 547.419035512032 715.3253497152483 L 539 695 L 530.580964487968 715.3253497152483 L 547.419035512032 715.3253497152483" stroke-miterlimit="10"></path></g><g transform="translate(-158,-22) scale(1,1)"><path fill="none" stroke="#000000" d="M 608 799 L 585 799 M 585 799 A 8 8 0 0 1 577 791 L 577 695" stroke-miterlimit="10"></path></g><g transform="translate(-158,-22) scale(1,1)"><path fill="#FFFFFF" stroke="none" d="M 585.419035512032 715.3253497152483 L 577 695 L 568.580964487968 715.3253497152483"></path></g><g transform="translate(-158,-22) scale(1,1)"><path fill="none" stroke="#000000" d="M 585.419035512032 715.3253497152483 L 577 695 L 568.580964487968 715.3253497152483 L 585.419035512032 715.3253497152483" stroke-miterlimit="10"></path></g><g transform="translate(-158,-22) scale(1,1)"><path fill="none" stroke="#000000" d="M 557 832 L 557 695" stroke-miterlimit="10"></path></g><g transform="translate(-158,-22) scale(1,1)"><path fill="#FFFFFF" stroke="none" d="M 565.419035512032 715.3253497152483 L 557 695 L 548.580964487968 715.3253497152483"></path></g><g transform="translate(-158,-22) scale(1,1)"><path fill="none" stroke="#000000" d="M 565.419035512032 715.3253497152483 L 557 695 L 548.580964487968 715.3253497152483 L 565.419035512032 715.3253497152483" stroke-miterlimit="10"></path></g><g transform="translate(-158,-22) scale(1,1)"><path fill="none" stroke="#000000" d="M 603 656 L 656 656 M 656 656 A 8 8 0 0 0 664 648 L 664 559" stroke-miterlimit="10"></path></g><g transform="translate(-158,-22) scale(1,1)"><path fill="#FFFFFF" stroke="none" d="M 672.419035512032 579.3253497152483 L 664 559 L 655.580964487968 579.3253497152483"></path></g><g transform="translate(-158,-22) scale(1,1)"><path fill="none" stroke="#000000" d="M 672.419035512032 579.3253497152483 L 664 559 L 655.580964487968 579.3253497152483 L 672.419035512032 579.3253497152483" stroke-miterlimit="10"></path></g><g transform="translate(-158,-22) scale(1,1)"><path fill="#ffffff" stroke="none" d="M 1208.384605291193 746.36 C 1208.384605291193 741.1906142720001 1212.5582877883567 737 1217.706787109375 737 C 1222.8552864303933 737 1227.028968927557 741.1906142720001 1227.028968927557 746.36 C 1227.028968927557 751.529385728 1222.8552864303933 755.72 1217.706787109375 755.72 C 1212.5582877883567 755.72 1208.384605291193 751.529385728 1208.384605291193 746.36 Z"></path></g><g transform="translate(-158,-22) scale(1,1)"><path fill="none" stroke="#000000" d="M 1208.384605291193 746.36 C 1208.384605291193 741.1906142720001 1212.5582877883567 737 1217.706787109375 737 C 1222.8552864303933 737 1227.028968927557 741.1906142720001 1227.028968927557 746.36 C 1227.028968927557 751.529385728 1222.8552864303933 755.72 1217.706787109375 755.72 C 1212.5582877883567 755.72 1208.384605291193 751.529385728 1208.384605291193 746.36 Z" stroke-miterlimit="10"></path></g><g transform="translate(-158,-22) scale(1,1)"><path fill="none" stroke="#000000" d="M 1217.706787109375 755.72 L 1217.706787109375 774.28" stroke-miterlimit="10"></path></g><g transform="translate(-158,-22) scale(1,1)"><path fill="none" stroke="#000000" d="M 1207.8362416548296 762.68 L 1227.5773325639204 762.68" stroke-miterlimit="10"></path></g><g transform="translate(-158,-22) scale(1,1)"><path fill="none" stroke="#000000" d="M 1217.706787109375 774.28 L 1203.997696200284 793" stroke-miterlimit="10"></path></g><g transform="translate(-158,-22) scale(1,1)"><path fill="none" stroke="#000000" d="M 1217.706787109375 774.28 L 1231.415878018466 793" stroke-miterlimit="10"></path></g><g transform="translate(-158,-22) scale(1,1)"><g><path fill="none" stroke="none"></path><text fill="#000000" stroke="none" font-family="Arial" font-size="13px" font-style="normal" font-weight="normal" text-decoration="none" x="1203.706787109375" y="811.5">«rol»</text></g></g><g transform="translate(-158,-22) scale(1,1)"><g><path fill="none" stroke="none"></path><text fill="#000000" stroke="none" font-family="Arial" font-size="13px" font-style="normal" font-weight="bold" text-decoration="none" x="1183.206787109375" y="826.5">Participante</text></g></g><g transform="translate(-158,-22) scale(1,1)"><path fill="none" stroke="#000000" d="M 1176 768 L 1160 768 M 1160 768 A 8 8 0 0 1 1152 760 L 1152 697" stroke-miterlimit="10"></path></g><g transform="translate(-158,-22) scale(1,1)"><path fill="#FFFFFF" stroke="none" d="M 1160.419035512032 717.3253497152483 L 1152 697 L 1143.580964487968 717.3253497152483"></path></g><g transform="translate(-158,-22) scale(1,1)"><path fill="none" stroke="#000000" d="M 1160.419035512032 717.3253497152483 L 1152 697 L 1143.580964487968 717.3253497152483 L 1160.419035512032 717.3253497152483" stroke-miterlimit="10"></path></g><g transform="translate(-158,-22) scale(1,1)"><path fill="#ffffff" stroke="none" d="M 684.7309090909091 288.65 C 684.7309090909091 280.00674288 691.5671131810909 273 700 273 C 708.4328868189091 273 715.2690909090909 280.00674288 715.2690909090909 288.65 C 715.2690909090909 297.29325711999996 708.4328868189091 304.3 700 304.3 C 691.5671131810909 304.3 684.7309090909091 297.29325711999996 684.7309090909091 288.65 Z"></path></g><g transform="translate(-158,-22) scale(1,1)"><path fill="none" stroke="#000000" d="M 684.7309090909091 288.65 C 684.7309090909091 280.00674288 691.5671131810909 273 700 273 C 708.4328868189091 273 715.2690909090909 280.00674288 715.2690909090909 288.65 C 715.2690909090909 297.29325711999996 708.4328868189091 304.3 700 304.3 C 691.5671131810909 304.3 684.7309090909091 297.29325711999996 684.7309090909091 288.65 Z" stroke-miterlimit="10"></path></g><g transform="translate(-158,-22) scale(1,1)"><path fill="none" stroke="#000000" d="M 700 304.3 L 700 334.7" stroke-miterlimit="10"></path></g><g transform="translate(-158,-22) scale(1,1)"><path fill="none" stroke="#000000" d="M 683.8327272727272 315.7 L 716.1672727272728 315.7" stroke-miterlimit="10"></path></g><g transform="translate(-158,-22) scale(1,1)"><path fill="none" stroke="#000000" d="M 700 334.7 L 677.5454545454545 366" stroke-miterlimit="10"></path></g><g transform="translate(-158,-22) scale(1,1)"><path fill="none" stroke="#000000" d="M 700 334.7 L 722.4545454545455 366" stroke-miterlimit="10"></path></g><g transform="translate(-158,-22) scale(1,1)"><g><path fill="none" stroke="none"></path><text fill="#000000" stroke="none" font-family="Arial" font-size="13px" font-style="normal" font-weight="bold" text-decoration="none" x="656" y="386.5">Persona Física</text></g></g><g transform="translate(-158,-22) scale(1,1)"><path fill="none" stroke="#000000" d="M 688 464 L 688 392" stroke-miterlimit="10"></path></g><g transform="translate(-158,-22) scale(1,1)"><path fill="#FFFFFF" stroke="none" d="M 696.419035512032 412.3253497152483 L 688 392 L 679.580964487968 412.3253497152483"></path></g><g transform="translate(-158,-22) scale(1,1)"><path fill="none" stroke="#000000" d="M 696.419035512032 412.3253497152483 L 688 392 L 679.580964487968 412.3253497152483 L 696.419035512032 412.3253497152483" stroke-miterlimit="10"></path></g><g transform="translate(-158,-22) scale(1,1)"><path fill="#ffffff" stroke="none" d="M 1118.7975339133523 601.6800000000001 C 1118.7975339133523 596.8861679360001 1122.6833762382978 593 1127.476806640625 593 C 1132.2702370429522 593 1136.1560793678977 596.8861679360001 1136.1560793678977 601.6800000000001 C 1136.1560793678977 606.473832064 1132.2702370429522 610.36 1127.476806640625 610.36 C 1122.6833762382978 610.36 1118.7975339133523 606.473832064 1118.7975339133523 601.6800000000001 Z"></path></g><g transform="translate(-158,-22) scale(1,1)"><path fill="none" stroke="#000000" d="M 1118.7975339133523 601.6800000000001 C 1118.7975339133523 596.8861679360001 1122.6833762382978 593 1127.476806640625 593 C 1132.2702370429522 593 1136.1560793678977 596.8861679360001 1136.1560793678977 601.6800000000001 C 1136.1560793678977 606.473832064 1132.2702370429522 610.36 1127.476806640625 610.36 C 1122.6833762382978 610.36 1118.7975339133523 606.473832064 1118.7975339133523 601.6800000000001 Z" stroke-miterlimit="10"></path></g><g transform="translate(-158,-22) scale(1,1)"><path fill="none" stroke="#000000" d="M 1127.476806640625 610.36 L 1127.476806640625 627.64" stroke-miterlimit="10"></path></g><g transform="translate(-158,-22) scale(1,1)"><path fill="none" stroke="#000000" d="M 1118.2869884588067 616.84 L 1136.6666248224433 616.84" stroke-miterlimit="10"></path></g><g transform="translate(-158,-22) scale(1,1)"><path fill="none" stroke="#000000" d="M 1127.476806640625 627.64 L 1114.7131702769886 645" stroke-miterlimit="10"></path></g><g transform="translate(-158,-22) scale(1,1)"><path fill="none" stroke="#000000" d="M 1127.476806640625 627.64 L 1140.2404430042614 645" stroke-miterlimit="10"></path></g><g transform="translate(-158,-22) scale(1,1)"><g><path fill="none" stroke="none"></path><text fill="#000000" stroke="none" font-family="Arial" font-size="13px" font-style="normal" font-weight="bold" text-decoration="none" x="1108.976806640625" y="665.5">Rol en</text><text fill="#000000" stroke="none" font-family="Arial" font-size="13px" font-style="normal" font-weight="bold" text-decoration="none" x="1089.476806640625" y="678.5">Convocatoria</text><text fill="#000000" stroke="none" font-family="Arial" font-size="13px" font-style="normal" font-weight="bold" text-decoration="none" x="1088.476806640625" y="691.5">(investigador)</text></g></g><g transform="translate(-158,-22) scale(1,1)"><path fill="#ffffff" stroke="none" d="M 307.32072727272725 465.68 C 307.32072727272725 460.886167936 311.20656959767274 457 316 457 C 320.79343040232726 457 324.67927272727275 460.886167936 324.67927272727275 465.68 C 324.67927272727275 470.473832064 320.79343040232726 474.36 316 474.36 C 311.20656959767274 474.36 307.32072727272725 470.473832064 307.32072727272725 465.68 Z"></path></g><g transform="translate(-158,-22) scale(1,1)"><path fill="none" stroke="#000000" d="M 307.32072727272725 465.68 C 307.32072727272725 460.886167936 311.20656959767274 457 316 457 C 320.79343040232726 457 324.67927272727275 460.886167936 324.67927272727275 465.68 C 324.67927272727275 470.473832064 320.79343040232726 474.36 316 474.36 C 311.20656959767274 474.36 307.32072727272725 470.473832064 307.32072727272725 465.68 Z" stroke-miterlimit="10"></path></g><g transform="translate(-158,-22) scale(1,1)"><path fill="none" stroke="#000000" d="M 316 474.36 L 316 491.64" stroke-miterlimit="10"></path></g><g transform="translate(-158,-22) scale(1,1)"><path fill="none" stroke="#000000" d="M 306.81018181818183 480.84 L 325.18981818181817 480.84" stroke-miterlimit="10"></path></g><g transform="translate(-158,-22) scale(1,1)"><path fill="none" stroke="#000000" d="M 316 491.64 L 303.23636363636365 509" stroke-miterlimit="10"></path></g><g transform="translate(-158,-22) scale(1,1)"><path fill="none" stroke="#000000" d="M 316 491.64 L 328.76363636363635 509" stroke-miterlimit="10"></path></g><g transform="translate(-158,-22) scale(1,1)"><g><path fill="none" stroke="none"></path><text fill="#000000" stroke="none" font-family="Arial" font-size="13px" font-style="normal" font-weight="bold" text-decoration="none" x="297.5" y="529.5">Rol en</text><text fill="#000000" stroke="none" font-family="Arial" font-size="13px" font-style="normal" font-weight="bold" text-decoration="none" x="278" y="542.5">Convocatoria</text><text fill="#000000" stroke="none" font-family="Arial" font-size="13px" font-style="normal" font-weight="bold" text-decoration="none" x="294.5" y="555.5">(Lega y</text><text fill="#000000" stroke="none" font-family="Arial" font-size="13px" font-style="normal" font-weight="bold" text-decoration="none" x="272.5" y="568.5">Administrativo)</text></g></g><g transform="translate(-158,-22) scale(1,1)"><path fill="none" stroke="#000000" d="M 624 514 L 376 514" stroke-miterlimit="10"></path></g><g transform="translate(-158,-22) scale(1,1)"><path fill="none" stroke="#000000" d="M 386.16267485762415 509.790482243984 L 376 514 L 386.16267485762415 518.209517756016" stroke-miterlimit="10"></path></g><g transform="translate(-158,-22) scale(1,1)"><g><path fill="none" stroke="none"></path><text fill="#000000" stroke="none" font-family="Arial" font-size="13px" font-style="normal" font-weight="normal" text-decoration="none" x="480.5" y="535.5">+tiene</text></g></g><g transform="translate(-158,-22) scale(1,1)"><g><path fill="none" stroke="none"></path><text fill="#000000" stroke="none" font-family="Arial" font-size="13px" font-style="normal" font-weight="normal" text-decoration="none" x="386.5" y="507.5">0..*</text></g></g><g transform="translate(-158,-22) scale(1,1)"><path fill="none" stroke="#000000" d="M 862 644 L 1080 644" stroke-miterlimit="10"></path></g><g transform="translate(-158,-22) scale(1,1)"><path fill="none" stroke="#000000" d="M 1069.837325142376 648.209517756016 L 1080 644 L 1069.837325142376 639.790482243984" stroke-miterlimit="10"></path></g><g transform="translate(-158,-22) scale(1,1)"><g><path fill="none" stroke="none"></path><text fill="#000000" stroke="none" font-family="Arial" font-size="13px" font-style="normal" font-weight="normal" text-decoration="none" x="952.5" y="635.5">+tiene</text></g></g><g transform="translate(-158,-22) scale(1,1)"><g><path fill="none" stroke="none"></path><text fill="#000000" stroke="none" font-family="Arial" font-size="13px" font-style="normal" font-weight="normal" text-decoration="none" x="1047.5" y="662.5">0..*</text></g></g><g transform="translate(-158,-22) scale(1,1)"><path fill="#ffffff" stroke="none" d="M 1413.8207272727273 455.68 C 1413.8207272727273 450.886167936 1417.7065695976728 447 1422.5 447 C 1427.2934304023272 447 1431.1792727272727 450.886167936 1431.1792727272727 455.68 C 1431.1792727272727 460.473832064 1427.2934304023272 464.36 1422.5 464.36 C 1417.7065695976728 464.36 1413.8207272727273 460.473832064 1413.8207272727273 455.68 Z"></path></g><g transform="translate(-158,-22) scale(1,1)"><path fill="none" stroke="#000000" d="M 1413.8207272727273 455.68 C 1413.8207272727273 450.886167936 1417.7065695976728 447 1422.5 447 C 1427.2934304023272 447 1431.1792727272727 450.886167936 1431.1792727272727 455.68 C 1431.1792727272727 460.473832064 1427.2934304023272 464.36 1422.5 464.36 C 1417.7065695976728 464.36 1413.8207272727273 460.473832064 1413.8207272727273 455.68 Z" stroke-miterlimit="10"></path></g><g transform="translate(-158,-22) scale(1,1)"><path fill="none" stroke="#000000" d="M 1422.5 464.36 L 1422.5 481.64" stroke-miterlimit="10"></path></g><g transform="translate(-158,-22) scale(1,1)"><path fill="none" stroke="#000000" d="M 1413.3101818181817 470.84 L 1431.6898181818183 470.84" stroke-miterlimit="10"></path></g><g transform="translate(-158,-22) scale(1,1)"><path fill="none" stroke="#000000" d="M 1422.5 481.64 L 1409.7363636363636 499" stroke-miterlimit="10"></path></g><g transform="translate(-158,-22) scale(1,1)"><path fill="none" stroke="#000000" d="M 1422.5 481.64 L 1435.2636363636364 499" stroke-miterlimit="10"></path></g><g transform="translate(-158,-22) scale(1,1)"><g><path fill="none" stroke="none"></path><text fill="#000000" stroke="none" font-family="Arial" font-size="13px" font-style="normal" font-weight="bold" text-decoration="none" x="1392.5" y="519.5">Institución</text></g></g><g transform="translate(-158,-22) scale(1,1)"><path fill="#ffffff" stroke="none" d="M 1330.0108137428977 593.89 C 1330.0108137428977 587.875618528 1334.8321366275522 583 1340.779541015625 583 C 1346.7269454036978 583 1351.5482682883523 587.875618528 1351.5482682883523 593.89 C 1351.5482682883523 599.904381472 1346.7269454036978 604.78 1340.779541015625 604.78 C 1334.8321366275522 604.78 1330.0108137428977 599.904381472 1330.0108137428977 593.89 Z"></path></g><g transform="translate(-158,-22) scale(1,1)"><path fill="none" stroke="#000000" d="M 1330.0108137428977 593.89 C 1330.0108137428977 587.875618528 1334.8321366275522 583 1340.779541015625 583 C 1346.7269454036978 583 1351.5482682883523 587.875618528 1351.5482682883523 593.89 C 1351.5482682883523 599.904381472 1346.7269454036978 604.78 1340.779541015625 604.78 C 1334.8321366275522 604.78 1330.0108137428977 599.904381472 1330.0108137428977 593.89 Z" stroke-miterlimit="10"></path></g><g transform="translate(-158,-22) scale(1,1)"><path fill="none" stroke="#000000" d="M 1340.779541015625 604.78 L 1340.779541015625 626.22" stroke-miterlimit="10"></path></g><g transform="translate(-158,-22) scale(1,1)"><path fill="none" stroke="#000000" d="M 1329.3773591974432 612.82 L 1352.1817228338068 612.82" stroke-miterlimit="10"></path></g><g transform="translate(-158,-22) scale(1,1)"><path fill="none" stroke="#000000" d="M 1340.779541015625 626.22 L 1324.9431773792612 648" stroke-miterlimit="10"></path></g><g transform="translate(-158,-22) scale(1,1)"><path fill="none" stroke="#000000" d="M 1340.779541015625 626.22 L 1356.6159046519888 648" stroke-miterlimit="10"></path></g><g transform="translate(-158,-22) scale(1,1)"><g><path fill="none" stroke="none"></path><text fill="#000000" stroke="none" font-family="Arial" font-size="13px" font-style="normal" font-weight="bold" text-decoration="none" x="1313.279541015625" y="668.5">Sujeto de</text><text fill="#000000" stroke="none" font-family="Arial" font-size="13px" font-style="normal" font-weight="bold" text-decoration="none" x="1322.279541015625" y="681.5">Apoyo</text></g></g><g transform="translate(-158,-22) scale(1,1)"><path fill="#ffffff" stroke="none" d="M 1510.3182736150568 593.21 C 1510.3182736150568 587.5711721920001 1514.8517563274931 583 1520.444091796875 583 C 1526.0364272662569 583 1530.5699099786932 587.5711721920001 1530.5699099786932 593.21 C 1530.5699099786932 598.848827808 1526.0364272662569 603.42 1520.444091796875 603.42 C 1514.8517563274931 603.42 1510.3182736150568 598.848827808 1510.3182736150568 593.21 Z"></path></g><g transform="translate(-158,-22) scale(1,1)"><path fill="none" stroke="#000000" d="M 1510.3182736150568 593.21 C 1510.3182736150568 587.5711721920001 1514.8517563274931 583 1520.444091796875 583 C 1526.0364272662569 583 1530.5699099786932 587.5711721920001 1530.5699099786932 593.21 C 1530.5699099786932 598.848827808 1526.0364272662569 603.42 1520.444091796875 603.42 C 1514.8517563274931 603.42 1510.3182736150568 598.848827808 1510.3182736150568 593.21 Z" stroke-miterlimit="10"></path></g><g transform="translate(-158,-22) scale(1,1)"><path fill="none" stroke="#000000" d="M 1520.444091796875 603.42 L 1520.444091796875 623.58" stroke-miterlimit="10"></path></g><g transform="translate(-158,-22) scale(1,1)"><path fill="none" stroke="#000000" d="M 1509.7226372514203 610.98 L 1531.1655463423297 610.98" stroke-miterlimit="10"></path></g><g transform="translate(-158,-22) scale(1,1)"><path fill="none" stroke="#000000" d="M 1520.444091796875 623.58 L 1505.5531827059658 644" stroke-miterlimit="10"></path></g><g transform="translate(-158,-22) scale(1,1)"><path fill="none" stroke="#000000" d="M 1520.444091796875 623.58 L 1535.3350008877842 644" stroke-miterlimit="10"></path></g><g transform="translate(-158,-22) scale(1,1)"><g><path fill="none" stroke="none"></path><text fill="#000000" stroke="none" font-family="Arial" font-size="13px" font-style="normal" font-weight="bold" text-decoration="none" x="1472.944091796875" y="664.5">Co-Responsable</text></g></g><g transform="translate(-158,-22) scale(1,1)"><path fill="none" stroke="#000000" d="M 1385 614 L 1385 614 M 1385 614 A 8 8 0 0 0 1393 606 L 1393 525" stroke-miterlimit="10"></path></g><g transform="translate(-158,-22) scale(1,1)"><path fill="#FFFFFF" stroke="none" d="M 1401.419035512032 545.3253497152483 L 1393 525 L 1384.580964487968 545.3253497152483"></path></g><g transform="translate(-158,-22) scale(1,1)"><path fill="none" stroke="#000000" d="M 1401.419035512032 545.3253497152483 L 1393 525 L 1384.580964487968 545.3253497152483 L 1401.419035512032 545.3253497152483" stroke-miterlimit="10"></path></g><g transform="translate(-158,-22) scale(1,1)"><path fill="none" stroke="#000000" d="M 1465 614 L 1457 614 M 1457 614 A 8 8 0 0 1 1449 606 L 1449 525" stroke-miterlimit="10"></path></g><g transform="translate(-158,-22) scale(1,1)"><path fill="#FFFFFF" stroke="none" d="M 1457.419035512032 545.3253497152483 L 1449 525 L 1440.580964487968 545.3253497152483"></path></g><g transform="translate(-158,-22) scale(1,1)"><path fill="none" stroke="#000000" d="M 1457.419035512032 545.3253497152483 L 1449 525 L 1440.580964487968 545.3253497152483 L 1457.419035512032 545.3253497152483" stroke-miterlimit="10"></path></g><g transform="translate(-158,-22) scale(1,1)"><path fill="#ffffff" stroke="none" d="M 1629.8207272727273 455.68 C 1629.8207272727273 450.886167936 1633.7065695976728 447 1638.5 447 C 1643.2934304023272 447 1647.1792727272727 450.886167936 1647.1792727272727 455.68 C 1647.1792727272727 460.473832064 1643.2934304023272 464.36 1638.5 464.36 C 1633.7065695976728 464.36 1629.8207272727273 460.473832064 1629.8207272727273 455.68 Z"></path></g><g transform="translate(-158,-22) scale(1,1)"><path fill="none" stroke="#000000" d="M 1629.8207272727273 455.68 C 1629.8207272727273 450.886167936 1633.7065695976728 447 1638.5 447 C 1643.2934304023272 447 1647.1792727272727 450.886167936 1647.1792727272727 455.68 C 1647.1792727272727 460.473832064 1643.2934304023272 464.36 1638.5 464.36 C 1633.7065695976728 464.36 1629.8207272727273 460.473832064 1629.8207272727273 455.68 Z" stroke-miterlimit="10"></path></g><g transform="translate(-158,-22) scale(1,1)"><path fill="none" stroke="#000000" d="M 1638.5 464.36 L 1638.5 481.64" stroke-miterlimit="10"></path></g><g transform="translate(-158,-22) scale(1,1)"><path fill="none" stroke="#000000" d="M 1629.3101818181817 470.84 L 1647.6898181818183 470.84" stroke-miterlimit="10"></path></g><g transform="translate(-158,-22) scale(1,1)"><path fill="none" stroke="#000000" d="M 1638.5 481.64 L 1625.7363636363636 499" stroke-miterlimit="10"></path></g><g transform="translate(-158,-22) scale(1,1)"><path fill="none" stroke="#000000" d="M 1638.5 481.64 L 1651.2636363636364 499" stroke-miterlimit="10"></path></g><g transform="translate(-158,-22) scale(1,1)"><g><path fill="none" stroke="none"></path><text fill="#000000" stroke="none" font-family="Arial" font-size="13px" font-style="normal" font-weight="bold" text-decoration="none" x="1606.5" y="519.5">RENIECyT</text></g></g><g transform="translate(-158,-22) scale(1,1)"><path fill="none" stroke="#000000" d="M 1460 478 L 1601 478" stroke-miterlimit="10"></path></g><g transform="translate(-158,-22) scale(1,1)"><path fill="none" stroke="#000000" d="M 1590.837325142376 482.209517756016 L 1601 478 L 1590.837325142376 473.790482243984" stroke-miterlimit="10"></path></g><g transform="translate(-158,-22) scale(1,1)"><g><path fill="none" stroke="none"></path><text fill="#000000" stroke="none" font-family="Arial" font-size="13px" font-style="normal" font-weight="normal" text-decoration="none" x="1497.73583984375" y="462.5">+registrada</text><text fill="#000000" stroke="none" font-family="Arial" font-size="13px" font-style="normal" font-weight="normal" text-decoration="none" x="1523.23583984375" y="475.5">en</text></g></g><g transform="translate(-158,-22) scale(1,1)"><g><path fill="none" stroke="none"></path><text fill="#000000" stroke="none" font-family="Arial" font-size="13px" font-style="normal" font-weight="normal" text-decoration="none" x="1567.5" y="496.5">0..1</text></g></g><g transform="translate(-158,-22) scale(1,1)"><path fill="#ffffff" stroke="none" d="M 1414.0834225852273 687.6800000000001 C 1414.0834225852273 682.8861679360001 1417.9692649101728 679 1422.7626953125 679 C 1427.5561257148272 679 1431.4419680397727 682.8861679360001 1431.4419680397727 687.6800000000001 C 1431.4419680397727 692.473832064 1427.5561257148272 696.36 1422.7626953125 696.36 C 1417.9692649101728 696.36 1414.0834225852273 692.473832064 1414.0834225852273 687.6800000000001 Z"></path></g><g transform="translate(-158,-22) scale(1,1)"><path fill="none" stroke="#000000" d="M 1414.0834225852273 687.6800000000001 C 1414.0834225852273 682.8861679360001 1417.9692649101728 679 1422.7626953125 679 C 1427.5561257148272 679 1431.4419680397727 682.8861679360001 1431.4419680397727 687.6800000000001 C 1431.4419680397727 692.473832064 1427.5561257148272 696.36 1422.7626953125 696.36 C 1417.9692649101728 696.36 1414.0834225852273 692.473832064 1414.0834225852273 687.6800000000001 Z" stroke-miterlimit="10"></path></g><g transform="translate(-158,-22) scale(1,1)"><path fill="none" stroke="#000000" d="M 1422.7626953125 696.36 L 1422.7626953125 713.64" stroke-miterlimit="10"></path></g><g transform="translate(-158,-22) scale(1,1)"><path fill="none" stroke="#000000" d="M 1413.5728771306817 702.84 L 1431.9525134943183 702.84" stroke-miterlimit="10"></path></g><g transform="translate(-158,-22) scale(1,1)"><path fill="none" stroke="#000000" d="M 1422.7626953125 713.64 L 1409.9990589488636 731" stroke-miterlimit="10"></path></g><g transform="translate(-158,-22) scale(1,1)"><path fill="none" stroke="#000000" d="M 1422.7626953125 713.64 L 1435.5263316761364 731" stroke-miterlimit="10"></path></g><g transform="translate(-158,-22) scale(1,1)"><g><path fill="none" stroke="none"></path><text fill="#000000" stroke="none" font-family="Arial" font-size="13px" font-style="normal" font-weight="bold" text-decoration="none" x="1383.7626953125" y="751.5">Institución de</text><text fill="#000000" stroke="none" font-family="Arial" font-size="13px" font-style="normal" font-weight="bold" text-decoration="none" x="1388.2626953125" y="764.5">Participante</text></g></g><g transform="translate(-158,-22) scale(1,1)"><path fill="none" stroke="#000000" d="M 1422 678 L 1422 525" stroke-miterlimit="10"></path></g><g transform="translate(-158,-22) scale(1,1)"><path fill="#FFFFFF" stroke="none" d="M 1430.419035512032 545.3253497152483 L 1422 525 L 1413.580964487968 545.3253497152483"></path></g><g transform="translate(-158,-22) scale(1,1)"><path fill="none" stroke="#000000" d="M 1430.419035512032 545.3253497152483 L 1422 525 L 1413.580964487968 545.3253497152483 L 1430.419035512032 545.3253497152483" stroke-miterlimit="10"></path></g><g transform="translate(-158,-22) scale(1,1)"><path fill="#ffffff" stroke="none" d="M 1218.0275143821023 447.68 C 1218.0275143821023 442.886167936 1221.9133567070478 439 1226.706787109375 439 C 1231.5002175117022 439 1235.3860598366477 442.886167936 1235.3860598366477 447.68 C 1235.3860598366477 452.473832064 1231.5002175117022 456.36 1226.706787109375 456.36 C 1221.9133567070478 456.36 1218.0275143821023 452.473832064 1218.0275143821023 447.68 Z"></path></g><g transform="translate(-158,-22) scale(1,1)"><path fill="none" stroke="#000000" d="M 1218.0275143821023 447.68 C 1218.0275143821023 442.886167936 1221.9133567070478 439 1226.706787109375 439 C 1231.5002175117022 439 1235.3860598366477 442.886167936 1235.3860598366477 447.68 C 1235.3860598366477 452.473832064 1231.5002175117022 456.36 1226.706787109375 456.36 C 1221.9133567070478 456.36 1218.0275143821023 452.473832064 1218.0275143821023 447.68 Z" stroke-miterlimit="10"></path></g><g transform="translate(-158,-22) scale(1,1)"><path fill="none" stroke="#000000" d="M 1226.706787109375 456.36 L 1226.706787109375 473.64" stroke-miterlimit="10"></path></g><g transform="translate(-158,-22) scale(1,1)"><path fill="none" stroke="#000000" d="M 1217.5169689275567 462.84 L 1235.8966052911933 462.84" stroke-miterlimit="10"></path></g><g transform="translate(-158,-22) scale(1,1)"><path fill="none" stroke="#000000" d="M 1226.706787109375 473.64 L 1213.9431507457386 491" stroke-miterlimit="10"></path></g><g transform="translate(-158,-22) scale(1,1)"><path fill="none" stroke="#000000" d="M 1226.706787109375 473.64 L 1239.4704234730114 491" stroke-miterlimit="10"></path></g><g transform="translate(-158,-22) scale(1,1)"><g><path fill="none" stroke="none"></path><text fill="#000000" stroke="none" font-family="Arial" font-size="13px" font-style="normal" font-weight="normal" text-decoration="none" x="1212.706787109375" y="509.5">«rol»</text></g></g><g transform="translate(-158,-22) scale(1,1)"><g><path fill="none" stroke="none"></path><text fill="#000000" stroke="none" font-family="Arial" font-size="13px" font-style="normal" font-weight="bold" text-decoration="none" x="1192.206787109375" y="524.5">Participante</text></g></g><g transform="translate(-158,-22) scale(1,1)"><path fill="none" stroke="#000000" d="M 1268 485 L 1385 485" stroke-miterlimit="10"></path></g><g transform="translate(-158,-22) scale(1,1)"><path fill="none" stroke="#000000" d="M 1374.837325142376 489.209517756016 L 1385 485 L 1374.837325142376 480.790482243984" stroke-miterlimit="10"></path></g><g transform="translate(-158,-22) scale(1,1)"><g><path fill="none" stroke="none"></path><text fill="#000000" stroke="none" font-family="Arial" font-size="13px" font-style="normal" font-weight="normal" text-decoration="none" x="1293.706298828125" y="476.5">+pertenece</text></g></g><g transform="translate(-158,-22) scale(1,1)"><g><path fill="none" stroke="none"></path><text fill="#000000" stroke="none" font-family="Arial" font-size="13px" font-style="normal" font-weight="normal" text-decoration="none" x="1352.5" y="503.5">1..*</text></g></g><g transform="translate(-158,-22) scale(1,1)"><path fill="#ffffff" stroke="none" d="M 1403.3738181818183 279.97 C 1403.3738181818183 271.70229654400003 1409.9221820997818 265 1418 265 C 1426.0778179002182 265 1432.6261818181817 271.70229654400003 1432.6261818181817 279.97 C 1432.6261818181817 288.237703456 1426.0778179002182 294.94 1418 294.94 C 1409.9221820997818 294.94 1403.3738181818183 288.237703456 1403.3738181818183 279.97 Z"></path></g><g transform="translate(-158,-22) scale(1,1)"><path fill="none" stroke="#000000" d="M 1403.3738181818183 279.97 C 1403.3738181818183 271.70229654400003 1409.9221820997818 265 1418 265 C 1426.0778179002182 265 1432.6261818181817 271.70229654400003 1432.6261818181817 279.97 C 1432.6261818181817 288.237703456 1426.0778179002182 294.94 1418 294.94 C 1409.9221820997818 294.94 1403.3738181818183 288.237703456 1403.3738181818183 279.97 Z" stroke-miterlimit="10"></path></g><g transform="translate(-158,-22) scale(1,1)"><path fill="none" stroke="#000000" d="M 1418 294.94 L 1418 324.06" stroke-miterlimit="10"></path></g><g transform="translate(-158,-22) scale(1,1)"><path fill="none" stroke="#000000" d="M 1402.5134545454546 305.86 L 1433.4865454545454 305.86" stroke-miterlimit="10"></path></g><g transform="translate(-158,-22) scale(1,1)"><path fill="none" stroke="#000000" d="M 1418 324.06 L 1396.490909090909 354" stroke-miterlimit="10"></path></g><g transform="translate(-158,-22) scale(1,1)"><path fill="none" stroke="#000000" d="M 1418 324.06 L 1439.509090909091 354" stroke-miterlimit="10"></path></g><g transform="translate(-158,-22) scale(1,1)"><g><path fill="none" stroke="none"></path><text fill="#000000" stroke="none" font-family="Arial" font-size="13px" font-style="normal" font-weight="bold" text-decoration="none" x="1376" y="374.5">Persona Moral</text></g></g><g transform="translate(-158,-22) scale(1,1)"><path fill="none" stroke="#000000" d="M 1425 446 L 1425 380" stroke-miterlimit="10"></path></g><g transform="translate(-158,-22) scale(1,1)"><path fill="#FFFFFF" stroke="none" d="M 1433.419035512032 400.3253497152483 L 1425 380 L 1416.580964487968 400.3253497152483"></path></g><g transform="translate(-158,-22) scale(1,1)"><path fill="none" stroke="#000000" d="M 1433.419035512032 400.3253497152483 L 1425 380 L 1416.580964487968 400.3253497152483 L 1433.419035512032 400.3253497152483" stroke-miterlimit="10"></path></g><g transform="translate(-158,-22) scale(1,1)"><path fill="#ffffff" stroke="none" d="M 1055.4450909090908 50.010000000000005 C 1055.4450909090908 40.615635552 1062.856975343709 33 1072 33 C 1081.143024656291 33 1088.5549090909092 40.615635552 1088.5549090909092 50.010000000000005 C 1088.5549090909092 59.40436444800001 1081.143024656291 67.02000000000001 1072 67.02000000000001 C 1062.856975343709 67.02000000000001 1055.4450909090908 59.40436444800001 1055.4450909090908 50.010000000000005 Z"></path></g><g transform="translate(-158,-22) scale(1,1)"><path fill="none" stroke="#000000" d="M 1055.4450909090908 50.010000000000005 C 1055.4450909090908 40.615635552 1062.856975343709 33 1072 33 C 1081.143024656291 33 1088.5549090909092 40.615635552 1088.5549090909092 50.010000000000005 C 1088.5549090909092 59.40436444800001 1081.143024656291 67.02000000000001 1072 67.02000000000001 C 1062.856975343709 67.02000000000001 1055.4450909090908 59.40436444800001 1055.4450909090908 50.010000000000005 Z" stroke-miterlimit="10"></path></g><g transform="translate(-158,-22) scale(1,1)"><path fill="none" stroke="#000000" d="M 1072 67.02000000000001 L 1072 99.98" stroke-miterlimit="10"></path></g><g transform="translate(-158,-22) scale(1,1)"><path fill="none" stroke="#000000" d="M 1054.4712727272727 79.38 L 1089.5287272727273 79.38" stroke-miterlimit="10"></path></g><g transform="translate(-158,-22) scale(1,1)"><path fill="none" stroke="#000000" d="M 1072 99.98 L 1047.6545454545453 134" stroke-miterlimit="10"></path></g><g transform="translate(-158,-22) scale(1,1)"><path fill="none" stroke="#000000" d="M 1072 99.98 L 1096.3454545454547 134" stroke-miterlimit="10"></path></g><g transform="translate(-158,-22) scale(1,1)"><g><path fill="none" stroke="none"></path><text fill="#000000" stroke="none" font-family="Arial" font-size="13px" font-style="normal" font-weight="bold" text-decoration="none" x="1048" y="154.5">Persona</text></g></g><g transform="translate(-158,-22) scale(1,1)"><path fill="none" stroke="#000000" d="M 688 272 L 688 248 M 688 248 A 8 8 0 0 1 696 240 L 1056 240 M 1056 240 A 8 8 0 0 0 1064 232 L 1064 160" stroke-miterlimit="10"></path></g><g transform="translate(-158,-22) scale(1,1)"><path fill="#FFFFFF" stroke="none" d="M 1072.419035512032 180.3253497152483 L 1064 160 L 1055.580964487968 180.3253497152483"></path></g><g transform="translate(-158,-22) scale(1,1)"><path fill="none" stroke="#000000" d="M 1072.419035512032 180.3253497152483 L 1064 160 L 1055.580964487968 180.3253497152483 L 1072.419035512032 180.3253497152483" stroke-miterlimit="10"></path></g><g transform="translate(-158,-22) scale(1,1)"><path fill="none" stroke="#000000" d="M 1416 264 L 1416 248 M 1416 248 A 8 8 0 0 0 1408 240 L 1096 240 M 1096 240 A 8 8 0 0 1 1088 232 L 1088 160" stroke-miterlimit="10"></path></g><g transform="translate(-158,-22) scale(1,1)"><path fill="#FFFFFF" stroke="none" d="M 1096.419035512032 180.3253497152483 L 1088 160 L 1079.580964487968 180.3253497152483"></path></g><g transform="translate(-158,-22) scale(1,1)"><path fill="none" stroke="#000000" d="M 1096.419035512032 180.3253497152483 L 1088 160 L 1079.580964487968 180.3253497152483 L 1096.419035512032 180.3253497152483" stroke-miterlimit="10"></path></g></g></svg>