<svg version="1.1" xmlns="http://www.w3.org/2000/svg" xmlns:xlink="http://www.w3.org/1999/xlink" width="1084" height="556"><defs></defs><g><g transform="translate(-118,-206) scale(1,1)"><path fill="#C0C0C0" stroke="none" d="M 431 641 L 620 641 L 620 758 L 431 758" opacity="0.2"></path></g><g transform="translate(-118,-206) scale(1,1)"><path fill="#C0C0C0" stroke="none" d="M 431 641 L 441 631 L 630 631 L 620 641" opacity="0.2"></path></g><g transform="translate(-118,-206) scale(1,1)"><path fill="#C0C0C0" stroke="none" d="M 630 631 L 620 641 L 620 758 L 630 748" opacity="0.2"></path></g><g transform="translate(-118,-206) scale(1,1)"><path fill="#d8f2ff" stroke="none" d="M 424 634 L 613 634 L 613 751 L 424 751"></path></g><g transform="translate(-118,-206) scale(1,1)"><path fill="#d8f2ff" stroke="none" d="M 424 634 L 434 624 L 623 624 L 613 634"></path></g><g transform="translate(-118,-206) scale(1,1)"><path fill="#d8f2ff" stroke="none" d="M 623 624 L 613 634 L 613 751 L 623 741"></path></g><g transform="translate(-118,-206) scale(1,1)"><path fill="none" stroke="#000000" d="M 424 634 L 613 634 L 613 751 L 424 751 L 424 634" stroke-miterlimit="10"></path></g><g transform="translate(-118,-206) scale(1,1)"><path fill="none" stroke="#000000" d="M 424 634 L 434 624 L 623 624 L 613 634 L 424 634" stroke-miterlimit="10"></path></g><g transform="translate(-118,-206) scale(1,1)"><path fill="none" stroke="#000000" d="M 623 624 L 613 634 L 613 751 L 623 741 L 623 624" stroke-miterlimit="10"></path></g><g transform="translate(-118,-206) scale(1,1)"><g><path fill="none" stroke="none"></path><text fill="#000000" stroke="none" font-family="Arial" font-size="13px" font-style="normal" font-weight="normal" text-decoration="none" x="494" y="651.5">«server»</text></g></g><g transform="translate(-118,-206) scale(1,1)"><g><path fill="none" stroke="none"></path><text fill="#000000" stroke="none" font-family="Arial" font-size="13px" font-style="normal" font-weight="bold" text-decoration="none" x="442" y="666.5">IDM - OAUTH2 - Keycloak</text></g></g><g transform="translate(-118,-206) scale(1,1)"><path fill="#C0C0C0" stroke="none" d="M 135 241 L 628 241 L 628 590 L 135 590" opacity="0.2"></path></g><g transform="translate(-118,-206) scale(1,1)"><path fill="#C0C0C0" stroke="none" d="M 135 241 L 145 231 L 638 231 L 628 241" opacity="0.2"></path></g><g transform="translate(-118,-206) scale(1,1)"><path fill="#C0C0C0" stroke="none" d="M 638 231 L 628 241 L 628 590 L 638 580" opacity="0.2"></path></g><g transform="translate(-118,-206) scale(1,1)"><path fill="#ffffff" stroke="none" d="M 128 234 L 621 234 L 621 583 L 128 583"></path></g><g transform="translate(-118,-206) scale(1,1)"><path fill="#ffffff" stroke="none" d="M 128 234 L 138 224 L 631 224 L 621 234"></path></g><g transform="translate(-118,-206) scale(1,1)"><path fill="#ffffff" stroke="none" d="M 631 224 L 621 234 L 621 583 L 631 573"></path></g><g transform="translate(-118,-206) scale(1,1)"><path fill="none" stroke="#000000" d="M 128 234 L 621 234 L 621 583 L 128 583 L 128 234" stroke-miterlimit="10"></path></g><g transform="translate(-118,-206) scale(1,1)"><path fill="none" stroke="#000000" d="M 128 234 L 138 224 L 631 224 L 621 234 L 128 234" stroke-miterlimit="10"></path></g><g transform="translate(-118,-206) scale(1,1)"><path fill="none" stroke="#000000" d="M 631 224 L 621 234 L 621 583 L 631 573 L 631 224" stroke-miterlimit="10"></path></g><g transform="translate(-118,-206) scale(1,1)"><g><path fill="none" stroke="none"></path><text fill="#000000" stroke="none" font-family="Arial" font-size="13px" font-style="normal" font-weight="normal" text-decoration="none" x="348.5" y="251.5">«docker»</text></g></g><g transform="translate(-118,-206) scale(1,1)"><g><path fill="none" stroke="none"></path><text fill="#000000" stroke="none" font-family="Arial" font-size="13px" font-style="normal" font-weight="bold" text-decoration="none" x="318.5" y="266.5">Ciencia de Frontera</text></g></g><g transform="translate(-118,-206) scale(1,1)"><rect fill="#C0C0C0" stroke="none" x="161" y="295" width="110" height="50" opacity="0.2"></rect></g><g transform="translate(-118,-206) scale(1,1)"><rect fill="#d8f2ff" stroke="none" x="154" y="288" width="110" height="50"></rect></g><g transform="translate(-118,-206) scale(1,1)"><path fill="none" stroke="#000000" d="M 154 288 L 264 288 L 264 338 L 154 338 L 154 288 Z Z" stroke-miterlimit="10"></path></g><g transform="translate(-118,-206) scale(1,1)"><rect fill="#d8f2ff" stroke="none" x="144" y="295" width="20" height="10"></rect></g><g transform="translate(-118,-206) scale(1,1)"><path fill="none" stroke="#000000" d="M 144 295 L 164 295 L 164 305 L 144 305 L 144 295 Z Z" stroke-miterlimit="10"></path></g><g transform="translate(-118,-206) scale(1,1)"><rect fill="#d8f2ff" stroke="none" x="144" y="315" width="20" height="10"></rect></g><g transform="translate(-118,-206) scale(1,1)"><path fill="none" stroke="#000000" d="M 144 315 L 164 315 L 164 325 L 144 325 L 144 315 Z Z" stroke-miterlimit="10"></path></g><g transform="translate(-118,-206) scale(1,1)"><g><path fill="none" stroke="none"></path><text fill="#000000" stroke="none" font-family="Arial" font-size="13px" font-style="normal" font-weight="normal" text-decoration="none" x="175" y="305.5">«transversal»</text></g></g><g transform="translate(-118,-206) scale(1,1)"><g><path fill="none" stroke="none"></path><text fill="#000000" stroke="none" font-family="Arial" font-size="13px" font-style="normal" font-weight="bold" text-decoration="none" x="197.5" y="320.5">Firma</text><text fill="#000000" stroke="none" font-family="Arial" font-size="13px" font-style="normal" font-weight="bold" text-decoration="none" x="181.5" y="333.5">Electrónica</text></g></g><g transform="translate(-118,-206) scale(1,1)"><rect fill="#C0C0C0" stroke="none" x="161" y="391" width="110" height="44" opacity="0.2"></rect></g><g transform="translate(-118,-206) scale(1,1)"><rect fill="#d8f2ff" stroke="none" x="154" y="384" width="110" height="44"></rect></g><g transform="translate(-118,-206) scale(1,1)"><path fill="none" stroke="#000000" d="M 154 384 L 264 384 L 264 428 L 154 428 L 154 384 Z Z" stroke-miterlimit="10"></path></g><g transform="translate(-118,-206) scale(1,1)"><rect fill="#d8f2ff" stroke="none" x="144" y="391" width="20" height="10"></rect></g><g transform="translate(-118,-206) scale(1,1)"><path fill="none" stroke="#000000" d="M 144 391 L 164 391 L 164 401 L 144 401 L 144 391 Z Z" stroke-miterlimit="10"></path></g><g transform="translate(-118,-206) scale(1,1)"><rect fill="#d8f2ff" stroke="none" x="144" y="411" width="20" height="10"></rect></g><g transform="translate(-118,-206) scale(1,1)"><path fill="none" stroke="#000000" d="M 144 411 L 164 411 L 164 421 L 144 421 L 144 411 Z Z" stroke-miterlimit="10"></path></g><g transform="translate(-118,-206) scale(1,1)"><g><path fill="none" stroke="none"></path><text fill="#000000" stroke="none" font-family="Arial" font-size="13px" font-style="normal" font-weight="normal" text-decoration="none" x="175" y="401.5">«transversal»</text></g></g><g transform="translate(-118,-206) scale(1,1)"><g><path fill="none" stroke="none"></path><text fill="#000000" stroke="none" font-family="Arial" font-size="13px" font-style="normal" font-weight="bold" text-decoration="none" x="173" y="416.5">Notificaciones</text></g></g><g transform="translate(-118,-206) scale(1,1)"><rect fill="#C0C0C0" stroke="none" x="161" y="519" width="110" height="50" opacity="0.2"></rect></g><g transform="translate(-118,-206) scale(1,1)"><rect fill="#d8f2ff" stroke="none" x="154" y="512" width="110" height="50"></rect></g><g transform="translate(-118,-206) scale(1,1)"><path fill="none" stroke="#000000" d="M 154 512 L 264 512 L 264 562 L 154 562 L 154 512 Z Z" stroke-miterlimit="10"></path></g><g transform="translate(-118,-206) scale(1,1)"><rect fill="#d8f2ff" stroke="none" x="144" y="519" width="20" height="10"></rect></g><g transform="translate(-118,-206) scale(1,1)"><path fill="none" stroke="#000000" d="M 144 519 L 164 519 L 164 529 L 144 529 L 144 519 Z Z" stroke-miterlimit="10"></path></g><g transform="translate(-118,-206) scale(1,1)"><rect fill="#d8f2ff" stroke="none" x="144" y="539" width="20" height="10"></rect></g><g transform="translate(-118,-206) scale(1,1)"><path fill="none" stroke="#000000" d="M 144 539 L 164 539 L 164 549 L 144 549 L 144 539 Z Z" stroke-miterlimit="10"></path></g><g transform="translate(-118,-206) scale(1,1)"><g><path fill="none" stroke="none"></path><text fill="#000000" stroke="none" font-family="Arial" font-size="13px" font-style="normal" font-weight="bold" text-decoration="none" x="174" y="531.5">Administrador</text><text fill="#000000" stroke="none" font-family="Arial" font-size="13px" font-style="normal" font-weight="bold" text-decoration="none" x="174" y="544.5">de Usuarios y</text><text fill="#000000" stroke="none" font-family="Arial" font-size="13px" font-style="normal" font-weight="bold" text-decoration="none" x="197.5" y="557.5">Roles</text></g></g><g transform="translate(-118,-206) scale(1,1)"><rect fill="#C0C0C0" stroke="none" x="465" y="687" width="120.82275390625" height="50" opacity="0.2"></rect></g><g transform="translate(-118,-206) scale(1,1)"><rect fill="#ffd8d8" stroke="none" x="458" y="680" width="120.82275390625" height="50"></rect></g><g transform="translate(-118,-206) scale(1,1)"><path fill="none" stroke="#000000" d="M 458 680 L 578.82275390625 680 L 578.82275390625 730 L 458 730 L 458 680 Z Z" stroke-miterlimit="10"></path></g><g transform="translate(-118,-206) scale(1,1)"><rect fill="#ffd8d8" stroke="none" x="448" y="687" width="20" height="10"></rect></g><g transform="translate(-118,-206) scale(1,1)"><path fill="none" stroke="#000000" d="M 448 687 L 468 687 L 468 697 L 448 697 L 448 687 Z Z" stroke-miterlimit="10"></path></g><g transform="translate(-118,-206) scale(1,1)"><rect fill="#ffd8d8" stroke="none" x="448" y="707" width="20" height="10"></rect></g><g transform="translate(-118,-206) scale(1,1)"><path fill="none" stroke="#000000" d="M 448 707 L 468 707 L 468 717 L 448 717 L 448 707 Z Z" stroke-miterlimit="10"></path></g><g transform="translate(-118,-206) scale(1,1)"><g><path fill="none" stroke="none"></path><text fill="#000000" stroke="none" font-family="Arial" font-size="13px" font-style="normal" font-weight="normal" text-decoration="none" x="493.411376953125" y="697.5">«security»</text></g></g><g transform="translate(-118,-206) scale(1,1)"><g><path fill="none" stroke="none"></path><text fill="#000000" stroke="none" font-family="Arial" font-size="13px" font-style="normal" font-weight="bold" text-decoration="none" x="478.411376953125" y="712.5">Autenticación y</text><text fill="#000000" stroke="none" font-family="Arial" font-size="13px" font-style="normal" font-weight="bold" text-decoration="none" x="487.411376953125" y="725.5">Autorización</text></g></g><g transform="translate(-118,-206) scale(1,1)"><rect fill="#C0C0C0" stroke="none" x="489" y="383" width="126" height="63" opacity="0.2"></rect></g><g transform="translate(-118,-206) scale(1,1)"><rect fill="#d8f2ff" stroke="none" x="482" y="376" width="126" height="63"></rect></g><g transform="translate(-118,-206) scale(1,1)"><path fill="none" stroke="#000000" d="M 482 376 L 608 376 L 608 439 L 482 439 L 482 376 Z Z" stroke-miterlimit="10"></path></g><g transform="translate(-118,-206) scale(1,1)"><rect fill="#d8f2ff" stroke="none" x="472" y="383" width="20" height="10"></rect></g><g transform="translate(-118,-206) scale(1,1)"><path fill="none" stroke="#000000" d="M 472 383 L 492 383 L 492 393 L 472 393 L 472 383 Z Z" stroke-miterlimit="10"></path></g><g transform="translate(-118,-206) scale(1,1)"><rect fill="#d8f2ff" stroke="none" x="472" y="403" width="20" height="10"></rect></g><g transform="translate(-118,-206) scale(1,1)"><path fill="none" stroke="#000000" d="M 472 403 L 492 403 L 492 413 L 472 413 L 472 403 Z Z" stroke-miterlimit="10"></path></g><g transform="translate(-118,-206) scale(1,1)"><g><path fill="none" stroke="none"></path><text fill="#000000" stroke="none" font-family="Arial" font-size="13px" font-style="normal" font-weight="normal" text-decoration="none" x="511" y="393.5">«transversal»</text></g></g><g transform="translate(-118,-206) scale(1,1)"><g><path fill="none" stroke="none"></path><text fill="#000000" stroke="none" font-family="Arial" font-size="13px" font-style="normal" font-weight="bold" text-decoration="none" x="510.5" y="408.5">Configuración</text><text fill="#000000" stroke="none" font-family="Arial" font-size="13px" font-style="normal" font-weight="bold" text-decoration="none" x="543" y="421.5">de</text><text fill="#000000" stroke="none" font-family="Arial" font-size="13px" font-style="normal" font-weight="bold" text-decoration="none" x="508.5" y="434.5">Convocatorias</text></g></g><g transform="translate(-118,-206) scale(1,1)"><rect fill="#C0C0C0" stroke="none" x="329" y="295" width="110" height="128" opacity="0.2"></rect></g><g transform="translate(-118,-206) scale(1,1)"><rect fill="#d8f2ff" stroke="none" x="322" y="288" width="110" height="128"></rect></g><g transform="translate(-118,-206) scale(1,1)"><path fill="none" stroke="#000000" d="M 322 288 L 432 288 L 432 416 L 322 416 L 322 288 Z Z" stroke-miterlimit="10"></path></g><g transform="translate(-118,-206) scale(1,1)"><rect fill="#d8f2ff" stroke="none" x="312" y="295" width="20" height="10"></rect></g><g transform="translate(-118,-206) scale(1,1)"><path fill="none" stroke="#000000" d="M 312 295 L 332 295 L 332 305 L 312 305 L 312 295 Z Z" stroke-miterlimit="10"></path></g><g transform="translate(-118,-206) scale(1,1)"><rect fill="#d8f2ff" stroke="none" x="312" y="315" width="20" height="10"></rect></g><g transform="translate(-118,-206) scale(1,1)"><path fill="none" stroke="#000000" d="M 312 315 L 332 315 L 332 325 L 312 325 L 312 315 Z Z" stroke-miterlimit="10"></path></g><g transform="translate(-118,-206) scale(1,1)"><g><path fill="none" stroke="none"></path><text fill="#000000" stroke="none" font-family="Arial" font-size="13px" font-style="normal" font-weight="normal" text-decoration="none" x="352.5" y="305.5">«negocio»</text></g></g><g transform="translate(-118,-206) scale(1,1)"><g><path fill="none" stroke="none"></path><text fill="#000000" stroke="none" font-family="Arial" font-size="13px" font-style="normal" font-weight="bold" text-decoration="none" x="349" y="320.5">Registro de</text><text fill="#000000" stroke="none" font-family="Arial" font-size="13px" font-style="normal" font-weight="bold" text-decoration="none" x="357" y="333.5">Solicitud</text></g></g><g transform="translate(-118,-206) scale(1,1)"><rect fill="#C0C0C0" stroke="none" x="313" y="463" width="134" height="50" opacity="0.2"></rect></g><g transform="translate(-118,-206) scale(1,1)"><rect fill="#d8f2ff" stroke="none" x="306" y="456" width="134" height="50"></rect></g><g transform="translate(-118,-206) scale(1,1)"><path fill="none" stroke="#000000" d="M 306 456 L 440 456 L 440 506 L 306 506 L 306 456 Z Z" stroke-miterlimit="10"></path></g><g transform="translate(-118,-206) scale(1,1)"><rect fill="#d8f2ff" stroke="none" x="296" y="463" width="20" height="10"></rect></g><g transform="translate(-118,-206) scale(1,1)"><path fill="none" stroke="#000000" d="M 296 463 L 316 463 L 316 473 L 296 473 L 296 463 Z Z" stroke-miterlimit="10"></path></g><g transform="translate(-118,-206) scale(1,1)"><rect fill="#d8f2ff" stroke="none" x="296" y="483" width="20" height="10"></rect></g><g transform="translate(-118,-206) scale(1,1)"><path fill="none" stroke="#000000" d="M 296 483 L 316 483 L 316 493 L 296 493 L 296 483 Z Z" stroke-miterlimit="10"></path></g><g transform="translate(-118,-206) scale(1,1)"><g><path fill="none" stroke="none"></path><text fill="#000000" stroke="none" font-family="Arial" font-size="13px" font-style="normal" font-weight="normal" text-decoration="none" x="339" y="473.5">«transversal»</text></g></g><g transform="translate(-118,-206) scale(1,1)"><g><path fill="none" stroke="none"></path><text fill="#000000" stroke="none" font-family="Arial" font-size="13px" font-style="normal" font-weight="bold" text-decoration="none" x="345" y="488.5">Bitácora de</text><text fill="#000000" stroke="none" font-family="Arial" font-size="13px" font-style="normal" font-weight="bold" text-decoration="none" x="341.5" y="501.5">Operaciones</text></g></g><g transform="translate(-118,-206) scale(1,1)"><path fill="#C0C0C0" stroke="none" d="M 903 233 L 1188 233 L 1188 582 L 903 582" opacity="0.2"></path></g><g transform="translate(-118,-206) scale(1,1)"><path fill="#C0C0C0" stroke="none" d="M 903 233 L 913 223 L 1198 223 L 1188 233" opacity="0.2"></path></g><g transform="translate(-118,-206) scale(1,1)"><path fill="#C0C0C0" stroke="none" d="M 1198 223 L 1188 233 L 1188 582 L 1198 572" opacity="0.2"></path></g><g transform="translate(-118,-206) scale(1,1)"><path fill="#c6c6c6" stroke="none" d="M 896 226 L 1181 226 L 1181 575 L 896 575"></path></g><g transform="translate(-118,-206) scale(1,1)"><path fill="#c6c6c6" stroke="none" d="M 896 226 L 906 216 L 1191 216 L 1181 226"></path></g><g transform="translate(-118,-206) scale(1,1)"><path fill="#c6c6c6" stroke="none" d="M 1191 216 L 1181 226 L 1181 575 L 1191 565"></path></g><g transform="translate(-118,-206) scale(1,1)"><path fill="none" stroke="#000000" d="M 896 226 L 1181 226 L 1181 575 L 896 575 L 896 226" stroke-miterlimit="10"></path></g><g transform="translate(-118,-206) scale(1,1)"><path fill="none" stroke="#000000" d="M 896 226 L 906 216 L 1191 216 L 1181 226 L 896 226" stroke-miterlimit="10"></path></g><g transform="translate(-118,-206) scale(1,1)"><path fill="none" stroke="#000000" d="M 1191 216 L 1181 226 L 1181 575 L 1191 565 L 1191 216" stroke-miterlimit="10"></path></g><g transform="translate(-118,-206) scale(1,1)"><g><path fill="none" stroke="none"></path><text fill="#000000" stroke="none" font-family="Arial" font-size="13px" font-style="normal" font-weight="normal" text-decoration="none" x="1013" y="243.5">«legacy»</text></g></g><g transform="translate(-118,-206) scale(1,1)"><g><path fill="none" stroke="none"></path><text fill="#000000" stroke="none" font-family="Arial" font-size="13px" font-style="normal" font-weight="bold" text-decoration="none" x="1025" y="258.5">MIIC</text></g></g><g transform="translate(-118,-206) scale(1,1)"><rect fill="#C0C0C0" stroke="none" x="937" y="447" width="110" height="44" opacity="0.2"></rect></g><g transform="translate(-118,-206) scale(1,1)"><rect fill="#d8f2ff" stroke="none" x="930" y="440" width="110" height="44"></rect></g><g transform="translate(-118,-206) scale(1,1)"><path fill="none" stroke="#000000" d="M 930 440 L 1040 440 L 1040 484 L 930 484 L 930 440 Z Z" stroke-miterlimit="10"></path></g><g transform="translate(-118,-206) scale(1,1)"><rect fill="#d8f2ff" stroke="none" x="920" y="447" width="20" height="10"></rect></g><g transform="translate(-118,-206) scale(1,1)"><path fill="none" stroke="#000000" d="M 920 447 L 940 447 L 940 457 L 920 457 L 920 447 Z Z" stroke-miterlimit="10"></path></g><g transform="translate(-118,-206) scale(1,1)"><rect fill="#d8f2ff" stroke="none" x="920" y="467" width="20" height="10"></rect></g><g transform="translate(-118,-206) scale(1,1)"><path fill="none" stroke="#000000" d="M 920 467 L 940 467 L 940 477 L 920 477 L 920 467 Z Z" stroke-miterlimit="10"></path></g><g transform="translate(-118,-206) scale(1,1)"><g><path fill="none" stroke="none"></path><text fill="#000000" stroke="none" font-family="Arial" font-size="13px" font-style="normal" font-weight="normal" text-decoration="none" x="956.5" y="457.5">«database»</text></g></g><g transform="translate(-118,-206) scale(1,1)"><g><path fill="none" stroke="none"></path><text fill="#000000" stroke="none" font-family="Arial" font-size="13px" font-style="normal" font-weight="bold" text-decoration="none" x="976.5" y="472.5">CVU</text></g></g><g transform="translate(-118,-206) scale(1,1)"><rect fill="#C0C0C0" stroke="none" x="937" y="335" width="110" height="44" opacity="0.2"></rect></g><g transform="translate(-118,-206) scale(1,1)"><rect fill="#d8f2ff" stroke="none" x="930" y="328" width="110" height="44"></rect></g><g transform="translate(-118,-206) scale(1,1)"><path fill="none" stroke="#000000" d="M 930 328 L 1040 328 L 1040 372 L 930 372 L 930 328 Z Z" stroke-miterlimit="10"></path></g><g transform="translate(-118,-206) scale(1,1)"><rect fill="#d8f2ff" stroke="none" x="920" y="335" width="20" height="10"></rect></g><g transform="translate(-118,-206) scale(1,1)"><path fill="none" stroke="#000000" d="M 920 335 L 940 335 L 940 345 L 920 345 L 920 335 Z Z" stroke-miterlimit="10"></path></g><g transform="translate(-118,-206) scale(1,1)"><rect fill="#d8f2ff" stroke="none" x="920" y="355" width="20" height="10"></rect></g><g transform="translate(-118,-206) scale(1,1)"><path fill="none" stroke="#000000" d="M 920 355 L 940 355 L 940 365 L 920 365 L 920 355 Z Z" stroke-miterlimit="10"></path></g><g transform="translate(-118,-206) scale(1,1)"><g><path fill="none" stroke="none"></path><text fill="#000000" stroke="none" font-family="Arial" font-size="13px" font-style="normal" font-weight="normal" text-decoration="none" x="956.5" y="345.5">«database»</text></g></g><g transform="translate(-118,-206) scale(1,1)"><g><path fill="none" stroke="none"></path><text fill="#000000" stroke="none" font-family="Arial" font-size="13px" font-style="normal" font-weight="bold" text-decoration="none" x="972" y="360.5">RCEA</text></g></g><g transform="translate(-118,-206) scale(1,1)"><rect fill="#C0C0C0" stroke="none" x="937" y="391" width="110" height="44" opacity="0.2"></rect></g><g transform="translate(-118,-206) scale(1,1)"><rect fill="#d8f2ff" stroke="none" x="930" y="384" width="110" height="44"></rect></g><g transform="translate(-118,-206) scale(1,1)"><path fill="none" stroke="#000000" d="M 930 384 L 1040 384 L 1040 428 L 930 428 L 930 384 Z Z" stroke-miterlimit="10"></path></g><g transform="translate(-118,-206) scale(1,1)"><rect fill="#d8f2ff" stroke="none" x="920" y="391" width="20" height="10"></rect></g><g transform="translate(-118,-206) scale(1,1)"><path fill="none" stroke="#000000" d="M 920 391 L 940 391 L 940 401 L 920 401 L 920 391 Z Z" stroke-miterlimit="10"></path></g><g transform="translate(-118,-206) scale(1,1)"><rect fill="#d8f2ff" stroke="none" x="920" y="411" width="20" height="10"></rect></g><g transform="translate(-118,-206) scale(1,1)"><path fill="none" stroke="#000000" d="M 920 411 L 940 411 L 940 421 L 920 421 L 920 411 Z Z" stroke-miterlimit="10"></path></g><g transform="translate(-118,-206) scale(1,1)"><g><path fill="none" stroke="none"></path><text fill="#000000" stroke="none" font-family="Arial" font-size="13px" font-style="normal" font-weight="normal" text-decoration="none" x="956.5" y="401.5">«database»</text></g></g><g transform="translate(-118,-206) scale(1,1)"><g><path fill="none" stroke="none"></path><text fill="#000000" stroke="none" font-family="Arial" font-size="13px" font-style="normal" font-weight="bold" text-decoration="none" x="958" y="416.5">RENIECyT</text></g></g><g transform="translate(-118,-206) scale(1,1)"><rect fill="#C0C0C0" stroke="none" x="937" y="271" width="110.01904296875" height="50" opacity="0.2"></rect></g><g transform="translate(-118,-206) scale(1,1)"><rect fill="#d8f2ff" stroke="none" x="930" y="264" width="110.01904296875" height="50"></rect></g><g transform="translate(-118,-206) scale(1,1)"><path fill="none" stroke="#000000" d="M 930 264 L 1040.01904296875 264 L 1040.01904296875 314 L 930 314 L 930 264 Z Z" stroke-miterlimit="10"></path></g><g transform="translate(-118,-206) scale(1,1)"><rect fill="#d8f2ff" stroke="none" x="920" y="271" width="20" height="10"></rect></g><g transform="translate(-118,-206) scale(1,1)"><path fill="none" stroke="#000000" d="M 920 271 L 940 271 L 940 281 L 920 281 L 920 271 Z Z" stroke-miterlimit="10"></path></g><g transform="translate(-118,-206) scale(1,1)"><rect fill="#d8f2ff" stroke="none" x="920" y="291" width="20" height="10"></rect></g><g transform="translate(-118,-206) scale(1,1)"><path fill="none" stroke="#000000" d="M 920 291 L 940 291 L 940 301 L 920 301 L 920 291 Z Z" stroke-miterlimit="10"></path></g><g transform="translate(-118,-206) scale(1,1)"><g><path fill="none" stroke="none"></path><text fill="#000000" stroke="none" font-family="Arial" font-size="13px" font-style="normal" font-weight="normal" text-decoration="none" x="956.509521484375" y="281.5">«database»</text></g></g><g transform="translate(-118,-206) scale(1,1)"><g><path fill="none" stroke="none"></path><text fill="#000000" stroke="none" font-family="Arial" font-size="13px" font-style="normal" font-weight="bold" text-decoration="none" x="961.009521484375" y="296.5">Catálogos</text><text fill="#000000" stroke="none" font-family="Arial" font-size="13px" font-style="normal" font-weight="bold" text-decoration="none" x="948.009521484375" y="309.5">Institucionales</text></g></g><g transform="translate(-118,-206) scale(1,1)"><rect fill="#C0C0C0" stroke="none" x="1073" y="503" width="110" height="50" opacity="0.2"></rect></g><g transform="translate(-118,-206) scale(1,1)"><rect fill="#d8f2ff" stroke="none" x="1066" y="496" width="110" height="50"></rect></g><g transform="translate(-118,-206) scale(1,1)"><path fill="none" stroke="#000000" d="M 1066 496 L 1176 496 L 1176 546 L 1066 546 L 1066 496 Z Z" stroke-miterlimit="10"></path></g><g transform="translate(-118,-206) scale(1,1)"><rect fill="#d8f2ff" stroke="none" x="1056" y="503" width="20" height="10"></rect></g><g transform="translate(-118,-206) scale(1,1)"><path fill="none" stroke="#000000" d="M 1056 503 L 1076 503 L 1076 513 L 1056 513 L 1056 503 Z Z" stroke-miterlimit="10"></path></g><g transform="translate(-118,-206) scale(1,1)"><rect fill="#d8f2ff" stroke="none" x="1056" y="523" width="20" height="10"></rect></g><g transform="translate(-118,-206) scale(1,1)"><path fill="none" stroke="#000000" d="M 1056 523 L 1076 523 L 1076 533 L 1056 533 L 1056 523 Z Z" stroke-miterlimit="10"></path></g><g transform="translate(-118,-206) scale(1,1)"><g><path fill="none" stroke="none"></path><text fill="#000000" stroke="none" font-family="Arial" font-size="13px" font-style="normal" font-weight="normal" text-decoration="none" x="1092.5" y="513.5">«database»</text></g></g><g transform="translate(-118,-206) scale(1,1)"><g><path fill="none" stroke="none"></path><text fill="#000000" stroke="none" font-family="Arial" font-size="13px" font-style="normal" font-weight="bold" text-decoration="none" x="1097" y="528.5">Seguridad</text><text fill="#000000" stroke="none" font-family="Arial" font-size="13px" font-style="normal" font-weight="bold" text-decoration="none" x="1097.5" y="541.5">Aplicativa</text></g></g><g transform="translate(-118,-206) scale(1,1)"><path fill="none" stroke="#000000" d="M 312 312 L 264 312" stroke-miterlimit="10" stroke-dasharray="3"></path></g><g transform="translate(-118,-206) scale(1,1)"><path fill="none" stroke="#000000" d="M 274.16267485762415 307.790482243984 L 264 312 L 274.16267485762415 316.209517756016" stroke-miterlimit="10"></path></g><g transform="translate(-118,-206) scale(1,1)"><path fill="none" stroke="#000000" d="M 312 400 L 264 400" stroke-miterlimit="10" stroke-dasharray="3"></path></g><g transform="translate(-118,-206) scale(1,1)"><path fill="none" stroke="#000000" d="M 274.16267485762415 395.790482243984 L 264 400 L 274.16267485762415 404.209517756016" stroke-miterlimit="10"></path></g><g transform="translate(-118,-206) scale(1,1)"><path fill="none" stroke="#000000" d="M 204 512 L 204 428" stroke-miterlimit="10" stroke-dasharray="3"></path></g><g transform="translate(-118,-206) scale(1,1)"><path fill="none" stroke="#000000" d="M 208.209517756016 438.16267485762415 L 204 428 L 199.790482243984 438.16267485762415" stroke-miterlimit="10"></path></g><g transform="translate(-118,-206) scale(1,1)"><path fill="none" stroke="#000000" d="M 264 536 L 344 536 M 344 536 A 8 8 0 0 0 352 528 L 352 506" stroke-miterlimit="10" stroke-dasharray="3"></path></g><g transform="translate(-118,-206) scale(1,1)"><path fill="none" stroke="#000000" d="M 356.209517756016 516.1626748576241 L 352 506 L 347.790482243984 516.1626748576241" stroke-miterlimit="10"></path></g><g transform="translate(-118,-206) scale(1,1)"><path fill="none" stroke="#000000" d="M 313 417 L 228 511" stroke-miterlimit="10" stroke-dasharray="3"></path></g><g transform="translate(-118,-206) scale(1,1)"><path fill="none" stroke="#000000" d="M 231.69387914076634 500.63876180693586 L 228 511 L 237.93846877712411 506.2854652015147" stroke-miterlimit="10"></path></g><g transform="translate(-118,-206) scale(1,1)"><path fill="none" stroke="#000000" d="M 448 688 L 394 688 M 394 688 A 8 8 0 0 1 386 680 L 386 506" stroke-miterlimit="10" stroke-dasharray="3"></path></g><g transform="translate(-118,-206) scale(1,1)"><path fill="none" stroke="#000000" d="M 390.209517756016 516.1626748576241 L 386 506 L 381.790482243984 516.1626748576241" stroke-miterlimit="10"></path></g><g transform="translate(-118,-206) scale(1,1)"><g><path fill="none" stroke="none"></path><text fill="#000000" stroke="none" font-family="Arial" font-size="13px" font-style="normal" font-weight="normal" text-decoration="none" x="310.5" y="659.5">«https:oidc»</text></g></g><g transform="translate(-118,-206) scale(1,1)"><path fill="none" stroke="#000000" d="M 552 439 L 552 457 M 552 457 A 8 8 0 0 1 544 465 L 440 465" stroke-miterlimit="10" stroke-dasharray="3"></path></g><g transform="translate(-118,-206) scale(1,1)"><path fill="none" stroke="#000000" d="M 450.16267485762415 460.790482243984 L 440 465 L 450.16267485762415 469.209517756016" stroke-miterlimit="10"></path></g><g transform="translate(-118,-206) scale(1,1)"><path fill="none" stroke="#000000" d="M 579 712 L 1108 712 M 1108 712 A 8 8 0 0 0 1116 704 L 1116 546" stroke-miterlimit="10" stroke-dasharray="3"></path></g><g transform="translate(-118,-206) scale(1,1)"><path fill="none" stroke="#000000" d="M 1120.2095177560159 556.1626748576241 L 1116 546 L 1111.7904822439841 556.1626748576241" stroke-miterlimit="10"></path></g><g transform="translate(-118,-206) scale(1,1)"><g><path fill="none" stroke="none"></path><text fill="#000000" stroke="none" font-family="Arial" font-size="13px" font-style="normal" font-weight="normal" text-decoration="none" x="843.66357421875" y="732.5">«jdbc:oracle»</text></g></g><g transform="translate(-118,-206) scale(1,1)"><path fill="none" stroke="#000000" d="M 432 392 L 472 392" stroke-miterlimit="10" stroke-dasharray="3"></path></g><g transform="translate(-118,-206) scale(1,1)"><path fill="none" stroke="#000000" d="M 461.83732514237585 396.209517756016 L 472 392 L 461.83732514237585 387.790482243984" stroke-miterlimit="10"></path></g><g transform="translate(-118,-206) scale(1,1)"><path fill="none" stroke="#000000" d="M 370 417 L 369 455" stroke-miterlimit="10" stroke-dasharray="3"></path></g><g transform="translate(-118,-206) scale(1,1)"><path fill="none" stroke="#000000" d="M 365.0592853332588 444.7301038021151 L 369 455 L 373.4754071800324 444.9515806928197" stroke-miterlimit="10"></path></g><g transform="translate(-118,-206) scale(1,1)"><path fill="none" stroke="#000000" d="M 448 720 L 239 720 M 239 720 A 8 8 0 0 1 231 712 L 231 562" stroke-miterlimit="10" stroke-dasharray="3"></path></g><g transform="translate(-118,-206) scale(1,1)"><path fill="none" stroke="#000000" d="M 235.209517756016 572.1626748576241 L 231 562 L 226.790482243984 572.1626748576241" stroke-miterlimit="10"></path></g><g transform="translate(-118,-206) scale(1,1)"><g><path fill="none" stroke="none"></path><text fill="#000000" stroke="none" font-family="Arial" font-size="13px" font-style="normal" font-weight="normal" text-decoration="none" x="309.5" y="715.5">«https:oidc»</text></g></g><g transform="translate(-118,-206) scale(1,1)"><path fill="#C0C0C0" stroke="none" d="M 671 241 L 804 241 L 804 590 L 671 590" opacity="0.2"></path></g><g transform="translate(-118,-206) scale(1,1)"><path fill="#C0C0C0" stroke="none" d="M 671 241 L 681 231 L 814 231 L 804 241" opacity="0.2"></path></g><g transform="translate(-118,-206) scale(1,1)"><path fill="#C0C0C0" stroke="none" d="M 814 231 L 804 241 L 804 590 L 814 580" opacity="0.2"></path></g><g transform="translate(-118,-206) scale(1,1)"><path fill="#d8f2ff" stroke="none" d="M 664 234 L 797 234 L 797 583 L 664 583"></path></g><g transform="translate(-118,-206) scale(1,1)"><path fill="#d8f2ff" stroke="none" d="M 664 234 L 674 224 L 807 224 L 797 234"></path></g><g transform="translate(-118,-206) scale(1,1)"><path fill="#d8f2ff" stroke="none" d="M 807 224 L 797 234 L 797 583 L 807 573"></path></g><g transform="translate(-118,-206) scale(1,1)"><path fill="none" stroke="#000000" d="M 664 234 L 797 234 L 797 583 L 664 583 L 664 234" stroke-miterlimit="10"></path></g><g transform="translate(-118,-206) scale(1,1)"><path fill="none" stroke="#000000" d="M 664 234 L 674 224 L 807 224 L 797 234 L 664 234" stroke-miterlimit="10"></path></g><g transform="translate(-118,-206) scale(1,1)"><path fill="none" stroke="#000000" d="M 807 224 L 797 234 L 797 583 L 807 573 L 807 224" stroke-miterlimit="10"></path></g><g transform="translate(-118,-206) scale(1,1)"><g><path fill="none" stroke="none"></path><text fill="#000000" stroke="none" font-family="Arial" font-size="13px" font-style="normal" font-weight="normal" text-decoration="none" x="704.5" y="251.5">«docker»</text></g></g><g transform="translate(-118,-206) scale(1,1)"><g><path fill="none" stroke="none"></path><text fill="#000000" stroke="none" font-family="Arial" font-size="13px" font-style="normal" font-weight="bold" text-decoration="none" x="682" y="266.5">Componentes de</text><text fill="#000000" stroke="none" font-family="Arial" font-size="13px" font-style="normal" font-weight="bold" text-decoration="none" x="708.5" y="279.5">Soporte</text></g></g><g transform="translate(-118,-206) scale(1,1)"><rect fill="#C0C0C0" stroke="none" x="689" y="295" width="98.44091796875" height="44" opacity="0.2"></rect></g><g transform="translate(-118,-206) scale(1,1)"><rect fill="#ffd8d8" stroke="none" x="682" y="288" width="98.44091796875" height="44"></rect></g><g transform="translate(-118,-206) scale(1,1)"><path fill="none" stroke="#000000" d="M 682 288 L 780.44091796875 288 L 780.44091796875 332 L 682 332 L 682 288 Z Z" stroke-miterlimit="10"></path></g><g transform="translate(-118,-206) scale(1,1)"><rect fill="#ffd8d8" stroke="none" x="672" y="295" width="20" height="10"></rect></g><g transform="translate(-118,-206) scale(1,1)"><path fill="none" stroke="#000000" d="M 672 295 L 692 295 L 692 305 L 672 305 L 672 295 Z Z" stroke-miterlimit="10"></path></g><g transform="translate(-118,-206) scale(1,1)"><rect fill="#ffd8d8" stroke="none" x="672" y="315" width="20" height="10"></rect></g><g transform="translate(-118,-206) scale(1,1)"><path fill="none" stroke="#000000" d="M 672 315 L 692 315 L 692 325 L 672 325 L 672 315 Z Z" stroke-miterlimit="10"></path></g><g transform="translate(-118,-206) scale(1,1)"><g><path fill="none" stroke="none"></path><text fill="#000000" stroke="none" font-family="Arial" font-size="13px" font-style="normal" font-weight="normal" text-decoration="none" x="720.720458984375" y="305.5">«api»</text></g></g><g transform="translate(-118,-206) scale(1,1)"><g><path fill="none" stroke="none"></path><text fill="#000000" stroke="none" font-family="Arial" font-size="13px" font-style="normal" font-weight="bold" text-decoration="none" x="707.220458984375" y="320.5">Catálogos</text></g></g><g transform="translate(-118,-206) scale(1,1)"><path fill="none" stroke="#000000" d="M 432 312 L 672 312" stroke-miterlimit="10" stroke-dasharray="3"></path></g><g transform="translate(-118,-206) scale(1,1)"><path fill="none" stroke="#000000" d="M 661.8373251423759 316.209517756016 L 672 312 L 661.8373251423758 307.790482243984" stroke-miterlimit="10"></path></g><g transform="translate(-118,-206) scale(1,1)"><g><path fill="none" stroke="none"></path><text fill="#000000" stroke="none" font-family="Arial" font-size="13px" font-style="normal" font-weight="normal" text-decoration="none" x="516.5" y="307.5">«https:rest»</text></g></g><g transform="translate(-118,-206) scale(1,1)"><path fill="none" stroke="#000000" d="M 728 584 L 728 680 M 728 680 A 8 8 0 0 1 720 688 L 579 688" stroke-miterlimit="10" stroke-dasharray="3"></path></g><g transform="translate(-118,-206) scale(1,1)"><path fill="none" stroke="#000000" d="M 589.1626748576241 683.790482243984 L 579 688 L 589.1626748576241 692.209517756016" stroke-miterlimit="10"></path></g><g transform="translate(-118,-206) scale(1,1)"><g><path fill="none" stroke="none"></path><text fill="#000000" stroke="none" font-family="Arial" font-size="13px" font-style="normal" font-weight="normal" text-decoration="none" x="638.5" y="682.5">«https:oidc»</text></g></g><g transform="translate(-118,-206) scale(1,1)"><path fill="none" stroke="#000000" d="M 780 456 L 920 456" stroke-miterlimit="10" stroke-dasharray="3"></path></g><g transform="translate(-118,-206) scale(1,1)"><path fill="none" stroke="#000000" d="M 909.8373251423759 460.209517756016 L 920 456 L 909.8373251423758 451.790482243984" stroke-miterlimit="10"></path></g><g transform="translate(-118,-206) scale(1,1)"><g><path fill="none" stroke="none"></path><text fill="#000000" stroke="none" font-family="Arial" font-size="13px" font-style="normal" font-weight="normal" text-decoration="none" x="811.66357421875" y="444.5">«jdbc:oracle»</text></g></g><g transform="translate(-118,-206) scale(1,1)"><path fill="none" stroke="#000000" d="M 780 288 L 920 288" stroke-miterlimit="10" stroke-dasharray="3"></path></g><g transform="translate(-118,-206) scale(1,1)"><path fill="none" stroke="#000000" d="M 909.8373251423759 292.209517756016 L 920 288 L 909.8373251423758 283.790482243984" stroke-miterlimit="10"></path></g><g transform="translate(-118,-206) scale(1,1)"><g><path fill="none" stroke="none"></path><text fill="#000000" stroke="none" font-family="Arial" font-size="13px" font-style="normal" font-weight="normal" text-decoration="none" x="811.66357421875" y="276.5">«jdbc:oracle»</text></g></g><g transform="translate(-118,-206) scale(1,1)"><path fill="none" stroke="#000000" d="M 780 408 L 920 408" stroke-miterlimit="10" stroke-dasharray="3"></path></g><g transform="translate(-118,-206) scale(1,1)"><path fill="none" stroke="#000000" d="M 909.8373251423759 412.209517756016 L 920 408 L 909.8373251423758 403.790482243984" stroke-miterlimit="10"></path></g><g transform="translate(-118,-206) scale(1,1)"><g><path fill="none" stroke="none"></path><text fill="#000000" stroke="none" font-family="Arial" font-size="13px" font-style="normal" font-weight="normal" text-decoration="none" x="811.66357421875" y="396.5">«jdbc:oracle»</text></g></g><g transform="translate(-118,-206) scale(1,1)"><path fill="none" stroke="#000000" d="M 780 360 L 920 360" stroke-miterlimit="10" stroke-dasharray="3"></path></g><g transform="translate(-118,-206) scale(1,1)"><path fill="none" stroke="#000000" d="M 909.8373251423759 364.209517756016 L 920 360 L 909.8373251423758 355.790482243984" stroke-miterlimit="10"></path></g><g transform="translate(-118,-206) scale(1,1)"><g><path fill="none" stroke="none"></path><text fill="#000000" stroke="none" font-family="Arial" font-size="13px" font-style="normal" font-weight="normal" text-decoration="none" x="815.66357421875" y="348.5">«jdbc:oracle»</text></g></g><g transform="translate(-118,-206) scale(1,1)"><rect fill="#C0C0C0" stroke="none" x="689" y="359" width="98.44091796875" height="200" opacity="0.2"></rect></g><g transform="translate(-118,-206) scale(1,1)"><rect fill="#ffd8d8" stroke="none" x="682" y="352" width="98.44091796875" height="200"></rect></g><g transform="translate(-118,-206) scale(1,1)"><path fill="none" stroke="#000000" d="M 682 352 L 780.44091796875 352 L 780.44091796875 552 L 682 552 L 682 352 Z Z" stroke-miterlimit="10"></path></g><g transform="translate(-118,-206) scale(1,1)"><rect fill="#ffd8d8" stroke="none" x="672" y="359" width="20" height="10"></rect></g><g transform="translate(-118,-206) scale(1,1)"><path fill="none" stroke="#000000" d="M 672 359 L 692 359 L 692 369 L 672 369 L 672 359 Z Z" stroke-miterlimit="10"></path></g><g transform="translate(-118,-206) scale(1,1)"><rect fill="#ffd8d8" stroke="none" x="672" y="379" width="20" height="10"></rect></g><g transform="translate(-118,-206) scale(1,1)"><path fill="none" stroke="#000000" d="M 672 379 L 692 379 L 692 389 L 672 389 L 672 379 Z Z" stroke-miterlimit="10"></path></g><g transform="translate(-118,-206) scale(1,1)"><g><path fill="none" stroke="none"></path><text fill="#000000" stroke="none" font-family="Arial" font-size="13px" font-style="normal" font-weight="bold" text-decoration="none" x="700.220458984375" y="371.5">validaciones</text></g></g><g transform="translate(-118,-206) scale(1,1)"><path fill="none" stroke="#000000" d="M 432 360 L 672 360" stroke-miterlimit="10" stroke-dasharray="3"></path></g><g transform="translate(-118,-206) scale(1,1)"><path fill="none" stroke="#000000" d="M 661.8373251423759 364.209517756016 L 672 360 L 661.8373251423758 355.790482243984" stroke-miterlimit="10"></path></g><g transform="translate(-118,-206) scale(1,1)"><g><path fill="none" stroke="none"></path><text fill="#000000" stroke="none" font-family="Arial" font-size="13px" font-style="normal" font-weight="normal" text-decoration="none" x="517.5" y="356.5">«https:rest»</text></g></g><g transform="translate(-118,-206) scale(1,1)"><rect fill="#C0C0C0" stroke="none" x="945" y="503" width="98.44091796875" height="44" opacity="0.2"></rect></g><g transform="translate(-118,-206) scale(1,1)"><rect fill="#d8f2ff" stroke="none" x="938" y="496" width="98.44091796875" height="44"></rect></g><g transform="translate(-118,-206) scale(1,1)"><path fill="none" stroke="#000000" d="M 938 496 L 1036.44091796875 496 L 1036.44091796875 540 L 938 540 L 938 496 Z Z" stroke-miterlimit="10"></path></g><g transform="translate(-118,-206) scale(1,1)"><rect fill="#d8f2ff" stroke="none" x="928" y="503" width="20" height="10"></rect></g><g transform="translate(-118,-206) scale(1,1)"><path fill="none" stroke="#000000" d="M 928 503 L 948 503 L 948 513 L 928 513 L 928 503 Z Z" stroke-miterlimit="10"></path></g><g transform="translate(-118,-206) scale(1,1)"><rect fill="#d8f2ff" stroke="none" x="928" y="523" width="20" height="10"></rect></g><g transform="translate(-118,-206) scale(1,1)"><path fill="none" stroke="#000000" d="M 928 523 L 948 523 L 948 533 L 928 533 L 928 523 Z Z" stroke-miterlimit="10"></path></g><g transform="translate(-118,-206) scale(1,1)"><g><path fill="none" stroke="none"></path><text fill="#000000" stroke="none" font-family="Arial" font-size="13px" font-style="normal" font-weight="normal" text-decoration="none" x="958.720458984375" y="513.5">«database»</text></g></g><g transform="translate(-118,-206) scale(1,1)"><g><path fill="none" stroke="none"></path><text fill="#000000" stroke="none" font-family="Arial" font-size="13px" font-style="normal" font-weight="bold" text-decoration="none" x="970.720458984375" y="528.5">SIICYT</text></g></g><g transform="translate(-118,-206) scale(1,1)"><path fill="none" stroke="#000000" d="M 780 512 L 928 512" stroke-miterlimit="10" stroke-dasharray="3"></path></g><g transform="translate(-118,-206) scale(1,1)"><path fill="none" stroke="#000000" d="M 917.8373251423759 516.209517756016 L 928 512 L 917.8373251423758 507.790482243984" stroke-miterlimit="10"></path></g><g transform="translate(-118,-206) scale(1,1)"><g><path fill="none" stroke="none"></path><text fill="#000000" stroke="none" font-family="Arial" font-size="13px" font-style="normal" font-weight="normal" text-decoration="none" x="815.66357421875" y="500.5">«jdbc:oracle»</text></g></g></g></svg>