<svg version="1.1" xmlns="http://www.w3.org/2000/svg" xmlns:xlink="http://www.w3.org/1999/xlink" width="596" height="243"><defs/><g><text fill="#eeeeee" stroke="none" font-family="Arial" font-size="24px" font-style="normal" font-weight="normal" text-decoration="none" x="0" y="0">UNREGISTERED</text><text fill="#eeeeee" stroke="none" font-family="Arial" font-size="24px" font-style="normal" font-weight="normal" text-decoration="none" x="0" y="30">UNREGISTERED</text><text fill="#eeeeee" stroke="none" font-family="Arial" font-size="24px" font-style="normal" font-weight="normal" text-decoration="none" x="0" y="60">UNREGISTERED</text><text fill="#eeeeee" stroke="none" font-family="Arial" font-size="24px" font-style="normal" font-weight="normal" text-decoration="none" x="0" y="90">UNREGISTERED</text><text fill="#eeeeee" stroke="none" font-family="Arial" font-size="24px" font-style="normal" font-weight="normal" text-decoration="none" x="0" y="120">UNREGISTERED</text><text fill="#eeeeee" stroke="none" font-family="Arial" font-size="24px" font-style="normal" font-weight="normal" text-decoration="none" x="0" y="150">UNREGISTERED</text><text fill="#eeeeee" stroke="none" font-family="Arial" font-size="24px" font-style="normal" font-weight="normal" text-decoration="none" x="0" y="180">UNREGISTERED</text><text fill="#eeeeee" stroke="none" font-family="Arial" font-size="24px" font-style="normal" font-weight="normal" text-decoration="none" x="0" y="210">UNREGISTERED</text><text fill="#eeeeee" stroke="none" font-family="Arial" font-size="24px" font-style="normal" font-weight="normal" text-decoration="none" x="0" y="240">UNREGISTERED</text><text fill="#eeeeee" stroke="none" font-family="Arial" font-size="24px" font-style="normal" font-weight="normal" text-decoration="none" x="200" y="0">UNREGISTERED</text><text fill="#eeeeee" stroke="none" font-family="Arial" font-size="24px" font-style="normal" font-weight="normal" text-decoration="none" x="200" y="30">UNREGISTERED</text><text fill="#eeeeee" stroke="none" font-family="Arial" font-size="24px" font-style="normal" font-weight="normal" text-decoration="none" x="200" y="60">UNREGISTERED</text><text fill="#eeeeee" stroke="none" font-family="Arial" font-size="24px" font-style="normal" font-weight="normal" text-decoration="none" x="200" y="90">UNREGISTERED</text><text fill="#eeeeee" stroke="none" font-family="Arial" font-size="24px" font-style="normal" font-weight="normal" text-decoration="none" x="200" y="120">UNREGISTERED</text><text fill="#eeeeee" stroke="none" font-family="Arial" font-size="24px" font-style="normal" font-weight="normal" text-decoration="none" x="200" y="150">UNREGISTERED</text><text fill="#eeeeee" stroke="none" font-family="Arial" font-size="24px" font-style="normal" font-weight="normal" text-decoration="none" x="200" y="180">UNREGISTERED</text><text fill="#eeeeee" stroke="none" font-family="Arial" font-size="24px" font-style="normal" font-weight="normal" text-decoration="none" x="200" y="210">UNREGISTERED</text><text fill="#eeeeee" stroke="none" font-family="Arial" font-size="24px" font-style="normal" font-weight="normal" text-decoration="none" x="200" y="240">UNREGISTERED</text><text fill="#eeeeee" stroke="none" font-family="Arial" font-size="24px" font-style="normal" font-weight="normal" text-decoration="none" x="400" y="0">UNREGISTERED</text><text fill="#eeeeee" stroke="none" font-family="Arial" font-size="24px" font-style="normal" font-weight="normal" text-decoration="none" x="400" y="30">UNREGISTERED</text><text fill="#eeeeee" stroke="none" font-family="Arial" font-size="24px" font-style="normal" font-weight="normal" text-decoration="none" x="400" y="60">UNREGISTERED</text><text fill="#eeeeee" stroke="none" font-family="Arial" font-size="24px" font-style="normal" font-weight="normal" text-decoration="none" x="400" y="90">UNREGISTERED</text><text fill="#eeeeee" stroke="none" font-family="Arial" font-size="24px" font-style="normal" font-weight="normal" text-decoration="none" x="400" y="120">UNREGISTERED</text><text fill="#eeeeee" stroke="none" font-family="Arial" font-size="24px" font-style="normal" font-weight="normal" text-decoration="none" x="400" y="150">UNREGISTERED</text><text fill="#eeeeee" stroke="none" font-family="Arial" font-size="24px" font-style="normal" font-weight="normal" text-decoration="none" x="400" y="180">UNREGISTERED</text><text fill="#eeeeee" stroke="none" font-family="Arial" font-size="24px" font-style="normal" font-weight="normal" text-decoration="none" x="400" y="210">UNREGISTERED</text><text fill="#eeeeee" stroke="none" font-family="Arial" font-size="24px" font-style="normal" font-weight="normal" text-decoration="none" x="400" y="240">UNREGISTERED</text><g transform="translate(-582,-78) scale(1,1)"><rect fill="#C0C0C0" stroke="none" x="767" y="95" width="144" height="104" opacity="0.2"/></g><g transform="translate(-582,-78) scale(1,1)"><rect fill="#ffffff" stroke="none" x="760" y="88" width="144" height="104"/></g><g transform="translate(-582,-78) scale(1,1)"><path fill="none" stroke="#000000" d="M 760 88 L 904 88 L 904 192 L 760 192 L 760 88 Z Z" stroke-miterlimit="10"/></g><g transform="translate(-582,-78) scale(1,1)"><g><path fill="none" stroke="none"/><text fill="#000000" stroke="none" font-family="Arial" font-size="13px" font-style="normal" font-weight="bold" text-decoration="none" x="806.34912109375" y="107.5">Proyecto</text></g></g><g transform="translate(-582,-78) scale(1,1)"><rect fill="#C0C0C0" stroke="none" x="983" y="119" width="192" height="72" opacity="0.2"/></g><g transform="translate(-582,-78) scale(1,1)"><rect fill="#c6c6c6" stroke="none" x="976" y="112" width="192" height="72"/></g><g transform="translate(-582,-78) scale(1,1)"><path fill="none" stroke="#000000" d="M 976 112 L 1168 112 L 1168 184 L 976 184 L 976 112 Z Z" stroke-miterlimit="10"/></g><g transform="translate(-582,-78) scale(1,1)"><g><path fill="none" stroke="none"/><text fill="#000000" stroke="none" font-family="Arial" font-size="13px" font-style="normal" font-weight="normal" text-decoration="none" x="1033.33642578125" y="129.5">«Asociación»</text></g></g><g transform="translate(-582,-78) scale(1,1)"><g><path fill="none" stroke="none"/><text fill="#000000" stroke="none" font-family="Arial" font-size="13px" font-style="normal" font-weight="bold" text-decoration="none" x="1002.629638671875" y="144.5">Registro de Participante</text></g></g><g transform="translate(-582,-78) scale(1,1)"><g><path fill="none" stroke="none"/><text fill="#000000" stroke="none" font-family="Arial" font-size="13px" font-style="normal" font-weight="normal" text-decoration="none" x="1027.214111328125" y="159.5">(from Proyecto)</text></g></g><g transform="translate(-582,-78) scale(1,1)"><path fill="none" stroke="#000000" d="M 904 152 L 976 152" stroke-miterlimit="10"/></g><g transform="translate(-582,-78) scale(1,1)"><path fill="none" stroke="#000000" d="M 965.8373251423759 156.209517756016 L 976 152 L 965.8373251423758 147.790482243984" stroke-miterlimit="10"/></g><g transform="translate(-582,-78) scale(1,1)"><g><path fill="none" stroke="none"/><text fill="#000000" stroke="none" font-family="Arial" font-size="13px" font-style="normal" font-weight="normal" text-decoration="none" x="944.5" y="170.5">1..*</text></g></g><g transform="translate(-582,-78) scale(1,1)"><rect fill="#C0C0C0" stroke="none" x="767" y="255" width="144" height="63" opacity="0.2"/></g><g transform="translate(-582,-78) scale(1,1)"><rect fill="#c6c6c6" stroke="none" x="760" y="248" width="144" height="63"/></g><g transform="translate(-582,-78) scale(1,1)"><path fill="none" stroke="#000000" d="M 760 248 L 904 248 L 904 311 L 760 311 L 760 248 Z Z" stroke-miterlimit="10"/></g><g transform="translate(-582,-78) scale(1,1)"><g><path fill="none" stroke="none"/><text fill="#000000" stroke="none" font-family="Arial" font-size="13px" font-style="normal" font-weight="bold" text-decoration="none" x="799.48095703125" y="267.5">Producción</text></g></g><g transform="translate(-582,-78) scale(1,1)"><path fill="none" stroke="#000000" d="M 832 193 L 832 247" stroke-miterlimit="10"/></g><g transform="translate(-582,-78) scale(1,1)"><path fill="none" stroke="#000000" d="M 827.790482243984 236.83732514237585 L 832 247 L 836.209517756016 236.83732514237585" stroke-miterlimit="10"/></g><g transform="translate(-582,-78) scale(1,1)"><g><path fill="none" stroke="none"/><text fill="#000000" stroke="none" font-family="Arial" font-size="13px" font-style="normal" font-weight="normal" text-decoration="none" x="809.5" y="231.5">1..*</text></g></g><g transform="translate(-582,-78) scale(1,1)"><rect fill="#C0C0C0" stroke="none" x="599" y="127" width="100.01904296875" height="57" opacity="0.2"/></g><g transform="translate(-582,-78) scale(1,1)"><rect fill="#c6c6c6" stroke="none" x="592" y="120" width="100.01904296875" height="57"/></g><g transform="translate(-582,-78) scale(1,1)"><path fill="none" stroke="#000000" d="M 592 120 L 692.01904296875 120 L 692.01904296875 177 L 592 177 L 592 120 Z Z" stroke-miterlimit="10"/></g><g transform="translate(-582,-78) scale(1,1)"><g><path fill="none" stroke="none"/><text fill="#000000" stroke="none" font-family="Arial" font-size="13px" font-style="normal" font-weight="normal" text-decoration="none" x="603.345947265625" y="137.5">«Asociación»</text></g></g><g transform="translate(-582,-78) scale(1,1)"><g><path fill="none" stroke="none"/><text fill="#000000" stroke="none" font-family="Arial" font-size="13px" font-style="normal" font-weight="bold" text-decoration="none" x="599.372314453125" y="152.5">Etapa Objetivo</text></g></g><g transform="translate(-582,-78) scale(1,1)"><path fill="none" stroke="#000000" d="M 760 146 L 692 146" stroke-miterlimit="10"/></g><g transform="translate(-582,-78) scale(1,1)"><path fill="none" stroke="#000000" d="M 702.1626748576241 141.790482243984 L 692 146 L 702.1626748576241 150.209517756016" stroke-miterlimit="10"/></g><g transform="translate(-582,-78) scale(1,1)"><g><path fill="none" stroke="none"/><text fill="#000000" stroke="none" font-family="Arial" font-size="13px" font-style="normal" font-weight="normal" text-decoration="none" x="703.5" y="139.5">1..*</text></g></g></g></svg>