<svg version="1.1" xmlns="http://www.w3.org/2000/svg" xmlns:xlink="http://www.w3.org/1999/xlink" width="380" height="230"><defs></defs><g><g transform="translate(-750,-78) scale(1,1)"><rect fill="#C0C0C0" stroke="none" x="767" y="95" width="144" height="104" opacity="0.2"></rect></g><g transform="translate(-750,-78) scale(1,1)"><rect fill="#ffffff" stroke="none" x="760" y="88" width="144" height="104"></rect></g><g transform="translate(-750,-78) scale(1,1)"><path fill="none" stroke="#000000" d="M 760 88 L 904 88 L 904 192 L 760 192 L 760 88 Z Z" stroke-miterlimit="10"></path></g><g transform="translate(-750,-78) scale(1,1)"><g><path fill="none" stroke="none"></path><text fill="#000000" stroke="none" font-family="Arial" font-size="13px" font-style="normal" font-weight="bold" text-decoration="none" x="806" y="107.5">Proyecto</text></g></g><g transform="translate(-750,-78) scale(1,1)"><rect fill="#C0C0C0" stroke="none" x="967" y="119" width="160" height="72" opacity="0.2"></rect></g><g transform="translate(-750,-78) scale(1,1)"><rect fill="#c6c6c6" stroke="none" x="960" y="112" width="160" height="72"></rect></g><g transform="translate(-750,-78) scale(1,1)"><path fill="none" stroke="#000000" d="M 960 112 L 1120 112 L 1120 184 L 960 184 L 960 112 Z Z" stroke-miterlimit="10"></path></g><g transform="translate(-750,-78) scale(1,1)"><g><path fill="none" stroke="none"></path><text fill="#000000" stroke="none" font-family="Arial" font-size="13px" font-style="normal" font-weight="normal" text-decoration="none" x="1001" y="129.5">«Asociación»</text></g></g><g transform="translate(-750,-78) scale(1,1)"><g><path fill="none" stroke="none"></path><text fill="#000000" stroke="none" font-family="Arial" font-size="13px" font-style="normal" font-weight="bold" text-decoration="none" x="979" y="144.5">Registro en Proyecto</text></g></g><g transform="translate(-750,-78) scale(1,1)"><g><path fill="none" stroke="none"></path><text fill="#000000" stroke="none" font-family="Arial" font-size="13px" font-style="normal" font-weight="normal" text-decoration="none" x="995" y="159.5">(from Proyecto)</text></g></g><g transform="translate(-750,-78) scale(1,1)"><rect fill="#C0C0C0" stroke="none" x="767" y="255" width="144" height="50" opacity="0.2"></rect></g><g transform="translate(-750,-78) scale(1,1)"><rect fill="#c6c6c6" stroke="none" x="760" y="248" width="144" height="50"></rect></g><g transform="translate(-750,-78) scale(1,1)"><path fill="none" stroke="#000000" d="M 760 248 L 904 248 L 904 298 L 760 298 L 760 248 Z Z" stroke-miterlimit="10"></path></g><g transform="translate(-750,-78) scale(1,1)"><g><path fill="none" stroke="none"></path><text fill="#000000" stroke="none" font-family="Arial" font-size="13px" font-style="normal" font-weight="normal" text-decoration="none" x="793" y="265.5">«Asociación»</text></g></g><g transform="translate(-750,-78) scale(1,1)"><g><path fill="none" stroke="none"></path><text fill="#000000" stroke="none" font-family="Arial" font-size="13px" font-style="normal" font-weight="bold" text-decoration="none" x="791" y="280.5">Asignación de</text><text fill="#000000" stroke="none" font-family="Arial" font-size="13px" font-style="normal" font-weight="bold" text-decoration="none" x="805" y="293.5">Actividad</text></g></g><g transform="translate(-750,-78) scale(1,1)"><path fill="none" stroke="#000000" d="M 904 152 L 960 152" stroke-miterlimit="10"></path></g><g transform="translate(-750,-78) scale(1,1)"><path fill="none" stroke="#000000" d="M 949.8373251423759 156.209517756016 L 960 152 L 949.8373251423758 147.790482243984" stroke-miterlimit="10"></path></g><g transform="translate(-750,-78) scale(1,1)"><g><path fill="none" stroke="none"></path><text fill="#000000" stroke="none" font-family="Arial" font-size="13px" font-style="normal" font-weight="normal" text-decoration="none" x="927.5" y="170.5">1..*</text></g></g><g transform="translate(-750,-78) scale(1,1)"><path fill="none" stroke="#000000" d="M 832 192 L 832 248" stroke-miterlimit="10"></path></g><g transform="translate(-750,-78) scale(1,1)"><path fill="none" stroke="#000000" d="M 827.790482243984 237.83732514237585 L 832 248 L 836.209517756016 237.83732514237585" stroke-miterlimit="10"></path></g><g transform="translate(-750,-78) scale(1,1)"><g><path fill="none" stroke="none"></path><text fill="#000000" stroke="none" font-family="Arial" font-size="13px" font-style="normal" font-weight="normal" text-decoration="none" x="808.5" y="232.5">1..*</text></g></g></g></svg>