<svg version="1.1" xmlns="http://www.w3.org/2000/svg" xmlns:xlink="http://www.w3.org/1999/xlink" width="612" height="276"><defs/><g><text fill="#eeeeee" stroke="none" font-family="Arial" font-size="24px" font-style="normal" font-weight="normal" text-decoration="none" x="0" y="0">UNREGISTERED</text><text fill="#eeeeee" stroke="none" font-family="Arial" font-size="24px" font-style="normal" font-weight="normal" text-decoration="none" x="0" y="30">UNREGISTERED</text><text fill="#eeeeee" stroke="none" font-family="Arial" font-size="24px" font-style="normal" font-weight="normal" text-decoration="none" x="0" y="60">UNREGISTERED</text><text fill="#eeeeee" stroke="none" font-family="Arial" font-size="24px" font-style="normal" font-weight="normal" text-decoration="none" x="0" y="90">UNREGISTERED</text><text fill="#eeeeee" stroke="none" font-family="Arial" font-size="24px" font-style="normal" font-weight="normal" text-decoration="none" x="0" y="120">UNREGISTERED</text><text fill="#eeeeee" stroke="none" font-family="Arial" font-size="24px" font-style="normal" font-weight="normal" text-decoration="none" x="0" y="150">UNREGISTERED</text><text fill="#eeeeee" stroke="none" font-family="Arial" font-size="24px" font-style="normal" font-weight="normal" text-decoration="none" x="0" y="180">UNREGISTERED</text><text fill="#eeeeee" stroke="none" font-family="Arial" font-size="24px" font-style="normal" font-weight="normal" text-decoration="none" x="0" y="210">UNREGISTERED</text><text fill="#eeeeee" stroke="none" font-family="Arial" font-size="24px" font-style="normal" font-weight="normal" text-decoration="none" x="0" y="240">UNREGISTERED</text><text fill="#eeeeee" stroke="none" font-family="Arial" font-size="24px" font-style="normal" font-weight="normal" text-decoration="none" x="0" y="270">UNREGISTERED</text><text fill="#eeeeee" stroke="none" font-family="Arial" font-size="24px" font-style="normal" font-weight="normal" text-decoration="none" x="200" y="0">UNREGISTERED</text><text fill="#eeeeee" stroke="none" font-family="Arial" font-size="24px" font-style="normal" font-weight="normal" text-decoration="none" x="200" y="30">UNREGISTERED</text><text fill="#eeeeee" stroke="none" font-family="Arial" font-size="24px" font-style="normal" font-weight="normal" text-decoration="none" x="200" y="60">UNREGISTERED</text><text fill="#eeeeee" stroke="none" font-family="Arial" font-size="24px" font-style="normal" font-weight="normal" text-decoration="none" x="200" y="90">UNREGISTERED</text><text fill="#eeeeee" stroke="none" font-family="Arial" font-size="24px" font-style="normal" font-weight="normal" text-decoration="none" x="200" y="120">UNREGISTERED</text><text fill="#eeeeee" stroke="none" font-family="Arial" font-size="24px" font-style="normal" font-weight="normal" text-decoration="none" x="200" y="150">UNREGISTERED</text><text fill="#eeeeee" stroke="none" font-family="Arial" font-size="24px" font-style="normal" font-weight="normal" text-decoration="none" x="200" y="180">UNREGISTERED</text><text fill="#eeeeee" stroke="none" font-family="Arial" font-size="24px" font-style="normal" font-weight="normal" text-decoration="none" x="200" y="210">UNREGISTERED</text><text fill="#eeeeee" stroke="none" font-family="Arial" font-size="24px" font-style="normal" font-weight="normal" text-decoration="none" x="200" y="240">UNREGISTERED</text><text fill="#eeeeee" stroke="none" font-family="Arial" font-size="24px" font-style="normal" font-weight="normal" text-decoration="none" x="200" y="270">UNREGISTERED</text><text fill="#eeeeee" stroke="none" font-family="Arial" font-size="24px" font-style="normal" font-weight="normal" text-decoration="none" x="400" y="0">UNREGISTERED</text><text fill="#eeeeee" stroke="none" font-family="Arial" font-size="24px" font-style="normal" font-weight="normal" text-decoration="none" x="400" y="30">UNREGISTERED</text><text fill="#eeeeee" stroke="none" font-family="Arial" font-size="24px" font-style="normal" font-weight="normal" text-decoration="none" x="400" y="60">UNREGISTERED</text><text fill="#eeeeee" stroke="none" font-family="Arial" font-size="24px" font-style="normal" font-weight="normal" text-decoration="none" x="400" y="90">UNREGISTERED</text><text fill="#eeeeee" stroke="none" font-family="Arial" font-size="24px" font-style="normal" font-weight="normal" text-decoration="none" x="400" y="120">UNREGISTERED</text><text fill="#eeeeee" stroke="none" font-family="Arial" font-size="24px" font-style="normal" font-weight="normal" text-decoration="none" x="400" y="150">UNREGISTERED</text><text fill="#eeeeee" stroke="none" font-family="Arial" font-size="24px" font-style="normal" font-weight="normal" text-decoration="none" x="400" y="180">UNREGISTERED</text><text fill="#eeeeee" stroke="none" font-family="Arial" font-size="24px" font-style="normal" font-weight="normal" text-decoration="none" x="400" y="210">UNREGISTERED</text><text fill="#eeeeee" stroke="none" font-family="Arial" font-size="24px" font-style="normal" font-weight="normal" text-decoration="none" x="400" y="240">UNREGISTERED</text><text fill="#eeeeee" stroke="none" font-family="Arial" font-size="24px" font-style="normal" font-weight="normal" text-decoration="none" x="400" y="270">UNREGISTERED</text><text fill="#eeeeee" stroke="none" font-family="Arial" font-size="24px" font-style="normal" font-weight="normal" text-decoration="none" x="600" y="0">UNREGISTERED</text><text fill="#eeeeee" stroke="none" font-family="Arial" font-size="24px" font-style="normal" font-weight="normal" text-decoration="none" x="600" y="30">UNREGISTERED</text><text fill="#eeeeee" stroke="none" font-family="Arial" font-size="24px" font-style="normal" font-weight="normal" text-decoration="none" x="600" y="60">UNREGISTERED</text><text fill="#eeeeee" stroke="none" font-family="Arial" font-size="24px" font-style="normal" font-weight="normal" text-decoration="none" x="600" y="90">UNREGISTERED</text><text fill="#eeeeee" stroke="none" font-family="Arial" font-size="24px" font-style="normal" font-weight="normal" text-decoration="none" x="600" y="120">UNREGISTERED</text><text fill="#eeeeee" stroke="none" font-family="Arial" font-size="24px" font-style="normal" font-weight="normal" text-decoration="none" x="600" y="150">UNREGISTERED</text><text fill="#eeeeee" stroke="none" font-family="Arial" font-size="24px" font-style="normal" font-weight="normal" text-decoration="none" x="600" y="180">UNREGISTERED</text><text fill="#eeeeee" stroke="none" font-family="Arial" font-size="24px" font-style="normal" font-weight="normal" text-decoration="none" x="600" y="210">UNREGISTERED</text><text fill="#eeeeee" stroke="none" font-family="Arial" font-size="24px" font-style="normal" font-weight="normal" text-decoration="none" x="600" y="240">UNREGISTERED</text><text fill="#eeeeee" stroke="none" font-family="Arial" font-size="24px" font-style="normal" font-weight="normal" text-decoration="none" x="600" y="270">UNREGISTERED</text><g transform="translate(-54,-38) scale(1,1)"><rect fill="#C0C0C0" stroke="none" x="71" y="63" width="152" height="64" opacity="0.2"/></g><g transform="translate(-54,-38) scale(1,1)"><rect fill="#ffffff" stroke="none" x="64" y="56" width="152" height="64"/></g><g transform="translate(-54,-38) scale(1,1)"><path fill="none" stroke="#000000" d="M 64 56 L 216 56 L 216 120 L 64 120 L 64 56 Z Z" stroke-miterlimit="10"/></g><g transform="translate(-54,-38) scale(1,1)"><g><path fill="none" stroke="none"/><text fill="#000000" stroke="none" font-family="Arial" font-size="13px" font-style="normal" font-weight="normal" text-decoration="none" x="106.7509765625" y="73.5">«Catálogo»</text></g></g><g transform="translate(-54,-38) scale(1,1)"><g><path fill="none" stroke="none"/><text fill="#000000" stroke="none" font-family="Arial" font-size="13px" font-style="normal" font-weight="bold" text-decoration="none" x="80.73828125" y="88.5">Etapa de la Solicitud</text></g></g><g transform="translate(-54,-38) scale(1,1)"><rect fill="#C0C0C0" stroke="none" x="319" y="55" width="136" height="256" opacity="0.2"/></g><g transform="translate(-54,-38) scale(1,1)"><rect fill="#c6c6c6" stroke="none" x="312" y="48" width="136" height="256"/></g><g transform="translate(-54,-38) scale(1,1)"><path fill="none" stroke="#000000" d="M 312 48 L 448 48 L 448 304 L 312 304 L 312 48 Z Z" stroke-miterlimit="10"/></g><g transform="translate(-54,-38) scale(1,1)"><g><path fill="none" stroke="none"/><text fill="#000000" stroke="none" font-family="Arial" font-size="13px" font-style="normal" font-weight="normal" text-decoration="none" x="341.33642578125" y="65.5">«Asociación»</text></g></g><g transform="translate(-54,-38) scale(1,1)"><g><path fill="none" stroke="none"/><text fill="#000000" stroke="none" font-family="Arial" font-size="13px" font-style="normal" font-weight="bold" text-decoration="none" x="355.7900390625" y="80.5">Persona</text><text fill="#000000" stroke="none" font-family="Arial" font-size="13px" font-style="normal" font-weight="bold" text-decoration="none" x="346.760498046875" y="93.5">Documento</text></g></g><g transform="translate(-54,-38) scale(1,1)"><rect fill="#C0C0C0" stroke="none" x="71" y="231" width="162.1962890625" height="72" opacity="0.2"/></g><g transform="translate(-54,-38) scale(1,1)"><rect fill="#ffffff" stroke="none" x="64" y="224" width="162.1962890625" height="72"/></g><g transform="translate(-54,-38) scale(1,1)"><path fill="none" stroke="#000000" d="M 64 224 L 226.1962890625 224 L 226.1962890625 296 L 64 296 L 64 224 Z Z" stroke-miterlimit="10"/></g><g transform="translate(-54,-38) scale(1,1)"><path fill="#ffffff" stroke="none" d="M 205.33883451704543 233.57999999999998 C 205.33883451704543 231.602820416 207.06587555035455 230 209.1962890625 230 C 211.32670257464545 230 213.05374360795454 231.602820416 213.05374360795454 233.57999999999998 C 213.05374360795454 235.55717958399998 211.32670257464545 237.16 209.1962890625 237.16 C 207.06587555035455 237.16 205.33883451704543 235.55717958399998 205.33883451704543 233.57999999999998 Z"/></g><g transform="translate(-54,-38) scale(1,1)"><path fill="none" stroke="#000000" d="M 205.33883451704543 233.57999999999998 C 205.33883451704543 231.602820416 207.06587555035455 230 209.1962890625 230 C 211.32670257464545 230 213.05374360795454 231.602820416 213.05374360795454 233.57999999999998 C 213.05374360795454 235.55717958399998 211.32670257464545 237.16 209.1962890625 237.16 C 207.06587555035455 237.16 205.33883451704543 235.55717958399998 205.33883451704543 233.57999999999998 Z" stroke-miterlimit="10"/></g><g transform="translate(-54,-38) scale(1,1)"><path fill="none" stroke="#000000" d="M 209.1962890625 237.16 L 209.1962890625 244.84" stroke-miterlimit="10"/></g><g transform="translate(-54,-38) scale(1,1)"><path fill="none" stroke="#000000" d="M 205.11192542613634 240.04 L 213.28065269886363 240.04" stroke-miterlimit="10"/></g><g transform="translate(-54,-38) scale(1,1)"><path fill="none" stroke="#000000" d="M 209.1962890625 244.84 L 203.5235617897727 252" stroke-miterlimit="10"/></g><g transform="translate(-54,-38) scale(1,1)"><path fill="none" stroke="#000000" d="M 209.1962890625 244.84 L 214.86901633522726 252" stroke-miterlimit="10"/></g><g transform="translate(-54,-38) scale(1,1)"><g><path fill="none" stroke="none"/><text fill="#000000" stroke="none" font-family="Arial" font-size="13px" font-style="normal" font-weight="bold" text-decoration="none" x="89.746826171875" y="243.5">Persona Física</text></g></g><g transform="translate(-54,-38) scale(1,1)"><g><path fill="none" stroke="none"/><text fill="#000000" stroke="none" font-family="Arial" font-size="13px" font-style="normal" font-weight="normal" text-decoration="none" x="84.3291015625" y="258.5">(from Seguridad)</text></g></g><g transform="translate(-54,-38) scale(1,1)"><rect fill="#C0C0C0" stroke="none" x="551" y="63" width="112" height="64" opacity="0.2"/></g><g transform="translate(-54,-38) scale(1,1)"><rect fill="#ffffff" stroke="none" x="544" y="56" width="112" height="64"/></g><g transform="translate(-54,-38) scale(1,1)"><path fill="none" stroke="#000000" d="M 544 56 L 656 56 L 656 120 L 544 120 L 544 56 Z Z" stroke-miterlimit="10"/></g><g transform="translate(-54,-38) scale(1,1)"><g><path fill="none" stroke="none"/><text fill="#000000" stroke="none" font-family="Arial" font-size="13px" font-style="normal" font-weight="normal" text-decoration="none" x="566.7509765625" y="73.5">«Catálogo»</text></g></g><g transform="translate(-54,-38) scale(1,1)"><g><path fill="none" stroke="none"/><text fill="#000000" stroke="none" font-family="Arial" font-size="13px" font-style="normal" font-weight="bold" text-decoration="none" x="555.195068359375" y="88.5">Rol de Persona</text></g></g><g transform="translate(-54,-38) scale(1,1)"><rect fill="#C0C0C0" stroke="none" x="71" y="143" width="152" height="64" opacity="0.2"/></g><g transform="translate(-54,-38) scale(1,1)"><rect fill="#ffffff" stroke="none" x="64" y="136" width="152" height="64"/></g><g transform="translate(-54,-38) scale(1,1)"><path fill="none" stroke="#000000" d="M 64 136 L 216 136 L 216 200 L 64 200 L 64 136 Z Z" stroke-miterlimit="10"/></g><g transform="translate(-54,-38) scale(1,1)"><g><path fill="none" stroke="none"/><text fill="#000000" stroke="none" font-family="Arial" font-size="13px" font-style="normal" font-weight="bold" text-decoration="none" x="89.431396484375" y="155.5">Firma Electronica</text></g></g><g transform="translate(-54,-38) scale(1,1)"><rect fill="#C0C0C0" stroke="none" x="551" y="231" width="112" height="64" opacity="0.2"/></g><g transform="translate(-54,-38) scale(1,1)"><rect fill="#fff5d8" stroke="none" x="544" y="224" width="112" height="64"/></g><g transform="translate(-54,-38) scale(1,1)"><path fill="none" stroke="#000000" d="M 544 224 L 656 224 L 656 288 L 544 288 L 544 224 Z Z" stroke-miterlimit="10"/></g><g transform="translate(-54,-38) scale(1,1)"><g><path fill="none" stroke="none"/><text fill="#000000" stroke="none" font-family="Arial" font-size="13px" font-style="normal" font-weight="bold" text-decoration="none" x="566.760498046875" y="243.5">Documento</text></g></g><g transform="translate(-54,-38) scale(1,1)"><path fill="none" stroke="#000000" d="M 448 88 L 544 88" stroke-miterlimit="10"/></g><g transform="translate(-54,-38) scale(1,1)"><path fill="none" stroke="#000000" d="M 533.8373251423759 92.20951775601598 L 544 88 L 533.8373251423758 83.79048224398402" stroke-miterlimit="10"/></g><g transform="translate(-54,-38) scale(1,1)"><g><path fill="none" stroke="none"/><text fill="#000000" stroke="none" font-family="Arial" font-size="13px" font-style="normal" font-weight="normal" text-decoration="none" x="458.74365234375" y="106.5">1..*</text></g></g><g transform="translate(-54,-38) scale(1,1)"><g><path fill="none" stroke="none"/><text fill="#000000" stroke="none" font-family="Arial" font-size="13px" font-style="normal" font-weight="normal" text-decoration="none" x="518.5" y="106.5">1</text></g></g><g transform="translate(-54,-38) scale(1,1)"><path fill="none" stroke="#000000" d="M 312 88 L 216 88" stroke-miterlimit="10"/></g><g transform="translate(-54,-38) scale(1,1)"><path fill="none" stroke="#000000" d="M 226.16267485762415 83.79048224398402 L 216 88 L 226.16267485762415 92.20951775601598" stroke-miterlimit="10"/></g><g transform="translate(-54,-38) scale(1,1)"><g><path fill="none" stroke="none"/><text fill="#000000" stroke="none" font-family="Arial" font-size="13px" font-style="normal" font-weight="normal" text-decoration="none" x="287.74365234375" y="83.5">1..*</text></g></g><g transform="translate(-54,-38) scale(1,1)"><g><path fill="none" stroke="none"/><text fill="#000000" stroke="none" font-family="Arial" font-size="13px" font-style="normal" font-weight="normal" text-decoration="none" x="233.5" y="81.5">1</text></g></g><g transform="translate(-54,-38) scale(1,1)"><path fill="none" stroke="#000000" d="M 312 173 L 216 173" stroke-miterlimit="10"/></g><g transform="translate(-54,-38) scale(1,1)"><path fill="none" stroke="#000000" d="M 226.16267485762415 168.790482243984 L 216 173 L 226.16267485762415 177.209517756016" stroke-miterlimit="10"/></g><g transform="translate(-54,-38) scale(1,1)"><g><path fill="none" stroke="none"/><text fill="#000000" stroke="none" font-family="Arial" font-size="13px" font-style="normal" font-weight="normal" text-decoration="none" x="285.885009765625" y="166.5">1</text></g></g><g transform="translate(-54,-38) scale(1,1)"><g><path fill="none" stroke="none"/><text fill="#000000" stroke="none" font-family="Arial" font-size="13px" font-style="normal" font-weight="normal" text-decoration="none" x="233.5" y="166.5">1</text></g></g><g transform="translate(-54,-38) scale(1,1)"><path fill="none" stroke="#000000" d="M 312 264 L 226 264" stroke-miterlimit="10"/></g><g transform="translate(-54,-38) scale(1,1)"><path fill="none" stroke="#000000" d="M 236.16267485762415 259.790482243984 L 226 264 L 236.16267485762415 268.209517756016" stroke-miterlimit="10"/></g><g transform="translate(-54,-38) scale(1,1)"><g><path fill="none" stroke="none"/><text fill="#000000" stroke="none" font-family="Arial" font-size="13px" font-style="normal" font-weight="normal" text-decoration="none" x="279.74365234375" y="257.5">1..*</text></g></g><g transform="translate(-54,-38) scale(1,1)"><g><path fill="none" stroke="none"/><text fill="#000000" stroke="none" font-family="Arial" font-size="13px" font-style="normal" font-weight="normal" text-decoration="none" x="243.5" y="257.5">1</text></g></g><g transform="translate(-54,-38) scale(1,1)"><path fill="none" stroke="#000000" d="M 448 264 L 544 264" stroke-miterlimit="10"/></g><g transform="translate(-54,-38) scale(1,1)"><path fill="none" stroke="#000000" d="M 533.8373251423759 268.209517756016 L 544 264 L 533.8373251423758 259.790482243984" stroke-miterlimit="10"/></g><g transform="translate(-54,-38) scale(1,1)"><g><path fill="none" stroke="none"/><text fill="#000000" stroke="none" font-family="Arial" font-size="13px" font-style="normal" font-weight="normal" text-decoration="none" x="458.74365234375" y="282.5">1..*</text></g></g><g transform="translate(-54,-38) scale(1,1)"><g><path fill="none" stroke="none"/><text fill="#000000" stroke="none" font-family="Arial" font-size="13px" font-style="normal" font-weight="normal" text-decoration="none" x="518.5" y="282.5">1</text></g></g></g></svg>