<svg version="1.1" xmlns="http://www.w3.org/2000/svg" xmlns:xlink="http://www.w3.org/1999/xlink" width="908" height="1209"><defs></defs><g><g transform="translate(-278,-118) scale(1,1)"><rect fill="#ffffff" stroke="none" x="288" y="648" width="21" height="192"></rect></g><g transform="translate(-278,-118) scale(1,1)"><path fill="none" stroke="#000000" d="M 288 648 L 309 648 L 309 840 L 288 840 L 288 648 Z Z" stroke-miterlimit="10" stroke-width="2"></path></g><g transform="translate(-278,-118) scale(1,1)"><path fill="none" stroke="#000000" d="M 1176 648 L 288 648 L 288 840 L 1176 840" stroke-miterlimit="10" stroke-width="2"></path></g><g transform="translate(-278,-118) scale(1,1)"><g><path fill="none" stroke="none" transform="translate(292,744) rotate(-90,0,0)"></path><text fill="#000000" stroke="none" font-family="Arial" font-size="13px" font-style="normal" font-weight="normal" text-decoration="none" x="-59.5" y="13">Representante Legal</text></g></g><g transform="translate(-278,-118) scale(1,1)"><rect fill="#ffffff" stroke="none" x="288" y="840" width="21" height="164.96435546875"></rect></g><g transform="translate(-278,-118) scale(1,1)"><path fill="none" stroke="#000000" d="M 288 840 L 309 840 L 309 1004.96435546875 L 288 1004.96435546875 L 288 840 Z Z" stroke-miterlimit="10" stroke-width="2"></path></g><g transform="translate(-278,-118) scale(1,1)"><path fill="none" stroke="#000000" d="M 1176 840 L 288 840 L 288 1004.96435546875 L 1176 1004.96435546875" stroke-miterlimit="10" stroke-width="2"></path></g><g transform="translate(-278,-118) scale(1,1)"><g><path fill="none" stroke="none" transform="translate(292,922.482177734375) rotate(-90,0,0)"></path><text fill="#000000" stroke="none" font-family="Arial" font-size="13px" font-style="normal" font-weight="normal" text-decoration="none" x="-72.5" y="13">Co-Responsable Técncio</text></g></g><g transform="translate(-278,-118) scale(1,1)"><rect fill="#ffffff" stroke="none" x="288" y="1008" width="21" height="160.64794921875"></rect></g><g transform="translate(-278,-118) scale(1,1)"><path fill="none" stroke="#000000" d="M 288 1008 L 309 1008 L 309 1168.64794921875 L 288 1168.64794921875 L 288 1008 Z Z" stroke-miterlimit="10" stroke-width="2"></path></g><g transform="translate(-278,-118) scale(1,1)"><path fill="none" stroke="#000000" d="M 1176 1008 L 288 1008 L 288 1168.64794921875 L 1176 1168.64794921875" stroke-miterlimit="10" stroke-width="2"></path></g><g transform="translate(-278,-118) scale(1,1)"><g><path fill="none" stroke="none" transform="translate(292,1088.323974609375) rotate(-90,0,0)"></path><text fill="#000000" stroke="none" font-family="Arial" font-size="13px" font-style="normal" font-weight="normal" text-decoration="none" x="-69.5" y="13">Co-Representante Legal</text></g></g><g transform="translate(-278,-118) scale(1,1)"><rect fill="#ffffff" stroke="none" x="288" y="128" width="21" height="520"></rect></g><g transform="translate(-278,-118) scale(1,1)"><path fill="none" stroke="#000000" d="M 288 128 L 309 128 L 309 648 L 288 648 L 288 128 Z Z" stroke-miterlimit="10" stroke-width="2"></path></g><g transform="translate(-278,-118) scale(1,1)"><path fill="none" stroke="#000000" d="M 1176 128 L 288 128 L 288 648 L 1176 648" stroke-miterlimit="10" stroke-width="2"></path></g><g transform="translate(-278,-118) scale(1,1)"><g><path fill="none" stroke="none" transform="translate(292,388) rotate(-90,0,0)"></path><text fill="#000000" stroke="none" font-family="Arial" font-size="13px" font-style="normal" font-weight="normal" text-decoration="none" x="-62.5" y="13">Responsable Técnico</text></g></g><g transform="translate(-278,-118) scale(1,1)"><path fill="#C0C0C0" stroke="none" d="M 511 168.5 C 511 163.2532944 515.2532944 159 520.5 159 C 525.7467056 159 530 163.2532944 530 168.5 C 530 173.7467056 525.7467056 178 520.5 178 C 515.2532944 178 511 173.7467056 511 168.5 Z" opacity="0.2"></path></g><g transform="translate(-278,-118) scale(1,1)"><path fill="#000000" stroke="none" d="M 504 161.5 C 504 156.2532944 508.2532944 152 513.5 152 C 518.7467056 152 523 156.2532944 523 161.5 C 523 166.7467056 518.7467056 171 513.5 171 C 508.2532944 171 504 166.7467056 504 161.5 Z"></path></g><g transform="translate(-278,-118) scale(1,1)"><path fill="#C0C0C0" stroke="none" d="M 449 215 L 581 215 Q 591 215 591 225 L 591 271 Q 591 281 581 281 L 449 281 Q 439 281 439 271 L 439 225 Q 439 215 449 215 Z" opacity="0.2"></path></g><g transform="translate(-278,-118) scale(1,1)"><path fill="#ffffff" stroke="none" d="M 442 208 L 574 208 Q 584 208 584 218 L 584 264 Q 584 274 574 274 L 442 274 Q 432 274 432 264 L 432 218 Q 432 208 442 208 Z"></path></g><g transform="translate(-278,-118) scale(1,1)"><path fill="none" stroke="#000000" d="M 442 208 L 574 208 Q 584 208 584 218 L 584 264 Q 584 274 574 274 L 442 274 Q 432 274 432 264 L 432 218 Q 432 208 442 208 Z" stroke-miterlimit="10"></path></g><g transform="translate(-278,-118) scale(1,1)"><g><path fill="none" stroke="none"></path><text fill="#000000" stroke="none" font-family="Arial" font-size="13px" font-style="normal" font-weight="normal" text-decoration="none" x="478.5" y="225.5">«pantalla»</text></g></g><g transform="translate(-278,-118) scale(1,1)"><g><path fill="none" stroke="none"></path><text fill="#000000" stroke="none" font-family="Arial" font-size="13px" font-style="normal" font-weight="bold" text-decoration="none" x="463" y="240.5">Registrar Datos</text><text fill="#000000" stroke="none" font-family="Arial" font-size="13px" font-style="normal" font-weight="bold" text-decoration="none" x="478.5" y="253.5">Generales</text></g></g><g transform="translate(-278,-118) scale(1,1)"><path fill="none" stroke="#000000" d="M 512 171 L 512 208" stroke-miterlimit="10"></path></g><g transform="translate(-278,-118) scale(1,1)"><path fill="none" stroke="#000000" d="M 507.790482243984 197.83732514237585 L 512 208 L 516.209517756016 197.83732514237585" stroke-miterlimit="10"></path></g><g transform="translate(-278,-118) scale(1,1)"><path fill="#C0C0C0" stroke="none" d="M 649 215 L 781 215 Q 791 215 791 225 L 791 271 Q 791 281 781 281 L 649 281 Q 639 281 639 271 L 639 225 Q 639 215 649 215 Z" opacity="0.2"></path></g><g transform="translate(-278,-118) scale(1,1)"><path fill="#ffffff" stroke="none" d="M 642 208 L 774 208 Q 784 208 784 218 L 784 264 Q 784 274 774 274 L 642 274 Q 632 274 632 264 L 632 218 Q 632 208 642 208 Z"></path></g><g transform="translate(-278,-118) scale(1,1)"><path fill="none" stroke="#000000" d="M 642 208 L 774 208 Q 784 208 784 218 L 784 264 Q 784 274 774 274 L 642 274 Q 632 274 632 264 L 632 218 Q 632 208 642 208 Z" stroke-miterlimit="10"></path></g><g transform="translate(-278,-118) scale(1,1)"><g><path fill="none" stroke="none"></path><text fill="#000000" stroke="none" font-family="Arial" font-size="13px" font-style="normal" font-weight="normal" text-decoration="none" x="678.5" y="225.5">«pantalla»</text></g></g><g transform="translate(-278,-118) scale(1,1)"><g><path fill="none" stroke="none"></path><text fill="#000000" stroke="none" font-family="Arial" font-size="13px" font-style="normal" font-weight="bold" text-decoration="none" x="654" y="240.5">Registrar Datos de</text><text fill="#000000" stroke="none" font-family="Arial" font-size="13px" font-style="normal" font-weight="bold" text-decoration="none" x="678.5" y="253.5">Propuesta</text></g></g><g transform="translate(-278,-118) scale(1,1)"><path fill="#C0C0C0" stroke="none" d="M 649 311 L 781 311 Q 791 311 791 321 L 791 367 Q 791 377 781 377 L 649 377 Q 639 377 639 367 L 639 321 Q 639 311 649 311 Z" opacity="0.2"></path></g><g transform="translate(-278,-118) scale(1,1)"><path fill="#ffffff" stroke="none" d="M 642 304 L 774 304 Q 784 304 784 314 L 784 360 Q 784 370 774 370 L 642 370 Q 632 370 632 360 L 632 314 Q 632 304 642 304 Z"></path></g><g transform="translate(-278,-118) scale(1,1)"><path fill="none" stroke="#000000" d="M 642 304 L 774 304 Q 784 304 784 314 L 784 360 Q 784 370 774 370 L 642 370 Q 632 370 632 360 L 632 314 Q 632 304 642 304 Z" stroke-miterlimit="10"></path></g><g transform="translate(-278,-118) scale(1,1)"><g><path fill="none" stroke="none"></path><text fill="#000000" stroke="none" font-family="Arial" font-size="13px" font-style="normal" font-weight="normal" text-decoration="none" x="678.5" y="321.5">«pantalla»</text></g></g><g transform="translate(-278,-118) scale(1,1)"><g><path fill="none" stroke="none"></path><text fill="#000000" stroke="none" font-family="Arial" font-size="13px" font-style="normal" font-weight="bold" text-decoration="none" x="652.5" y="336.5">Registrar Sujeto de</text><text fill="#000000" stroke="none" font-family="Arial" font-size="13px" font-style="normal" font-weight="bold" text-decoration="none" x="689.5" y="349.5">Apoyo</text></g></g><g transform="translate(-278,-118) scale(1,1)"><path fill="#C0C0C0" stroke="none" d="M 449 311 L 581 311 Q 591 311 591 321 L 591 367 Q 591 377 581 377 L 449 377 Q 439 377 439 367 L 439 321 Q 439 311 449 311 Z" opacity="0.2"></path></g><g transform="translate(-278,-118) scale(1,1)"><path fill="#ffffff" stroke="none" d="M 442 304 L 574 304 Q 584 304 584 314 L 584 360 Q 584 370 574 370 L 442 370 Q 432 370 432 360 L 432 314 Q 432 304 442 304 Z"></path></g><g transform="translate(-278,-118) scale(1,1)"><path fill="none" stroke="#000000" d="M 442 304 L 574 304 Q 584 304 584 314 L 584 360 Q 584 370 574 370 L 442 370 Q 432 370 432 360 L 432 314 Q 432 304 442 304 Z" stroke-miterlimit="10"></path></g><g transform="translate(-278,-118) scale(1,1)"><g><path fill="none" stroke="none"></path><text fill="#000000" stroke="none" font-family="Arial" font-size="13px" font-style="normal" font-weight="normal" text-decoration="none" x="478.5" y="321.5">«pantalla»</text></g></g><g transform="translate(-278,-118) scale(1,1)"><g><path fill="none" stroke="none"></path><text fill="#000000" stroke="none" font-family="Arial" font-size="13px" font-style="normal" font-weight="bold" text-decoration="none" x="482" y="336.5">Registrar</text><text fill="#000000" stroke="none" font-family="Arial" font-size="13px" font-style="normal" font-weight="bold" text-decoration="none" x="457" y="349.5">Co-Responsables</text></g></g><g transform="translate(-278,-118) scale(1,1)"><path fill="#C0C0C0" stroke="none" d="M 449 415 L 581 415 Q 591 415 591 425 L 591 471 Q 591 481 581 481 L 449 481 Q 439 481 439 471 L 439 425 Q 439 415 449 415 Z" opacity="0.2"></path></g><g transform="translate(-278,-118) scale(1,1)"><path fill="#ffffff" stroke="none" d="M 442 408 L 574 408 Q 584 408 584 418 L 584 464 Q 584 474 574 474 L 442 474 Q 432 474 432 464 L 432 418 Q 432 408 442 408 Z"></path></g><g transform="translate(-278,-118) scale(1,1)"><path fill="none" stroke="#000000" d="M 442 408 L 574 408 Q 584 408 584 418 L 584 464 Q 584 474 574 474 L 442 474 Q 432 474 432 464 L 432 418 Q 432 408 442 408 Z" stroke-miterlimit="10"></path></g><g transform="translate(-278,-118) scale(1,1)"><g><path fill="none" stroke="none"></path><text fill="#000000" stroke="none" font-family="Arial" font-size="13px" font-style="normal" font-weight="normal" text-decoration="none" x="478.5" y="425.5">«pantalla»</text></g></g><g transform="translate(-278,-118) scale(1,1)"><g><path fill="none" stroke="none"></path><text fill="#000000" stroke="none" font-family="Arial" font-size="13px" font-style="normal" font-weight="bold" text-decoration="none" x="442" y="440.5">Registrar Participantes</text></g></g><g transform="translate(-278,-118) scale(1,1)"><path fill="#C0C0C0" stroke="none" d="M 649 415 L 781 415 Q 791 415 791 425 L 791 471 Q 791 481 781 481 L 649 481 Q 639 481 639 471 L 639 425 Q 639 415 649 415 Z" opacity="0.2"></path></g><g transform="translate(-278,-118) scale(1,1)"><path fill="#ffffff" stroke="none" d="M 642 408 L 774 408 Q 784 408 784 418 L 784 464 Q 784 474 774 474 L 642 474 Q 632 474 632 464 L 632 418 Q 632 408 642 408 Z"></path></g><g transform="translate(-278,-118) scale(1,1)"><path fill="none" stroke="#000000" d="M 642 408 L 774 408 Q 784 408 784 418 L 784 464 Q 784 474 774 474 L 642 474 Q 632 474 632 464 L 632 418 Q 632 408 642 408 Z" stroke-miterlimit="10"></path></g><g transform="translate(-278,-118) scale(1,1)"><g><path fill="none" stroke="none"></path><text fill="#000000" stroke="none" font-family="Arial" font-size="13px" font-style="normal" font-weight="normal" text-decoration="none" x="678.5" y="425.5">«pantalla»</text></g></g><g transform="translate(-278,-118) scale(1,1)"><g><path fill="none" stroke="none"></path><text fill="#000000" stroke="none" font-family="Arial" font-size="13px" font-style="normal" font-weight="bold" text-decoration="none" x="649.5" y="440.5">Registrar Calendario</text><text fill="#000000" stroke="none" font-family="Arial" font-size="13px" font-style="normal" font-weight="bold" text-decoration="none" x="665" y="453.5">de Actividades</text></g></g><g transform="translate(-278,-118) scale(1,1)"><path fill="none" stroke="#000000" d="M 1000 512 L 1000 481" stroke-miterlimit="10"></path></g><g transform="translate(-278,-118) scale(1,1)"><path fill="none" stroke="#000000" d="M 1004.209517756016 491.16267485762415 L 1000 481 L 995.790482243984 491.16267485762415" stroke-miterlimit="10"></path></g><g transform="translate(-278,-118) scale(1,1)"><path fill="none" stroke="#000000" d="M 584 248 L 632 248" stroke-miterlimit="10"></path></g><g transform="translate(-278,-118) scale(1,1)"><path fill="none" stroke="#000000" d="M 621.8373251423759 252.209517756016 L 632 248 L 621.8373251423758 243.790482243984" stroke-miterlimit="10"></path></g><g transform="translate(-278,-118) scale(1,1)"><path fill="none" stroke="#000000" d="M 696 274 L 696 304" stroke-miterlimit="10"></path></g><g transform="translate(-278,-118) scale(1,1)"><path fill="none" stroke="#000000" d="M 691.790482243984 293.83732514237585 L 696 304 L 700.209517756016 293.83732514237585" stroke-miterlimit="10"></path></g><g transform="translate(-278,-118) scale(1,1)"><path fill="none" stroke="#000000" d="M 516 370 L 516 408" stroke-miterlimit="10"></path></g><g transform="translate(-278,-118) scale(1,1)"><path fill="none" stroke="#000000" d="M 511.790482243984 397.83732514237585 L 516 408 L 520.209517756016 397.83732514237585" stroke-miterlimit="10"></path></g><g transform="translate(-278,-118) scale(1,1)"><path fill="none" stroke="#000000" d="M 632 352 L 584 352" stroke-miterlimit="10"></path></g><g transform="translate(-278,-118) scale(1,1)"><path fill="none" stroke="#000000" d="M 594.1626748576241 347.790482243984 L 584 352 L 594.1626748576241 356.209517756016" stroke-miterlimit="10"></path></g><g transform="translate(-278,-118) scale(1,1)"><path fill="none" stroke="#000000" d="M 584 432 L 632 432" stroke-miterlimit="10"></path></g><g transform="translate(-278,-118) scale(1,1)"><path fill="none" stroke="#000000" d="M 621.8373251423759 436.209517756016 L 632 432 L 621.8373251423758 427.790482243984" stroke-miterlimit="10"></path></g><g transform="translate(-278,-118) scale(1,1)"><path fill="none" stroke="#000000" d="M 704 474 L 704 504" stroke-miterlimit="10"></path></g><g transform="translate(-278,-118) scale(1,1)"><path fill="none" stroke="#000000" d="M 699.790482243984 493.83732514237585 L 704 504 L 708.209517756016 493.83732514237585" stroke-miterlimit="10"></path></g><g transform="translate(-278,-118) scale(1,1)"><path fill="#C0C0C0" stroke="none" d="M 434 631 L 1148 631 Q 1151 631 1151 634 L 1151 633 Q 1151 636 1148 636 L 434 636 Q 431 636 431 633 L 431 634 Q 431 631 434 631 Z" opacity="0.2"></path></g><g transform="translate(-278,-118) scale(1,1)"><path fill="#000000" stroke="none" d="M 427 624 L 1141 624 Q 1144 624 1144 627 L 1144 627 Q 1144 630 1141 630 L 427 630 Q 424 630 424 627 L 424 627 Q 424 624 427 624 Z"></path></g><g transform="translate(-278,-118) scale(1,1)"><path fill="none" stroke="#000000" d="M 640 536 L 527 536 M 527 536 A 8 8 0 0 0 519 544 L 519 624" stroke-miterlimit="10"></path></g><g transform="translate(-278,-118) scale(1,1)"><path fill="none" stroke="#000000" d="M 514.790482243984 613.8373251423759 L 519 624 L 523.209517756016 613.8373251423759" stroke-miterlimit="10"></path></g><g transform="translate(-278,-118) scale(1,1)"><path fill="#C0C0C0" stroke="none" d="M 434 1319 L 1028 1319 Q 1031 1319 1031 1322 L 1031 1321 Q 1031 1324 1028 1324 L 434 1324 Q 431 1324 431 1321 L 431 1322 Q 431 1319 434 1319 Z" opacity="0.2"></path></g><g transform="translate(-278,-118) scale(1,1)"><path fill="#000000" stroke="none" d="M 427 1312 L 1021 1312 Q 1024 1312 1024 1315 L 1024 1315 Q 1024 1318 1021 1318 L 427 1318 Q 424 1318 424 1315 L 424 1315 Q 424 1312 427 1312 Z"></path></g><g transform="translate(-278,-118) scale(1,1)"><path fill="none" stroke="#000000" d="M 1008 1312 L 1008 581" stroke-miterlimit="10"></path></g><g transform="translate(-278,-118) scale(1,1)"><path fill="none" stroke="#000000" d="M 1012.209517756016 591.1626748576241 L 1008 581 L 1003.790482243984 591.1626748576241" stroke-miterlimit="10"></path></g><g transform="translate(-278,-118) scale(1,1)"><path fill="#C0C0C0" stroke="none" d="M 409 735 L 525 735 Q 535 735 535 745 L 535 791 Q 535 801 525 801 L 409 801 Q 399 801 399 791 L 399 745 Q 399 735 409 735 Z" opacity="0.2"></path></g><g transform="translate(-278,-118) scale(1,1)"><path fill="#ffffff" stroke="none" d="M 402 728 L 518 728 Q 528 728 528 738 L 528 784 Q 528 794 518 794 L 402 794 Q 392 794 392 784 L 392 738 Q 392 728 402 728 Z"></path></g><g transform="translate(-278,-118) scale(1,1)"><path fill="none" stroke="#000000" d="M 402 728 L 518 728 Q 528 728 528 738 L 528 784 Q 528 794 518 794 L 402 794 Q 392 794 392 784 L 392 738 Q 392 728 402 728 Z" stroke-miterlimit="10"></path></g><g transform="translate(-278,-118) scale(1,1)"><g><path fill="none" stroke="none"></path><text fill="#000000" stroke="none" font-family="Arial" font-size="13px" font-style="normal" font-weight="normal" text-decoration="none" x="430.5" y="745.5">«pantalla»</text></g></g><g transform="translate(-278,-118) scale(1,1)"><g><path fill="none" stroke="none"></path><text fill="#000000" stroke="none" font-family="Arial" font-size="13px" font-style="normal" font-weight="bold" text-decoration="none" x="415" y="760.5">Firmar Carta de</text><text fill="#000000" stroke="none" font-family="Arial" font-size="13px" font-style="normal" font-weight="bold" text-decoration="none" x="405.5" y="773.5">Postulación Oficial</text></g></g><g transform="translate(-278,-118) scale(1,1)"><path fill="#C0C0C0" stroke="none" d="M 553 871 L 669 871 Q 679 871 679 881 L 679 927 Q 679 937 669 937 L 553 937 Q 543 937 543 927 L 543 881 Q 543 871 553 871 Z" opacity="0.2"></path></g><g transform="translate(-278,-118) scale(1,1)"><path fill="#ffffff" stroke="none" d="M 546 864 L 662 864 Q 672 864 672 874 L 672 920 Q 672 930 662 930 L 546 930 Q 536 930 536 920 L 536 874 Q 536 864 546 864 Z"></path></g><g transform="translate(-278,-118) scale(1,1)"><path fill="none" stroke="#000000" d="M 546 864 L 662 864 Q 672 864 672 874 L 672 920 Q 672 930 662 930 L 546 930 Q 536 930 536 920 L 536 874 Q 536 864 546 864 Z" stroke-miterlimit="10"></path></g><g transform="translate(-278,-118) scale(1,1)"><g><path fill="none" stroke="none"></path><text fill="#000000" stroke="none" font-family="Arial" font-size="13px" font-style="normal" font-weight="normal" text-decoration="none" x="574.5" y="881.5">«pantalla»</text></g></g><g transform="translate(-278,-118) scale(1,1)"><g><path fill="none" stroke="none"></path><text fill="#000000" stroke="none" font-family="Arial" font-size="13px" font-style="normal" font-weight="bold" text-decoration="none" x="561" y="896.5">Firma Carta de</text><text fill="#000000" stroke="none" font-family="Arial" font-size="13px" font-style="normal" font-weight="bold" text-decoration="none" x="565" y="909.5">Pariticipación</text></g></g><g transform="translate(-278,-118) scale(1,1)"><path fill="none" stroke="#000000" d="M 600 629 L 600 864" stroke-miterlimit="10"></path></g><g transform="translate(-278,-118) scale(1,1)"><path fill="none" stroke="#000000" d="M 595.790482243984 853.8373251423759 L 600 864 L 604.209517756016 853.8373251423759" stroke-miterlimit="10"></path></g><g transform="translate(-278,-118) scale(1,1)"><path fill="none" stroke="#000000" d="M 600 930 L 600 1312" stroke-miterlimit="10"></path></g><g transform="translate(-278,-118) scale(1,1)"><path fill="none" stroke="#000000" d="M 595.790482243984 1301.837325142376 L 600 1312 L 604.209517756016 1301.837325142376" stroke-miterlimit="10"></path></g><g transform="translate(-278,-118) scale(1,1)"><path fill="#C0C0C0" stroke="none" d="M 697 1031 L 805 1031 Q 815 1031 815 1041 L 815 1100 Q 815 1110 805 1110 L 697 1110 Q 687 1110 687 1100 L 687 1041 Q 687 1031 697 1031 Z" opacity="0.2"></path></g><g transform="translate(-278,-118) scale(1,1)"><path fill="#ffffff" stroke="none" d="M 690 1024 L 798 1024 Q 808 1024 808 1034 L 808 1093 Q 808 1103 798 1103 L 690 1103 Q 680 1103 680 1093 L 680 1034 Q 680 1024 690 1024 Z"></path></g><g transform="translate(-278,-118) scale(1,1)"><path fill="none" stroke="#000000" d="M 690 1024 L 798 1024 Q 808 1024 808 1034 L 808 1093 Q 808 1103 798 1103 L 690 1103 Q 680 1103 680 1093 L 680 1034 Q 680 1024 690 1024 Z" stroke-miterlimit="10"></path></g><g transform="translate(-278,-118) scale(1,1)"><g><path fill="none" stroke="none"></path><text fill="#000000" stroke="none" font-family="Arial" font-size="13px" font-style="normal" font-weight="normal" text-decoration="none" x="714.5" y="1041.5">«pantalla»</text></g></g><g transform="translate(-278,-118) scale(1,1)"><g><path fill="none" stroke="none"></path><text fill="#000000" stroke="none" font-family="Arial" font-size="13px" font-style="normal" font-weight="bold" text-decoration="none" x="701" y="1056.5">Firma Carta de</text><text fill="#000000" stroke="none" font-family="Arial" font-size="13px" font-style="normal" font-weight="bold" text-decoration="none" x="725.5" y="1069.5">Apoyo</text><text fill="#000000" stroke="none" font-family="Arial" font-size="13px" font-style="normal" font-weight="bold" text-decoration="none" x="709" y="1082.5">Institucional</text></g></g><g transform="translate(-278,-118) scale(1,1)"><path fill="none" stroke="#000000" d="M 744 1103 L 744 1312" stroke-miterlimit="10"></path></g><g transform="translate(-278,-118) scale(1,1)"><path fill="none" stroke="#000000" d="M 739.790482243984 1301.837325142376 L 744 1312 L 748.209517756016 1301.837325142376" stroke-miterlimit="10"></path></g><g transform="translate(-278,-118) scale(1,1)"><path fill="none" stroke="#000000" d="M 456 794 L 456 1312" stroke-miterlimit="10"></path></g><g transform="translate(-278,-118) scale(1,1)"><path fill="none" stroke="#000000" d="M 451.790482243984 1301.837325142376 L 456 1312 L 460.209517756016 1301.837325142376" stroke-miterlimit="10"></path></g><g transform="translate(-278,-118) scale(1,1)"><path fill="#C0C0C0" stroke="none" d="M 657 511 L 789 511 Q 799 511 799 521 L 799 580 Q 799 590 789 590 L 657 590 Q 647 590 647 580 L 647 521 Q 647 511 657 511 Z" opacity="0.2"></path></g><g transform="translate(-278,-118) scale(1,1)"><path fill="#ffffff" stroke="none" d="M 650 504 L 782 504 Q 792 504 792 514 L 792 573 Q 792 583 782 583 L 650 583 Q 640 583 640 573 L 640 514 Q 640 504 650 504 Z"></path></g><g transform="translate(-278,-118) scale(1,1)"><path fill="none" stroke="#000000" d="M 650 504 L 782 504 Q 792 504 792 514 L 792 573 Q 792 583 782 583 L 650 583 Q 640 583 640 573 L 640 514 Q 640 504 650 504 Z" stroke-miterlimit="10"></path></g><g transform="translate(-278,-118) scale(1,1)"><g><path fill="none" stroke="none"></path><text fill="#000000" stroke="none" font-family="Arial" font-size="13px" font-style="normal" font-weight="normal" text-decoration="none" x="686.5" y="521.5">«pantalla»</text></g></g><g transform="translate(-278,-118) scale(1,1)"><g><path fill="none" stroke="none"></path><text fill="#000000" stroke="none" font-family="Arial" font-size="13px" font-style="normal" font-weight="bold" text-decoration="none" x="671.5" y="536.5">Crear Desglose</text><text fill="#000000" stroke="none" font-family="Arial" font-size="13px" font-style="normal" font-weight="bold" text-decoration="none" x="675" y="549.5">Financiero por</text><text fill="#000000" stroke="none" font-family="Arial" font-size="13px" font-style="normal" font-weight="bold" text-decoration="none" x="686" y="562.5">Institución</text></g></g><g transform="translate(-278,-118) scale(1,1)"><rect fill="#ffffff" stroke="none" x="288" y="1168" width="21" height="88"></rect></g><g transform="translate(-278,-118) scale(1,1)"><path fill="none" stroke="#000000" d="M 288 1168 L 309 1168 L 309 1256 L 288 1256 L 288 1168 Z Z" stroke-miterlimit="10" stroke-width="2"></path></g><g transform="translate(-278,-118) scale(1,1)"><path fill="none" stroke="#000000" d="M 1176 1168 L 288 1168 L 288 1256 L 1176 1256" stroke-miterlimit="10" stroke-width="2"></path></g><g transform="translate(-278,-118) scale(1,1)"><g><path fill="none" stroke="none" transform="translate(292,1212) rotate(-90,0,0)"></path><text fill="#000000" stroke="none" font-family="Arial" font-size="13px" font-style="normal" font-weight="normal" text-decoration="none" x="-34.5" y="13">Participante</text></g></g><g transform="translate(-278,-118) scale(1,1)"><path fill="#C0C0C0" stroke="none" d="M 849 1191 L 949 1191 Q 959 1191 959 1201 L 959 1234 Q 959 1244 949 1244 L 849 1244 Q 839 1244 839 1234 L 839 1201 Q 839 1191 849 1191 Z" opacity="0.2"></path></g><g transform="translate(-278,-118) scale(1,1)"><path fill="#ffffff" stroke="none" d="M 842 1184 L 942 1184 Q 952 1184 952 1194 L 952 1227 Q 952 1237 942 1237 L 842 1237 Q 832 1237 832 1227 L 832 1194 Q 832 1184 842 1184 Z"></path></g><g transform="translate(-278,-118) scale(1,1)"><path fill="none" stroke="#000000" d="M 842 1184 L 942 1184 Q 952 1184 952 1194 L 952 1227 Q 952 1237 942 1237 L 842 1237 Q 832 1237 832 1227 L 832 1194 Q 832 1184 842 1184 Z" stroke-miterlimit="10"></path></g><g transform="translate(-278,-118) scale(1,1)"><g><path fill="none" stroke="none"></path><text fill="#000000" stroke="none" font-family="Arial" font-size="13px" font-style="normal" font-weight="bold" text-decoration="none" x="847" y="1203.5">Firmar Carta de</text><text fill="#000000" stroke="none" font-family="Arial" font-size="13px" font-style="normal" font-weight="bold" text-decoration="none" x="854.5" y="1216.5">Participación</text></g></g><g transform="translate(-278,-118) scale(1,1)"><path fill="none" stroke="#000000" d="M 888 1237 L 888 1312" stroke-miterlimit="10"></path></g><g transform="translate(-278,-118) scale(1,1)"><path fill="none" stroke="#000000" d="M 883.790482243984 1301.837325142376 L 888 1312 L 892.209517756016 1301.837325142376" stroke-miterlimit="10"></path></g><g transform="translate(-278,-118) scale(1,1)"><path fill="none" stroke="#000000" d="M 456 629 L 456 728" stroke-miterlimit="10"></path></g><g transform="translate(-278,-118) scale(1,1)"><path fill="none" stroke="#000000" d="M 451.790482243984 717.8373251423759 L 456 728 L 460.209517756016 717.8373251423759" stroke-miterlimit="10"></path></g><g transform="translate(-278,-118) scale(1,1)"><path fill="none" stroke="#000000" d="M 736 629 L 736 1024" stroke-miterlimit="10"></path></g><g transform="translate(-278,-118) scale(1,1)"><path fill="none" stroke="#000000" d="M 731.790482243984 1013.8373251423759 L 736 1024 L 740.209517756016 1013.8373251423759" stroke-miterlimit="10"></path></g><g transform="translate(-278,-118) scale(1,1)"><path fill="none" stroke="#000000" d="M 888 629 L 888 1184" stroke-miterlimit="10"></path></g><g transform="translate(-278,-118) scale(1,1)"><path fill="none" stroke="#000000" d="M 883.790482243984 1173.837325142376 L 888 1184 L 892.209517756016 1173.837325142376" stroke-miterlimit="10"></path></g><g transform="translate(-278,-118) scale(1,1)"><path fill="#C0C0C0" stroke="none" d="M 953 519 L 1069 519 Q 1079 519 1079 529 L 1079 578 Q 1079 588 1069 588 L 953 588 Q 943 588 943 578 L 943 529 Q 943 519 953 519 Z" opacity="0.2"></path></g><g transform="translate(-278,-118) scale(1,1)"><path fill="#ffffff" stroke="none" d="M 946 512 L 1062 512 Q 1072 512 1072 522 L 1072 571 Q 1072 581 1062 581 L 946 581 Q 936 581 936 571 L 936 522 Q 936 512 946 512 Z"></path></g><g transform="translate(-278,-118) scale(1,1)"><path fill="none" stroke="#000000" d="M 946 512 L 1062 512 Q 1072 512 1072 522 L 1072 571 Q 1072 581 1062 581 L 946 581 Q 936 581 936 571 L 936 522 Q 936 512 946 512 Z" stroke-miterlimit="10"></path></g><g transform="translate(-278,-118) scale(1,1)"><g><path fill="none" stroke="none"></path><text fill="#000000" stroke="none" font-family="Arial" font-size="13px" font-style="normal" font-weight="normal" text-decoration="none" x="974.5" y="529.5">«pantalla»</text></g></g><g transform="translate(-278,-118) scale(1,1)"><g><path fill="none" stroke="none"></path><text fill="#000000" stroke="none" font-family="Arial" font-size="13px" font-style="normal" font-weight="bold" text-decoration="none" x="958.5" y="544.5">Enviar Solicitud</text></g></g><g transform="translate(-278,-118) scale(1,1)"><path fill="#C0C0C0" stroke="none" d="M 991 475.5 C 991 468.59644 996.59644 463 1003.5 463 C 1010.40356 463 1016 468.59644 1016 475.5 C 1016 482.40356 1010.40356 488 1003.5 488 C 996.59644 488 991 482.40356 991 475.5 Z" opacity="0.2"></path></g><g transform="translate(-278,-118) scale(1,1)"><path fill="none" stroke="#000000" d="M 984 468.5 C 984 461.59644 989.59644 456 996.5 456 C 1003.40356 456 1009 461.59644 1009 468.5 C 1009 475.40356 1003.40356 481 996.5 481 C 989.59644 481 984 475.40356 984 468.5 Z" stroke-miterlimit="10"></path></g><g transform="translate(-278,-118) scale(1,1)"><path fill="#000000" stroke="none" d="M 989 468.5 C 989 464.357864 992.357864 461 996.5 461 C 1000.642136 461 1004 464.357864 1004 468.5 C 1004 472.642136 1000.642136 476 996.5 476 C 992.357864 476 989 472.642136 989 468.5 Z"></path></g><g transform="translate(-278,-118) scale(1,1)"><g><path fill="none" stroke="none"></path><text fill="#000000" stroke="none" font-family="Arial" font-size="16px" font-style="normal" font-weight="normal" text-decoration="none" x="333" y="677">Representante</text><text fill="#000000" stroke="none" font-family="Arial" font-size="16px" font-style="normal" font-weight="normal" text-decoration="none" x="333" y="693">Legal</text></g></g><g transform="translate(-278,-118) scale(1,1)"><g><path fill="none" stroke="none"></path><text fill="#000000" stroke="none" font-family="Arial" font-size="16px" font-style="normal" font-weight="normal" text-decoration="none" x="325" y="869">Co-Responsable</text><text fill="#000000" stroke="none" font-family="Arial" font-size="16px" font-style="normal" font-weight="normal" text-decoration="none" x="325" y="885">Técnico</text></g></g><g transform="translate(-278,-118) scale(1,1)"><g><path fill="none" stroke="none"></path><text fill="#000000" stroke="none" font-family="Arial" font-size="16px" font-style="normal" font-weight="normal" text-decoration="none" x="317" y="1037">Co-Representante</text><text fill="#000000" stroke="none" font-family="Arial" font-size="16px" font-style="normal" font-weight="normal" text-decoration="none" x="317" y="1053">Legal</text></g></g><g transform="translate(-278,-118) scale(1,1)"><g><path fill="none" stroke="none"></path><text fill="#000000" stroke="none" font-family="Arial" font-size="16px" font-style="normal" font-weight="normal" text-decoration="none" x="325" y="1197">Participante</text></g></g><g transform="translate(-278,-118) scale(1,1)"><g><path fill="none" stroke="none"></path><text fill="#000000" stroke="none" font-family="Arial" font-size="16px" font-style="normal" font-weight="normal" text-decoration="none" x="333" y="165">Responsable</text><text fill="#000000" stroke="none" font-family="Arial" font-size="16px" font-style="normal" font-weight="normal" text-decoration="none" x="333" y="181">Técnico</text></g></g></g></svg>