<svg version="1.1" xmlns="http://www.w3.org/2000/svg" xmlns:xlink="http://www.w3.org/1999/xlink" width="756" height="382"><defs/><g><text fill="#eeeeee" stroke="none" font-family="Arial" font-size="24px" font-style="normal" font-weight="normal" text-decoration="none" x="0" y="0">UNREGISTERED</text><text fill="#eeeeee" stroke="none" font-family="Arial" font-size="24px" font-style="normal" font-weight="normal" text-decoration="none" x="0" y="30">UNREGISTERED</text><text fill="#eeeeee" stroke="none" font-family="Arial" font-size="24px" font-style="normal" font-weight="normal" text-decoration="none" x="0" y="60">UNREGISTERED</text><text fill="#eeeeee" stroke="none" font-family="Arial" font-size="24px" font-style="normal" font-weight="normal" text-decoration="none" x="0" y="90">UNREGISTERED</text><text fill="#eeeeee" stroke="none" font-family="Arial" font-size="24px" font-style="normal" font-weight="normal" text-decoration="none" x="0" y="120">UNREGISTERED</text><text fill="#eeeeee" stroke="none" font-family="Arial" font-size="24px" font-style="normal" font-weight="normal" text-decoration="none" x="0" y="150">UNREGISTERED</text><text fill="#eeeeee" stroke="none" font-family="Arial" font-size="24px" font-style="normal" font-weight="normal" text-decoration="none" x="0" y="180">UNREGISTERED</text><text fill="#eeeeee" stroke="none" font-family="Arial" font-size="24px" font-style="normal" font-weight="normal" text-decoration="none" x="0" y="210">UNREGISTERED</text><text fill="#eeeeee" stroke="none" font-family="Arial" font-size="24px" font-style="normal" font-weight="normal" text-decoration="none" x="0" y="240">UNREGISTERED</text><text fill="#eeeeee" stroke="none" font-family="Arial" font-size="24px" font-style="normal" font-weight="normal" text-decoration="none" x="0" y="270">UNREGISTERED</text><text fill="#eeeeee" stroke="none" font-family="Arial" font-size="24px" font-style="normal" font-weight="normal" text-decoration="none" x="0" y="300">UNREGISTERED</text><text fill="#eeeeee" stroke="none" font-family="Arial" font-size="24px" font-style="normal" font-weight="normal" text-decoration="none" x="0" y="330">UNREGISTERED</text><text fill="#eeeeee" stroke="none" font-family="Arial" font-size="24px" font-style="normal" font-weight="normal" text-decoration="none" x="0" y="360">UNREGISTERED</text><text fill="#eeeeee" stroke="none" font-family="Arial" font-size="24px" font-style="normal" font-weight="normal" text-decoration="none" x="200" y="0">UNREGISTERED</text><text fill="#eeeeee" stroke="none" font-family="Arial" font-size="24px" font-style="normal" font-weight="normal" text-decoration="none" x="200" y="30">UNREGISTERED</text><text fill="#eeeeee" stroke="none" font-family="Arial" font-size="24px" font-style="normal" font-weight="normal" text-decoration="none" x="200" y="60">UNREGISTERED</text><text fill="#eeeeee" stroke="none" font-family="Arial" font-size="24px" font-style="normal" font-weight="normal" text-decoration="none" x="200" y="90">UNREGISTERED</text><text fill="#eeeeee" stroke="none" font-family="Arial" font-size="24px" font-style="normal" font-weight="normal" text-decoration="none" x="200" y="120">UNREGISTERED</text><text fill="#eeeeee" stroke="none" font-family="Arial" font-size="24px" font-style="normal" font-weight="normal" text-decoration="none" x="200" y="150">UNREGISTERED</text><text fill="#eeeeee" stroke="none" font-family="Arial" font-size="24px" font-style="normal" font-weight="normal" text-decoration="none" x="200" y="180">UNREGISTERED</text><text fill="#eeeeee" stroke="none" font-family="Arial" font-size="24px" font-style="normal" font-weight="normal" text-decoration="none" x="200" y="210">UNREGISTERED</text><text fill="#eeeeee" stroke="none" font-family="Arial" font-size="24px" font-style="normal" font-weight="normal" text-decoration="none" x="200" y="240">UNREGISTERED</text><text fill="#eeeeee" stroke="none" font-family="Arial" font-size="24px" font-style="normal" font-weight="normal" text-decoration="none" x="200" y="270">UNREGISTERED</text><text fill="#eeeeee" stroke="none" font-family="Arial" font-size="24px" font-style="normal" font-weight="normal" text-decoration="none" x="200" y="300">UNREGISTERED</text><text fill="#eeeeee" stroke="none" font-family="Arial" font-size="24px" font-style="normal" font-weight="normal" text-decoration="none" x="200" y="330">UNREGISTERED</text><text fill="#eeeeee" stroke="none" font-family="Arial" font-size="24px" font-style="normal" font-weight="normal" text-decoration="none" x="200" y="360">UNREGISTERED</text><text fill="#eeeeee" stroke="none" font-family="Arial" font-size="24px" font-style="normal" font-weight="normal" text-decoration="none" x="400" y="0">UNREGISTERED</text><text fill="#eeeeee" stroke="none" font-family="Arial" font-size="24px" font-style="normal" font-weight="normal" text-decoration="none" x="400" y="30">UNREGISTERED</text><text fill="#eeeeee" stroke="none" font-family="Arial" font-size="24px" font-style="normal" font-weight="normal" text-decoration="none" x="400" y="60">UNREGISTERED</text><text fill="#eeeeee" stroke="none" font-family="Arial" font-size="24px" font-style="normal" font-weight="normal" text-decoration="none" x="400" y="90">UNREGISTERED</text><text fill="#eeeeee" stroke="none" font-family="Arial" font-size="24px" font-style="normal" font-weight="normal" text-decoration="none" x="400" y="120">UNREGISTERED</text><text fill="#eeeeee" stroke="none" font-family="Arial" font-size="24px" font-style="normal" font-weight="normal" text-decoration="none" x="400" y="150">UNREGISTERED</text><text fill="#eeeeee" stroke="none" font-family="Arial" font-size="24px" font-style="normal" font-weight="normal" text-decoration="none" x="400" y="180">UNREGISTERED</text><text fill="#eeeeee" stroke="none" font-family="Arial" font-size="24px" font-style="normal" font-weight="normal" text-decoration="none" x="400" y="210">UNREGISTERED</text><text fill="#eeeeee" stroke="none" font-family="Arial" font-size="24px" font-style="normal" font-weight="normal" text-decoration="none" x="400" y="240">UNREGISTERED</text><text fill="#eeeeee" stroke="none" font-family="Arial" font-size="24px" font-style="normal" font-weight="normal" text-decoration="none" x="400" y="270">UNREGISTERED</text><text fill="#eeeeee" stroke="none" font-family="Arial" font-size="24px" font-style="normal" font-weight="normal" text-decoration="none" x="400" y="300">UNREGISTERED</text><text fill="#eeeeee" stroke="none" font-family="Arial" font-size="24px" font-style="normal" font-weight="normal" text-decoration="none" x="400" y="330">UNREGISTERED</text><text fill="#eeeeee" stroke="none" font-family="Arial" font-size="24px" font-style="normal" font-weight="normal" text-decoration="none" x="400" y="360">UNREGISTERED</text><text fill="#eeeeee" stroke="none" font-family="Arial" font-size="24px" font-style="normal" font-weight="normal" text-decoration="none" x="600" y="0">UNREGISTERED</text><text fill="#eeeeee" stroke="none" font-family="Arial" font-size="24px" font-style="normal" font-weight="normal" text-decoration="none" x="600" y="30">UNREGISTERED</text><text fill="#eeeeee" stroke="none" font-family="Arial" font-size="24px" font-style="normal" font-weight="normal" text-decoration="none" x="600" y="60">UNREGISTERED</text><text fill="#eeeeee" stroke="none" font-family="Arial" font-size="24px" font-style="normal" font-weight="normal" text-decoration="none" x="600" y="90">UNREGISTERED</text><text fill="#eeeeee" stroke="none" font-family="Arial" font-size="24px" font-style="normal" font-weight="normal" text-decoration="none" x="600" y="120">UNREGISTERED</text><text fill="#eeeeee" stroke="none" font-family="Arial" font-size="24px" font-style="normal" font-weight="normal" text-decoration="none" x="600" y="150">UNREGISTERED</text><text fill="#eeeeee" stroke="none" font-family="Arial" font-size="24px" font-style="normal" font-weight="normal" text-decoration="none" x="600" y="180">UNREGISTERED</text><text fill="#eeeeee" stroke="none" font-family="Arial" font-size="24px" font-style="normal" font-weight="normal" text-decoration="none" x="600" y="210">UNREGISTERED</text><text fill="#eeeeee" stroke="none" font-family="Arial" font-size="24px" font-style="normal" font-weight="normal" text-decoration="none" x="600" y="240">UNREGISTERED</text><text fill="#eeeeee" stroke="none" font-family="Arial" font-size="24px" font-style="normal" font-weight="normal" text-decoration="none" x="600" y="270">UNREGISTERED</text><text fill="#eeeeee" stroke="none" font-family="Arial" font-size="24px" font-style="normal" font-weight="normal" text-decoration="none" x="600" y="300">UNREGISTERED</text><text fill="#eeeeee" stroke="none" font-family="Arial" font-size="24px" font-style="normal" font-weight="normal" text-decoration="none" x="600" y="330">UNREGISTERED</text><text fill="#eeeeee" stroke="none" font-family="Arial" font-size="24px" font-style="normal" font-weight="normal" text-decoration="none" x="600" y="360">UNREGISTERED</text><g transform="translate(-30,-134) scale(1,1)"><rect fill="#C0C0C0" stroke="none" x="127" y="279" width="112" height="44" opacity="0.2"/></g><g transform="translate(-30,-134) scale(1,1)"><rect fill="#ffffff" stroke="none" x="120" y="272" width="112" height="44"/></g><g transform="translate(-30,-134) scale(1,1)"><path fill="none" stroke="#000000" d="M 120 272 L 232 272 L 232 316 L 120 316 L 120 272 Z Z" stroke-miterlimit="10"/></g><g transform="translate(-30,-134) scale(1,1)"><g><path fill="none" stroke="none"/><text fill="#000000" stroke="none" font-family="Arial" font-size="13px" font-style="normal" font-weight="normal" text-decoration="none" x="159.016845703125" y="289.5">«Rol»</text></g></g><g transform="translate(-30,-134) scale(1,1)"><g><path fill="none" stroke="none"/><text fill="#000000" stroke="none" font-family="Arial" font-size="13px" font-style="normal" font-weight="bold" text-decoration="none" x="128.29736328125" y="304.5">Sujeto de Apoyo</text></g></g><g transform="translate(-30,-134) scale(1,1)"><rect fill="#C0C0C0" stroke="none" x="567" y="279" width="111.57177734375" height="44" opacity="0.2"/></g><g transform="translate(-30,-134) scale(1,1)"><rect fill="#ffffff" stroke="none" x="560" y="272" width="111.57177734375" height="44"/></g><g transform="translate(-30,-134) scale(1,1)"><path fill="none" stroke="#000000" d="M 560 272 L 671.57177734375 272 L 671.57177734375 316 L 560 316 L 560 272 Z Z" stroke-miterlimit="10"/></g><g transform="translate(-30,-134) scale(1,1)"><g><path fill="none" stroke="none"/><text fill="#000000" stroke="none" font-family="Arial" font-size="13px" font-style="normal" font-weight="normal" text-decoration="none" x="598.802734375" y="289.5">«Rol»</text></g></g><g transform="translate(-30,-134) scale(1,1)"><g><path fill="none" stroke="none"/><text fill="#000000" stroke="none" font-family="Arial" font-size="13px" font-style="normal" font-weight="bold" text-decoration="none" x="567.369140625" y="304.5">Co-Responsable</text></g></g><g transform="translate(-30,-134) scale(1,1)"><rect fill="#C0C0C0" stroke="none" x="215" y="359" width="100.0126953125" height="50" opacity="0.2"/></g><g transform="translate(-30,-134) scale(1,1)"><rect fill="#ffffff" stroke="none" x="208" y="352" width="100.0126953125" height="50"/></g><g transform="translate(-30,-134) scale(1,1)"><path fill="none" stroke="#000000" d="M 208 352 L 308.0126953125 352 L 308.0126953125 402 L 208 402 L 208 352 Z Z" stroke-miterlimit="10"/></g><g transform="translate(-30,-134) scale(1,1)"><g><path fill="none" stroke="none"/><text fill="#000000" stroke="none" font-family="Arial" font-size="13px" font-style="normal" font-weight="normal" text-decoration="none" x="241.023193359375" y="369.5">«Rol»</text></g></g><g transform="translate(-30,-134) scale(1,1)"><g><path fill="none" stroke="none"/><text fill="#000000" stroke="none" font-family="Arial" font-size="13px" font-style="normal" font-weight="bold" text-decoration="none" x="223.313232421875" y="384.5">Reponsable</text><text fill="#000000" stroke="none" font-family="Arial" font-size="13px" font-style="normal" font-weight="bold" text-decoration="none" x="235.246826171875" y="397.5">Técnico</text></g></g><g transform="translate(-30,-134) scale(1,1)"><rect fill="#C0C0C0" stroke="none" x="47" y="351" width="100.0126953125" height="50" opacity="0.2"/></g><g transform="translate(-30,-134) scale(1,1)"><rect fill="#ffffff" stroke="none" x="40" y="344" width="100.0126953125" height="50"/></g><g transform="translate(-30,-134) scale(1,1)"><path fill="none" stroke="#000000" d="M 40 344 L 140.0126953125 344 L 140.0126953125 394 L 40 394 L 40 344 Z Z" stroke-miterlimit="10"/></g><g transform="translate(-30,-134) scale(1,1)"><g><path fill="none" stroke="none"/><text fill="#000000" stroke="none" font-family="Arial" font-size="13px" font-style="normal" font-weight="normal" text-decoration="none" x="73.023193359375" y="361.5">«Rol»</text></g></g><g transform="translate(-30,-134) scale(1,1)"><g><path fill="none" stroke="none"/><text fill="#000000" stroke="none" font-family="Arial" font-size="13px" font-style="normal" font-weight="bold" text-decoration="none" x="52.063232421875" y="376.5">Responsable</text><text fill="#000000" stroke="none" font-family="Arial" font-size="13px" font-style="normal" font-weight="bold" text-decoration="none" x="49.187744140625" y="389.5">Administrativo</text></g></g><g transform="translate(-30,-134) scale(1,1)"><rect fill="#C0C0C0" stroke="none" x="559" y="151" width="100.0126953125" height="50" opacity="0.2"/></g><g transform="translate(-30,-134) scale(1,1)"><rect fill="#ffffff" stroke="none" x="552" y="144" width="100.0126953125" height="50"/></g><g transform="translate(-30,-134) scale(1,1)"><path fill="none" stroke="#000000" d="M 552 144 L 652.0126953125 144 L 652.0126953125 194 L 552 194 L 552 144 Z Z" stroke-miterlimit="10"/></g><g transform="translate(-30,-134) scale(1,1)"><g><path fill="none" stroke="none"/><text fill="#000000" stroke="none" font-family="Arial" font-size="13px" font-style="normal" font-weight="normal" text-decoration="none" x="585.023193359375" y="161.5">«Rol»</text></g></g><g transform="translate(-30,-134) scale(1,1)"><g><path fill="none" stroke="none"/><text fill="#000000" stroke="none" font-family="Arial" font-size="13px" font-style="normal" font-weight="bold" text-decoration="none" x="559.365966796875" y="176.5">Representante</text><text fill="#000000" stroke="none" font-family="Arial" font-size="13px" font-style="normal" font-weight="bold" text-decoration="none" x="586.102294921875" y="189.5">Legal</text></g></g><g transform="translate(-30,-134) scale(1,1)"><path fill="none" stroke="#000000" d="M 208 376 L 200 376 M 200 376 A 8 8 0 0 1 192 368 L 192 316" stroke-miterlimit="10"/></g><g transform="translate(-30,-134) scale(1,1)"><path fill="#000000" stroke="none" d="M 196.209517756016 326.16267485762415 L 192 316 L 187.790482243984 326.16267485762415 L 192 338"/></g><g transform="translate(-30,-134) scale(1,1)"><path fill="none" stroke="#000000" d="M 196.209517756016 326.16267485762415 L 192 316 L 187.790482243984 326.16267485762415 L 192 338 L 196.209517756016 326.16267485762415" stroke-miterlimit="10"/></g><g transform="translate(-30,-134) scale(1,1)"><g><path fill="none" stroke="none"/><text fill="#000000" stroke="none" font-family="Arial" font-size="13px" font-style="normal" font-weight="normal" text-decoration="none" x="199.5" y="396.5">1</text></g></g><g transform="translate(-30,-134) scale(1,1)"><path fill="none" stroke="#000000" d="M 140 376 L 152 376 M 152 376 A 8 8 0 0 0 160 368 L 160 316" stroke-miterlimit="10"/></g><g transform="translate(-30,-134) scale(1,1)"><path fill="#000000" stroke="none" d="M 164.209517756016 326.16267485762415 L 160 316 L 155.790482243984 326.16267485762415 L 160 338"/></g><g transform="translate(-30,-134) scale(1,1)"><path fill="none" stroke="#000000" d="M 164.209517756016 326.16267485762415 L 160 316 L 155.790482243984 326.16267485762415 L 160 338 L 164.209517756016 326.16267485762415" stroke-miterlimit="10"/></g><g transform="translate(-30,-134) scale(1,1)"><g><path fill="none" stroke="none"/><text fill="#000000" stroke="none" font-family="Arial" font-size="13px" font-style="normal" font-weight="normal" text-decoration="none" x="143.5" y="393.5">1</text></g></g><g transform="translate(-30,-134) scale(1,1)"><path fill="none" stroke="#000000" d="M 176 194 L 176 272" stroke-miterlimit="10"/></g><g transform="translate(-30,-134) scale(1,1)"><path fill="#000000" stroke="none" d="M 171.790482243984 261.83732514237585 L 176 272 L 180.209517756016 261.83732514237585 L 176 250"/></g><g transform="translate(-30,-134) scale(1,1)"><path fill="none" stroke="#000000" d="M 171.790482243984 261.83732514237585 L 176 272 L 180.209517756016 261.83732514237585 L 176 250 L 171.790482243984 261.83732514237585" stroke-miterlimit="10"/></g><g transform="translate(-30,-134) scale(1,1)"><g><path fill="none" stroke="none"/><text fill="#000000" stroke="none" font-family="Arial" font-size="13px" font-style="normal" font-weight="normal" text-decoration="none" x="159.5" y="221.5">1</text></g></g><g transform="translate(-30,-134) scale(1,1)"><path fill="none" stroke="#000000" d="M 615 194 L 615 272" stroke-miterlimit="10"/></g><g transform="translate(-30,-134) scale(1,1)"><path fill="#000000" stroke="none" d="M 610.790482243984 261.83732514237585 L 615 272 L 619.209517756016 261.83732514237585 L 615 250"/></g><g transform="translate(-30,-134) scale(1,1)"><path fill="none" stroke="#000000" d="M 610.790482243984 261.83732514237585 L 615 272 L 619.209517756016 261.83732514237585 L 615 250 L 610.790482243984 261.83732514237585" stroke-miterlimit="10"/></g><g transform="translate(-30,-134) scale(1,1)"><g><path fill="none" stroke="none"/><text fill="#000000" stroke="none" font-family="Arial" font-size="13px" font-style="normal" font-weight="normal" text-decoration="none" x="626.5" y="221.5">1</text></g></g><g transform="translate(-30,-134) scale(1,1)"><rect fill="#C0C0C0" stroke="none" x="655" y="359" width="128" height="50" opacity="0.2"/></g><g transform="translate(-30,-134) scale(1,1)"><rect fill="#ffffff" stroke="none" x="648" y="352" width="128" height="50"/></g><g transform="translate(-30,-134) scale(1,1)"><path fill="none" stroke="#000000" d="M 648 352 L 776 352 L 776 402 L 648 402 L 648 352 Z Z" stroke-miterlimit="10"/></g><g transform="translate(-30,-134) scale(1,1)"><g><path fill="none" stroke="none"/><text fill="#000000" stroke="none" font-family="Arial" font-size="13px" font-style="normal" font-weight="normal" text-decoration="none" x="695.016845703125" y="369.5">«Rol»</text></g></g><g transform="translate(-30,-134) scale(1,1)"><g><path fill="none" stroke="none"/><text fill="#000000" stroke="none" font-family="Arial" font-size="13px" font-style="normal" font-weight="bold" text-decoration="none" x="663.583251953125" y="384.5">Co-Responsable</text><text fill="#000000" stroke="none" font-family="Arial" font-size="13px" font-style="normal" font-weight="bold" text-decoration="none" x="671.181396484375" y="397.5">Administrativo</text></g></g><g transform="translate(-30,-134) scale(1,1)"><rect fill="#C0C0C0" stroke="none" x="479" y="359" width="120" height="50" opacity="0.2"/></g><g transform="translate(-30,-134) scale(1,1)"><rect fill="#ffffff" stroke="none" x="472" y="352" width="120" height="50"/></g><g transform="translate(-30,-134) scale(1,1)"><path fill="none" stroke="#000000" d="M 472 352 L 592 352 L 592 402 L 472 402 L 472 352 Z Z" stroke-miterlimit="10"/></g><g transform="translate(-30,-134) scale(1,1)"><g><path fill="none" stroke="none"/><text fill="#000000" stroke="none" font-family="Arial" font-size="13px" font-style="normal" font-weight="normal" text-decoration="none" x="515.016845703125" y="369.5">«Rol»</text></g></g><g transform="translate(-30,-134) scale(1,1)"><g><path fill="none" stroke="none"/><text fill="#000000" stroke="none" font-family="Arial" font-size="13px" font-style="normal" font-weight="bold" text-decoration="none" x="483.583251953125" y="384.5">Co-Responsable</text><text fill="#000000" stroke="none" font-family="Arial" font-size="13px" font-style="normal" font-weight="bold" text-decoration="none" x="509.240478515625" y="397.5">Técnico</text></g></g><g transform="translate(-30,-134) scale(1,1)"><path fill="none" stroke="#000000" d="M 592 372 L 594 372 M 594 372 A 8 8 0 0 0 602 364 L 602 316" stroke-miterlimit="10"/></g><g transform="translate(-30,-134) scale(1,1)"><path fill="#000000" stroke="none" d="M 606.209517756016 326.16267485762415 L 602 316 L 597.790482243984 326.16267485762415 L 602 338"/></g><g transform="translate(-30,-134) scale(1,1)"><path fill="none" stroke="#000000" d="M 606.209517756016 326.16267485762415 L 602 316 L 597.790482243984 326.16267485762415 L 602 338 L 606.209517756016 326.16267485762415" stroke-miterlimit="10"/></g><g transform="translate(-30,-134) scale(1,1)"><path fill="none" stroke="#000000" d="M 648 368 L 640 368 M 640 368 A 8 8 0 0 1 632 360 L 632 316" stroke-miterlimit="10"/></g><g transform="translate(-30,-134) scale(1,1)"><path fill="#000000" stroke="none" d="M 636.209517756016 326.16267485762415 L 632 316 L 627.790482243984 326.16267485762415 L 632 338"/></g><g transform="translate(-30,-134) scale(1,1)"><path fill="none" stroke="#000000" d="M 636.209517756016 326.16267485762415 L 632 316 L 627.790482243984 326.16267485762415 L 632 338 L 636.209517756016 326.16267485762415" stroke-miterlimit="10"/></g><g transform="translate(-30,-134) scale(1,1)"><rect fill="#C0C0C0" stroke="none" x="351" y="223" width="104" height="48" opacity="0.2"/></g><g transform="translate(-30,-134) scale(1,1)"><rect fill="#ffffff" stroke="none" x="344" y="216" width="104" height="48"/></g><g transform="translate(-30,-134) scale(1,1)"><path fill="none" stroke="#000000" d="M 344 216 L 448 216 L 448 264 L 344 264 L 344 216 Z Z" stroke-miterlimit="10"/></g><g transform="translate(-30,-134) scale(1,1)"><g><path fill="none" stroke="none"/><text fill="#000000" stroke="none" font-family="Arial" font-size="13px" font-style="normal" font-weight="bold" text-decoration="none" x="362.754150390625" y="235.5">Acuerdo de</text><text fill="#000000" stroke="none" font-family="Arial" font-size="13px" font-style="normal" font-weight="bold" text-decoration="none" x="357.6982421875" y="248.5">Colaboración</text></g></g><g transform="translate(-30,-134) scale(1,1)"><rect fill="#C0C0C0" stroke="none" x="335" y="463" width="112" height="50" opacity="0.2"/></g><g transform="translate(-30,-134) scale(1,1)"><rect fill="#ffffff" stroke="none" x="328" y="456" width="112" height="50"/></g><g transform="translate(-30,-134) scale(1,1)"><path fill="none" stroke="#000000" d="M 328 456 L 440 456 L 440 506 L 328 506 L 328 456 Z Z" stroke-miterlimit="10"/></g><g transform="translate(-30,-134) scale(1,1)"><g><path fill="none" stroke="none"/><text fill="#000000" stroke="none" font-family="Arial" font-size="13px" font-style="normal" font-weight="bold" text-decoration="none" x="363.0400390625" y="475.5">Cuenta</text><text fill="#000000" stroke="none" font-family="Arial" font-size="13px" font-style="normal" font-weight="bold" text-decoration="none" x="358.345947265625" y="488.5">Bancaria</text><text fill="#000000" stroke="none" font-family="Arial" font-size="13px" font-style="normal" font-weight="bold" text-decoration="none" x="341.0009765625" y="501.5">Mancomunada</text></g></g><g transform="translate(-30,-134) scale(1,1)"><path fill="none" stroke="#000000" d="M 536 402 L 536 424 M 536 424 A 8 8 0 0 0 544 432 L 704 432 M 704 432 A 8 8 0 0 0 712 424 L 712 402" stroke-miterlimit="10"/></g><g transform="translate(-30,-134) scale(1,1)"><g><path fill="none" stroke="none"/><text fill="#000000" stroke="none" font-family="Arial" font-size="13px" font-style="normal" font-weight="normal" text-decoration="none" x="512.74365234375" y="429.5">0..*</text></g></g><g transform="translate(-30,-134) scale(1,1)"><g><path fill="none" stroke="none"/><text fill="#000000" stroke="none" font-family="Arial" font-size="13px" font-style="normal" font-weight="normal" text-decoration="none" x="713.74365234375" y="429.5">0..*</text></g></g><g transform="translate(-30,-134) scale(1,1)"><path fill="none" stroke="#000000" d="M 233 294 L 559 294" stroke-miterlimit="10"/></g><g transform="translate(-30,-134) scale(1,1)"><g><path fill="none" stroke="none"/><text fill="#000000" stroke="none" font-family="Arial" font-size="13px" font-style="normal" font-weight="normal" text-decoration="none" x="243.74365234375" y="312.5">0..*</text></g></g><g transform="translate(-30,-134) scale(1,1)"><g><path fill="none" stroke="none"/><text fill="#000000" stroke="none" font-family="Arial" font-size="13px" font-style="normal" font-weight="normal" text-decoration="none" x="526.74365234375" y="312.5">0..*</text></g></g><g transform="translate(-30,-134) scale(1,1)"><path fill="none" stroke="#000000" d="M 441 463 L 616 463 M 616 463 A 8 8 0 0 0 624 455 L 624 433" stroke-miterlimit="10" stroke-dasharray="3"/></g><g transform="translate(-30,-134) scale(1,1)"><path fill="none" stroke="#000000" d="M 396 265 L 396 294" stroke-miterlimit="10" stroke-dasharray="3"/></g><g transform="translate(-30,-134) scale(1,1)"><path fill="none" stroke="#000000" d="M 80 394 L 80 416 M 80 416 A 8 8 0 0 0 88 424 L 248 424 M 248 424 A 8 8 0 0 0 256 416 L 256 402" stroke-miterlimit="10"/></g><g transform="translate(-30,-134) scale(1,1)"><g><path fill="none" stroke="none"/><text fill="#000000" stroke="none" font-family="Arial" font-size="13px" font-style="normal" font-weight="normal" text-decoration="none" x="56.74365234375" y="421.5">0..*</text></g></g><g transform="translate(-30,-134) scale(1,1)"><g><path fill="none" stroke="none"/><text fill="#000000" stroke="none" font-family="Arial" font-size="13px" font-style="normal" font-weight="normal" text-decoration="none" x="257.74365234375" y="429.5">0..*</text></g></g><g transform="translate(-30,-134) scale(1,1)"><path fill="none" stroke="#000000" d="M 327 460 L 176 460 M 176 460 A 8 8 0 0 1 168 452 L 168 425" stroke-miterlimit="10" stroke-dasharray="3"/></g><g transform="translate(-30,-134) scale(1,1)"><rect fill="#C0C0C0" stroke="none" x="127" y="151" width="100.0126953125" height="50" opacity="0.2"/></g><g transform="translate(-30,-134) scale(1,1)"><rect fill="#ffffff" stroke="none" x="120" y="144" width="100.0126953125" height="50"/></g><g transform="translate(-30,-134) scale(1,1)"><path fill="none" stroke="#000000" d="M 120 144 L 220.0126953125 144 L 220.0126953125 194 L 120 194 L 120 144 Z Z" stroke-miterlimit="10"/></g><g transform="translate(-30,-134) scale(1,1)"><g><path fill="none" stroke="none"/><text fill="#000000" stroke="none" font-family="Arial" font-size="13px" font-style="normal" font-weight="normal" text-decoration="none" x="153.023193359375" y="161.5">«Rol»</text></g></g><g transform="translate(-30,-134) scale(1,1)"><g><path fill="none" stroke="none"/><text fill="#000000" stroke="none" font-family="Arial" font-size="13px" font-style="normal" font-weight="bold" text-decoration="none" x="127.365966796875" y="176.5">Representante</text><text fill="#000000" stroke="none" font-family="Arial" font-size="13px" font-style="normal" font-weight="bold" text-decoration="none" x="154.102294921875" y="189.5">Legal</text></g></g></g></svg>