<svg version="1.1" xmlns="http://www.w3.org/2000/svg" xmlns:xlink="http://www.w3.org/1999/xlink" width="756" height="494"><defs></defs><g><g transform="translate(-30,-22) scale(1,1)"><rect fill="#C0C0C0" stroke="none" x="127" y="279" width="112" height="44" opacity="0.2"></rect></g><g transform="translate(-30,-22) scale(1,1)"><rect fill="#ffffff" stroke="none" x="120" y="272" width="112" height="44"></rect></g><g transform="translate(-30,-22) scale(1,1)"><path fill="none" stroke="#000000" d="M 120 272 L 232 272 L 232 316 L 120 316 L 120 272 Z Z" stroke-miterlimit="10"></path></g><g transform="translate(-30,-22) scale(1,1)"><g><path fill="none" stroke="none"></path><text fill="#000000" stroke="none" font-family="Arial" font-size="13px" font-style="normal" font-weight="normal" text-decoration="none" x="159.5" y="289.5">«Rol»</text></g></g><g transform="translate(-30,-22) scale(1,1)"><g><path fill="none" stroke="none"></path><text fill="#000000" stroke="none" font-family="Arial" font-size="13px" font-style="normal" font-weight="bold" text-decoration="none" x="128" y="304.5">Sujeto de Apoyo</text></g></g><g transform="translate(-30,-22) scale(1,1)"><rect fill="#C0C0C0" stroke="none" x="567" y="279" width="111.57177734375" height="44" opacity="0.2"></rect></g><g transform="translate(-30,-22) scale(1,1)"><rect fill="#ffffff" stroke="none" x="560" y="272" width="111.57177734375" height="44"></rect></g><g transform="translate(-30,-22) scale(1,1)"><path fill="none" stroke="#000000" d="M 560 272 L 671.57177734375 272 L 671.57177734375 316 L 560 316 L 560 272 Z Z" stroke-miterlimit="10"></path></g><g transform="translate(-30,-22) scale(1,1)"><g><path fill="none" stroke="none"></path><text fill="#000000" stroke="none" font-family="Arial" font-size="13px" font-style="normal" font-weight="normal" text-decoration="none" x="599.285888671875" y="289.5">«Rol»</text></g></g><g transform="translate(-30,-22) scale(1,1)"><g><path fill="none" stroke="none"></path><text fill="#000000" stroke="none" font-family="Arial" font-size="13px" font-style="normal" font-weight="bold" text-decoration="none" x="568.285888671875" y="304.5">Co-Responsable</text></g></g><g transform="translate(-30,-22) scale(1,1)"><rect fill="#C0C0C0" stroke="none" x="215" y="359" width="100.0126953125" height="50" opacity="0.2"></rect></g><g transform="translate(-30,-22) scale(1,1)"><rect fill="#ffffff" stroke="none" x="208" y="352" width="100.0126953125" height="50"></rect></g><g transform="translate(-30,-22) scale(1,1)"><path fill="none" stroke="#000000" d="M 208 352 L 308.0126953125 352 L 308.0126953125 402 L 208 402 L 208 352 Z Z" stroke-miterlimit="10"></path></g><g transform="translate(-30,-22) scale(1,1)"><g><path fill="none" stroke="none"></path><text fill="#000000" stroke="none" font-family="Arial" font-size="13px" font-style="normal" font-weight="normal" text-decoration="none" x="241.50634765625" y="369.5">«Rol»</text></g></g><g transform="translate(-30,-22) scale(1,1)"><g><path fill="none" stroke="none"></path><text fill="#000000" stroke="none" font-family="Arial" font-size="13px" font-style="normal" font-weight="bold" text-decoration="none" x="224.00634765625" y="384.5">Reponsable</text><text fill="#000000" stroke="none" font-family="Arial" font-size="13px" font-style="normal" font-weight="bold" text-decoration="none" x="235.00634765625" y="397.5">Técnico</text></g></g><g transform="translate(-30,-22) scale(1,1)"><rect fill="#C0C0C0" stroke="none" x="47" y="351" width="100.0126953125" height="50" opacity="0.2"></rect></g><g transform="translate(-30,-22) scale(1,1)"><rect fill="#ffffff" stroke="none" x="40" y="344" width="100.0126953125" height="50"></rect></g><g transform="translate(-30,-22) scale(1,1)"><path fill="none" stroke="#000000" d="M 40 344 L 140.0126953125 344 L 140.0126953125 394 L 40 394 L 40 344 Z Z" stroke-miterlimit="10"></path></g><g transform="translate(-30,-22) scale(1,1)"><g><path fill="none" stroke="none"></path><text fill="#000000" stroke="none" font-family="Arial" font-size="13px" font-style="normal" font-weight="normal" text-decoration="none" x="73.50634765625" y="361.5">«Rol»</text></g></g><g transform="translate(-30,-22) scale(1,1)"><g><path fill="none" stroke="none"></path><text fill="#000000" stroke="none" font-family="Arial" font-size="13px" font-style="normal" font-weight="bold" text-decoration="none" x="52.50634765625" y="376.5">Responsable</text><text fill="#000000" stroke="none" font-family="Arial" font-size="13px" font-style="normal" font-weight="bold" text-decoration="none" x="48.50634765625" y="389.5">Administrativo</text></g></g><g transform="translate(-30,-22) scale(1,1)"><rect fill="#C0C0C0" stroke="none" x="559" y="151" width="100.0126953125" height="50" opacity="0.2"></rect></g><g transform="translate(-30,-22) scale(1,1)"><rect fill="#ffffff" stroke="none" x="552" y="144" width="100.0126953125" height="50"></rect></g><g transform="translate(-30,-22) scale(1,1)"><path fill="none" stroke="#000000" d="M 552 144 L 652.0126953125 144 L 652.0126953125 194 L 552 194 L 552 144 Z Z" stroke-miterlimit="10"></path></g><g transform="translate(-30,-22) scale(1,1)"><g><path fill="none" stroke="none"></path><text fill="#000000" stroke="none" font-family="Arial" font-size="13px" font-style="normal" font-weight="normal" text-decoration="none" x="585.50634765625" y="161.5">«Rol»</text></g></g><g transform="translate(-30,-22) scale(1,1)"><g><path fill="none" stroke="none"></path><text fill="#000000" stroke="none" font-family="Arial" font-size="13px" font-style="normal" font-weight="bold" text-decoration="none" x="560.00634765625" y="176.5">Representante</text><text fill="#000000" stroke="none" font-family="Arial" font-size="13px" font-style="normal" font-weight="bold" text-decoration="none" x="586.50634765625" y="189.5">Legal</text></g></g><g transform="translate(-30,-22) scale(1,1)"><path fill="none" stroke="#000000" d="M 208 376 L 200 376 M 200 376 A 8 8 0 0 1 192 368 L 192 316" stroke-miterlimit="10"></path></g><g transform="translate(-30,-22) scale(1,1)"><path fill="#000000" stroke="none" d="M 196.209517756016 326.16267485762415 L 192 316 L 187.790482243984 326.16267485762415 L 192 338"></path></g><g transform="translate(-30,-22) scale(1,1)"><path fill="none" stroke="#000000" d="M 196.209517756016 326.16267485762415 L 192 316 L 187.790482243984 326.16267485762415 L 192 338 L 196.209517756016 326.16267485762415" stroke-miterlimit="10"></path></g><g transform="translate(-30,-22) scale(1,1)"><g><path fill="none" stroke="none"></path><text fill="#000000" stroke="none" font-family="Arial" font-size="13px" font-style="normal" font-weight="normal" text-decoration="none" x="199.614990234375" y="396.5">1</text></g></g><g transform="translate(-30,-22) scale(1,1)"><path fill="none" stroke="#000000" d="M 140 376 L 152 376 M 152 376 A 8 8 0 0 0 160 368 L 160 316" stroke-miterlimit="10"></path></g><g transform="translate(-30,-22) scale(1,1)"><path fill="#000000" stroke="none" d="M 164.209517756016 326.16267485762415 L 160 316 L 155.790482243984 326.16267485762415 L 160 338"></path></g><g transform="translate(-30,-22) scale(1,1)"><path fill="none" stroke="#000000" d="M 164.209517756016 326.16267485762415 L 160 316 L 155.790482243984 326.16267485762415 L 160 338 L 164.209517756016 326.16267485762415" stroke-miterlimit="10"></path></g><g transform="translate(-30,-22) scale(1,1)"><g><path fill="none" stroke="none"></path><text fill="#000000" stroke="none" font-family="Arial" font-size="13px" font-style="normal" font-weight="normal" text-decoration="none" x="143.614990234375" y="393.5">1</text></g></g><g transform="translate(-30,-22) scale(1,1)"><path fill="none" stroke="#000000" d="M 176 194 L 176 272" stroke-miterlimit="10"></path></g><g transform="translate(-30,-22) scale(1,1)"><path fill="#000000" stroke="none" d="M 171.790482243984 261.83732514237585 L 176 272 L 180.209517756016 261.83732514237585 L 176 250"></path></g><g transform="translate(-30,-22) scale(1,1)"><path fill="none" stroke="#000000" d="M 171.790482243984 261.83732514237585 L 176 272 L 180.209517756016 261.83732514237585 L 176 250 L 171.790482243984 261.83732514237585" stroke-miterlimit="10"></path></g><g transform="translate(-30,-22) scale(1,1)"><g><path fill="none" stroke="none"></path><text fill="#000000" stroke="none" font-family="Arial" font-size="13px" font-style="normal" font-weight="normal" text-decoration="none" x="159.614990234375" y="221.5">1</text></g></g><g transform="translate(-30,-22) scale(1,1)"><path fill="none" stroke="#000000" d="M 615 194 L 615 272" stroke-miterlimit="10"></path></g><g transform="translate(-30,-22) scale(1,1)"><path fill="#000000" stroke="none" d="M 610.790482243984 261.83732514237585 L 615 272 L 619.209517756016 261.83732514237585 L 615 250"></path></g><g transform="translate(-30,-22) scale(1,1)"><path fill="none" stroke="#000000" d="M 610.790482243984 261.83732514237585 L 615 272 L 619.209517756016 261.83732514237585 L 615 250 L 610.790482243984 261.83732514237585" stroke-miterlimit="10"></path></g><g transform="translate(-30,-22) scale(1,1)"><g><path fill="none" stroke="none"></path><text fill="#000000" stroke="none" font-family="Arial" font-size="13px" font-style="normal" font-weight="normal" text-decoration="none" x="626.614990234375" y="221.5">1</text></g></g><g transform="translate(-30,-22) scale(1,1)"><rect fill="#C0C0C0" stroke="none" x="655" y="359" width="128" height="50" opacity="0.2"></rect></g><g transform="translate(-30,-22) scale(1,1)"><rect fill="#ffffff" stroke="none" x="648" y="352" width="128" height="50"></rect></g><g transform="translate(-30,-22) scale(1,1)"><path fill="none" stroke="#000000" d="M 648 352 L 776 352 L 776 402 L 648 402 L 648 352 Z Z" stroke-miterlimit="10"></path></g><g transform="translate(-30,-22) scale(1,1)"><g><path fill="none" stroke="none"></path><text fill="#000000" stroke="none" font-family="Arial" font-size="13px" font-style="normal" font-weight="normal" text-decoration="none" x="695.5" y="369.5">«Rol»</text></g></g><g transform="translate(-30,-22) scale(1,1)"><g><path fill="none" stroke="none"></path><text fill="#000000" stroke="none" font-family="Arial" font-size="13px" font-style="normal" font-weight="bold" text-decoration="none" x="664.5" y="384.5">Co-Responsable</text><text fill="#000000" stroke="none" font-family="Arial" font-size="13px" font-style="normal" font-weight="bold" text-decoration="none" x="670.5" y="397.5">Administrativo</text></g></g><g transform="translate(-30,-22) scale(1,1)"><rect fill="#C0C0C0" stroke="none" x="479" y="359" width="120" height="50" opacity="0.2"></rect></g><g transform="translate(-30,-22) scale(1,1)"><rect fill="#ffffff" stroke="none" x="472" y="352" width="120" height="50"></rect></g><g transform="translate(-30,-22) scale(1,1)"><path fill="none" stroke="#000000" d="M 472 352 L 592 352 L 592 402 L 472 402 L 472 352 Z Z" stroke-miterlimit="10"></path></g><g transform="translate(-30,-22) scale(1,1)"><g><path fill="none" stroke="none"></path><text fill="#000000" stroke="none" font-family="Arial" font-size="13px" font-style="normal" font-weight="normal" text-decoration="none" x="515.5" y="369.5">«Rol»</text></g></g><g transform="translate(-30,-22) scale(1,1)"><g><path fill="none" stroke="none"></path><text fill="#000000" stroke="none" font-family="Arial" font-size="13px" font-style="normal" font-weight="bold" text-decoration="none" x="484.5" y="384.5">Co-Responsable</text><text fill="#000000" stroke="none" font-family="Arial" font-size="13px" font-style="normal" font-weight="bold" text-decoration="none" x="509" y="397.5">Técnico</text></g></g><g transform="translate(-30,-22) scale(1,1)"><path fill="none" stroke="#000000" d="M 592 372 L 594 372 M 594 372 A 8 8 0 0 0 602 364 L 602 316" stroke-miterlimit="10"></path></g><g transform="translate(-30,-22) scale(1,1)"><path fill="#000000" stroke="none" d="M 606.209517756016 326.16267485762415 L 602 316 L 597.790482243984 326.16267485762415 L 602 338"></path></g><g transform="translate(-30,-22) scale(1,1)"><path fill="none" stroke="#000000" d="M 606.209517756016 326.16267485762415 L 602 316 L 597.790482243984 326.16267485762415 L 602 338 L 606.209517756016 326.16267485762415" stroke-miterlimit="10"></path></g><g transform="translate(-30,-22) scale(1,1)"><path fill="none" stroke="#000000" d="M 648 368 L 640 368 M 640 368 A 8 8 0 0 1 632 360 L 632 316" stroke-miterlimit="10"></path></g><g transform="translate(-30,-22) scale(1,1)"><path fill="#000000" stroke="none" d="M 636.209517756016 326.16267485762415 L 632 316 L 627.790482243984 326.16267485762415 L 632 338"></path></g><g transform="translate(-30,-22) scale(1,1)"><path fill="none" stroke="#000000" d="M 636.209517756016 326.16267485762415 L 632 316 L 627.790482243984 326.16267485762415 L 632 338 L 636.209517756016 326.16267485762415" stroke-miterlimit="10"></path></g><g transform="translate(-30,-22) scale(1,1)"><rect fill="#C0C0C0" stroke="none" x="351" y="223" width="104" height="48" opacity="0.2"></rect></g><g transform="translate(-30,-22) scale(1,1)"><rect fill="#ffffff" stroke="none" x="344" y="216" width="104" height="48"></rect></g><g transform="translate(-30,-22) scale(1,1)"><path fill="none" stroke="#000000" d="M 344 216 L 448 216 L 448 264 L 344 264 L 344 216 Z Z" stroke-miterlimit="10"></path></g><g transform="translate(-30,-22) scale(1,1)"><g><path fill="none" stroke="none"></path><text fill="#000000" stroke="none" font-family="Arial" font-size="13px" font-style="normal" font-weight="bold" text-decoration="none" x="363" y="235.5">Acuerdo de</text><text fill="#000000" stroke="none" font-family="Arial" font-size="13px" font-style="normal" font-weight="bold" text-decoration="none" x="358.5" y="248.5">Colaboración</text></g></g><g transform="translate(-30,-22) scale(1,1)"><rect fill="#C0C0C0" stroke="none" x="335" y="463" width="112" height="50" opacity="0.2"></rect></g><g transform="translate(-30,-22) scale(1,1)"><rect fill="#ffffff" stroke="none" x="328" y="456" width="112" height="50"></rect></g><g transform="translate(-30,-22) scale(1,1)"><path fill="none" stroke="#000000" d="M 328 456 L 440 456 L 440 506 L 328 506 L 328 456 Z Z" stroke-miterlimit="10"></path></g><g transform="translate(-30,-22) scale(1,1)"><g><path fill="none" stroke="none"></path><text fill="#000000" stroke="none" font-family="Arial" font-size="13px" font-style="normal" font-weight="bold" text-decoration="none" x="336" y="475.5">Cuenta Bancaria</text><text fill="#000000" stroke="none" font-family="Arial" font-size="13px" font-style="normal" font-weight="bold" text-decoration="none" x="341.5" y="488.5">Mancomunada</text></g></g><g transform="translate(-30,-22) scale(1,1)"><path fill="none" stroke="#000000" d="M 536 402 L 536 424 M 536 424 A 8 8 0 0 0 544 432 L 704 432 M 704 432 A 8 8 0 0 0 712 424 L 712 402" stroke-miterlimit="10"></path></g><g transform="translate(-30,-22) scale(1,1)"><g><path fill="none" stroke="none"></path><text fill="#000000" stroke="none" font-family="Arial" font-size="13px" font-style="normal" font-weight="normal" text-decoration="none" x="512.5" y="429.5">0..*</text></g></g><g transform="translate(-30,-22) scale(1,1)"><g><path fill="none" stroke="none"></path><text fill="#000000" stroke="none" font-family="Arial" font-size="13px" font-style="normal" font-weight="normal" text-decoration="none" x="713.5" y="429.5">0..*</text></g></g><g transform="translate(-30,-22) scale(1,1)"><path fill="none" stroke="#000000" d="M 233 294 L 559 294" stroke-miterlimit="10"></path></g><g transform="translate(-30,-22) scale(1,1)"><g><path fill="none" stroke="none"></path><text fill="#000000" stroke="none" font-family="Arial" font-size="13px" font-style="normal" font-weight="normal" text-decoration="none" x="243.5" y="312.5">0..*</text></g></g><g transform="translate(-30,-22) scale(1,1)"><g><path fill="none" stroke="none"></path><text fill="#000000" stroke="none" font-family="Arial" font-size="13px" font-style="normal" font-weight="normal" text-decoration="none" x="526.5" y="312.5">0..*</text></g></g><g transform="translate(-30,-22) scale(1,1)"><path fill="none" stroke="#000000" d="M 441 463 L 616 463 M 616 463 A 8 8 0 0 0 624 455 L 624 433" stroke-miterlimit="10" stroke-dasharray="3"></path></g><g transform="translate(-30,-22) scale(1,1)"><path fill="none" stroke="#000000" d="M 396 265 L 396 294" stroke-miterlimit="10" stroke-dasharray="3"></path></g><g transform="translate(-30,-22) scale(1,1)"><path fill="none" stroke="#000000" d="M 80 394 L 80 416 M 80 416 A 8 8 0 0 0 88 424 L 248 424 M 248 424 A 8 8 0 0 0 256 416 L 256 402" stroke-miterlimit="10"></path></g><g transform="translate(-30,-22) scale(1,1)"><g><path fill="none" stroke="none"></path><text fill="#000000" stroke="none" font-family="Arial" font-size="13px" font-style="normal" font-weight="normal" text-decoration="none" x="56.5" y="421.5">0..*</text></g></g><g transform="translate(-30,-22) scale(1,1)"><g><path fill="none" stroke="none"></path><text fill="#000000" stroke="none" font-family="Arial" font-size="13px" font-style="normal" font-weight="normal" text-decoration="none" x="257.5" y="429.5">0..*</text></g></g><g transform="translate(-30,-22) scale(1,1)"><path fill="none" stroke="#000000" d="M 327 460 L 176 460 M 176 460 A 8 8 0 0 1 168 452 L 168 425" stroke-miterlimit="10" stroke-dasharray="3"></path></g><g transform="translate(-30,-22) scale(1,1)"><rect fill="#C0C0C0" stroke="none" x="543" y="39" width="136" height="65" opacity="0.2"></rect></g><g transform="translate(-30,-22) scale(1,1)"><rect fill="#ffffff" stroke="none" x="536" y="32" width="136" height="65"></rect></g><g transform="translate(-30,-22) scale(1,1)"><path fill="none" stroke="#000000" d="M 536 32 L 672 32 L 672 97 L 536 97 L 536 32 Z Z" stroke-miterlimit="10"></path></g><g transform="translate(-30,-22) scale(1,1)"><g><path fill="none" stroke="none"></path><text fill="#000000" stroke="none" font-family="Arial" font-size="13px" font-style="normal" font-weight="normal" text-decoration="none" x="567.5" y="49.5">«Document»</text></g></g><g transform="translate(-30,-22) scale(1,1)"><g><path fill="none" stroke="none"></path><text fill="#000000" stroke="none" font-family="Arial" font-size="13px" font-style="normal" font-weight="bold" text-decoration="none" x="559" y="64.5">Carta de Apoyo</text><text fill="#000000" stroke="none" font-family="Arial" font-size="13px" font-style="normal" font-weight="bold" text-decoration="none" x="569" y="77.5">Institucional</text></g></g><g transform="translate(-30,-22) scale(1,1)"><g><path fill="none" stroke="none"></path><text fill="#000000" stroke="none" font-family="Arial" font-size="13px" font-style="normal" font-weight="normal" text-decoration="none" x="552" y="92.5">(from Documento)</text></g></g><g transform="translate(-30,-22) scale(1,1)"><rect fill="#C0C0C0" stroke="none" x="103" y="39" width="144" height="65" opacity="0.2"></rect></g><g transform="translate(-30,-22) scale(1,1)"><rect fill="#ffffff" stroke="none" x="96" y="32" width="144" height="65"></rect></g><g transform="translate(-30,-22) scale(1,1)"><path fill="none" stroke="#000000" d="M 96 32 L 240 32 L 240 97 L 96 97 L 96 32 Z Z" stroke-miterlimit="10"></path></g><g transform="translate(-30,-22) scale(1,1)"><g><path fill="none" stroke="none"></path><text fill="#000000" stroke="none" font-family="Arial" font-size="13px" font-style="normal" font-weight="normal" text-decoration="none" x="131.5" y="49.5">«Document»</text></g></g><g transform="translate(-30,-22) scale(1,1)"><g><path fill="none" stroke="none"></path><text fill="#000000" stroke="none" font-family="Arial" font-size="13px" font-style="normal" font-weight="bold" text-decoration="none" x="123" y="64.5">Carta Oficial de</text><text fill="#000000" stroke="none" font-family="Arial" font-size="13px" font-style="normal" font-weight="bold" text-decoration="none" x="134" y="77.5">Postulación</text></g></g><g transform="translate(-30,-22) scale(1,1)"><g><path fill="none" stroke="none"></path><text fill="#000000" stroke="none" font-family="Arial" font-size="13px" font-style="normal" font-weight="normal" text-decoration="none" x="116" y="92.5">(from Documento)</text></g></g><g transform="translate(-30,-22) scale(1,1)"><path fill="none" stroke="#000000" d="M 170 143 L 169 98" stroke-miterlimit="10"></path></g><g transform="translate(-30,-22) scale(1,1)"><path fill="none" stroke="#000000" d="M 173.43426023114176 108.06664473409658 L 169 98 L 165.01730272371063 108.25368823426172" stroke-miterlimit="10"></path></g><g transform="translate(-30,-22) scale(1,1)"><g><path fill="none" stroke="none"></path><text fill="#000000" stroke="none" font-family="Arial" font-size="13px" font-style="normal" font-weight="normal" text-decoration="none" x="173.5" y="124.5">+firma</text></g></g><g transform="translate(-30,-22) scale(1,1)"><path fill="none" stroke="#000000" d="M 602 143 L 603 98" stroke-miterlimit="10"></path></g><g transform="translate(-30,-22) scale(1,1)"><path fill="none" stroke="#000000" d="M 606.9826972762894 108.25368823426172 L 603 98 L 598.5657397688582 108.06664473409658" stroke-miterlimit="10"></path></g><g transform="translate(-30,-22) scale(1,1)"><g><path fill="none" stroke="none"></path><text fill="#000000" stroke="none" font-family="Arial" font-size="13px" font-style="normal" font-weight="normal" text-decoration="none" x="605.5" y="124.5">+firma</text></g></g><g transform="translate(-30,-22) scale(1,1)"><rect fill="#C0C0C0" stroke="none" x="127" y="151" width="100.0126953125" height="50" opacity="0.2"></rect></g><g transform="translate(-30,-22) scale(1,1)"><rect fill="#ffffff" stroke="none" x="120" y="144" width="100.0126953125" height="50"></rect></g><g transform="translate(-30,-22) scale(1,1)"><path fill="none" stroke="#000000" d="M 120 144 L 220.0126953125 144 L 220.0126953125 194 L 120 194 L 120 144 Z Z" stroke-miterlimit="10"></path></g><g transform="translate(-30,-22) scale(1,1)"><g><path fill="none" stroke="none"></path><text fill="#000000" stroke="none" font-family="Arial" font-size="13px" font-style="normal" font-weight="normal" text-decoration="none" x="153.50634765625" y="161.5">«Rol»</text></g></g><g transform="translate(-30,-22) scale(1,1)"><g><path fill="none" stroke="none"></path><text fill="#000000" stroke="none" font-family="Arial" font-size="13px" font-style="normal" font-weight="bold" text-decoration="none" x="128.00634765625" y="176.5">Representante</text><text fill="#000000" stroke="none" font-family="Arial" font-size="13px" font-style="normal" font-weight="bold" text-decoration="none" x="154.50634765625" y="189.5">Legal</text></g></g></g></svg>