<svg version="1.1" xmlns="http://www.w3.org/2000/svg" xmlns:xlink="http://www.w3.org/1999/xlink" width="364" height="632"><defs/><g><text fill="#eeeeee" stroke="none" font-family="Arial" font-size="24px" font-style="normal" font-weight="normal" text-decoration="none" x="0" y="0">UNREGISTERED</text><text fill="#eeeeee" stroke="none" font-family="Arial" font-size="24px" font-style="normal" font-weight="normal" text-decoration="none" x="0" y="30">UNREGISTERED</text><text fill="#eeeeee" stroke="none" font-family="Arial" font-size="24px" font-style="normal" font-weight="normal" text-decoration="none" x="0" y="60">UNREGISTERED</text><text fill="#eeeeee" stroke="none" font-family="Arial" font-size="24px" font-style="normal" font-weight="normal" text-decoration="none" x="0" y="90">UNREGISTERED</text><text fill="#eeeeee" stroke="none" font-family="Arial" font-size="24px" font-style="normal" font-weight="normal" text-decoration="none" x="0" y="120">UNREGISTERED</text><text fill="#eeeeee" stroke="none" font-family="Arial" font-size="24px" font-style="normal" font-weight="normal" text-decoration="none" x="0" y="150">UNREGISTERED</text><text fill="#eeeeee" stroke="none" font-family="Arial" font-size="24px" font-style="normal" font-weight="normal" text-decoration="none" x="0" y="180">UNREGISTERED</text><text fill="#eeeeee" stroke="none" font-family="Arial" font-size="24px" font-style="normal" font-weight="normal" text-decoration="none" x="0" y="210">UNREGISTERED</text><text fill="#eeeeee" stroke="none" font-family="Arial" font-size="24px" font-style="normal" font-weight="normal" text-decoration="none" x="0" y="240">UNREGISTERED</text><text fill="#eeeeee" stroke="none" font-family="Arial" font-size="24px" font-style="normal" font-weight="normal" text-decoration="none" x="0" y="270">UNREGISTERED</text><text fill="#eeeeee" stroke="none" font-family="Arial" font-size="24px" font-style="normal" font-weight="normal" text-decoration="none" x="0" y="300">UNREGISTERED</text><text fill="#eeeeee" stroke="none" font-family="Arial" font-size="24px" font-style="normal" font-weight="normal" text-decoration="none" x="0" y="330">UNREGISTERED</text><text fill="#eeeeee" stroke="none" font-family="Arial" font-size="24px" font-style="normal" font-weight="normal" text-decoration="none" x="0" y="360">UNREGISTERED</text><text fill="#eeeeee" stroke="none" font-family="Arial" font-size="24px" font-style="normal" font-weight="normal" text-decoration="none" x="0" y="390">UNREGISTERED</text><text fill="#eeeeee" stroke="none" font-family="Arial" font-size="24px" font-style="normal" font-weight="normal" text-decoration="none" x="0" y="420">UNREGISTERED</text><text fill="#eeeeee" stroke="none" font-family="Arial" font-size="24px" font-style="normal" font-weight="normal" text-decoration="none" x="0" y="450">UNREGISTERED</text><text fill="#eeeeee" stroke="none" font-family="Arial" font-size="24px" font-style="normal" font-weight="normal" text-decoration="none" x="0" y="480">UNREGISTERED</text><text fill="#eeeeee" stroke="none" font-family="Arial" font-size="24px" font-style="normal" font-weight="normal" text-decoration="none" x="0" y="510">UNREGISTERED</text><text fill="#eeeeee" stroke="none" font-family="Arial" font-size="24px" font-style="normal" font-weight="normal" text-decoration="none" x="0" y="540">UNREGISTERED</text><text fill="#eeeeee" stroke="none" font-family="Arial" font-size="24px" font-style="normal" font-weight="normal" text-decoration="none" x="0" y="570">UNREGISTERED</text><text fill="#eeeeee" stroke="none" font-family="Arial" font-size="24px" font-style="normal" font-weight="normal" text-decoration="none" x="0" y="600">UNREGISTERED</text><text fill="#eeeeee" stroke="none" font-family="Arial" font-size="24px" font-style="normal" font-weight="normal" text-decoration="none" x="0" y="630">UNREGISTERED</text><text fill="#eeeeee" stroke="none" font-family="Arial" font-size="24px" font-style="normal" font-weight="normal" text-decoration="none" x="200" y="0">UNREGISTERED</text><text fill="#eeeeee" stroke="none" font-family="Arial" font-size="24px" font-style="normal" font-weight="normal" text-decoration="none" x="200" y="30">UNREGISTERED</text><text fill="#eeeeee" stroke="none" font-family="Arial" font-size="24px" font-style="normal" font-weight="normal" text-decoration="none" x="200" y="60">UNREGISTERED</text><text fill="#eeeeee" stroke="none" font-family="Arial" font-size="24px" font-style="normal" font-weight="normal" text-decoration="none" x="200" y="90">UNREGISTERED</text><text fill="#eeeeee" stroke="none" font-family="Arial" font-size="24px" font-style="normal" font-weight="normal" text-decoration="none" x="200" y="120">UNREGISTERED</text><text fill="#eeeeee" stroke="none" font-family="Arial" font-size="24px" font-style="normal" font-weight="normal" text-decoration="none" x="200" y="150">UNREGISTERED</text><text fill="#eeeeee" stroke="none" font-family="Arial" font-size="24px" font-style="normal" font-weight="normal" text-decoration="none" x="200" y="180">UNREGISTERED</text><text fill="#eeeeee" stroke="none" font-family="Arial" font-size="24px" font-style="normal" font-weight="normal" text-decoration="none" x="200" y="210">UNREGISTERED</text><text fill="#eeeeee" stroke="none" font-family="Arial" font-size="24px" font-style="normal" font-weight="normal" text-decoration="none" x="200" y="240">UNREGISTERED</text><text fill="#eeeeee" stroke="none" font-family="Arial" font-size="24px" font-style="normal" font-weight="normal" text-decoration="none" x="200" y="270">UNREGISTERED</text><text fill="#eeeeee" stroke="none" font-family="Arial" font-size="24px" font-style="normal" font-weight="normal" text-decoration="none" x="200" y="300">UNREGISTERED</text><text fill="#eeeeee" stroke="none" font-family="Arial" font-size="24px" font-style="normal" font-weight="normal" text-decoration="none" x="200" y="330">UNREGISTERED</text><text fill="#eeeeee" stroke="none" font-family="Arial" font-size="24px" font-style="normal" font-weight="normal" text-decoration="none" x="200" y="360">UNREGISTERED</text><text fill="#eeeeee" stroke="none" font-family="Arial" font-size="24px" font-style="normal" font-weight="normal" text-decoration="none" x="200" y="390">UNREGISTERED</text><text fill="#eeeeee" stroke="none" font-family="Arial" font-size="24px" font-style="normal" font-weight="normal" text-decoration="none" x="200" y="420">UNREGISTERED</text><text fill="#eeeeee" stroke="none" font-family="Arial" font-size="24px" font-style="normal" font-weight="normal" text-decoration="none" x="200" y="450">UNREGISTERED</text><text fill="#eeeeee" stroke="none" font-family="Arial" font-size="24px" font-style="normal" font-weight="normal" text-decoration="none" x="200" y="480">UNREGISTERED</text><text fill="#eeeeee" stroke="none" font-family="Arial" font-size="24px" font-style="normal" font-weight="normal" text-decoration="none" x="200" y="510">UNREGISTERED</text><text fill="#eeeeee" stroke="none" font-family="Arial" font-size="24px" font-style="normal" font-weight="normal" text-decoration="none" x="200" y="540">UNREGISTERED</text><text fill="#eeeeee" stroke="none" font-family="Arial" font-size="24px" font-style="normal" font-weight="normal" text-decoration="none" x="200" y="570">UNREGISTERED</text><text fill="#eeeeee" stroke="none" font-family="Arial" font-size="24px" font-style="normal" font-weight="normal" text-decoration="none" x="200" y="600">UNREGISTERED</text><text fill="#eeeeee" stroke="none" font-family="Arial" font-size="24px" font-style="normal" font-weight="normal" text-decoration="none" x="200" y="630">UNREGISTERED</text><g transform="translate(-78,-62) scale(1,1)"><path fill="#ffffff" stroke="none" d="M 132.67936985085228 93.68 C 132.67936985085228 88.886167936 136.56521217579774 85 141.358642578125 85 C 146.15207298045226 85 150.03791530539772 88.886167936 150.03791530539772 93.68 C 150.03791530539772 98.473832064 146.15207298045226 102.36 141.358642578125 102.36 C 136.56521217579774 102.36 132.67936985085228 98.473832064 132.67936985085228 93.68 Z"/></g><g transform="translate(-78,-62) scale(1,1)"><path fill="none" stroke="#000000" d="M 132.67936985085228 93.68 C 132.67936985085228 88.886167936 136.56521217579774 85 141.358642578125 85 C 146.15207298045226 85 150.03791530539772 88.886167936 150.03791530539772 93.68 C 150.03791530539772 98.473832064 146.15207298045226 102.36 141.358642578125 102.36 C 136.56521217579774 102.36 132.67936985085228 98.473832064 132.67936985085228 93.68 Z" stroke-miterlimit="10"/></g><g transform="translate(-78,-62) scale(1,1)"><path fill="none" stroke="#000000" d="M 141.358642578125 102.36 L 141.358642578125 119.64" stroke-miterlimit="10"/></g><g transform="translate(-78,-62) scale(1,1)"><path fill="none" stroke="#000000" d="M 132.16882439630683 108.84 L 150.54846075994317 108.84" stroke-miterlimit="10"/></g><g transform="translate(-78,-62) scale(1,1)"><path fill="none" stroke="#000000" d="M 141.358642578125 119.64 L 128.59500621448865 137" stroke-miterlimit="10"/></g><g transform="translate(-78,-62) scale(1,1)"><path fill="none" stroke="#000000" d="M 141.358642578125 119.64 L 154.12227894176135 137" stroke-miterlimit="10"/></g><g transform="translate(-78,-62) scale(1,1)"><g><path fill="none" stroke="none"/><text fill="#000000" stroke="none" font-family="Arial" font-size="13px" font-style="normal" font-weight="bold" text-decoration="none" x="112.0927734375" y="157.5">Institución</text></g></g><g transform="translate(-78,-62) scale(1,1)"><path fill="#ffffff" stroke="none" d="M 123.10026828835228 233.68 C 123.10026828835228 228.886167936 126.98611061329774 225 131.779541015625 225 C 136.57297141795226 225 140.45881374289772 228.886167936 140.45881374289772 233.68 C 140.45881374289772 238.47383206400002 136.57297141795226 242.36 131.779541015625 242.36 C 126.98611061329774 242.36 123.10026828835228 238.47383206400002 123.10026828835228 233.68 Z"/></g><g transform="translate(-78,-62) scale(1,1)"><path fill="none" stroke="#000000" d="M 123.10026828835228 233.68 C 123.10026828835228 228.886167936 126.98611061329774 225 131.779541015625 225 C 136.57297141795226 225 140.45881374289772 228.886167936 140.45881374289772 233.68 C 140.45881374289772 238.47383206400002 136.57297141795226 242.36 131.779541015625 242.36 C 126.98611061329774 242.36 123.10026828835228 238.47383206400002 123.10026828835228 233.68 Z" stroke-miterlimit="10"/></g><g transform="translate(-78,-62) scale(1,1)"><path fill="none" stroke="#000000" d="M 131.779541015625 242.36 L 131.779541015625 259.64" stroke-miterlimit="10"/></g><g transform="translate(-78,-62) scale(1,1)"><path fill="none" stroke="#000000" d="M 122.58972283380683 248.84 L 140.96935919744317 248.84" stroke-miterlimit="10"/></g><g transform="translate(-78,-62) scale(1,1)"><path fill="none" stroke="#000000" d="M 131.779541015625 259.64 L 119.01590465198865 277" stroke-miterlimit="10"/></g><g transform="translate(-78,-62) scale(1,1)"><path fill="none" stroke="#000000" d="M 131.779541015625 259.64 L 144.54317737926135 277" stroke-miterlimit="10"/></g><g transform="translate(-78,-62) scale(1,1)"><g><path fill="none" stroke="none"/><text fill="#000000" stroke="none" font-family="Arial" font-size="13px" font-style="normal" font-weight="bold" text-decoration="none" x="113.34912109375" y="297.5">Sujeto</text><text fill="#000000" stroke="none" font-family="Arial" font-size="13px" font-style="normal" font-weight="bold" text-decoration="none" x="124.549560546875" y="310.5">de</text><text fill="#000000" stroke="none" font-family="Arial" font-size="13px" font-style="normal" font-weight="bold" text-decoration="none" x="113.34912109375" y="323.5">Apoyo</text></g></g><g transform="translate(-78,-62) scale(1,1)"><path fill="#ffffff" stroke="none" d="M 131.49162571022728 473.68 C 131.49162571022728 468.886167936 135.37746803517274 465 140.1708984375 465 C 144.96432883982726 465 148.85017116477272 468.886167936 148.85017116477272 473.68 C 148.85017116477272 478.473832064 144.96432883982726 482.36 140.1708984375 482.36 C 135.37746803517274 482.36 131.49162571022728 478.473832064 131.49162571022728 473.68 Z"/></g><g transform="translate(-78,-62) scale(1,1)"><path fill="none" stroke="#000000" d="M 131.49162571022728 473.68 C 131.49162571022728 468.886167936 135.37746803517274 465 140.1708984375 465 C 144.96432883982726 465 148.85017116477272 468.886167936 148.85017116477272 473.68 C 148.85017116477272 478.473832064 144.96432883982726 482.36 140.1708984375 482.36 C 135.37746803517274 482.36 131.49162571022728 478.473832064 131.49162571022728 473.68 Z" stroke-miterlimit="10"/></g><g transform="translate(-78,-62) scale(1,1)"><path fill="none" stroke="#000000" d="M 140.1708984375 482.36 L 140.1708984375 499.64" stroke-miterlimit="10"/></g><g transform="translate(-78,-62) scale(1,1)"><path fill="none" stroke="#000000" d="M 130.98108025568183 488.84 L 149.36071661931817 488.84" stroke-miterlimit="10"/></g><g transform="translate(-78,-62) scale(1,1)"><path fill="none" stroke="#000000" d="M 140.1708984375 499.64 L 127.40726207386365 517" stroke-miterlimit="10"/></g><g transform="translate(-78,-62) scale(1,1)"><path fill="none" stroke="#000000" d="M 140.1708984375 499.64 L 152.93453480113635 517" stroke-miterlimit="10"/></g><g transform="translate(-78,-62) scale(1,1)"><g><path fill="none" stroke="none"/><text fill="#000000" stroke="none" font-family="Arial" font-size="13px" font-style="normal" font-weight="bold" text-decoration="none" x="95.004150390625" y="537.5">Co-Reponsable</text></g></g><g transform="translate(-78,-62) scale(1,1)"><path fill="#ffffff" stroke="none" d="M 356.0412567471591 83.03999999999999 C 356.0412567471591 77.49506060799999 360.50277941654093 73 366.00634765625 73 C 371.50991589595907 73 375.9714385653409 77.49506060799999 375.9714385653409 83.03999999999999 C 375.9714385653409 88.584939392 371.50991589595907 93.08 366.00634765625 93.08 C 360.50277941654093 93.08 356.0412567471591 88.584939392 356.0412567471591 83.03999999999999 Z"/></g><g transform="translate(-78,-62) scale(1,1)"><path fill="none" stroke="#000000" d="M 356.0412567471591 83.03999999999999 C 356.0412567471591 77.49506060799999 360.50277941654093 73 366.00634765625 73 C 371.50991589595907 73 375.9714385653409 77.49506060799999 375.9714385653409 83.03999999999999 C 375.9714385653409 88.584939392 371.50991589595907 93.08 366.00634765625 93.08 C 360.50277941654093 93.08 356.0412567471591 88.584939392 356.0412567471591 83.03999999999999 Z" stroke-miterlimit="10"/></g><g transform="translate(-78,-62) scale(1,1)"><path fill="none" stroke="#000000" d="M 366.00634765625 93.08 L 366.00634765625 112.92" stroke-miterlimit="10"/></g><g transform="translate(-78,-62) scale(1,1)"><path fill="none" stroke="#000000" d="M 355.4550749289773 100.52 L 376.5576203835227 100.52" stroke-miterlimit="10"/></g><g transform="translate(-78,-62) scale(1,1)"><path fill="none" stroke="#000000" d="M 366.00634765625 112.92 L 351.3518022017046 133" stroke-miterlimit="10"/></g><g transform="translate(-78,-62) scale(1,1)"><path fill="none" stroke="#000000" d="M 366.00634765625 112.92 L 380.6608931107954 133" stroke-miterlimit="10"/></g><g transform="translate(-78,-62) scale(1,1)"><g><path fill="none" stroke="none"/><text fill="#000000" stroke="none" font-family="Arial" font-size="13px" font-style="normal" font-weight="bold" text-decoration="none" x="328.063232421875" y="153.5">Responsable</text><text fill="#000000" stroke="none" font-family="Arial" font-size="13px" font-style="normal" font-weight="bold" text-decoration="none" x="325.187744140625" y="166.5">Administrativo</text></g></g><g transform="translate(-78,-62) scale(1,1)"><path fill="#ffffff" stroke="none" d="M 362.0349090909091 467.03999999999996 C 362.0349090909091 461.49506060799996 366.49643176029093 457 372 457 C 377.50356823970907 457 381.9650909090909 461.49506060799996 381.9650909090909 467.03999999999996 C 381.9650909090909 472.58493939199997 377.50356823970907 477.08 372 477.08 C 366.49643176029093 477.08 362.0349090909091 472.58493939199997 362.0349090909091 467.03999999999996 Z"/></g><g transform="translate(-78,-62) scale(1,1)"><path fill="none" stroke="#000000" d="M 362.0349090909091 467.03999999999996 C 362.0349090909091 461.49506060799996 366.49643176029093 457 372 457 C 377.50356823970907 457 381.9650909090909 461.49506060799996 381.9650909090909 467.03999999999996 C 381.9650909090909 472.58493939199997 377.50356823970907 477.08 372 477.08 C 366.49643176029093 477.08 362.0349090909091 472.58493939199997 362.0349090909091 467.03999999999996 Z" stroke-miterlimit="10"/></g><g transform="translate(-78,-62) scale(1,1)"><path fill="none" stroke="#000000" d="M 372 477.08 L 372 496.92" stroke-miterlimit="10"/></g><g transform="translate(-78,-62) scale(1,1)"><path fill="none" stroke="#000000" d="M 361.4487272727273 484.52 L 382.5512727272727 484.52" stroke-miterlimit="10"/></g><g transform="translate(-78,-62) scale(1,1)"><path fill="none" stroke="#000000" d="M 372 496.92 L 357.3454545454546 517" stroke-miterlimit="10"/></g><g transform="translate(-78,-62) scale(1,1)"><path fill="none" stroke="#000000" d="M 372 496.92 L 386.6545454545454 517" stroke-miterlimit="10"/></g><g transform="translate(-78,-62) scale(1,1)"><g><path fill="none" stroke="none"/><text fill="#000000" stroke="none" font-family="Arial" font-size="13px" font-style="normal" font-weight="bold" text-decoration="none" x="323.583251953125" y="537.5">Co-Responsable</text><text fill="#000000" stroke="none" font-family="Arial" font-size="13px" font-style="normal" font-weight="bold" text-decoration="none" x="331.181396484375" y="550.5">Administrativo</text></g></g><g transform="translate(-78,-62) scale(1,1)"><path fill="#ffffff" stroke="none" d="M 362.0349090909091 347.03999999999996 C 362.0349090909091 341.49506060799996 366.49643176029093 337 372 337 C 377.50356823970907 337 381.9650909090909 341.49506060799996 381.9650909090909 347.03999999999996 C 381.9650909090909 352.58493939199997 377.50356823970907 357.08 372 357.08 C 366.49643176029093 357.08 362.0349090909091 352.58493939199997 362.0349090909091 347.03999999999996 Z"/></g><g transform="translate(-78,-62) scale(1,1)"><path fill="none" stroke="#000000" d="M 362.0349090909091 347.03999999999996 C 362.0349090909091 341.49506060799996 366.49643176029093 337 372 337 C 377.50356823970907 337 381.9650909090909 341.49506060799996 381.9650909090909 347.03999999999996 C 381.9650909090909 352.58493939199997 377.50356823970907 357.08 372 357.08 C 366.49643176029093 357.08 362.0349090909091 352.58493939199997 362.0349090909091 347.03999999999996 Z" stroke-miterlimit="10"/></g><g transform="translate(-78,-62) scale(1,1)"><path fill="none" stroke="#000000" d="M 372 357.08 L 372 376.92" stroke-miterlimit="10"/></g><g transform="translate(-78,-62) scale(1,1)"><path fill="none" stroke="#000000" d="M 361.4487272727273 364.52 L 382.5512727272727 364.52" stroke-miterlimit="10"/></g><g transform="translate(-78,-62) scale(1,1)"><path fill="none" stroke="#000000" d="M 372 376.92 L 357.3454545454546 397" stroke-miterlimit="10"/></g><g transform="translate(-78,-62) scale(1,1)"><path fill="none" stroke="#000000" d="M 372 376.92 L 386.6545454545454 397" stroke-miterlimit="10"/></g><g transform="translate(-78,-62) scale(1,1)"><g><path fill="none" stroke="none"/><text fill="#000000" stroke="none" font-family="Arial" font-size="13px" font-style="normal" font-weight="bold" text-decoration="none" x="329.359619140625" y="417.5">Representante</text><text fill="#000000" stroke="none" font-family="Arial" font-size="13px" font-style="normal" font-weight="bold" text-decoration="none" x="356.095947265625" y="430.5">Legal</text></g></g><g transform="translate(-78,-62) scale(1,1)"><path fill="#ffffff" stroke="none" d="M 364.27751438210225 233.68 C 364.27751438210225 228.886167936 368.16335670704774 225 372.956787109375 225 C 377.75021751170226 225 381.63605983664775 228.886167936 381.63605983664775 233.68 C 381.63605983664775 238.47383206400002 377.75021751170226 242.36 372.956787109375 242.36 C 368.16335670704774 242.36 364.27751438210225 238.47383206400002 364.27751438210225 233.68 Z"/></g><g transform="translate(-78,-62) scale(1,1)"><path fill="none" stroke="#000000" d="M 364.27751438210225 233.68 C 364.27751438210225 228.886167936 368.16335670704774 225 372.956787109375 225 C 377.75021751170226 225 381.63605983664775 228.886167936 381.63605983664775 233.68 C 381.63605983664775 238.47383206400002 377.75021751170226 242.36 372.956787109375 242.36 C 368.16335670704774 242.36 364.27751438210225 238.47383206400002 364.27751438210225 233.68 Z" stroke-miterlimit="10"/></g><g transform="translate(-78,-62) scale(1,1)"><path fill="none" stroke="#000000" d="M 372.956787109375 242.36 L 372.956787109375 259.64" stroke-miterlimit="10"/></g><g transform="translate(-78,-62) scale(1,1)"><path fill="none" stroke="#000000" d="M 363.76696892755683 248.84 L 382.14660529119317 248.84" stroke-miterlimit="10"/></g><g transform="translate(-78,-62) scale(1,1)"><path fill="none" stroke="#000000" d="M 372.956787109375 259.64 L 360.19315074573865 277" stroke-miterlimit="10"/></g><g transform="translate(-78,-62) scale(1,1)"><path fill="none" stroke="#000000" d="M 372.956787109375 259.64 L 385.72042347301135 277" stroke-miterlimit="10"/></g><g transform="translate(-78,-62) scale(1,1)"><g><path fill="none" stroke="none"/><text fill="#000000" stroke="none" font-family="Arial" font-size="13px" font-style="normal" font-weight="bold" text-decoration="none" x="335.013671875" y="297.5">Responsable</text><text fill="#000000" stroke="none" font-family="Arial" font-size="13px" font-style="normal" font-weight="bold" text-decoration="none" x="350.197265625" y="310.5">Técnico</text></g></g><g transform="translate(-78,-62) scale(1,1)"><path fill="none" stroke="#000000" d="M 180 123 L 311 122" stroke-miterlimit="10"/></g><g transform="translate(-78,-62) scale(1,1)"><path fill="none" stroke="#000000" d="M 300.8697540145421 126.28697052405468 L 311 122 L 300.80548844028897 117.86818029690082" stroke-miterlimit="10"/></g><g transform="translate(-78,-62) scale(1,1)"><g><path fill="none" stroke="none"/><text fill="#000000" stroke="none" font-family="Arial" font-size="13px" font-style="normal" font-weight="normal" text-decoration="none" x="227.5" y="113.5">+tiene</text></g></g><g transform="translate(-78,-62) scale(1,1)"><g><path fill="none" stroke="none"/><text fill="#000000" stroke="none" font-family="Arial" font-size="13px" font-style="normal" font-weight="normal" text-decoration="none" x="279.5" y="140.5">1..*</text></g></g><g transform="translate(-78,-62) scale(1,1)"><path fill="none" stroke="#000000" d="M 161 257 L 311 158" stroke-miterlimit="10"/></g><g transform="translate(-78,-62) scale(1,1)"><g><path fill="none" stroke="none"/><text fill="#000000" stroke="none" font-family="Arial" font-size="13px" font-style="normal" font-weight="normal" text-decoration="none" x="205.5" y="200.5">+define</text></g></g><g transform="translate(-78,-62) scale(1,1)"><g><path fill="none" stroke="none"/><text fill="#000000" stroke="none" font-family="Arial" font-size="13px" font-style="normal" font-weight="normal" text-decoration="none" x="295.5" y="186.5">1</text></g></g><g transform="translate(-78,-62) scale(1,1)"><path fill="none" stroke="#000000" d="M 193 504 L 311 505" stroke-miterlimit="10"/></g><g transform="translate(-78,-62) scale(1,1)"><path fill="none" stroke="#000000" d="M 300.8020174581266 509.1232453329442 L 311 505 L 300.8733626547987 500.70451212563995" stroke-miterlimit="10"/></g><g transform="translate(-78,-62) scale(1,1)"><g><path fill="none" stroke="none"/><text fill="#000000" stroke="none" font-family="Arial" font-size="13px" font-style="normal" font-weight="normal" text-decoration="none" x="224.5" y="482.5">+define</text></g></g><g transform="translate(-78,-62) scale(1,1)"><g><path fill="none" stroke="none"/><text fill="#000000" stroke="none" font-family="Arial" font-size="13px" font-style="normal" font-weight="normal" text-decoration="none" x="285.5" y="523.5">1</text></g></g><g transform="translate(-78,-62) scale(1,1)"><path fill="none" stroke="#000000" d="M 161 289 L 319 362" stroke-miterlimit="10"/></g><g transform="translate(-78,-62) scale(1,1)"><path fill="none" stroke="#000000" d="M 308.0088472705984 361.55890853673304 L 319 362 L 311.5399801367826 353.9161826071835" stroke-miterlimit="10"/></g><g transform="translate(-78,-62) scale(1,1)"><g><path fill="none" stroke="none"/><text fill="#000000" stroke="none" font-family="Arial" font-size="13px" font-style="normal" font-weight="normal" text-decoration="none" x="224.5" y="317.5">+define</text></g></g><g transform="translate(-78,-62) scale(1,1)"><path fill="none" stroke="#000000" d="M 161 275 L 327 271" stroke-miterlimit="10"/></g><g transform="translate(-78,-62) scale(1,1)"><path fill="none" stroke="#000000" d="M 316.9416789920277 275.4531088579309 L 327 271 L 316.73886953710684 267.03651647871646" stroke-miterlimit="10"/></g><g transform="translate(-78,-62) scale(1,1)"><g><path fill="none" stroke="none"/><text fill="#000000" stroke="none" font-family="Arial" font-size="13px" font-style="normal" font-weight="normal" text-decoration="none" x="221.5" y="264.5">+define</text></g></g><g transform="translate(-78,-62) scale(1,1)"><path fill="#ffffff" stroke="none" d="M 363.49162571022725 601.6800000000001 C 363.49162571022725 596.8861679360001 367.37746803517274 593 372.1708984375 593 C 376.96432883982726 593 380.85017116477275 596.8861679360001 380.85017116477275 601.6800000000001 C 380.85017116477275 606.473832064 376.96432883982726 610.36 372.1708984375 610.36 C 367.37746803517274 610.36 363.49162571022725 606.473832064 363.49162571022725 601.6800000000001 Z"/></g><g transform="translate(-78,-62) scale(1,1)"><path fill="none" stroke="#000000" d="M 363.49162571022725 601.6800000000001 C 363.49162571022725 596.8861679360001 367.37746803517274 593 372.1708984375 593 C 376.96432883982726 593 380.85017116477275 596.8861679360001 380.85017116477275 601.6800000000001 C 380.85017116477275 606.473832064 376.96432883982726 610.36 372.1708984375 610.36 C 367.37746803517274 610.36 363.49162571022725 606.473832064 363.49162571022725 601.6800000000001 Z" stroke-miterlimit="10"/></g><g transform="translate(-78,-62) scale(1,1)"><path fill="none" stroke="#000000" d="M 372.1708984375 610.36 L 372.1708984375 627.64" stroke-miterlimit="10"/></g><g transform="translate(-78,-62) scale(1,1)"><path fill="none" stroke="#000000" d="M 362.98108025568183 616.84 L 381.36071661931817 616.84" stroke-miterlimit="10"/></g><g transform="translate(-78,-62) scale(1,1)"><path fill="none" stroke="#000000" d="M 372.1708984375 627.64 L 359.40726207386365 645" stroke-miterlimit="10"/></g><g transform="translate(-78,-62) scale(1,1)"><path fill="none" stroke="#000000" d="M 372.1708984375 627.64 L 384.93453480113635 645" stroke-miterlimit="10"/></g><g transform="translate(-78,-62) scale(1,1)"><g><path fill="none" stroke="none"/><text fill="#000000" stroke="none" font-family="Arial" font-size="13px" font-style="normal" font-weight="bold" text-decoration="none" x="327.004150390625" y="665.5">Co-Reponsable</text><text fill="#000000" stroke="none" font-family="Arial" font-size="13px" font-style="normal" font-weight="bold" text-decoration="none" x="349.411376953125" y="678.5">Técnico</text></g></g><g transform="translate(-78,-62) scale(1,1)"><path fill="none" stroke="#000000" d="M 193 534 L 319 607" stroke-miterlimit="10"/></g><g transform="translate(-78,-62) scale(1,1)"><path fill="none" stroke="#000000" d="M 308.0962866913673 605.547747927133 L 319 607 L 312.31680766806835 598.2630130906354" stroke-miterlimit="10"/></g><g transform="translate(-78,-62) scale(1,1)"><g><path fill="none" stroke="none"/><text fill="#000000" stroke="none" font-family="Arial" font-size="13px" font-style="normal" font-weight="normal" text-decoration="none" x="241.5" y="563.5">+define</text></g></g><g transform="translate(-78,-62) scale(1,1)"><g><path fill="none" stroke="none"/><text fill="#000000" stroke="none" font-family="Arial" font-size="13px" font-style="normal" font-weight="normal" text-decoration="none" x="290.5" y="612.5">1</text></g></g><g transform="translate(-78,-62) scale(1,1)"><path fill="none" stroke="#000000" d="M 193 476 L 319 413" stroke-miterlimit="10"/></g><g transform="translate(-78,-62) scale(1,1)"><path fill="none" stroke="#000000" d="M 311.7927808450386 421.3099935049528 L 319 413 L 308.02767370306094 413.77977922099745" stroke-miterlimit="10"/></g><g transform="translate(-78,-62) scale(1,1)"><g><path fill="none" stroke="none"/><text fill="#000000" stroke="none" font-family="Arial" font-size="13px" font-style="normal" font-weight="normal" text-decoration="none" x="227.5" y="436.5">+define</text></g></g><g transform="translate(-78,-62) scale(1,1)"><g><path fill="none" stroke="none"/><text fill="#000000" stroke="none" font-family="Arial" font-size="13px" font-style="normal" font-weight="normal" text-decoration="none" x="301.5" y="439.5">1</text></g></g></g></svg>