<svg version="1.1" xmlns="http://www.w3.org/2000/svg" xmlns:xlink="http://www.w3.org/1999/xlink" width="364" height="632"><defs></defs><g><g transform="translate(-78,-62) scale(1,1)"><path fill="#ffffff" stroke="none" d="M 132.82072727272728 93.68 C 132.82072727272728 88.886167936 136.70656959767274 85 141.5 85 C 146.29343040232726 85 150.17927272727272 88.886167936 150.17927272727272 93.68 C 150.17927272727272 98.473832064 146.29343040232726 102.36 141.5 102.36 C 136.70656959767274 102.36 132.82072727272728 98.473832064 132.82072727272728 93.68 Z"></path></g><g transform="translate(-78,-62) scale(1,1)"><path fill="none" stroke="#000000" d="M 132.82072727272728 93.68 C 132.82072727272728 88.886167936 136.70656959767274 85 141.5 85 C 146.29343040232726 85 150.17927272727272 88.886167936 150.17927272727272 93.68 C 150.17927272727272 98.473832064 146.29343040232726 102.36 141.5 102.36 C 136.70656959767274 102.36 132.82072727272728 98.473832064 132.82072727272728 93.68 Z" stroke-miterlimit="10"></path></g><g transform="translate(-78,-62) scale(1,1)"><path fill="none" stroke="#000000" d="M 141.5 102.36 L 141.5 119.64" stroke-miterlimit="10"></path></g><g transform="translate(-78,-62) scale(1,1)"><path fill="none" stroke="#000000" d="M 132.31018181818183 108.84 L 150.68981818181817 108.84" stroke-miterlimit="10"></path></g><g transform="translate(-78,-62) scale(1,1)"><path fill="none" stroke="#000000" d="M 141.5 119.64 L 128.73636363636365 137" stroke-miterlimit="10"></path></g><g transform="translate(-78,-62) scale(1,1)"><path fill="none" stroke="#000000" d="M 141.5 119.64 L 154.26363636363635 137" stroke-miterlimit="10"></path></g><g transform="translate(-78,-62) scale(1,1)"><g><path fill="none" stroke="none"></path><text fill="#000000" stroke="none" font-family="Arial" font-size="13px" font-style="normal" font-weight="bold" text-decoration="none" x="111.5" y="157.5">Institución</text></g></g><g transform="translate(-78,-62) scale(1,1)"><path fill="#ffffff" stroke="none" d="M 123.10026828835228 233.68 C 123.10026828835228 228.886167936 126.98611061329774 225 131.779541015625 225 C 136.57297141795226 225 140.45881374289772 228.886167936 140.45881374289772 233.68 C 140.45881374289772 238.47383206400002 136.57297141795226 242.36 131.779541015625 242.36 C 126.98611061329774 242.36 123.10026828835228 238.47383206400002 123.10026828835228 233.68 Z"></path></g><g transform="translate(-78,-62) scale(1,1)"><path fill="none" stroke="#000000" d="M 123.10026828835228 233.68 C 123.10026828835228 228.886167936 126.98611061329774 225 131.779541015625 225 C 136.57297141795226 225 140.45881374289772 228.886167936 140.45881374289772 233.68 C 140.45881374289772 238.47383206400002 136.57297141795226 242.36 131.779541015625 242.36 C 126.98611061329774 242.36 123.10026828835228 238.47383206400002 123.10026828835228 233.68 Z" stroke-miterlimit="10"></path></g><g transform="translate(-78,-62) scale(1,1)"><path fill="none" stroke="#000000" d="M 131.779541015625 242.36 L 131.779541015625 259.64" stroke-miterlimit="10"></path></g><g transform="translate(-78,-62) scale(1,1)"><path fill="none" stroke="#000000" d="M 122.58972283380683 248.84 L 140.96935919744317 248.84" stroke-miterlimit="10"></path></g><g transform="translate(-78,-62) scale(1,1)"><path fill="none" stroke="#000000" d="M 131.779541015625 259.64 L 119.01590465198865 277" stroke-miterlimit="10"></path></g><g transform="translate(-78,-62) scale(1,1)"><path fill="none" stroke="#000000" d="M 131.779541015625 259.64 L 144.54317737926135 277" stroke-miterlimit="10"></path></g><g transform="translate(-78,-62) scale(1,1)"><g><path fill="none" stroke="none"></path><text fill="#000000" stroke="none" font-family="Arial" font-size="13px" font-style="normal" font-weight="bold" text-decoration="none" x="113.279541015625" y="297.5">Sujeto</text><text fill="#000000" stroke="none" font-family="Arial" font-size="13px" font-style="normal" font-weight="bold" text-decoration="none" x="124.779541015625" y="310.5">de</text><text fill="#000000" stroke="none" font-family="Arial" font-size="13px" font-style="normal" font-weight="bold" text-decoration="none" x="113.279541015625" y="323.5">Apoyo</text></g></g><g transform="translate(-78,-62) scale(1,1)"><path fill="#ffffff" stroke="none" d="M 135.10661594460228 473.68 C 135.10661594460228 468.886167936 138.99245826954774 465 143.785888671875 465 C 148.57931907420226 465 152.46516139914772 468.886167936 152.46516139914772 473.68 C 152.46516139914772 478.473832064 148.57931907420226 482.36 143.785888671875 482.36 C 138.99245826954774 482.36 135.10661594460228 478.473832064 135.10661594460228 473.68 Z"></path></g><g transform="translate(-78,-62) scale(1,1)"><path fill="none" stroke="#000000" d="M 135.10661594460228 473.68 C 135.10661594460228 468.886167936 138.99245826954774 465 143.785888671875 465 C 148.57931907420226 465 152.46516139914772 468.886167936 152.46516139914772 473.68 C 152.46516139914772 478.473832064 148.57931907420226 482.36 143.785888671875 482.36 C 138.99245826954774 482.36 135.10661594460228 478.473832064 135.10661594460228 473.68 Z" stroke-miterlimit="10"></path></g><g transform="translate(-78,-62) scale(1,1)"><path fill="none" stroke="#000000" d="M 143.785888671875 482.36 L 143.785888671875 499.64" stroke-miterlimit="10"></path></g><g transform="translate(-78,-62) scale(1,1)"><path fill="none" stroke="#000000" d="M 134.59607049005683 488.84 L 152.97570685369317 488.84" stroke-miterlimit="10"></path></g><g transform="translate(-78,-62) scale(1,1)"><path fill="none" stroke="#000000" d="M 143.785888671875 499.64 L 131.02225230823865 517" stroke-miterlimit="10"></path></g><g transform="translate(-78,-62) scale(1,1)"><path fill="none" stroke="#000000" d="M 143.785888671875 499.64 L 156.54952503551135 517" stroke-miterlimit="10"></path></g><g transform="translate(-78,-62) scale(1,1)"><g><path fill="none" stroke="none"></path><text fill="#000000" stroke="none" font-family="Arial" font-size="13px" font-style="normal" font-weight="bold" text-decoration="none" x="96.285888671875" y="537.5">Co-Responsable</text></g></g><g transform="translate(-78,-62) scale(1,1)"><path fill="#ffffff" stroke="none" d="M 358.1307112926136 80.83 C 358.1307112926136 76.505610016 361.65675340228637 73 366.00634765625 73 C 370.35594191021363 73 373.8819840198864 76.505610016 373.8819840198864 80.83 C 373.8819840198864 85.15438998399999 370.35594191021363 88.66 366.00634765625 88.66 C 361.65675340228637 88.66 358.1307112926136 85.15438998399999 358.1307112926136 80.83 Z"></path></g><g transform="translate(-78,-62) scale(1,1)"><path fill="none" stroke="#000000" d="M 358.1307112926136 80.83 C 358.1307112926136 76.505610016 361.65675340228637 73 366.00634765625 73 C 370.35594191021363 73 373.8819840198864 76.505610016 373.8819840198864 80.83 C 373.8819840198864 85.15438998399999 370.35594191021363 88.66 366.00634765625 88.66 C 361.65675340228637 88.66 358.1307112926136 85.15438998399999 358.1307112926136 80.83 Z" stroke-miterlimit="10"></path></g><g transform="translate(-78,-62) scale(1,1)"><path fill="none" stroke="#000000" d="M 366.00634765625 88.66 L 366.00634765625 104.34" stroke-miterlimit="10"></path></g><g transform="translate(-78,-62) scale(1,1)"><path fill="none" stroke="#000000" d="M 357.6674385653409 94.53999999999999 L 374.3452567471591 94.53999999999999" stroke-miterlimit="10"></path></g><g transform="translate(-78,-62) scale(1,1)"><path fill="none" stroke="#000000" d="M 366.00634765625 104.34 L 354.4245294744318 120" stroke-miterlimit="10"></path></g><g transform="translate(-78,-62) scale(1,1)"><path fill="none" stroke="#000000" d="M 366.00634765625 104.34 L 377.5881658380682 120" stroke-miterlimit="10"></path></g><g transform="translate(-78,-62) scale(1,1)"><g><path fill="none" stroke="none"></path><text fill="#000000" stroke="none" font-family="Arial" font-size="13px" font-style="normal" font-weight="normal" text-decoration="none" x="352.00634765625" y="138.5">«rol»</text></g></g><g transform="translate(-78,-62) scale(1,1)"><g><path fill="none" stroke="none"></path><text fill="#000000" stroke="none" font-family="Arial" font-size="13px" font-style="normal" font-weight="bold" text-decoration="none" x="328.50634765625" y="153.5">Responsable</text><text fill="#000000" stroke="none" font-family="Arial" font-size="13px" font-style="normal" font-weight="bold" text-decoration="none" x="324.50634765625" y="166.5">Administrativo</text></g></g><g transform="translate(-78,-62) scale(1,1)"><path fill="#ffffff" stroke="none" d="M 364.1243636363636 464.83000000000004 C 364.1243636363636 460.50561001600005 367.65040574603637 457 372 457 C 376.34959425396363 457 379.8756363636364 460.50561001600005 379.8756363636364 464.83000000000004 C 379.8756363636364 469.15438998400003 376.34959425396363 472.66 372 472.66 C 367.65040574603637 472.66 364.1243636363636 469.15438998400003 364.1243636363636 464.83000000000004 Z"></path></g><g transform="translate(-78,-62) scale(1,1)"><path fill="none" stroke="#000000" d="M 364.1243636363636 464.83000000000004 C 364.1243636363636 460.50561001600005 367.65040574603637 457 372 457 C 376.34959425396363 457 379.8756363636364 460.50561001600005 379.8756363636364 464.83000000000004 C 379.8756363636364 469.15438998400003 376.34959425396363 472.66 372 472.66 C 367.65040574603637 472.66 364.1243636363636 469.15438998400003 364.1243636363636 464.83000000000004 Z" stroke-miterlimit="10"></path></g><g transform="translate(-78,-62) scale(1,1)"><path fill="none" stroke="#000000" d="M 372 472.66 L 372 488.34000000000003" stroke-miterlimit="10"></path></g><g transform="translate(-78,-62) scale(1,1)"><path fill="none" stroke="#000000" d="M 363.6610909090909 478.54 L 380.3389090909091 478.54" stroke-miterlimit="10"></path></g><g transform="translate(-78,-62) scale(1,1)"><path fill="none" stroke="#000000" d="M 372 488.34000000000003 L 360.4181818181818 504" stroke-miterlimit="10"></path></g><g transform="translate(-78,-62) scale(1,1)"><path fill="none" stroke="#000000" d="M 372 488.34000000000003 L 383.5818181818182 504" stroke-miterlimit="10"></path></g><g transform="translate(-78,-62) scale(1,1)"><g><path fill="none" stroke="none"></path><text fill="#000000" stroke="none" font-family="Arial" font-size="13px" font-style="normal" font-weight="normal" text-decoration="none" x="358" y="522.5">«rol»</text></g></g><g transform="translate(-78,-62) scale(1,1)"><g><path fill="none" stroke="none"></path><text fill="#000000" stroke="none" font-family="Arial" font-size="13px" font-style="normal" font-weight="bold" text-decoration="none" x="324.5" y="537.5">Co-Responsable</text><text fill="#000000" stroke="none" font-family="Arial" font-size="13px" font-style="normal" font-weight="bold" text-decoration="none" x="330.5" y="550.5">Administrativo</text></g></g><g transform="translate(-78,-62) scale(1,1)"><path fill="#ffffff" stroke="none" d="M 364.1243636363636 344.83000000000004 C 364.1243636363636 340.50561001600005 367.65040574603637 337 372 337 C 376.34959425396363 337 379.8756363636364 340.50561001600005 379.8756363636364 344.83000000000004 C 379.8756363636364 349.15438998400003 376.34959425396363 352.66 372 352.66 C 367.65040574603637 352.66 364.1243636363636 349.15438998400003 364.1243636363636 344.83000000000004 Z"></path></g><g transform="translate(-78,-62) scale(1,1)"><path fill="none" stroke="#000000" d="M 364.1243636363636 344.83000000000004 C 364.1243636363636 340.50561001600005 367.65040574603637 337 372 337 C 376.34959425396363 337 379.8756363636364 340.50561001600005 379.8756363636364 344.83000000000004 C 379.8756363636364 349.15438998400003 376.34959425396363 352.66 372 352.66 C 367.65040574603637 352.66 364.1243636363636 349.15438998400003 364.1243636363636 344.83000000000004 Z" stroke-miterlimit="10"></path></g><g transform="translate(-78,-62) scale(1,1)"><path fill="none" stroke="#000000" d="M 372 352.66 L 372 368.34000000000003" stroke-miterlimit="10"></path></g><g transform="translate(-78,-62) scale(1,1)"><path fill="none" stroke="#000000" d="M 363.6610909090909 358.54 L 380.3389090909091 358.54" stroke-miterlimit="10"></path></g><g transform="translate(-78,-62) scale(1,1)"><path fill="none" stroke="#000000" d="M 372 368.34000000000003 L 360.4181818181818 384" stroke-miterlimit="10"></path></g><g transform="translate(-78,-62) scale(1,1)"><path fill="none" stroke="#000000" d="M 372 368.34000000000003 L 383.5818181818182 384" stroke-miterlimit="10"></path></g><g transform="translate(-78,-62) scale(1,1)"><g><path fill="none" stroke="none"></path><text fill="#000000" stroke="none" font-family="Arial" font-size="13px" font-style="normal" font-weight="normal" text-decoration="none" x="358" y="402.5">«rol»</text></g></g><g transform="translate(-78,-62) scale(1,1)"><g><path fill="none" stroke="none"></path><text fill="#000000" stroke="none" font-family="Arial" font-size="13px" font-style="normal" font-weight="bold" text-decoration="none" x="330" y="417.5">Representante</text><text fill="#000000" stroke="none" font-family="Arial" font-size="13px" font-style="normal" font-weight="bold" text-decoration="none" x="356.5" y="430.5">Legal</text></g></g><g transform="translate(-78,-62) scale(1,1)"><path fill="#ffffff" stroke="none" d="M 366.3669689275568 231.47 C 366.3669689275568 227.896717344 369.3173306927932 225 372.956787109375 225 C 376.5962435259568 225 379.5466052911932 227.896717344 379.5466052911932 231.47 C 379.5466052911932 235.043282656 376.5962435259568 237.94 372.956787109375 237.94 C 369.3173306927932 237.94 366.3669689275568 235.043282656 366.3669689275568 231.47 Z"></path></g><g transform="translate(-78,-62) scale(1,1)"><path fill="none" stroke="#000000" d="M 366.3669689275568 231.47 C 366.3669689275568 227.896717344 369.3173306927932 225 372.956787109375 225 C 376.5962435259568 225 379.5466052911932 227.896717344 379.5466052911932 231.47 C 379.5466052911932 235.043282656 376.5962435259568 237.94 372.956787109375 237.94 C 369.3173306927932 237.94 366.3669689275568 235.043282656 366.3669689275568 231.47 Z" stroke-miterlimit="10"></path></g><g transform="translate(-78,-62) scale(1,1)"><path fill="none" stroke="#000000" d="M 372.956787109375 237.94 L 372.956787109375 251.06" stroke-miterlimit="10"></path></g><g transform="translate(-78,-62) scale(1,1)"><path fill="none" stroke="#000000" d="M 365.9793325639205 242.86 L 379.9342416548295 242.86" stroke-miterlimit="10"></path></g><g transform="translate(-78,-62) scale(1,1)"><path fill="none" stroke="#000000" d="M 372.956787109375 251.06 L 363.2658780184659 264" stroke-miterlimit="10"></path></g><g transform="translate(-78,-62) scale(1,1)"><path fill="none" stroke="#000000" d="M 372.956787109375 251.06 L 382.6476962002841 264" stroke-miterlimit="10"></path></g><g transform="translate(-78,-62) scale(1,1)"><g><path fill="none" stroke="none"></path><text fill="#000000" stroke="none" font-family="Arial" font-size="13px" font-style="normal" font-weight="normal" text-decoration="none" x="358.956787109375" y="282.5">«rol»</text></g></g><g transform="translate(-78,-62) scale(1,1)"><g><path fill="none" stroke="none"></path><text fill="#000000" stroke="none" font-family="Arial" font-size="13px" font-style="normal" font-weight="bold" text-decoration="none" x="335.456787109375" y="297.5">Responsable</text><text fill="#000000" stroke="none" font-family="Arial" font-size="13px" font-style="normal" font-weight="bold" text-decoration="none" x="349.956787109375" y="310.5">Técnico</text></g></g><g transform="translate(-78,-62) scale(1,1)"><path fill="none" stroke="#000000" d="M 180 123 L 311 122" stroke-miterlimit="10"></path></g><g transform="translate(-78,-62) scale(1,1)"><path fill="none" stroke="#000000" d="M 300.8697540145421 126.28697052405468 L 311 122 L 300.80548844028897 117.86818029690082" stroke-miterlimit="10"></path></g><g transform="translate(-78,-62) scale(1,1)"><g><path fill="none" stroke="none"></path><text fill="#000000" stroke="none" font-family="Arial" font-size="13px" font-style="normal" font-weight="normal" text-decoration="none" x="226.5" y="113.5">+tiene</text></g></g><g transform="translate(-78,-62) scale(1,1)"><g><path fill="none" stroke="none"></path><text fill="#000000" stroke="none" font-family="Arial" font-size="13px" font-style="normal" font-weight="normal" text-decoration="none" x="278.5" y="140.5">1..*</text></g></g><g transform="translate(-78,-62) scale(1,1)"><path fill="none" stroke="#000000" d="M 161 257 L 311 158" stroke-miterlimit="10"></path></g><g transform="translate(-78,-62) scale(1,1)"><g><path fill="none" stroke="none"></path><text fill="#000000" stroke="none" font-family="Arial" font-size="13px" font-style="normal" font-weight="normal" text-decoration="none" x="205.505859375" y="200.5">+define</text></g></g><g transform="translate(-78,-62) scale(1,1)"><g><path fill="none" stroke="none"></path><text fill="#000000" stroke="none" font-family="Arial" font-size="13px" font-style="normal" font-weight="normal" text-decoration="none" x="295.614990234375" y="186.5">1</text></g></g><g transform="translate(-78,-62) scale(1,1)"><path fill="none" stroke="#000000" d="M 201 504 L 311 505" stroke-miterlimit="10"></path></g><g transform="translate(-78,-62) scale(1,1)"><path fill="none" stroke="#000000" d="M 300.799478299592 509.1169596839786 L 311 505 L 300.87601182358804 500.6982720444139" stroke-miterlimit="10"></path></g><g transform="translate(-78,-62) scale(1,1)"><g><path fill="none" stroke="none"></path><text fill="#000000" stroke="none" font-family="Arial" font-size="13px" font-style="normal" font-weight="normal" text-decoration="none" x="231.505859375" y="491.5">+define</text></g></g><g transform="translate(-78,-62) scale(1,1)"><g><path fill="none" stroke="none"></path><text fill="#000000" stroke="none" font-family="Arial" font-size="13px" font-style="normal" font-weight="normal" text-decoration="none" x="285.614990234375" y="523.5">1</text></g></g><g transform="translate(-78,-62) scale(1,1)"><path fill="none" stroke="#000000" d="M 161 289 L 319 362" stroke-miterlimit="10"></path></g><g transform="translate(-78,-62) scale(1,1)"><path fill="none" stroke="#000000" d="M 308.0088472705984 361.55890853673304 L 319 362 L 311.5399801367826 353.9161826071835" stroke-miterlimit="10"></path></g><g transform="translate(-78,-62) scale(1,1)"><g><path fill="none" stroke="none"></path><text fill="#000000" stroke="none" font-family="Arial" font-size="13px" font-style="normal" font-weight="normal" text-decoration="none" x="224.505859375" y="317.5">+define</text></g></g><g transform="translate(-78,-62) scale(1,1)"><g><path fill="none" stroke="none"></path><text fill="#000000" stroke="none" font-family="Arial" font-size="13px" font-style="normal" font-weight="normal" text-decoration="none" x="290.614990234375" y="370.5">1</text></g></g><g transform="translate(-78,-62) scale(1,1)"><path fill="none" stroke="#000000" d="M 161 275 L 327 271" stroke-miterlimit="10"></path></g><g transform="translate(-78,-62) scale(1,1)"><path fill="none" stroke="#000000" d="M 316.9416789920277 275.4531088579309 L 327 271 L 316.73886953710684 267.03651647871646" stroke-miterlimit="10"></path></g><g transform="translate(-78,-62) scale(1,1)"><g><path fill="none" stroke="none"></path><text fill="#000000" stroke="none" font-family="Arial" font-size="13px" font-style="normal" font-weight="normal" text-decoration="none" x="221.505859375" y="264.5">+define</text></g></g><g transform="translate(-78,-62) scale(1,1)"><g><path fill="none" stroke="none"></path><text fill="#000000" stroke="none" font-family="Arial" font-size="13px" font-style="normal" font-weight="normal" text-decoration="none" x="301.614990234375" y="290.5">1</text></g></g><g transform="translate(-78,-62) scale(1,1)"><path fill="#ffffff" stroke="none" d="M 365.5810802556818 599.47 C 365.5810802556818 595.896717344 368.5314420209182 593 372.1708984375 593 C 375.8103548540818 593 378.7607166193182 595.896717344 378.7607166193182 599.47 C 378.7607166193182 603.0432826560001 375.8103548540818 605.94 372.1708984375 605.94 C 368.5314420209182 605.94 365.5810802556818 603.0432826560001 365.5810802556818 599.47 Z"></path></g><g transform="translate(-78,-62) scale(1,1)"><path fill="none" stroke="#000000" d="M 365.5810802556818 599.47 C 365.5810802556818 595.896717344 368.5314420209182 593 372.1708984375 593 C 375.8103548540818 593 378.7607166193182 595.896717344 378.7607166193182 599.47 C 378.7607166193182 603.0432826560001 375.8103548540818 605.94 372.1708984375 605.94 C 368.5314420209182 605.94 365.5810802556818 603.0432826560001 365.5810802556818 599.47 Z" stroke-miterlimit="10"></path></g><g transform="translate(-78,-62) scale(1,1)"><path fill="none" stroke="#000000" d="M 372.1708984375 605.94 L 372.1708984375 619.06" stroke-miterlimit="10"></path></g><g transform="translate(-78,-62) scale(1,1)"><path fill="none" stroke="#000000" d="M 365.1934438920455 610.86 L 379.1483529829545 610.86" stroke-miterlimit="10"></path></g><g transform="translate(-78,-62) scale(1,1)"><path fill="none" stroke="#000000" d="M 372.1708984375 619.06 L 362.4799893465909 632" stroke-miterlimit="10"></path></g><g transform="translate(-78,-62) scale(1,1)"><path fill="none" stroke="#000000" d="M 372.1708984375 619.06 L 381.8618075284091 632" stroke-miterlimit="10"></path></g><g transform="translate(-78,-62) scale(1,1)"><g><path fill="none" stroke="none"></path><text fill="#000000" stroke="none" font-family="Arial" font-size="13px" font-style="normal" font-weight="normal" text-decoration="none" x="358.1708984375" y="650.5">«rol»</text></g></g><g transform="translate(-78,-62) scale(1,1)"><g><path fill="none" stroke="none"></path><text fill="#000000" stroke="none" font-family="Arial" font-size="13px" font-style="normal" font-weight="bold" text-decoration="none" x="328.1708984375" y="665.5">Co-Reponsable</text><text fill="#000000" stroke="none" font-family="Arial" font-size="13px" font-style="normal" font-weight="bold" text-decoration="none" x="349.1708984375" y="678.5">Técnico</text></g></g><g transform="translate(-78,-62) scale(1,1)"><path fill="none" stroke="#000000" d="M 201 537 L 319 607" stroke-miterlimit="10"></path></g><g transform="translate(-78,-62) scale(1,1)"><path fill="none" stroke="#000000" d="M 308.1118401796427 605.4353991798683 L 319 607 L 312.40724820614753 598.1945685066173" stroke-miterlimit="10"></path></g><g transform="translate(-78,-62) scale(1,1)"><g><path fill="none" stroke="none"></path><text fill="#000000" stroke="none" font-family="Arial" font-size="13px" font-style="normal" font-weight="normal" text-decoration="none" x="245.505859375" y="565.5">+define</text></g></g><g transform="translate(-78,-62) scale(1,1)"><g><path fill="none" stroke="none"></path><text fill="#000000" stroke="none" font-family="Arial" font-size="13px" font-style="normal" font-weight="normal" text-decoration="none" x="290.614990234375" y="612.5">1</text></g></g><g transform="translate(-78,-62) scale(1,1)"><path fill="none" stroke="#000000" d="M 201 474 L 319 413" stroke-miterlimit="10"></path></g><g transform="translate(-78,-62) scale(1,1)"><path fill="none" stroke="#000000" d="M 311.90534336092094 421.40629806594865 L 319 413 L 308.0391698132094 413.92747054742466" stroke-miterlimit="10"></path></g><g transform="translate(-78,-62) scale(1,1)"><g><path fill="none" stroke="none"></path><text fill="#000000" stroke="none" font-family="Arial" font-size="13px" font-style="normal" font-weight="normal" text-decoration="none" x="231.505859375" y="435.5">+define</text></g></g><g transform="translate(-78,-62) scale(1,1)"><g><path fill="none" stroke="none"></path><text fill="#000000" stroke="none" font-family="Arial" font-size="13px" font-style="normal" font-weight="normal" text-decoration="none" x="301.614990234375" y="440.5">1</text></g></g></g></svg>