<svg version="1.1" xmlns="http://www.w3.org/2000/svg" xmlns:xlink="http://www.w3.org/1999/xlink" width="364" height="645"><defs/><g><text fill="#eeeeee" stroke="none" font-family="Arial" font-size="24px" font-style="normal" font-weight="normal" text-decoration="none" x="0" y="0">UNREGISTERED</text><text fill="#eeeeee" stroke="none" font-family="Arial" font-size="24px" font-style="normal" font-weight="normal" text-decoration="none" x="0" y="30">UNREGISTERED</text><text fill="#eeeeee" stroke="none" font-family="Arial" font-size="24px" font-style="normal" font-weight="normal" text-decoration="none" x="0" y="60">UNREGISTERED</text><text fill="#eeeeee" stroke="none" font-family="Arial" font-size="24px" font-style="normal" font-weight="normal" text-decoration="none" x="0" y="90">UNREGISTERED</text><text fill="#eeeeee" stroke="none" font-family="Arial" font-size="24px" font-style="normal" font-weight="normal" text-decoration="none" x="0" y="120">UNREGISTERED</text><text fill="#eeeeee" stroke="none" font-family="Arial" font-size="24px" font-style="normal" font-weight="normal" text-decoration="none" x="0" y="150">UNREGISTERED</text><text fill="#eeeeee" stroke="none" font-family="Arial" font-size="24px" font-style="normal" font-weight="normal" text-decoration="none" x="0" y="180">UNREGISTERED</text><text fill="#eeeeee" stroke="none" font-family="Arial" font-size="24px" font-style="normal" font-weight="normal" text-decoration="none" x="0" y="210">UNREGISTERED</text><text fill="#eeeeee" stroke="none" font-family="Arial" font-size="24px" font-style="normal" font-weight="normal" text-decoration="none" x="0" y="240">UNREGISTERED</text><text fill="#eeeeee" stroke="none" font-family="Arial" font-size="24px" font-style="normal" font-weight="normal" text-decoration="none" x="0" y="270">UNREGISTERED</text><text fill="#eeeeee" stroke="none" font-family="Arial" font-size="24px" font-style="normal" font-weight="normal" text-decoration="none" x="0" y="300">UNREGISTERED</text><text fill="#eeeeee" stroke="none" font-family="Arial" font-size="24px" font-style="normal" font-weight="normal" text-decoration="none" x="0" y="330">UNREGISTERED</text><text fill="#eeeeee" stroke="none" font-family="Arial" font-size="24px" font-style="normal" font-weight="normal" text-decoration="none" x="0" y="360">UNREGISTERED</text><text fill="#eeeeee" stroke="none" font-family="Arial" font-size="24px" font-style="normal" font-weight="normal" text-decoration="none" x="0" y="390">UNREGISTERED</text><text fill="#eeeeee" stroke="none" font-family="Arial" font-size="24px" font-style="normal" font-weight="normal" text-decoration="none" x="0" y="420">UNREGISTERED</text><text fill="#eeeeee" stroke="none" font-family="Arial" font-size="24px" font-style="normal" font-weight="normal" text-decoration="none" x="0" y="450">UNREGISTERED</text><text fill="#eeeeee" stroke="none" font-family="Arial" font-size="24px" font-style="normal" font-weight="normal" text-decoration="none" x="0" y="480">UNREGISTERED</text><text fill="#eeeeee" stroke="none" font-family="Arial" font-size="24px" font-style="normal" font-weight="normal" text-decoration="none" x="0" y="510">UNREGISTERED</text><text fill="#eeeeee" stroke="none" font-family="Arial" font-size="24px" font-style="normal" font-weight="normal" text-decoration="none" x="0" y="540">UNREGISTERED</text><text fill="#eeeeee" stroke="none" font-family="Arial" font-size="24px" font-style="normal" font-weight="normal" text-decoration="none" x="0" y="570">UNREGISTERED</text><text fill="#eeeeee" stroke="none" font-family="Arial" font-size="24px" font-style="normal" font-weight="normal" text-decoration="none" x="0" y="600">UNREGISTERED</text><text fill="#eeeeee" stroke="none" font-family="Arial" font-size="24px" font-style="normal" font-weight="normal" text-decoration="none" x="0" y="630">UNREGISTERED</text><text fill="#eeeeee" stroke="none" font-family="Arial" font-size="24px" font-style="normal" font-weight="normal" text-decoration="none" x="200" y="0">UNREGISTERED</text><text fill="#eeeeee" stroke="none" font-family="Arial" font-size="24px" font-style="normal" font-weight="normal" text-decoration="none" x="200" y="30">UNREGISTERED</text><text fill="#eeeeee" stroke="none" font-family="Arial" font-size="24px" font-style="normal" font-weight="normal" text-decoration="none" x="200" y="60">UNREGISTERED</text><text fill="#eeeeee" stroke="none" font-family="Arial" font-size="24px" font-style="normal" font-weight="normal" text-decoration="none" x="200" y="90">UNREGISTERED</text><text fill="#eeeeee" stroke="none" font-family="Arial" font-size="24px" font-style="normal" font-weight="normal" text-decoration="none" x="200" y="120">UNREGISTERED</text><text fill="#eeeeee" stroke="none" font-family="Arial" font-size="24px" font-style="normal" font-weight="normal" text-decoration="none" x="200" y="150">UNREGISTERED</text><text fill="#eeeeee" stroke="none" font-family="Arial" font-size="24px" font-style="normal" font-weight="normal" text-decoration="none" x="200" y="180">UNREGISTERED</text><text fill="#eeeeee" stroke="none" font-family="Arial" font-size="24px" font-style="normal" font-weight="normal" text-decoration="none" x="200" y="210">UNREGISTERED</text><text fill="#eeeeee" stroke="none" font-family="Arial" font-size="24px" font-style="normal" font-weight="normal" text-decoration="none" x="200" y="240">UNREGISTERED</text><text fill="#eeeeee" stroke="none" font-family="Arial" font-size="24px" font-style="normal" font-weight="normal" text-decoration="none" x="200" y="270">UNREGISTERED</text><text fill="#eeeeee" stroke="none" font-family="Arial" font-size="24px" font-style="normal" font-weight="normal" text-decoration="none" x="200" y="300">UNREGISTERED</text><text fill="#eeeeee" stroke="none" font-family="Arial" font-size="24px" font-style="normal" font-weight="normal" text-decoration="none" x="200" y="330">UNREGISTERED</text><text fill="#eeeeee" stroke="none" font-family="Arial" font-size="24px" font-style="normal" font-weight="normal" text-decoration="none" x="200" y="360">UNREGISTERED</text><text fill="#eeeeee" stroke="none" font-family="Arial" font-size="24px" font-style="normal" font-weight="normal" text-decoration="none" x="200" y="390">UNREGISTERED</text><text fill="#eeeeee" stroke="none" font-family="Arial" font-size="24px" font-style="normal" font-weight="normal" text-decoration="none" x="200" y="420">UNREGISTERED</text><text fill="#eeeeee" stroke="none" font-family="Arial" font-size="24px" font-style="normal" font-weight="normal" text-decoration="none" x="200" y="450">UNREGISTERED</text><text fill="#eeeeee" stroke="none" font-family="Arial" font-size="24px" font-style="normal" font-weight="normal" text-decoration="none" x="200" y="480">UNREGISTERED</text><text fill="#eeeeee" stroke="none" font-family="Arial" font-size="24px" font-style="normal" font-weight="normal" text-decoration="none" x="200" y="510">UNREGISTERED</text><text fill="#eeeeee" stroke="none" font-family="Arial" font-size="24px" font-style="normal" font-weight="normal" text-decoration="none" x="200" y="540">UNREGISTERED</text><text fill="#eeeeee" stroke="none" font-family="Arial" font-size="24px" font-style="normal" font-weight="normal" text-decoration="none" x="200" y="570">UNREGISTERED</text><text fill="#eeeeee" stroke="none" font-family="Arial" font-size="24px" font-style="normal" font-weight="normal" text-decoration="none" x="200" y="600">UNREGISTERED</text><text fill="#eeeeee" stroke="none" font-family="Arial" font-size="24px" font-style="normal" font-weight="normal" text-decoration="none" x="200" y="630">UNREGISTERED</text><g transform="translate(-78,-62) scale(1,1)"><path fill="#ffffff" stroke="none" d="M 132.82072727272728 93.68 C 132.82072727272728 88.886167936 136.70656959767274 85 141.5 85 C 146.29343040232726 85 150.17927272727272 88.886167936 150.17927272727272 93.68 C 150.17927272727272 98.473832064 146.29343040232726 102.36 141.5 102.36 C 136.70656959767274 102.36 132.82072727272728 98.473832064 132.82072727272728 93.68 Z"/></g><g transform="translate(-78,-62) scale(1,1)"><path fill="none" stroke="#000000" d="M 132.82072727272728 93.68 C 132.82072727272728 88.886167936 136.70656959767274 85 141.5 85 C 146.29343040232726 85 150.17927272727272 88.886167936 150.17927272727272 93.68 C 150.17927272727272 98.473832064 146.29343040232726 102.36 141.5 102.36 C 136.70656959767274 102.36 132.82072727272728 98.473832064 132.82072727272728 93.68 Z" stroke-miterlimit="10"/></g><g transform="translate(-78,-62) scale(1,1)"><path fill="none" stroke="#000000" d="M 141.5 102.36 L 141.5 119.64" stroke-miterlimit="10"/></g><g transform="translate(-78,-62) scale(1,1)"><path fill="none" stroke="#000000" d="M 132.31018181818183 108.84 L 150.68981818181817 108.84" stroke-miterlimit="10"/></g><g transform="translate(-78,-62) scale(1,1)"><path fill="none" stroke="#000000" d="M 141.5 119.64 L 128.73636363636365 137" stroke-miterlimit="10"/></g><g transform="translate(-78,-62) scale(1,1)"><path fill="none" stroke="#000000" d="M 141.5 119.64 L 154.26363636363635 137" stroke-miterlimit="10"/></g><g transform="translate(-78,-62) scale(1,1)"><g><path fill="none" stroke="none"/><text fill="#000000" stroke="none" font-family="Arial" font-size="13px" font-style="normal" font-weight="bold" text-decoration="none" x="112.234130859375" y="157.5">Institución</text></g></g><g transform="translate(-78,-62) scale(1,1)"><path fill="#ffffff" stroke="none" d="M 123.10026828835228 233.68 C 123.10026828835228 228.886167936 126.98611061329774 225 131.779541015625 225 C 136.57297141795226 225 140.45881374289772 228.886167936 140.45881374289772 233.68 C 140.45881374289772 238.47383206400002 136.57297141795226 242.36 131.779541015625 242.36 C 126.98611061329774 242.36 123.10026828835228 238.47383206400002 123.10026828835228 233.68 Z"/></g><g transform="translate(-78,-62) scale(1,1)"><path fill="none" stroke="#000000" d="M 123.10026828835228 233.68 C 123.10026828835228 228.886167936 126.98611061329774 225 131.779541015625 225 C 136.57297141795226 225 140.45881374289772 228.886167936 140.45881374289772 233.68 C 140.45881374289772 238.47383206400002 136.57297141795226 242.36 131.779541015625 242.36 C 126.98611061329774 242.36 123.10026828835228 238.47383206400002 123.10026828835228 233.68 Z" stroke-miterlimit="10"/></g><g transform="translate(-78,-62) scale(1,1)"><path fill="none" stroke="#000000" d="M 131.779541015625 242.36 L 131.779541015625 259.64" stroke-miterlimit="10"/></g><g transform="translate(-78,-62) scale(1,1)"><path fill="none" stroke="#000000" d="M 122.58972283380683 248.84 L 140.96935919744317 248.84" stroke-miterlimit="10"/></g><g transform="translate(-78,-62) scale(1,1)"><path fill="none" stroke="#000000" d="M 131.779541015625 259.64 L 119.01590465198865 277" stroke-miterlimit="10"/></g><g transform="translate(-78,-62) scale(1,1)"><path fill="none" stroke="#000000" d="M 131.779541015625 259.64 L 144.54317737926135 277" stroke-miterlimit="10"/></g><g transform="translate(-78,-62) scale(1,1)"><g><path fill="none" stroke="none"/><text fill="#000000" stroke="none" font-family="Arial" font-size="13px" font-style="normal" font-weight="bold" text-decoration="none" x="113.34912109375" y="297.5">Sujeto</text><text fill="#000000" stroke="none" font-family="Arial" font-size="13px" font-style="normal" font-weight="bold" text-decoration="none" x="124.549560546875" y="310.5">de</text><text fill="#000000" stroke="none" font-family="Arial" font-size="13px" font-style="normal" font-weight="bold" text-decoration="none" x="113.34912109375" y="323.5">Apoyo</text></g></g><g transform="translate(-78,-62) scale(1,1)"><path fill="#ffffff" stroke="none" d="M 135.10661594460228 473.68 C 135.10661594460228 468.886167936 138.99245826954774 465 143.785888671875 465 C 148.57931907420226 465 152.46516139914772 468.886167936 152.46516139914772 473.68 C 152.46516139914772 478.473832064 148.57931907420226 482.36 143.785888671875 482.36 C 138.99245826954774 482.36 135.10661594460228 478.473832064 135.10661594460228 473.68 Z"/></g><g transform="translate(-78,-62) scale(1,1)"><path fill="none" stroke="#000000" d="M 135.10661594460228 473.68 C 135.10661594460228 468.886167936 138.99245826954774 465 143.785888671875 465 C 148.57931907420226 465 152.46516139914772 468.886167936 152.46516139914772 473.68 C 152.46516139914772 478.473832064 148.57931907420226 482.36 143.785888671875 482.36 C 138.99245826954774 482.36 135.10661594460228 478.473832064 135.10661594460228 473.68 Z" stroke-miterlimit="10"/></g><g transform="translate(-78,-62) scale(1,1)"><path fill="none" stroke="#000000" d="M 143.785888671875 482.36 L 143.785888671875 499.64" stroke-miterlimit="10"/></g><g transform="translate(-78,-62) scale(1,1)"><path fill="none" stroke="#000000" d="M 134.59607049005683 488.84 L 152.97570685369317 488.84" stroke-miterlimit="10"/></g><g transform="translate(-78,-62) scale(1,1)"><path fill="none" stroke="#000000" d="M 143.785888671875 499.64 L 131.02225230823865 517" stroke-miterlimit="10"/></g><g transform="translate(-78,-62) scale(1,1)"><path fill="none" stroke="#000000" d="M 143.785888671875 499.64 L 156.54952503551135 517" stroke-miterlimit="10"/></g><g transform="translate(-78,-62) scale(1,1)"><g><path fill="none" stroke="none"/><text fill="#000000" stroke="none" font-family="Arial" font-size="13px" font-style="normal" font-weight="bold" text-decoration="none" x="95.369140625" y="537.5">Co-Responsable</text></g></g><g transform="translate(-78,-62) scale(1,1)"><path fill="#ffffff" stroke="none" d="M 357.32707492897725 81.68 C 357.32707492897725 76.886167936 361.21291725392274 73 366.00634765625 73 C 370.79977805857726 73 374.68562038352275 76.886167936 374.68562038352275 81.68 C 374.68562038352275 86.473832064 370.79977805857726 90.36 366.00634765625 90.36 C 361.21291725392274 90.36 357.32707492897725 86.473832064 357.32707492897725 81.68 Z"/></g><g transform="translate(-78,-62) scale(1,1)"><path fill="none" stroke="#000000" d="M 357.32707492897725 81.68 C 357.32707492897725 76.886167936 361.21291725392274 73 366.00634765625 73 C 370.79977805857726 73 374.68562038352275 76.886167936 374.68562038352275 81.68 C 374.68562038352275 86.473832064 370.79977805857726 90.36 366.00634765625 90.36 C 361.21291725392274 90.36 357.32707492897725 86.473832064 357.32707492897725 81.68 Z" stroke-miterlimit="10"/></g><g transform="translate(-78,-62) scale(1,1)"><path fill="none" stroke="#000000" d="M 366.00634765625 90.36 L 366.00634765625 107.64" stroke-miterlimit="10"/></g><g transform="translate(-78,-62) scale(1,1)"><path fill="none" stroke="#000000" d="M 356.81652947443183 96.84 L 375.19616583806817 96.84" stroke-miterlimit="10"/></g><g transform="translate(-78,-62) scale(1,1)"><path fill="none" stroke="#000000" d="M 366.00634765625 107.64 L 353.24271129261365 125" stroke-miterlimit="10"/></g><g transform="translate(-78,-62) scale(1,1)"><path fill="none" stroke="#000000" d="M 366.00634765625 107.64 L 378.76998401988635 125" stroke-miterlimit="10"/></g><g transform="translate(-78,-62) scale(1,1)"><g><path fill="none" stroke="none"/><text fill="#000000" stroke="none" font-family="Arial" font-size="13px" font-style="normal" font-weight="normal" text-decoration="none" x="351.552734375" y="143.5">«rol»</text></g></g><g transform="translate(-78,-62) scale(1,1)"><g><path fill="none" stroke="none"/><text fill="#000000" stroke="none" font-family="Arial" font-size="13px" font-style="normal" font-weight="bold" text-decoration="none" x="328.063232421875" y="158.5">Responsable</text><text fill="#000000" stroke="none" font-family="Arial" font-size="13px" font-style="normal" font-weight="bold" text-decoration="none" x="325.187744140625" y="171.5">Administrativo</text></g></g><g transform="translate(-78,-62) scale(1,1)"><path fill="#ffffff" stroke="none" d="M 363.32072727272725 465.68 C 363.32072727272725 460.886167936 367.20656959767274 457 372 457 C 376.79343040232726 457 380.67927272727275 460.886167936 380.67927272727275 465.68 C 380.67927272727275 470.473832064 376.79343040232726 474.36 372 474.36 C 367.20656959767274 474.36 363.32072727272725 470.473832064 363.32072727272725 465.68 Z"/></g><g transform="translate(-78,-62) scale(1,1)"><path fill="none" stroke="#000000" d="M 363.32072727272725 465.68 C 363.32072727272725 460.886167936 367.20656959767274 457 372 457 C 376.79343040232726 457 380.67927272727275 460.886167936 380.67927272727275 465.68 C 380.67927272727275 470.473832064 376.79343040232726 474.36 372 474.36 C 367.20656959767274 474.36 363.32072727272725 470.473832064 363.32072727272725 465.68 Z" stroke-miterlimit="10"/></g><g transform="translate(-78,-62) scale(1,1)"><path fill="none" stroke="#000000" d="M 372 474.36 L 372 491.64" stroke-miterlimit="10"/></g><g transform="translate(-78,-62) scale(1,1)"><path fill="none" stroke="#000000" d="M 362.81018181818183 480.84 L 381.18981818181817 480.84" stroke-miterlimit="10"/></g><g transform="translate(-78,-62) scale(1,1)"><path fill="none" stroke="#000000" d="M 372 491.64 L 359.23636363636365 509" stroke-miterlimit="10"/></g><g transform="translate(-78,-62) scale(1,1)"><path fill="none" stroke="#000000" d="M 372 491.64 L 384.76363636363635 509" stroke-miterlimit="10"/></g><g transform="translate(-78,-62) scale(1,1)"><g><path fill="none" stroke="none"/><text fill="#000000" stroke="none" font-family="Arial" font-size="13px" font-style="normal" font-weight="normal" text-decoration="none" x="357.54638671875" y="527.5">«rol»</text></g></g><g transform="translate(-78,-62) scale(1,1)"><g><path fill="none" stroke="none"/><text fill="#000000" stroke="none" font-family="Arial" font-size="13px" font-style="normal" font-weight="bold" text-decoration="none" x="323.583251953125" y="542.5">Co-Responsable</text><text fill="#000000" stroke="none" font-family="Arial" font-size="13px" font-style="normal" font-weight="bold" text-decoration="none" x="331.181396484375" y="555.5">Administrativo</text></g></g><g transform="translate(-78,-62) scale(1,1)"><path fill="#ffffff" stroke="none" d="M 363.32072727272725 345.68 C 363.32072727272725 340.886167936 367.20656959767274 337 372 337 C 376.79343040232726 337 380.67927272727275 340.886167936 380.67927272727275 345.68 C 380.67927272727275 350.473832064 376.79343040232726 354.36 372 354.36 C 367.20656959767274 354.36 363.32072727272725 350.473832064 363.32072727272725 345.68 Z"/></g><g transform="translate(-78,-62) scale(1,1)"><path fill="none" stroke="#000000" d="M 363.32072727272725 345.68 C 363.32072727272725 340.886167936 367.20656959767274 337 372 337 C 376.79343040232726 337 380.67927272727275 340.886167936 380.67927272727275 345.68 C 380.67927272727275 350.473832064 376.79343040232726 354.36 372 354.36 C 367.20656959767274 354.36 363.32072727272725 350.473832064 363.32072727272725 345.68 Z" stroke-miterlimit="10"/></g><g transform="translate(-78,-62) scale(1,1)"><path fill="none" stroke="#000000" d="M 372 354.36 L 372 371.64" stroke-miterlimit="10"/></g><g transform="translate(-78,-62) scale(1,1)"><path fill="none" stroke="#000000" d="M 362.81018181818183 360.84 L 381.18981818181817 360.84" stroke-miterlimit="10"/></g><g transform="translate(-78,-62) scale(1,1)"><path fill="none" stroke="#000000" d="M 372 371.64 L 359.23636363636365 389" stroke-miterlimit="10"/></g><g transform="translate(-78,-62) scale(1,1)"><path fill="none" stroke="#000000" d="M 372 371.64 L 384.76363636363635 389" stroke-miterlimit="10"/></g><g transform="translate(-78,-62) scale(1,1)"><g><path fill="none" stroke="none"/><text fill="#000000" stroke="none" font-family="Arial" font-size="13px" font-style="normal" font-weight="normal" text-decoration="none" x="357.54638671875" y="407.5">«rol»</text></g></g><g transform="translate(-78,-62) scale(1,1)"><g><path fill="none" stroke="none"/><text fill="#000000" stroke="none" font-family="Arial" font-size="13px" font-style="normal" font-weight="bold" text-decoration="none" x="329.359619140625" y="422.5">Representante</text><text fill="#000000" stroke="none" font-family="Arial" font-size="13px" font-style="normal" font-weight="bold" text-decoration="none" x="356.095947265625" y="435.5">Legal</text></g></g><g transform="translate(-78,-62) scale(1,1)"><path fill="#ffffff" stroke="none" d="M 364.27751438210225 233.68 C 364.27751438210225 228.886167936 368.16335670704774 225 372.956787109375 225 C 377.75021751170226 225 381.63605983664775 228.886167936 381.63605983664775 233.68 C 381.63605983664775 238.47383206400002 377.75021751170226 242.36 372.956787109375 242.36 C 368.16335670704774 242.36 364.27751438210225 238.47383206400002 364.27751438210225 233.68 Z"/></g><g transform="translate(-78,-62) scale(1,1)"><path fill="none" stroke="#000000" d="M 364.27751438210225 233.68 C 364.27751438210225 228.886167936 368.16335670704774 225 372.956787109375 225 C 377.75021751170226 225 381.63605983664775 228.886167936 381.63605983664775 233.68 C 381.63605983664775 238.47383206400002 377.75021751170226 242.36 372.956787109375 242.36 C 368.16335670704774 242.36 364.27751438210225 238.47383206400002 364.27751438210225 233.68 Z" stroke-miterlimit="10"/></g><g transform="translate(-78,-62) scale(1,1)"><path fill="none" stroke="#000000" d="M 372.956787109375 242.36 L 372.956787109375 259.64" stroke-miterlimit="10"/></g><g transform="translate(-78,-62) scale(1,1)"><path fill="none" stroke="#000000" d="M 363.76696892755683 248.84 L 382.14660529119317 248.84" stroke-miterlimit="10"/></g><g transform="translate(-78,-62) scale(1,1)"><path fill="none" stroke="#000000" d="M 372.956787109375 259.64 L 360.19315074573865 277" stroke-miterlimit="10"/></g><g transform="translate(-78,-62) scale(1,1)"><path fill="none" stroke="#000000" d="M 372.956787109375 259.64 L 385.72042347301135 277" stroke-miterlimit="10"/></g><g transform="translate(-78,-62) scale(1,1)"><g><path fill="none" stroke="none"/><text fill="#000000" stroke="none" font-family="Arial" font-size="13px" font-style="normal" font-weight="normal" text-decoration="none" x="358.503173828125" y="295.5">«rol»</text></g></g><g transform="translate(-78,-62) scale(1,1)"><g><path fill="none" stroke="none"/><text fill="#000000" stroke="none" font-family="Arial" font-size="13px" font-style="normal" font-weight="bold" text-decoration="none" x="335.013671875" y="310.5">Responsable</text><text fill="#000000" stroke="none" font-family="Arial" font-size="13px" font-style="normal" font-weight="bold" text-decoration="none" x="350.197265625" y="323.5">Técnico</text></g></g><g transform="translate(-78,-62) scale(1,1)"><path fill="none" stroke="#000000" d="M 180 123 L 311 124" stroke-miterlimit="10"/></g><g transform="translate(-78,-62) scale(1,1)"><path fill="none" stroke="#000000" d="M 300.80548844028897 128.13181970309918 L 311 124 L 300.8697540145421 119.71302947594532" stroke-miterlimit="10"/></g><g transform="translate(-78,-62) scale(1,1)"><g><path fill="none" stroke="none"/><text fill="#000000" stroke="none" font-family="Arial" font-size="13px" font-style="normal" font-weight="normal" text-decoration="none" x="226.609130859375" y="114.5">+tiene</text></g></g><g transform="translate(-78,-62) scale(1,1)"><g><path fill="none" stroke="none"/><text fill="#000000" stroke="none" font-family="Arial" font-size="13px" font-style="normal" font-weight="normal" text-decoration="none" x="278.74365234375" y="142.5">1..*</text></g></g><g transform="translate(-78,-62) scale(1,1)"><path fill="none" stroke="#000000" d="M 161 257 L 311 160" stroke-miterlimit="10"/></g><g transform="translate(-78,-62) scale(1,1)"><g><path fill="none" stroke="none"/><text fill="#000000" stroke="none" font-family="Arial" font-size="13px" font-style="normal" font-weight="normal" text-decoration="none" x="205.5" y="201.5">+define</text></g></g><g transform="translate(-78,-62) scale(1,1)"><g><path fill="none" stroke="none"/><text fill="#000000" stroke="none" font-family="Arial" font-size="13px" font-style="normal" font-weight="normal" text-decoration="none" x="295.5" y="188.5">1</text></g></g><g transform="translate(-78,-62) scale(1,1)"><path fill="none" stroke="#000000" d="M 201 504 L 311 507" stroke-miterlimit="10"/></g><g transform="translate(-78,-62) scale(1,1)"><path fill="none" stroke="#000000" d="M 300.72634018503015 510.9308922659205 L 311 507 L 300.95586489988494 502.5149860545772" stroke-miterlimit="10"/></g><g transform="translate(-78,-62) scale(1,1)"><g><path fill="none" stroke="none"/><text fill="#000000" stroke="none" font-family="Arial" font-size="13px" font-style="normal" font-weight="normal" text-decoration="none" x="231.5" y="492.5">+define</text></g></g><g transform="translate(-78,-62) scale(1,1)"><g><path fill="none" stroke="none"/><text fill="#000000" stroke="none" font-family="Arial" font-size="13px" font-style="normal" font-weight="normal" text-decoration="none" x="285.5" y="524.5">1</text></g></g><g transform="translate(-78,-62) scale(1,1)"><path fill="none" stroke="#000000" d="M 161 290 L 319 363" stroke-miterlimit="10"/></g><g transform="translate(-78,-62) scale(1,1)"><path fill="none" stroke="#000000" d="M 308.0088472705984 362.55890853673304 L 319 363 L 311.5399801367826 354.9161826071835" stroke-miterlimit="10"/></g><g transform="translate(-78,-62) scale(1,1)"><g><path fill="none" stroke="none"/><text fill="#000000" stroke="none" font-family="Arial" font-size="13px" font-style="normal" font-weight="normal" text-decoration="none" x="224.5" y="318.5">+define</text></g></g><g transform="translate(-78,-62) scale(1,1)"><g><path fill="none" stroke="none"/><text fill="#000000" stroke="none" font-family="Arial" font-size="13px" font-style="normal" font-weight="normal" text-decoration="none" x="290.5" y="371.5">1</text></g></g><g transform="translate(-78,-62) scale(1,1)"><path fill="none" stroke="#000000" d="M 161 276 L 327 276" stroke-miterlimit="10"/></g><g transform="translate(-78,-62) scale(1,1)"><path fill="none" stroke="#000000" d="M 316.83732514237585 280.209517756016 L 327 276 L 316.83732514237585 271.790482243984" stroke-miterlimit="10"/></g><g transform="translate(-78,-62) scale(1,1)"><g><path fill="none" stroke="none"/><text fill="#000000" stroke="none" font-family="Arial" font-size="13px" font-style="normal" font-weight="normal" text-decoration="none" x="222.5" y="267.5">+define</text></g></g><g transform="translate(-78,-62) scale(1,1)"><g><path fill="none" stroke="none"/><text fill="#000000" stroke="none" font-family="Arial" font-size="13px" font-style="normal" font-weight="normal" text-decoration="none" x="301.5" y="294.5">1</text></g></g><g transform="translate(-78,-62) scale(1,1)"><path fill="#ffffff" stroke="none" d="M 363.49162571022725 601.6800000000001 C 363.49162571022725 596.8861679360001 367.37746803517274 593 372.1708984375 593 C 376.96432883982726 593 380.85017116477275 596.8861679360001 380.85017116477275 601.6800000000001 C 380.85017116477275 606.473832064 376.96432883982726 610.36 372.1708984375 610.36 C 367.37746803517274 610.36 363.49162571022725 606.473832064 363.49162571022725 601.6800000000001 Z"/></g><g transform="translate(-78,-62) scale(1,1)"><path fill="none" stroke="#000000" d="M 363.49162571022725 601.6800000000001 C 363.49162571022725 596.8861679360001 367.37746803517274 593 372.1708984375 593 C 376.96432883982726 593 380.85017116477275 596.8861679360001 380.85017116477275 601.6800000000001 C 380.85017116477275 606.473832064 376.96432883982726 610.36 372.1708984375 610.36 C 367.37746803517274 610.36 363.49162571022725 606.473832064 363.49162571022725 601.6800000000001 Z" stroke-miterlimit="10"/></g><g transform="translate(-78,-62) scale(1,1)"><path fill="none" stroke="#000000" d="M 372.1708984375 610.36 L 372.1708984375 627.64" stroke-miterlimit="10"/></g><g transform="translate(-78,-62) scale(1,1)"><path fill="none" stroke="#000000" d="M 362.98108025568183 616.84 L 381.36071661931817 616.84" stroke-miterlimit="10"/></g><g transform="translate(-78,-62) scale(1,1)"><path fill="none" stroke="#000000" d="M 372.1708984375 627.64 L 359.40726207386365 645" stroke-miterlimit="10"/></g><g transform="translate(-78,-62) scale(1,1)"><path fill="none" stroke="#000000" d="M 372.1708984375 627.64 L 384.93453480113635 645" stroke-miterlimit="10"/></g><g transform="translate(-78,-62) scale(1,1)"><g><path fill="none" stroke="none"/><text fill="#000000" stroke="none" font-family="Arial" font-size="13px" font-style="normal" font-weight="normal" text-decoration="none" x="357.71728515625" y="663.5">«rol»</text></g></g><g transform="translate(-78,-62) scale(1,1)"><g><path fill="none" stroke="none"/><text fill="#000000" stroke="none" font-family="Arial" font-size="13px" font-style="normal" font-weight="bold" text-decoration="none" x="327.004150390625" y="678.5">Co-Reponsable</text><text fill="#000000" stroke="none" font-family="Arial" font-size="13px" font-style="normal" font-weight="bold" text-decoration="none" x="349.411376953125" y="691.5">Técnico</text></g></g><g transform="translate(-78,-62) scale(1,1)"><path fill="none" stroke="#000000" d="M 201 538 L 319 611" stroke-miterlimit="10"/></g><g transform="translate(-78,-62) scale(1,1)"><path fill="none" stroke="#000000" d="M 308.14281666109747 609.2332034793283 L 319 611 L 312.5721258372202 602.0734982357327" stroke-miterlimit="10"/></g><g transform="translate(-78,-62) scale(1,1)"><g><path fill="none" stroke="none"/><text fill="#000000" stroke="none" font-family="Arial" font-size="13px" font-style="normal" font-weight="normal" text-decoration="none" x="245.5" y="567.5">+define</text></g></g><g transform="translate(-78,-62) scale(1,1)"><g><path fill="none" stroke="none"/><text fill="#000000" stroke="none" font-family="Arial" font-size="13px" font-style="normal" font-weight="normal" text-decoration="none" x="290.5" y="616.5">1</text></g></g><g transform="translate(-78,-62) scale(1,1)"><path fill="none" stroke="#000000" d="M 201 474 L 319 415" stroke-miterlimit="10"/></g><g transform="translate(-78,-62) scale(1,1)"><path fill="none" stroke="#000000" d="M 311.7927808450386 423.3099935049528 L 319 415 L 308.02767370306094 415.77977922099745" stroke-miterlimit="10"/></g><g transform="translate(-78,-62) scale(1,1)"><g><path fill="none" stroke="none"/><text fill="#000000" stroke="none" font-family="Arial" font-size="13px" font-style="normal" font-weight="normal" text-decoration="none" x="231.5" y="436.5">+define</text></g></g><g transform="translate(-78,-62) scale(1,1)"><g><path fill="none" stroke="none"/><text fill="#000000" stroke="none" font-family="Arial" font-size="13px" font-style="normal" font-weight="normal" text-decoration="none" x="301.5" y="441.5">1</text></g></g></g></svg>