<svg version="1.1" xmlns="http://www.w3.org/2000/svg" xmlns:xlink="http://www.w3.org/1999/xlink" width="1053" height="956"><defs></defs><g><g transform="translate(-310,-150) scale(1,1)"><rect fill="#C0C0C0" stroke="none" x="551" y="167" width="544" height="936" opacity="0.2"></rect></g><g transform="translate(-310,-150) scale(1,1)"><rect fill="#ffffff" stroke="none" x="544" y="160" width="544" height="936"></rect></g><g transform="translate(-310,-150) scale(1,1)"><path fill="none" stroke="#000000" d="M 544 160 L 1088 160 L 1088 1096 L 544 1096 L 544 160 Z Z" stroke-miterlimit="10"></path></g><g transform="translate(-310,-150) scale(1,1)"><g><path fill="none" stroke="none"></path><text fill="#000000" stroke="none" font-family="Arial" font-size="13px" font-style="normal" font-weight="normal" text-decoration="none" x="786" y="177.5">«sistema»</text></g></g><g transform="translate(-310,-150) scale(1,1)"><g><path fill="none" stroke="none"></path><text fill="#000000" stroke="none" font-family="Arial" font-size="13px" font-style="normal" font-weight="bold" text-decoration="none" x="769" y="192.5">Crear Propuesta</text></g></g><g transform="translate(-310,-150) scale(1,1)"><path fill="#ffffff" stroke="none" d="M 368.89163636363634 560.48 C 368.89163636363634 551.930631296 375.65588041076364 545 384 545 C 392.34411958923636 545 399.10836363636366 551.930631296 399.10836363636366 560.48 C 399.10836363636366 569.029368704 392.34411958923636 575.96 384 575.96 C 375.65588041076364 575.96 368.89163636363634 569.029368704 368.89163636363634 560.48 Z"></path></g><g transform="translate(-310,-150) scale(1,1)"><path fill="none" stroke="#000000" d="M 368.89163636363634 560.48 C 368.89163636363634 551.930631296 375.65588041076364 545 384 545 C 392.34411958923636 545 399.10836363636366 551.930631296 399.10836363636366 560.48 C 399.10836363636366 569.029368704 392.34411958923636 575.96 384 575.96 C 375.65588041076364 575.96 368.89163636363634 569.029368704 368.89163636363634 560.48 Z" stroke-miterlimit="10"></path></g><g transform="translate(-310,-150) scale(1,1)"><path fill="none" stroke="#000000" d="M 384 575.96 L 384 606.04" stroke-miterlimit="10"></path></g><g transform="translate(-310,-150) scale(1,1)"><path fill="none" stroke="#000000" d="M 368.00290909090904 587.24 L 399.99709090909096 587.24" stroke-miterlimit="10"></path></g><g transform="translate(-310,-150) scale(1,1)"><path fill="none" stroke="#000000" d="M 384 606.04 L 361.78181818181815 637" stroke-miterlimit="10"></path></g><g transform="translate(-310,-150) scale(1,1)"><path fill="none" stroke="#000000" d="M 384 606.04 L 406.21818181818185 637" stroke-miterlimit="10"></path></g><g transform="translate(-310,-150) scale(1,1)"><g><path fill="none" stroke="none"></path><text fill="#000000" stroke="none" font-family="Arial" font-size="13px" font-style="normal" font-weight="normal" text-decoration="none" x="370" y="655.5">«rol»</text></g></g><g transform="translate(-310,-150) scale(1,1)"><g><path fill="none" stroke="none"></path><text fill="#000000" stroke="none" font-family="Arial" font-size="13px" font-style="normal" font-weight="bold" text-decoration="none" x="346.5" y="670.5">Responsable</text><text fill="#000000" stroke="none" font-family="Arial" font-size="13px" font-style="normal" font-weight="bold" text-decoration="none" x="361" y="683.5">Técnico</text></g></g><g transform="translate(-310,-150) scale(1,1)"><path fill="#ffffff" stroke="none" d="M 1170.8207272727273 593.6800000000001 C 1170.8207272727273 588.8861679360001 1174.7065695976728 585 1179.5 585 C 1184.2934304023272 585 1188.1792727272727 588.8861679360001 1188.1792727272727 593.6800000000001 C 1188.1792727272727 598.473832064 1184.2934304023272 602.36 1179.5 602.36 C 1174.7065695976728 602.36 1170.8207272727273 598.473832064 1170.8207272727273 593.6800000000001 Z"></path></g><g transform="translate(-310,-150) scale(1,1)"><path fill="none" stroke="#000000" d="M 1170.8207272727273 593.6800000000001 C 1170.8207272727273 588.8861679360001 1174.7065695976728 585 1179.5 585 C 1184.2934304023272 585 1188.1792727272727 588.8861679360001 1188.1792727272727 593.6800000000001 C 1188.1792727272727 598.473832064 1184.2934304023272 602.36 1179.5 602.36 C 1174.7065695976728 602.36 1170.8207272727273 598.473832064 1170.8207272727273 593.6800000000001 Z" stroke-miterlimit="10"></path></g><g transform="translate(-310,-150) scale(1,1)"><path fill="none" stroke="#000000" d="M 1179.5 602.36 L 1179.5 619.64" stroke-miterlimit="10"></path></g><g transform="translate(-310,-150) scale(1,1)"><path fill="none" stroke="#000000" d="M 1170.3101818181817 608.84 L 1188.6898181818183 608.84" stroke-miterlimit="10"></path></g><g transform="translate(-310,-150) scale(1,1)"><path fill="none" stroke="#000000" d="M 1179.5 619.64 L 1166.7363636363636 637" stroke-miterlimit="10"></path></g><g transform="translate(-310,-150) scale(1,1)"><path fill="none" stroke="#000000" d="M 1179.5 619.64 L 1192.2636363636364 637" stroke-miterlimit="10"></path></g><g transform="translate(-310,-150) scale(1,1)"><g><path fill="none" stroke="none"></path><text fill="#000000" stroke="none" font-family="Arial" font-size="13px" font-style="normal" font-weight="normal" text-decoration="none" x="1165.5" y="655.5">«rol»</text></g></g><g transform="translate(-310,-150) scale(1,1)"><g><path fill="none" stroke="none"></path><text fill="#000000" stroke="none" font-family="Arial" font-size="13px" font-style="normal" font-weight="bold" text-decoration="none" x="1135.5" y="670.5">Co-Reponsable</text><text fill="#000000" stroke="none" font-family="Arial" font-size="13px" font-style="normal" font-weight="bold" text-decoration="none" x="1156.5" y="683.5">Técnico</text></g></g><g transform="translate(-310,-150) scale(1,1)"><path fill="#ffffff" stroke="none" d="M 1288.177818181818 634.36 C 1288.177818181818 629.1906142720001 1292.3515006789817 625 1297.5 625 C 1302.6484993210183 625 1306.822181818182 629.1906142720001 1306.822181818182 634.36 C 1306.822181818182 639.529385728 1302.6484993210183 643.72 1297.5 643.72 C 1292.3515006789817 643.72 1288.177818181818 639.529385728 1288.177818181818 634.36 Z"></path></g><g transform="translate(-310,-150) scale(1,1)"><path fill="none" stroke="#000000" d="M 1288.177818181818 634.36 C 1288.177818181818 629.1906142720001 1292.3515006789817 625 1297.5 625 C 1302.6484993210183 625 1306.822181818182 629.1906142720001 1306.822181818182 634.36 C 1306.822181818182 639.529385728 1302.6484993210183 643.72 1297.5 643.72 C 1292.3515006789817 643.72 1288.177818181818 639.529385728 1288.177818181818 634.36 Z" stroke-miterlimit="10"></path></g><g transform="translate(-310,-150) scale(1,1)"><path fill="none" stroke="#000000" d="M 1297.5 643.72 L 1297.5 662.28" stroke-miterlimit="10"></path></g><g transform="translate(-310,-150) scale(1,1)"><path fill="none" stroke="#000000" d="M 1287.6294545454546 650.68 L 1307.3705454545454 650.68" stroke-miterlimit="10"></path></g><g transform="translate(-310,-150) scale(1,1)"><path fill="none" stroke="#000000" d="M 1297.5 662.28 L 1283.790909090909 681" stroke-miterlimit="10"></path></g><g transform="translate(-310,-150) scale(1,1)"><path fill="none" stroke="#000000" d="M 1297.5 662.28 L 1311.209090909091 681" stroke-miterlimit="10"></path></g><g transform="translate(-310,-150) scale(1,1)"><g><path fill="none" stroke="none"></path><text fill="#000000" stroke="none" font-family="Arial" font-size="13px" font-style="normal" font-weight="normal" text-decoration="none" x="1283.5" y="699.5">«rol»</text></g></g><g transform="translate(-310,-150) scale(1,1)"><g><path fill="none" stroke="none"></path><text fill="#000000" stroke="none" font-family="Arial" font-size="13px" font-style="normal" font-weight="bold" text-decoration="none" x="1263" y="714.5">Participante</text></g></g><g transform="translate(-310,-150) scale(1,1)"><path fill="#ffffff" stroke="none" d="M 1255.1066159446023 737.6800000000001 C 1255.1066159446023 732.8861679360001 1258.9924582695478 729 1263.785888671875 729 C 1268.5793190742022 729 1272.4651613991477 732.8861679360001 1272.4651613991477 737.6800000000001 C 1272.4651613991477 742.473832064 1268.5793190742022 746.36 1263.785888671875 746.36 C 1258.9924582695478 746.36 1255.1066159446023 742.473832064 1255.1066159446023 737.6800000000001 Z"></path></g><g transform="translate(-310,-150) scale(1,1)"><path fill="none" stroke="#000000" d="M 1255.1066159446023 737.6800000000001 C 1255.1066159446023 732.8861679360001 1258.9924582695478 729 1263.785888671875 729 C 1268.5793190742022 729 1272.4651613991477 732.8861679360001 1272.4651613991477 737.6800000000001 C 1272.4651613991477 742.473832064 1268.5793190742022 746.36 1263.785888671875 746.36 C 1258.9924582695478 746.36 1255.1066159446023 742.473832064 1255.1066159446023 737.6800000000001 Z" stroke-miterlimit="10"></path></g><g transform="translate(-310,-150) scale(1,1)"><path fill="none" stroke="#000000" d="M 1263.785888671875 746.36 L 1263.785888671875 763.64" stroke-miterlimit="10"></path></g><g transform="translate(-310,-150) scale(1,1)"><path fill="none" stroke="#000000" d="M 1254.5960704900567 752.84 L 1272.9757068536933 752.84" stroke-miterlimit="10"></path></g><g transform="translate(-310,-150) scale(1,1)"><path fill="none" stroke="#000000" d="M 1263.785888671875 763.64 L 1251.0222523082386 781" stroke-miterlimit="10"></path></g><g transform="translate(-310,-150) scale(1,1)"><path fill="none" stroke="#000000" d="M 1263.785888671875 763.64 L 1276.5495250355114 781" stroke-miterlimit="10"></path></g><g transform="translate(-310,-150) scale(1,1)"><g><path fill="none" stroke="none"></path><text fill="#000000" stroke="none" font-family="Arial" font-size="13px" font-style="normal" font-weight="normal" text-decoration="none" x="1249.785888671875" y="799.5">«rol»</text></g></g><g transform="translate(-310,-150) scale(1,1)"><g><path fill="none" stroke="none"></path><text fill="#000000" stroke="none" font-family="Arial" font-size="13px" font-style="normal" font-weight="bold" text-decoration="none" x="1216.285888671875" y="814.5">Co-Responsable</text><text fill="#000000" stroke="none" font-family="Arial" font-size="13px" font-style="normal" font-weight="bold" text-decoration="none" x="1222.285888671875" y="827.5">Administrativo</text></g></g><g transform="translate(-310,-150) scale(1,1)"><path fill="#ffffff" stroke="none" d="M 1181.3270749289773 881.6800000000001 C 1181.3270749289773 876.8861679360001 1185.2129172539228 873 1190.00634765625 873 C 1194.7997780585772 873 1198.6856203835227 876.8861679360001 1198.6856203835227 881.6800000000001 C 1198.6856203835227 886.473832064 1194.7997780585772 890.36 1190.00634765625 890.36 C 1185.2129172539228 890.36 1181.3270749289773 886.473832064 1181.3270749289773 881.6800000000001 Z"></path></g><g transform="translate(-310,-150) scale(1,1)"><path fill="none" stroke="#000000" d="M 1181.3270749289773 881.6800000000001 C 1181.3270749289773 876.8861679360001 1185.2129172539228 873 1190.00634765625 873 C 1194.7997780585772 873 1198.6856203835227 876.8861679360001 1198.6856203835227 881.6800000000001 C 1198.6856203835227 886.473832064 1194.7997780585772 890.36 1190.00634765625 890.36 C 1185.2129172539228 890.36 1181.3270749289773 886.473832064 1181.3270749289773 881.6800000000001 Z" stroke-miterlimit="10"></path></g><g transform="translate(-310,-150) scale(1,1)"><path fill="none" stroke="#000000" d="M 1190.00634765625 890.36 L 1190.00634765625 907.64" stroke-miterlimit="10"></path></g><g transform="translate(-310,-150) scale(1,1)"><path fill="none" stroke="#000000" d="M 1180.8165294744317 896.84 L 1199.1961658380683 896.84" stroke-miterlimit="10"></path></g><g transform="translate(-310,-150) scale(1,1)"><path fill="none" stroke="#000000" d="M 1190.00634765625 907.64 L 1177.2427112926136 925" stroke-miterlimit="10"></path></g><g transform="translate(-310,-150) scale(1,1)"><path fill="none" stroke="#000000" d="M 1190.00634765625 907.64 L 1202.7699840198864 925" stroke-miterlimit="10"></path></g><g transform="translate(-310,-150) scale(1,1)"><g><path fill="none" stroke="none"></path><text fill="#000000" stroke="none" font-family="Arial" font-size="13px" font-style="normal" font-weight="normal" text-decoration="none" x="1176.00634765625" y="943.5">«rol»</text></g></g><g transform="translate(-310,-150) scale(1,1)"><g><path fill="none" stroke="none"></path><text fill="#000000" stroke="none" font-family="Arial" font-size="13px" font-style="normal" font-weight="bold" text-decoration="none" x="1152.50634765625" y="958.5">Responsable</text><text fill="#000000" stroke="none" font-family="Arial" font-size="13px" font-style="normal" font-weight="bold" text-decoration="none" x="1148.50634765625" y="971.5">Administrativo</text></g></g><g transform="translate(-310,-150) scale(1,1)"><path fill="#ffffff" stroke="none" d="M 1295.8207272727273 889.6800000000001 C 1295.8207272727273 884.8861679360001 1299.7065695976728 881 1304.5 881 C 1309.2934304023272 881 1313.1792727272727 884.8861679360001 1313.1792727272727 889.6800000000001 C 1313.1792727272727 894.473832064 1309.2934304023272 898.36 1304.5 898.36 C 1299.7065695976728 898.36 1295.8207272727273 894.473832064 1295.8207272727273 889.6800000000001 Z"></path></g><g transform="translate(-310,-150) scale(1,1)"><path fill="none" stroke="#000000" d="M 1295.8207272727273 889.6800000000001 C 1295.8207272727273 884.8861679360001 1299.7065695976728 881 1304.5 881 C 1309.2934304023272 881 1313.1792727272727 884.8861679360001 1313.1792727272727 889.6800000000001 C 1313.1792727272727 894.473832064 1309.2934304023272 898.36 1304.5 898.36 C 1299.7065695976728 898.36 1295.8207272727273 894.473832064 1295.8207272727273 889.6800000000001 Z" stroke-miterlimit="10"></path></g><g transform="translate(-310,-150) scale(1,1)"><path fill="none" stroke="#000000" d="M 1304.5 898.36 L 1304.5 915.64" stroke-miterlimit="10"></path></g><g transform="translate(-310,-150) scale(1,1)"><path fill="none" stroke="#000000" d="M 1295.3101818181817 904.84 L 1313.6898181818183 904.84" stroke-miterlimit="10"></path></g><g transform="translate(-310,-150) scale(1,1)"><path fill="none" stroke="#000000" d="M 1304.5 915.64 L 1291.7363636363636 933" stroke-miterlimit="10"></path></g><g transform="translate(-310,-150) scale(1,1)"><path fill="none" stroke="#000000" d="M 1304.5 915.64 L 1317.2636363636364 933" stroke-miterlimit="10"></path></g><g transform="translate(-310,-150) scale(1,1)"><g><path fill="none" stroke="none"></path><text fill="#000000" stroke="none" font-family="Arial" font-size="13px" font-style="normal" font-weight="normal" text-decoration="none" x="1290.5" y="951.5">«rol»</text></g></g><g transform="translate(-310,-150) scale(1,1)"><g><path fill="none" stroke="none"></path><text fill="#000000" stroke="none" font-family="Arial" font-size="13px" font-style="normal" font-weight="bold" text-decoration="none" x="1262.5" y="966.5">Representante</text><text fill="#000000" stroke="none" font-family="Arial" font-size="13px" font-style="normal" font-weight="bold" text-decoration="none" x="1289" y="979.5">Legal</text></g></g><g transform="translate(-310,-150) scale(1,1)"><path fill="#C0C0C0" stroke="none" d="M 862 502 C 862 487.6405952 899.6080768 476 946 476 C 992.3919232 476 1030 487.6405952 1030 502 C 1030 516.3594048 992.3919232 528 946 528 C 899.6080768 528 862 516.3594048 862 502 Z" opacity="0.2"></path></g><g transform="translate(-310,-150) scale(1,1)"><path fill="#ffffff" stroke="none" d="M 855 495 C 855 480.6405952 892.6080768 469 939 469 C 985.3919232 469 1023 480.6405952 1023 495 C 1023 509.3594048 985.3919232 521 939 521 C 892.6080768 521 855 509.3594048 855 495 Z"></path></g><g transform="translate(-310,-150) scale(1,1)"><path fill="none" stroke="#000000" d="M 855 495 C 855 480.6405952 892.6080768 469 939 469 C 985.3919232 469 1023 480.6405952 1023 495 C 1023 509.3594048 985.3919232 521 939 521 C 892.6080768 521 855 509.3594048 855 495 Z" stroke-miterlimit="10"></path></g><g transform="translate(-310,-150) scale(1,1)"><g><path fill="none" stroke="none"></path><text fill="#000000" stroke="none" font-family="Arial" font-size="13px" font-style="normal" font-weight="bold" text-decoration="none" x="913" y="495.5">Registrar</text><text fill="#000000" stroke="none" font-family="Arial" font-size="13px" font-style="normal" font-weight="bold" text-decoration="none" x="890" y="508.5">CoResponsables</text></g></g><g transform="translate(-310,-150) scale(1,1)"><path fill="#C0C0C0" stroke="none" d="M 862 250.5 C 862 230.8938896 899.6080768 215 946 215 C 992.3919232 215 1030 230.8938896 1030 250.5 C 1030 270.1061104 992.3919232 286 946 286 C 899.6080768 286 862 270.1061104 862 250.5 Z" opacity="0.2"></path></g><g transform="translate(-310,-150) scale(1,1)"><path fill="#ffffff" stroke="none" d="M 855 243.5 C 855 223.8938896 892.6080768 208 939 208 C 985.3919232 208 1023 223.8938896 1023 243.5 C 1023 263.1061104 985.3919232 279 939 279 C 892.6080768 279 855 263.1061104 855 243.5 Z"></path></g><g transform="translate(-310,-150) scale(1,1)"><path fill="none" stroke="#000000" d="M 855 243.5 C 855 223.8938896 892.6080768 208 939 208 C 985.3919232 208 1023 223.8938896 1023 243.5 C 1023 263.1061104 985.3919232 279 939 279 C 892.6080768 279 855 263.1061104 855 243.5 Z" stroke-miterlimit="10"></path></g><g transform="translate(-310,-150) scale(1,1)"><g><path fill="none" stroke="none"></path><text fill="#000000" stroke="none" font-family="Arial" font-size="13px" font-style="normal" font-weight="bold" text-decoration="none" x="905" y="244">Seleccionar</text><text fill="#000000" stroke="none" font-family="Arial" font-size="13px" font-style="normal" font-weight="bold" text-decoration="none" x="909.5" y="257">Modalidad</text></g></g><g transform="translate(-310,-150) scale(1,1)"><path fill="#C0C0C0" stroke="none" d="M 862 424.5 C 862 404.8938896 899.6080768 389 946 389 C 992.3919232 389 1030 404.8938896 1030 424.5 C 1030 444.1061104 992.3919232 460 946 460 C 899.6080768 460 862 444.1061104 862 424.5 Z" opacity="0.2"></path></g><g transform="translate(-310,-150) scale(1,1)"><path fill="#ffffff" stroke="none" d="M 855 417.5 C 855 397.8938896 892.6080768 382 939 382 C 985.3919232 382 1023 397.8938896 1023 417.5 C 1023 437.1061104 985.3919232 453 939 453 C 892.6080768 453 855 437.1061104 855 417.5 Z"></path></g><g transform="translate(-310,-150) scale(1,1)"><path fill="none" stroke="#000000" d="M 855 417.5 C 855 397.8938896 892.6080768 382 939 382 C 985.3919232 382 1023 397.8938896 1023 417.5 C 1023 437.1061104 985.3919232 453 939 453 C 892.6080768 453 855 437.1061104 855 417.5 Z" stroke-miterlimit="10"></path></g><g transform="translate(-310,-150) scale(1,1)"><g><path fill="none" stroke="none"></path><text fill="#000000" stroke="none" font-family="Arial" font-size="13px" font-style="normal" font-weight="bold" text-decoration="none" x="892.5" y="418">Registrar Sujeto</text><text fill="#000000" stroke="none" font-family="Arial" font-size="13px" font-style="normal" font-weight="bold" text-decoration="none" x="911.5" y="431">de Apoyo</text></g></g><g transform="translate(-310,-150) scale(1,1)"><path fill="#C0C0C0" stroke="none" d="M 862 337.5 C 862 317.8938896 899.6080768 302 946 302 C 992.3919232 302 1030 317.8938896 1030 337.5 C 1030 357.1061104 992.3919232 373 946 373 C 899.6080768 373 862 357.1061104 862 337.5 Z" opacity="0.2"></path></g><g transform="translate(-310,-150) scale(1,1)"><path fill="#ffffff" stroke="none" d="M 855 330.5 C 855 310.8938896 892.6080768 295 939 295 C 985.3919232 295 1023 310.8938896 1023 330.5 C 1023 350.1061104 985.3919232 366 939 366 C 892.6080768 366 855 350.1061104 855 330.5 Z"></path></g><g transform="translate(-310,-150) scale(1,1)"><path fill="none" stroke="#000000" d="M 855 330.5 C 855 310.8938896 892.6080768 295 939 295 C 985.3919232 295 1023 310.8938896 1023 330.5 C 1023 350.1061104 985.3919232 366 939 366 C 892.6080768 366 855 350.1061104 855 330.5 Z" stroke-miterlimit="10"></path></g><g transform="translate(-310,-150) scale(1,1)"><g><path fill="none" stroke="none"></path><text fill="#000000" stroke="none" font-family="Arial" font-size="13px" font-style="normal" font-weight="bold" text-decoration="none" x="894" y="331">Registrar Datos</text><text fill="#000000" stroke="none" font-family="Arial" font-size="13px" font-style="normal" font-weight="bold" text-decoration="none" x="900.5" y="344">de Propuesta</text></g></g><g transform="translate(-310,-150) scale(1,1)"><path fill="#C0C0C0" stroke="none" d="M 862 570 C 862 555.6405952 899.6080768 544 946 544 C 992.3919232 544 1030 555.6405952 1030 570 C 1030 584.3594048 992.3919232 596 946 596 C 899.6080768 596 862 584.3594048 862 570 Z" opacity="0.2"></path></g><g transform="translate(-310,-150) scale(1,1)"><path fill="#ffffff" stroke="none" d="M 855 563 C 855 548.6405952 892.6080768 537 939 537 C 985.3919232 537 1023 548.6405952 1023 563 C 1023 577.3594048 985.3919232 589 939 589 C 892.6080768 589 855 577.3594048 855 563 Z"></path></g><g transform="translate(-310,-150) scale(1,1)"><path fill="none" stroke="#000000" d="M 855 563 C 855 548.6405952 892.6080768 537 939 537 C 985.3919232 537 1023 548.6405952 1023 563 C 1023 577.3594048 985.3919232 589 939 589 C 892.6080768 589 855 577.3594048 855 563 Z" stroke-miterlimit="10"></path></g><g transform="translate(-310,-150) scale(1,1)"><g><path fill="none" stroke="none"></path><text fill="#000000" stroke="none" font-family="Arial" font-size="13px" font-style="normal" font-weight="bold" text-decoration="none" x="913" y="563.5">Registrar</text><text fill="#000000" stroke="none" font-family="Arial" font-size="13px" font-style="normal" font-weight="bold" text-decoration="none" x="901" y="576.5">Participantes</text></g></g><g transform="translate(-310,-150) scale(1,1)"><path fill="#C0C0C0" stroke="none" d="M 862 638 C 862 623.6405952 899.6080768 612 946 612 C 992.3919232 612 1030 623.6405952 1030 638 C 1030 652.3594048 992.3919232 664 946 664 C 899.6080768 664 862 652.3594048 862 638 Z" opacity="0.2"></path></g><g transform="translate(-310,-150) scale(1,1)"><path fill="#ffffff" stroke="none" d="M 855 631 C 855 616.6405952 892.6080768 605 939 605 C 985.3919232 605 1023 616.6405952 1023 631 C 1023 645.3594048 985.3919232 657 939 657 C 892.6080768 657 855 645.3594048 855 631 Z"></path></g><g transform="translate(-310,-150) scale(1,1)"><path fill="none" stroke="#000000" d="M 855 631 C 855 616.6405952 892.6080768 605 939 605 C 985.3919232 605 1023 616.6405952 1023 631 C 1023 645.3594048 985.3919232 657 939 657 C 892.6080768 657 855 645.3594048 855 631 Z" stroke-miterlimit="10"></path></g><g transform="translate(-310,-150) scale(1,1)"><g><path fill="none" stroke="none"></path><text fill="#000000" stroke="none" font-family="Arial" font-size="13px" font-style="normal" font-weight="bold" text-decoration="none" x="890.5" y="638">Registrar Etapas</text></g></g><g transform="translate(-310,-150) scale(1,1)"><path fill="#C0C0C0" stroke="none" d="M 862 715.5 C 862 695.8938896 899.6080768 680 946 680 C 992.3919232 680 1030 695.8938896 1030 715.5 C 1030 735.1061104 992.3919232 751 946 751 C 899.6080768 751 862 735.1061104 862 715.5 Z" opacity="0.2"></path></g><g transform="translate(-310,-150) scale(1,1)"><path fill="#ffffff" stroke="none" d="M 855 708.5 C 855 688.8938896 892.6080768 673 939 673 C 985.3919232 673 1023 688.8938896 1023 708.5 C 1023 728.1061104 985.3919232 744 939 744 C 892.6080768 744 855 728.1061104 855 708.5 Z"></path></g><g transform="translate(-310,-150) scale(1,1)"><path fill="none" stroke="#000000" d="M 855 708.5 C 855 688.8938896 892.6080768 673 939 673 C 985.3919232 673 1023 688.8938896 1023 708.5 C 1023 728.1061104 985.3919232 744 939 744 C 892.6080768 744 855 728.1061104 855 708.5 Z" stroke-miterlimit="10"></path></g><g transform="translate(-310,-150) scale(1,1)"><g><path fill="none" stroke="none"></path><text fill="#000000" stroke="none" font-family="Arial" font-size="13px" font-style="normal" font-weight="bold" text-decoration="none" x="894.5" y="702.5">Crear Desglose</text><text fill="#000000" stroke="none" font-family="Arial" font-size="13px" font-style="normal" font-weight="bold" text-decoration="none" x="898" y="715.5">Financiero por</text><text fill="#000000" stroke="none" font-family="Arial" font-size="13px" font-style="normal" font-weight="bold" text-decoration="none" x="909" y="728.5">Institución</text></g></g><g transform="translate(-310,-150) scale(1,1)"><path fill="#C0C0C0" stroke="none" d="M 862 793 C 862 778.6405952 899.6080768 767 946 767 C 992.3919232 767 1030 778.6405952 1030 793 C 1030 807.3594048 992.3919232 819 946 819 C 899.6080768 819 862 807.3594048 862 793 Z" opacity="0.2"></path></g><g transform="translate(-310,-150) scale(1,1)"><path fill="#ffffff" stroke="none" d="M 855 786 C 855 771.6405952 892.6080768 760 939 760 C 985.3919232 760 1023 771.6405952 1023 786 C 1023 800.3594048 985.3919232 812 939 812 C 892.6080768 812 855 800.3594048 855 786 Z"></path></g><g transform="translate(-310,-150) scale(1,1)"><path fill="none" stroke="#000000" d="M 855 786 C 855 771.6405952 892.6080768 760 939 760 C 985.3919232 760 1023 771.6405952 1023 786 C 1023 800.3594048 985.3919232 812 939 812 C 892.6080768 812 855 800.3594048 855 786 Z" stroke-miterlimit="10"></path></g><g transform="translate(-310,-150) scale(1,1)"><g><path fill="none" stroke="none"></path><text fill="#000000" stroke="none" font-family="Arial" font-size="13px" font-style="normal" font-weight="bold" text-decoration="none" x="893.5" y="793">Enviar Solicitud</text></g></g><g transform="translate(-310,-150) scale(1,1)"><path fill="#C0C0C0" stroke="none" d="M 862 861 C 862 846.6405952 899.6080768 835 946 835 C 992.3919232 835 1030 846.6405952 1030 861 C 1030 875.3594048 992.3919232 887 946 887 C 899.6080768 887 862 875.3594048 862 861 Z" opacity="0.2"></path></g><g transform="translate(-310,-150) scale(1,1)"><path fill="#ffffff" stroke="none" d="M 855 854 C 855 839.6405952 892.6080768 828 939 828 C 985.3919232 828 1023 839.6405952 1023 854 C 1023 868.3594048 985.3919232 880 939 880 C 892.6080768 880 855 868.3594048 855 854 Z"></path></g><g transform="translate(-310,-150) scale(1,1)"><path fill="none" stroke="#000000" d="M 855 854 C 855 839.6405952 892.6080768 828 939 828 C 985.3919232 828 1023 839.6405952 1023 854 C 1023 868.3594048 985.3919232 880 939 880 C 892.6080768 880 855 868.3594048 855 854 Z" stroke-miterlimit="10"></path></g><g transform="translate(-310,-150) scale(1,1)"><g><path fill="none" stroke="none"></path><text fill="#000000" stroke="none" font-family="Arial" font-size="13px" font-style="normal" font-weight="bold" text-decoration="none" x="894" y="854.5">Firmar Carta de</text><text fill="#000000" stroke="none" font-family="Arial" font-size="13px" font-style="normal" font-weight="bold" text-decoration="none" x="901.5" y="867.5">Participación</text></g></g><g transform="translate(-310,-150) scale(1,1)"><path fill="#C0C0C0" stroke="none" d="M 862 938.5 C 862 918.8938896 899.6080768 903 946 903 C 992.3919232 903 1030 918.8938896 1030 938.5 C 1030 958.1061104 992.3919232 974 946 974 C 899.6080768 974 862 958.1061104 862 938.5 Z" opacity="0.2"></path></g><g transform="translate(-310,-150) scale(1,1)"><path fill="#ffffff" stroke="none" d="M 855 931.5 C 855 911.8938896 892.6080768 896 939 896 C 985.3919232 896 1023 911.8938896 1023 931.5 C 1023 951.1061104 985.3919232 967 939 967 C 892.6080768 967 855 951.1061104 855 931.5 Z"></path></g><g transform="translate(-310,-150) scale(1,1)"><path fill="none" stroke="#000000" d="M 855 931.5 C 855 911.8938896 892.6080768 896 939 896 C 985.3919232 896 1023 911.8938896 1023 931.5 C 1023 951.1061104 985.3919232 967 939 967 C 892.6080768 967 855 951.1061104 855 931.5 Z" stroke-miterlimit="10"></path></g><g transform="translate(-310,-150) scale(1,1)"><g><path fill="none" stroke="none"></path><text fill="#000000" stroke="none" font-family="Arial" font-size="13px" font-style="normal" font-weight="bold" text-decoration="none" x="894" y="925.5">Firmar Carta de</text><text fill="#000000" stroke="none" font-family="Arial" font-size="13px" font-style="normal" font-weight="bold" text-decoration="none" x="905" y="938.5">Postulación</text><text fill="#000000" stroke="none" font-family="Arial" font-size="13px" font-style="normal" font-weight="bold" text-decoration="none" x="920.5" y="951.5">Oficial</text></g></g><g transform="translate(-310,-150) scale(1,1)"><path fill="#C0C0C0" stroke="none" d="M 862 1025.5 C 862 1005.8938896 899.6080768 990 946 990 C 992.3919232 990 1030 1005.8938896 1030 1025.5 C 1030 1045.1061104 992.3919232 1061 946 1061 C 899.6080768 1061 862 1045.1061104 862 1025.5 Z" opacity="0.2"></path></g><g transform="translate(-310,-150) scale(1,1)"><path fill="#ffffff" stroke="none" d="M 855 1018.5 C 855 998.8938896 892.6080768 983 939 983 C 985.3919232 983 1023 998.8938896 1023 1018.5 C 1023 1038.1061104 985.3919232 1054 939 1054 C 892.6080768 1054 855 1038.1061104 855 1018.5 Z"></path></g><g transform="translate(-310,-150) scale(1,1)"><path fill="none" stroke="#000000" d="M 855 1018.5 C 855 998.8938896 892.6080768 983 939 983 C 985.3919232 983 1023 998.8938896 1023 1018.5 C 1023 1038.1061104 985.3919232 1054 939 1054 C 892.6080768 1054 855 1038.1061104 855 1018.5 Z" stroke-miterlimit="10"></path></g><g transform="translate(-310,-150) scale(1,1)"><g><path fill="none" stroke="none"></path><text fill="#000000" stroke="none" font-family="Arial" font-size="13px" font-style="normal" font-weight="bold" text-decoration="none" x="894" y="1012.5">Firmar Carta de</text><text fill="#000000" stroke="none" font-family="Arial" font-size="13px" font-style="normal" font-weight="bold" text-decoration="none" x="920.5" y="1025.5">Apoyo</text><text fill="#000000" stroke="none" font-family="Arial" font-size="13px" font-style="normal" font-weight="bold" text-decoration="none" x="904" y="1038.5">Institucional</text></g></g><g transform="translate(-310,-150) scale(1,1)"><path fill="#C0C0C0" stroke="none" d="M 583 619 C 583 599.1177472 620.6080768 583 667 583 C 713.3919232 583 751 599.1177472 751 619 C 751 638.8822528 713.3919232 655 667 655 C 620.6080768 655 583 638.8822528 583 619 Z" opacity="0.2"></path></g><g transform="translate(-310,-150) scale(1,1)"><path fill="#ffffff" stroke="none" d="M 576 612 C 576 592.1177472 613.6080768 576 660 576 C 706.3919232 576 744 592.1177472 744 612 C 744 631.8822528 706.3919232 648 660 648 C 613.6080768 648 576 631.8822528 576 612 Z"></path></g><g transform="translate(-310,-150) scale(1,1)"><path fill="none" stroke="#000000" d="M 576 612 C 576 592.1177472 613.6080768 576 660 576 C 706.3919232 576 744 592.1177472 744 612 C 744 631.8822528 706.3919232 648 660 648 C 613.6080768 648 576 631.8822528 576 612 Z" stroke-miterlimit="10"></path></g><g transform="translate(-310,-150) scale(1,1)"><g><path fill="none" stroke="none"></path><text fill="#000000" stroke="none" font-family="Arial" font-size="13px" font-style="normal" font-weight="bold" text-decoration="none" x="615" y="619">crear propuesta</text></g></g><g transform="translate(-310,-150) scale(1,1)"><path fill="none" stroke="#000000" d="M 661 575 Q 672 280 854 255" stroke-miterlimit="10" stroke-dasharray="3"></path></g><g transform="translate(-310,-150) scale(1,1)"><path fill="none" stroke="#000000" d="M 844.5047178177804 260.55334280231483 L 854 255 L 843.3590152259023 252.21262793344303" stroke-miterlimit="10"></path></g><g transform="translate(-310,-150) scale(1,1)"><g><path fill="none" stroke="none"></path><text fill="#000000" stroke="none" font-family="Arial" font-size="13px" font-style="normal" font-weight="normal" text-decoration="none" x="710.5" y="293.5">«include»</text></g></g><g transform="translate(-310,-150) scale(1,1)"><path fill="none" stroke="#000000" d="M 672 575 Q 752 328 854 329" stroke-miterlimit="10" stroke-dasharray="3"></path></g><g transform="translate(-310,-150) scale(1,1)"><path fill="none" stroke="#000000" d="M 843.7965457107579 333.1096861884268 L 854 329 L 843.8790813081646 324.6910552529352" stroke-miterlimit="10"></path></g><g transform="translate(-310,-150) scale(1,1)"><g><path fill="none" stroke="none"></path><text fill="#000000" stroke="none" font-family="Arial" font-size="13px" font-style="normal" font-weight="normal" text-decoration="none" x="735.5" y="332.5">«include»</text></g></g><g transform="translate(-310,-150) scale(1,1)"><path fill="none" stroke="#000000" d="M 687 575 Q 784 440 854 430" stroke-miterlimit="10" stroke-dasharray="3"></path></g><g transform="translate(-310,-150) scale(1,1)"><path fill="none" stroke="#000000" d="M 844.5347808806127 435.60442923248974 L 854 430 L 843.3441494602911 427.2700092902383" stroke-miterlimit="10"></path></g><g transform="translate(-310,-150) scale(1,1)"><g><path fill="none" stroke="none"></path><text fill="#000000" stroke="none" font-family="Arial" font-size="13px" font-style="normal" font-weight="normal" text-decoration="none" x="759.5" y="428.5">«include»</text></g></g><g transform="translate(-310,-150) scale(1,1)"><path fill="none" stroke="#000000" d="M 715 575 Q 808 512 854 506" stroke-miterlimit="10" stroke-dasharray="3"></path></g><g transform="translate(-310,-150) scale(1,1)"><path fill="none" stroke="#000000" d="M 844.4671430243098 511.4885916117923 L 854 506 L 843.3782318405462 503.14027253627" stroke-miterlimit="10"></path></g><g transform="translate(-310,-150) scale(1,1)"><g><path fill="none" stroke="none"></path><text fill="#000000" stroke="none" font-family="Arial" font-size="13px" font-style="normal" font-weight="normal" text-decoration="none" x="776.5" y="507.5">«include»</text></g></g><g transform="translate(-310,-150) scale(1,1)"><path fill="none" stroke="#000000" d="M 745 588 Q 816 568 854 566" stroke-miterlimit="10" stroke-dasharray="3"></path></g><g transform="translate(-310,-150) scale(1,1)"><path fill="none" stroke="#000000" d="M 844.0726190347331 570.7378378159722 L 854 566 L 843.6301243522015 562.3304388478734" stroke-miterlimit="10"></path></g><g transform="translate(-310,-150) scale(1,1)"><g><path fill="none" stroke="none"></path><text fill="#000000" stroke="none" font-family="Arial" font-size="13px" font-style="normal" font-weight="normal" text-decoration="none" x="786.5" y="544.5">«include»</text></g></g><g transform="translate(-310,-150) scale(1,1)"><path fill="none" stroke="#000000" d="M 745 614 Q 805 616 854 621" stroke-miterlimit="10" stroke-dasharray="3"></path></g><g transform="translate(-310,-150) scale(1,1)"><path fill="none" stroke="#000000" d="M 843.4625004000204 624.1561213823978 L 854 621 L 844.3171477443625 615.7805774078453" stroke-miterlimit="10"></path></g><g transform="translate(-310,-150) scale(1,1)"><g><path fill="none" stroke="none"></path><text fill="#000000" stroke="none" font-family="Arial" font-size="13px" font-style="normal" font-weight="normal" text-decoration="none" x="780.5" y="592.5">«include»</text></g></g><g transform="translate(-310,-150) scale(1,1)"><path fill="none" stroke="#000000" d="M 736 649 Q 800 680 854 691" stroke-miterlimit="10" stroke-dasharray="3"></path></g><g transform="translate(-310,-150) scale(1,1)"><path fill="none" stroke="#000000" d="M 843.201594623103 693.0962922783339 L 854 691 L 844.882071846636 684.8466768173537" stroke-miterlimit="10"></path></g><g transform="translate(-310,-150) scale(1,1)"><g><path fill="none" stroke="none"></path><text fill="#000000" stroke="none" font-family="Arial" font-size="13px" font-style="normal" font-weight="normal" text-decoration="none" x="777.5" y="656.5">«include»</text></g></g><g transform="translate(-310,-150) scale(1,1)"><path fill="none" stroke="#000000" d="M 708 649 Q 800 720 882 759" stroke-miterlimit="10" stroke-dasharray="3"></path></g><g transform="translate(-310,-150) scale(1,1)"><path fill="none" stroke="#000000" d="M 871.0144410406637 758.4365336292686 L 882 759 L 874.6304676564433 750.833605873014" stroke-miterlimit="10"></path></g><g transform="translate(-310,-150) scale(1,1)"><g><path fill="none" stroke="none"></path><text fill="#000000" stroke="none" font-family="Arial" font-size="13px" font-style="normal" font-weight="normal" text-decoration="none" x="784.5" y="698.5">«include»</text></g></g><g transform="translate(-310,-150) scale(1,1)"><path fill="none" stroke="#000000" d="M 686 649 Q 792 800 866 827" stroke-miterlimit="10" stroke-dasharray="3"></path></g><g transform="translate(-310,-150) scale(1,1)"><path fill="none" stroke="#000000" d="M 855.0100940565418 827.4711341146011 L 866 827 L 857.8958208554956 819.5621051100611" stroke-miterlimit="10"></path></g><g transform="translate(-310,-150) scale(1,1)"><g><path fill="none" stroke="none"></path><text fill="#000000" stroke="none" font-family="Arial" font-size="13px" font-style="normal" font-weight="normal" text-decoration="none" x="774.5" y="777.5">«include»</text></g></g><g transform="translate(-310,-150) scale(1,1)"><path fill="none" stroke="#000000" d="M 672 649 Q 752 888 854 911" stroke-miterlimit="10" stroke-dasharray="3"></path></g><g transform="translate(-310,-150) scale(1,1)"><path fill="none" stroke="#000000" d="M 843.1602807460954 912.8709587105359 L 854 911 L 845.0121934178658 904.6581286009456" stroke-miterlimit="10"></path></g><g transform="translate(-310,-150) scale(1,1)"><g><path fill="none" stroke="none"></path><text fill="#000000" stroke="none" font-family="Arial" font-size="13px" font-style="normal" font-weight="normal" text-decoration="none" x="718.5" y="892.5">«include»</text></g></g><g transform="translate(-310,-150) scale(1,1)"><path fill="none" stroke="#000000" d="M 663 649 Q 688 1008 854 1015" stroke-miterlimit="10" stroke-dasharray="3"></path></g><g transform="translate(-310,-150) scale(1,1)"><path fill="none" stroke="#000000" d="M 843.668996558114 1018.7776140464241 L 854 1015 L 844.0237009008489 1010.3660539187129" stroke-miterlimit="10"></path></g><g transform="translate(-310,-150) scale(1,1)"><g><path fill="none" stroke="none"></path><text fill="#000000" stroke="none" font-family="Arial" font-size="13px" font-style="normal" font-weight="normal" text-decoration="none" x="676.5" y="978.5">«include»</text></g></g><g transform="translate(-310,-150) scale(1,1)"><path fill="none" stroke="#000000" d="M 448 611 L 576 611" stroke-miterlimit="10"></path></g><g transform="translate(-310,-150) scale(1,1)"><path fill="none" stroke="#000000" d="M 1150 690 Q 1120 744 983 827" stroke-miterlimit="10"></path></g><g transform="translate(-310,-150) scale(1,1)"><path fill="none" stroke="#000000" d="M 1135 930 Q 1082 936 1024 934" stroke-miterlimit="10"></path></g><g transform="translate(-310,-150) scale(1,1)"><path fill="none" stroke="#000000" d="M 1304 986 Q 1304 994 1024 1012" stroke-miterlimit="10"></path></g><g transform="translate(-310,-150) scale(1,1)"><path fill="none" stroke="#000000" d="M 1304 879 Q 1304 848 1024 853" stroke-miterlimit="10"></path></g><g transform="translate(-310,-150) scale(1,1)"><path fill="none" stroke="#000000" d="M 1135 899 Q 1112 888 1024 871" stroke-miterlimit="10"></path></g><g transform="translate(-310,-150) scale(1,1)"><path fill="none" stroke="#000000" d="M 1207 801 Q 1144 824 1024 842" stroke-miterlimit="10"></path></g><g transform="translate(-310,-150) scale(1,1)"><path fill="none" stroke="#000000" d="M 1255 703 Q 1136 792 1024 827" stroke-miterlimit="10"></path></g></g></svg>