<svg version="1.1" xmlns="http://www.w3.org/2000/svg" xmlns:xlink="http://www.w3.org/1999/xlink" width="524" height="298"><defs/><g><text fill="#eeeeee" stroke="none" font-family="Arial" font-size="24px" font-style="normal" font-weight="normal" text-decoration="none" x="0" y="0">UNREGISTERED</text><text fill="#eeeeee" stroke="none" font-family="Arial" font-size="24px" font-style="normal" font-weight="normal" text-decoration="none" x="0" y="30">UNREGISTERED</text><text fill="#eeeeee" stroke="none" font-family="Arial" font-size="24px" font-style="normal" font-weight="normal" text-decoration="none" x="0" y="60">UNREGISTERED</text><text fill="#eeeeee" stroke="none" font-family="Arial" font-size="24px" font-style="normal" font-weight="normal" text-decoration="none" x="0" y="90">UNREGISTERED</text><text fill="#eeeeee" stroke="none" font-family="Arial" font-size="24px" font-style="normal" font-weight="normal" text-decoration="none" x="0" y="120">UNREGISTERED</text><text fill="#eeeeee" stroke="none" font-family="Arial" font-size="24px" font-style="normal" font-weight="normal" text-decoration="none" x="0" y="150">UNREGISTERED</text><text fill="#eeeeee" stroke="none" font-family="Arial" font-size="24px" font-style="normal" font-weight="normal" text-decoration="none" x="0" y="180">UNREGISTERED</text><text fill="#eeeeee" stroke="none" font-family="Arial" font-size="24px" font-style="normal" font-weight="normal" text-decoration="none" x="0" y="210">UNREGISTERED</text><text fill="#eeeeee" stroke="none" font-family="Arial" font-size="24px" font-style="normal" font-weight="normal" text-decoration="none" x="0" y="240">UNREGISTERED</text><text fill="#eeeeee" stroke="none" font-family="Arial" font-size="24px" font-style="normal" font-weight="normal" text-decoration="none" x="0" y="270">UNREGISTERED</text><text fill="#eeeeee" stroke="none" font-family="Arial" font-size="24px" font-style="normal" font-weight="normal" text-decoration="none" x="200" y="0">UNREGISTERED</text><text fill="#eeeeee" stroke="none" font-family="Arial" font-size="24px" font-style="normal" font-weight="normal" text-decoration="none" x="200" y="30">UNREGISTERED</text><text fill="#eeeeee" stroke="none" font-family="Arial" font-size="24px" font-style="normal" font-weight="normal" text-decoration="none" x="200" y="60">UNREGISTERED</text><text fill="#eeeeee" stroke="none" font-family="Arial" font-size="24px" font-style="normal" font-weight="normal" text-decoration="none" x="200" y="90">UNREGISTERED</text><text fill="#eeeeee" stroke="none" font-family="Arial" font-size="24px" font-style="normal" font-weight="normal" text-decoration="none" x="200" y="120">UNREGISTERED</text><text fill="#eeeeee" stroke="none" font-family="Arial" font-size="24px" font-style="normal" font-weight="normal" text-decoration="none" x="200" y="150">UNREGISTERED</text><text fill="#eeeeee" stroke="none" font-family="Arial" font-size="24px" font-style="normal" font-weight="normal" text-decoration="none" x="200" y="180">UNREGISTERED</text><text fill="#eeeeee" stroke="none" font-family="Arial" font-size="24px" font-style="normal" font-weight="normal" text-decoration="none" x="200" y="210">UNREGISTERED</text><text fill="#eeeeee" stroke="none" font-family="Arial" font-size="24px" font-style="normal" font-weight="normal" text-decoration="none" x="200" y="240">UNREGISTERED</text><text fill="#eeeeee" stroke="none" font-family="Arial" font-size="24px" font-style="normal" font-weight="normal" text-decoration="none" x="200" y="270">UNREGISTERED</text><text fill="#eeeeee" stroke="none" font-family="Arial" font-size="24px" font-style="normal" font-weight="normal" text-decoration="none" x="400" y="0">UNREGISTERED</text><text fill="#eeeeee" stroke="none" font-family="Arial" font-size="24px" font-style="normal" font-weight="normal" text-decoration="none" x="400" y="30">UNREGISTERED</text><text fill="#eeeeee" stroke="none" font-family="Arial" font-size="24px" font-style="normal" font-weight="normal" text-decoration="none" x="400" y="60">UNREGISTERED</text><text fill="#eeeeee" stroke="none" font-family="Arial" font-size="24px" font-style="normal" font-weight="normal" text-decoration="none" x="400" y="90">UNREGISTERED</text><text fill="#eeeeee" stroke="none" font-family="Arial" font-size="24px" font-style="normal" font-weight="normal" text-decoration="none" x="400" y="120">UNREGISTERED</text><text fill="#eeeeee" stroke="none" font-family="Arial" font-size="24px" font-style="normal" font-weight="normal" text-decoration="none" x="400" y="150">UNREGISTERED</text><text fill="#eeeeee" stroke="none" font-family="Arial" font-size="24px" font-style="normal" font-weight="normal" text-decoration="none" x="400" y="180">UNREGISTERED</text><text fill="#eeeeee" stroke="none" font-family="Arial" font-size="24px" font-style="normal" font-weight="normal" text-decoration="none" x="400" y="210">UNREGISTERED</text><text fill="#eeeeee" stroke="none" font-family="Arial" font-size="24px" font-style="normal" font-weight="normal" text-decoration="none" x="400" y="240">UNREGISTERED</text><text fill="#eeeeee" stroke="none" font-family="Arial" font-size="24px" font-style="normal" font-weight="normal" text-decoration="none" x="400" y="270">UNREGISTERED</text><g transform="translate(-838,-46) scale(1,1)"><rect fill="#C0C0C0" stroke="none" x="1031" y="159" width="157.5224609375" height="182" opacity="0.2"/></g><g transform="translate(-838,-46) scale(1,1)"><rect fill="#ffffff" stroke="none" x="1024" y="152" width="157.5224609375" height="182"/></g><g transform="translate(-838,-46) scale(1,1)"><path fill="none" stroke="#000000" d="M 1024 152 L 1181.5224609375 152 L 1181.5224609375 334 L 1024 334 L 1024 152 Z Z" stroke-miterlimit="10"/></g><g transform="translate(-838,-46) scale(1,1)"><path fill="none" stroke="#000000" d="M 1024 177 L 1181.5224609375 177" stroke-miterlimit="10"/></g><g transform="translate(-838,-46) scale(1,1)"><g><path fill="none" stroke="none"/><text fill="#000000" stroke="none" font-family="Arial" font-size="13px" font-style="normal" font-weight="bold" text-decoration="none" x="1073.4921875" y="171.5">Evaluador</text></g></g><g transform="translate(-838,-46) scale(1,1)"><g><path fill="none" stroke="none"/><text fill="#000000" stroke="none" font-family="Arial" font-size="13px" font-style="normal" font-weight="normal" text-decoration="none" x="1029" y="194.5">+nombre: String</text></g></g><g transform="translate(-838,-46) scale(1,1)"><g><path fill="none" stroke="none"/><text fill="#000000" stroke="none" font-family="Arial" font-size="13px" font-style="normal" font-weight="normal" text-decoration="none" x="1029" y="209.5">+primerApellido: String</text></g></g><g transform="translate(-838,-46) scale(1,1)"><g><path fill="none" stroke="none"/><text fill="#000000" stroke="none" font-family="Arial" font-size="13px" font-style="normal" font-weight="normal" text-decoration="none" x="1029" y="224.5">+segundoApellido: Sttring</text></g></g><g transform="translate(-838,-46) scale(1,1)"><g><path fill="none" stroke="none"/><text fill="#000000" stroke="none" font-family="Arial" font-size="13px" font-style="normal" font-weight="normal" text-decoration="none" x="1029" y="239.5">+sexo: Sexo</text></g></g><g transform="translate(-838,-46) scale(1,1)"><g><path fill="none" stroke="none"/><text fill="#000000" stroke="none" font-family="Arial" font-size="13px" font-style="normal" font-weight="normal" text-decoration="none" x="1029" y="254.5">+institución: String</text></g></g><g transform="translate(-838,-46) scale(1,1)"><g><path fill="none" stroke="none"/><text fill="#000000" stroke="none" font-family="Arial" font-size="13px" font-style="normal" font-weight="normal" text-decoration="none" x="1029" y="269.5">+dependencia: String</text></g></g><g transform="translate(-838,-46) scale(1,1)"><g><path fill="none" stroke="none"/><text fill="#000000" stroke="none" font-family="Arial" font-size="13px" font-style="normal" font-weight="normal" text-decoration="none" x="1029" y="284.5">+especialidad: String</text></g></g><g transform="translate(-838,-46) scale(1,1)"><g><path fill="none" stroke="none"/><text fill="#000000" stroke="none" font-family="Arial" font-size="13px" font-style="normal" font-weight="normal" text-decoration="none" x="1029" y="299.5">+palabraClave: Array</text></g></g><g transform="translate(-838,-46) scale(1,1)"><g><path fill="none" stroke="none"/><text fill="#000000" stroke="none" font-family="Arial" font-size="13px" font-style="normal" font-weight="normal" text-decoration="none" x="1029" y="314.5">+numeroRCEA: String</text></g></g><g transform="translate(-838,-46) scale(1,1)"><rect fill="#C0C0C0" stroke="none" x="1031" y="63" width="152" height="50" opacity="0.2"/></g><g transform="translate(-838,-46) scale(1,1)"><rect fill="#ffffff" stroke="none" x="1024" y="56" width="152" height="50"/></g><g transform="translate(-838,-46) scale(1,1)"><path fill="none" stroke="#000000" d="M 1024 56 L 1176 56 L 1176 106 L 1024 106 L 1024 56 Z Z" stroke-miterlimit="10"/></g><g transform="translate(-838,-46) scale(1,1)"><g><path fill="none" stroke="none"/><text fill="#000000" stroke="none" font-family="Arial" font-size="13px" font-style="normal" font-weight="normal" text-decoration="none" x="1066.7509765625" y="73.5">«Catálogo»</text></g></g><g transform="translate(-838,-46) scale(1,1)"><g><path fill="none" stroke="none"/><text fill="#000000" stroke="none" font-family="Arial" font-size="13px" font-style="normal" font-weight="bold" text-decoration="none" x="1035.685546875" y="88.5">Área de Conocimiento</text></g></g><g transform="translate(-838,-46) scale(1,1)"><path fill="none" stroke="#000000" d="M 1096 152 L 1096 106" stroke-miterlimit="10"/></g><g transform="translate(-838,-46) scale(1,1)"><path fill="none" stroke="#000000" d="M 1100.2095177560159 116.16267485762415 L 1096 106 L 1091.7904822439841 116.16267485762415" stroke-miterlimit="10"/></g><g transform="translate(-838,-46) scale(1,1)"><g><path fill="none" stroke="none"/><text fill="#000000" stroke="none" font-family="Arial" font-size="13px" font-style="normal" font-weight="normal" text-decoration="none" x="1104.5" y="133.5">1</text></g></g><g transform="translate(-838,-46) scale(1,1)"><rect fill="#C0C0C0" stroke="none" x="1239" y="271" width="116.6435546875" height="44" opacity="0.2"/></g><g transform="translate(-838,-46) scale(1,1)"><rect fill="#ffffff" stroke="none" x="1232" y="264" width="116.6435546875" height="44"/></g><g transform="translate(-838,-46) scale(1,1)"><path fill="none" stroke="#000000" d="M 1232 264 L 1348.6435546875 264 L 1348.6435546875 308 L 1232 308 L 1232 264 Z Z" stroke-miterlimit="10"/></g><g transform="translate(-838,-46) scale(1,1)"><g><path fill="none" stroke="none"/><text fill="#000000" stroke="none" font-family="Arial" font-size="13px" font-style="normal" font-weight="bold" text-decoration="none" x="1272.25634765625" y="283.5">Grado</text><text fill="#000000" stroke="none" font-family="Arial" font-size="13px" font-style="normal" font-weight="bold" text-decoration="none" x="1258.167724609375" y="296.5">Academico</text></g></g><g transform="translate(-838,-46) scale(1,1)"><rect fill="#C0C0C0" stroke="none" x="1239" y="183" width="120" height="44" opacity="0.2"/></g><g transform="translate(-838,-46) scale(1,1)"><rect fill="#ffffff" stroke="none" x="1232" y="176" width="120" height="44"/></g><g transform="translate(-838,-46) scale(1,1)"><path fill="none" stroke="#000000" d="M 1232 176 L 1352 176 L 1352 220 L 1232 220 L 1232 176 Z Z" stroke-miterlimit="10"/></g><g transform="translate(-838,-46) scale(1,1)"><g><path fill="none" stroke="none"/><text fill="#000000" stroke="none" font-family="Arial" font-size="13px" font-style="normal" font-weight="bold" text-decoration="none" x="1277.1845703125" y="195.5">Sexo</text></g></g><g transform="translate(-838,-46) scale(1,1)"><rect fill="#C0C0C0" stroke="none" x="855" y="287" width="126.78076171875" height="44" opacity="0.2"/></g><g transform="translate(-838,-46) scale(1,1)"><rect fill="#ffffff" stroke="none" x="848" y="280" width="126.78076171875" height="44"/></g><g transform="translate(-838,-46) scale(1,1)"><path fill="none" stroke="#000000" d="M 848 280 L 974.78076171875 280 L 974.78076171875 324 L 848 324 L 848 280 Z Z" stroke-miterlimit="10"/></g><g transform="translate(-838,-46) scale(1,1)"><g><path fill="none" stroke="none"/><text fill="#000000" stroke="none" font-family="Arial" font-size="13px" font-style="normal" font-weight="bold" text-decoration="none" x="889.7099609375" y="299.5">Pais de</text><text fill="#000000" stroke="none" font-family="Arial" font-size="13px" font-style="normal" font-weight="bold" text-decoration="none" x="879.233154296875" y="312.5">Recidencia</text></g></g><g transform="translate(-838,-46) scale(1,1)"><path fill="none" stroke="#000000" d="M 1182 200 L 1232 200" stroke-miterlimit="10"/></g><g transform="translate(-838,-46) scale(1,1)"><path fill="none" stroke="#000000" d="M 1221.837325142376 204.209517756016 L 1232 200 L 1221.837325142376 195.790482243984" stroke-miterlimit="10"/></g><g transform="translate(-838,-46) scale(1,1)"><g><path fill="none" stroke="none"/><text fill="#000000" stroke="none" font-family="Arial" font-size="13px" font-style="normal" font-weight="normal" text-decoration="none" x="1206.5" y="218.5">1</text></g></g><g transform="translate(-838,-46) scale(1,1)"><path fill="none" stroke="#000000" d="M 1182 286 L 1232 286" stroke-miterlimit="10"/></g><g transform="translate(-838,-46) scale(1,1)"><path fill="none" stroke="#000000" d="M 1221.837325142376 290.209517756016 L 1232 286 L 1221.837325142376 281.790482243984" stroke-miterlimit="10"/></g><g transform="translate(-838,-46) scale(1,1)"><g><path fill="none" stroke="none"/><text fill="#000000" stroke="none" font-family="Arial" font-size="13px" font-style="normal" font-weight="normal" text-decoration="none" x="1206.5" y="304.5">1</text></g></g><g transform="translate(-838,-46) scale(1,1)"><path fill="none" stroke="#000000" d="M 1024 302 L 975 302" stroke-miterlimit="10"/></g><g transform="translate(-838,-46) scale(1,1)"><path fill="none" stroke="#000000" d="M 985.1626748576241 297.790482243984 L 975 302 L 985.1626748576241 306.209517756016" stroke-miterlimit="10"/></g><g transform="translate(-838,-46) scale(1,1)"><g><path fill="none" stroke="none"/><text fill="#000000" stroke="none" font-family="Arial" font-size="13px" font-style="normal" font-weight="normal" text-decoration="none" x="992.5" y="295.5">1</text></g></g><g transform="translate(-838,-46) scale(1,1)"><rect fill="#C0C0C0" stroke="none" x="855" y="191" width="125.30810546875" height="44" opacity="0.2"/></g><g transform="translate(-838,-46) scale(1,1)"><rect fill="#ffffff" stroke="none" x="848" y="184" width="125.30810546875" height="44"/></g><g transform="translate(-838,-46) scale(1,1)"><path fill="none" stroke="#000000" d="M 848 184 L 973.30810546875 184 L 973.30810546875 228 L 848 228 L 848 184 Z Z" stroke-miterlimit="10"/></g><g transform="translate(-838,-46) scale(1,1)"><g><path fill="none" stroke="none"/><text fill="#000000" stroke="none" font-family="Arial" font-size="13px" font-style="normal" font-weight="bold" text-decoration="none" x="888.608642578125" y="203.5">Entidad</text><text fill="#000000" stroke="none" font-family="Arial" font-size="13px" font-style="normal" font-weight="bold" text-decoration="none" x="879.944091796875" y="216.5">Federativa</text></g></g><g transform="translate(-838,-46) scale(1,1)"><path fill="none" stroke="#000000" d="M 1024 212 L 973 212" stroke-miterlimit="10"/></g><g transform="translate(-838,-46) scale(1,1)"><path fill="none" stroke="#000000" d="M 983.1626748576241 207.790482243984 L 973 212 L 983.1626748576241 216.209517756016" stroke-miterlimit="10"/></g><g transform="translate(-838,-46) scale(1,1)"><g><path fill="none" stroke="none"/><text fill="#000000" stroke="none" font-family="Arial" font-size="13px" font-style="normal" font-weight="normal" text-decoration="none" x="990.5" y="205.5">1</text></g></g></g></svg>