<svg version="1.1" xmlns="http://www.w3.org/2000/svg" xmlns:xlink="http://www.w3.org/1999/xlink" width="500" height="355"><defs></defs><g><g transform="translate(-46,-86) scale(1,1)"><rect fill="#C0C0C0" stroke="none" x="215" y="103" width="184" height="52" opacity="0.2"></rect></g><g transform="translate(-46,-86) scale(1,1)"><rect fill="#ffffff" stroke="none" x="208" y="96" width="184" height="52"></rect></g><g transform="translate(-46,-86) scale(1,1)"><path fill="none" stroke="#000000" d="M 208 96 L 392 96 L 392 148 L 208 148 L 208 96 Z Z" stroke-miterlimit="10"></path></g><g transform="translate(-46,-86) scale(1,1)"><g><path fill="none" stroke="none"></path><text fill="#000000" stroke="none" font-family="Arial" font-size="13px" font-style="normal" font-weight="normal" text-decoration="none" x="268.5" y="113.5">«Abstract»</text></g></g><g transform="translate(-46,-86) scale(1,1)"><g><path fill="none" stroke="none"></path><text fill="#000000" stroke="none" font-family="Arial" font-size="13px" font-style="italic" font-weight="bold" text-decoration="none" x="267" y="128.5">Documento</text></g></g><g transform="translate(-46,-86) scale(1,1)"><rect fill="#C0C0C0" stroke="none" x="367" y="207" width="176" height="50" opacity="0.2"></rect></g><g transform="translate(-46,-86) scale(1,1)"><rect fill="#ffffff" stroke="none" x="360" y="200" width="176" height="50"></rect></g><g transform="translate(-46,-86) scale(1,1)"><path fill="none" stroke="#000000" d="M 360 200 L 536 200 L 536 250 L 360 250 L 360 200 Z Z" stroke-miterlimit="10"></path></g><g transform="translate(-46,-86) scale(1,1)"><g><path fill="none" stroke="none"></path><text fill="#000000" stroke="none" font-family="Arial" font-size="13px" font-style="normal" font-weight="normal" text-decoration="none" x="411.5" y="217.5">«Document»</text></g></g><g transform="translate(-46,-86) scale(1,1)"><g><path fill="none" stroke="none"></path><text fill="#000000" stroke="none" font-family="Arial" font-size="13px" font-style="normal" font-weight="bold" text-decoration="none" x="374.5" y="232.5">Carta de Participantes en</text><text fill="#000000" stroke="none" font-family="Arial" font-size="13px" font-style="normal" font-weight="bold" text-decoration="none" x="391.5" y="245.5">Red y/o Laboratorio</text></g></g><g transform="translate(-46,-86) scale(1,1)"><path fill="none" stroke="#000000" d="M 360 214 L 352 214 M 352 214 A 8 8 0 0 1 344 206 L 344 148" stroke-miterlimit="10"></path></g><g transform="translate(-46,-86) scale(1,1)"><path fill="#FFFFFF" stroke="none" d="M 352.419035512032 168.3253497152483 L 344 148 L 335.580964487968 168.3253497152483"></path></g><g transform="translate(-46,-86) scale(1,1)"><path fill="none" stroke="#000000" d="M 352.419035512032 168.3253497152483 L 344 148 L 335.580964487968 168.3253497152483 L 352.419035512032 168.3253497152483" stroke-miterlimit="10"></path></g><g transform="translate(-46,-86) scale(1,1)"><rect fill="#C0C0C0" stroke="none" x="63" y="207" width="144" height="50" opacity="0.2"></rect></g><g transform="translate(-46,-86) scale(1,1)"><rect fill="#ffffff" stroke="none" x="56" y="200" width="144" height="50"></rect></g><g transform="translate(-46,-86) scale(1,1)"><path fill="none" stroke="#000000" d="M 56 200 L 200 200 L 200 250 L 56 250 L 56 200 Z Z" stroke-miterlimit="10"></path></g><g transform="translate(-46,-86) scale(1,1)"><g><path fill="none" stroke="none"></path><text fill="#000000" stroke="none" font-family="Arial" font-size="13px" font-style="normal" font-weight="normal" text-decoration="none" x="91.5" y="217.5">«Document»</text></g></g><g transform="translate(-46,-86) scale(1,1)"><g><path fill="none" stroke="none"></path><text fill="#000000" stroke="none" font-family="Arial" font-size="13px" font-style="normal" font-weight="bold" text-decoration="none" x="83" y="232.5">Carta Oficial de</text><text fill="#000000" stroke="none" font-family="Arial" font-size="13px" font-style="normal" font-weight="bold" text-decoration="none" x="94" y="245.5">Postulación</text></g></g><g transform="translate(-46,-86) scale(1,1)"><rect fill="#C0C0C0" stroke="none" x="63" y="263" width="144" height="50" opacity="0.2"></rect></g><g transform="translate(-46,-86) scale(1,1)"><rect fill="#ffffff" stroke="none" x="56" y="256" width="144" height="50"></rect></g><g transform="translate(-46,-86) scale(1,1)"><path fill="none" stroke="#000000" d="M 56 256 L 200 256 L 200 306 L 56 306 L 56 256 Z Z" stroke-miterlimit="10"></path></g><g transform="translate(-46,-86) scale(1,1)"><g><path fill="none" stroke="none"></path><text fill="#000000" stroke="none" font-family="Arial" font-size="13px" font-style="normal" font-weight="normal" text-decoration="none" x="91.5" y="273.5">«Document»</text></g></g><g transform="translate(-46,-86) scale(1,1)"><g><path fill="none" stroke="none"></path><text fill="#000000" stroke="none" font-family="Arial" font-size="13px" font-style="normal" font-weight="bold" text-decoration="none" x="83" y="288.5">Carta de Apoyo</text><text fill="#000000" stroke="none" font-family="Arial" font-size="13px" font-style="normal" font-weight="bold" text-decoration="none" x="93" y="301.5">Institucional</text></g></g><g transform="translate(-46,-86) scale(1,1)"><path fill="none" stroke="#000000" d="M 200 222 L 204 222 M 204 222 A 8 8 0 0 0 212 214 L 212 148" stroke-miterlimit="10"></path></g><g transform="translate(-46,-86) scale(1,1)"><path fill="#FFFFFF" stroke="none" d="M 220.41903551203197 168.3253497152483 L 212 148 L 203.58096448796803 168.3253497152483"></path></g><g transform="translate(-46,-86) scale(1,1)"><path fill="none" stroke="#000000" d="M 220.41903551203197 168.3253497152483 L 212 148 L 203.58096448796803 168.3253497152483 L 220.41903551203197 168.3253497152483" stroke-miterlimit="10"></path></g><g transform="translate(-46,-86) scale(1,1)"><path fill="none" stroke="#000000" d="M 200 278 L 224 278 M 224 278 A 8 8 0 0 0 232 270 L 232 148" stroke-miterlimit="10"></path></g><g transform="translate(-46,-86) scale(1,1)"><path fill="#FFFFFF" stroke="none" d="M 240.41903551203197 168.3253497152483 L 232 148 L 223.58096448796803 168.3253497152483"></path></g><g transform="translate(-46,-86) scale(1,1)"><path fill="none" stroke="#000000" d="M 240.41903551203197 168.3253497152483 L 232 148 L 223.58096448796803 168.3253497152483 L 240.41903551203197 168.3253497152483" stroke-miterlimit="10"></path></g><g transform="translate(-46,-86) scale(1,1)"><rect fill="#C0C0C0" stroke="none" x="63" y="375" width="144" height="63" opacity="0.2"></rect></g><g transform="translate(-46,-86) scale(1,1)"><rect fill="#ffffff" stroke="none" x="56" y="368" width="144" height="63"></rect></g><g transform="translate(-46,-86) scale(1,1)"><path fill="none" stroke="#000000" d="M 56 368 L 200 368 L 200 431 L 56 431 L 56 368 Z Z" stroke-miterlimit="10"></path></g><g transform="translate(-46,-86) scale(1,1)"><g><path fill="none" stroke="none"></path><text fill="#000000" stroke="none" font-family="Arial" font-size="13px" font-style="normal" font-weight="normal" text-decoration="none" x="91.5" y="385.5">«Document»</text></g></g><g transform="translate(-46,-86) scale(1,1)"><g><path fill="none" stroke="none"></path><text fill="#000000" stroke="none" font-family="Arial" font-size="13px" font-style="normal" font-weight="bold" text-decoration="none" x="92" y="400.5">Convenio de</text><text fill="#000000" stroke="none" font-family="Arial" font-size="13px" font-style="normal" font-weight="bold" text-decoration="none" x="87" y="413.5">Asignación de</text><text fill="#000000" stroke="none" font-family="Arial" font-size="13px" font-style="normal" font-weight="bold" text-decoration="none" x="77" y="426.5">Recursos (CAR). </text></g></g><g transform="translate(-46,-86) scale(1,1)"><path fill="none" stroke="#000000" d="M 200 393 L 272 393 M 272 393 A 8 8 0 0 0 280 385 L 280 148" stroke-miterlimit="10"></path></g><g transform="translate(-46,-86) scale(1,1)"><path fill="#FFFFFF" stroke="none" d="M 288.419035512032 168.3253497152483 L 280 148 L 271.580964487968 168.3253497152483"></path></g><g transform="translate(-46,-86) scale(1,1)"><path fill="none" stroke="#000000" d="M 288.419035512032 168.3253497152483 L 280 148 L 271.580964487968 168.3253497152483 L 288.419035512032 168.3253497152483" stroke-miterlimit="10"></path></g><g transform="translate(-46,-86) scale(1,1)"><rect fill="#C0C0C0" stroke="none" x="63" y="319" width="144" height="50" opacity="0.2"></rect></g><g transform="translate(-46,-86) scale(1,1)"><rect fill="#ffffff" stroke="none" x="56" y="312" width="144" height="50"></rect></g><g transform="translate(-46,-86) scale(1,1)"><path fill="none" stroke="#000000" d="M 56 312 L 200 312 L 200 362 L 56 362 L 56 312 Z Z" stroke-miterlimit="10"></path></g><g transform="translate(-46,-86) scale(1,1)"><g><path fill="none" stroke="none"></path><text fill="#000000" stroke="none" font-family="Arial" font-size="13px" font-style="normal" font-weight="normal" text-decoration="none" x="91.5" y="329.5">«Document»</text></g></g><g transform="translate(-46,-86) scale(1,1)"><g><path fill="none" stroke="none"></path><text fill="#000000" stroke="none" font-family="Arial" font-size="13px" font-style="normal" font-weight="bold" text-decoration="none" x="66" y="344.5">Carta compromiso de</text><text fill="#000000" stroke="none" font-family="Arial" font-size="13px" font-style="normal" font-weight="bold" text-decoration="none" x="91" y="357.5">participantes</text></g></g><g transform="translate(-46,-86) scale(1,1)"><path fill="none" stroke="#000000" d="M 200 336 L 248 336 M 248 336 A 8 8 0 0 0 256 328 L 256 148" stroke-miterlimit="10"></path></g><g transform="translate(-46,-86) scale(1,1)"><path fill="#FFFFFF" stroke="none" d="M 264.419035512032 168.3253497152483 L 256 148 L 247.58096448796803 168.3253497152483"></path></g><g transform="translate(-46,-86) scale(1,1)"><path fill="none" stroke="#000000" d="M 264.419035512032 168.3253497152483 L 256 148 L 247.58096448796803 168.3253497152483 L 264.419035512032 168.3253497152483" stroke-miterlimit="10"></path></g></g></svg>