<svg version="1.1" xmlns="http://www.w3.org/2000/svg" xmlns:xlink="http://www.w3.org/1999/xlink" width="564" height="355"><defs/><g><text fill="#eeeeee" stroke="none" font-family="Arial" font-size="24px" font-style="normal" font-weight="normal" text-decoration="none" x="0" y="0">UNREGISTERED</text><text fill="#eeeeee" stroke="none" font-family="Arial" font-size="24px" font-style="normal" font-weight="normal" text-decoration="none" x="0" y="30">UNREGISTERED</text><text fill="#eeeeee" stroke="none" font-family="Arial" font-size="24px" font-style="normal" font-weight="normal" text-decoration="none" x="0" y="60">UNREGISTERED</text><text fill="#eeeeee" stroke="none" font-family="Arial" font-size="24px" font-style="normal" font-weight="normal" text-decoration="none" x="0" y="90">UNREGISTERED</text><text fill="#eeeeee" stroke="none" font-family="Arial" font-size="24px" font-style="normal" font-weight="normal" text-decoration="none" x="0" y="120">UNREGISTERED</text><text fill="#eeeeee" stroke="none" font-family="Arial" font-size="24px" font-style="normal" font-weight="normal" text-decoration="none" x="0" y="150">UNREGISTERED</text><text fill="#eeeeee" stroke="none" font-family="Arial" font-size="24px" font-style="normal" font-weight="normal" text-decoration="none" x="0" y="180">UNREGISTERED</text><text fill="#eeeeee" stroke="none" font-family="Arial" font-size="24px" font-style="normal" font-weight="normal" text-decoration="none" x="0" y="210">UNREGISTERED</text><text fill="#eeeeee" stroke="none" font-family="Arial" font-size="24px" font-style="normal" font-weight="normal" text-decoration="none" x="0" y="240">UNREGISTERED</text><text fill="#eeeeee" stroke="none" font-family="Arial" font-size="24px" font-style="normal" font-weight="normal" text-decoration="none" x="0" y="270">UNREGISTERED</text><text fill="#eeeeee" stroke="none" font-family="Arial" font-size="24px" font-style="normal" font-weight="normal" text-decoration="none" x="0" y="300">UNREGISTERED</text><text fill="#eeeeee" stroke="none" font-family="Arial" font-size="24px" font-style="normal" font-weight="normal" text-decoration="none" x="0" y="330">UNREGISTERED</text><text fill="#eeeeee" stroke="none" font-family="Arial" font-size="24px" font-style="normal" font-weight="normal" text-decoration="none" x="200" y="0">UNREGISTERED</text><text fill="#eeeeee" stroke="none" font-family="Arial" font-size="24px" font-style="normal" font-weight="normal" text-decoration="none" x="200" y="30">UNREGISTERED</text><text fill="#eeeeee" stroke="none" font-family="Arial" font-size="24px" font-style="normal" font-weight="normal" text-decoration="none" x="200" y="60">UNREGISTERED</text><text fill="#eeeeee" stroke="none" font-family="Arial" font-size="24px" font-style="normal" font-weight="normal" text-decoration="none" x="200" y="90">UNREGISTERED</text><text fill="#eeeeee" stroke="none" font-family="Arial" font-size="24px" font-style="normal" font-weight="normal" text-decoration="none" x="200" y="120">UNREGISTERED</text><text fill="#eeeeee" stroke="none" font-family="Arial" font-size="24px" font-style="normal" font-weight="normal" text-decoration="none" x="200" y="150">UNREGISTERED</text><text fill="#eeeeee" stroke="none" font-family="Arial" font-size="24px" font-style="normal" font-weight="normal" text-decoration="none" x="200" y="180">UNREGISTERED</text><text fill="#eeeeee" stroke="none" font-family="Arial" font-size="24px" font-style="normal" font-weight="normal" text-decoration="none" x="200" y="210">UNREGISTERED</text><text fill="#eeeeee" stroke="none" font-family="Arial" font-size="24px" font-style="normal" font-weight="normal" text-decoration="none" x="200" y="240">UNREGISTERED</text><text fill="#eeeeee" stroke="none" font-family="Arial" font-size="24px" font-style="normal" font-weight="normal" text-decoration="none" x="200" y="270">UNREGISTERED</text><text fill="#eeeeee" stroke="none" font-family="Arial" font-size="24px" font-style="normal" font-weight="normal" text-decoration="none" x="200" y="300">UNREGISTERED</text><text fill="#eeeeee" stroke="none" font-family="Arial" font-size="24px" font-style="normal" font-weight="normal" text-decoration="none" x="200" y="330">UNREGISTERED</text><text fill="#eeeeee" stroke="none" font-family="Arial" font-size="24px" font-style="normal" font-weight="normal" text-decoration="none" x="400" y="0">UNREGISTERED</text><text fill="#eeeeee" stroke="none" font-family="Arial" font-size="24px" font-style="normal" font-weight="normal" text-decoration="none" x="400" y="30">UNREGISTERED</text><text fill="#eeeeee" stroke="none" font-family="Arial" font-size="24px" font-style="normal" font-weight="normal" text-decoration="none" x="400" y="60">UNREGISTERED</text><text fill="#eeeeee" stroke="none" font-family="Arial" font-size="24px" font-style="normal" font-weight="normal" text-decoration="none" x="400" y="90">UNREGISTERED</text><text fill="#eeeeee" stroke="none" font-family="Arial" font-size="24px" font-style="normal" font-weight="normal" text-decoration="none" x="400" y="120">UNREGISTERED</text><text fill="#eeeeee" stroke="none" font-family="Arial" font-size="24px" font-style="normal" font-weight="normal" text-decoration="none" x="400" y="150">UNREGISTERED</text><text fill="#eeeeee" stroke="none" font-family="Arial" font-size="24px" font-style="normal" font-weight="normal" text-decoration="none" x="400" y="180">UNREGISTERED</text><text fill="#eeeeee" stroke="none" font-family="Arial" font-size="24px" font-style="normal" font-weight="normal" text-decoration="none" x="400" y="210">UNREGISTERED</text><text fill="#eeeeee" stroke="none" font-family="Arial" font-size="24px" font-style="normal" font-weight="normal" text-decoration="none" x="400" y="240">UNREGISTERED</text><text fill="#eeeeee" stroke="none" font-family="Arial" font-size="24px" font-style="normal" font-weight="normal" text-decoration="none" x="400" y="270">UNREGISTERED</text><text fill="#eeeeee" stroke="none" font-family="Arial" font-size="24px" font-style="normal" font-weight="normal" text-decoration="none" x="400" y="300">UNREGISTERED</text><text fill="#eeeeee" stroke="none" font-family="Arial" font-size="24px" font-style="normal" font-weight="normal" text-decoration="none" x="400" y="330">UNREGISTERED</text><g transform="translate(-46,-86) scale(1,1)"><rect fill="#C0C0C0" stroke="none" x="215" y="103" width="184" height="52" opacity="0.2"/></g><g transform="translate(-46,-86) scale(1,1)"><rect fill="#ffffff" stroke="none" x="208" y="96" width="184" height="52"/></g><g transform="translate(-46,-86) scale(1,1)"><path fill="none" stroke="#000000" d="M 208 96 L 392 96 L 392 148 L 208 148 L 208 96 Z Z" stroke-miterlimit="10"/></g><g transform="translate(-46,-86) scale(1,1)"><g><path fill="none" stroke="none"/><text fill="#000000" stroke="none" font-family="Arial" font-size="13px" font-style="normal" font-weight="normal" text-decoration="none" x="268.92822265625" y="113.5">«Abstract»</text></g></g><g transform="translate(-46,-86) scale(1,1)"><g><path fill="none" stroke="none"/><text fill="#000000" stroke="none" font-family="Arial" font-size="13px" font-style="italic" font-weight="bold" text-decoration="none" x="266.760498046875" y="128.5">Documento</text></g></g><g transform="translate(-46,-86) scale(1,1)"><rect fill="#C0C0C0" stroke="none" x="431" y="199" width="176" height="50" opacity="0.2"/></g><g transform="translate(-46,-86) scale(1,1)"><rect fill="#ffffff" stroke="none" x="424" y="192" width="176" height="50"/></g><g transform="translate(-46,-86) scale(1,1)"><path fill="none" stroke="#000000" d="M 424 192 L 600 192 L 600 242 L 424 242 L 424 192 Z Z" stroke-miterlimit="10"/></g><g transform="translate(-46,-86) scale(1,1)"><g><path fill="none" stroke="none"/><text fill="#000000" stroke="none" font-family="Arial" font-size="13px" font-style="normal" font-weight="normal" text-decoration="none" x="475.1455078125" y="209.5">«Document»</text></g></g><g transform="translate(-46,-86) scale(1,1)"><g><path fill="none" stroke="none"/><text fill="#000000" stroke="none" font-family="Arial" font-size="13px" font-style="normal" font-weight="bold" text-decoration="none" x="438.65283203125" y="224.5">Carta de Participantes en</text><text fill="#000000" stroke="none" font-family="Arial" font-size="13px" font-style="normal" font-weight="bold" text-decoration="none" x="454.9091796875" y="237.5">Red y/o Laboratorio</text></g></g><g transform="translate(-46,-86) scale(1,1)"><path fill="none" stroke="#000000" d="M 424 214 L 392 214 M 392 214 A 8 8 0 0 1 384 206 L 384 148" stroke-miterlimit="10"/></g><g transform="translate(-46,-86) scale(1,1)"><path fill="#FFFFFF" stroke="none" d="M 392.419035512032 168.3253497152483 L 384 148 L 375.580964487968 168.3253497152483"/></g><g transform="translate(-46,-86) scale(1,1)"><path fill="none" stroke="#000000" d="M 392.419035512032 168.3253497152483 L 384 148 L 375.580964487968 168.3253497152483 L 392.419035512032 168.3253497152483" stroke-miterlimit="10"/></g><g transform="translate(-46,-86) scale(1,1)"><rect fill="#C0C0C0" stroke="none" x="63" y="207" width="144" height="50" opacity="0.2"/></g><g transform="translate(-46,-86) scale(1,1)"><rect fill="#ffffff" stroke="none" x="56" y="200" width="144" height="50"/></g><g transform="translate(-46,-86) scale(1,1)"><path fill="none" stroke="#000000" d="M 56 200 L 200 200 L 200 250 L 56 250 L 56 200 Z Z" stroke-miterlimit="10"/></g><g transform="translate(-46,-86) scale(1,1)"><g><path fill="none" stroke="none"/><text fill="#000000" stroke="none" font-family="Arial" font-size="13px" font-style="normal" font-weight="normal" text-decoration="none" x="91.1455078125" y="217.5">«Document»</text></g></g><g transform="translate(-46,-86) scale(1,1)"><g><path fill="none" stroke="none"/><text fill="#000000" stroke="none" font-family="Arial" font-size="13px" font-style="normal" font-weight="bold" text-decoration="none" x="83.20458984375" y="232.5">Carta Oficial de</text><text fill="#000000" stroke="none" font-family="Arial" font-size="13px" font-style="normal" font-weight="bold" text-decoration="none" x="94.3955078125" y="245.5">Postulación</text></g></g><g transform="translate(-46,-86) scale(1,1)"><rect fill="#C0C0C0" stroke="none" x="63" y="263" width="144" height="50" opacity="0.2"/></g><g transform="translate(-46,-86) scale(1,1)"><rect fill="#ffffff" stroke="none" x="56" y="256" width="144" height="50"/></g><g transform="translate(-46,-86) scale(1,1)"><path fill="none" stroke="#000000" d="M 56 256 L 200 256 L 200 306 L 56 306 L 56 256 Z Z" stroke-miterlimit="10"/></g><g transform="translate(-46,-86) scale(1,1)"><g><path fill="none" stroke="none"/><text fill="#000000" stroke="none" font-family="Arial" font-size="13px" font-style="normal" font-weight="normal" text-decoration="none" x="91.1455078125" y="273.5">«Document»</text></g></g><g transform="translate(-46,-86) scale(1,1)"><g><path fill="none" stroke="none"/><text fill="#000000" stroke="none" font-family="Arial" font-size="13px" font-style="normal" font-weight="bold" text-decoration="none" x="82.833251953125" y="288.5">Carta de Apoyo</text><text fill="#000000" stroke="none" font-family="Arial" font-size="13px" font-style="normal" font-weight="bold" text-decoration="none" x="93.675048828125" y="301.5">Institucional</text></g></g><g transform="translate(-46,-86) scale(1,1)"><path fill="none" stroke="#000000" d="M 200 222 L 204 222 M 204 222 A 8 8 0 0 0 212 214 L 212 148" stroke-miterlimit="10"/></g><g transform="translate(-46,-86) scale(1,1)"><path fill="#FFFFFF" stroke="none" d="M 220.41903551203197 168.3253497152483 L 212 148 L 203.58096448796803 168.3253497152483"/></g><g transform="translate(-46,-86) scale(1,1)"><path fill="none" stroke="#000000" d="M 220.41903551203197 168.3253497152483 L 212 148 L 203.58096448796803 168.3253497152483 L 220.41903551203197 168.3253497152483" stroke-miterlimit="10"/></g><g transform="translate(-46,-86) scale(1,1)"><path fill="none" stroke="#000000" d="M 200 278 L 224 278 M 224 278 A 8 8 0 0 0 232 270 L 232 148" stroke-miterlimit="10"/></g><g transform="translate(-46,-86) scale(1,1)"><path fill="#FFFFFF" stroke="none" d="M 240.41903551203197 168.3253497152483 L 232 148 L 223.58096448796803 168.3253497152483"/></g><g transform="translate(-46,-86) scale(1,1)"><path fill="none" stroke="#000000" d="M 240.41903551203197 168.3253497152483 L 232 148 L 223.58096448796803 168.3253497152483 L 240.41903551203197 168.3253497152483" stroke-miterlimit="10"/></g><g transform="translate(-46,-86) scale(1,1)"><rect fill="#C0C0C0" stroke="none" x="63" y="375" width="144" height="63" opacity="0.2"/></g><g transform="translate(-46,-86) scale(1,1)"><rect fill="#ffffff" stroke="none" x="56" y="368" width="144" height="63"/></g><g transform="translate(-46,-86) scale(1,1)"><path fill="none" stroke="#000000" d="M 56 368 L 200 368 L 200 431 L 56 431 L 56 368 Z Z" stroke-miterlimit="10"/></g><g transform="translate(-46,-86) scale(1,1)"><g><path fill="none" stroke="none"/><text fill="#000000" stroke="none" font-family="Arial" font-size="13px" font-style="normal" font-weight="normal" text-decoration="none" x="91.1455078125" y="385.5">«Document»</text></g></g><g transform="translate(-46,-86) scale(1,1)"><g><path fill="none" stroke="none"/><text fill="#000000" stroke="none" font-family="Arial" font-size="13px" font-style="normal" font-weight="bold" text-decoration="none" x="91.5009765625" y="400.5">Convenio de</text><text fill="#000000" stroke="none" font-family="Arial" font-size="13px" font-style="normal" font-weight="bold" text-decoration="none" x="87.16552734375" y="413.5">Asignación de</text><text fill="#000000" stroke="none" font-family="Arial" font-size="13px" font-style="normal" font-weight="bold" text-decoration="none" x="77.075927734375" y="426.5">Recursos (CAR). </text></g></g><g transform="translate(-46,-86) scale(1,1)"><path fill="none" stroke="#000000" d="M 200 393 L 272 393 M 272 393 A 8 8 0 0 0 280 385 L 280 148" stroke-miterlimit="10"/></g><g transform="translate(-46,-86) scale(1,1)"><path fill="#FFFFFF" stroke="none" d="M 288.419035512032 168.3253497152483 L 280 148 L 271.580964487968 168.3253497152483"/></g><g transform="translate(-46,-86) scale(1,1)"><path fill="none" stroke="#000000" d="M 288.419035512032 168.3253497152483 L 280 148 L 271.580964487968 168.3253497152483 L 288.419035512032 168.3253497152483" stroke-miterlimit="10"/></g><g transform="translate(-46,-86) scale(1,1)"><rect fill="#C0C0C0" stroke="none" x="63" y="319" width="144" height="50" opacity="0.2"/></g><g transform="translate(-46,-86) scale(1,1)"><rect fill="#ffffff" stroke="none" x="56" y="312" width="144" height="50"/></g><g transform="translate(-46,-86) scale(1,1)"><path fill="none" stroke="#000000" d="M 56 312 L 200 312 L 200 362 L 56 362 L 56 312 Z Z" stroke-miterlimit="10"/></g><g transform="translate(-46,-86) scale(1,1)"><g><path fill="none" stroke="none"/><text fill="#000000" stroke="none" font-family="Arial" font-size="13px" font-style="normal" font-weight="normal" text-decoration="none" x="91.1455078125" y="329.5">«Document»</text></g></g><g transform="translate(-46,-86) scale(1,1)"><g><path fill="none" stroke="none"/><text fill="#000000" stroke="none" font-family="Arial" font-size="13px" font-style="normal" font-weight="bold" text-decoration="none" x="65.865966796875" y="344.5">Carta compromiso de</text><text fill="#000000" stroke="none" font-family="Arial" font-size="13px" font-style="normal" font-weight="bold" text-decoration="none" x="91.1455078125" y="357.5">participantes</text></g></g><g transform="translate(-46,-86) scale(1,1)"><path fill="none" stroke="#000000" d="M 200 336 L 248 336 M 248 336 A 8 8 0 0 0 256 328 L 256 148" stroke-miterlimit="10"/></g><g transform="translate(-46,-86) scale(1,1)"><path fill="#FFFFFF" stroke="none" d="M 264.419035512032 168.3253497152483 L 256 148 L 247.58096448796803 168.3253497152483"/></g><g transform="translate(-46,-86) scale(1,1)"><path fill="none" stroke="#000000" d="M 264.419035512032 168.3253497152483 L 256 148 L 247.58096448796803 168.3253497152483 L 264.419035512032 168.3253497152483" stroke-miterlimit="10"/></g></g></svg>