<svg version="1.1" xmlns="http://www.w3.org/2000/svg" xmlns:xlink="http://www.w3.org/1999/xlink" width="847.82080078125" height="548"><defs/><g><text fill="#eeeeee" stroke="none" font-family="Arial" font-size="24px" font-style="normal" font-weight="normal" text-decoration="none" x="0" y="0">UNREGISTERED</text><text fill="#eeeeee" stroke="none" font-family="Arial" font-size="24px" font-style="normal" font-weight="normal" text-decoration="none" x="0" y="30">UNREGISTERED</text><text fill="#eeeeee" stroke="none" font-family="Arial" font-size="24px" font-style="normal" font-weight="normal" text-decoration="none" x="0" y="60">UNREGISTERED</text><text fill="#eeeeee" stroke="none" font-family="Arial" font-size="24px" font-style="normal" font-weight="normal" text-decoration="none" x="0" y="90">UNREGISTERED</text><text fill="#eeeeee" stroke="none" font-family="Arial" font-size="24px" font-style="normal" font-weight="normal" text-decoration="none" x="0" y="120">UNREGISTERED</text><text fill="#eeeeee" stroke="none" font-family="Arial" font-size="24px" font-style="normal" font-weight="normal" text-decoration="none" x="0" y="150">UNREGISTERED</text><text fill="#eeeeee" stroke="none" font-family="Arial" font-size="24px" font-style="normal" font-weight="normal" text-decoration="none" x="0" y="180">UNREGISTERED</text><text fill="#eeeeee" stroke="none" font-family="Arial" font-size="24px" font-style="normal" font-weight="normal" text-decoration="none" x="0" y="210">UNREGISTERED</text><text fill="#eeeeee" stroke="none" font-family="Arial" font-size="24px" font-style="normal" font-weight="normal" text-decoration="none" x="0" y="240">UNREGISTERED</text><text fill="#eeeeee" stroke="none" font-family="Arial" font-size="24px" font-style="normal" font-weight="normal" text-decoration="none" x="0" y="270">UNREGISTERED</text><text fill="#eeeeee" stroke="none" font-family="Arial" font-size="24px" font-style="normal" font-weight="normal" text-decoration="none" x="0" y="300">UNREGISTERED</text><text fill="#eeeeee" stroke="none" font-family="Arial" font-size="24px" font-style="normal" font-weight="normal" text-decoration="none" x="0" y="330">UNREGISTERED</text><text fill="#eeeeee" stroke="none" font-family="Arial" font-size="24px" font-style="normal" font-weight="normal" text-decoration="none" x="0" y="360">UNREGISTERED</text><text fill="#eeeeee" stroke="none" font-family="Arial" font-size="24px" font-style="normal" font-weight="normal" text-decoration="none" x="0" y="390">UNREGISTERED</text><text fill="#eeeeee" stroke="none" font-family="Arial" font-size="24px" font-style="normal" font-weight="normal" text-decoration="none" x="0" y="420">UNREGISTERED</text><text fill="#eeeeee" stroke="none" font-family="Arial" font-size="24px" font-style="normal" font-weight="normal" text-decoration="none" x="0" y="450">UNREGISTERED</text><text fill="#eeeeee" stroke="none" font-family="Arial" font-size="24px" font-style="normal" font-weight="normal" text-decoration="none" x="0" y="480">UNREGISTERED</text><text fill="#eeeeee" stroke="none" font-family="Arial" font-size="24px" font-style="normal" font-weight="normal" text-decoration="none" x="0" y="510">UNREGISTERED</text><text fill="#eeeeee" stroke="none" font-family="Arial" font-size="24px" font-style="normal" font-weight="normal" text-decoration="none" x="0" y="540">UNREGISTERED</text><text fill="#eeeeee" stroke="none" font-family="Arial" font-size="24px" font-style="normal" font-weight="normal" text-decoration="none" x="200" y="0">UNREGISTERED</text><text fill="#eeeeee" stroke="none" font-family="Arial" font-size="24px" font-style="normal" font-weight="normal" text-decoration="none" x="200" y="30">UNREGISTERED</text><text fill="#eeeeee" stroke="none" font-family="Arial" font-size="24px" font-style="normal" font-weight="normal" text-decoration="none" x="200" y="60">UNREGISTERED</text><text fill="#eeeeee" stroke="none" font-family="Arial" font-size="24px" font-style="normal" font-weight="normal" text-decoration="none" x="200" y="90">UNREGISTERED</text><text fill="#eeeeee" stroke="none" font-family="Arial" font-size="24px" font-style="normal" font-weight="normal" text-decoration="none" x="200" y="120">UNREGISTERED</text><text fill="#eeeeee" stroke="none" font-family="Arial" font-size="24px" font-style="normal" font-weight="normal" text-decoration="none" x="200" y="150">UNREGISTERED</text><text fill="#eeeeee" stroke="none" font-family="Arial" font-size="24px" font-style="normal" font-weight="normal" text-decoration="none" x="200" y="180">UNREGISTERED</text><text fill="#eeeeee" stroke="none" font-family="Arial" font-size="24px" font-style="normal" font-weight="normal" text-decoration="none" x="200" y="210">UNREGISTERED</text><text fill="#eeeeee" stroke="none" font-family="Arial" font-size="24px" font-style="normal" font-weight="normal" text-decoration="none" x="200" y="240">UNREGISTERED</text><text fill="#eeeeee" stroke="none" font-family="Arial" font-size="24px" font-style="normal" font-weight="normal" text-decoration="none" x="200" y="270">UNREGISTERED</text><text fill="#eeeeee" stroke="none" font-family="Arial" font-size="24px" font-style="normal" font-weight="normal" text-decoration="none" x="200" y="300">UNREGISTERED</text><text fill="#eeeeee" stroke="none" font-family="Arial" font-size="24px" font-style="normal" font-weight="normal" text-decoration="none" x="200" y="330">UNREGISTERED</text><text fill="#eeeeee" stroke="none" font-family="Arial" font-size="24px" font-style="normal" font-weight="normal" text-decoration="none" x="200" y="360">UNREGISTERED</text><text fill="#eeeeee" stroke="none" font-family="Arial" font-size="24px" font-style="normal" font-weight="normal" text-decoration="none" x="200" y="390">UNREGISTERED</text><text fill="#eeeeee" stroke="none" font-family="Arial" font-size="24px" font-style="normal" font-weight="normal" text-decoration="none" x="200" y="420">UNREGISTERED</text><text fill="#eeeeee" stroke="none" font-family="Arial" font-size="24px" font-style="normal" font-weight="normal" text-decoration="none" x="200" y="450">UNREGISTERED</text><text fill="#eeeeee" stroke="none" font-family="Arial" font-size="24px" font-style="normal" font-weight="normal" text-decoration="none" x="200" y="480">UNREGISTERED</text><text fill="#eeeeee" stroke="none" font-family="Arial" font-size="24px" font-style="normal" font-weight="normal" text-decoration="none" x="200" y="510">UNREGISTERED</text><text fill="#eeeeee" stroke="none" font-family="Arial" font-size="24px" font-style="normal" font-weight="normal" text-decoration="none" x="200" y="540">UNREGISTERED</text><text fill="#eeeeee" stroke="none" font-family="Arial" font-size="24px" font-style="normal" font-weight="normal" text-decoration="none" x="400" y="0">UNREGISTERED</text><text fill="#eeeeee" stroke="none" font-family="Arial" font-size="24px" font-style="normal" font-weight="normal" text-decoration="none" x="400" y="30">UNREGISTERED</text><text fill="#eeeeee" stroke="none" font-family="Arial" font-size="24px" font-style="normal" font-weight="normal" text-decoration="none" x="400" y="60">UNREGISTERED</text><text fill="#eeeeee" stroke="none" font-family="Arial" font-size="24px" font-style="normal" font-weight="normal" text-decoration="none" x="400" y="90">UNREGISTERED</text><text fill="#eeeeee" stroke="none" font-family="Arial" font-size="24px" font-style="normal" font-weight="normal" text-decoration="none" x="400" y="120">UNREGISTERED</text><text fill="#eeeeee" stroke="none" font-family="Arial" font-size="24px" font-style="normal" font-weight="normal" text-decoration="none" x="400" y="150">UNREGISTERED</text><text fill="#eeeeee" stroke="none" font-family="Arial" font-size="24px" font-style="normal" font-weight="normal" text-decoration="none" x="400" y="180">UNREGISTERED</text><text fill="#eeeeee" stroke="none" font-family="Arial" font-size="24px" font-style="normal" font-weight="normal" text-decoration="none" x="400" y="210">UNREGISTERED</text><text fill="#eeeeee" stroke="none" font-family="Arial" font-size="24px" font-style="normal" font-weight="normal" text-decoration="none" x="400" y="240">UNREGISTERED</text><text fill="#eeeeee" stroke="none" font-family="Arial" font-size="24px" font-style="normal" font-weight="normal" text-decoration="none" x="400" y="270">UNREGISTERED</text><text fill="#eeeeee" stroke="none" font-family="Arial" font-size="24px" font-style="normal" font-weight="normal" text-decoration="none" x="400" y="300">UNREGISTERED</text><text fill="#eeeeee" stroke="none" font-family="Arial" font-size="24px" font-style="normal" font-weight="normal" text-decoration="none" x="400" y="330">UNREGISTERED</text><text fill="#eeeeee" stroke="none" font-family="Arial" font-size="24px" font-style="normal" font-weight="normal" text-decoration="none" x="400" y="360">UNREGISTERED</text><text fill="#eeeeee" stroke="none" font-family="Arial" font-size="24px" font-style="normal" font-weight="normal" text-decoration="none" x="400" y="390">UNREGISTERED</text><text fill="#eeeeee" stroke="none" font-family="Arial" font-size="24px" font-style="normal" font-weight="normal" text-decoration="none" x="400" y="420">UNREGISTERED</text><text fill="#eeeeee" stroke="none" font-family="Arial" font-size="24px" font-style="normal" font-weight="normal" text-decoration="none" x="400" y="450">UNREGISTERED</text><text fill="#eeeeee" stroke="none" font-family="Arial" font-size="24px" font-style="normal" font-weight="normal" text-decoration="none" x="400" y="480">UNREGISTERED</text><text fill="#eeeeee" stroke="none" font-family="Arial" font-size="24px" font-style="normal" font-weight="normal" text-decoration="none" x="400" y="510">UNREGISTERED</text><text fill="#eeeeee" stroke="none" font-family="Arial" font-size="24px" font-style="normal" font-weight="normal" text-decoration="none" x="400" y="540">UNREGISTERED</text><text fill="#eeeeee" stroke="none" font-family="Arial" font-size="24px" font-style="normal" font-weight="normal" text-decoration="none" x="600" y="0">UNREGISTERED</text><text fill="#eeeeee" stroke="none" font-family="Arial" font-size="24px" font-style="normal" font-weight="normal" text-decoration="none" x="600" y="30">UNREGISTERED</text><text fill="#eeeeee" stroke="none" font-family="Arial" font-size="24px" font-style="normal" font-weight="normal" text-decoration="none" x="600" y="60">UNREGISTERED</text><text fill="#eeeeee" stroke="none" font-family="Arial" font-size="24px" font-style="normal" font-weight="normal" text-decoration="none" x="600" y="90">UNREGISTERED</text><text fill="#eeeeee" stroke="none" font-family="Arial" font-size="24px" font-style="normal" font-weight="normal" text-decoration="none" x="600" y="120">UNREGISTERED</text><text fill="#eeeeee" stroke="none" font-family="Arial" font-size="24px" font-style="normal" font-weight="normal" text-decoration="none" x="600" y="150">UNREGISTERED</text><text fill="#eeeeee" stroke="none" font-family="Arial" font-size="24px" font-style="normal" font-weight="normal" text-decoration="none" x="600" y="180">UNREGISTERED</text><text fill="#eeeeee" stroke="none" font-family="Arial" font-size="24px" font-style="normal" font-weight="normal" text-decoration="none" x="600" y="210">UNREGISTERED</text><text fill="#eeeeee" stroke="none" font-family="Arial" font-size="24px" font-style="normal" font-weight="normal" text-decoration="none" x="600" y="240">UNREGISTERED</text><text fill="#eeeeee" stroke="none" font-family="Arial" font-size="24px" font-style="normal" font-weight="normal" text-decoration="none" x="600" y="270">UNREGISTERED</text><text fill="#eeeeee" stroke="none" font-family="Arial" font-size="24px" font-style="normal" font-weight="normal" text-decoration="none" x="600" y="300">UNREGISTERED</text><text fill="#eeeeee" stroke="none" font-family="Arial" font-size="24px" font-style="normal" font-weight="normal" text-decoration="none" x="600" y="330">UNREGISTERED</text><text fill="#eeeeee" stroke="none" font-family="Arial" font-size="24px" font-style="normal" font-weight="normal" text-decoration="none" x="600" y="360">UNREGISTERED</text><text fill="#eeeeee" stroke="none" font-family="Arial" font-size="24px" font-style="normal" font-weight="normal" text-decoration="none" x="600" y="390">UNREGISTERED</text><text fill="#eeeeee" stroke="none" font-family="Arial" font-size="24px" font-style="normal" font-weight="normal" text-decoration="none" x="600" y="420">UNREGISTERED</text><text fill="#eeeeee" stroke="none" font-family="Arial" font-size="24px" font-style="normal" font-weight="normal" text-decoration="none" x="600" y="450">UNREGISTERED</text><text fill="#eeeeee" stroke="none" font-family="Arial" font-size="24px" font-style="normal" font-weight="normal" text-decoration="none" x="600" y="480">UNREGISTERED</text><text fill="#eeeeee" stroke="none" font-family="Arial" font-size="24px" font-style="normal" font-weight="normal" text-decoration="none" x="600" y="510">UNREGISTERED</text><text fill="#eeeeee" stroke="none" font-family="Arial" font-size="24px" font-style="normal" font-weight="normal" text-decoration="none" x="600" y="540">UNREGISTERED</text><text fill="#eeeeee" stroke="none" font-family="Arial" font-size="24px" font-style="normal" font-weight="normal" text-decoration="none" x="800" y="0">UNREGISTERED</text><text fill="#eeeeee" stroke="none" font-family="Arial" font-size="24px" font-style="normal" font-weight="normal" text-decoration="none" x="800" y="30">UNREGISTERED</text><text fill="#eeeeee" stroke="none" font-family="Arial" font-size="24px" font-style="normal" font-weight="normal" text-decoration="none" x="800" y="60">UNREGISTERED</text><text fill="#eeeeee" stroke="none" font-family="Arial" font-size="24px" font-style="normal" font-weight="normal" text-decoration="none" x="800" y="90">UNREGISTERED</text><text fill="#eeeeee" stroke="none" font-family="Arial" font-size="24px" font-style="normal" font-weight="normal" text-decoration="none" x="800" y="120">UNREGISTERED</text><text fill="#eeeeee" stroke="none" font-family="Arial" font-size="24px" font-style="normal" font-weight="normal" text-decoration="none" x="800" y="150">UNREGISTERED</text><text fill="#eeeeee" stroke="none" font-family="Arial" font-size="24px" font-style="normal" font-weight="normal" text-decoration="none" x="800" y="180">UNREGISTERED</text><text fill="#eeeeee" stroke="none" font-family="Arial" font-size="24px" font-style="normal" font-weight="normal" text-decoration="none" x="800" y="210">UNREGISTERED</text><text fill="#eeeeee" stroke="none" font-family="Arial" font-size="24px" font-style="normal" font-weight="normal" text-decoration="none" x="800" y="240">UNREGISTERED</text><text fill="#eeeeee" stroke="none" font-family="Arial" font-size="24px" font-style="normal" font-weight="normal" text-decoration="none" x="800" y="270">UNREGISTERED</text><text fill="#eeeeee" stroke="none" font-family="Arial" font-size="24px" font-style="normal" font-weight="normal" text-decoration="none" x="800" y="300">UNREGISTERED</text><text fill="#eeeeee" stroke="none" font-family="Arial" font-size="24px" font-style="normal" font-weight="normal" text-decoration="none" x="800" y="330">UNREGISTERED</text><text fill="#eeeeee" stroke="none" font-family="Arial" font-size="24px" font-style="normal" font-weight="normal" text-decoration="none" x="800" y="360">UNREGISTERED</text><text fill="#eeeeee" stroke="none" font-family="Arial" font-size="24px" font-style="normal" font-weight="normal" text-decoration="none" x="800" y="390">UNREGISTERED</text><text fill="#eeeeee" stroke="none" font-family="Arial" font-size="24px" font-style="normal" font-weight="normal" text-decoration="none" x="800" y="420">UNREGISTERED</text><text fill="#eeeeee" stroke="none" font-family="Arial" font-size="24px" font-style="normal" font-weight="normal" text-decoration="none" x="800" y="450">UNREGISTERED</text><text fill="#eeeeee" stroke="none" font-family="Arial" font-size="24px" font-style="normal" font-weight="normal" text-decoration="none" x="800" y="480">UNREGISTERED</text><text fill="#eeeeee" stroke="none" font-family="Arial" font-size="24px" font-style="normal" font-weight="normal" text-decoration="none" x="800" y="510">UNREGISTERED</text><text fill="#eeeeee" stroke="none" font-family="Arial" font-size="24px" font-style="normal" font-weight="normal" text-decoration="none" x="800" y="540">UNREGISTERED</text><g transform="translate(-30,-22) scale(1,1)"><rect fill="#C0C0C0" stroke="none" x="271" y="327" width="160.57177734375" height="240" opacity="0.2"/></g><g transform="translate(-30,-22) scale(1,1)"><rect fill="#ffffff" stroke="none" x="264" y="320" width="160.57177734375" height="240"/></g><g transform="translate(-30,-22) scale(1,1)"><path fill="none" stroke="#000000" d="M 264 320 L 424.57177734375 320 L 424.57177734375 560 L 264 560 L 264 320 Z Z" stroke-miterlimit="10"/></g><g transform="translate(-30,-22) scale(1,1)"><g><path fill="none" stroke="none"/><text fill="#000000" stroke="none" font-family="Arial" font-size="13px" font-style="normal" font-weight="bold" text-decoration="none" x="318.635009765625" y="339.5">Proyecto</text></g></g><g transform="translate(-30,-22) scale(1,1)"><rect fill="#C0C0C0" stroke="none" x="487" y="359" width="124.62451171875" height="136" opacity="0.2"/></g><g transform="translate(-30,-22) scale(1,1)"><rect fill="#ffffff" stroke="none" x="480" y="352" width="124.62451171875" height="136"/></g><g transform="translate(-30,-22) scale(1,1)"><path fill="none" stroke="#000000" d="M 480 352 L 604.62451171875 352 L 604.62451171875 488 L 480 488 L 480 352 Z Z" stroke-miterlimit="10"/></g><g transform="translate(-30,-22) scale(1,1)"><g><path fill="none" stroke="none"/><text fill="#000000" stroke="none" font-family="Arial" font-size="13px" font-style="normal" font-weight="bold" text-decoration="none" x="491.607177734375" y="371.5">Grupo de Trabajo</text></g></g><g transform="translate(-30,-22) scale(1,1)"><rect fill="#C0C0C0" stroke="none" x="535" y="183" width="177.33349609375" height="50" opacity="0.2"/></g><g transform="translate(-30,-22) scale(1,1)"><rect fill="#ffffff" stroke="none" x="528" y="176" width="177.33349609375" height="50"/></g><g transform="translate(-30,-22) scale(1,1)"><path fill="none" stroke="#000000" d="M 528 176 L 705.33349609375 176 L 705.33349609375 226 L 528 226 L 528 176 Z Z" stroke-miterlimit="10"/></g><g transform="translate(-30,-22) scale(1,1)"><g><path fill="none" stroke="none"/><text fill="#000000" stroke="none" font-family="Arial" font-size="13px" font-style="normal" font-weight="bold" text-decoration="none" x="552.352294921875" y="195.5">Area de Conocimiento</text></g></g><g transform="translate(-30,-22) scale(1,1)"><g><path fill="none" stroke="none"/><text fill="#000000" stroke="none" font-family="Arial" font-size="13px" font-style="normal" font-weight="normal" text-decoration="none" x="532.5" y="210.5">(from AreasDeConocimiento)</text></g></g><g transform="translate(-30,-22) scale(1,1)"><rect fill="#C0C0C0" stroke="none" x="47" y="423" width="120.9853515625" height="44" opacity="0.2"/></g><g transform="translate(-30,-22) scale(1,1)"><rect fill="#ffffff" stroke="none" x="40" y="416" width="120.9853515625" height="44"/></g><g transform="translate(-30,-22) scale(1,1)"><path fill="none" stroke="#000000" d="M 40 416 L 160.9853515625 416 L 160.9853515625 460 L 40 460 L 40 416 Z Z" stroke-miterlimit="10"/></g><g transform="translate(-30,-22) scale(1,1)"><g><path fill="none" stroke="none"/><text fill="#000000" stroke="none" font-family="Arial" font-size="13px" font-style="normal" font-weight="bold" text-decoration="none" x="70.5" y="435.5">Modalidad</text></g></g><g transform="translate(-30,-22) scale(1,1)"><g><path fill="none" stroke="none"/><text fill="#000000" stroke="none" font-family="Arial" font-size="13px" font-style="normal" font-weight="normal" text-decoration="none" x="44.5" y="450.5">(from Modalidades)</text></g></g><g transform="translate(-30,-22) scale(1,1)"><path fill="none" stroke="#000000" d="M 263 439 L 162 439" stroke-miterlimit="10"/></g><g transform="translate(-30,-22) scale(1,1)"><path fill="none" stroke="#000000" d="M 172.16267485762415 434.790482243984 L 162 439 L 172.16267485762415 443.209517756016" stroke-miterlimit="10"/></g><g transform="translate(-30,-22) scale(1,1)"><g><path fill="none" stroke="none"/><text fill="#000000" stroke="none" font-family="Arial" font-size="13px" font-style="normal" font-weight="normal" text-decoration="none" x="211.5" y="438.5">+tiene</text></g></g><g transform="translate(-30,-22) scale(1,1)"><g><path fill="none" stroke="none"/><text fill="#000000" stroke="none" font-family="Arial" font-size="13px" font-style="normal" font-weight="normal" text-decoration="none" x="179.5" y="432.5">1</text></g></g><g transform="translate(-30,-22) scale(1,1)"><rect fill="#C0C0C0" stroke="none" x="55" y="519" width="96" height="44" opacity="0.2"/></g><g transform="translate(-30,-22) scale(1,1)"><rect fill="#ffffff" stroke="none" x="48" y="512" width="96" height="44"/></g><g transform="translate(-30,-22) scale(1,1)"><path fill="none" stroke="#000000" d="M 48 512 L 144 512 L 144 556 L 48 556 L 48 512 Z Z" stroke-miterlimit="10"/></g><g transform="translate(-30,-22) scale(1,1)"><g><path fill="none" stroke="none"/><text fill="#000000" stroke="none" font-family="Arial" font-size="13px" font-style="normal" font-weight="bold" text-decoration="none" x="66.016845703125" y="531.5">Criterio de</text><text fill="#000000" stroke="none" font-family="Arial" font-size="13px" font-style="normal" font-weight="bold" text-decoration="none" x="67.81640625" y="544.5">Selección</text></g></g><g transform="translate(-30,-22) scale(1,1)"><path fill="none" stroke="#000000" d="M 99 461 L 97 511" stroke-miterlimit="10"/></g><g transform="translate(-30,-22) scale(1,1)"><path fill="none" stroke="#000000" d="M 93.20002800086907 500.67719937198143 L 97 511 L 101.6123363560042 501.0136917061868" stroke-miterlimit="10"/></g><g transform="translate(-30,-22) scale(1,1)"><g><path fill="none" stroke="none"/><text fill="#000000" stroke="none" font-family="Arial" font-size="13px" font-style="normal" font-weight="normal" text-decoration="none" x="98.5" y="485.5">+define</text></g></g><g transform="translate(-30,-22) scale(1,1)"><g><path fill="none" stroke="none"/><text fill="#000000" stroke="none" font-family="Arial" font-size="13px" font-style="normal" font-weight="normal" text-decoration="none" x="74.74365234375" y="494.5">1..*</text></g></g><g transform="translate(-30,-22) scale(1,1)"><rect fill="#C0C0C0" stroke="none" x="543" y="87" width="56" height="44" opacity="0.2"/></g><g transform="translate(-30,-22) scale(1,1)"><rect fill="#ffffff" stroke="none" x="536" y="80" width="56" height="44"/></g><g transform="translate(-30,-22) scale(1,1)"><path fill="none" stroke="#000000" d="M 536 80 L 592 80 L 592 124 L 536 124 L 536 80 Z Z" stroke-miterlimit="10"/></g><g transform="translate(-30,-22) scale(1,1)"><g><path fill="none" stroke="none"/><text fill="#000000" stroke="none" font-family="Arial" font-size="13px" font-style="normal" font-weight="bold" text-decoration="none" x="547.013671875" y="99.5">Etapa</text></g></g><g transform="translate(-30,-22) scale(1,1)"><rect fill="#C0C0C0" stroke="none" x="639" y="87" width="79.8017578125" height="44" opacity="0.2"/></g><g transform="translate(-30,-22) scale(1,1)"><rect fill="#ffffff" stroke="none" x="632" y="80" width="79.8017578125" height="44"/></g><g transform="translate(-30,-22) scale(1,1)"><path fill="none" stroke="#000000" d="M 632 80 L 711.8017578125 80 L 711.8017578125 124 L 632 124 L 632 80 Z Z" stroke-miterlimit="10"/></g><g transform="translate(-30,-22) scale(1,1)"><g><path fill="none" stroke="none"/><text fill="#000000" stroke="none" font-family="Arial" font-size="13px" font-style="normal" font-weight="bold" text-decoration="none" x="639.02001953125" y="99.5">Prespuesto</text></g></g><g transform="translate(-30,-22) scale(1,1)"><path fill="none" stroke="#000000" d="M 400 152 L 400 112 M 400 112 A 8 8 0 0 1 408 104 L 536 104" stroke-miterlimit="10"/></g><g transform="translate(-30,-22) scale(1,1)"><path fill="none" stroke="#000000" d="M 525.8373251423759 108.20951775601598 L 536 104 L 525.8373251423758 99.79048224398402" stroke-miterlimit="10"/></g><g transform="translate(-30,-22) scale(1,1)"><g><path fill="none" stroke="none"/><text fill="#000000" stroke="none" font-family="Arial" font-size="13px" font-style="normal" font-weight="normal" text-decoration="none" x="503.5" y="122.5">1..3</text></g></g><g transform="translate(-30,-22) scale(1,1)"><path fill="none" stroke="#000000" d="M 592 102 L 632 102" stroke-miterlimit="10"/></g><g transform="translate(-30,-22) scale(1,1)"><path fill="none" stroke="#000000" d="M 621.8373251423759 106.20951775601598 L 632 102 L 621.8373251423758 97.79048224398402" stroke-miterlimit="10"/></g><g transform="translate(-30,-22) scale(1,1)"><g><path fill="none" stroke="none"/><text fill="#000000" stroke="none" font-family="Arial" font-size="13px" font-style="normal" font-weight="normal" text-decoration="none" x="606.5" y="120.5">1</text></g></g><g transform="translate(-30,-22) scale(1,1)"><rect fill="#C0C0C0" stroke="none" x="767" y="87" width="53.07177734375" height="44" opacity="0.2"/></g><g transform="translate(-30,-22) scale(1,1)"><rect fill="#ffffff" stroke="none" x="760" y="80" width="53.07177734375" height="44"/></g><g transform="translate(-30,-22) scale(1,1)"><path fill="none" stroke="#000000" d="M 760 80 L 813.07177734375 80 L 813.07177734375 124 L 760 124 L 760 80 Z Z" stroke-miterlimit="10"/></g><g transform="translate(-30,-22) scale(1,1)"><g><path fill="none" stroke="none"/><text fill="#000000" stroke="none" font-family="Arial" font-size="13px" font-style="normal" font-weight="bold" text-decoration="none" x="765.94091796875" y="99.5">Partida</text></g></g><g transform="translate(-30,-22) scale(1,1)"><path fill="none" stroke="#000000" d="M 712 102 L 760 102" stroke-miterlimit="10"/></g><g transform="translate(-30,-22) scale(1,1)"><path fill="none" stroke="#000000" d="M 749.8373251423759 106.20951775601598 L 760 102 L 749.8373251423758 97.79048224398402" stroke-miterlimit="10"/></g><g transform="translate(-30,-22) scale(1,1)"><g><path fill="none" stroke="none"/><text fill="#000000" stroke="none" font-family="Arial" font-size="13px" font-style="normal" font-weight="normal" text-decoration="none" x="727.74365234375" y="120.5">1..*</text></g></g><g transform="translate(-30,-22) scale(1,1)"><rect fill="#C0C0C0" stroke="none" x="215" y="39" width="88" height="40" opacity="0.2"/></g><g transform="translate(-30,-22) scale(1,1)"><rect fill="#ffffff" stroke="none" x="208" y="32" width="88" height="40"/></g><g transform="translate(-30,-22) scale(1,1)"><path fill="none" stroke="#000000" d="M 208 32 L 296 32 L 296 72 L 208 72 L 208 32 Z Z" stroke-miterlimit="10"/></g><g transform="translate(-30,-22) scale(1,1)"><g><path fill="none" stroke="none"/><text fill="#000000" stroke="none" font-family="Arial" font-size="13px" font-style="normal" font-weight="bold" text-decoration="none" x="231.763671875" y="51.5">Estado</text></g></g><g transform="translate(-30,-22) scale(1,1)"><path fill="none" stroke="#000000" d="M 254 159 L 252 73" stroke-miterlimit="10"/></g><g transform="translate(-30,-22) scale(1,1)"><path fill="none" stroke="#000000" d="M 256.44465728583253 83.0620585175945 L 252 73 L 248.02789749637546 83.2577971173493" stroke-miterlimit="10"/></g><g transform="translate(-30,-22) scale(1,1)"><g><path fill="none" stroke="none"/><text fill="#000000" stroke="none" font-family="Arial" font-size="13px" font-style="normal" font-weight="normal" text-decoration="none" x="255.5" y="120.5">+tiene</text></g></g><g transform="translate(-30,-22) scale(1,1)"><g><path fill="none" stroke="none"/><text fill="#000000" stroke="none" font-family="Arial" font-size="13px" font-style="normal" font-weight="normal" text-decoration="none" x="260.5" y="100.5">1</text></g></g><g transform="translate(-30,-22) scale(1,1)"><rect fill="#C0C0C0" stroke="none" x="215" y="167" width="94.7236328125" height="44" opacity="0.2"/></g><g transform="translate(-30,-22) scale(1,1)"><rect fill="#ffffff" stroke="none" x="208" y="160" width="94.7236328125" height="44"/></g><g transform="translate(-30,-22) scale(1,1)"><path fill="none" stroke="#000000" d="M 208 160 L 302.7236328125 160 L 302.7236328125 204 L 208 204 L 208 160 Z Z" stroke-miterlimit="10"/></g><g transform="translate(-30,-22) scale(1,1)"><g><path fill="none" stroke="none"/><text fill="#000000" stroke="none" font-family="Arial" font-size="13px" font-style="normal" font-weight="bold" text-decoration="none" x="221.75732421875" y="179.5">Solicitud de</text><text fill="#000000" stroke="none" font-family="Arial" font-size="13px" font-style="normal" font-weight="bold" text-decoration="none" x="236.931396484375" y="192.5">Apoyo</text></g></g><g transform="translate(-30,-22) scale(1,1)"><rect fill="#C0C0C0" stroke="none" x="63" y="167" width="92.07177734375" height="44" opacity="0.2"/></g><g transform="translate(-30,-22) scale(1,1)"><rect fill="#ffffff" stroke="none" x="56" y="160" width="92.07177734375" height="44"/></g><g transform="translate(-30,-22) scale(1,1)"><path fill="none" stroke="#000000" d="M 56 160 L 148.07177734375 160 L 148.07177734375 204 L 56 204 L 56 160 Z Z" stroke-miterlimit="10"/></g><g transform="translate(-30,-22) scale(1,1)"><g><path fill="none" stroke="none"/><text fill="#000000" stroke="none" font-family="Arial" font-size="13px" font-style="normal" font-weight="bold" text-decoration="none" x="63.7373046875" y="179.5">Convocatoria</text></g></g><g transform="translate(-30,-22) scale(1,1)"><path fill="none" stroke="#000000" d="M 149 182 L 207 182" stroke-miterlimit="10"/></g><g transform="translate(-30,-22) scale(1,1)"><g><path fill="none" stroke="none"/><text fill="#000000" stroke="none" font-family="Arial" font-size="13px" font-style="normal" font-weight="normal" text-decoration="none" x="175.5" y="200.5">0..*</text></g></g><g transform="translate(-30,-22) scale(1,1)"><path fill="none" stroke="#000000" d="M 102 205 L 100 415" stroke-miterlimit="10"/></g><g transform="translate(-30,-22) scale(1,1)"><g><path fill="none" stroke="none"/><text fill="#000000" stroke="none" font-family="Arial" font-size="13px" font-style="normal" font-weight="normal" text-decoration="none" x="48.5" y="320.5">+define</text></g></g><g transform="translate(-30,-22) scale(1,1)"><g><path fill="none" stroke="none"/><text fill="#000000" stroke="none" font-family="Arial" font-size="13px" font-style="normal" font-weight="normal" text-decoration="none" x="82.5" y="404.5">3</text></g></g><g transform="translate(-30,-22) scale(1,1)"><path fill="none" stroke="#000000" d="M 263 205 L 302 319" stroke-miterlimit="10"/></g><g transform="translate(-30,-22) scale(1,1)"><path fill="none" stroke="#000000" d="M 294.72757326749985 310.7470120913443 L 302 319 L 302.69336145702783 308.02187402650577" stroke-miterlimit="10"/></g><g transform="translate(-30,-22) scale(1,1)"><g><path fill="none" stroke="none"/><text fill="#000000" stroke="none" font-family="Arial" font-size="13px" font-style="normal" font-weight="normal" text-decoration="none" x="407.5" y="133.5">+define</text></g></g><g transform="translate(-30,-22) scale(1,1)"><g><path fill="none" stroke="none"/><text fill="#000000" stroke="none" font-family="Arial" font-size="13px" font-style="normal" font-weight="normal" text-decoration="none" x="279.5" y="308.5">1</text></g></g><g transform="translate(-30,-22) scale(1,1)"><rect fill="#C0C0C0" stroke="none" x="351" y="159" width="88" height="44" opacity="0.2"/></g><g transform="translate(-30,-22) scale(1,1)"><rect fill="#ffffff" stroke="none" x="344" y="152" width="88" height="44"/></g><g transform="translate(-30,-22) scale(1,1)"><path fill="none" stroke="#000000" d="M 344 152 L 432 152 L 432 196 L 344 196 L 344 152 Z Z" stroke-miterlimit="10"/></g><g transform="translate(-30,-22) scale(1,1)"><g><path fill="none" stroke="none"/><text fill="#000000" stroke="none" font-family="Arial" font-size="13px" font-style="normal" font-weight="bold" text-decoration="none" x="365.95458984375" y="171.5">Plan de</text><text fill="#000000" stroke="none" font-family="Arial" font-size="13px" font-style="normal" font-weight="bold" text-decoration="none" x="366.2021484375" y="184.5">Trabajo</text></g></g><g transform="translate(-30,-22) scale(1,1)"><path fill="none" stroke="#000000" d="M 364 319 L 384 197" stroke-miterlimit="10"/></g><g transform="translate(-30,-22) scale(1,1)"><path fill="none" stroke="#000000" d="M 386.51000157822955 207.70980354989229 L 384 197 L 378.20186442145047 206.34781385205963" stroke-miterlimit="10"/></g><g transform="translate(-30,-22) scale(1,1)"><g><path fill="none" stroke="none"/><text fill="#000000" stroke="none" font-family="Arial" font-size="13px" font-style="normal" font-weight="normal" text-decoration="none" x="341.5" y="261.5">+tiene</text></g></g><g transform="translate(-30,-22) scale(1,1)"><g><path fill="none" stroke="none"/><text fill="#000000" stroke="none" font-family="Arial" font-size="13px" font-style="normal" font-weight="normal" text-decoration="none" x="388.5" y="226.5">1</text></g></g><g transform="translate(-30,-22) scale(1,1)"><rect fill="#C0C0C0" stroke="none" x="743" y="471" width="131.82080078125" height="96" opacity="0.2"/></g><g transform="translate(-30,-22) scale(1,1)"><rect fill="#ffffff" stroke="none" x="736" y="464" width="131.82080078125" height="96"/></g><g transform="translate(-30,-22) scale(1,1)"><path fill="none" stroke="#000000" d="M 736 464 L 867.82080078125 464 L 867.82080078125 560 L 736 560 L 736 464 Z Z" stroke-miterlimit="10"/></g><g transform="translate(-30,-22) scale(1,1)"><g><path fill="none" stroke="none"/><text fill="#000000" stroke="none" font-family="Arial" font-size="13px" font-style="normal" font-weight="bold" text-decoration="none" x="766.5" y="483.5">Investigador</text></g></g><g transform="translate(-30,-22) scale(1,1)"><g><path fill="none" stroke="none"/><text fill="#000000" stroke="none" font-family="Arial" font-size="13px" font-style="normal" font-weight="normal" text-decoration="none" x="740.5" y="498.5">(from Investigadores)</text></g></g><g transform="translate(-30,-22) scale(1,1)"><rect fill="#C0C0C0" stroke="none" x="743" y="311" width="128" height="144" opacity="0.2"/></g><g transform="translate(-30,-22) scale(1,1)"><rect fill="#ffffff" stroke="none" x="736" y="304" width="128" height="144"/></g><g transform="translate(-30,-22) scale(1,1)"><path fill="none" stroke="#000000" d="M 736 304 L 864 304 L 864 448 L 736 448 L 736 304 Z Z" stroke-miterlimit="10"/></g><g transform="translate(-30,-22) scale(1,1)"><g><path fill="none" stroke="none"/><text fill="#000000" stroke="none" font-family="Arial" font-size="13px" font-style="normal" font-weight="bold" text-decoration="none" x="770.734130859375" y="323.5">Institución</text></g></g><g transform="translate(-30,-22) scale(1,1)"><g><path fill="none" stroke="none"/><text fill="#000000" stroke="none" font-family="Arial" font-size="13px" font-style="normal" font-weight="normal" text-decoration="none" x="744.734130859375" y="338.5">(from Instituciones)</text></g></g><g transform="translate(-30,-22) scale(1,1)"><path fill="none" stroke="#000000" d="M 425 336 L 736 336" stroke-miterlimit="10"/></g><g transform="translate(-30,-22) scale(1,1)"><g><path fill="none" stroke="none"/><text fill="#000000" stroke="none" font-family="Arial" font-size="13px" font-style="normal" font-weight="normal" text-decoration="none" x="665.736328125" y="317.5">+Sujeto de</text><text fill="#000000" stroke="none" font-family="Arial" font-size="13px" font-style="normal" font-weight="normal" text-decoration="none" x="678.568115234375" y="330.5">Apoyo</text></g></g><g transform="translate(-30,-22) scale(1,1)"><g><path fill="none" stroke="none"/><text fill="#000000" stroke="none" font-family="Arial" font-size="13px" font-style="normal" font-weight="normal" text-decoration="none" x="710.5" y="354.5">1</text></g></g><g transform="translate(-30,-22) scale(1,1)"><path fill="none" stroke="#000000" d="M 344 320 L 344 288 M 344 288 A 8 8 0 0 1 352 280 L 570 280 M 570 280 A 8 8 0 0 0 578 272 L 578 226" stroke-miterlimit="10"/></g><g transform="translate(-30,-22) scale(1,1)"><path fill="none" stroke="#000000" d="M 582.209517756016 236.16267485762415 L 578 226 L 573.790482243984 236.16267485762415" stroke-miterlimit="10"/></g><g transform="translate(-30,-22) scale(1,1)"><g><path fill="none" stroke="none"/><text fill="#000000" stroke="none" font-family="Arial" font-size="13px" font-style="normal" font-weight="normal" text-decoration="none" x="426.5" y="257.5">+dirigido a</text></g></g><g transform="translate(-30,-22) scale(1,1)"><g><path fill="none" stroke="none"/><text fill="#000000" stroke="none" font-family="Arial" font-size="13px" font-style="normal" font-weight="normal" text-decoration="none" x="586.5" y="253.5">1</text></g></g><g transform="translate(-30,-22) scale(1,1)"><path fill="none" stroke="#000000" d="M 480 392 L 425 392" stroke-miterlimit="10"/></g><g transform="translate(-30,-22) scale(1,1)"><path fill="#FFFFFF" stroke="none" d="M 435.16267485762415 387.790482243984 L 425 392 L 435.16267485762415 396.209517756016 L 447 392"/></g><g transform="translate(-30,-22) scale(1,1)"><path fill="none" stroke="#000000" d="M 435.16267485762415 387.790482243984 L 425 392 L 435.16267485762415 396.209517756016 L 447 392 L 435.16267485762415 387.790482243984" stroke-miterlimit="10"/></g><g transform="translate(-30,-22) scale(1,1)"><g><path fill="none" stroke="none"/><text fill="#000000" stroke="none" font-family="Arial" font-size="13px" font-style="normal" font-weight="normal" text-decoration="none" x="454.5" y="385.5">1</text></g></g><g transform="translate(-30,-22) scale(1,1)"><path fill="none" stroke="#000000" d="M 605 416 L 736 416" stroke-miterlimit="10"/></g><g transform="translate(-30,-22) scale(1,1)"><g><path fill="none" stroke="none"/><text fill="#000000" stroke="none" font-family="Arial" font-size="13px" font-style="normal" font-weight="normal" text-decoration="none" x="622.5" y="405.5">+Co-Responsable</text></g></g><g transform="translate(-30,-22) scale(1,1)"><g><path fill="none" stroke="none"/><text fill="#000000" stroke="none" font-family="Arial" font-size="13px" font-style="normal" font-weight="normal" text-decoration="none" x="704.5" y="434.5">0..*</text></g></g><g transform="translate(-30,-22) scale(1,1)"><path fill="none" stroke="#000000" d="M 606 443 L 735 489" stroke-miterlimit="10"/></g></g></svg>