<svg version="1.1" xmlns="http://www.w3.org/2000/svg" xmlns:xlink="http://www.w3.org/1999/xlink" width="710.50048828125" height="700"><defs/><g><text fill="#eeeeee" stroke="none" font-family="Arial" font-size="24px" font-style="normal" font-weight="normal" text-decoration="none" x="0" y="0">UNREGISTERED</text><text fill="#eeeeee" stroke="none" font-family="Arial" font-size="24px" font-style="normal" font-weight="normal" text-decoration="none" x="0" y="30">UNREGISTERED</text><text fill="#eeeeee" stroke="none" font-family="Arial" font-size="24px" font-style="normal" font-weight="normal" text-decoration="none" x="0" y="60">UNREGISTERED</text><text fill="#eeeeee" stroke="none" font-family="Arial" font-size="24px" font-style="normal" font-weight="normal" text-decoration="none" x="0" y="90">UNREGISTERED</text><text fill="#eeeeee" stroke="none" font-family="Arial" font-size="24px" font-style="normal" font-weight="normal" text-decoration="none" x="0" y="120">UNREGISTERED</text><text fill="#eeeeee" stroke="none" font-family="Arial" font-size="24px" font-style="normal" font-weight="normal" text-decoration="none" x="0" y="150">UNREGISTERED</text><text fill="#eeeeee" stroke="none" font-family="Arial" font-size="24px" font-style="normal" font-weight="normal" text-decoration="none" x="0" y="180">UNREGISTERED</text><text fill="#eeeeee" stroke="none" font-family="Arial" font-size="24px" font-style="normal" font-weight="normal" text-decoration="none" x="0" y="210">UNREGISTERED</text><text fill="#eeeeee" stroke="none" font-family="Arial" font-size="24px" font-style="normal" font-weight="normal" text-decoration="none" x="0" y="240">UNREGISTERED</text><text fill="#eeeeee" stroke="none" font-family="Arial" font-size="24px" font-style="normal" font-weight="normal" text-decoration="none" x="0" y="270">UNREGISTERED</text><text fill="#eeeeee" stroke="none" font-family="Arial" font-size="24px" font-style="normal" font-weight="normal" text-decoration="none" x="0" y="300">UNREGISTERED</text><text fill="#eeeeee" stroke="none" font-family="Arial" font-size="24px" font-style="normal" font-weight="normal" text-decoration="none" x="0" y="330">UNREGISTERED</text><text fill="#eeeeee" stroke="none" font-family="Arial" font-size="24px" font-style="normal" font-weight="normal" text-decoration="none" x="0" y="360">UNREGISTERED</text><text fill="#eeeeee" stroke="none" font-family="Arial" font-size="24px" font-style="normal" font-weight="normal" text-decoration="none" x="0" y="390">UNREGISTERED</text><text fill="#eeeeee" stroke="none" font-family="Arial" font-size="24px" font-style="normal" font-weight="normal" text-decoration="none" x="0" y="420">UNREGISTERED</text><text fill="#eeeeee" stroke="none" font-family="Arial" font-size="24px" font-style="normal" font-weight="normal" text-decoration="none" x="0" y="450">UNREGISTERED</text><text fill="#eeeeee" stroke="none" font-family="Arial" font-size="24px" font-style="normal" font-weight="normal" text-decoration="none" x="0" y="480">UNREGISTERED</text><text fill="#eeeeee" stroke="none" font-family="Arial" font-size="24px" font-style="normal" font-weight="normal" text-decoration="none" x="0" y="510">UNREGISTERED</text><text fill="#eeeeee" stroke="none" font-family="Arial" font-size="24px" font-style="normal" font-weight="normal" text-decoration="none" x="0" y="540">UNREGISTERED</text><text fill="#eeeeee" stroke="none" font-family="Arial" font-size="24px" font-style="normal" font-weight="normal" text-decoration="none" x="0" y="570">UNREGISTERED</text><text fill="#eeeeee" stroke="none" font-family="Arial" font-size="24px" font-style="normal" font-weight="normal" text-decoration="none" x="0" y="600">UNREGISTERED</text><text fill="#eeeeee" stroke="none" font-family="Arial" font-size="24px" font-style="normal" font-weight="normal" text-decoration="none" x="0" y="630">UNREGISTERED</text><text fill="#eeeeee" stroke="none" font-family="Arial" font-size="24px" font-style="normal" font-weight="normal" text-decoration="none" x="0" y="660">UNREGISTERED</text><text fill="#eeeeee" stroke="none" font-family="Arial" font-size="24px" font-style="normal" font-weight="normal" text-decoration="none" x="0" y="690">UNREGISTERED</text><text fill="#eeeeee" stroke="none" font-family="Arial" font-size="24px" font-style="normal" font-weight="normal" text-decoration="none" x="200" y="0">UNREGISTERED</text><text fill="#eeeeee" stroke="none" font-family="Arial" font-size="24px" font-style="normal" font-weight="normal" text-decoration="none" x="200" y="30">UNREGISTERED</text><text fill="#eeeeee" stroke="none" font-family="Arial" font-size="24px" font-style="normal" font-weight="normal" text-decoration="none" x="200" y="60">UNREGISTERED</text><text fill="#eeeeee" stroke="none" font-family="Arial" font-size="24px" font-style="normal" font-weight="normal" text-decoration="none" x="200" y="90">UNREGISTERED</text><text fill="#eeeeee" stroke="none" font-family="Arial" font-size="24px" font-style="normal" font-weight="normal" text-decoration="none" x="200" y="120">UNREGISTERED</text><text fill="#eeeeee" stroke="none" font-family="Arial" font-size="24px" font-style="normal" font-weight="normal" text-decoration="none" x="200" y="150">UNREGISTERED</text><text fill="#eeeeee" stroke="none" font-family="Arial" font-size="24px" font-style="normal" font-weight="normal" text-decoration="none" x="200" y="180">UNREGISTERED</text><text fill="#eeeeee" stroke="none" font-family="Arial" font-size="24px" font-style="normal" font-weight="normal" text-decoration="none" x="200" y="210">UNREGISTERED</text><text fill="#eeeeee" stroke="none" font-family="Arial" font-size="24px" font-style="normal" font-weight="normal" text-decoration="none" x="200" y="240">UNREGISTERED</text><text fill="#eeeeee" stroke="none" font-family="Arial" font-size="24px" font-style="normal" font-weight="normal" text-decoration="none" x="200" y="270">UNREGISTERED</text><text fill="#eeeeee" stroke="none" font-family="Arial" font-size="24px" font-style="normal" font-weight="normal" text-decoration="none" x="200" y="300">UNREGISTERED</text><text fill="#eeeeee" stroke="none" font-family="Arial" font-size="24px" font-style="normal" font-weight="normal" text-decoration="none" x="200" y="330">UNREGISTERED</text><text fill="#eeeeee" stroke="none" font-family="Arial" font-size="24px" font-style="normal" font-weight="normal" text-decoration="none" x="200" y="360">UNREGISTERED</text><text fill="#eeeeee" stroke="none" font-family="Arial" font-size="24px" font-style="normal" font-weight="normal" text-decoration="none" x="200" y="390">UNREGISTERED</text><text fill="#eeeeee" stroke="none" font-family="Arial" font-size="24px" font-style="normal" font-weight="normal" text-decoration="none" x="200" y="420">UNREGISTERED</text><text fill="#eeeeee" stroke="none" font-family="Arial" font-size="24px" font-style="normal" font-weight="normal" text-decoration="none" x="200" y="450">UNREGISTERED</text><text fill="#eeeeee" stroke="none" font-family="Arial" font-size="24px" font-style="normal" font-weight="normal" text-decoration="none" x="200" y="480">UNREGISTERED</text><text fill="#eeeeee" stroke="none" font-family="Arial" font-size="24px" font-style="normal" font-weight="normal" text-decoration="none" x="200" y="510">UNREGISTERED</text><text fill="#eeeeee" stroke="none" font-family="Arial" font-size="24px" font-style="normal" font-weight="normal" text-decoration="none" x="200" y="540">UNREGISTERED</text><text fill="#eeeeee" stroke="none" font-family="Arial" font-size="24px" font-style="normal" font-weight="normal" text-decoration="none" x="200" y="570">UNREGISTERED</text><text fill="#eeeeee" stroke="none" font-family="Arial" font-size="24px" font-style="normal" font-weight="normal" text-decoration="none" x="200" y="600">UNREGISTERED</text><text fill="#eeeeee" stroke="none" font-family="Arial" font-size="24px" font-style="normal" font-weight="normal" text-decoration="none" x="200" y="630">UNREGISTERED</text><text fill="#eeeeee" stroke="none" font-family="Arial" font-size="24px" font-style="normal" font-weight="normal" text-decoration="none" x="200" y="660">UNREGISTERED</text><text fill="#eeeeee" stroke="none" font-family="Arial" font-size="24px" font-style="normal" font-weight="normal" text-decoration="none" x="200" y="690">UNREGISTERED</text><text fill="#eeeeee" stroke="none" font-family="Arial" font-size="24px" font-style="normal" font-weight="normal" text-decoration="none" x="400" y="0">UNREGISTERED</text><text fill="#eeeeee" stroke="none" font-family="Arial" font-size="24px" font-style="normal" font-weight="normal" text-decoration="none" x="400" y="30">UNREGISTERED</text><text fill="#eeeeee" stroke="none" font-family="Arial" font-size="24px" font-style="normal" font-weight="normal" text-decoration="none" x="400" y="60">UNREGISTERED</text><text fill="#eeeeee" stroke="none" font-family="Arial" font-size="24px" font-style="normal" font-weight="normal" text-decoration="none" x="400" y="90">UNREGISTERED</text><text fill="#eeeeee" stroke="none" font-family="Arial" font-size="24px" font-style="normal" font-weight="normal" text-decoration="none" x="400" y="120">UNREGISTERED</text><text fill="#eeeeee" stroke="none" font-family="Arial" font-size="24px" font-style="normal" font-weight="normal" text-decoration="none" x="400" y="150">UNREGISTERED</text><text fill="#eeeeee" stroke="none" font-family="Arial" font-size="24px" font-style="normal" font-weight="normal" text-decoration="none" x="400" y="180">UNREGISTERED</text><text fill="#eeeeee" stroke="none" font-family="Arial" font-size="24px" font-style="normal" font-weight="normal" text-decoration="none" x="400" y="210">UNREGISTERED</text><text fill="#eeeeee" stroke="none" font-family="Arial" font-size="24px" font-style="normal" font-weight="normal" text-decoration="none" x="400" y="240">UNREGISTERED</text><text fill="#eeeeee" stroke="none" font-family="Arial" font-size="24px" font-style="normal" font-weight="normal" text-decoration="none" x="400" y="270">UNREGISTERED</text><text fill="#eeeeee" stroke="none" font-family="Arial" font-size="24px" font-style="normal" font-weight="normal" text-decoration="none" x="400" y="300">UNREGISTERED</text><text fill="#eeeeee" stroke="none" font-family="Arial" font-size="24px" font-style="normal" font-weight="normal" text-decoration="none" x="400" y="330">UNREGISTERED</text><text fill="#eeeeee" stroke="none" font-family="Arial" font-size="24px" font-style="normal" font-weight="normal" text-decoration="none" x="400" y="360">UNREGISTERED</text><text fill="#eeeeee" stroke="none" font-family="Arial" font-size="24px" font-style="normal" font-weight="normal" text-decoration="none" x="400" y="390">UNREGISTERED</text><text fill="#eeeeee" stroke="none" font-family="Arial" font-size="24px" font-style="normal" font-weight="normal" text-decoration="none" x="400" y="420">UNREGISTERED</text><text fill="#eeeeee" stroke="none" font-family="Arial" font-size="24px" font-style="normal" font-weight="normal" text-decoration="none" x="400" y="450">UNREGISTERED</text><text fill="#eeeeee" stroke="none" font-family="Arial" font-size="24px" font-style="normal" font-weight="normal" text-decoration="none" x="400" y="480">UNREGISTERED</text><text fill="#eeeeee" stroke="none" font-family="Arial" font-size="24px" font-style="normal" font-weight="normal" text-decoration="none" x="400" y="510">UNREGISTERED</text><text fill="#eeeeee" stroke="none" font-family="Arial" font-size="24px" font-style="normal" font-weight="normal" text-decoration="none" x="400" y="540">UNREGISTERED</text><text fill="#eeeeee" stroke="none" font-family="Arial" font-size="24px" font-style="normal" font-weight="normal" text-decoration="none" x="400" y="570">UNREGISTERED</text><text fill="#eeeeee" stroke="none" font-family="Arial" font-size="24px" font-style="normal" font-weight="normal" text-decoration="none" x="400" y="600">UNREGISTERED</text><text fill="#eeeeee" stroke="none" font-family="Arial" font-size="24px" font-style="normal" font-weight="normal" text-decoration="none" x="400" y="630">UNREGISTERED</text><text fill="#eeeeee" stroke="none" font-family="Arial" font-size="24px" font-style="normal" font-weight="normal" text-decoration="none" x="400" y="660">UNREGISTERED</text><text fill="#eeeeee" stroke="none" font-family="Arial" font-size="24px" font-style="normal" font-weight="normal" text-decoration="none" x="400" y="690">UNREGISTERED</text><text fill="#eeeeee" stroke="none" font-family="Arial" font-size="24px" font-style="normal" font-weight="normal" text-decoration="none" x="600" y="0">UNREGISTERED</text><text fill="#eeeeee" stroke="none" font-family="Arial" font-size="24px" font-style="normal" font-weight="normal" text-decoration="none" x="600" y="30">UNREGISTERED</text><text fill="#eeeeee" stroke="none" font-family="Arial" font-size="24px" font-style="normal" font-weight="normal" text-decoration="none" x="600" y="60">UNREGISTERED</text><text fill="#eeeeee" stroke="none" font-family="Arial" font-size="24px" font-style="normal" font-weight="normal" text-decoration="none" x="600" y="90">UNREGISTERED</text><text fill="#eeeeee" stroke="none" font-family="Arial" font-size="24px" font-style="normal" font-weight="normal" text-decoration="none" x="600" y="120">UNREGISTERED</text><text fill="#eeeeee" stroke="none" font-family="Arial" font-size="24px" font-style="normal" font-weight="normal" text-decoration="none" x="600" y="150">UNREGISTERED</text><text fill="#eeeeee" stroke="none" font-family="Arial" font-size="24px" font-style="normal" font-weight="normal" text-decoration="none" x="600" y="180">UNREGISTERED</text><text fill="#eeeeee" stroke="none" font-family="Arial" font-size="24px" font-style="normal" font-weight="normal" text-decoration="none" x="600" y="210">UNREGISTERED</text><text fill="#eeeeee" stroke="none" font-family="Arial" font-size="24px" font-style="normal" font-weight="normal" text-decoration="none" x="600" y="240">UNREGISTERED</text><text fill="#eeeeee" stroke="none" font-family="Arial" font-size="24px" font-style="normal" font-weight="normal" text-decoration="none" x="600" y="270">UNREGISTERED</text><text fill="#eeeeee" stroke="none" font-family="Arial" font-size="24px" font-style="normal" font-weight="normal" text-decoration="none" x="600" y="300">UNREGISTERED</text><text fill="#eeeeee" stroke="none" font-family="Arial" font-size="24px" font-style="normal" font-weight="normal" text-decoration="none" x="600" y="330">UNREGISTERED</text><text fill="#eeeeee" stroke="none" font-family="Arial" font-size="24px" font-style="normal" font-weight="normal" text-decoration="none" x="600" y="360">UNREGISTERED</text><text fill="#eeeeee" stroke="none" font-family="Arial" font-size="24px" font-style="normal" font-weight="normal" text-decoration="none" x="600" y="390">UNREGISTERED</text><text fill="#eeeeee" stroke="none" font-family="Arial" font-size="24px" font-style="normal" font-weight="normal" text-decoration="none" x="600" y="420">UNREGISTERED</text><text fill="#eeeeee" stroke="none" font-family="Arial" font-size="24px" font-style="normal" font-weight="normal" text-decoration="none" x="600" y="450">UNREGISTERED</text><text fill="#eeeeee" stroke="none" font-family="Arial" font-size="24px" font-style="normal" font-weight="normal" text-decoration="none" x="600" y="480">UNREGISTERED</text><text fill="#eeeeee" stroke="none" font-family="Arial" font-size="24px" font-style="normal" font-weight="normal" text-decoration="none" x="600" y="510">UNREGISTERED</text><text fill="#eeeeee" stroke="none" font-family="Arial" font-size="24px" font-style="normal" font-weight="normal" text-decoration="none" x="600" y="540">UNREGISTERED</text><text fill="#eeeeee" stroke="none" font-family="Arial" font-size="24px" font-style="normal" font-weight="normal" text-decoration="none" x="600" y="570">UNREGISTERED</text><text fill="#eeeeee" stroke="none" font-family="Arial" font-size="24px" font-style="normal" font-weight="normal" text-decoration="none" x="600" y="600">UNREGISTERED</text><text fill="#eeeeee" stroke="none" font-family="Arial" font-size="24px" font-style="normal" font-weight="normal" text-decoration="none" x="600" y="630">UNREGISTERED</text><text fill="#eeeeee" stroke="none" font-family="Arial" font-size="24px" font-style="normal" font-weight="normal" text-decoration="none" x="600" y="660">UNREGISTERED</text><text fill="#eeeeee" stroke="none" font-family="Arial" font-size="24px" font-style="normal" font-weight="normal" text-decoration="none" x="600" y="690">UNREGISTERED</text><g transform="translate(-28,-22) scale(1,1)"><rect fill="#C0C0C0" stroke="none" x="359" y="255" width="136" height="80" opacity="0.2"/></g><g transform="translate(-28,-22) scale(1,1)"><rect fill="#ffffff" stroke="none" x="352" y="248" width="136" height="80"/></g><g transform="translate(-28,-22) scale(1,1)"><path fill="none" stroke="#000000" d="M 352 248 L 488 248 L 488 328 L 352 328 L 352 248 Z Z" stroke-miterlimit="10"/></g><g transform="translate(-28,-22) scale(1,1)"><path fill="none" stroke="#000000" d="M 352 273 L 488 273" stroke-miterlimit="10"/></g><g transform="translate(-28,-22) scale(1,1)"><g><path fill="none" stroke="none"/><text fill="#000000" stroke="none" font-family="Arial" font-size="13px" font-style="normal" font-weight="bold" text-decoration="none" x="403.013671875" y="267.5">Etapa</text></g></g><g transform="translate(-28,-22) scale(1,1)"><g><path fill="none" stroke="none"/><text fill="#000000" stroke="none" font-family="Arial" font-size="13px" font-style="normal" font-weight="normal" text-decoration="none" x="357" y="290.5">+duración: int</text></g></g><g transform="translate(-28,-22) scale(1,1)"><g><path fill="none" stroke="none"/><text fill="#000000" stroke="none" font-family="Arial" font-size="13px" font-style="normal" font-weight="normal" text-decoration="none" x="357" y="305.5">+númeroEtapa: int</text></g></g><g transform="translate(-28,-22) scale(1,1)"><g><path fill="none" stroke="none"/><text fill="#000000" stroke="none" font-family="Arial" font-size="13px" font-style="normal" font-weight="normal" text-decoration="none" x="357" y="320.5">+descripción: String</text></g></g><g transform="translate(-28,-22) scale(1,1)"><rect fill="#C0C0C0" stroke="none" x="375" y="487" width="123.53076171875" height="60" opacity="0.2"/></g><g transform="translate(-28,-22) scale(1,1)"><rect fill="#ffffff" stroke="none" x="368" y="480" width="123.53076171875" height="60"/></g><g transform="translate(-28,-22) scale(1,1)"><path fill="none" stroke="#000000" d="M 368 480 L 491.53076171875 480 L 491.53076171875 540 L 368 540 L 368 480 Z Z" stroke-miterlimit="10"/></g><g transform="translate(-28,-22) scale(1,1)"><path fill="none" stroke="#000000" d="M 368 518 L 491.53076171875 518" stroke-miterlimit="10"/></g><g transform="translate(-28,-22) scale(1,1)"><g><path fill="none" stroke="none"/><text fill="#000000" stroke="none" font-family="Arial" font-size="13px" font-style="normal" font-weight="normal" text-decoration="none" x="396.516357421875" y="497.5">«Catálogo»</text></g></g><g transform="translate(-28,-22) scale(1,1)"><g><path fill="none" stroke="none"/><text fill="#000000" stroke="none" font-family="Arial" font-size="13px" font-style="normal" font-weight="bold" text-decoration="none" x="412.061767578125" y="512.5">Rubro</text></g></g><g transform="translate(-28,-22) scale(1,1)"><g><path fill="none" stroke="none"/><text fill="#000000" stroke="none" font-family="Arial" font-size="13px" font-style="normal" font-weight="normal" text-decoration="none" x="373" y="535.5">+descripción: String</text></g></g><g transform="translate(-28,-22) scale(1,1)"><path fill="none" stroke="#000000" d="M 568 504 L 492 504" stroke-miterlimit="10"/></g><g transform="translate(-28,-22) scale(1,1)"><path fill="none" stroke="#000000" d="M 502.16267485762415 499.790482243984 L 492 504 L 502.16267485762415 508.209517756016" stroke-miterlimit="10"/></g><g transform="translate(-28,-22) scale(1,1)"><g><path fill="none" stroke="none"/><text fill="#000000" stroke="none" font-family="Arial" font-size="13px" font-style="normal" font-weight="normal" text-decoration="none" x="509.641357421875" y="497.5">1</text></g></g><g transform="translate(-28,-22) scale(1,1)"><rect fill="#C0C0C0" stroke="none" x="375" y="359" width="120" height="50" opacity="0.2"/></g><g transform="translate(-28,-22) scale(1,1)"><rect fill="#ffffff" stroke="none" x="368" y="352" width="120" height="50"/></g><g transform="translate(-28,-22) scale(1,1)"><path fill="none" stroke="#000000" d="M 368 352 L 488 352 L 488 402 L 368 402 L 368 352 Z Z" stroke-miterlimit="10"/></g><g transform="translate(-28,-22) scale(1,1)"><g><path fill="none" stroke="none"/><text fill="#000000" stroke="none" font-family="Arial" font-size="13px" font-style="normal" font-weight="normal" text-decoration="none" x="394.7509765625" y="369.5">«Catálogo»</text></g></g><g transform="translate(-28,-22) scale(1,1)"><g><path fill="none" stroke="none"/><text fill="#000000" stroke="none" font-family="Arial" font-size="13px" font-style="normal" font-weight="bold" text-decoration="none" x="380.55126953125" y="384.5">Tipo de Recurso</text></g></g><g transform="translate(-28,-22) scale(1,1)"><rect fill="#C0C0C0" stroke="none" x="375" y="415" width="123.53076171875" height="60" opacity="0.2"/></g><g transform="translate(-28,-22) scale(1,1)"><rect fill="#ffffff" stroke="none" x="368" y="408" width="123.53076171875" height="60"/></g><g transform="translate(-28,-22) scale(1,1)"><path fill="none" stroke="#000000" d="M 368 408 L 491.53076171875 408 L 491.53076171875 468 L 368 468 L 368 408 Z Z" stroke-miterlimit="10"/></g><g transform="translate(-28,-22) scale(1,1)"><path fill="none" stroke="#000000" d="M 368 446 L 491.53076171875 446" stroke-miterlimit="10"/></g><g transform="translate(-28,-22) scale(1,1)"><g><path fill="none" stroke="none"/><text fill="#000000" stroke="none" font-family="Arial" font-size="13px" font-style="normal" font-weight="normal" text-decoration="none" x="396.516357421875" y="425.5">«Catálogo»</text></g></g><g transform="translate(-28,-22) scale(1,1)"><g><path fill="none" stroke="none"/><text fill="#000000" stroke="none" font-family="Arial" font-size="13px" font-style="normal" font-weight="bold" text-decoration="none" x="389.178466796875" y="440.5">Tipo de Gasto</text></g></g><g transform="translate(-28,-22) scale(1,1)"><g><path fill="none" stroke="none"/><text fill="#000000" stroke="none" font-family="Arial" font-size="13px" font-style="normal" font-weight="normal" text-decoration="none" x="373" y="463.5">+descripción: String</text></g></g><g transform="translate(-28,-22) scale(1,1)"><rect fill="#C0C0C0" stroke="none" x="575" y="375" width="136" height="152" opacity="0.2"/></g><g transform="translate(-28,-22) scale(1,1)"><rect fill="#ffffff" stroke="none" x="568" y="368" width="136" height="152"/></g><g transform="translate(-28,-22) scale(1,1)"><path fill="none" stroke="#000000" d="M 568 368 L 704 368 L 704 520 L 568 520 L 568 368 Z Z" stroke-miterlimit="10"/></g><g transform="translate(-28,-22) scale(1,1)"><path fill="none" stroke="#000000" d="M 568 393 L 704 393" stroke-miterlimit="10"/></g><g transform="translate(-28,-22) scale(1,1)"><g><path fill="none" stroke="none"/><text fill="#000000" stroke="none" font-family="Arial" font-size="13px" font-style="normal" font-weight="bold" text-decoration="none" x="611.79638671875" y="387.5">Recurso</text></g></g><g transform="translate(-28,-22) scale(1,1)"><g><path fill="none" stroke="none"/><text fill="#000000" stroke="none" font-family="Arial" font-size="13px" font-style="normal" font-weight="normal" text-decoration="none" x="573" y="410.5">+importe: Float</text></g></g><g transform="translate(-28,-22) scale(1,1)"><g><path fill="none" stroke="none"/><text fill="#000000" stroke="none" font-family="Arial" font-size="13px" font-style="normal" font-weight="normal" text-decoration="none" x="573" y="425.5">+justificación: String</text></g></g><g transform="translate(-28,-22) scale(1,1)"><path fill="none" stroke="#000000" d="M 568 384 L 488 384" stroke-miterlimit="10"/></g><g transform="translate(-28,-22) scale(1,1)"><path fill="none" stroke="#000000" d="M 498.16267485762415 379.790482243984 L 488 384 L 498.16267485762415 388.209517756016" stroke-miterlimit="10"/></g><g transform="translate(-28,-22) scale(1,1)"><g><path fill="none" stroke="none"/><text fill="#000000" stroke="none" font-family="Arial" font-size="13px" font-style="normal" font-weight="normal" text-decoration="none" x="505.5" y="377.5">1</text></g></g><g transform="translate(-28,-22) scale(1,1)"><path fill="none" stroke="#000000" d="M 568 440 L 492 440" stroke-miterlimit="10"/></g><g transform="translate(-28,-22) scale(1,1)"><path fill="none" stroke="#000000" d="M 502.16267485762415 435.790482243984 L 492 440 L 502.16267485762415 444.209517756016" stroke-miterlimit="10"/></g><g transform="translate(-28,-22) scale(1,1)"><g><path fill="none" stroke="none"/><text fill="#000000" stroke="none" font-family="Arial" font-size="13px" font-style="normal" font-weight="normal" text-decoration="none" x="509.5" y="433.5">1</text></g></g><g transform="translate(-28,-22) scale(1,1)"><path fill="none" stroke="#000000" d="M 368 496 L 344 496 M 344 496 A 8 8 0 0 1 336 488 L 336 440 M 336 440 A 8 8 0 0 1 344 432 L 368 432" stroke-miterlimit="10"/></g><g transform="translate(-28,-22) scale(1,1)"><path fill="#000000" stroke="none" d="M 357.83732514237585 436.209517756016 L 368 432 L 357.83732514237585 427.790482243984 L 346 432"/></g><g transform="translate(-28,-22) scale(1,1)"><path fill="none" stroke="#000000" d="M 357.83732514237585 436.209517756016 L 368 432 L 357.83732514237585 427.790482243984 L 346 432 L 357.83732514237585 436.209517756016" stroke-miterlimit="10"/></g><g transform="translate(-28,-22) scale(1,1)"><g><path fill="none" stroke="none"/><text fill="#000000" stroke="none" font-family="Arial" font-size="13px" font-style="normal" font-weight="normal" text-decoration="none" x="343.5" y="488.5">1..*</text></g></g><g transform="translate(-28,-22) scale(1,1)"><rect fill="#C0C0C0" stroke="none" x="575" y="575" width="136.1962890625" height="56" opacity="0.2"/></g><g transform="translate(-28,-22) scale(1,1)"><rect fill="#ffffff" stroke="none" x="568" y="568" width="136.1962890625" height="56"/></g><g transform="translate(-28,-22) scale(1,1)"><path fill="none" stroke="#000000" d="M 568 568 L 704.1962890625 568 L 704.1962890625 624 L 568 624 L 568 568 Z Z" stroke-miterlimit="10"/></g><g transform="translate(-28,-22) scale(1,1)"><path fill="#ffffff" stroke="none" d="M 683.3388345170455 577.5799999999999 C 683.3388345170455 575.602820416 685.0658755503546 574 687.1962890625 574 C 689.3267025746454 574 691.0537436079546 575.602820416 691.0537436079546 577.5799999999999 C 691.0537436079546 579.5571795839999 689.3267025746454 581.16 687.1962890625 581.16 C 685.0658755503546 581.16 683.3388345170455 579.5571795839999 683.3388345170455 577.5799999999999 Z"/></g><g transform="translate(-28,-22) scale(1,1)"><path fill="none" stroke="#000000" d="M 683.3388345170455 577.5799999999999 C 683.3388345170455 575.602820416 685.0658755503546 574 687.1962890625 574 C 689.3267025746454 574 691.0537436079546 575.602820416 691.0537436079546 577.5799999999999 C 691.0537436079546 579.5571795839999 689.3267025746454 581.16 687.1962890625 581.16 C 685.0658755503546 581.16 683.3388345170455 579.5571795839999 683.3388345170455 577.5799999999999 Z" stroke-miterlimit="10"/></g><g transform="translate(-28,-22) scale(1,1)"><path fill="none" stroke="#000000" d="M 687.1962890625 581.16 L 687.1962890625 588.84" stroke-miterlimit="10"/></g><g transform="translate(-28,-22) scale(1,1)"><path fill="none" stroke="#000000" d="M 683.1119254261364 584.04 L 691.2806526988637 584.04" stroke-miterlimit="10"/></g><g transform="translate(-28,-22) scale(1,1)"><path fill="none" stroke="#000000" d="M 687.1962890625 588.84 L 681.5235617897728 596" stroke-miterlimit="10"/></g><g transform="translate(-28,-22) scale(1,1)"><path fill="none" stroke="#000000" d="M 687.1962890625 588.84 L 692.8690163352273 596" stroke-miterlimit="10"/></g><g transform="translate(-28,-22) scale(1,1)"><g><path fill="none" stroke="none"/><text fill="#000000" stroke="none" font-family="Arial" font-size="13px" font-style="normal" font-weight="bold" text-decoration="none" x="594.832275390625" y="587.5">Institución</text></g></g><g transform="translate(-28,-22) scale(1,1)"><g><path fill="none" stroke="none"/><text fill="#000000" stroke="none" font-family="Arial" font-size="13px" font-style="normal" font-weight="normal" text-decoration="none" x="577.5" y="602.5">(from definición)</text></g></g><g transform="translate(-28,-22) scale(1,1)"><path fill="none" stroke="#000000" d="M 632 520 L 632 568" stroke-miterlimit="10"/></g><g transform="translate(-28,-22) scale(1,1)"><path fill="none" stroke="#000000" d="M 627.790482243984 557.8373251423759 L 632 568 L 636.209517756016 557.8373251423759" stroke-miterlimit="10"/></g><g transform="translate(-28,-22) scale(1,1)"><g><path fill="none" stroke="none"/><text fill="#000000" stroke="none" font-family="Arial" font-size="13px" font-style="normal" font-weight="normal" text-decoration="none" x="646.5" y="554.5">+asignado a</text></g></g><g transform="translate(-28,-22) scale(1,1)"><g><path fill="none" stroke="none"/><text fill="#000000" stroke="none" font-family="Arial" font-size="13px" font-style="normal" font-weight="normal" text-decoration="none" x="615.5" y="552.5">1</text></g></g><g transform="translate(-28,-22) scale(1,1)"><path fill="none" stroke="#000000" d="M 489 285 Q 632 280 634 367" stroke-miterlimit="10"/></g><g transform="translate(-28,-22) scale(1,1)"><path fill="none" stroke="#000000" d="M 629.5580311063362 356.9367543830172 L 634 367 L 637.974842889985 356.7432644569563" stroke-miterlimit="10"/></g><g transform="translate(-28,-22) scale(1,1)"><g><path fill="none" stroke="none"/><text fill="#000000" stroke="none" font-family="Arial" font-size="13px" font-style="normal" font-weight="normal" text-decoration="none" x="611.5" y="351.5">1..*</text></g></g><g transform="translate(-28,-22) scale(1,1)"><path fill="#ffffff" stroke="none" d="M 120 32 L 717.50048828125 32 L 727.50048828125 42 L 727.50048828125 87 L 120 87 L 120 32"/></g><g transform="translate(-28,-22) scale(1,1)"><path fill="none" stroke="#000000" d="M 120 32 L 717.50048828125 32 L 727.50048828125 42 L 727.50048828125 87 L 120 87 L 120 32 L 120 32" stroke-miterlimit="10"/></g><g transform="translate(-28,-22) scale(1,1)"><path fill="none" stroke="#000000" d="M 717.50048828125 32 L 717.50048828125 42 L 727.50048828125 42 L 717.50048828125 32" stroke-miterlimit="10"/></g><g transform="translate(-28,-22) scale(1,1)"><g><path fill="none" stroke="none"/><text fill="#000000" stroke="none" font-family="Arial" font-size="13px" font-style="normal" font-weight="normal" text-decoration="none" x="125" y="50">A partir de este modelo, se arma el desglose financiero:                                                  </text></g></g><g transform="translate(-28,-22) scale(1,1)"><g><path fill="none" stroke="none"/><text fill="#000000" stroke="none" font-family="Arial" font-size="13px" font-style="normal" font-weight="normal" text-decoration="none" x="125" y="65">------------------------------------------------------------------------------------------------------------------------------------     </text></g></g><g transform="translate(-28,-22) scale(1,1)"><g><path fill="none" stroke="none"/><text fill="#000000" stroke="none" font-family="Arial" font-size="13px" font-style="normal" font-weight="normal" text-decoration="none" x="125" y="80">| Etapa | Recurso | Tipo Recurso | Categoría del Recurso | Rubro | Justificación | Institución | importe |</text></g></g><g transform="translate(-28,-22) scale(1,1)"><rect fill="#C0C0C0" stroke="none" x="359" y="135" width="133.5029296875" height="59" opacity="0.2"/></g><g transform="translate(-28,-22) scale(1,1)"><rect fill="#ffffff" stroke="none" x="352" y="128" width="133.5029296875" height="59"/></g><g transform="translate(-28,-22) scale(1,1)"><path fill="none" stroke="#000000" d="M 352 128 L 485.5029296875 128 L 485.5029296875 187 L 352 187 L 352 128 Z Z" stroke-miterlimit="10"/></g><g transform="translate(-28,-22) scale(1,1)"><path fill="none" stroke="#000000" d="M 352 153 L 485.5029296875 153" stroke-miterlimit="10"/></g><g transform="translate(-28,-22) scale(1,1)"><g><path fill="none" stroke="none"/><text fill="#000000" stroke="none" font-family="Arial" font-size="13px" font-style="normal" font-weight="bold" text-decoration="none" x="373.102294921875" y="147.5">Plan de Trabajo</text></g></g><g transform="translate(-28,-22) scale(1,1)"><g><path fill="none" stroke="none"/><text fill="#000000" stroke="none" font-family="Arial" font-size="13px" font-style="normal" font-weight="normal" text-decoration="none" x="357" y="170.5">+descripción: String</text></g></g><g transform="translate(-28,-22) scale(1,1)"><rect fill="#C0C0C0" stroke="none" x="119" y="455" width="144" height="47" opacity="0.2"/></g><g transform="translate(-28,-22) scale(1,1)"><rect fill="#ffffff" stroke="none" x="112" y="448" width="144" height="47"/></g><g transform="translate(-28,-22) scale(1,1)"><path fill="none" stroke="#000000" d="M 112 448 L 256 448 L 256 495 L 112 495 L 112 448 Z Z" stroke-miterlimit="10"/></g><g transform="translate(-28,-22) scale(1,1)"><path fill="none" stroke="#000000" d="M 112 473 L 256 473" stroke-miterlimit="10"/></g><g transform="translate(-28,-22) scale(1,1)"><g><path fill="none" stroke="none"/><text fill="#000000" stroke="none" font-family="Arial" font-size="13px" font-style="normal" font-weight="bold" text-decoration="none" x="169.549560546875" y="467.5">Meta</text></g></g><g transform="translate(-28,-22) scale(1,1)"><g><path fill="none" stroke="none"/><text fill="#000000" stroke="none" font-family="Arial" font-size="13px" font-style="normal" font-weight="normal" text-decoration="none" x="117" y="490.5">+descripción: String</text></g></g><g transform="translate(-28,-22) scale(1,1)"><rect fill="#C0C0C0" stroke="none" x="119" y="367" width="144" height="47" opacity="0.2"/></g><g transform="translate(-28,-22) scale(1,1)"><rect fill="#ffffff" stroke="none" x="112" y="360" width="144" height="47"/></g><g transform="translate(-28,-22) scale(1,1)"><path fill="none" stroke="#000000" d="M 112 360 L 256 360 L 256 407 L 112 407 L 112 360 Z Z" stroke-miterlimit="10"/></g><g transform="translate(-28,-22) scale(1,1)"><path fill="none" stroke="#000000" d="M 112 385 L 256 385" stroke-miterlimit="10"/></g><g transform="translate(-28,-22) scale(1,1)"><g><path fill="none" stroke="none"/><text fill="#000000" stroke="none" font-family="Arial" font-size="13px" font-style="normal" font-weight="bold" text-decoration="none" x="128.36279296875" y="379.5">Objetivo Específico</text></g></g><g transform="translate(-28,-22) scale(1,1)"><g><path fill="none" stroke="none"/><text fill="#000000" stroke="none" font-family="Arial" font-size="13px" font-style="normal" font-weight="normal" text-decoration="none" x="117" y="402.5">+descripción: String</text></g></g><g transform="translate(-28,-22) scale(1,1)"><rect fill="#C0C0C0" stroke="none" x="119" y="567" width="144" height="47" opacity="0.2"/></g><g transform="translate(-28,-22) scale(1,1)"><rect fill="#ffffff" stroke="none" x="112" y="560" width="144" height="47"/></g><g transform="translate(-28,-22) scale(1,1)"><path fill="none" stroke="#000000" d="M 112 560 L 256 560 L 256 607 L 112 607 L 112 560 Z Z" stroke-miterlimit="10"/></g><g transform="translate(-28,-22) scale(1,1)"><path fill="none" stroke="#000000" d="M 112 585 L 256 585" stroke-miterlimit="10"/></g><g transform="translate(-28,-22) scale(1,1)"><g><path fill="none" stroke="none"/><text fill="#000000" stroke="none" font-family="Arial" font-size="13px" font-style="normal" font-weight="bold" text-decoration="none" x="157.62548828125" y="579.5">Actividad</text></g></g><g transform="translate(-28,-22) scale(1,1)"><g><path fill="none" stroke="none"/><text fill="#000000" stroke="none" font-family="Arial" font-size="13px" font-style="normal" font-weight="normal" text-decoration="none" x="117" y="602.5">+descripción: String</text></g></g><g transform="translate(-28,-22) scale(1,1)"><rect fill="#C0C0C0" stroke="none" x="119" y="647" width="144" height="47" opacity="0.2"/></g><g transform="translate(-28,-22) scale(1,1)"><rect fill="#ffffff" stroke="none" x="112" y="640" width="144" height="47"/></g><g transform="translate(-28,-22) scale(1,1)"><path fill="none" stroke="#000000" d="M 112 640 L 256 640 L 256 687 L 112 687 L 112 640 Z Z" stroke-miterlimit="10"/></g><g transform="translate(-28,-22) scale(1,1)"><path fill="none" stroke="#000000" d="M 112 665 L 256 665" stroke-miterlimit="10"/></g><g transform="translate(-28,-22) scale(1,1)"><g><path fill="none" stroke="none"/><text fill="#000000" stroke="none" font-family="Arial" font-size="13px" font-style="normal" font-weight="bold" text-decoration="none" x="157.984130859375" y="659.5">Producto</text></g></g><g transform="translate(-28,-22) scale(1,1)"><g><path fill="none" stroke="none"/><text fill="#000000" stroke="none" font-family="Arial" font-size="13px" font-style="normal" font-weight="normal" text-decoration="none" x="117" y="682.5">+descripción: String</text></g></g><g transform="translate(-28,-22) scale(1,1)"><path fill="none" stroke="#000000" d="M 351 285 Q 232 280 195 359" stroke-miterlimit="10"/></g><g transform="translate(-28,-22) scale(1,1)"><path fill="none" stroke="#000000" d="M 195.49827374991298 348.01129110085503 L 195 359 L 203.12252332652108 351.58214216838036" stroke-miterlimit="10"/></g><g transform="translate(-28,-22) scale(1,1)"><g><path fill="none" stroke="none"/><text fill="#000000" stroke="none" font-family="Arial" font-size="13px" font-style="normal" font-weight="normal" text-decoration="none" x="182.5" y="340.5">1..*</text></g></g><g transform="translate(-28,-22) scale(1,1)"><path fill="none" stroke="#000000" d="M 184 407 L 184 448" stroke-miterlimit="10"/></g><g transform="translate(-28,-22) scale(1,1)"><path fill="none" stroke="#000000" d="M 179.790482243984 437.83732514237585 L 184 448 L 188.209517756016 437.83732514237585" stroke-miterlimit="10"/></g><g transform="translate(-28,-22) scale(1,1)"><g><path fill="none" stroke="none"/><text fill="#000000" stroke="none" font-family="Arial" font-size="13px" font-style="normal" font-weight="normal" text-decoration="none" x="150.5" y="444.5">1..*</text></g></g><g transform="translate(-28,-22) scale(1,1)"><path fill="none" stroke="#000000" d="M 184 495 L 184 560" stroke-miterlimit="10"/></g><g transform="translate(-28,-22) scale(1,1)"><path fill="none" stroke="#000000" d="M 179.790482243984 549.8373251423759 L 184 560 L 188.209517756016 549.8373251423759" stroke-miterlimit="10"/></g><g transform="translate(-28,-22) scale(1,1)"><g><path fill="none" stroke="none"/><text fill="#000000" stroke="none" font-family="Arial" font-size="13px" font-style="normal" font-weight="normal" text-decoration="none" x="150.5" y="559.5">1..*</text></g></g><g transform="translate(-28,-22) scale(1,1)"><g><path fill="none" stroke="none"/><text fill="#000000" stroke="none" font-family="Arial" font-size="13px" font-style="normal" font-weight="normal" text-decoration="none" x="37.5" y="524.5">+se cumple a través de</text></g></g><g transform="translate(-28,-22) scale(1,1)"><path fill="none" stroke="#000000" d="M 184 607 L 184 640" stroke-miterlimit="10"/></g><g transform="translate(-28,-22) scale(1,1)"><path fill="none" stroke="#000000" d="M 179.790482243984 629.8373251423759 L 184 640 L 188.209517756016 629.8373251423759" stroke-miterlimit="10"/></g><g transform="translate(-28,-22) scale(1,1)"><g><path fill="none" stroke="none"/><text fill="#000000" stroke="none" font-family="Arial" font-size="13px" font-style="normal" font-weight="normal" text-decoration="none" x="150.5" y="636.5">1..*</text></g></g><g transform="translate(-28,-22) scale(1,1)"><path fill="none" stroke="#000000" d="M 416 248 L 416 187" stroke-miterlimit="10"/></g><g transform="translate(-28,-22) scale(1,1)"><path fill="#000000" stroke="none" d="M 420.209517756016 197.16267485762415 L 416 187 L 411.790482243984 197.16267485762415 L 416 209"/></g><g transform="translate(-28,-22) scale(1,1)"><path fill="none" stroke="#000000" d="M 420.209517756016 197.16267485762415 L 416 187 L 411.790482243984 197.16267485762415 L 416 209 L 420.209517756016 197.16267485762415" stroke-miterlimit="10"/></g><g transform="translate(-28,-22) scale(1,1)"><g><path fill="none" stroke="none"/><text fill="#000000" stroke="none" font-family="Arial" font-size="13px" font-style="normal" font-weight="normal" text-decoration="none" x="418.5" y="236.5">1..*</text></g></g><g transform="translate(-28,-22) scale(1,1)"><rect fill="#C0C0C0" stroke="none" x="383" y="639" width="156.419921875" height="80" opacity="0.2"/></g><g transform="translate(-28,-22) scale(1,1)"><rect fill="#ffffff" stroke="none" x="376" y="632" width="156.419921875" height="80"/></g><g transform="translate(-28,-22) scale(1,1)"><path fill="none" stroke="#000000" d="M 376 632 L 532.419921875 632 L 532.419921875 712 L 376 712 L 376 632 Z Z" stroke-miterlimit="10"/></g><g transform="translate(-28,-22) scale(1,1)"><path fill="#ffffff" stroke="none" d="M 511.5624673295454 641.5799999999999 C 511.5624673295454 639.602820416 513.2895083628546 638 515.419921875 638 C 517.5503353871454 638 519.2773764204545 639.602820416 519.2773764204545 641.5799999999999 C 519.2773764204545 643.5571795839999 517.5503353871454 645.16 515.419921875 645.16 C 513.2895083628546 645.16 511.5624673295454 643.5571795839999 511.5624673295454 641.5799999999999 Z"/></g><g transform="translate(-28,-22) scale(1,1)"><path fill="none" stroke="#000000" d="M 511.5624673295454 641.5799999999999 C 511.5624673295454 639.602820416 513.2895083628546 638 515.419921875 638 C 517.5503353871454 638 519.2773764204545 639.602820416 519.2773764204545 641.5799999999999 C 519.2773764204545 643.5571795839999 517.5503353871454 645.16 515.419921875 645.16 C 513.2895083628546 645.16 511.5624673295454 643.5571795839999 511.5624673295454 641.5799999999999 Z" stroke-miterlimit="10"/></g><g transform="translate(-28,-22) scale(1,1)"><path fill="none" stroke="#000000" d="M 515.419921875 645.16 L 515.419921875 652.84" stroke-miterlimit="10"/></g><g transform="translate(-28,-22) scale(1,1)"><path fill="none" stroke="#000000" d="M 511.33555823863634 648.04 L 519.5042855113636 648.04" stroke-miterlimit="10"/></g><g transform="translate(-28,-22) scale(1,1)"><path fill="none" stroke="#000000" d="M 515.419921875 652.84 L 509.7471946022727 660" stroke-miterlimit="10"/></g><g transform="translate(-28,-22) scale(1,1)"><path fill="none" stroke="#000000" d="M 515.419921875 652.84 L 521.0926491477272 660" stroke-miterlimit="10"/></g><g transform="translate(-28,-22) scale(1,1)"><g><path fill="none" stroke="none"/><text fill="#000000" stroke="none" font-family="Arial" font-size="13px" font-style="normal" font-weight="bold" text-decoration="none" x="398.858642578125" y="651.5">Persona Física</text></g></g><g transform="translate(-28,-22) scale(1,1)"><g><path fill="none" stroke="none"/><text fill="#000000" stroke="none" font-family="Arial" font-size="13px" font-style="normal" font-weight="normal" text-decoration="none" x="385.5" y="666.5">(from Participantes)</text></g></g><g transform="translate(-28,-22) scale(1,1)"><path fill="none" stroke="#000000" d="M 451 631 Q 448 584 257 583" stroke-miterlimit="10"/></g><g transform="translate(-28,-22) scale(1,1)"><path fill="none" stroke="#000000" d="M 267.18457463117693 578.8437469299877 L 257 583 L 267.14049651533884 587.2626670550726" stroke-miterlimit="10"/></g><g transform="translate(-28,-22) scale(1,1)"><g><path fill="none" stroke="none"/><text fill="#000000" stroke="none" font-family="Arial" font-size="13px" font-style="normal" font-weight="normal" text-decoration="none" x="343.5" y="577.5">+realiza</text></g></g><g transform="translate(-28,-22) scale(1,1)"><path fill="none" stroke="#000000" d="M 375 672 Q 304 672 257 668" stroke-miterlimit="10"/></g><g transform="translate(-28,-22) scale(1,1)"><path fill="none" stroke="#000000" d="M 267.4830353677971 664.6674380009496 L 257 668 L 266.7691025842409 673.0561482077345" stroke-miterlimit="10"/></g><g transform="translate(-28,-22) scale(1,1)"><g><path fill="none" stroke="none"/><text fill="#000000" stroke="none" font-family="Arial" font-size="13px" font-style="normal" font-weight="normal" text-decoration="none" x="274.5" y="692.5">+produce</text></g></g><g transform="translate(-28,-22) scale(1,1)"><path fill="none" stroke="#000000" d="M 247 559 Q 328 528 367 521" stroke-miterlimit="10"/></g><g transform="translate(-28,-22) scale(1,1)"><path fill="none" stroke="#000000" d="M 357.7408422607802 526.9386865517761 L 367 521 L 356.25350124241953 518.652072306624" stroke-miterlimit="10"/></g><g transform="translate(-28,-22) scale(1,1)"><g><path fill="none" stroke="none"/><text fill="#000000" stroke="none" font-family="Arial" font-size="13px" font-style="normal" font-weight="normal" text-decoration="none" x="308.5" y="548.5">+justifica</text></g></g></g></svg>