<svg version="1.1" xmlns="http://www.w3.org/2000/svg" xmlns:xlink="http://www.w3.org/1999/xlink" width="669.50048828125" height="696"><defs></defs><g><g transform="translate(-165,-14) scale(1,1)"><rect fill="#C0C0C0" stroke="none" x="439" y="231" width="136" height="64" opacity="0.2"></rect></g><g transform="translate(-165,-14) scale(1,1)"><rect fill="#ffffff" stroke="none" x="432" y="224" width="136" height="64"></rect></g><g transform="translate(-165,-14) scale(1,1)"><path fill="none" stroke="#000000" d="M 432 224 L 568 224 L 568 288 L 432 288 L 432 224 Z Z" stroke-miterlimit="10"></path></g><g transform="translate(-165,-14) scale(1,1)"><path fill="none" stroke="#000000" d="M 432 249 L 568 249" stroke-miterlimit="10"></path></g><g transform="translate(-165,-14) scale(1,1)"><g><path fill="none" stroke="none"></path><text fill="#000000" stroke="none" font-family="Arial" font-size="13px" font-style="normal" font-weight="bold" text-decoration="none" x="483" y="243.5">Etapa</text></g></g><g transform="translate(-165,-14) scale(1,1)"><g><path fill="none" stroke="none"></path><text fill="#000000" stroke="none" font-family="Arial" font-size="13px" font-style="normal" font-weight="normal" text-decoration="none" x="437" y="266.5">+duración: int</text></g></g><g transform="translate(-165,-14) scale(1,1)"><rect fill="#C0C0C0" stroke="none" x="487" y="447" width="112" height="32" opacity="0.2"></rect></g><g transform="translate(-165,-14) scale(1,1)"><rect fill="#ffffff" stroke="none" x="480" y="440" width="112" height="32"></rect></g><g transform="translate(-165,-14) scale(1,1)"><path fill="none" stroke="#000000" d="M 480 440 L 592 440 L 592 472 L 480 472 L 480 440 Z Z" stroke-miterlimit="10"></path></g><g transform="translate(-165,-14) scale(1,1)"><g><path fill="none" stroke="none"></path><text fill="#000000" stroke="none" font-family="Arial" font-size="13px" font-style="normal" font-weight="bold" text-decoration="none" x="519" y="459.5">Rubro</text></g></g><g transform="translate(-165,-14) scale(1,1)"><path fill="none" stroke="#000000" d="M 640 456 L 592 456" stroke-miterlimit="10"></path></g><g transform="translate(-165,-14) scale(1,1)"><path fill="none" stroke="#000000" d="M 602.1626748576241 451.790482243984 L 592 456 L 602.1626748576241 460.209517756016" stroke-miterlimit="10"></path></g><g transform="translate(-165,-14) scale(1,1)"><g><path fill="none" stroke="none"></path><text fill="#000000" stroke="none" font-family="Arial" font-size="13px" font-style="normal" font-weight="normal" text-decoration="none" x="609.75634765625" y="449.5">1</text></g></g><g transform="translate(-165,-14) scale(1,1)"><rect fill="#C0C0C0" stroke="none" x="487" y="335" width="110.61328125" height="44" opacity="0.2"></rect></g><g transform="translate(-165,-14) scale(1,1)"><rect fill="#ffffff" stroke="none" x="480" y="328" width="110.61328125" height="44"></rect></g><g transform="translate(-165,-14) scale(1,1)"><path fill="none" stroke="#000000" d="M 480 328 L 590.61328125 328 L 590.61328125 372 L 480 372 L 480 328 Z Z" stroke-miterlimit="10"></path></g><g transform="translate(-165,-14) scale(1,1)"><g><path fill="none" stroke="none"></path><text fill="#000000" stroke="none" font-family="Arial" font-size="13px" font-style="normal" font-weight="bold" text-decoration="none" x="513.806640625" y="347.5">Tipo de</text><text fill="#000000" stroke="none" font-family="Arial" font-size="13px" font-style="normal" font-weight="bold" text-decoration="none" x="511.306640625" y="360.5">Recurso</text></g></g><g transform="translate(-165,-14) scale(1,1)"><rect fill="#C0C0C0" stroke="none" x="487" y="391" width="112" height="40" opacity="0.2"></rect></g><g transform="translate(-165,-14) scale(1,1)"><rect fill="#ffffff" stroke="none" x="480" y="384" width="112" height="40"></rect></g><g transform="translate(-165,-14) scale(1,1)"><path fill="none" stroke="#000000" d="M 480 384 L 592 384 L 592 424 L 480 424 L 480 384 Z Z" stroke-miterlimit="10"></path></g><g transform="translate(-165,-14) scale(1,1)"><g><path fill="none" stroke="none"></path><text fill="#000000" stroke="none" font-family="Arial" font-size="13px" font-style="normal" font-weight="bold" text-decoration="none" x="498" y="403.5">Categoria del</text><text fill="#000000" stroke="none" font-family="Arial" font-size="13px" font-style="normal" font-weight="bold" text-decoration="none" x="512" y="416.5">Recurso</text></g></g><g transform="translate(-165,-14) scale(1,1)"><rect fill="#C0C0C0" stroke="none" x="647" y="343" width="136" height="128" opacity="0.2"></rect></g><g transform="translate(-165,-14) scale(1,1)"><rect fill="#ffffff" stroke="none" x="640" y="336" width="136" height="128"></rect></g><g transform="translate(-165,-14) scale(1,1)"><path fill="none" stroke="#000000" d="M 640 336 L 776 336 L 776 464 L 640 464 L 640 336 Z Z" stroke-miterlimit="10"></path></g><g transform="translate(-165,-14) scale(1,1)"><path fill="none" stroke="#000000" d="M 640 361 L 776 361" stroke-miterlimit="10"></path></g><g transform="translate(-165,-14) scale(1,1)"><g><path fill="none" stroke="none"></path><text fill="#000000" stroke="none" font-family="Arial" font-size="13px" font-style="normal" font-weight="bold" text-decoration="none" x="684" y="355.5">Recurso</text></g></g><g transform="translate(-165,-14) scale(1,1)"><g><path fill="none" stroke="none"></path><text fill="#000000" stroke="none" font-family="Arial" font-size="13px" font-style="normal" font-weight="normal" text-decoration="none" x="645" y="378.5">+importe: Float</text></g></g><g transform="translate(-165,-14) scale(1,1)"><g><path fill="none" stroke="none"></path><text fill="#000000" stroke="none" font-family="Arial" font-size="13px" font-style="normal" font-weight="normal" text-decoration="none" x="645" y="393.5">+justificación: String</text></g></g><g transform="translate(-165,-14) scale(1,1)"><path fill="none" stroke="#000000" d="M 640 352 L 591 352" stroke-miterlimit="10"></path></g><g transform="translate(-165,-14) scale(1,1)"><path fill="none" stroke="#000000" d="M 601.1626748576241 347.790482243984 L 591 352 L 601.1626748576241 356.209517756016" stroke-miterlimit="10"></path></g><g transform="translate(-165,-14) scale(1,1)"><g><path fill="none" stroke="none"></path><text fill="#000000" stroke="none" font-family="Arial" font-size="13px" font-style="normal" font-weight="normal" text-decoration="none" x="608.614990234375" y="345.5">1</text></g></g><g transform="translate(-165,-14) scale(1,1)"><path fill="none" stroke="#000000" d="M 640 408 L 592 408" stroke-miterlimit="10"></path></g><g transform="translate(-165,-14) scale(1,1)"><path fill="none" stroke="#000000" d="M 602.1626748576241 403.790482243984 L 592 408 L 602.1626748576241 412.209517756016" stroke-miterlimit="10"></path></g><g transform="translate(-165,-14) scale(1,1)"><g><path fill="none" stroke="none"></path><text fill="#000000" stroke="none" font-family="Arial" font-size="13px" font-style="normal" font-weight="normal" text-decoration="none" x="609.614990234375" y="401.5">1</text></g></g><g transform="translate(-165,-14) scale(1,1)"><path fill="none" stroke="#000000" d="M 480 456 L 456 456 M 456 456 A 8 8 0 0 1 448 448 L 448 408 M 448 408 A 8 8 0 0 1 456 400 L 480 400" stroke-miterlimit="10"></path></g><g transform="translate(-165,-14) scale(1,1)"><path fill="#000000" stroke="none" d="M 469.83732514237585 404.209517756016 L 480 400 L 469.83732514237585 395.790482243984 L 458 400"></path></g><g transform="translate(-165,-14) scale(1,1)"><path fill="none" stroke="#000000" d="M 469.83732514237585 404.209517756016 L 480 400 L 469.83732514237585 395.790482243984 L 458 400 L 469.83732514237585 404.209517756016" stroke-miterlimit="10"></path></g><g transform="translate(-165,-14) scale(1,1)"><rect fill="#C0C0C0" stroke="none" x="655" y="527" width="136" height="64" opacity="0.2"></rect></g><g transform="translate(-165,-14) scale(1,1)"><rect fill="#ffffff" stroke="none" x="648" y="520" width="136" height="64"></rect></g><g transform="translate(-165,-14) scale(1,1)"><path fill="none" stroke="#000000" d="M 648 520 L 784 520 L 784 584 L 648 584 L 648 520 Z Z" stroke-miterlimit="10"></path></g><g transform="translate(-165,-14) scale(1,1)"><path fill="#ffffff" stroke="none" d="M 763.1425454545455 529.5799999999999 C 763.1425454545455 527.602820416 764.8695864878546 526 767 526 C 769.1304135121454 526 770.8574545454546 527.602820416 770.8574545454546 529.5799999999999 C 770.8574545454546 531.5571795839999 769.1304135121454 533.16 767 533.16 C 764.8695864878546 533.16 763.1425454545455 531.5571795839999 763.1425454545455 529.5799999999999 Z"></path></g><g transform="translate(-165,-14) scale(1,1)"><path fill="none" stroke="#000000" d="M 763.1425454545455 529.5799999999999 C 763.1425454545455 527.602820416 764.8695864878546 526 767 526 C 769.1304135121454 526 770.8574545454546 527.602820416 770.8574545454546 529.5799999999999 C 770.8574545454546 531.5571795839999 769.1304135121454 533.16 767 533.16 C 764.8695864878546 533.16 763.1425454545455 531.5571795839999 763.1425454545455 529.5799999999999 Z" stroke-miterlimit="10"></path></g><g transform="translate(-165,-14) scale(1,1)"><path fill="none" stroke="#000000" d="M 767 533.16 L 767 540.84" stroke-miterlimit="10"></path></g><g transform="translate(-165,-14) scale(1,1)"><path fill="none" stroke="#000000" d="M 762.9156363636364 536.04 L 771.0843636363637 536.04" stroke-miterlimit="10"></path></g><g transform="translate(-165,-14) scale(1,1)"><path fill="none" stroke="#000000" d="M 767 540.84 L 761.3272727272728 548" stroke-miterlimit="10"></path></g><g transform="translate(-165,-14) scale(1,1)"><path fill="none" stroke="#000000" d="M 767 540.84 L 772.6727272727273 548" stroke-miterlimit="10"></path></g><g transform="translate(-165,-14) scale(1,1)"><g><path fill="none" stroke="none"></path><text fill="#000000" stroke="none" font-family="Arial" font-size="13px" font-style="normal" font-weight="bold" text-decoration="none" x="674" y="539.5">Institución</text></g></g><g transform="translate(-165,-14) scale(1,1)"><g><path fill="none" stroke="none"></path><text fill="#000000" stroke="none" font-family="Arial" font-size="13px" font-style="normal" font-weight="normal" text-decoration="none" x="657.5" y="554.5">(from definición)</text></g></g><g transform="translate(-165,-14) scale(1,1)"><path fill="none" stroke="#000000" d="M 704 464 L 704 520" stroke-miterlimit="10"></path></g><g transform="translate(-165,-14) scale(1,1)"><path fill="none" stroke="#000000" d="M 699.790482243984 509.83732514237585 L 704 520 L 708.209517756016 509.83732514237585" stroke-miterlimit="10"></path></g><g transform="translate(-165,-14) scale(1,1)"><g><path fill="none" stroke="none"></path><text fill="#000000" stroke="none" font-family="Arial" font-size="13px" font-style="normal" font-weight="normal" text-decoration="none" x="710.5" y="500.5">+asignado a</text></g></g><g transform="translate(-165,-14) scale(1,1)"><g><path fill="none" stroke="none"></path><text fill="#000000" stroke="none" font-family="Arial" font-size="13px" font-style="normal" font-weight="normal" text-decoration="none" x="687.614990234375" y="504.5">1</text></g></g><g transform="translate(-165,-14) scale(1,1)"><path fill="none" stroke="#000000" d="M 569 259 Q 704 264 706 335" stroke-miterlimit="10"></path></g><g transform="translate(-165,-14) scale(1,1)"><path fill="none" stroke="#000000" d="M 701.5059923418332 324.95988569943853 L 706 335 L 709.9216896160211 324.722823804391" stroke-miterlimit="10"></path></g><g transform="translate(-165,-14) scale(1,1)"><g><path fill="none" stroke="none"></path><text fill="#000000" stroke="none" font-family="Arial" font-size="13px" font-style="normal" font-weight="normal" text-decoration="none" x="710.5" y="290.5">+se le asigna</text></g></g><g transform="translate(-165,-14) scale(1,1)"><g><path fill="none" stroke="none"></path><text fill="#000000" stroke="none" font-family="Arial" font-size="13px" font-style="normal" font-weight="normal" text-decoration="none" x="681.5" y="319.5">1..*</text></g></g><g transform="translate(-165,-14) scale(1,1)"><path fill="#ffffff" stroke="none" d="M 216 24 L 813.50048828125 24 L 823.50048828125 34 L 823.50048828125 79 L 216 79 L 216 24"></path></g><g transform="translate(-165,-14) scale(1,1)"><path fill="none" stroke="#000000" d="M 216 24 L 813.50048828125 24 L 823.50048828125 34 L 823.50048828125 79 L 216 79 L 216 24 L 216 24" stroke-miterlimit="10"></path></g><g transform="translate(-165,-14) scale(1,1)"><path fill="none" stroke="#000000" d="M 813.50048828125 24 L 813.50048828125 34 L 823.50048828125 34 L 813.50048828125 24" stroke-miterlimit="10"></path></g><g transform="translate(-165,-14) scale(1,1)"><g><path fill="none" stroke="none"></path><text fill="#000000" stroke="none" font-family="Arial" font-size="13px" font-style="normal" font-weight="normal" text-decoration="none" x="221" y="42">A partir de este modelo, se arma el desglose financiero:                                                  </text></g></g><g transform="translate(-165,-14) scale(1,1)"><g><path fill="none" stroke="none"></path><text fill="#000000" stroke="none" font-family="Arial" font-size="13px" font-style="normal" font-weight="normal" text-decoration="none" x="221" y="57">------------------------------------------------------------------------------------------------------------------------------------     </text></g></g><g transform="translate(-165,-14) scale(1,1)"><g><path fill="none" stroke="none"></path><text fill="#000000" stroke="none" font-family="Arial" font-size="13px" font-style="normal" font-weight="normal" text-decoration="none" x="221" y="72">| Etapa | Recurso | Tipo Recurso | Categoría del Recurso | Rubro | Justificación | Institución | importe |</text></g></g><g transform="translate(-165,-14) scale(1,1)"><rect fill="#C0C0C0" stroke="none" x="439" y="111" width="133.5029296875" height="59" opacity="0.2"></rect></g><g transform="translate(-165,-14) scale(1,1)"><rect fill="#ffffff" stroke="none" x="432" y="104" width="133.5029296875" height="59"></rect></g><g transform="translate(-165,-14) scale(1,1)"><path fill="none" stroke="#000000" d="M 432 104 L 565.5029296875 104 L 565.5029296875 163 L 432 163 L 432 104 Z Z" stroke-miterlimit="10"></path></g><g transform="translate(-165,-14) scale(1,1)"><g><path fill="none" stroke="none"></path><text fill="#000000" stroke="none" font-family="Arial" font-size="13px" font-style="normal" font-weight="bold" text-decoration="none" x="453.25146484375" y="123.5">Plan de Trabajo</text></g></g><g transform="translate(-165,-14) scale(1,1)"><rect fill="#C0C0C0" stroke="none" x="238" y="447" width="144" height="44" opacity="0.2"></rect></g><g transform="translate(-165,-14) scale(1,1)"><rect fill="#ffffff" stroke="none" x="231" y="440" width="144" height="44"></rect></g><g transform="translate(-165,-14) scale(1,1)"><path fill="none" stroke="#000000" d="M 231 440 L 375 440 L 375 484 L 231 484 L 231 440 Z Z" stroke-miterlimit="10"></path></g><g transform="translate(-165,-14) scale(1,1)"><g><path fill="none" stroke="none"></path><text fill="#000000" stroke="none" font-family="Arial" font-size="13px" font-style="normal" font-weight="bold" text-decoration="none" x="288.5" y="459.5">Meta</text></g></g><g transform="translate(-165,-14) scale(1,1)"><rect fill="#C0C0C0" stroke="none" x="238" y="343" width="144" height="44" opacity="0.2"></rect></g><g transform="translate(-165,-14) scale(1,1)"><rect fill="#ffffff" stroke="none" x="231" y="336" width="144" height="44"></rect></g><g transform="translate(-165,-14) scale(1,1)"><path fill="none" stroke="#000000" d="M 231 336 L 375 336 L 375 380 L 231 380 L 231 336 Z Z" stroke-miterlimit="10"></path></g><g transform="translate(-165,-14) scale(1,1)"><g><path fill="none" stroke="none"></path><text fill="#000000" stroke="none" font-family="Arial" font-size="13px" font-style="normal" font-weight="bold" text-decoration="none" x="246" y="355.5">Objetivo Específico</text></g></g><g transform="translate(-165,-14) scale(1,1)"><rect fill="#C0C0C0" stroke="none" x="231" y="567" width="144" height="44" opacity="0.2"></rect></g><g transform="translate(-165,-14) scale(1,1)"><rect fill="#ffffff" stroke="none" x="224" y="560" width="144" height="44"></rect></g><g transform="translate(-165,-14) scale(1,1)"><path fill="none" stroke="#000000" d="M 224 560 L 368 560 L 368 604 L 224 604 L 224 560 Z Z" stroke-miterlimit="10"></path></g><g transform="translate(-165,-14) scale(1,1)"><g><path fill="none" stroke="none"></path><text fill="#000000" stroke="none" font-family="Arial" font-size="13px" font-style="normal" font-weight="bold" text-decoration="none" x="269" y="579.5">Actividad</text></g></g><g transform="translate(-165,-14) scale(1,1)"><rect fill="#C0C0C0" stroke="none" x="239" y="663" width="144" height="44" opacity="0.2"></rect></g><g transform="translate(-165,-14) scale(1,1)"><rect fill="#ffffff" stroke="none" x="232" y="656" width="144" height="44"></rect></g><g transform="translate(-165,-14) scale(1,1)"><path fill="none" stroke="#000000" d="M 232 656 L 376 656 L 376 700 L 232 700 L 232 656 Z Z" stroke-miterlimit="10"></path></g><g transform="translate(-165,-14) scale(1,1)"><g><path fill="none" stroke="none"></path><text fill="#000000" stroke="none" font-family="Arial" font-size="13px" font-style="normal" font-weight="bold" text-decoration="none" x="278" y="675.5">Producto</text></g></g><g transform="translate(-165,-14) scale(1,1)"><path fill="none" stroke="#000000" d="M 431 256 Q 304 256 303 335" stroke-miterlimit="10"></path></g><g transform="translate(-165,-14) scale(1,1)"><path fill="none" stroke="#000000" d="M 298.9194505994928 324.78485846451355 L 303 335 L 307.3378116984575 324.89141999741184" stroke-miterlimit="10"></path></g><g transform="translate(-165,-14) scale(1,1)"><g><path fill="none" stroke="none"></path><text fill="#000000" stroke="none" font-family="Arial" font-size="13px" font-style="normal" font-weight="normal" text-decoration="none" x="279.5" y="319.5">1..*</text></g></g><g transform="translate(-165,-14) scale(1,1)"><path fill="none" stroke="#000000" d="M 304 380 L 304 440" stroke-miterlimit="10"></path></g><g transform="translate(-165,-14) scale(1,1)"><path fill="none" stroke="#000000" d="M 299.790482243984 429.83732514237585 L 304 440 L 308.209517756016 429.83732514237585" stroke-miterlimit="10"></path></g><g transform="translate(-165,-14) scale(1,1)"><g><path fill="none" stroke="none"></path><text fill="#000000" stroke="none" font-family="Arial" font-size="13px" font-style="normal" font-weight="normal" text-decoration="none" x="299.5" y="415.5">+tiene</text></g></g><g transform="translate(-165,-14) scale(1,1)"><g><path fill="none" stroke="none"></path><text fill="#000000" stroke="none" font-family="Arial" font-size="13px" font-style="normal" font-weight="normal" text-decoration="none" x="269.5" y="436.5">1..*</text></g></g><g transform="translate(-165,-14) scale(1,1)"><path fill="none" stroke="#000000" d="M 304 484 L 304 560" stroke-miterlimit="10"></path></g><g transform="translate(-165,-14) scale(1,1)"><path fill="none" stroke="#000000" d="M 299.790482243984 549.8373251423759 L 304 560 L 308.209517756016 549.8373251423759" stroke-miterlimit="10"></path></g><g transform="translate(-165,-14) scale(1,1)"><g><path fill="none" stroke="none"></path><text fill="#000000" stroke="none" font-family="Arial" font-size="13px" font-style="normal" font-weight="normal" text-decoration="none" x="174.5" y="523.5">+es realizada por</text></g></g><g transform="translate(-165,-14) scale(1,1)"><g><path fill="none" stroke="none"></path><text fill="#000000" stroke="none" font-family="Arial" font-size="13px" font-style="normal" font-weight="normal" text-decoration="none" x="262.5" y="548.5">1..*</text></g></g><g transform="translate(-165,-14) scale(1,1)"><path fill="none" stroke="#000000" d="M 304 604 L 304 656" stroke-miterlimit="10"></path></g><g transform="translate(-165,-14) scale(1,1)"><path fill="none" stroke="#000000" d="M 299.790482243984 645.8373251423759 L 304 656 L 308.209517756016 645.8373251423759" stroke-miterlimit="10"></path></g><g transform="translate(-165,-14) scale(1,1)"><g><path fill="none" stroke="none"></path><text fill="#000000" stroke="none" font-family="Arial" font-size="13px" font-style="normal" font-weight="normal" text-decoration="none" x="309.5" y="636.5">+produce</text></g></g><g transform="translate(-165,-14) scale(1,1)"><g><path fill="none" stroke="none"></path><text fill="#000000" stroke="none" font-family="Arial" font-size="13px" font-style="normal" font-weight="normal" text-decoration="none" x="269.5" y="652.5">1..*</text></g></g><g transform="translate(-165,-14) scale(1,1)"><path fill="none" stroke="#000000" d="M 496 224 L 496 163" stroke-miterlimit="10"></path></g><g transform="translate(-165,-14) scale(1,1)"><path fill="#000000" stroke="none" d="M 500.209517756016 173.16267485762415 L 496 163 L 491.790482243984 173.16267485762415 L 496 185"></path></g><g transform="translate(-165,-14) scale(1,1)"><path fill="none" stroke="#000000" d="M 500.209517756016 173.16267485762415 L 496 163 L 491.790482243984 173.16267485762415 L 496 185 L 500.209517756016 173.16267485762415" stroke-miterlimit="10"></path></g><g transform="translate(-165,-14) scale(1,1)"><g><path fill="none" stroke="none"></path><text fill="#000000" stroke="none" font-family="Arial" font-size="13px" font-style="normal" font-weight="normal" text-decoration="none" x="497.5" y="208.5">1..*</text></g></g><g transform="translate(-165,-14) scale(1,1)"><rect fill="#C0C0C0" stroke="none" x="495" y="615" width="136" height="80" opacity="0.2"></rect></g><g transform="translate(-165,-14) scale(1,1)"><rect fill="#ffffff" stroke="none" x="488" y="608" width="136" height="80"></rect></g><g transform="translate(-165,-14) scale(1,1)"><path fill="none" stroke="#000000" d="M 488 608 L 624 608 L 624 688 L 488 688 L 488 608 Z Z" stroke-miterlimit="10"></path></g><g transform="translate(-165,-14) scale(1,1)"><path fill="#ffffff" stroke="none" d="M 603.1425454545455 617.5799999999999 C 603.1425454545455 615.602820416 604.8695864878546 614 607 614 C 609.1304135121454 614 610.8574545454546 615.602820416 610.8574545454546 617.5799999999999 C 610.8574545454546 619.5571795839999 609.1304135121454 621.16 607 621.16 C 604.8695864878546 621.16 603.1425454545455 619.5571795839999 603.1425454545455 617.5799999999999 Z"></path></g><g transform="translate(-165,-14) scale(1,1)"><path fill="none" stroke="#000000" d="M 603.1425454545455 617.5799999999999 C 603.1425454545455 615.602820416 604.8695864878546 614 607 614 C 609.1304135121454 614 610.8574545454546 615.602820416 610.8574545454546 617.5799999999999 C 610.8574545454546 619.5571795839999 609.1304135121454 621.16 607 621.16 C 604.8695864878546 621.16 603.1425454545455 619.5571795839999 603.1425454545455 617.5799999999999 Z" stroke-miterlimit="10"></path></g><g transform="translate(-165,-14) scale(1,1)"><path fill="none" stroke="#000000" d="M 607 621.16 L 607 628.84" stroke-miterlimit="10"></path></g><g transform="translate(-165,-14) scale(1,1)"><path fill="none" stroke="#000000" d="M 602.9156363636364 624.04 L 611.0843636363637 624.04" stroke-miterlimit="10"></path></g><g transform="translate(-165,-14) scale(1,1)"><path fill="none" stroke="#000000" d="M 607 628.84 L 601.3272727272728 636" stroke-miterlimit="10"></path></g><g transform="translate(-165,-14) scale(1,1)"><path fill="none" stroke="#000000" d="M 607 628.84 L 612.6727272727273 636" stroke-miterlimit="10"></path></g><g transform="translate(-165,-14) scale(1,1)"><g><path fill="none" stroke="none"></path><text fill="#000000" stroke="none" font-family="Arial" font-size="13px" font-style="normal" font-weight="bold" text-decoration="none" x="500" y="627.5">Persona Física</text></g></g><g transform="translate(-165,-14) scale(1,1)"><g><path fill="none" stroke="none"></path><text fill="#000000" stroke="none" font-family="Arial" font-size="13px" font-style="normal" font-weight="normal" text-decoration="none" x="499" y="642.5">(from Proyecto)</text></g></g><g transform="translate(-165,-14) scale(1,1)"><path fill="none" stroke="#000000" d="M 572 607 Q 584 576 369 580" stroke-miterlimit="10"></path></g><g transform="translate(-165,-14) scale(1,1)"><path fill="none" stroke="#000000" d="M 379.08261343633654 575.6021702746234 L 369 580 L 379.2392195542337 584.0197491115986" stroke-miterlimit="10"></path></g><g transform="translate(-165,-14) scale(1,1)"><g><path fill="none" stroke="none"></path><text fill="#000000" stroke="none" font-family="Arial" font-size="13px" font-style="normal" font-weight="normal" text-decoration="none" x="556.5" y="571.5">+trabaja en</text></g></g><g transform="translate(-165,-14) scale(1,1)"><path fill="none" stroke="#000000" d="M 487 656 L 377 669" stroke-miterlimit="10"></path></g><g transform="translate(-165,-14) scale(1,1)"><path fill="none" stroke="#000000" d="M 386.59838875622773 663.6268320997459 L 377 669 L 387.5864892367169 671.9876823192698" stroke-miterlimit="10"></path></g><g transform="translate(-165,-14) scale(1,1)"><g><path fill="none" stroke="none"></path><text fill="#000000" stroke="none" font-family="Arial" font-size="13px" font-style="normal" font-weight="normal" text-decoration="none" x="407.5" y="682.5">+produce</text></g></g><g transform="translate(-165,-14) scale(1,1)"><path fill="none" stroke="#000000" d="M 352 559 Q 448 520 513 473" stroke-miterlimit="10"></path></g><g transform="translate(-165,-14) scale(1,1)"><path fill="none" stroke="#000000" d="M 507.2312213806447 482.3659592803337 L 513 473 L 502.29812419964884 475.543590838531" stroke-miterlimit="10"></path></g><g transform="translate(-165,-14) scale(1,1)"><g><path fill="none" stroke="none"></path><text fill="#000000" stroke="none" font-family="Arial" font-size="13px" font-style="normal" font-weight="normal" text-decoration="none" x="447.5" y="531.5">+justifica</text></g></g></g></svg>