<svg version="1.1" xmlns="http://www.w3.org/2000/svg" xmlns:xlink="http://www.w3.org/1999/xlink" width="524" height="444"><defs/><g><text fill="#eeeeee" stroke="none" font-family="Arial" font-size="24px" font-style="normal" font-weight="normal" text-decoration="none" x="0" y="0">UNREGISTERED</text><text fill="#eeeeee" stroke="none" font-family="Arial" font-size="24px" font-style="normal" font-weight="normal" text-decoration="none" x="0" y="30">UNREGISTERED</text><text fill="#eeeeee" stroke="none" font-family="Arial" font-size="24px" font-style="normal" font-weight="normal" text-decoration="none" x="0" y="60">UNREGISTERED</text><text fill="#eeeeee" stroke="none" font-family="Arial" font-size="24px" font-style="normal" font-weight="normal" text-decoration="none" x="0" y="90">UNREGISTERED</text><text fill="#eeeeee" stroke="none" font-family="Arial" font-size="24px" font-style="normal" font-weight="normal" text-decoration="none" x="0" y="120">UNREGISTERED</text><text fill="#eeeeee" stroke="none" font-family="Arial" font-size="24px" font-style="normal" font-weight="normal" text-decoration="none" x="0" y="150">UNREGISTERED</text><text fill="#eeeeee" stroke="none" font-family="Arial" font-size="24px" font-style="normal" font-weight="normal" text-decoration="none" x="0" y="180">UNREGISTERED</text><text fill="#eeeeee" stroke="none" font-family="Arial" font-size="24px" font-style="normal" font-weight="normal" text-decoration="none" x="0" y="210">UNREGISTERED</text><text fill="#eeeeee" stroke="none" font-family="Arial" font-size="24px" font-style="normal" font-weight="normal" text-decoration="none" x="0" y="240">UNREGISTERED</text><text fill="#eeeeee" stroke="none" font-family="Arial" font-size="24px" font-style="normal" font-weight="normal" text-decoration="none" x="0" y="270">UNREGISTERED</text><text fill="#eeeeee" stroke="none" font-family="Arial" font-size="24px" font-style="normal" font-weight="normal" text-decoration="none" x="0" y="300">UNREGISTERED</text><text fill="#eeeeee" stroke="none" font-family="Arial" font-size="24px" font-style="normal" font-weight="normal" text-decoration="none" x="0" y="330">UNREGISTERED</text><text fill="#eeeeee" stroke="none" font-family="Arial" font-size="24px" font-style="normal" font-weight="normal" text-decoration="none" x="0" y="360">UNREGISTERED</text><text fill="#eeeeee" stroke="none" font-family="Arial" font-size="24px" font-style="normal" font-weight="normal" text-decoration="none" x="0" y="390">UNREGISTERED</text><text fill="#eeeeee" stroke="none" font-family="Arial" font-size="24px" font-style="normal" font-weight="normal" text-decoration="none" x="0" y="420">UNREGISTERED</text><text fill="#eeeeee" stroke="none" font-family="Arial" font-size="24px" font-style="normal" font-weight="normal" text-decoration="none" x="200" y="0">UNREGISTERED</text><text fill="#eeeeee" stroke="none" font-family="Arial" font-size="24px" font-style="normal" font-weight="normal" text-decoration="none" x="200" y="30">UNREGISTERED</text><text fill="#eeeeee" stroke="none" font-family="Arial" font-size="24px" font-style="normal" font-weight="normal" text-decoration="none" x="200" y="60">UNREGISTERED</text><text fill="#eeeeee" stroke="none" font-family="Arial" font-size="24px" font-style="normal" font-weight="normal" text-decoration="none" x="200" y="90">UNREGISTERED</text><text fill="#eeeeee" stroke="none" font-family="Arial" font-size="24px" font-style="normal" font-weight="normal" text-decoration="none" x="200" y="120">UNREGISTERED</text><text fill="#eeeeee" stroke="none" font-family="Arial" font-size="24px" font-style="normal" font-weight="normal" text-decoration="none" x="200" y="150">UNREGISTERED</text><text fill="#eeeeee" stroke="none" font-family="Arial" font-size="24px" font-style="normal" font-weight="normal" text-decoration="none" x="200" y="180">UNREGISTERED</text><text fill="#eeeeee" stroke="none" font-family="Arial" font-size="24px" font-style="normal" font-weight="normal" text-decoration="none" x="200" y="210">UNREGISTERED</text><text fill="#eeeeee" stroke="none" font-family="Arial" font-size="24px" font-style="normal" font-weight="normal" text-decoration="none" x="200" y="240">UNREGISTERED</text><text fill="#eeeeee" stroke="none" font-family="Arial" font-size="24px" font-style="normal" font-weight="normal" text-decoration="none" x="200" y="270">UNREGISTERED</text><text fill="#eeeeee" stroke="none" font-family="Arial" font-size="24px" font-style="normal" font-weight="normal" text-decoration="none" x="200" y="300">UNREGISTERED</text><text fill="#eeeeee" stroke="none" font-family="Arial" font-size="24px" font-style="normal" font-weight="normal" text-decoration="none" x="200" y="330">UNREGISTERED</text><text fill="#eeeeee" stroke="none" font-family="Arial" font-size="24px" font-style="normal" font-weight="normal" text-decoration="none" x="200" y="360">UNREGISTERED</text><text fill="#eeeeee" stroke="none" font-family="Arial" font-size="24px" font-style="normal" font-weight="normal" text-decoration="none" x="200" y="390">UNREGISTERED</text><text fill="#eeeeee" stroke="none" font-family="Arial" font-size="24px" font-style="normal" font-weight="normal" text-decoration="none" x="200" y="420">UNREGISTERED</text><text fill="#eeeeee" stroke="none" font-family="Arial" font-size="24px" font-style="normal" font-weight="normal" text-decoration="none" x="400" y="0">UNREGISTERED</text><text fill="#eeeeee" stroke="none" font-family="Arial" font-size="24px" font-style="normal" font-weight="normal" text-decoration="none" x="400" y="30">UNREGISTERED</text><text fill="#eeeeee" stroke="none" font-family="Arial" font-size="24px" font-style="normal" font-weight="normal" text-decoration="none" x="400" y="60">UNREGISTERED</text><text fill="#eeeeee" stroke="none" font-family="Arial" font-size="24px" font-style="normal" font-weight="normal" text-decoration="none" x="400" y="90">UNREGISTERED</text><text fill="#eeeeee" stroke="none" font-family="Arial" font-size="24px" font-style="normal" font-weight="normal" text-decoration="none" x="400" y="120">UNREGISTERED</text><text fill="#eeeeee" stroke="none" font-family="Arial" font-size="24px" font-style="normal" font-weight="normal" text-decoration="none" x="400" y="150">UNREGISTERED</text><text fill="#eeeeee" stroke="none" font-family="Arial" font-size="24px" font-style="normal" font-weight="normal" text-decoration="none" x="400" y="180">UNREGISTERED</text><text fill="#eeeeee" stroke="none" font-family="Arial" font-size="24px" font-style="normal" font-weight="normal" text-decoration="none" x="400" y="210">UNREGISTERED</text><text fill="#eeeeee" stroke="none" font-family="Arial" font-size="24px" font-style="normal" font-weight="normal" text-decoration="none" x="400" y="240">UNREGISTERED</text><text fill="#eeeeee" stroke="none" font-family="Arial" font-size="24px" font-style="normal" font-weight="normal" text-decoration="none" x="400" y="270">UNREGISTERED</text><text fill="#eeeeee" stroke="none" font-family="Arial" font-size="24px" font-style="normal" font-weight="normal" text-decoration="none" x="400" y="300">UNREGISTERED</text><text fill="#eeeeee" stroke="none" font-family="Arial" font-size="24px" font-style="normal" font-weight="normal" text-decoration="none" x="400" y="330">UNREGISTERED</text><text fill="#eeeeee" stroke="none" font-family="Arial" font-size="24px" font-style="normal" font-weight="normal" text-decoration="none" x="400" y="360">UNREGISTERED</text><text fill="#eeeeee" stroke="none" font-family="Arial" font-size="24px" font-style="normal" font-weight="normal" text-decoration="none" x="400" y="390">UNREGISTERED</text><text fill="#eeeeee" stroke="none" font-family="Arial" font-size="24px" font-style="normal" font-weight="normal" text-decoration="none" x="400" y="420">UNREGISTERED</text><g transform="translate(-54,-638) scale(1,1)"><rect fill="#C0C0C0" stroke="none" x="247" y="655" width="152" height="64" opacity="0.2"/></g><g transform="translate(-54,-638) scale(1,1)"><rect fill="#ffffff" stroke="none" x="240" y="648" width="152" height="64"/></g><g transform="translate(-54,-638) scale(1,1)"><path fill="none" stroke="#000000" d="M 240 648 L 392 648 L 392 712 L 240 712 L 240 648 Z Z" stroke-miterlimit="10"/></g><g transform="translate(-54,-638) scale(1,1)"><path fill="none" stroke="#000000" d="M 240 673 L 392 673" stroke-miterlimit="10"/></g><g transform="translate(-54,-638) scale(1,1)"><g><path fill="none" stroke="none"/><text fill="#000000" stroke="none" font-family="Arial" font-size="13px" font-style="normal" font-weight="bold" text-decoration="none" x="299.013671875" y="667.5">Etapa</text></g></g><g transform="translate(-54,-638) scale(1,1)"><g><path fill="none" stroke="none"/><text fill="#000000" stroke="none" font-family="Arial" font-size="13px" font-style="normal" font-weight="normal" text-decoration="none" x="245" y="690.5">+importe</text></g></g><g transform="translate(-54,-638) scale(1,1)"><rect fill="#C0C0C0" stroke="none" x="463" y="895" width="112" height="32" opacity="0.2"/></g><g transform="translate(-54,-638) scale(1,1)"><rect fill="#ffffff" stroke="none" x="456" y="888" width="112" height="32"/></g><g transform="translate(-54,-638) scale(1,1)"><path fill="none" stroke="#000000" d="M 456 888 L 568 888 L 568 920 L 456 920 L 456 888 Z Z" stroke-miterlimit="10"/></g><g transform="translate(-54,-638) scale(1,1)"><g><path fill="none" stroke="none"/><text fill="#000000" stroke="none" font-family="Arial" font-size="13px" font-style="normal" font-weight="bold" text-decoration="none" x="494.29638671875" y="907.5">Rubro</text></g></g><g transform="translate(-54,-638) scale(1,1)"><path fill="none" stroke="#000000" d="M 360 855 L 360 896 M 360 896 A 8 8 0 0 0 368 904 L 456 904" stroke-miterlimit="10"/></g><g transform="translate(-54,-638) scale(1,1)"><g><path fill="none" stroke="none"/><text fill="#000000" stroke="none" font-family="Arial" font-size="13px" font-style="normal" font-weight="normal" text-decoration="none" x="337.5" y="882.5">1..*</text></g></g><g transform="translate(-54,-638) scale(1,1)"><g><path fill="none" stroke="none"/><text fill="#000000" stroke="none" font-family="Arial" font-size="13px" font-style="normal" font-weight="normal" text-decoration="none" x="430.641357421875" y="922.5">1</text></g></g><g transform="translate(-54,-638) scale(1,1)"><rect fill="#C0C0C0" stroke="none" x="71" y="807" width="110.61328125" height="44" opacity="0.2"/></g><g transform="translate(-54,-638) scale(1,1)"><rect fill="#ffffff" stroke="none" x="64" y="800" width="110.61328125" height="44"/></g><g transform="translate(-54,-638) scale(1,1)"><path fill="none" stroke="#000000" d="M 64 800 L 174.61328125 800 L 174.61328125 844 L 64 844 L 64 800 Z Z" stroke-miterlimit="10"/></g><g transform="translate(-54,-638) scale(1,1)"><g><path fill="none" stroke="none"/><text fill="#000000" stroke="none" font-family="Arial" font-size="13px" font-style="normal" font-weight="bold" text-decoration="none" x="97.867431640625" y="819.5">Tipo de</text><text fill="#000000" stroke="none" font-family="Arial" font-size="13px" font-style="normal" font-weight="bold" text-decoration="none" x="95.10302734375" y="832.5">Recurso</text></g></g><g transform="translate(-54,-638) scale(1,1)"><rect fill="#C0C0C0" stroke="none" x="463" y="815" width="112" height="40" opacity="0.2"/></g><g transform="translate(-54,-638) scale(1,1)"><rect fill="#ffffff" stroke="none" x="456" y="808" width="112" height="40"/></g><g transform="translate(-54,-638) scale(1,1)"><path fill="none" stroke="#000000" d="M 456 808 L 568 808 L 568 848 L 456 848 L 456 808 Z Z" stroke-miterlimit="10"/></g><g transform="translate(-54,-638) scale(1,1)"><g><path fill="none" stroke="none"/><text fill="#000000" stroke="none" font-family="Arial" font-size="13px" font-style="normal" font-weight="bold" text-decoration="none" x="473.33642578125" y="827.5">Categoria del</text><text fill="#000000" stroke="none" font-family="Arial" font-size="13px" font-style="normal" font-weight="bold" text-decoration="none" x="487.79638671875" y="840.5">Recurso</text></g></g><g transform="translate(-54,-638) scale(1,1)"><rect fill="#C0C0C0" stroke="none" x="255" y="807" width="136" height="55" opacity="0.2"/></g><g transform="translate(-54,-638) scale(1,1)"><rect fill="#ffffff" stroke="none" x="248" y="800" width="136" height="55"/></g><g transform="translate(-54,-638) scale(1,1)"><path fill="none" stroke="#000000" d="M 248 800 L 384 800 L 384 855 L 248 855 L 248 800 Z Z" stroke-miterlimit="10"/></g><g transform="translate(-54,-638) scale(1,1)"><path fill="none" stroke="#000000" d="M 248 825 L 384 825" stroke-miterlimit="10"/></g><g transform="translate(-54,-638) scale(1,1)"><g><path fill="none" stroke="none"/><text fill="#000000" stroke="none" font-family="Arial" font-size="13px" font-style="normal" font-weight="bold" text-decoration="none" x="291.79638671875" y="819.5">Recurso</text></g></g><g transform="translate(-54,-638) scale(1,1)"><g><path fill="none" stroke="none"/><text fill="#000000" stroke="none" font-family="Arial" font-size="13px" font-style="normal" font-weight="normal" text-decoration="none" x="253" y="842.5">+importe</text></g></g><g transform="translate(-54,-638) scale(1,1)"><path fill="none" stroke="#000000" d="M 314 712 L 314 800" stroke-miterlimit="10"/></g><g transform="translate(-54,-638) scale(1,1)"><path fill="none" stroke="#000000" d="M 309.790482243984 789.8373251423759 L 314 800 L 318.209517756016 789.8373251423759" stroke-miterlimit="10"/></g><g transform="translate(-54,-638) scale(1,1)"><g><path fill="none" stroke="none"/><text fill="#000000" stroke="none" font-family="Arial" font-size="13px" font-style="normal" font-weight="normal" text-decoration="none" x="291.5" y="784.5">1..*</text></g></g><g transform="translate(-54,-638) scale(1,1)"><path fill="none" stroke="#000000" d="M 248 824 L 175 824" stroke-miterlimit="10"/></g><g transform="translate(-54,-638) scale(1,1)"><path fill="none" stroke="#000000" d="M 185.16267485762415 819.790482243984 L 175 824 L 185.16267485762415 828.209517756016" stroke-miterlimit="10"/></g><g transform="translate(-54,-638) scale(1,1)"><path fill="none" stroke="#000000" d="M 384 824 L 456 824" stroke-miterlimit="10"/></g><g transform="translate(-54,-638) scale(1,1)"><path fill="none" stroke="#000000" d="M 445.83732514237585 828.209517756016 L 456 824 L 445.83732514237585 819.790482243984" stroke-miterlimit="10"/></g><g transform="translate(-54,-638) scale(1,1)"><path fill="none" stroke="#000000" d="M 509 888 L 509 848" stroke-miterlimit="10"/></g><g transform="translate(-54,-638) scale(1,1)"><path fill="#000000" stroke="none" d="M 513.209517756016 858.1626748576241 L 509 848 L 504.790482243984 858.1626748576241 L 509 870"/></g><g transform="translate(-54,-638) scale(1,1)"><path fill="none" stroke="#000000" d="M 513.209517756016 858.1626748576241 L 509 848 L 504.790482243984 858.1626748576241 L 509 870 L 513.209517756016 858.1626748576241" stroke-miterlimit="10"/></g><g transform="translate(-54,-638) scale(1,1)"><rect fill="#C0C0C0" stroke="none" x="263" y="959" width="109" height="120" opacity="0.2"/></g><g transform="translate(-54,-638) scale(1,1)"><rect fill="#ffffff" stroke="none" x="256" y="952" width="109" height="120"/></g><g transform="translate(-54,-638) scale(1,1)"><path fill="none" stroke="#000000" d="M 256 952 L 365 952 L 365 1072 L 256 1072 L 256 952 Z Z" stroke-miterlimit="10"/></g><g transform="translate(-54,-638) scale(1,1)"><path fill="#ffffff" stroke="none" d="M 344.1425454545454 961.5799999999999 C 344.1425454545454 959.602820416 345.8695864878545 958 348 958 C 350.1304135121455 958 351.8574545454546 959.602820416 351.8574545454546 961.5799999999999 C 351.8574545454546 963.5571795839999 350.1304135121455 965.16 348 965.16 C 345.8695864878545 965.16 344.1425454545454 963.5571795839999 344.1425454545454 961.5799999999999 Z"/></g><g transform="translate(-54,-638) scale(1,1)"><path fill="none" stroke="#000000" d="M 344.1425454545454 961.5799999999999 C 344.1425454545454 959.602820416 345.8695864878545 958 348 958 C 350.1304135121455 958 351.8574545454546 959.602820416 351.8574545454546 961.5799999999999 C 351.8574545454546 963.5571795839999 350.1304135121455 965.16 348 965.16 C 345.8695864878545 965.16 344.1425454545454 963.5571795839999 344.1425454545454 961.5799999999999 Z" stroke-miterlimit="10"/></g><g transform="translate(-54,-638) scale(1,1)"><path fill="none" stroke="#000000" d="M 348 965.16 L 348 972.84" stroke-miterlimit="10"/></g><g transform="translate(-54,-638) scale(1,1)"><path fill="none" stroke="#000000" d="M 343.91563636363634 968.04 L 352.08436363636366 968.04" stroke-miterlimit="10"/></g><g transform="translate(-54,-638) scale(1,1)"><path fill="none" stroke="#000000" d="M 348 972.84 L 342.3272727272727 980" stroke-miterlimit="10"/></g><g transform="translate(-54,-638) scale(1,1)"><path fill="none" stroke="#000000" d="M 348 972.84 L 353.6727272727273 980" stroke-miterlimit="10"/></g><g transform="translate(-54,-638) scale(1,1)"><g><path fill="none" stroke="none"/><text fill="#000000" stroke="none" font-family="Arial" font-size="13px" font-style="normal" font-weight="bold" text-decoration="none" x="269.234130859375" y="971.5">Institución</text></g></g><g transform="translate(-54,-638) scale(1,1)"><path fill="none" stroke="#000000" d="M 311 855 L 311 952" stroke-miterlimit="10"/></g><g transform="translate(-54,-638) scale(1,1)"><path fill="none" stroke="#000000" d="M 306.790482243984 941.8373251423759 L 311 952 L 315.209517756016 941.8373251423759" stroke-miterlimit="10"/></g><g transform="translate(-54,-638) scale(1,1)"><g><path fill="none" stroke="none"/><text fill="#000000" stroke="none" font-family="Arial" font-size="13px" font-style="normal" font-weight="normal" text-decoration="none" x="288.5" y="882.5">1..*</text></g></g><g transform="translate(-54,-638) scale(1,1)"><g><path fill="none" stroke="none"/><text fill="#000000" stroke="none" font-family="Arial" font-size="13px" font-style="normal" font-weight="normal" text-decoration="none" x="294.5" y="936.5">1</text></g></g><g transform="translate(-54,-638) scale(1,1)"><rect fill="#C0C0C0" stroke="none" x="463" y="727" width="88.46630859375" height="44" opacity="0.2"/></g><g transform="translate(-54,-638) scale(1,1)"><rect fill="#ffffff" stroke="none" x="456" y="720" width="88.46630859375" height="44"/></g><g transform="translate(-54,-638) scale(1,1)"><path fill="none" stroke="#000000" d="M 456 720 L 544.46630859375 720 L 544.46630859375 764 L 456 764 L 456 720 Z Z" stroke-miterlimit="10"/></g><g transform="translate(-54,-638) scale(1,1)"><g><path fill="none" stroke="none"/><text fill="#000000" stroke="none" font-family="Arial" font-size="13px" font-style="normal" font-weight="bold" text-decoration="none" x="464.8291015625" y="739.5">Justificación</text></g></g><g transform="translate(-54,-638) scale(1,1)"><path fill="none" stroke="#000000" d="M 377 799 L 455 763" stroke-miterlimit="10"/></g><g transform="translate(-54,-638) scale(1,1)"><path fill="none" stroke="#000000" d="M 447.53673683022225 771.0808231547683 L 455 763 L 444.00867115256443 763.4366808531763" stroke-miterlimit="10"/></g></g></svg>