<svg version="1.1" xmlns="http://www.w3.org/2000/svg" xmlns:xlink="http://www.w3.org/1999/xlink" width="715.20166015625" height="740"><defs/><g><text fill="#eeeeee" stroke="none" font-family="Arial" font-size="24px" font-style="normal" font-weight="normal" text-decoration="none" x="0" y="0">UNREGISTERED</text><text fill="#eeeeee" stroke="none" font-family="Arial" font-size="24px" font-style="normal" font-weight="normal" text-decoration="none" x="0" y="30">UNREGISTERED</text><text fill="#eeeeee" stroke="none" font-family="Arial" font-size="24px" font-style="normal" font-weight="normal" text-decoration="none" x="0" y="60">UNREGISTERED</text><text fill="#eeeeee" stroke="none" font-family="Arial" font-size="24px" font-style="normal" font-weight="normal" text-decoration="none" x="0" y="90">UNREGISTERED</text><text fill="#eeeeee" stroke="none" font-family="Arial" font-size="24px" font-style="normal" font-weight="normal" text-decoration="none" x="0" y="120">UNREGISTERED</text><text fill="#eeeeee" stroke="none" font-family="Arial" font-size="24px" font-style="normal" font-weight="normal" text-decoration="none" x="0" y="150">UNREGISTERED</text><text fill="#eeeeee" stroke="none" font-family="Arial" font-size="24px" font-style="normal" font-weight="normal" text-decoration="none" x="0" y="180">UNREGISTERED</text><text fill="#eeeeee" stroke="none" font-family="Arial" font-size="24px" font-style="normal" font-weight="normal" text-decoration="none" x="0" y="210">UNREGISTERED</text><text fill="#eeeeee" stroke="none" font-family="Arial" font-size="24px" font-style="normal" font-weight="normal" text-decoration="none" x="0" y="240">UNREGISTERED</text><text fill="#eeeeee" stroke="none" font-family="Arial" font-size="24px" font-style="normal" font-weight="normal" text-decoration="none" x="0" y="270">UNREGISTERED</text><text fill="#eeeeee" stroke="none" font-family="Arial" font-size="24px" font-style="normal" font-weight="normal" text-decoration="none" x="0" y="300">UNREGISTERED</text><text fill="#eeeeee" stroke="none" font-family="Arial" font-size="24px" font-style="normal" font-weight="normal" text-decoration="none" x="0" y="330">UNREGISTERED</text><text fill="#eeeeee" stroke="none" font-family="Arial" font-size="24px" font-style="normal" font-weight="normal" text-decoration="none" x="0" y="360">UNREGISTERED</text><text fill="#eeeeee" stroke="none" font-family="Arial" font-size="24px" font-style="normal" font-weight="normal" text-decoration="none" x="0" y="390">UNREGISTERED</text><text fill="#eeeeee" stroke="none" font-family="Arial" font-size="24px" font-style="normal" font-weight="normal" text-decoration="none" x="0" y="420">UNREGISTERED</text><text fill="#eeeeee" stroke="none" font-family="Arial" font-size="24px" font-style="normal" font-weight="normal" text-decoration="none" x="0" y="450">UNREGISTERED</text><text fill="#eeeeee" stroke="none" font-family="Arial" font-size="24px" font-style="normal" font-weight="normal" text-decoration="none" x="0" y="480">UNREGISTERED</text><text fill="#eeeeee" stroke="none" font-family="Arial" font-size="24px" font-style="normal" font-weight="normal" text-decoration="none" x="0" y="510">UNREGISTERED</text><text fill="#eeeeee" stroke="none" font-family="Arial" font-size="24px" font-style="normal" font-weight="normal" text-decoration="none" x="0" y="540">UNREGISTERED</text><text fill="#eeeeee" stroke="none" font-family="Arial" font-size="24px" font-style="normal" font-weight="normal" text-decoration="none" x="0" y="570">UNREGISTERED</text><text fill="#eeeeee" stroke="none" font-family="Arial" font-size="24px" font-style="normal" font-weight="normal" text-decoration="none" x="0" y="600">UNREGISTERED</text><text fill="#eeeeee" stroke="none" font-family="Arial" font-size="24px" font-style="normal" font-weight="normal" text-decoration="none" x="0" y="630">UNREGISTERED</text><text fill="#eeeeee" stroke="none" font-family="Arial" font-size="24px" font-style="normal" font-weight="normal" text-decoration="none" x="0" y="660">UNREGISTERED</text><text fill="#eeeeee" stroke="none" font-family="Arial" font-size="24px" font-style="normal" font-weight="normal" text-decoration="none" x="0" y="690">UNREGISTERED</text><text fill="#eeeeee" stroke="none" font-family="Arial" font-size="24px" font-style="normal" font-weight="normal" text-decoration="none" x="0" y="720">UNREGISTERED</text><text fill="#eeeeee" stroke="none" font-family="Arial" font-size="24px" font-style="normal" font-weight="normal" text-decoration="none" x="200" y="0">UNREGISTERED</text><text fill="#eeeeee" stroke="none" font-family="Arial" font-size="24px" font-style="normal" font-weight="normal" text-decoration="none" x="200" y="30">UNREGISTERED</text><text fill="#eeeeee" stroke="none" font-family="Arial" font-size="24px" font-style="normal" font-weight="normal" text-decoration="none" x="200" y="60">UNREGISTERED</text><text fill="#eeeeee" stroke="none" font-family="Arial" font-size="24px" font-style="normal" font-weight="normal" text-decoration="none" x="200" y="90">UNREGISTERED</text><text fill="#eeeeee" stroke="none" font-family="Arial" font-size="24px" font-style="normal" font-weight="normal" text-decoration="none" x="200" y="120">UNREGISTERED</text><text fill="#eeeeee" stroke="none" font-family="Arial" font-size="24px" font-style="normal" font-weight="normal" text-decoration="none" x="200" y="150">UNREGISTERED</text><text fill="#eeeeee" stroke="none" font-family="Arial" font-size="24px" font-style="normal" font-weight="normal" text-decoration="none" x="200" y="180">UNREGISTERED</text><text fill="#eeeeee" stroke="none" font-family="Arial" font-size="24px" font-style="normal" font-weight="normal" text-decoration="none" x="200" y="210">UNREGISTERED</text><text fill="#eeeeee" stroke="none" font-family="Arial" font-size="24px" font-style="normal" font-weight="normal" text-decoration="none" x="200" y="240">UNREGISTERED</text><text fill="#eeeeee" stroke="none" font-family="Arial" font-size="24px" font-style="normal" font-weight="normal" text-decoration="none" x="200" y="270">UNREGISTERED</text><text fill="#eeeeee" stroke="none" font-family="Arial" font-size="24px" font-style="normal" font-weight="normal" text-decoration="none" x="200" y="300">UNREGISTERED</text><text fill="#eeeeee" stroke="none" font-family="Arial" font-size="24px" font-style="normal" font-weight="normal" text-decoration="none" x="200" y="330">UNREGISTERED</text><text fill="#eeeeee" stroke="none" font-family="Arial" font-size="24px" font-style="normal" font-weight="normal" text-decoration="none" x="200" y="360">UNREGISTERED</text><text fill="#eeeeee" stroke="none" font-family="Arial" font-size="24px" font-style="normal" font-weight="normal" text-decoration="none" x="200" y="390">UNREGISTERED</text><text fill="#eeeeee" stroke="none" font-family="Arial" font-size="24px" font-style="normal" font-weight="normal" text-decoration="none" x="200" y="420">UNREGISTERED</text><text fill="#eeeeee" stroke="none" font-family="Arial" font-size="24px" font-style="normal" font-weight="normal" text-decoration="none" x="200" y="450">UNREGISTERED</text><text fill="#eeeeee" stroke="none" font-family="Arial" font-size="24px" font-style="normal" font-weight="normal" text-decoration="none" x="200" y="480">UNREGISTERED</text><text fill="#eeeeee" stroke="none" font-family="Arial" font-size="24px" font-style="normal" font-weight="normal" text-decoration="none" x="200" y="510">UNREGISTERED</text><text fill="#eeeeee" stroke="none" font-family="Arial" font-size="24px" font-style="normal" font-weight="normal" text-decoration="none" x="200" y="540">UNREGISTERED</text><text fill="#eeeeee" stroke="none" font-family="Arial" font-size="24px" font-style="normal" font-weight="normal" text-decoration="none" x="200" y="570">UNREGISTERED</text><text fill="#eeeeee" stroke="none" font-family="Arial" font-size="24px" font-style="normal" font-weight="normal" text-decoration="none" x="200" y="600">UNREGISTERED</text><text fill="#eeeeee" stroke="none" font-family="Arial" font-size="24px" font-style="normal" font-weight="normal" text-decoration="none" x="200" y="630">UNREGISTERED</text><text fill="#eeeeee" stroke="none" font-family="Arial" font-size="24px" font-style="normal" font-weight="normal" text-decoration="none" x="200" y="660">UNREGISTERED</text><text fill="#eeeeee" stroke="none" font-family="Arial" font-size="24px" font-style="normal" font-weight="normal" text-decoration="none" x="200" y="690">UNREGISTERED</text><text fill="#eeeeee" stroke="none" font-family="Arial" font-size="24px" font-style="normal" font-weight="normal" text-decoration="none" x="200" y="720">UNREGISTERED</text><text fill="#eeeeee" stroke="none" font-family="Arial" font-size="24px" font-style="normal" font-weight="normal" text-decoration="none" x="400" y="0">UNREGISTERED</text><text fill="#eeeeee" stroke="none" font-family="Arial" font-size="24px" font-style="normal" font-weight="normal" text-decoration="none" x="400" y="30">UNREGISTERED</text><text fill="#eeeeee" stroke="none" font-family="Arial" font-size="24px" font-style="normal" font-weight="normal" text-decoration="none" x="400" y="60">UNREGISTERED</text><text fill="#eeeeee" stroke="none" font-family="Arial" font-size="24px" font-style="normal" font-weight="normal" text-decoration="none" x="400" y="90">UNREGISTERED</text><text fill="#eeeeee" stroke="none" font-family="Arial" font-size="24px" font-style="normal" font-weight="normal" text-decoration="none" x="400" y="120">UNREGISTERED</text><text fill="#eeeeee" stroke="none" font-family="Arial" font-size="24px" font-style="normal" font-weight="normal" text-decoration="none" x="400" y="150">UNREGISTERED</text><text fill="#eeeeee" stroke="none" font-family="Arial" font-size="24px" font-style="normal" font-weight="normal" text-decoration="none" x="400" y="180">UNREGISTERED</text><text fill="#eeeeee" stroke="none" font-family="Arial" font-size="24px" font-style="normal" font-weight="normal" text-decoration="none" x="400" y="210">UNREGISTERED</text><text fill="#eeeeee" stroke="none" font-family="Arial" font-size="24px" font-style="normal" font-weight="normal" text-decoration="none" x="400" y="240">UNREGISTERED</text><text fill="#eeeeee" stroke="none" font-family="Arial" font-size="24px" font-style="normal" font-weight="normal" text-decoration="none" x="400" y="270">UNREGISTERED</text><text fill="#eeeeee" stroke="none" font-family="Arial" font-size="24px" font-style="normal" font-weight="normal" text-decoration="none" x="400" y="300">UNREGISTERED</text><text fill="#eeeeee" stroke="none" font-family="Arial" font-size="24px" font-style="normal" font-weight="normal" text-decoration="none" x="400" y="330">UNREGISTERED</text><text fill="#eeeeee" stroke="none" font-family="Arial" font-size="24px" font-style="normal" font-weight="normal" text-decoration="none" x="400" y="360">UNREGISTERED</text><text fill="#eeeeee" stroke="none" font-family="Arial" font-size="24px" font-style="normal" font-weight="normal" text-decoration="none" x="400" y="390">UNREGISTERED</text><text fill="#eeeeee" stroke="none" font-family="Arial" font-size="24px" font-style="normal" font-weight="normal" text-decoration="none" x="400" y="420">UNREGISTERED</text><text fill="#eeeeee" stroke="none" font-family="Arial" font-size="24px" font-style="normal" font-weight="normal" text-decoration="none" x="400" y="450">UNREGISTERED</text><text fill="#eeeeee" stroke="none" font-family="Arial" font-size="24px" font-style="normal" font-weight="normal" text-decoration="none" x="400" y="480">UNREGISTERED</text><text fill="#eeeeee" stroke="none" font-family="Arial" font-size="24px" font-style="normal" font-weight="normal" text-decoration="none" x="400" y="510">UNREGISTERED</text><text fill="#eeeeee" stroke="none" font-family="Arial" font-size="24px" font-style="normal" font-weight="normal" text-decoration="none" x="400" y="540">UNREGISTERED</text><text fill="#eeeeee" stroke="none" font-family="Arial" font-size="24px" font-style="normal" font-weight="normal" text-decoration="none" x="400" y="570">UNREGISTERED</text><text fill="#eeeeee" stroke="none" font-family="Arial" font-size="24px" font-style="normal" font-weight="normal" text-decoration="none" x="400" y="600">UNREGISTERED</text><text fill="#eeeeee" stroke="none" font-family="Arial" font-size="24px" font-style="normal" font-weight="normal" text-decoration="none" x="400" y="630">UNREGISTERED</text><text fill="#eeeeee" stroke="none" font-family="Arial" font-size="24px" font-style="normal" font-weight="normal" text-decoration="none" x="400" y="660">UNREGISTERED</text><text fill="#eeeeee" stroke="none" font-family="Arial" font-size="24px" font-style="normal" font-weight="normal" text-decoration="none" x="400" y="690">UNREGISTERED</text><text fill="#eeeeee" stroke="none" font-family="Arial" font-size="24px" font-style="normal" font-weight="normal" text-decoration="none" x="400" y="720">UNREGISTERED</text><text fill="#eeeeee" stroke="none" font-family="Arial" font-size="24px" font-style="normal" font-weight="normal" text-decoration="none" x="600" y="0">UNREGISTERED</text><text fill="#eeeeee" stroke="none" font-family="Arial" font-size="24px" font-style="normal" font-weight="normal" text-decoration="none" x="600" y="30">UNREGISTERED</text><text fill="#eeeeee" stroke="none" font-family="Arial" font-size="24px" font-style="normal" font-weight="normal" text-decoration="none" x="600" y="60">UNREGISTERED</text><text fill="#eeeeee" stroke="none" font-family="Arial" font-size="24px" font-style="normal" font-weight="normal" text-decoration="none" x="600" y="90">UNREGISTERED</text><text fill="#eeeeee" stroke="none" font-family="Arial" font-size="24px" font-style="normal" font-weight="normal" text-decoration="none" x="600" y="120">UNREGISTERED</text><text fill="#eeeeee" stroke="none" font-family="Arial" font-size="24px" font-style="normal" font-weight="normal" text-decoration="none" x="600" y="150">UNREGISTERED</text><text fill="#eeeeee" stroke="none" font-family="Arial" font-size="24px" font-style="normal" font-weight="normal" text-decoration="none" x="600" y="180">UNREGISTERED</text><text fill="#eeeeee" stroke="none" font-family="Arial" font-size="24px" font-style="normal" font-weight="normal" text-decoration="none" x="600" y="210">UNREGISTERED</text><text fill="#eeeeee" stroke="none" font-family="Arial" font-size="24px" font-style="normal" font-weight="normal" text-decoration="none" x="600" y="240">UNREGISTERED</text><text fill="#eeeeee" stroke="none" font-family="Arial" font-size="24px" font-style="normal" font-weight="normal" text-decoration="none" x="600" y="270">UNREGISTERED</text><text fill="#eeeeee" stroke="none" font-family="Arial" font-size="24px" font-style="normal" font-weight="normal" text-decoration="none" x="600" y="300">UNREGISTERED</text><text fill="#eeeeee" stroke="none" font-family="Arial" font-size="24px" font-style="normal" font-weight="normal" text-decoration="none" x="600" y="330">UNREGISTERED</text><text fill="#eeeeee" stroke="none" font-family="Arial" font-size="24px" font-style="normal" font-weight="normal" text-decoration="none" x="600" y="360">UNREGISTERED</text><text fill="#eeeeee" stroke="none" font-family="Arial" font-size="24px" font-style="normal" font-weight="normal" text-decoration="none" x="600" y="390">UNREGISTERED</text><text fill="#eeeeee" stroke="none" font-family="Arial" font-size="24px" font-style="normal" font-weight="normal" text-decoration="none" x="600" y="420">UNREGISTERED</text><text fill="#eeeeee" stroke="none" font-family="Arial" font-size="24px" font-style="normal" font-weight="normal" text-decoration="none" x="600" y="450">UNREGISTERED</text><text fill="#eeeeee" stroke="none" font-family="Arial" font-size="24px" font-style="normal" font-weight="normal" text-decoration="none" x="600" y="480">UNREGISTERED</text><text fill="#eeeeee" stroke="none" font-family="Arial" font-size="24px" font-style="normal" font-weight="normal" text-decoration="none" x="600" y="510">UNREGISTERED</text><text fill="#eeeeee" stroke="none" font-family="Arial" font-size="24px" font-style="normal" font-weight="normal" text-decoration="none" x="600" y="540">UNREGISTERED</text><text fill="#eeeeee" stroke="none" font-family="Arial" font-size="24px" font-style="normal" font-weight="normal" text-decoration="none" x="600" y="570">UNREGISTERED</text><text fill="#eeeeee" stroke="none" font-family="Arial" font-size="24px" font-style="normal" font-weight="normal" text-decoration="none" x="600" y="600">UNREGISTERED</text><text fill="#eeeeee" stroke="none" font-family="Arial" font-size="24px" font-style="normal" font-weight="normal" text-decoration="none" x="600" y="630">UNREGISTERED</text><text fill="#eeeeee" stroke="none" font-family="Arial" font-size="24px" font-style="normal" font-weight="normal" text-decoration="none" x="600" y="660">UNREGISTERED</text><text fill="#eeeeee" stroke="none" font-family="Arial" font-size="24px" font-style="normal" font-weight="normal" text-decoration="none" x="600" y="690">UNREGISTERED</text><text fill="#eeeeee" stroke="none" font-family="Arial" font-size="24px" font-style="normal" font-weight="normal" text-decoration="none" x="600" y="720">UNREGISTERED</text><g transform="translate(-28,-22) scale(1,1)"><rect fill="#C0C0C0" stroke="none" x="359" y="239" width="136" height="80" opacity="0.2"/></g><g transform="translate(-28,-22) scale(1,1)"><rect fill="#ffffff" stroke="none" x="352" y="232" width="136" height="80"/></g><g transform="translate(-28,-22) scale(1,1)"><path fill="none" stroke="#000000" d="M 352 232 L 488 232 L 488 312 L 352 312 L 352 232 Z Z" stroke-miterlimit="10"/></g><g transform="translate(-28,-22) scale(1,1)"><path fill="none" stroke="#000000" d="M 352 257 L 488 257" stroke-miterlimit="10"/></g><g transform="translate(-28,-22) scale(1,1)"><g><path fill="none" stroke="none"/><text fill="#000000" stroke="none" font-family="Arial" font-size="13px" font-style="normal" font-weight="bold" text-decoration="none" x="403.013671875" y="251.5">Etapa</text></g></g><g transform="translate(-28,-22) scale(1,1)"><g><path fill="none" stroke="none"/><text fill="#000000" stroke="none" font-family="Arial" font-size="13px" font-style="normal" font-weight="normal" text-decoration="none" x="357" y="274.5">+duración: int</text></g></g><g transform="translate(-28,-22) scale(1,1)"><g><path fill="none" stroke="none"/><text fill="#000000" stroke="none" font-family="Arial" font-size="13px" font-style="normal" font-weight="normal" text-decoration="none" x="357" y="289.5">+númeroEtapa: int</text></g></g><g transform="translate(-28,-22) scale(1,1)"><g><path fill="none" stroke="none"/><text fill="#000000" stroke="none" font-family="Arial" font-size="13px" font-style="normal" font-weight="normal" text-decoration="none" x="357" y="304.5">+descripción: String</text></g></g><g transform="translate(-28,-22) scale(1,1)"><rect fill="#C0C0C0" stroke="none" x="375" y="527" width="123.53076171875" height="75" opacity="0.2"/></g><g transform="translate(-28,-22) scale(1,1)"><rect fill="#ffffff" stroke="none" x="368" y="520" width="123.53076171875" height="75"/></g><g transform="translate(-28,-22) scale(1,1)"><path fill="none" stroke="#000000" d="M 368 520 L 491.53076171875 520 L 491.53076171875 595 L 368 595 L 368 520 Z Z" stroke-miterlimit="10"/></g><g transform="translate(-28,-22) scale(1,1)"><path fill="none" stroke="#000000" d="M 368 558 L 491.53076171875 558" stroke-miterlimit="10"/></g><g transform="translate(-28,-22) scale(1,1)"><g><path fill="none" stroke="none"/><text fill="#000000" stroke="none" font-family="Arial" font-size="13px" font-style="normal" font-weight="normal" text-decoration="none" x="396.516357421875" y="537.5">«Catálogo»</text></g></g><g transform="translate(-28,-22) scale(1,1)"><g><path fill="none" stroke="none"/><text fill="#000000" stroke="none" font-family="Arial" font-size="13px" font-style="normal" font-weight="bold" text-decoration="none" x="412.061767578125" y="552.5">Rubro</text></g></g><g transform="translate(-28,-22) scale(1,1)"><g><path fill="none" stroke="none"/><text fill="#000000" stroke="none" font-family="Arial" font-size="13px" font-style="normal" font-weight="normal" text-decoration="none" x="373" y="575.5">+nombre: String</text></g></g><g transform="translate(-28,-22) scale(1,1)"><g><path fill="none" stroke="none"/><text fill="#000000" stroke="none" font-family="Arial" font-size="13px" font-style="normal" font-weight="normal" text-decoration="none" x="373" y="590.5">+descripción: String</text></g></g><g transform="translate(-28,-22) scale(1,1)"><path fill="none" stroke="#000000" d="M 568 560 L 492 560" stroke-miterlimit="10"/></g><g transform="translate(-28,-22) scale(1,1)"><path fill="none" stroke="#000000" d="M 502.16267485762415 555.790482243984 L 492 560 L 502.16267485762415 564.209517756016" stroke-miterlimit="10"/></g><g transform="translate(-28,-22) scale(1,1)"><g><path fill="none" stroke="none"/><text fill="#000000" stroke="none" font-family="Arial" font-size="13px" font-style="normal" font-weight="normal" text-decoration="none" x="509.641357421875" y="553.5">1</text></g></g><g transform="translate(-28,-22) scale(1,1)"><rect fill="#C0C0C0" stroke="none" x="375" y="343" width="120" height="75" opacity="0.2"/></g><g transform="translate(-28,-22) scale(1,1)"><rect fill="#ffffff" stroke="none" x="368" y="336" width="120" height="75"/></g><g transform="translate(-28,-22) scale(1,1)"><path fill="none" stroke="#000000" d="M 368 336 L 488 336 L 488 411 L 368 411 L 368 336 Z Z" stroke-miterlimit="10"/></g><g transform="translate(-28,-22) scale(1,1)"><path fill="none" stroke="#000000" d="M 368 374 L 488 374" stroke-miterlimit="10"/></g><g transform="translate(-28,-22) scale(1,1)"><g><path fill="none" stroke="none"/><text fill="#000000" stroke="none" font-family="Arial" font-size="13px" font-style="normal" font-weight="normal" text-decoration="none" x="394.7509765625" y="353.5">«Catálogo»</text></g></g><g transform="translate(-28,-22) scale(1,1)"><g><path fill="none" stroke="none"/><text fill="#000000" stroke="none" font-family="Arial" font-size="13px" font-style="normal" font-weight="bold" text-decoration="none" x="380.55126953125" y="368.5">Tipo de Recurso</text></g></g><g transform="translate(-28,-22) scale(1,1)"><g><path fill="none" stroke="none"/><text fill="#000000" stroke="none" font-family="Arial" font-size="13px" font-style="normal" font-weight="normal" text-decoration="none" x="373" y="391.5">+nombre: String</text></g></g><g transform="translate(-28,-22) scale(1,1)"><g><path fill="none" stroke="none"/><text fill="#000000" stroke="none" font-family="Arial" font-size="13px" font-style="normal" font-weight="normal" text-decoration="none" x="373" y="406.5">+descripción</text></g></g><g transform="translate(-28,-22) scale(1,1)"><rect fill="#C0C0C0" stroke="none" x="375" y="431" width="123.53076171875" height="75" opacity="0.2"/></g><g transform="translate(-28,-22) scale(1,1)"><rect fill="#ffffff" stroke="none" x="368" y="424" width="123.53076171875" height="75"/></g><g transform="translate(-28,-22) scale(1,1)"><path fill="none" stroke="#000000" d="M 368 424 L 491.53076171875 424 L 491.53076171875 499 L 368 499 L 368 424 Z Z" stroke-miterlimit="10"/></g><g transform="translate(-28,-22) scale(1,1)"><path fill="none" stroke="#000000" d="M 368 462 L 491.53076171875 462" stroke-miterlimit="10"/></g><g transform="translate(-28,-22) scale(1,1)"><g><path fill="none" stroke="none"/><text fill="#000000" stroke="none" font-family="Arial" font-size="13px" font-style="normal" font-weight="normal" text-decoration="none" x="396.516357421875" y="441.5">«Catálogo»</text></g></g><g transform="translate(-28,-22) scale(1,1)"><g><path fill="none" stroke="none"/><text fill="#000000" stroke="none" font-family="Arial" font-size="13px" font-style="normal" font-weight="bold" text-decoration="none" x="389.178466796875" y="456.5">Tipo de Gasto</text></g></g><g transform="translate(-28,-22) scale(1,1)"><g><path fill="none" stroke="none"/><text fill="#000000" stroke="none" font-family="Arial" font-size="13px" font-style="normal" font-weight="normal" text-decoration="none" x="373" y="479.5">+nombre: String</text></g></g><g transform="translate(-28,-22) scale(1,1)"><g><path fill="none" stroke="none"/><text fill="#000000" stroke="none" font-family="Arial" font-size="13px" font-style="normal" font-weight="normal" text-decoration="none" x="373" y="494.5">+descripción: String</text></g></g><g transform="translate(-28,-22) scale(1,1)"><rect fill="#C0C0C0" stroke="none" x="575" y="351" width="136" height="248" opacity="0.2"/></g><g transform="translate(-28,-22) scale(1,1)"><rect fill="#ffffff" stroke="none" x="568" y="344" width="136" height="248"/></g><g transform="translate(-28,-22) scale(1,1)"><path fill="none" stroke="#000000" d="M 568 344 L 704 344 L 704 592 L 568 592 L 568 344 Z Z" stroke-miterlimit="10"/></g><g transform="translate(-28,-22) scale(1,1)"><path fill="none" stroke="#000000" d="M 568 369 L 704 369" stroke-miterlimit="10"/></g><g transform="translate(-28,-22) scale(1,1)"><g><path fill="none" stroke="none"/><text fill="#000000" stroke="none" font-family="Arial" font-size="13px" font-style="normal" font-weight="bold" text-decoration="none" x="611.79638671875" y="363.5">Recurso</text></g></g><g transform="translate(-28,-22) scale(1,1)"><g><path fill="none" stroke="none"/><text fill="#000000" stroke="none" font-family="Arial" font-size="13px" font-style="normal" font-weight="normal" text-decoration="none" x="573" y="386.5">+importe: Float</text></g></g><g transform="translate(-28,-22) scale(1,1)"><g><path fill="none" stroke="none"/><text fill="#000000" stroke="none" font-family="Arial" font-size="13px" font-style="normal" font-weight="normal" text-decoration="none" x="573" y="401.5">+justificación: String</text></g></g><g transform="translate(-28,-22) scale(1,1)"><path fill="none" stroke="#000000" d="M 568 368 L 488 368" stroke-miterlimit="10"/></g><g transform="translate(-28,-22) scale(1,1)"><path fill="none" stroke="#000000" d="M 498.16267485762415 363.790482243984 L 488 368 L 498.16267485762415 372.209517756016" stroke-miterlimit="10"/></g><g transform="translate(-28,-22) scale(1,1)"><g><path fill="none" stroke="none"/><text fill="#000000" stroke="none" font-family="Arial" font-size="13px" font-style="normal" font-weight="normal" text-decoration="none" x="505.5" y="361.5">1</text></g></g><g transform="translate(-28,-22) scale(1,1)"><path fill="none" stroke="#000000" d="M 568 464 L 492 464" stroke-miterlimit="10"/></g><g transform="translate(-28,-22) scale(1,1)"><path fill="none" stroke="#000000" d="M 502.16267485762415 459.790482243984 L 492 464 L 502.16267485762415 468.209517756016" stroke-miterlimit="10"/></g><g transform="translate(-28,-22) scale(1,1)"><g><path fill="none" stroke="none"/><text fill="#000000" stroke="none" font-family="Arial" font-size="13px" font-style="normal" font-weight="normal" text-decoration="none" x="509.5" y="457.5">1</text></g></g><g transform="translate(-28,-22) scale(1,1)"><path fill="none" stroke="#000000" d="M 368 534 L 344 534 M 344 534 A 8 8 0 0 1 336 526 L 336 478 M 336 478 A 8 8 0 0 1 344 470 L 368 470" stroke-miterlimit="10"/></g><g transform="translate(-28,-22) scale(1,1)"><path fill="#000000" stroke="none" d="M 357.83732514237585 474.209517756016 L 368 470 L 357.83732514237585 465.790482243984 L 346 470"/></g><g transform="translate(-28,-22) scale(1,1)"><path fill="none" stroke="#000000" d="M 357.83732514237585 474.209517756016 L 368 470 L 357.83732514237585 465.790482243984 L 346 470 L 357.83732514237585 474.209517756016" stroke-miterlimit="10"/></g><g transform="translate(-28,-22) scale(1,1)"><g><path fill="none" stroke="none"/><text fill="#000000" stroke="none" font-family="Arial" font-size="13px" font-style="normal" font-weight="normal" text-decoration="none" x="343.5" y="526.5">1..*</text></g></g><g transform="translate(-28,-22) scale(1,1)"><rect fill="#C0C0C0" stroke="none" x="591" y="663" width="136.1962890625" height="56" opacity="0.2"/></g><g transform="translate(-28,-22) scale(1,1)"><rect fill="#ffffff" stroke="none" x="584" y="656" width="136.1962890625" height="56"/></g><g transform="translate(-28,-22) scale(1,1)"><path fill="none" stroke="#000000" d="M 584 656 L 720.1962890625 656 L 720.1962890625 712 L 584 712 L 584 656 Z Z" stroke-miterlimit="10"/></g><g transform="translate(-28,-22) scale(1,1)"><path fill="#ffffff" stroke="none" d="M 699.3388345170455 665.5799999999999 C 699.3388345170455 663.602820416 701.0658755503546 662 703.1962890625 662 C 705.3267025746454 662 707.0537436079546 663.602820416 707.0537436079546 665.5799999999999 C 707.0537436079546 667.5571795839999 705.3267025746454 669.16 703.1962890625 669.16 C 701.0658755503546 669.16 699.3388345170455 667.5571795839999 699.3388345170455 665.5799999999999 Z"/></g><g transform="translate(-28,-22) scale(1,1)"><path fill="none" stroke="#000000" d="M 699.3388345170455 665.5799999999999 C 699.3388345170455 663.602820416 701.0658755503546 662 703.1962890625 662 C 705.3267025746454 662 707.0537436079546 663.602820416 707.0537436079546 665.5799999999999 C 707.0537436079546 667.5571795839999 705.3267025746454 669.16 703.1962890625 669.16 C 701.0658755503546 669.16 699.3388345170455 667.5571795839999 699.3388345170455 665.5799999999999 Z" stroke-miterlimit="10"/></g><g transform="translate(-28,-22) scale(1,1)"><path fill="none" stroke="#000000" d="M 703.1962890625 669.16 L 703.1962890625 676.84" stroke-miterlimit="10"/></g><g transform="translate(-28,-22) scale(1,1)"><path fill="none" stroke="#000000" d="M 699.1119254261364 672.04 L 707.2806526988637 672.04" stroke-miterlimit="10"/></g><g transform="translate(-28,-22) scale(1,1)"><path fill="none" stroke="#000000" d="M 703.1962890625 676.84 L 697.5235617897728 684" stroke-miterlimit="10"/></g><g transform="translate(-28,-22) scale(1,1)"><path fill="none" stroke="#000000" d="M 703.1962890625 676.84 L 708.8690163352273 684" stroke-miterlimit="10"/></g><g transform="translate(-28,-22) scale(1,1)"><g><path fill="none" stroke="none"/><text fill="#000000" stroke="none" font-family="Arial" font-size="13px" font-style="normal" font-weight="bold" text-decoration="none" x="610.832275390625" y="675.5">Institución</text></g></g><g transform="translate(-28,-22) scale(1,1)"><g><path fill="none" stroke="none"/><text fill="#000000" stroke="none" font-family="Arial" font-size="13px" font-style="normal" font-weight="normal" text-decoration="none" x="593.5" y="690.5">(from definición)</text></g></g><g transform="translate(-28,-22) scale(1,1)"><path fill="none" stroke="#000000" d="M 648 592 L 648 656" stroke-miterlimit="10"/></g><g transform="translate(-28,-22) scale(1,1)"><path fill="none" stroke="#000000" d="M 643.790482243984 645.8373251423759 L 648 656 L 652.209517756016 645.8373251423759" stroke-miterlimit="10"/></g><g transform="translate(-28,-22) scale(1,1)"><g><path fill="none" stroke="none"/><text fill="#000000" stroke="none" font-family="Arial" font-size="13px" font-style="normal" font-weight="normal" text-decoration="none" x="662.5" y="642.5">+asignado a</text></g></g><g transform="translate(-28,-22) scale(1,1)"><g><path fill="none" stroke="none"/><text fill="#000000" stroke="none" font-family="Arial" font-size="13px" font-style="normal" font-weight="normal" text-decoration="none" x="631.5" y="640.5">1</text></g></g><g transform="translate(-28,-22) scale(1,1)"><path fill="none" stroke="#000000" d="M 489 275 Q 632 280 633 343" stroke-miterlimit="10"/></g><g transform="translate(-28,-22) scale(1,1)"><path fill="none" stroke="#000000" d="M 628.6297204617009 332.9054144831438 L 633 343 L 637.0476955750245 332.7717958305513" stroke-miterlimit="10"/></g><g transform="translate(-28,-22) scale(1,1)"><g><path fill="none" stroke="none"/><text fill="#000000" stroke="none" font-family="Arial" font-size="13px" font-style="normal" font-weight="normal" text-decoration="none" x="610.5" y="327.5">1..*</text></g></g><g transform="translate(-28,-22) scale(1,1)"><path fill="#ffffff" stroke="none" d="M 120 32 L 717.50048828125 32 L 727.50048828125 42 L 727.50048828125 87 L 120 87 L 120 32"/></g><g transform="translate(-28,-22) scale(1,1)"><path fill="none" stroke="#000000" d="M 120 32 L 717.50048828125 32 L 727.50048828125 42 L 727.50048828125 87 L 120 87 L 120 32 L 120 32" stroke-miterlimit="10"/></g><g transform="translate(-28,-22) scale(1,1)"><path fill="none" stroke="#000000" d="M 717.50048828125 32 L 717.50048828125 42 L 727.50048828125 42 L 717.50048828125 32" stroke-miterlimit="10"/></g><g transform="translate(-28,-22) scale(1,1)"><g><path fill="none" stroke="none"/><text fill="#000000" stroke="none" font-family="Arial" font-size="13px" font-style="normal" font-weight="normal" text-decoration="none" x="125" y="50">A partir de este modelo, se arma el desglose financiero:                                                  </text></g></g><g transform="translate(-28,-22) scale(1,1)"><g><path fill="none" stroke="none"/><text fill="#000000" stroke="none" font-family="Arial" font-size="13px" font-style="normal" font-weight="normal" text-decoration="none" x="125" y="65">------------------------------------------------------------------------------------------------------------------------------------     </text></g></g><g transform="translate(-28,-22) scale(1,1)"><g><path fill="none" stroke="none"/><text fill="#000000" stroke="none" font-family="Arial" font-size="13px" font-style="normal" font-weight="normal" text-decoration="none" x="125" y="80">| Etapa | Recurso | Tipo Recurso | Categoría del Recurso | Rubro | Justificación | Institución | importe |</text></g></g><g transform="translate(-28,-22) scale(1,1)"><rect fill="#C0C0C0" stroke="none" x="359" y="135" width="133.5029296875" height="59" opacity="0.2"/></g><g transform="translate(-28,-22) scale(1,1)"><rect fill="#ffffff" stroke="none" x="352" y="128" width="133.5029296875" height="59"/></g><g transform="translate(-28,-22) scale(1,1)"><path fill="none" stroke="#000000" d="M 352 128 L 485.5029296875 128 L 485.5029296875 187 L 352 187 L 352 128 Z Z" stroke-miterlimit="10"/></g><g transform="translate(-28,-22) scale(1,1)"><path fill="none" stroke="#000000" d="M 352 153 L 485.5029296875 153" stroke-miterlimit="10"/></g><g transform="translate(-28,-22) scale(1,1)"><g><path fill="none" stroke="none"/><text fill="#000000" stroke="none" font-family="Arial" font-size="13px" font-style="normal" font-weight="bold" text-decoration="none" x="373.102294921875" y="147.5">Plan de Trabajo</text></g></g><g transform="translate(-28,-22) scale(1,1)"><g><path fill="none" stroke="none"/><text fill="#000000" stroke="none" font-family="Arial" font-size="13px" font-style="normal" font-weight="normal" text-decoration="none" x="357" y="170.5">+descripción: String</text></g></g><g transform="translate(-28,-22) scale(1,1)"><rect fill="#C0C0C0" stroke="none" x="119" y="455" width="144" height="62" opacity="0.2"/></g><g transform="translate(-28,-22) scale(1,1)"><rect fill="#ffffff" stroke="none" x="112" y="448" width="144" height="62"/></g><g transform="translate(-28,-22) scale(1,1)"><path fill="none" stroke="#000000" d="M 112 448 L 256 448 L 256 510 L 112 510 L 112 448 Z Z" stroke-miterlimit="10"/></g><g transform="translate(-28,-22) scale(1,1)"><path fill="none" stroke="#000000" d="M 112 473 L 256 473" stroke-miterlimit="10"/></g><g transform="translate(-28,-22) scale(1,1)"><g><path fill="none" stroke="none"/><text fill="#000000" stroke="none" font-family="Arial" font-size="13px" font-style="normal" font-weight="bold" text-decoration="none" x="169.549560546875" y="467.5">Meta</text></g></g><g transform="translate(-28,-22) scale(1,1)"><g><path fill="none" stroke="none"/><text fill="#000000" stroke="none" font-family="Arial" font-size="13px" font-style="normal" font-weight="normal" text-decoration="none" x="117" y="490.5">+nombre: String</text></g></g><g transform="translate(-28,-22) scale(1,1)"><g><path fill="none" stroke="none"/><text fill="#000000" stroke="none" font-family="Arial" font-size="13px" font-style="normal" font-weight="normal" text-decoration="none" x="117" y="505.5">+descripción: String</text></g></g><g transform="translate(-28,-22) scale(1,1)"><rect fill="#C0C0C0" stroke="none" x="119" y="367" width="144" height="62" opacity="0.2"/></g><g transform="translate(-28,-22) scale(1,1)"><rect fill="#ffffff" stroke="none" x="112" y="360" width="144" height="62"/></g><g transform="translate(-28,-22) scale(1,1)"><path fill="none" stroke="#000000" d="M 112 360 L 256 360 L 256 422 L 112 422 L 112 360 Z Z" stroke-miterlimit="10"/></g><g transform="translate(-28,-22) scale(1,1)"><path fill="none" stroke="#000000" d="M 112 385 L 256 385" stroke-miterlimit="10"/></g><g transform="translate(-28,-22) scale(1,1)"><g><path fill="none" stroke="none"/><text fill="#000000" stroke="none" font-family="Arial" font-size="13px" font-style="normal" font-weight="bold" text-decoration="none" x="128.36279296875" y="379.5">Objetivo Específico</text></g></g><g transform="translate(-28,-22) scale(1,1)"><g><path fill="none" stroke="none"/><text fill="#000000" stroke="none" font-family="Arial" font-size="13px" font-style="normal" font-weight="normal" text-decoration="none" x="117" y="402.5">+nombre</text></g></g><g transform="translate(-28,-22) scale(1,1)"><g><path fill="none" stroke="none"/><text fill="#000000" stroke="none" font-family="Arial" font-size="13px" font-style="normal" font-weight="normal" text-decoration="none" x="117" y="417.5">+descripción: String</text></g></g><g transform="translate(-28,-22) scale(1,1)"><rect fill="#C0C0C0" stroke="none" x="127" y="607" width="144" height="62" opacity="0.2"/></g><g transform="translate(-28,-22) scale(1,1)"><rect fill="#ffffff" stroke="none" x="120" y="600" width="144" height="62"/></g><g transform="translate(-28,-22) scale(1,1)"><path fill="none" stroke="#000000" d="M 120 600 L 264 600 L 264 662 L 120 662 L 120 600 Z Z" stroke-miterlimit="10"/></g><g transform="translate(-28,-22) scale(1,1)"><path fill="none" stroke="#000000" d="M 120 625 L 264 625" stroke-miterlimit="10"/></g><g transform="translate(-28,-22) scale(1,1)"><g><path fill="none" stroke="none"/><text fill="#000000" stroke="none" font-family="Arial" font-size="13px" font-style="normal" font-weight="bold" text-decoration="none" x="165.62548828125" y="619.5">Actividad</text></g></g><g transform="translate(-28,-22) scale(1,1)"><g><path fill="none" stroke="none"/><text fill="#000000" stroke="none" font-family="Arial" font-size="13px" font-style="normal" font-weight="normal" text-decoration="none" x="125" y="642.5">+nombre: String</text></g></g><g transform="translate(-28,-22) scale(1,1)"><g><path fill="none" stroke="none"/><text fill="#000000" stroke="none" font-family="Arial" font-size="13px" font-style="normal" font-weight="normal" text-decoration="none" x="125" y="657.5">+descripción: String</text></g></g><g transform="translate(-28,-22) scale(1,1)"><rect fill="#C0C0C0" stroke="none" x="127" y="687" width="144" height="62" opacity="0.2"/></g><g transform="translate(-28,-22) scale(1,1)"><rect fill="#ffffff" stroke="none" x="120" y="680" width="144" height="62"/></g><g transform="translate(-28,-22) scale(1,1)"><path fill="none" stroke="#000000" d="M 120 680 L 264 680 L 264 742 L 120 742 L 120 680 Z Z" stroke-miterlimit="10"/></g><g transform="translate(-28,-22) scale(1,1)"><path fill="none" stroke="#000000" d="M 120 705 L 264 705" stroke-miterlimit="10"/></g><g transform="translate(-28,-22) scale(1,1)"><g><path fill="none" stroke="none"/><text fill="#000000" stroke="none" font-family="Arial" font-size="13px" font-style="normal" font-weight="bold" text-decoration="none" x="165.984130859375" y="699.5">Producto</text></g></g><g transform="translate(-28,-22) scale(1,1)"><g><path fill="none" stroke="none"/><text fill="#000000" stroke="none" font-family="Arial" font-size="13px" font-style="normal" font-weight="normal" text-decoration="none" x="125" y="722.5">+nombre: String</text></g></g><g transform="translate(-28,-22) scale(1,1)"><g><path fill="none" stroke="none"/><text fill="#000000" stroke="none" font-family="Arial" font-size="13px" font-style="normal" font-weight="normal" text-decoration="none" x="125" y="737.5">+descripción: String</text></g></g><g transform="translate(-28,-22) scale(1,1)"><path fill="none" stroke="#000000" d="M 351 275 Q 232 280 198 359" stroke-miterlimit="10"/></g><g transform="translate(-28,-22) scale(1,1)"><path fill="none" stroke="#000000" d="M 198.15090889635243 348.0010352075751 L 198 359 L 205.8841512947079 351.32926611319647" stroke-miterlimit="10"/></g><g transform="translate(-28,-22) scale(1,1)"><g><path fill="none" stroke="none"/><text fill="#000000" stroke="none" font-family="Arial" font-size="13px" font-style="normal" font-weight="normal" text-decoration="none" x="318.5" y="269.5">1..*</text></g></g><g transform="translate(-28,-22) scale(1,1)"><g><path fill="none" stroke="none"/><text fill="#000000" stroke="none" font-family="Arial" font-size="13px" font-style="normal" font-weight="normal" text-decoration="none" x="185.5" y="340.5">1..*</text></g></g><g transform="translate(-28,-22) scale(1,1)"><path fill="none" stroke="#000000" d="M 184 422 L 184 448" stroke-miterlimit="10"/></g><g transform="translate(-28,-22) scale(1,1)"><path fill="none" stroke="#000000" d="M 179.790482243984 437.83732514237585 L 184 448 L 188.209517756016 437.83732514237585" stroke-miterlimit="10"/></g><g transform="translate(-28,-22) scale(1,1)"><g><path fill="none" stroke="none"/><text fill="#000000" stroke="none" font-family="Arial" font-size="13px" font-style="normal" font-weight="normal" text-decoration="none" x="150.5" y="444.5">1..*</text></g></g><g transform="translate(-28,-22) scale(1,1)"><path fill="none" stroke="#000000" d="M 184 510 L 184 600" stroke-miterlimit="10"/></g><g transform="translate(-28,-22) scale(1,1)"><path fill="none" stroke="#000000" d="M 179.790482243984 589.8373251423759 L 184 600 L 188.209517756016 589.8373251423759" stroke-miterlimit="10"/></g><g transform="translate(-28,-22) scale(1,1)"><g><path fill="none" stroke="none"/><text fill="#000000" stroke="none" font-family="Arial" font-size="13px" font-style="normal" font-weight="normal" text-decoration="none" x="150.5" y="574.5">1..*</text></g></g><g transform="translate(-28,-22) scale(1,1)"><g><path fill="none" stroke="none"/><text fill="#000000" stroke="none" font-family="Arial" font-size="13px" font-style="normal" font-weight="normal" text-decoration="none" x="37.5" y="564.5">+se cumple a través de</text></g></g><g transform="translate(-28,-22) scale(1,1)"><path fill="none" stroke="#000000" d="M 192 662 L 192 680" stroke-miterlimit="10"/></g><g transform="translate(-28,-22) scale(1,1)"><path fill="none" stroke="#000000" d="M 187.790482243984 669.8373251423759 L 192 680 L 196.209517756016 669.8373251423759" stroke-miterlimit="10"/></g><g transform="translate(-28,-22) scale(1,1)"><g><path fill="none" stroke="none"/><text fill="#000000" stroke="none" font-family="Arial" font-size="13px" font-style="normal" font-weight="normal" text-decoration="none" x="158.5" y="676.5">1..*</text></g></g><g transform="translate(-28,-22) scale(1,1)"><path fill="none" stroke="#000000" d="M 416 232 L 416 187" stroke-miterlimit="10"/></g><g transform="translate(-28,-22) scale(1,1)"><path fill="#000000" stroke="none" d="M 420.209517756016 197.16267485762415 L 416 187 L 411.790482243984 197.16267485762415 L 416 209"/></g><g transform="translate(-28,-22) scale(1,1)"><path fill="none" stroke="#000000" d="M 420.209517756016 197.16267485762415 L 416 187 L 411.790482243984 197.16267485762415 L 416 209 L 420.209517756016 197.16267485762415" stroke-miterlimit="10"/></g><g transform="translate(-28,-22) scale(1,1)"><g><path fill="none" stroke="none"/><text fill="#000000" stroke="none" font-family="Arial" font-size="13px" font-style="normal" font-weight="normal" text-decoration="none" x="418.5" y="220.5">1..*</text></g></g><g transform="translate(-28,-22) scale(1,1)"><rect fill="#C0C0C0" stroke="none" x="391" y="679" width="156.419921875" height="80" opacity="0.2"/></g><g transform="translate(-28,-22) scale(1,1)"><rect fill="#ffffff" stroke="none" x="384" y="672" width="156.419921875" height="80"/></g><g transform="translate(-28,-22) scale(1,1)"><path fill="none" stroke="#000000" d="M 384 672 L 540.419921875 672 L 540.419921875 752 L 384 752 L 384 672 Z Z" stroke-miterlimit="10"/></g><g transform="translate(-28,-22) scale(1,1)"><path fill="#ffffff" stroke="none" d="M 519.5624673295455 681.5799999999999 C 519.5624673295455 679.602820416 521.2895083628546 678 523.419921875 678 C 525.5503353871454 678 527.2773764204546 679.602820416 527.2773764204546 681.5799999999999 C 527.2773764204546 683.5571795839999 525.5503353871454 685.16 523.419921875 685.16 C 521.2895083628546 685.16 519.5624673295455 683.5571795839999 519.5624673295455 681.5799999999999 Z"/></g><g transform="translate(-28,-22) scale(1,1)"><path fill="none" stroke="#000000" d="M 519.5624673295455 681.5799999999999 C 519.5624673295455 679.602820416 521.2895083628546 678 523.419921875 678 C 525.5503353871454 678 527.2773764204546 679.602820416 527.2773764204546 681.5799999999999 C 527.2773764204546 683.5571795839999 525.5503353871454 685.16 523.419921875 685.16 C 521.2895083628546 685.16 519.5624673295455 683.5571795839999 519.5624673295455 681.5799999999999 Z" stroke-miterlimit="10"/></g><g transform="translate(-28,-22) scale(1,1)"><path fill="none" stroke="#000000" d="M 523.419921875 685.16 L 523.419921875 692.84" stroke-miterlimit="10"/></g><g transform="translate(-28,-22) scale(1,1)"><path fill="none" stroke="#000000" d="M 519.3355582386364 688.04 L 527.5042855113637 688.04" stroke-miterlimit="10"/></g><g transform="translate(-28,-22) scale(1,1)"><path fill="none" stroke="#000000" d="M 523.419921875 692.84 L 517.7471946022728 700" stroke-miterlimit="10"/></g><g transform="translate(-28,-22) scale(1,1)"><path fill="none" stroke="#000000" d="M 523.419921875 692.84 L 529.0926491477273 700" stroke-miterlimit="10"/></g><g transform="translate(-28,-22) scale(1,1)"><g><path fill="none" stroke="none"/><text fill="#000000" stroke="none" font-family="Arial" font-size="13px" font-style="normal" font-weight="bold" text-decoration="none" x="406.858642578125" y="691.5">Persona Física</text></g></g><g transform="translate(-28,-22) scale(1,1)"><g><path fill="none" stroke="none"/><text fill="#000000" stroke="none" font-family="Arial" font-size="13px" font-style="normal" font-weight="normal" text-decoration="none" x="393.5" y="706.5">(from Participantes)</text></g></g><g transform="translate(-28,-22) scale(1,1)"><path fill="none" stroke="#000000" d="M 459 671 Q 456 624 265 629" stroke-miterlimit="10"/></g><g transform="translate(-28,-22) scale(1,1)"><path fill="none" stroke="#000000" d="M 275.0490354045759 624.5259763704713 L 265 629 L 275.26935352658785 632.9421286313307" stroke-miterlimit="10"/></g><g transform="translate(-28,-22) scale(1,1)"><g><path fill="none" stroke="none"/><text fill="#000000" stroke="none" font-family="Arial" font-size="13px" font-style="normal" font-weight="normal" text-decoration="none" x="350.5" y="620.5">+realiza</text></g></g><g transform="translate(-28,-22) scale(1,1)"><path fill="none" stroke="#000000" d="M 383 712 Q 312 712 265 712" stroke-miterlimit="10"/></g><g transform="translate(-28,-22) scale(1,1)"><path fill="none" stroke="#000000" d="M 275.16267485762415 707.790482243984 L 265 712 L 275.16267485762415 716.209517756016" stroke-miterlimit="10"/></g><g transform="translate(-28,-22) scale(1,1)"><g><path fill="none" stroke="none"/><text fill="#000000" stroke="none" font-family="Arial" font-size="13px" font-style="normal" font-weight="normal" text-decoration="none" x="283.5" y="733.5">+produce</text></g></g><g transform="translate(-28,-22) scale(1,1)"><path fill="none" stroke="#000000" d="M 244 599 Q 320 552 367 554" stroke-miterlimit="10"/></g><g transform="translate(-28,-22) scale(1,1)"><path fill="none" stroke="#000000" d="M 356.66754736500866 557.7736484395953 L 367 554 L 357.0254802740569 549.3622250769607" stroke-miterlimit="10"/></g><g transform="translate(-28,-22) scale(1,1)"><g><path fill="none" stroke="none"/><text fill="#000000" stroke="none" font-family="Arial" font-size="13px" font-style="normal" font-weight="normal" text-decoration="none" x="262.5" y="564.5">+justifica</text></g></g></g></svg>