<svg version="1.1" xmlns="http://www.w3.org/2000/svg" xmlns:xlink="http://www.w3.org/1999/xlink" width="710.50048828125" height="700"><defs/><g><text fill="#eeeeee" stroke="none" font-family="Arial" font-size="24px" font-style="normal" font-weight="normal" text-decoration="none" x="0" y="0">UNREGISTERED</text><text fill="#eeeeee" stroke="none" font-family="Arial" font-size="24px" font-style="normal" font-weight="normal" text-decoration="none" x="0" y="30">UNREGISTERED</text><text fill="#eeeeee" stroke="none" font-family="Arial" font-size="24px" font-style="normal" font-weight="normal" text-decoration="none" x="0" y="60">UNREGISTERED</text><text fill="#eeeeee" stroke="none" font-family="Arial" font-size="24px" font-style="normal" font-weight="normal" text-decoration="none" x="0" y="90">UNREGISTERED</text><text fill="#eeeeee" stroke="none" font-family="Arial" font-size="24px" font-style="normal" font-weight="normal" text-decoration="none" x="0" y="120">UNREGISTERED</text><text fill="#eeeeee" stroke="none" font-family="Arial" font-size="24px" font-style="normal" font-weight="normal" text-decoration="none" x="0" y="150">UNREGISTERED</text><text fill="#eeeeee" stroke="none" font-family="Arial" font-size="24px" font-style="normal" font-weight="normal" text-decoration="none" x="0" y="180">UNREGISTERED</text><text fill="#eeeeee" stroke="none" font-family="Arial" font-size="24px" font-style="normal" font-weight="normal" text-decoration="none" x="0" y="210">UNREGISTERED</text><text fill="#eeeeee" stroke="none" font-family="Arial" font-size="24px" font-style="normal" font-weight="normal" text-decoration="none" x="0" y="240">UNREGISTERED</text><text fill="#eeeeee" stroke="none" font-family="Arial" font-size="24px" font-style="normal" font-weight="normal" text-decoration="none" x="0" y="270">UNREGISTERED</text><text fill="#eeeeee" stroke="none" font-family="Arial" font-size="24px" font-style="normal" font-weight="normal" text-decoration="none" x="0" y="300">UNREGISTERED</text><text fill="#eeeeee" stroke="none" font-family="Arial" font-size="24px" font-style="normal" font-weight="normal" text-decoration="none" x="0" y="330">UNREGISTERED</text><text fill="#eeeeee" stroke="none" font-family="Arial" font-size="24px" font-style="normal" font-weight="normal" text-decoration="none" x="0" y="360">UNREGISTERED</text><text fill="#eeeeee" stroke="none" font-family="Arial" font-size="24px" font-style="normal" font-weight="normal" text-decoration="none" x="0" y="390">UNREGISTERED</text><text fill="#eeeeee" stroke="none" font-family="Arial" font-size="24px" font-style="normal" font-weight="normal" text-decoration="none" x="0" y="420">UNREGISTERED</text><text fill="#eeeeee" stroke="none" font-family="Arial" font-size="24px" font-style="normal" font-weight="normal" text-decoration="none" x="0" y="450">UNREGISTERED</text><text fill="#eeeeee" stroke="none" font-family="Arial" font-size="24px" font-style="normal" font-weight="normal" text-decoration="none" x="0" y="480">UNREGISTERED</text><text fill="#eeeeee" stroke="none" font-family="Arial" font-size="24px" font-style="normal" font-weight="normal" text-decoration="none" x="0" y="510">UNREGISTERED</text><text fill="#eeeeee" stroke="none" font-family="Arial" font-size="24px" font-style="normal" font-weight="normal" text-decoration="none" x="0" y="540">UNREGISTERED</text><text fill="#eeeeee" stroke="none" font-family="Arial" font-size="24px" font-style="normal" font-weight="normal" text-decoration="none" x="0" y="570">UNREGISTERED</text><text fill="#eeeeee" stroke="none" font-family="Arial" font-size="24px" font-style="normal" font-weight="normal" text-decoration="none" x="0" y="600">UNREGISTERED</text><text fill="#eeeeee" stroke="none" font-family="Arial" font-size="24px" font-style="normal" font-weight="normal" text-decoration="none" x="0" y="630">UNREGISTERED</text><text fill="#eeeeee" stroke="none" font-family="Arial" font-size="24px" font-style="normal" font-weight="normal" text-decoration="none" x="0" y="660">UNREGISTERED</text><text fill="#eeeeee" stroke="none" font-family="Arial" font-size="24px" font-style="normal" font-weight="normal" text-decoration="none" x="0" y="690">UNREGISTERED</text><text fill="#eeeeee" stroke="none" font-family="Arial" font-size="24px" font-style="normal" font-weight="normal" text-decoration="none" x="200" y="0">UNREGISTERED</text><text fill="#eeeeee" stroke="none" font-family="Arial" font-size="24px" font-style="normal" font-weight="normal" text-decoration="none" x="200" y="30">UNREGISTERED</text><text fill="#eeeeee" stroke="none" font-family="Arial" font-size="24px" font-style="normal" font-weight="normal" text-decoration="none" x="200" y="60">UNREGISTERED</text><text fill="#eeeeee" stroke="none" font-family="Arial" font-size="24px" font-style="normal" font-weight="normal" text-decoration="none" x="200" y="90">UNREGISTERED</text><text fill="#eeeeee" stroke="none" font-family="Arial" font-size="24px" font-style="normal" font-weight="normal" text-decoration="none" x="200" y="120">UNREGISTERED</text><text fill="#eeeeee" stroke="none" font-family="Arial" font-size="24px" font-style="normal" font-weight="normal" text-decoration="none" x="200" y="150">UNREGISTERED</text><text fill="#eeeeee" stroke="none" font-family="Arial" font-size="24px" font-style="normal" font-weight="normal" text-decoration="none" x="200" y="180">UNREGISTERED</text><text fill="#eeeeee" stroke="none" font-family="Arial" font-size="24px" font-style="normal" font-weight="normal" text-decoration="none" x="200" y="210">UNREGISTERED</text><text fill="#eeeeee" stroke="none" font-family="Arial" font-size="24px" font-style="normal" font-weight="normal" text-decoration="none" x="200" y="240">UNREGISTERED</text><text fill="#eeeeee" stroke="none" font-family="Arial" font-size="24px" font-style="normal" font-weight="normal" text-decoration="none" x="200" y="270">UNREGISTERED</text><text fill="#eeeeee" stroke="none" font-family="Arial" font-size="24px" font-style="normal" font-weight="normal" text-decoration="none" x="200" y="300">UNREGISTERED</text><text fill="#eeeeee" stroke="none" font-family="Arial" font-size="24px" font-style="normal" font-weight="normal" text-decoration="none" x="200" y="330">UNREGISTERED</text><text fill="#eeeeee" stroke="none" font-family="Arial" font-size="24px" font-style="normal" font-weight="normal" text-decoration="none" x="200" y="360">UNREGISTERED</text><text fill="#eeeeee" stroke="none" font-family="Arial" font-size="24px" font-style="normal" font-weight="normal" text-decoration="none" x="200" y="390">UNREGISTERED</text><text fill="#eeeeee" stroke="none" font-family="Arial" font-size="24px" font-style="normal" font-weight="normal" text-decoration="none" x="200" y="420">UNREGISTERED</text><text fill="#eeeeee" stroke="none" font-family="Arial" font-size="24px" font-style="normal" font-weight="normal" text-decoration="none" x="200" y="450">UNREGISTERED</text><text fill="#eeeeee" stroke="none" font-family="Arial" font-size="24px" font-style="normal" font-weight="normal" text-decoration="none" x="200" y="480">UNREGISTERED</text><text fill="#eeeeee" stroke="none" font-family="Arial" font-size="24px" font-style="normal" font-weight="normal" text-decoration="none" x="200" y="510">UNREGISTERED</text><text fill="#eeeeee" stroke="none" font-family="Arial" font-size="24px" font-style="normal" font-weight="normal" text-decoration="none" x="200" y="540">UNREGISTERED</text><text fill="#eeeeee" stroke="none" font-family="Arial" font-size="24px" font-style="normal" font-weight="normal" text-decoration="none" x="200" y="570">UNREGISTERED</text><text fill="#eeeeee" stroke="none" font-family="Arial" font-size="24px" font-style="normal" font-weight="normal" text-decoration="none" x="200" y="600">UNREGISTERED</text><text fill="#eeeeee" stroke="none" font-family="Arial" font-size="24px" font-style="normal" font-weight="normal" text-decoration="none" x="200" y="630">UNREGISTERED</text><text fill="#eeeeee" stroke="none" font-family="Arial" font-size="24px" font-style="normal" font-weight="normal" text-decoration="none" x="200" y="660">UNREGISTERED</text><text fill="#eeeeee" stroke="none" font-family="Arial" font-size="24px" font-style="normal" font-weight="normal" text-decoration="none" x="200" y="690">UNREGISTERED</text><text fill="#eeeeee" stroke="none" font-family="Arial" font-size="24px" font-style="normal" font-weight="normal" text-decoration="none" x="400" y="0">UNREGISTERED</text><text fill="#eeeeee" stroke="none" font-family="Arial" font-size="24px" font-style="normal" font-weight="normal" text-decoration="none" x="400" y="30">UNREGISTERED</text><text fill="#eeeeee" stroke="none" font-family="Arial" font-size="24px" font-style="normal" font-weight="normal" text-decoration="none" x="400" y="60">UNREGISTERED</text><text fill="#eeeeee" stroke="none" font-family="Arial" font-size="24px" font-style="normal" font-weight="normal" text-decoration="none" x="400" y="90">UNREGISTERED</text><text fill="#eeeeee" stroke="none" font-family="Arial" font-size="24px" font-style="normal" font-weight="normal" text-decoration="none" x="400" y="120">UNREGISTERED</text><text fill="#eeeeee" stroke="none" font-family="Arial" font-size="24px" font-style="normal" font-weight="normal" text-decoration="none" x="400" y="150">UNREGISTERED</text><text fill="#eeeeee" stroke="none" font-family="Arial" font-size="24px" font-style="normal" font-weight="normal" text-decoration="none" x="400" y="180">UNREGISTERED</text><text fill="#eeeeee" stroke="none" font-family="Arial" font-size="24px" font-style="normal" font-weight="normal" text-decoration="none" x="400" y="210">UNREGISTERED</text><text fill="#eeeeee" stroke="none" font-family="Arial" font-size="24px" font-style="normal" font-weight="normal" text-decoration="none" x="400" y="240">UNREGISTERED</text><text fill="#eeeeee" stroke="none" font-family="Arial" font-size="24px" font-style="normal" font-weight="normal" text-decoration="none" x="400" y="270">UNREGISTERED</text><text fill="#eeeeee" stroke="none" font-family="Arial" font-size="24px" font-style="normal" font-weight="normal" text-decoration="none" x="400" y="300">UNREGISTERED</text><text fill="#eeeeee" stroke="none" font-family="Arial" font-size="24px" font-style="normal" font-weight="normal" text-decoration="none" x="400" y="330">UNREGISTERED</text><text fill="#eeeeee" stroke="none" font-family="Arial" font-size="24px" font-style="normal" font-weight="normal" text-decoration="none" x="400" y="360">UNREGISTERED</text><text fill="#eeeeee" stroke="none" font-family="Arial" font-size="24px" font-style="normal" font-weight="normal" text-decoration="none" x="400" y="390">UNREGISTERED</text><text fill="#eeeeee" stroke="none" font-family="Arial" font-size="24px" font-style="normal" font-weight="normal" text-decoration="none" x="400" y="420">UNREGISTERED</text><text fill="#eeeeee" stroke="none" font-family="Arial" font-size="24px" font-style="normal" font-weight="normal" text-decoration="none" x="400" y="450">UNREGISTERED</text><text fill="#eeeeee" stroke="none" font-family="Arial" font-size="24px" font-style="normal" font-weight="normal" text-decoration="none" x="400" y="480">UNREGISTERED</text><text fill="#eeeeee" stroke="none" font-family="Arial" font-size="24px" font-style="normal" font-weight="normal" text-decoration="none" x="400" y="510">UNREGISTERED</text><text fill="#eeeeee" stroke="none" font-family="Arial" font-size="24px" font-style="normal" font-weight="normal" text-decoration="none" x="400" y="540">UNREGISTERED</text><text fill="#eeeeee" stroke="none" font-family="Arial" font-size="24px" font-style="normal" font-weight="normal" text-decoration="none" x="400" y="570">UNREGISTERED</text><text fill="#eeeeee" stroke="none" font-family="Arial" font-size="24px" font-style="normal" font-weight="normal" text-decoration="none" x="400" y="600">UNREGISTERED</text><text fill="#eeeeee" stroke="none" font-family="Arial" font-size="24px" font-style="normal" font-weight="normal" text-decoration="none" x="400" y="630">UNREGISTERED</text><text fill="#eeeeee" stroke="none" font-family="Arial" font-size="24px" font-style="normal" font-weight="normal" text-decoration="none" x="400" y="660">UNREGISTERED</text><text fill="#eeeeee" stroke="none" font-family="Arial" font-size="24px" font-style="normal" font-weight="normal" text-decoration="none" x="400" y="690">UNREGISTERED</text><text fill="#eeeeee" stroke="none" font-family="Arial" font-size="24px" font-style="normal" font-weight="normal" text-decoration="none" x="600" y="0">UNREGISTERED</text><text fill="#eeeeee" stroke="none" font-family="Arial" font-size="24px" font-style="normal" font-weight="normal" text-decoration="none" x="600" y="30">UNREGISTERED</text><text fill="#eeeeee" stroke="none" font-family="Arial" font-size="24px" font-style="normal" font-weight="normal" text-decoration="none" x="600" y="60">UNREGISTERED</text><text fill="#eeeeee" stroke="none" font-family="Arial" font-size="24px" font-style="normal" font-weight="normal" text-decoration="none" x="600" y="90">UNREGISTERED</text><text fill="#eeeeee" stroke="none" font-family="Arial" font-size="24px" font-style="normal" font-weight="normal" text-decoration="none" x="600" y="120">UNREGISTERED</text><text fill="#eeeeee" stroke="none" font-family="Arial" font-size="24px" font-style="normal" font-weight="normal" text-decoration="none" x="600" y="150">UNREGISTERED</text><text fill="#eeeeee" stroke="none" font-family="Arial" font-size="24px" font-style="normal" font-weight="normal" text-decoration="none" x="600" y="180">UNREGISTERED</text><text fill="#eeeeee" stroke="none" font-family="Arial" font-size="24px" font-style="normal" font-weight="normal" text-decoration="none" x="600" y="210">UNREGISTERED</text><text fill="#eeeeee" stroke="none" font-family="Arial" font-size="24px" font-style="normal" font-weight="normal" text-decoration="none" x="600" y="240">UNREGISTERED</text><text fill="#eeeeee" stroke="none" font-family="Arial" font-size="24px" font-style="normal" font-weight="normal" text-decoration="none" x="600" y="270">UNREGISTERED</text><text fill="#eeeeee" stroke="none" font-family="Arial" font-size="24px" font-style="normal" font-weight="normal" text-decoration="none" x="600" y="300">UNREGISTERED</text><text fill="#eeeeee" stroke="none" font-family="Arial" font-size="24px" font-style="normal" font-weight="normal" text-decoration="none" x="600" y="330">UNREGISTERED</text><text fill="#eeeeee" stroke="none" font-family="Arial" font-size="24px" font-style="normal" font-weight="normal" text-decoration="none" x="600" y="360">UNREGISTERED</text><text fill="#eeeeee" stroke="none" font-family="Arial" font-size="24px" font-style="normal" font-weight="normal" text-decoration="none" x="600" y="390">UNREGISTERED</text><text fill="#eeeeee" stroke="none" font-family="Arial" font-size="24px" font-style="normal" font-weight="normal" text-decoration="none" x="600" y="420">UNREGISTERED</text><text fill="#eeeeee" stroke="none" font-family="Arial" font-size="24px" font-style="normal" font-weight="normal" text-decoration="none" x="600" y="450">UNREGISTERED</text><text fill="#eeeeee" stroke="none" font-family="Arial" font-size="24px" font-style="normal" font-weight="normal" text-decoration="none" x="600" y="480">UNREGISTERED</text><text fill="#eeeeee" stroke="none" font-family="Arial" font-size="24px" font-style="normal" font-weight="normal" text-decoration="none" x="600" y="510">UNREGISTERED</text><text fill="#eeeeee" stroke="none" font-family="Arial" font-size="24px" font-style="normal" font-weight="normal" text-decoration="none" x="600" y="540">UNREGISTERED</text><text fill="#eeeeee" stroke="none" font-family="Arial" font-size="24px" font-style="normal" font-weight="normal" text-decoration="none" x="600" y="570">UNREGISTERED</text><text fill="#eeeeee" stroke="none" font-family="Arial" font-size="24px" font-style="normal" font-weight="normal" text-decoration="none" x="600" y="600">UNREGISTERED</text><text fill="#eeeeee" stroke="none" font-family="Arial" font-size="24px" font-style="normal" font-weight="normal" text-decoration="none" x="600" y="630">UNREGISTERED</text><text fill="#eeeeee" stroke="none" font-family="Arial" font-size="24px" font-style="normal" font-weight="normal" text-decoration="none" x="600" y="660">UNREGISTERED</text><text fill="#eeeeee" stroke="none" font-family="Arial" font-size="24px" font-style="normal" font-weight="normal" text-decoration="none" x="600" y="690">UNREGISTERED</text><g transform="translate(-92,-54) scale(1,1)"><rect fill="#C0C0C0" stroke="none" x="415" y="287" width="136" height="80" opacity="0.2"/></g><g transform="translate(-92,-54) scale(1,1)"><rect fill="#ffffff" stroke="none" x="408" y="280" width="136" height="80"/></g><g transform="translate(-92,-54) scale(1,1)"><path fill="none" stroke="#000000" d="M 408 280 L 544 280 L 544 360 L 408 360 L 408 280 Z Z" stroke-miterlimit="10"/></g><g transform="translate(-92,-54) scale(1,1)"><path fill="none" stroke="#000000" d="M 408 305 L 544 305" stroke-miterlimit="10"/></g><g transform="translate(-92,-54) scale(1,1)"><g><path fill="none" stroke="none"/><text fill="#000000" stroke="none" font-family="Arial" font-size="13px" font-style="normal" font-weight="bold" text-decoration="none" x="459.013671875" y="299.5">Etapa</text></g></g><g transform="translate(-92,-54) scale(1,1)"><g><path fill="none" stroke="none"/><text fill="#000000" stroke="none" font-family="Arial" font-size="13px" font-style="normal" font-weight="normal" text-decoration="none" x="413" y="322.5">+duración: int</text></g></g><g transform="translate(-92,-54) scale(1,1)"><g><path fill="none" stroke="none"/><text fill="#000000" stroke="none" font-family="Arial" font-size="13px" font-style="normal" font-weight="normal" text-decoration="none" x="413" y="337.5">+númeroEtapa: int</text></g></g><g transform="translate(-92,-54) scale(1,1)"><g><path fill="none" stroke="none"/><text fill="#000000" stroke="none" font-family="Arial" font-size="13px" font-style="normal" font-weight="normal" text-decoration="none" x="413" y="352.5">+descripción: String</text></g></g><g transform="translate(-92,-54) scale(1,1)"><rect fill="#C0C0C0" stroke="none" x="439" y="511" width="112" height="32" opacity="0.2"/></g><g transform="translate(-92,-54) scale(1,1)"><rect fill="#ffffff" stroke="none" x="432" y="504" width="112" height="32"/></g><g transform="translate(-92,-54) scale(1,1)"><path fill="none" stroke="#000000" d="M 432 504 L 544 504 L 544 536 L 432 536 L 432 504 Z Z" stroke-miterlimit="10"/></g><g transform="translate(-92,-54) scale(1,1)"><g><path fill="none" stroke="none"/><text fill="#000000" stroke="none" font-family="Arial" font-size="13px" font-style="normal" font-weight="bold" text-decoration="none" x="470.29638671875" y="523.5">Rubro</text></g></g><g transform="translate(-92,-54) scale(1,1)"><path fill="none" stroke="#000000" d="M 632 520 L 544 520" stroke-miterlimit="10"/></g><g transform="translate(-92,-54) scale(1,1)"><path fill="none" stroke="#000000" d="M 554.1626748576241 515.790482243984 L 544 520 L 554.1626748576241 524.209517756016" stroke-miterlimit="10"/></g><g transform="translate(-92,-54) scale(1,1)"><g><path fill="none" stroke="none"/><text fill="#000000" stroke="none" font-family="Arial" font-size="13px" font-style="normal" font-weight="normal" text-decoration="none" x="561.641357421875" y="513.5">1</text></g></g><g transform="translate(-92,-54) scale(1,1)"><rect fill="#C0C0C0" stroke="none" x="439" y="399" width="110.61328125" height="44" opacity="0.2"/></g><g transform="translate(-92,-54) scale(1,1)"><rect fill="#ffffff" stroke="none" x="432" y="392" width="110.61328125" height="44"/></g><g transform="translate(-92,-54) scale(1,1)"><path fill="none" stroke="#000000" d="M 432 392 L 542.61328125 392 L 542.61328125 436 L 432 436 L 432 392 Z Z" stroke-miterlimit="10"/></g><g transform="translate(-92,-54) scale(1,1)"><g><path fill="none" stroke="none"/><text fill="#000000" stroke="none" font-family="Arial" font-size="13px" font-style="normal" font-weight="bold" text-decoration="none" x="465.867431640625" y="411.5">Tipo de</text><text fill="#000000" stroke="none" font-family="Arial" font-size="13px" font-style="normal" font-weight="bold" text-decoration="none" x="463.10302734375" y="424.5">Recurso</text></g></g><g transform="translate(-92,-54) scale(1,1)"><rect fill="#C0C0C0" stroke="none" x="439" y="455" width="112" height="40" opacity="0.2"/></g><g transform="translate(-92,-54) scale(1,1)"><rect fill="#ffffff" stroke="none" x="432" y="448" width="112" height="40"/></g><g transform="translate(-92,-54) scale(1,1)"><path fill="none" stroke="#000000" d="M 432 448 L 544 448 L 544 488 L 432 488 L 432 448 Z Z" stroke-miterlimit="10"/></g><g transform="translate(-92,-54) scale(1,1)"><g><path fill="none" stroke="none"/><text fill="#000000" stroke="none" font-family="Arial" font-size="13px" font-style="normal" font-weight="bold" text-decoration="none" x="447.4130859375" y="467.5">Tipo de Gasto</text></g></g><g transform="translate(-92,-54) scale(1,1)"><rect fill="#C0C0C0" stroke="none" x="639" y="407" width="136" height="136" opacity="0.2"/></g><g transform="translate(-92,-54) scale(1,1)"><rect fill="#ffffff" stroke="none" x="632" y="400" width="136" height="136"/></g><g transform="translate(-92,-54) scale(1,1)"><path fill="none" stroke="#000000" d="M 632 400 L 768 400 L 768 536 L 632 536 L 632 400 Z Z" stroke-miterlimit="10"/></g><g transform="translate(-92,-54) scale(1,1)"><path fill="none" stroke="#000000" d="M 632 425 L 768 425" stroke-miterlimit="10"/></g><g transform="translate(-92,-54) scale(1,1)"><g><path fill="none" stroke="none"/><text fill="#000000" stroke="none" font-family="Arial" font-size="13px" font-style="normal" font-weight="bold" text-decoration="none" x="675.79638671875" y="419.5">Recurso</text></g></g><g transform="translate(-92,-54) scale(1,1)"><g><path fill="none" stroke="none"/><text fill="#000000" stroke="none" font-family="Arial" font-size="13px" font-style="normal" font-weight="normal" text-decoration="none" x="637" y="442.5">+importe: Float</text></g></g><g transform="translate(-92,-54) scale(1,1)"><g><path fill="none" stroke="none"/><text fill="#000000" stroke="none" font-family="Arial" font-size="13px" font-style="normal" font-weight="normal" text-decoration="none" x="637" y="457.5">+justificación: String</text></g></g><g transform="translate(-92,-54) scale(1,1)"><path fill="none" stroke="#000000" d="M 632 416 L 543 416" stroke-miterlimit="10"/></g><g transform="translate(-92,-54) scale(1,1)"><path fill="none" stroke="#000000" d="M 553.1626748576241 411.790482243984 L 543 416 L 553.1626748576241 420.209517756016" stroke-miterlimit="10"/></g><g transform="translate(-92,-54) scale(1,1)"><g><path fill="none" stroke="none"/><text fill="#000000" stroke="none" font-family="Arial" font-size="13px" font-style="normal" font-weight="normal" text-decoration="none" x="560.5" y="409.5">1</text></g></g><g transform="translate(-92,-54) scale(1,1)"><path fill="none" stroke="#000000" d="M 632 472 L 544 472" stroke-miterlimit="10"/></g><g transform="translate(-92,-54) scale(1,1)"><path fill="none" stroke="#000000" d="M 554.1626748576241 467.790482243984 L 544 472 L 554.1626748576241 476.209517756016" stroke-miterlimit="10"/></g><g transform="translate(-92,-54) scale(1,1)"><g><path fill="none" stroke="none"/><text fill="#000000" stroke="none" font-family="Arial" font-size="13px" font-style="normal" font-weight="normal" text-decoration="none" x="561.5" y="465.5">1</text></g></g><g transform="translate(-92,-54) scale(1,1)"><path fill="none" stroke="#000000" d="M 432 520 L 408 520 M 408 520 A 8 8 0 0 1 400 512 L 400 472 M 400 472 A 8 8 0 0 1 408 464 L 432 464" stroke-miterlimit="10"/></g><g transform="translate(-92,-54) scale(1,1)"><path fill="#000000" stroke="none" d="M 421.83732514237585 468.209517756016 L 432 464 L 421.83732514237585 459.790482243984 L 410 464"/></g><g transform="translate(-92,-54) scale(1,1)"><path fill="none" stroke="#000000" d="M 421.83732514237585 468.209517756016 L 432 464 L 421.83732514237585 459.790482243984 L 410 464 L 421.83732514237585 468.209517756016" stroke-miterlimit="10"/></g><g transform="translate(-92,-54) scale(1,1)"><rect fill="#C0C0C0" stroke="none" x="639" y="607" width="136.1962890625" height="56" opacity="0.2"/></g><g transform="translate(-92,-54) scale(1,1)"><rect fill="#ffffff" stroke="none" x="632" y="600" width="136.1962890625" height="56"/></g><g transform="translate(-92,-54) scale(1,1)"><path fill="none" stroke="#000000" d="M 632 600 L 768.1962890625 600 L 768.1962890625 656 L 632 656 L 632 600 Z Z" stroke-miterlimit="10"/></g><g transform="translate(-92,-54) scale(1,1)"><path fill="#ffffff" stroke="none" d="M 747.3388345170455 609.5799999999999 C 747.3388345170455 607.602820416 749.0658755503546 606 751.1962890625 606 C 753.3267025746454 606 755.0537436079546 607.602820416 755.0537436079546 609.5799999999999 C 755.0537436079546 611.5571795839999 753.3267025746454 613.16 751.1962890625 613.16 C 749.0658755503546 613.16 747.3388345170455 611.5571795839999 747.3388345170455 609.5799999999999 Z"/></g><g transform="translate(-92,-54) scale(1,1)"><path fill="none" stroke="#000000" d="M 747.3388345170455 609.5799999999999 C 747.3388345170455 607.602820416 749.0658755503546 606 751.1962890625 606 C 753.3267025746454 606 755.0537436079546 607.602820416 755.0537436079546 609.5799999999999 C 755.0537436079546 611.5571795839999 753.3267025746454 613.16 751.1962890625 613.16 C 749.0658755503546 613.16 747.3388345170455 611.5571795839999 747.3388345170455 609.5799999999999 Z" stroke-miterlimit="10"/></g><g transform="translate(-92,-54) scale(1,1)"><path fill="none" stroke="#000000" d="M 751.1962890625 613.16 L 751.1962890625 620.84" stroke-miterlimit="10"/></g><g transform="translate(-92,-54) scale(1,1)"><path fill="none" stroke="#000000" d="M 747.1119254261364 616.04 L 755.2806526988637 616.04" stroke-miterlimit="10"/></g><g transform="translate(-92,-54) scale(1,1)"><path fill="none" stroke="#000000" d="M 751.1962890625 620.84 L 745.5235617897728 628" stroke-miterlimit="10"/></g><g transform="translate(-92,-54) scale(1,1)"><path fill="none" stroke="#000000" d="M 751.1962890625 620.84 L 756.8690163352273 628" stroke-miterlimit="10"/></g><g transform="translate(-92,-54) scale(1,1)"><g><path fill="none" stroke="none"/><text fill="#000000" stroke="none" font-family="Arial" font-size="13px" font-style="normal" font-weight="bold" text-decoration="none" x="658.832275390625" y="619.5">Institución</text></g></g><g transform="translate(-92,-54) scale(1,1)"><g><path fill="none" stroke="none"/><text fill="#000000" stroke="none" font-family="Arial" font-size="13px" font-style="normal" font-weight="normal" text-decoration="none" x="641.5" y="634.5">(from definición)</text></g></g><g transform="translate(-92,-54) scale(1,1)"><path fill="none" stroke="#000000" d="M 696 536 L 696 600" stroke-miterlimit="10"/></g><g transform="translate(-92,-54) scale(1,1)"><path fill="none" stroke="#000000" d="M 691.790482243984 589.8373251423759 L 696 600 L 700.209517756016 589.8373251423759" stroke-miterlimit="10"/></g><g transform="translate(-92,-54) scale(1,1)"><g><path fill="none" stroke="none"/><text fill="#000000" stroke="none" font-family="Arial" font-size="13px" font-style="normal" font-weight="normal" text-decoration="none" x="710.5" y="586.5">+asignado a</text></g></g><g transform="translate(-92,-54) scale(1,1)"><g><path fill="none" stroke="none"/><text fill="#000000" stroke="none" font-family="Arial" font-size="13px" font-style="normal" font-weight="normal" text-decoration="none" x="679.5" y="584.5">1</text></g></g><g transform="translate(-92,-54) scale(1,1)"><path fill="none" stroke="#000000" d="M 545 323 Q 680 328 690 399" stroke-miterlimit="10"/></g><g transform="translate(-92,-54) scale(1,1)"><path fill="none" stroke="#000000" d="M 684.4142507038861 389.52374521232343 L 690 399 L 692.7510028153274 388.34955477409227" stroke-miterlimit="10"/></g><g transform="translate(-92,-54) scale(1,1)"><g><path fill="none" stroke="none"/><text fill="#000000" stroke="none" font-family="Arial" font-size="13px" font-style="normal" font-weight="normal" text-decoration="none" x="664.5" y="385.5">1..*</text></g></g><g transform="translate(-92,-54) scale(1,1)"><path fill="#ffffff" stroke="none" d="M 184 64 L 781.50048828125 64 L 791.50048828125 74 L 791.50048828125 119 L 184 119 L 184 64"/></g><g transform="translate(-92,-54) scale(1,1)"><path fill="none" stroke="#000000" d="M 184 64 L 781.50048828125 64 L 791.50048828125 74 L 791.50048828125 119 L 184 119 L 184 64 L 184 64" stroke-miterlimit="10"/></g><g transform="translate(-92,-54) scale(1,1)"><path fill="none" stroke="#000000" d="M 781.50048828125 64 L 781.50048828125 74 L 791.50048828125 74 L 781.50048828125 64" stroke-miterlimit="10"/></g><g transform="translate(-92,-54) scale(1,1)"><g><path fill="none" stroke="none"/><text fill="#000000" stroke="none" font-family="Arial" font-size="13px" font-style="normal" font-weight="normal" text-decoration="none" x="189" y="82">A partir de este modelo, se arma el desglose financiero:                                                  </text></g></g><g transform="translate(-92,-54) scale(1,1)"><g><path fill="none" stroke="none"/><text fill="#000000" stroke="none" font-family="Arial" font-size="13px" font-style="normal" font-weight="normal" text-decoration="none" x="189" y="97">------------------------------------------------------------------------------------------------------------------------------------     </text></g></g><g transform="translate(-92,-54) scale(1,1)"><g><path fill="none" stroke="none"/><text fill="#000000" stroke="none" font-family="Arial" font-size="13px" font-style="normal" font-weight="normal" text-decoration="none" x="189" y="112">| Etapa | Recurso | Tipo Recurso | Categoría del Recurso | Rubro | Justificación | Institución | importe |</text></g></g><g transform="translate(-92,-54) scale(1,1)"><rect fill="#C0C0C0" stroke="none" x="415" y="167" width="133.5029296875" height="59" opacity="0.2"/></g><g transform="translate(-92,-54) scale(1,1)"><rect fill="#ffffff" stroke="none" x="408" y="160" width="133.5029296875" height="59"/></g><g transform="translate(-92,-54) scale(1,1)"><path fill="none" stroke="#000000" d="M 408 160 L 541.5029296875 160 L 541.5029296875 219 L 408 219 L 408 160 Z Z" stroke-miterlimit="10"/></g><g transform="translate(-92,-54) scale(1,1)"><g><path fill="none" stroke="none"/><text fill="#000000" stroke="none" font-family="Arial" font-size="13px" font-style="normal" font-weight="bold" text-decoration="none" x="431.635009765625" y="179.5">PlanDeTrabajo</text></g></g><g transform="translate(-92,-54) scale(1,1)"><rect fill="#C0C0C0" stroke="none" x="183" y="487" width="144" height="47" opacity="0.2"/></g><g transform="translate(-92,-54) scale(1,1)"><rect fill="#ffffff" stroke="none" x="176" y="480" width="144" height="47"/></g><g transform="translate(-92,-54) scale(1,1)"><path fill="none" stroke="#000000" d="M 176 480 L 320 480 L 320 527 L 176 527 L 176 480 Z Z" stroke-miterlimit="10"/></g><g transform="translate(-92,-54) scale(1,1)"><path fill="none" stroke="#000000" d="M 176 505 L 320 505" stroke-miterlimit="10"/></g><g transform="translate(-92,-54) scale(1,1)"><g><path fill="none" stroke="none"/><text fill="#000000" stroke="none" font-family="Arial" font-size="13px" font-style="normal" font-weight="bold" text-decoration="none" x="233.549560546875" y="499.5">Meta</text></g></g><g transform="translate(-92,-54) scale(1,1)"><g><path fill="none" stroke="none"/><text fill="#000000" stroke="none" font-family="Arial" font-size="13px" font-style="normal" font-weight="normal" text-decoration="none" x="181" y="522.5">+descripción: String</text></g></g><g transform="translate(-92,-54) scale(1,1)"><rect fill="#C0C0C0" stroke="none" x="183" y="399" width="144" height="47" opacity="0.2"/></g><g transform="translate(-92,-54) scale(1,1)"><rect fill="#ffffff" stroke="none" x="176" y="392" width="144" height="47"/></g><g transform="translate(-92,-54) scale(1,1)"><path fill="none" stroke="#000000" d="M 176 392 L 320 392 L 320 439 L 176 439 L 176 392 Z Z" stroke-miterlimit="10"/></g><g transform="translate(-92,-54) scale(1,1)"><path fill="none" stroke="#000000" d="M 176 417 L 320 417" stroke-miterlimit="10"/></g><g transform="translate(-92,-54) scale(1,1)"><g><path fill="none" stroke="none"/><text fill="#000000" stroke="none" font-family="Arial" font-size="13px" font-style="normal" font-weight="bold" text-decoration="none" x="192.36279296875" y="411.5">Objetivo Específico</text></g></g><g transform="translate(-92,-54) scale(1,1)"><g><path fill="none" stroke="none"/><text fill="#000000" stroke="none" font-family="Arial" font-size="13px" font-style="normal" font-weight="normal" text-decoration="none" x="181" y="434.5">+descripción: String</text></g></g><g transform="translate(-92,-54) scale(1,1)"><rect fill="#C0C0C0" stroke="none" x="183" y="599" width="144" height="44" opacity="0.2"/></g><g transform="translate(-92,-54) scale(1,1)"><rect fill="#ffffff" stroke="none" x="176" y="592" width="144" height="44"/></g><g transform="translate(-92,-54) scale(1,1)"><path fill="none" stroke="#000000" d="M 176 592 L 320 592 L 320 636 L 176 636 L 176 592 Z Z" stroke-miterlimit="10"/></g><g transform="translate(-92,-54) scale(1,1)"><g><path fill="none" stroke="none"/><text fill="#000000" stroke="none" font-family="Arial" font-size="13px" font-style="normal" font-weight="bold" text-decoration="none" x="221.62548828125" y="611.5">Actividad</text></g></g><g transform="translate(-92,-54) scale(1,1)"><rect fill="#C0C0C0" stroke="none" x="183" y="679" width="144" height="44" opacity="0.2"/></g><g transform="translate(-92,-54) scale(1,1)"><rect fill="#ffffff" stroke="none" x="176" y="672" width="144" height="44"/></g><g transform="translate(-92,-54) scale(1,1)"><path fill="none" stroke="#000000" d="M 176 672 L 320 672 L 320 716 L 176 716 L 176 672 Z Z" stroke-miterlimit="10"/></g><g transform="translate(-92,-54) scale(1,1)"><g><path fill="none" stroke="none"/><text fill="#000000" stroke="none" font-family="Arial" font-size="13px" font-style="normal" font-weight="bold" text-decoration="none" x="221.984130859375" y="691.5">Producto</text></g></g><g transform="translate(-92,-54) scale(1,1)"><path fill="none" stroke="#000000" d="M 407 317 Q 272 312 254 391" stroke-miterlimit="10"/></g><g transform="translate(-92,-54) scale(1,1)"><path fill="none" stroke="#000000" d="M 252.15335597423828 380.156112051385 L 254 391 L 260.36201218983905 382.0264387840535" stroke-miterlimit="10"/></g><g transform="translate(-92,-54) scale(1,1)"><g><path fill="none" stroke="none"/><text fill="#000000" stroke="none" font-family="Arial" font-size="13px" font-style="normal" font-weight="normal" text-decoration="none" x="236.5" y="373.5">1..*</text></g></g><g transform="translate(-92,-54) scale(1,1)"><path fill="none" stroke="#000000" d="M 248 439 L 248 480" stroke-miterlimit="10"/></g><g transform="translate(-92,-54) scale(1,1)"><path fill="none" stroke="#000000" d="M 243.790482243984 469.83732514237585 L 248 480 L 252.209517756016 469.83732514237585" stroke-miterlimit="10"/></g><g transform="translate(-92,-54) scale(1,1)"><g><path fill="none" stroke="none"/><text fill="#000000" stroke="none" font-family="Arial" font-size="13px" font-style="normal" font-weight="normal" text-decoration="none" x="214.5" y="476.5">1..*</text></g></g><g transform="translate(-92,-54) scale(1,1)"><path fill="none" stroke="#000000" d="M 248 527 L 248 592" stroke-miterlimit="10"/></g><g transform="translate(-92,-54) scale(1,1)"><path fill="none" stroke="#000000" d="M 243.790482243984 581.8373251423759 L 248 592 L 252.209517756016 581.8373251423759" stroke-miterlimit="10"/></g><g transform="translate(-92,-54) scale(1,1)"><g><path fill="none" stroke="none"/><text fill="#000000" stroke="none" font-family="Arial" font-size="13px" font-style="normal" font-weight="normal" text-decoration="none" x="214.5" y="591.5">1..*</text></g></g><g transform="translate(-92,-54) scale(1,1)"><g><path fill="none" stroke="none"/><text fill="#000000" stroke="none" font-family="Arial" font-size="13px" font-style="normal" font-weight="normal" text-decoration="none" x="101.5" y="556.5">+se cumple a través de</text></g></g><g transform="translate(-92,-54) scale(1,1)"><path fill="none" stroke="#000000" d="M 248 636 L 248 672" stroke-miterlimit="10"/></g><g transform="translate(-92,-54) scale(1,1)"><path fill="none" stroke="#000000" d="M 243.790482243984 661.8373251423759 L 248 672 L 252.209517756016 661.8373251423759" stroke-miterlimit="10"/></g><g transform="translate(-92,-54) scale(1,1)"><g><path fill="none" stroke="none"/><text fill="#000000" stroke="none" font-family="Arial" font-size="13px" font-style="normal" font-weight="normal" text-decoration="none" x="214.5" y="668.5">1..*</text></g></g><g transform="translate(-92,-54) scale(1,1)"><path fill="none" stroke="#000000" d="M 472 280 L 472 219" stroke-miterlimit="10"/></g><g transform="translate(-92,-54) scale(1,1)"><path fill="#000000" stroke="none" d="M 476.209517756016 229.16267485762415 L 472 219 L 467.790482243984 229.16267485762415 L 472 241"/></g><g transform="translate(-92,-54) scale(1,1)"><path fill="none" stroke="#000000" d="M 476.209517756016 229.16267485762415 L 472 219 L 467.790482243984 229.16267485762415 L 472 241 L 476.209517756016 229.16267485762415" stroke-miterlimit="10"/></g><g transform="translate(-92,-54) scale(1,1)"><g><path fill="none" stroke="none"/><text fill="#000000" stroke="none" font-family="Arial" font-size="13px" font-style="normal" font-weight="normal" text-decoration="none" x="474.5" y="268.5">1..*</text></g></g><g transform="translate(-92,-54) scale(1,1)"><rect fill="#C0C0C0" stroke="none" x="447" y="671" width="156.419921875" height="80" opacity="0.2"/></g><g transform="translate(-92,-54) scale(1,1)"><rect fill="#ffffff" stroke="none" x="440" y="664" width="156.419921875" height="80"/></g><g transform="translate(-92,-54) scale(1,1)"><path fill="none" stroke="#000000" d="M 440 664 L 596.419921875 664 L 596.419921875 744 L 440 744 L 440 664 Z Z" stroke-miterlimit="10"/></g><g transform="translate(-92,-54) scale(1,1)"><path fill="#ffffff" stroke="none" d="M 575.5624673295455 673.5799999999999 C 575.5624673295455 671.602820416 577.2895083628546 670 579.419921875 670 C 581.5503353871454 670 583.2773764204546 671.602820416 583.2773764204546 673.5799999999999 C 583.2773764204546 675.5571795839999 581.5503353871454 677.16 579.419921875 677.16 C 577.2895083628546 677.16 575.5624673295455 675.5571795839999 575.5624673295455 673.5799999999999 Z"/></g><g transform="translate(-92,-54) scale(1,1)"><path fill="none" stroke="#000000" d="M 575.5624673295455 673.5799999999999 C 575.5624673295455 671.602820416 577.2895083628546 670 579.419921875 670 C 581.5503353871454 670 583.2773764204546 671.602820416 583.2773764204546 673.5799999999999 C 583.2773764204546 675.5571795839999 581.5503353871454 677.16 579.419921875 677.16 C 577.2895083628546 677.16 575.5624673295455 675.5571795839999 575.5624673295455 673.5799999999999 Z" stroke-miterlimit="10"/></g><g transform="translate(-92,-54) scale(1,1)"><path fill="none" stroke="#000000" d="M 579.419921875 677.16 L 579.419921875 684.84" stroke-miterlimit="10"/></g><g transform="translate(-92,-54) scale(1,1)"><path fill="none" stroke="#000000" d="M 575.3355582386364 680.04 L 583.5042855113637 680.04" stroke-miterlimit="10"/></g><g transform="translate(-92,-54) scale(1,1)"><path fill="none" stroke="#000000" d="M 579.419921875 684.84 L 573.7471946022728 692" stroke-miterlimit="10"/></g><g transform="translate(-92,-54) scale(1,1)"><path fill="none" stroke="#000000" d="M 579.419921875 684.84 L 585.0926491477273 692" stroke-miterlimit="10"/></g><g transform="translate(-92,-54) scale(1,1)"><g><path fill="none" stroke="none"/><text fill="#000000" stroke="none" font-family="Arial" font-size="13px" font-style="normal" font-weight="bold" text-decoration="none" x="462.858642578125" y="683.5">Persona Física</text></g></g><g transform="translate(-92,-54) scale(1,1)"><g><path fill="none" stroke="none"/><text fill="#000000" stroke="none" font-family="Arial" font-size="13px" font-style="normal" font-weight="normal" text-decoration="none" x="449.5" y="698.5">(from Participantes)</text></g></g><g transform="translate(-92,-54) scale(1,1)"><path fill="none" stroke="#000000" d="M 515 663 Q 512 616 321 615" stroke-miterlimit="10"/></g><g transform="translate(-92,-54) scale(1,1)"><path fill="none" stroke="#000000" d="M 331.18457463117693 610.8437469299877 L 321 615 L 331.14049651533884 619.2626670550726" stroke-miterlimit="10"/></g><g transform="translate(-92,-54) scale(1,1)"><g><path fill="none" stroke="none"/><text fill="#000000" stroke="none" font-family="Arial" font-size="13px" font-style="normal" font-weight="normal" text-decoration="none" x="407.5" y="609.5">+realiza</text></g></g><g transform="translate(-92,-54) scale(1,1)"><path fill="none" stroke="#000000" d="M 439 704 Q 368 704 321 700" stroke-miterlimit="10"/></g><g transform="translate(-92,-54) scale(1,1)"><path fill="none" stroke="#000000" d="M 331.4830353677971 696.6674380009496 L 321 700 L 330.7691025842409 705.0561482077345" stroke-miterlimit="10"/></g><g transform="translate(-92,-54) scale(1,1)"><g><path fill="none" stroke="none"/><text fill="#000000" stroke="none" font-family="Arial" font-size="13px" font-style="normal" font-weight="normal" text-decoration="none" x="338.5" y="724.5">+produce</text></g></g><g transform="translate(-92,-54) scale(1,1)"><path fill="none" stroke="#000000" d="M 309 591 Q 392 560 447 537" stroke-miterlimit="10"/></g><g transform="translate(-92,-54) scale(1,1)"><path fill="none" stroke="#000000" d="M 439.24817843486534 544.8044386359503 L 447 537 L 436.00006292191046 537.0372058875798" stroke-miterlimit="10"/></g><g transform="translate(-92,-54) scale(1,1)"><g><path fill="none" stroke="none"/><text fill="#000000" stroke="none" font-family="Arial" font-size="13px" font-style="normal" font-weight="normal" text-decoration="none" x="408.5" y="566.5">+justifica</text></g></g></g></svg>